M48
; DRILL file {KiCad 9.0.3} date 2026-06-30T21:05:39+0530
; FORMAT={-:-/ absolute / metric / decimal}
; #@! TF.CreationDate,2026-06-30T21:05:39+05:30
; #@! TF.GenerationSoftware,Kicad,Pcbnew,9.0.3
; #@! TF.FileFunction,MixedPlating,1,4
FMAT,2
METRIC
; #@! TA.AperFunction,Plated,PTH,ViaDrill
T1C0.300
; #@! TA.AperFunction,Plated,PTH,ComponentDrill
T2C0.600
; #@! TA.AperFunction,NonPlated,NPTH,ComponentDrill
T3C0.650
%
G90
G05
T1
X66.45Y-96.575
X66.935Y-80.653
X67.585Y-85.062
X67.915Y-104.917
X68.29Y-93.922
X68.715Y-104.837
X68.829Y-84.267
X69.8Y-93.875
X69.977Y-99.19
X70.1Y-101.025
X70.47Y-80.612
X71.065Y-85.147
X71.11Y-96.797
X72.252Y-99.19
X72.365Y-101.007
X72.375Y-84.267
X73.505Y-104.858
X73.78Y-97.567
X73.78Y-98.527
X74.025Y-80.627
X74.315Y-104.867
X74.675Y-82.618
X75.37Y-93.938
X75.925Y-84.267
X76.0Y-98.487
X76.585Y-81.403
X76.83Y-93.957
X76.95Y-98.472
X76.965Y-108.387
X76.975Y-109.367
X76.995Y-111.677
X77.575Y-80.647
X77.83Y-98.492
X78.225Y-102.608
X78.23Y-82.507
X78.255Y-94.722
X78.435Y-96.608
X78.74Y-92.587
X78.795Y-105.082
X78.829Y-103.186
X78.845Y-109.347
X78.945Y-98.447
X79.12Y-103.822
X79.269Y-102.167
X79.4Y-81.205
X79.479Y-84.252
X79.675Y-101.597
X80.055Y-105.032
X80.25Y-107.027
X80.935Y-94.227
X81.462Y-96.102
X82.495Y-105.532
X82.81Y-78.912
X82.81Y-87.646
X82.815Y-86.397
X82.815Y-86.397
X82.82Y-81.407
X82.825Y-80.157
X82.835Y-85.147
X82.855Y-83.902
X82.86Y-82.657
X82.965Y-104.897
X82.995Y-106.218
X83.465Y-99.542
X83.539Y-106.659
X83.735Y-79.447
X83.735Y-80.697
X83.735Y-81.947
X83.735Y-83.197
X83.735Y-84.447
X83.735Y-85.697
X83.735Y-86.947
X83.755Y-88.197
X83.77Y-89.282
X83.955Y-98.822
X84.44Y-101.123
X84.455Y-98.037
X84.96Y-97.343
X85.455Y-96.447
X85.455Y-96.453
X85.835Y-79.447
X85.835Y-80.697
X85.835Y-81.947
X85.835Y-83.197
X85.835Y-84.447
X85.835Y-85.697
X85.835Y-86.947
X85.84Y-88.242
X85.85Y-89.272
X85.95Y-97.222
X86.985Y-100.712
X87.05Y-98.772
X87.79Y-93.572
X87.935Y-79.447
X87.935Y-80.697
X87.935Y-81.947
X87.935Y-83.197
X87.935Y-84.447
X87.935Y-85.672
X87.935Y-86.947
X87.935Y-86.947
X87.935Y-89.257
X87.96Y-88.218
X88.015Y-98.812
X88.165Y-100.602
X88.595Y-95.192
X89.285Y-110.752
X89.29Y-105.338
X89.565Y-93.647
X90.02Y-89.257
X90.025Y-88.197
X90.035Y-79.447
X90.035Y-80.697
X90.035Y-81.947
X90.035Y-83.197
X90.035Y-84.447
X90.035Y-85.697
X90.035Y-86.947
X90.25Y-93.125
X91.1Y-101.623
X91.265Y-110.097
X91.375Y-99.642
X91.55Y-97.3
X91.995Y-101.612
X92.13Y-89.227
X92.135Y-79.447
X92.135Y-80.697
X92.135Y-81.947
X92.135Y-83.197
X92.135Y-84.447
X92.135Y-85.697
X92.135Y-86.947
X92.14Y-88.197
X92.9Y-95.15
X94.215Y-83.197
X94.22Y-84.447
X94.22Y-85.697
X94.225Y-88.147
X94.23Y-89.227
X94.235Y-79.447
X94.235Y-80.697
X94.235Y-81.947
X94.235Y-86.947
X94.79Y-111.972
X95.515Y-104.672
X96.32Y-89.237
X96.325Y-79.447
X96.325Y-88.197
X96.335Y-80.697
X96.335Y-81.947
X96.335Y-83.197
X96.335Y-84.447
X96.335Y-85.697
X96.335Y-86.947
X96.59Y-101.301
X96.75Y-97.837
X97.04Y-106.578
X97.07Y-99.64
X97.085Y-96.227
X97.095Y-103.052
X97.29Y-92.772
X98.41Y-79.447
X98.41Y-80.697
X98.41Y-81.947
X98.41Y-83.197
X98.41Y-84.447
X98.42Y-85.697
X98.425Y-86.947
X98.425Y-88.197
X98.425Y-96.328
X98.43Y-99.737
X98.435Y-89.227
X98.54Y-103.167
X98.77Y-106.688
X99.33Y-93.527
T3
X68.225Y-108.142
X74.005Y-108.142
T2
G00X66.795Y-108.192
M15
G01X66.795Y-107.093
M16
G05
G00X66.795Y-112.122
M15
G01X66.795Y-111.522
M16
G05
G00X75.435Y-108.192
M15
G01X75.435Y-107.093
M16
G05
G00X75.435Y-112.122
M15
G01X75.435Y-111.522
M16
G05
M30
