%TF.GenerationSoftware,KiCad,Pcbnew,9.0.3*%
%TF.CreationDate,2026-06-30T21:05:37+05:30*%
%TF.ProjectId,Elo_112,456c6f5f-3131-4322-9e6b-696361645f70,rev?*%
%TF.SameCoordinates,Original*%
%TF.FileFunction,Copper,L3,Inr*%
%TF.FilePolarity,Positive*%
%FSLAX46Y46*%
G04 Gerber Fmt 4.6, Leading zero omitted, Abs format (unit mm)*
G04 Created by KiCad (PCBNEW 9.0.3) date 2026-06-30 21:05:37*
%MOMM*%
%LPD*%
G01*
G04 APERTURE LIST*
%TA.AperFunction,HeatsinkPad*%
%ADD10O,1.000000X1.600000*%
%TD*%
%TA.AperFunction,HeatsinkPad*%
%ADD11O,1.000000X2.100000*%
%TD*%
%TA.AperFunction,ViaPad*%
%ADD12C,0.600000*%
%TD*%
%TA.AperFunction,Conductor*%
%ADD13C,0.200000*%
%TD*%
%TA.AperFunction,Conductor*%
%ADD14C,0.400000*%
%TD*%
G04 APERTURE END LIST*
D10*
%TO.N,GND*%
%TO.C,J1*%
X75435000Y-111822500D03*
D11*
X75435000Y-107642500D03*
D10*
X66795000Y-111822500D03*
D11*
X66795000Y-107642500D03*
%TD*%
D12*
%TO.N,GND*%
X90250000Y-93125000D03*
X66450000Y-96575000D03*
X69800000Y-93875000D03*
X91550000Y-97300000D03*
X92900000Y-95150000D03*
X67915000Y-104917500D03*
X68290000Y-93922500D03*
X72365000Y-101007500D03*
X76995000Y-111677500D03*
X94790000Y-111972500D03*
X78945000Y-98447500D03*
X70100000Y-101025000D03*
X87790000Y-93572500D03*
X78795000Y-105082500D03*
X91265000Y-110097500D03*
X86985000Y-100712500D03*
X89565000Y-93647500D03*
X76830000Y-93957500D03*
X76950000Y-98472500D03*
X76000000Y-98487500D03*
X91100000Y-101622500D03*
X79400000Y-81205000D03*
X73780000Y-98527500D03*
X84440000Y-101122500D03*
X77830000Y-98492500D03*
X87050000Y-98772500D03*
X76965000Y-108387500D03*
X74025000Y-80627500D03*
X71110000Y-96797500D03*
X77575000Y-80647500D03*
X70470000Y-80612500D03*
X82965000Y-104897500D03*
X88015000Y-98812500D03*
X74315000Y-104867500D03*
X66935000Y-80652500D03*
X79120000Y-103822500D03*
X91995000Y-101612500D03*
%TO.N,NSRT*%
X91375000Y-99642500D03*
%TO.N,BOOT0*%
X85950000Y-97222500D03*
%TO.N,+5V*%
X80250000Y-107027500D03*
%TO.N,+3V3*%
X98425000Y-96327500D03*
X88595000Y-95192500D03*
X88165000Y-100602500D03*
X78435000Y-96607500D03*
X98430000Y-99737500D03*
X80055000Y-105032500D03*
X78845000Y-109347500D03*
X98770000Y-106687500D03*
X76975000Y-109367500D03*
X97290000Y-92772500D03*
X75370000Y-93937500D03*
X98540000Y-103167500D03*
X89285000Y-110752500D03*
X73780000Y-97567500D03*
%TO.N,Net-(D1-A)*%
X98410000Y-80697500D03*
X98410000Y-81947500D03*
X98410000Y-84447500D03*
X98425000Y-86947500D03*
X98425000Y-88197500D03*
X98410000Y-83197500D03*
X98420000Y-85697500D03*
X98410000Y-79447500D03*
%TO.N,Net-(D1-K)*%
X82810000Y-87646500D03*
X67585000Y-85062500D03*
%TO.N,Net-(D10-K)*%
X82815000Y-86397500D03*
X82815000Y-86397500D03*
%TO.N,Net-(D11-K)*%
X82835000Y-85147500D03*
X71065000Y-85147500D03*
%TO.N,Net-(D12-K)*%
X82855000Y-83902500D03*
%TO.N,Net-(D13-K)*%
X74675000Y-82618301D03*
X82860000Y-82657500D03*
%TO.N,Net-(D14-K)*%
X82820000Y-81407500D03*
X76585000Y-81402500D03*
%TO.N,Net-(D15-K)*%
X82825000Y-80157500D03*
X78229951Y-82506928D03*
%TO.N,Net-(D10-A)*%
X96325000Y-88197500D03*
X96335000Y-83197500D03*
X96335000Y-86947500D03*
X96335000Y-85697500D03*
X96335000Y-81947500D03*
X96325000Y-79447500D03*
X96335000Y-80697500D03*
X96335000Y-84447500D03*
%TO.N,Net-(D17-A)*%
X94235000Y-86947500D03*
X94235000Y-80697500D03*
X94220000Y-84447500D03*
X94220000Y-85697500D03*
X94235000Y-79447500D03*
X94235000Y-81947500D03*
X94215000Y-83197500D03*
X94225000Y-88147500D03*
%TO.N,Net-(D25-A)*%
X92135000Y-79447500D03*
X92135000Y-84447500D03*
X92135000Y-85697500D03*
X92135000Y-86947500D03*
X92135000Y-80697500D03*
X92135000Y-81947500D03*
X92135000Y-83197500D03*
X92140000Y-88197500D03*
%TO.N,Net-(D33-A)*%
X90035000Y-85697500D03*
X90035000Y-80697500D03*
X90035000Y-86947500D03*
X90035000Y-84447500D03*
X90035000Y-83197500D03*
X90035000Y-79447500D03*
X90035000Y-81947500D03*
X90025000Y-88197500D03*
%TO.N,Net-(F1-Pad2)*%
X68715000Y-104837500D03*
X73505000Y-104857500D03*
%TO.N,/D_1_C+*%
X72252500Y-99190000D03*
%TO.N,/D_1_C-*%
X69977500Y-99190000D03*
%TO.N,Net-(SW1-B)*%
X89290000Y-105338500D03*
%TO.N,Net-(D16-K)*%
X82810000Y-78912500D03*
%TO.N,Net-(D41-A)*%
X87935000Y-84447500D03*
X87935000Y-83197500D03*
X87960000Y-88217500D03*
X87935000Y-79447500D03*
X87935000Y-86947500D03*
X87935000Y-80697500D03*
X87935000Y-86947500D03*
X87935000Y-81947500D03*
X87935000Y-85672500D03*
%TO.N,Net-(D49-A)*%
X85835000Y-85697500D03*
X85835000Y-79447500D03*
X85835000Y-80697500D03*
X85840000Y-88242500D03*
X85835000Y-81947500D03*
X85835000Y-83197500D03*
X85835000Y-86947500D03*
X85835000Y-84447500D03*
%TO.N,Net-(D57-A)*%
X83735000Y-81947500D03*
X83735000Y-83197500D03*
X83735000Y-79447500D03*
X83735000Y-86947500D03*
X83755000Y-88197500D03*
X83735000Y-80697500D03*
X83735000Y-85697500D03*
X83735000Y-84447500D03*
%TO.N,/P_1*%
X83538595Y-106658530D03*
%TO.N,/P_2*%
X97085000Y-96227500D03*
X82995000Y-106217500D03*
%TO.N,/P_3*%
X82495000Y-105532500D03*
%TO.N,/P_4*%
X97070000Y-99640000D03*
X83465000Y-99542500D03*
%TO.N,/P_5*%
X83955000Y-98822500D03*
%TO.N,/P_6*%
X84455000Y-98037500D03*
X97095000Y-103052500D03*
%TO.N,/P_7*%
X84960000Y-97342500D03*
%TO.N,/P_8*%
X97040000Y-106577500D03*
X85455000Y-96447500D03*
X85455000Y-96452500D03*
%TO.N,/G_8*%
X81461685Y-96102500D03*
%TO.N,/G_7*%
X80935000Y-94227500D03*
%TO.N,/G_6*%
X79675000Y-101597500D03*
%TO.N,/G_5*%
X79268666Y-102167496D03*
%TO.N,/G_4*%
X78829495Y-103185625D03*
%TO.N,/G_3*%
X78225000Y-102607500D03*
%TO.N,/G_2*%
X78740000Y-92587500D03*
%TO.N,/G_1*%
X78255000Y-94722500D03*
%TO.N,Net-(Q9-B)*%
X79479176Y-84252500D03*
%TO.N,Net-(Q11-B)*%
X75925216Y-84267500D03*
%TO.N,Net-(Q13-B)*%
X72375000Y-84267500D03*
%TO.N,Net-(Q15-B)*%
X68829243Y-84267500D03*
%TO.N,Net-(Q1-E)*%
X98435000Y-89227500D03*
X99330000Y-93527500D03*
%TO.N,Net-(Q2-E)*%
X96320000Y-89237500D03*
%TO.N,Net-(Q3-E)*%
X94230000Y-89227500D03*
X96750000Y-97837500D03*
%TO.N,Net-(Q4-E)*%
X92130000Y-89227500D03*
%TO.N,Net-(Q5-E)*%
X96590000Y-101301500D03*
X90020000Y-89257500D03*
%TO.N,Net-(Q6-E)*%
X87935000Y-89257500D03*
%TO.N,Net-(Q7-E)*%
X85850000Y-89272500D03*
X95515000Y-104672500D03*
%TO.N,Net-(Q8-E)*%
X83770000Y-89282500D03*
%TD*%
D13*
%TO.N,Net-(D12-K)*%
X82700000Y-83747500D02*
X82855000Y-83902500D01*
%TO.N,Net-(D14-K)*%
X76590000Y-81407500D02*
X76585000Y-81402500D01*
D14*
%TO.N,Net-(Q1-E)*%
X98440000Y-89227500D02*
X98435000Y-89227500D01*
%TD*%
%TA.AperFunction,Conductor*%
%TO.N,+3V3*%
G36*
X81982266Y-78567685D02*
G01*
X82028021Y-78620489D01*
X82037965Y-78689647D01*
X82036844Y-78696192D01*
X82009500Y-78833655D01*
X82009500Y-78991346D01*
X82040261Y-79145989D01*
X82040264Y-79146001D01*
X82100602Y-79291672D01*
X82100609Y-79291685D01*
X82188210Y-79422788D01*
X82188213Y-79422792D01*
X82220240Y-79454819D01*
X82253725Y-79516142D01*
X82248741Y-79585834D01*
X82220242Y-79630179D01*
X82203213Y-79647208D01*
X82203208Y-79647214D01*
X82115609Y-79778314D01*
X82115602Y-79778327D01*
X82055264Y-79923998D01*
X82055261Y-79924010D01*
X82024500Y-80078653D01*
X82024500Y-80236346D01*
X82055261Y-80390989D01*
X82055264Y-80391001D01*
X82115602Y-80536672D01*
X82115609Y-80536685D01*
X82203210Y-80667788D01*
X82203213Y-80667792D01*
X82227740Y-80692319D01*
X82261225Y-80753642D01*
X82256241Y-80823334D01*
X82227740Y-80867681D01*
X82198213Y-80897207D01*
X82198210Y-80897211D01*
X82110609Y-81028314D01*
X82110602Y-81028327D01*
X82050264Y-81173998D01*
X82050261Y-81174010D01*
X82019500Y-81328653D01*
X82019500Y-81486346D01*
X82050261Y-81640989D01*
X82050264Y-81641001D01*
X82110602Y-81786672D01*
X82110609Y-81786685D01*
X82198210Y-81917788D01*
X82198213Y-81917792D01*
X82245240Y-81964819D01*
X82278725Y-82026142D01*
X82273741Y-82095834D01*
X82245244Y-82140177D01*
X82238213Y-82147207D01*
X82238208Y-82147214D01*
X82150609Y-82278314D01*
X82150602Y-82278327D01*
X82090264Y-82423998D01*
X82090261Y-82424010D01*
X82059500Y-82578653D01*
X82059500Y-82736346D01*
X82090261Y-82890989D01*
X82090264Y-82891001D01*
X82150602Y-83036672D01*
X82150609Y-83036685D01*
X82212018Y-83128589D01*
X82238211Y-83167789D01*
X82246660Y-83176238D01*
X82280146Y-83237558D01*
X82275164Y-83307250D01*
X82246664Y-83351601D01*
X82219481Y-83378784D01*
X82219479Y-83378787D01*
X82140423Y-83515715D01*
X82140420Y-83515720D01*
X82127258Y-83564843D01*
X82122046Y-83580199D01*
X82085262Y-83669006D01*
X82085260Y-83669011D01*
X82054500Y-83823653D01*
X82054500Y-83981346D01*
X82085261Y-84135989D01*
X82085264Y-84136001D01*
X82145602Y-84281672D01*
X82145609Y-84281685D01*
X82233209Y-84412787D01*
X82233210Y-84412788D01*
X82233211Y-84412789D01*
X82247739Y-84427317D01*
X82281225Y-84488638D01*
X82276242Y-84558329D01*
X82247741Y-84602679D01*
X82213214Y-84637206D01*
X82213210Y-84637211D01*
X82125609Y-84768314D01*
X82125602Y-84768327D01*
X82065264Y-84913998D01*
X82065261Y-84914010D01*
X82034500Y-85068653D01*
X82034500Y-85226346D01*
X82065261Y-85380989D01*
X82065264Y-85381001D01*
X82125602Y-85526672D01*
X82125609Y-85526685D01*
X82213210Y-85657788D01*
X82213213Y-85657792D01*
X82230240Y-85674819D01*
X82263725Y-85736142D01*
X82258741Y-85805834D01*
X82230240Y-85850181D01*
X82193213Y-85887207D01*
X82193210Y-85887211D01*
X82105609Y-86018314D01*
X82105602Y-86018327D01*
X82045264Y-86163998D01*
X82045261Y-86164010D01*
X82014500Y-86318653D01*
X82014500Y-86476346D01*
X82045261Y-86630989D01*
X82045264Y-86631001D01*
X82105602Y-86776672D01*
X82105609Y-86776685D01*
X82193210Y-86907788D01*
X82193213Y-86907792D01*
X82217240Y-86931819D01*
X82250725Y-86993142D01*
X82245741Y-87062834D01*
X82217240Y-87107181D01*
X82188213Y-87136207D01*
X82188210Y-87136211D01*
X82100609Y-87267314D01*
X82100602Y-87267327D01*
X82040264Y-87412998D01*
X82040261Y-87413010D01*
X82009500Y-87567653D01*
X82009500Y-87725346D01*
X82040261Y-87879989D01*
X82040264Y-87880001D01*
X82100602Y-88025672D01*
X82100609Y-88025685D01*
X82188210Y-88156788D01*
X82188213Y-88156792D01*
X82299707Y-88268286D01*
X82299711Y-88268289D01*
X82430814Y-88355890D01*
X82430827Y-88355897D01*
X82576498Y-88416235D01*
X82576503Y-88416237D01*
X82728157Y-88446403D01*
X82731153Y-88446999D01*
X82731156Y-88447000D01*
X82731158Y-88447000D01*
X82888844Y-88447000D01*
X82894907Y-88446403D01*
X82895152Y-88448900D01*
X82908108Y-88450055D01*
X82932011Y-88447796D01*
X82942279Y-88453101D01*
X82953790Y-88454128D01*
X82972753Y-88468848D01*
X82994084Y-88479871D01*
X83002178Y-88491690D01*
X83008982Y-88496972D01*
X83015875Y-88507635D01*
X83019904Y-88514629D01*
X83045606Y-88576679D01*
X83118484Y-88685749D01*
X83120545Y-88689326D01*
X83127822Y-88719448D01*
X83137079Y-88749011D01*
X83135954Y-88753109D01*
X83136953Y-88757241D01*
X83126790Y-88786513D01*
X83118594Y-88816391D01*
X83116202Y-88820114D01*
X83060608Y-88903316D01*
X83060602Y-88903327D01*
X83000264Y-89048998D01*
X83000261Y-89049010D01*
X82969500Y-89203653D01*
X82969500Y-89361346D01*
X83000261Y-89515989D01*
X83000264Y-89516001D01*
X83060602Y-89661672D01*
X83060609Y-89661685D01*
X83148210Y-89792788D01*
X83148213Y-89792792D01*
X83259707Y-89904286D01*
X83259711Y-89904289D01*
X83390814Y-89991890D01*
X83390827Y-89991897D01*
X83512363Y-90042238D01*
X83536503Y-90052237D01*
X83691153Y-90082999D01*
X83691156Y-90083000D01*
X83691158Y-90083000D01*
X83848844Y-90083000D01*
X83848845Y-90082999D01*
X84003497Y-90052237D01*
X84149179Y-89991894D01*
X84280289Y-89904289D01*
X84391789Y-89792789D01*
X84479394Y-89661679D01*
X84539737Y-89515997D01*
X84570500Y-89361342D01*
X84570500Y-89203658D01*
X84570500Y-89203655D01*
X84570499Y-89203653D01*
X84565527Y-89178658D01*
X84539737Y-89049003D01*
X84529380Y-89023998D01*
X84479397Y-88903327D01*
X84479390Y-88903314D01*
X84408798Y-88797666D01*
X84387920Y-88730988D01*
X84406404Y-88663608D01*
X84408798Y-88659884D01*
X84414673Y-88651092D01*
X84464394Y-88576679D01*
X84524737Y-88430997D01*
X84555500Y-88276342D01*
X84555500Y-88118658D01*
X84555500Y-88118655D01*
X84555499Y-88118653D01*
X84537004Y-88025672D01*
X84524737Y-87964003D01*
X84524735Y-87963998D01*
X84464397Y-87818327D01*
X84464390Y-87818314D01*
X84376789Y-87687211D01*
X84376786Y-87687207D01*
X84339759Y-87650180D01*
X84306274Y-87588857D01*
X84311258Y-87519165D01*
X84339759Y-87474818D01*
X84356789Y-87457789D01*
X84444394Y-87326679D01*
X84504737Y-87180997D01*
X84535500Y-87026342D01*
X84535500Y-86868658D01*
X84535500Y-86868655D01*
X84535499Y-86868653D01*
X84517204Y-86776679D01*
X84504737Y-86714003D01*
X84470352Y-86630989D01*
X84444397Y-86568327D01*
X84444390Y-86568314D01*
X84356789Y-86437211D01*
X84356786Y-86437207D01*
X84329760Y-86410181D01*
X84296275Y-86348858D01*
X84301259Y-86279166D01*
X84329760Y-86234819D01*
X84356786Y-86207792D01*
X84356789Y-86207789D01*
X84444394Y-86076679D01*
X84504737Y-85930997D01*
X84535500Y-85776342D01*
X84535500Y-85618658D01*
X84535500Y-85618655D01*
X84535499Y-85618653D01*
X84530527Y-85593658D01*
X84504737Y-85464003D01*
X84470352Y-85380989D01*
X84444397Y-85318327D01*
X84444390Y-85318314D01*
X84356789Y-85187211D01*
X84356786Y-85187207D01*
X84329760Y-85160181D01*
X84296275Y-85098858D01*
X84301259Y-85029166D01*
X84329760Y-84984819D01*
X84356786Y-84957792D01*
X84356789Y-84957789D01*
X84444394Y-84826679D01*
X84504737Y-84680997D01*
X84535500Y-84526342D01*
X84535500Y-84368658D01*
X84535500Y-84368655D01*
X84535499Y-84368653D01*
X84523137Y-84306507D01*
X84504737Y-84214003D01*
X84504735Y-84213998D01*
X84444397Y-84068327D01*
X84444390Y-84068314D01*
X84356789Y-83937211D01*
X84356786Y-83937207D01*
X84329760Y-83910181D01*
X84296275Y-83848858D01*
X84301259Y-83779166D01*
X84329760Y-83734819D01*
X84356786Y-83707792D01*
X84356789Y-83707789D01*
X84444394Y-83576679D01*
X84504737Y-83430997D01*
X84535500Y-83276342D01*
X84535500Y-83118658D01*
X84535500Y-83118655D01*
X84535499Y-83118653D01*
X84519192Y-83036672D01*
X84504737Y-82964003D01*
X84472469Y-82886100D01*
X84444397Y-82818327D01*
X84444390Y-82818314D01*
X84356789Y-82687211D01*
X84356786Y-82687207D01*
X84329760Y-82660181D01*
X84296275Y-82598858D01*
X84301259Y-82529166D01*
X84329760Y-82484819D01*
X84356786Y-82457792D01*
X84356787Y-82457791D01*
X84356789Y-82457789D01*
X84444394Y-82326679D01*
X84504737Y-82180997D01*
X84535500Y-82026342D01*
X84535500Y-81868658D01*
X84535500Y-81868655D01*
X84535499Y-81868653D01*
X84521352Y-81797534D01*
X84504737Y-81714003D01*
X84501599Y-81706428D01*
X84444397Y-81568327D01*
X84444390Y-81568314D01*
X84356789Y-81437211D01*
X84356786Y-81437207D01*
X84329760Y-81410181D01*
X84296275Y-81348858D01*
X84301259Y-81279166D01*
X84329760Y-81234819D01*
X84356786Y-81207792D01*
X84356789Y-81207789D01*
X84444394Y-81076679D01*
X84504737Y-80930997D01*
X84535500Y-80776342D01*
X84535500Y-80618658D01*
X84535500Y-80618655D01*
X84535499Y-80618653D01*
X84531525Y-80598676D01*
X84504737Y-80464003D01*
X84492832Y-80435261D01*
X84444397Y-80318327D01*
X84444390Y-80318314D01*
X84356789Y-80187211D01*
X84356786Y-80187207D01*
X84329760Y-80160181D01*
X84296275Y-80098858D01*
X84301259Y-80029166D01*
X84329760Y-79984819D01*
X84356786Y-79957792D01*
X84356789Y-79957789D01*
X84444394Y-79826679D01*
X84504737Y-79680997D01*
X84535500Y-79526342D01*
X84535500Y-79368658D01*
X84535500Y-79368655D01*
X84535499Y-79368653D01*
X84530086Y-79341439D01*
X84504737Y-79214003D01*
X84500461Y-79203680D01*
X84444397Y-79068327D01*
X84444390Y-79068314D01*
X84356789Y-78937211D01*
X84356786Y-78937207D01*
X84245292Y-78825713D01*
X84245288Y-78825710D01*
X84169548Y-78775102D01*
X84124743Y-78721490D01*
X84116036Y-78652165D01*
X84146190Y-78589137D01*
X84205634Y-78552418D01*
X84238439Y-78548000D01*
X85331561Y-78548000D01*
X85398600Y-78567685D01*
X85444355Y-78620489D01*
X85454299Y-78689647D01*
X85425274Y-78753203D01*
X85400452Y-78775102D01*
X85324711Y-78825710D01*
X85324707Y-78825713D01*
X85213213Y-78937207D01*
X85213210Y-78937211D01*
X85125609Y-79068314D01*
X85125602Y-79068327D01*
X85065264Y-79213998D01*
X85065261Y-79214010D01*
X85034500Y-79368653D01*
X85034500Y-79526346D01*
X85065261Y-79680989D01*
X85065264Y-79681001D01*
X85125602Y-79826672D01*
X85125609Y-79826685D01*
X85213210Y-79957788D01*
X85213213Y-79957792D01*
X85240240Y-79984819D01*
X85273725Y-80046142D01*
X85268741Y-80115834D01*
X85240240Y-80160181D01*
X85213213Y-80187207D01*
X85213210Y-80187211D01*
X85125609Y-80318314D01*
X85125602Y-80318327D01*
X85065264Y-80463998D01*
X85065261Y-80464010D01*
X85034500Y-80618653D01*
X85034500Y-80776346D01*
X85065261Y-80930989D01*
X85065264Y-80931001D01*
X85125602Y-81076672D01*
X85125609Y-81076685D01*
X85213210Y-81207788D01*
X85213213Y-81207792D01*
X85240240Y-81234819D01*
X85273725Y-81296142D01*
X85268741Y-81365834D01*
X85240240Y-81410181D01*
X85213213Y-81437207D01*
X85213210Y-81437211D01*
X85125609Y-81568314D01*
X85125602Y-81568327D01*
X85065264Y-81713998D01*
X85065261Y-81714010D01*
X85034500Y-81868653D01*
X85034500Y-82026346D01*
X85065261Y-82180989D01*
X85065264Y-82181001D01*
X85125602Y-82326672D01*
X85125609Y-82326685D01*
X85213210Y-82457788D01*
X85213213Y-82457792D01*
X85240240Y-82484819D01*
X85273725Y-82546142D01*
X85268741Y-82615834D01*
X85240240Y-82660181D01*
X85213213Y-82687207D01*
X85213210Y-82687211D01*
X85125609Y-82818314D01*
X85125602Y-82818327D01*
X85065264Y-82963998D01*
X85065261Y-82964010D01*
X85034500Y-83118653D01*
X85034500Y-83276346D01*
X85065261Y-83430989D01*
X85065264Y-83431001D01*
X85125602Y-83576672D01*
X85125609Y-83576685D01*
X85213210Y-83707788D01*
X85213213Y-83707792D01*
X85240240Y-83734819D01*
X85273725Y-83796142D01*
X85268741Y-83865834D01*
X85240240Y-83910181D01*
X85213213Y-83937207D01*
X85213210Y-83937211D01*
X85125609Y-84068314D01*
X85125602Y-84068327D01*
X85065264Y-84213998D01*
X85065261Y-84214010D01*
X85034500Y-84368653D01*
X85034500Y-84526346D01*
X85065261Y-84680989D01*
X85065264Y-84681001D01*
X85125602Y-84826672D01*
X85125609Y-84826685D01*
X85213210Y-84957788D01*
X85213213Y-84957792D01*
X85240240Y-84984819D01*
X85273725Y-85046142D01*
X85268741Y-85115834D01*
X85240240Y-85160181D01*
X85213213Y-85187207D01*
X85213210Y-85187211D01*
X85125609Y-85318314D01*
X85125602Y-85318327D01*
X85065264Y-85463998D01*
X85065261Y-85464010D01*
X85034500Y-85618653D01*
X85034500Y-85776346D01*
X85065261Y-85930989D01*
X85065264Y-85931001D01*
X85125602Y-86076672D01*
X85125609Y-86076685D01*
X85213210Y-86207788D01*
X85213213Y-86207792D01*
X85240240Y-86234819D01*
X85273725Y-86296142D01*
X85268741Y-86365834D01*
X85240240Y-86410181D01*
X85213213Y-86437207D01*
X85213210Y-86437211D01*
X85125609Y-86568314D01*
X85125602Y-86568327D01*
X85065264Y-86713998D01*
X85065261Y-86714010D01*
X85034500Y-86868653D01*
X85034500Y-87026346D01*
X85065261Y-87180989D01*
X85065264Y-87181001D01*
X85125602Y-87326672D01*
X85125609Y-87326685D01*
X85213210Y-87457788D01*
X85213213Y-87457792D01*
X85265240Y-87509819D01*
X85298725Y-87571142D01*
X85293741Y-87640834D01*
X85265240Y-87685181D01*
X85218213Y-87732207D01*
X85218210Y-87732211D01*
X85130609Y-87863314D01*
X85130602Y-87863327D01*
X85070264Y-88008998D01*
X85070261Y-88009010D01*
X85039500Y-88163653D01*
X85039500Y-88321346D01*
X85070261Y-88475989D01*
X85070264Y-88476001D01*
X85130602Y-88621672D01*
X85130608Y-88621683D01*
X85180327Y-88696093D01*
X85201204Y-88762770D01*
X85182719Y-88830150D01*
X85180327Y-88833872D01*
X85140611Y-88893312D01*
X85140602Y-88893328D01*
X85080264Y-89038998D01*
X85080261Y-89039010D01*
X85049500Y-89193653D01*
X85049500Y-89351346D01*
X85080261Y-89505989D01*
X85080264Y-89506001D01*
X85140602Y-89651672D01*
X85140609Y-89651685D01*
X85228210Y-89782788D01*
X85228213Y-89782792D01*
X85339707Y-89894286D01*
X85339711Y-89894289D01*
X85470814Y-89981890D01*
X85470827Y-89981897D01*
X85606271Y-90037999D01*
X85616503Y-90042237D01*
X85771153Y-90072999D01*
X85771156Y-90073000D01*
X85771158Y-90073000D01*
X85928844Y-90073000D01*
X85928845Y-90072999D01*
X86083497Y-90042237D01*
X86196166Y-89995567D01*
X86229172Y-89981897D01*
X86229172Y-89981896D01*
X86229179Y-89981894D01*
X86360289Y-89894289D01*
X86471789Y-89782789D01*
X86559394Y-89651679D01*
X86619737Y-89505997D01*
X86650500Y-89351342D01*
X86650500Y-89193658D01*
X86650500Y-89193655D01*
X86650499Y-89193653D01*
X86641548Y-89148653D01*
X86619737Y-89039003D01*
X86605238Y-89003998D01*
X86559397Y-88893327D01*
X86559395Y-88893323D01*
X86559394Y-88893321D01*
X86509671Y-88818906D01*
X86488794Y-88752230D01*
X86507278Y-88684850D01*
X86509655Y-88681150D01*
X86549394Y-88621679D01*
X86609737Y-88475997D01*
X86640500Y-88321342D01*
X86640500Y-88163658D01*
X86640500Y-88163655D01*
X86640499Y-88163653D01*
X86635527Y-88138658D01*
X86609737Y-88009003D01*
X86599380Y-87983998D01*
X86549397Y-87863327D01*
X86549390Y-87863314D01*
X86461789Y-87732211D01*
X86461786Y-87732207D01*
X86409759Y-87680180D01*
X86376274Y-87618857D01*
X86381258Y-87549165D01*
X86409756Y-87504821D01*
X86456789Y-87457789D01*
X86544394Y-87326679D01*
X86604737Y-87180997D01*
X86635500Y-87026342D01*
X86635500Y-86868658D01*
X86635500Y-86868655D01*
X86635499Y-86868653D01*
X86617204Y-86776679D01*
X86604737Y-86714003D01*
X86570352Y-86630989D01*
X86544397Y-86568327D01*
X86544390Y-86568314D01*
X86456789Y-86437211D01*
X86456786Y-86437207D01*
X86429760Y-86410181D01*
X86396275Y-86348858D01*
X86401259Y-86279166D01*
X86429760Y-86234819D01*
X86456786Y-86207792D01*
X86456789Y-86207789D01*
X86544394Y-86076679D01*
X86604737Y-85930997D01*
X86635500Y-85776342D01*
X86635500Y-85618658D01*
X86635500Y-85618655D01*
X86635499Y-85618653D01*
X86630527Y-85593658D01*
X86604737Y-85464003D01*
X86570352Y-85380989D01*
X86544397Y-85318327D01*
X86544390Y-85318314D01*
X86456789Y-85187211D01*
X86456786Y-85187207D01*
X86429760Y-85160181D01*
X86396275Y-85098858D01*
X86401259Y-85029166D01*
X86429760Y-84984819D01*
X86456786Y-84957792D01*
X86456789Y-84957789D01*
X86544394Y-84826679D01*
X86604737Y-84680997D01*
X86635500Y-84526342D01*
X86635500Y-84368658D01*
X86635500Y-84368655D01*
X86635499Y-84368653D01*
X86623137Y-84306507D01*
X86604737Y-84214003D01*
X86604735Y-84213998D01*
X86544397Y-84068327D01*
X86544390Y-84068314D01*
X86456789Y-83937211D01*
X86456786Y-83937207D01*
X86429760Y-83910181D01*
X86396275Y-83848858D01*
X86401259Y-83779166D01*
X86429760Y-83734819D01*
X86456786Y-83707792D01*
X86456789Y-83707789D01*
X86544394Y-83576679D01*
X86604737Y-83430997D01*
X86635500Y-83276342D01*
X86635500Y-83118658D01*
X86635500Y-83118655D01*
X86635499Y-83118653D01*
X86619192Y-83036672D01*
X86604737Y-82964003D01*
X86572469Y-82886100D01*
X86544397Y-82818327D01*
X86544390Y-82818314D01*
X86456789Y-82687211D01*
X86456786Y-82687207D01*
X86429760Y-82660181D01*
X86396275Y-82598858D01*
X86401259Y-82529166D01*
X86429760Y-82484819D01*
X86456786Y-82457792D01*
X86456787Y-82457791D01*
X86456789Y-82457789D01*
X86544394Y-82326679D01*
X86604737Y-82180997D01*
X86635500Y-82026342D01*
X86635500Y-81868658D01*
X86635500Y-81868655D01*
X86635499Y-81868653D01*
X86621352Y-81797534D01*
X86604737Y-81714003D01*
X86601599Y-81706428D01*
X86544397Y-81568327D01*
X86544390Y-81568314D01*
X86456789Y-81437211D01*
X86456786Y-81437207D01*
X86429760Y-81410181D01*
X86396275Y-81348858D01*
X86401259Y-81279166D01*
X86429760Y-81234819D01*
X86456786Y-81207792D01*
X86456789Y-81207789D01*
X86544394Y-81076679D01*
X86604737Y-80930997D01*
X86635500Y-80776342D01*
X86635500Y-80618658D01*
X86635500Y-80618655D01*
X86635499Y-80618653D01*
X86631525Y-80598676D01*
X86604737Y-80464003D01*
X86592832Y-80435261D01*
X86544397Y-80318327D01*
X86544390Y-80318314D01*
X86456789Y-80187211D01*
X86456786Y-80187207D01*
X86429760Y-80160181D01*
X86396275Y-80098858D01*
X86401259Y-80029166D01*
X86429760Y-79984819D01*
X86456786Y-79957792D01*
X86456789Y-79957789D01*
X86544394Y-79826679D01*
X86604737Y-79680997D01*
X86635500Y-79526342D01*
X86635500Y-79368658D01*
X86635500Y-79368655D01*
X86635499Y-79368653D01*
X86630086Y-79341439D01*
X86604737Y-79214003D01*
X86600461Y-79203680D01*
X86544397Y-79068327D01*
X86544390Y-79068314D01*
X86456789Y-78937211D01*
X86456786Y-78937207D01*
X86345292Y-78825713D01*
X86345288Y-78825710D01*
X86269548Y-78775102D01*
X86224743Y-78721490D01*
X86216036Y-78652165D01*
X86246190Y-78589137D01*
X86305634Y-78552418D01*
X86338439Y-78548000D01*
X87431561Y-78548000D01*
X87498600Y-78567685D01*
X87544355Y-78620489D01*
X87554299Y-78689647D01*
X87525274Y-78753203D01*
X87500452Y-78775102D01*
X87424711Y-78825710D01*
X87424707Y-78825713D01*
X87313213Y-78937207D01*
X87313210Y-78937211D01*
X87225609Y-79068314D01*
X87225602Y-79068327D01*
X87165264Y-79213998D01*
X87165261Y-79214010D01*
X87134500Y-79368653D01*
X87134500Y-79526346D01*
X87165261Y-79680989D01*
X87165264Y-79681001D01*
X87225602Y-79826672D01*
X87225609Y-79826685D01*
X87313210Y-79957788D01*
X87313213Y-79957792D01*
X87340240Y-79984819D01*
X87373725Y-80046142D01*
X87368741Y-80115834D01*
X87340240Y-80160181D01*
X87313213Y-80187207D01*
X87313210Y-80187211D01*
X87225609Y-80318314D01*
X87225602Y-80318327D01*
X87165264Y-80463998D01*
X87165261Y-80464010D01*
X87134500Y-80618653D01*
X87134500Y-80776346D01*
X87165261Y-80930989D01*
X87165264Y-80931001D01*
X87225602Y-81076672D01*
X87225609Y-81076685D01*
X87313210Y-81207788D01*
X87313213Y-81207792D01*
X87340240Y-81234819D01*
X87373725Y-81296142D01*
X87368741Y-81365834D01*
X87340240Y-81410181D01*
X87313213Y-81437207D01*
X87313210Y-81437211D01*
X87225609Y-81568314D01*
X87225602Y-81568327D01*
X87165264Y-81713998D01*
X87165261Y-81714010D01*
X87134500Y-81868653D01*
X87134500Y-82026346D01*
X87165261Y-82180989D01*
X87165264Y-82181001D01*
X87225602Y-82326672D01*
X87225609Y-82326685D01*
X87313210Y-82457788D01*
X87313213Y-82457792D01*
X87340240Y-82484819D01*
X87373725Y-82546142D01*
X87368741Y-82615834D01*
X87340240Y-82660181D01*
X87313213Y-82687207D01*
X87313210Y-82687211D01*
X87225609Y-82818314D01*
X87225602Y-82818327D01*
X87165264Y-82963998D01*
X87165261Y-82964010D01*
X87134500Y-83118653D01*
X87134500Y-83276346D01*
X87165261Y-83430989D01*
X87165264Y-83431001D01*
X87225602Y-83576672D01*
X87225609Y-83576685D01*
X87313210Y-83707788D01*
X87313213Y-83707792D01*
X87340240Y-83734819D01*
X87373725Y-83796142D01*
X87368741Y-83865834D01*
X87340240Y-83910181D01*
X87313213Y-83937207D01*
X87313210Y-83937211D01*
X87225609Y-84068314D01*
X87225602Y-84068327D01*
X87165264Y-84213998D01*
X87165261Y-84214010D01*
X87134500Y-84368653D01*
X87134500Y-84526346D01*
X87165261Y-84680989D01*
X87165264Y-84681001D01*
X87225602Y-84826672D01*
X87225609Y-84826685D01*
X87313210Y-84957788D01*
X87313213Y-84957792D01*
X87327740Y-84972319D01*
X87361225Y-85033642D01*
X87356241Y-85103334D01*
X87327740Y-85147681D01*
X87313213Y-85162207D01*
X87313210Y-85162211D01*
X87225609Y-85293314D01*
X87225602Y-85293327D01*
X87165264Y-85438998D01*
X87165261Y-85439010D01*
X87134500Y-85593653D01*
X87134500Y-85751346D01*
X87165261Y-85905989D01*
X87165264Y-85906001D01*
X87225602Y-86051672D01*
X87225609Y-86051685D01*
X87313210Y-86182788D01*
X87313213Y-86182792D01*
X87352740Y-86222319D01*
X87386225Y-86283642D01*
X87381241Y-86353334D01*
X87352740Y-86397681D01*
X87313213Y-86437207D01*
X87313210Y-86437211D01*
X87225609Y-86568314D01*
X87225602Y-86568327D01*
X87165264Y-86713998D01*
X87165261Y-86714010D01*
X87134500Y-86868653D01*
X87134500Y-87026346D01*
X87165261Y-87180989D01*
X87165264Y-87181001D01*
X87225602Y-87326672D01*
X87225609Y-87326685D01*
X87313210Y-87457788D01*
X87313213Y-87457792D01*
X87362740Y-87507319D01*
X87396225Y-87568642D01*
X87391241Y-87638334D01*
X87362740Y-87682681D01*
X87338213Y-87707207D01*
X87338210Y-87707211D01*
X87250609Y-87838314D01*
X87250602Y-87838327D01*
X87190264Y-87983998D01*
X87190261Y-87984010D01*
X87159500Y-88138653D01*
X87159500Y-88296346D01*
X87190261Y-88450989D01*
X87190264Y-88451001D01*
X87250602Y-88596671D01*
X87250609Y-88596684D01*
X87286168Y-88649901D01*
X87307046Y-88716578D01*
X87288562Y-88783959D01*
X87286168Y-88787683D01*
X87225609Y-88878314D01*
X87225602Y-88878327D01*
X87165264Y-89023998D01*
X87165261Y-89024010D01*
X87134500Y-89178653D01*
X87134500Y-89336346D01*
X87165261Y-89490989D01*
X87165264Y-89491001D01*
X87225602Y-89636672D01*
X87225609Y-89636685D01*
X87313210Y-89767788D01*
X87313213Y-89767792D01*
X87424707Y-89879286D01*
X87424711Y-89879289D01*
X87555814Y-89966890D01*
X87555827Y-89966897D01*
X87701498Y-90027235D01*
X87701503Y-90027237D01*
X87827176Y-90052235D01*
X87856153Y-90057999D01*
X87856156Y-90058000D01*
X87856158Y-90058000D01*
X88013844Y-90058000D01*
X88013845Y-90057999D01*
X88168497Y-90027237D01*
X88314179Y-89966894D01*
X88445289Y-89879289D01*
X88556789Y-89767789D01*
X88644394Y-89636679D01*
X88704737Y-89490997D01*
X88735500Y-89336342D01*
X88735500Y-89178658D01*
X88735500Y-89178655D01*
X88735499Y-89178653D01*
X88707722Y-89039010D01*
X88704737Y-89024003D01*
X88654747Y-88903316D01*
X88644395Y-88878323D01*
X88644394Y-88878321D01*
X88608830Y-88825096D01*
X88587953Y-88758421D01*
X88606437Y-88691041D01*
X88608809Y-88687350D01*
X88669394Y-88596679D01*
X88729737Y-88450997D01*
X88760500Y-88296342D01*
X88760500Y-88138658D01*
X88760500Y-88138655D01*
X88760499Y-88138653D01*
X88738027Y-88025679D01*
X88729737Y-87984003D01*
X88700745Y-87914010D01*
X88669397Y-87838327D01*
X88669390Y-87838314D01*
X88581789Y-87707211D01*
X88581786Y-87707207D01*
X88532260Y-87657682D01*
X88498774Y-87596359D01*
X88503758Y-87526668D01*
X88532258Y-87482319D01*
X88556789Y-87457789D01*
X88644394Y-87326679D01*
X88704737Y-87180997D01*
X88735500Y-87026342D01*
X88735500Y-86868658D01*
X88735500Y-86868655D01*
X88735499Y-86868653D01*
X88717204Y-86776679D01*
X88704737Y-86714003D01*
X88670352Y-86630989D01*
X88644397Y-86568327D01*
X88644390Y-86568314D01*
X88556789Y-86437211D01*
X88556786Y-86437207D01*
X88517260Y-86397682D01*
X88483774Y-86336359D01*
X88488758Y-86266668D01*
X88517260Y-86222318D01*
X88556786Y-86182792D01*
X88556789Y-86182789D01*
X88644394Y-86051679D01*
X88704737Y-85905997D01*
X88735500Y-85751342D01*
X88735500Y-85593658D01*
X88735500Y-85593655D01*
X88735499Y-85593653D01*
X88722177Y-85526679D01*
X88704737Y-85439003D01*
X88680712Y-85381001D01*
X88644397Y-85293327D01*
X88644390Y-85293314D01*
X88556790Y-85162212D01*
X88549758Y-85155180D01*
X88542259Y-85147681D01*
X88508774Y-85086361D01*
X88513757Y-85016670D01*
X88542259Y-84972318D01*
X88556789Y-84957789D01*
X88644394Y-84826679D01*
X88704737Y-84680997D01*
X88735500Y-84526342D01*
X88735500Y-84368658D01*
X88735500Y-84368655D01*
X88735499Y-84368653D01*
X88723137Y-84306507D01*
X88704737Y-84214003D01*
X88704735Y-84213998D01*
X88644397Y-84068327D01*
X88644390Y-84068314D01*
X88556789Y-83937211D01*
X88556786Y-83937207D01*
X88529760Y-83910181D01*
X88496275Y-83848858D01*
X88501259Y-83779166D01*
X88529760Y-83734819D01*
X88556786Y-83707792D01*
X88556789Y-83707789D01*
X88644394Y-83576679D01*
X88704737Y-83430997D01*
X88735500Y-83276342D01*
X88735500Y-83118658D01*
X88735500Y-83118655D01*
X88735499Y-83118653D01*
X88719192Y-83036672D01*
X88704737Y-82964003D01*
X88672469Y-82886100D01*
X88644397Y-82818327D01*
X88644390Y-82818314D01*
X88556789Y-82687211D01*
X88556786Y-82687207D01*
X88529760Y-82660181D01*
X88496275Y-82598858D01*
X88501259Y-82529166D01*
X88529760Y-82484819D01*
X88556786Y-82457792D01*
X88556787Y-82457791D01*
X88556789Y-82457789D01*
X88644394Y-82326679D01*
X88704737Y-82180997D01*
X88735500Y-82026342D01*
X88735500Y-81868658D01*
X88735500Y-81868655D01*
X88735499Y-81868653D01*
X88721352Y-81797534D01*
X88704737Y-81714003D01*
X88701599Y-81706428D01*
X88644397Y-81568327D01*
X88644390Y-81568314D01*
X88556789Y-81437211D01*
X88556786Y-81437207D01*
X88529760Y-81410181D01*
X88496275Y-81348858D01*
X88501259Y-81279166D01*
X88529760Y-81234819D01*
X88556786Y-81207792D01*
X88556789Y-81207789D01*
X88644394Y-81076679D01*
X88704737Y-80930997D01*
X88735500Y-80776342D01*
X88735500Y-80618658D01*
X88735500Y-80618655D01*
X88735499Y-80618653D01*
X88731525Y-80598676D01*
X88704737Y-80464003D01*
X88692832Y-80435261D01*
X88644397Y-80318327D01*
X88644390Y-80318314D01*
X88556789Y-80187211D01*
X88556786Y-80187207D01*
X88529760Y-80160181D01*
X88496275Y-80098858D01*
X88501259Y-80029166D01*
X88529760Y-79984819D01*
X88556786Y-79957792D01*
X88556789Y-79957789D01*
X88644394Y-79826679D01*
X88704737Y-79680997D01*
X88735500Y-79526342D01*
X88735500Y-79368658D01*
X88735500Y-79368655D01*
X88735499Y-79368653D01*
X88730086Y-79341439D01*
X88704737Y-79214003D01*
X88700461Y-79203680D01*
X88644397Y-79068327D01*
X88644390Y-79068314D01*
X88556789Y-78937211D01*
X88556786Y-78937207D01*
X88445292Y-78825713D01*
X88445288Y-78825710D01*
X88369548Y-78775102D01*
X88324743Y-78721490D01*
X88316036Y-78652165D01*
X88346190Y-78589137D01*
X88405634Y-78552418D01*
X88438439Y-78548000D01*
X89531561Y-78548000D01*
X89598600Y-78567685D01*
X89644355Y-78620489D01*
X89654299Y-78689647D01*
X89625274Y-78753203D01*
X89600452Y-78775102D01*
X89524711Y-78825710D01*
X89524707Y-78825713D01*
X89413213Y-78937207D01*
X89413210Y-78937211D01*
X89325609Y-79068314D01*
X89325602Y-79068327D01*
X89265264Y-79213998D01*
X89265261Y-79214010D01*
X89234500Y-79368653D01*
X89234500Y-79526346D01*
X89265261Y-79680989D01*
X89265264Y-79681001D01*
X89325602Y-79826672D01*
X89325609Y-79826685D01*
X89413210Y-79957788D01*
X89413213Y-79957792D01*
X89440240Y-79984819D01*
X89473725Y-80046142D01*
X89468741Y-80115834D01*
X89440240Y-80160181D01*
X89413213Y-80187207D01*
X89413210Y-80187211D01*
X89325609Y-80318314D01*
X89325602Y-80318327D01*
X89265264Y-80463998D01*
X89265261Y-80464010D01*
X89234500Y-80618653D01*
X89234500Y-80776346D01*
X89265261Y-80930989D01*
X89265264Y-80931001D01*
X89325602Y-81076672D01*
X89325609Y-81076685D01*
X89413210Y-81207788D01*
X89413213Y-81207792D01*
X89440240Y-81234819D01*
X89473725Y-81296142D01*
X89468741Y-81365834D01*
X89440240Y-81410181D01*
X89413213Y-81437207D01*
X89413210Y-81437211D01*
X89325609Y-81568314D01*
X89325602Y-81568327D01*
X89265264Y-81713998D01*
X89265261Y-81714010D01*
X89234500Y-81868653D01*
X89234500Y-82026346D01*
X89265261Y-82180989D01*
X89265264Y-82181001D01*
X89325602Y-82326672D01*
X89325609Y-82326685D01*
X89413210Y-82457788D01*
X89413213Y-82457792D01*
X89440240Y-82484819D01*
X89473725Y-82546142D01*
X89468741Y-82615834D01*
X89440240Y-82660181D01*
X89413213Y-82687207D01*
X89413210Y-82687211D01*
X89325609Y-82818314D01*
X89325602Y-82818327D01*
X89265264Y-82963998D01*
X89265261Y-82964010D01*
X89234500Y-83118653D01*
X89234500Y-83276346D01*
X89265261Y-83430989D01*
X89265264Y-83431001D01*
X89325602Y-83576672D01*
X89325609Y-83576685D01*
X89413210Y-83707788D01*
X89413213Y-83707792D01*
X89440240Y-83734819D01*
X89473725Y-83796142D01*
X89468741Y-83865834D01*
X89440240Y-83910181D01*
X89413213Y-83937207D01*
X89413210Y-83937211D01*
X89325609Y-84068314D01*
X89325602Y-84068327D01*
X89265264Y-84213998D01*
X89265261Y-84214010D01*
X89234500Y-84368653D01*
X89234500Y-84526346D01*
X89265261Y-84680989D01*
X89265264Y-84681001D01*
X89325602Y-84826672D01*
X89325609Y-84826685D01*
X89413210Y-84957788D01*
X89413213Y-84957792D01*
X89440240Y-84984819D01*
X89473725Y-85046142D01*
X89468741Y-85115834D01*
X89440240Y-85160181D01*
X89413213Y-85187207D01*
X89413210Y-85187211D01*
X89325609Y-85318314D01*
X89325602Y-85318327D01*
X89265264Y-85463998D01*
X89265261Y-85464010D01*
X89234500Y-85618653D01*
X89234500Y-85776346D01*
X89265261Y-85930989D01*
X89265264Y-85931001D01*
X89325602Y-86076672D01*
X89325609Y-86076685D01*
X89413210Y-86207788D01*
X89413213Y-86207792D01*
X89440240Y-86234819D01*
X89473725Y-86296142D01*
X89468741Y-86365834D01*
X89440240Y-86410181D01*
X89413213Y-86437207D01*
X89413210Y-86437211D01*
X89325609Y-86568314D01*
X89325602Y-86568327D01*
X89265264Y-86713998D01*
X89265261Y-86714010D01*
X89234500Y-86868653D01*
X89234500Y-87026346D01*
X89265261Y-87180989D01*
X89265264Y-87181001D01*
X89325602Y-87326672D01*
X89325609Y-87326685D01*
X89413210Y-87457788D01*
X89413213Y-87457792D01*
X89435240Y-87479819D01*
X89468725Y-87541142D01*
X89463741Y-87610834D01*
X89435240Y-87655181D01*
X89403213Y-87687207D01*
X89403210Y-87687211D01*
X89315609Y-87818314D01*
X89315602Y-87818327D01*
X89255264Y-87963998D01*
X89255261Y-87964010D01*
X89224500Y-88118653D01*
X89224500Y-88276346D01*
X89255261Y-88430989D01*
X89255264Y-88431001D01*
X89315602Y-88576672D01*
X89315609Y-88576685D01*
X89367849Y-88654867D01*
X89388727Y-88721545D01*
X89370242Y-88788925D01*
X89367850Y-88792648D01*
X89310608Y-88878316D01*
X89310602Y-88878327D01*
X89250264Y-89023998D01*
X89250261Y-89024010D01*
X89219500Y-89178653D01*
X89219500Y-89336346D01*
X89250261Y-89490989D01*
X89250264Y-89491001D01*
X89310602Y-89636672D01*
X89310609Y-89636685D01*
X89398210Y-89767788D01*
X89398213Y-89767792D01*
X89509707Y-89879286D01*
X89509711Y-89879289D01*
X89640814Y-89966890D01*
X89640827Y-89966897D01*
X89786498Y-90027235D01*
X89786503Y-90027237D01*
X89912176Y-90052235D01*
X89941153Y-90057999D01*
X89941156Y-90058000D01*
X89941158Y-90058000D01*
X90098844Y-90058000D01*
X90098845Y-90057999D01*
X90253497Y-90027237D01*
X90399179Y-89966894D01*
X90530289Y-89879289D01*
X90641789Y-89767789D01*
X90729394Y-89636679D01*
X90789737Y-89490997D01*
X90820500Y-89336342D01*
X90820500Y-89178658D01*
X90820500Y-89178655D01*
X90820499Y-89178653D01*
X90792722Y-89039010D01*
X90789737Y-89024003D01*
X90739752Y-88903327D01*
X90729397Y-88878327D01*
X90729390Y-88878314D01*
X90677150Y-88800132D01*
X90656272Y-88733455D01*
X90674756Y-88666075D01*
X90677123Y-88662390D01*
X90734394Y-88576679D01*
X90794737Y-88430997D01*
X90825500Y-88276342D01*
X90825500Y-88118658D01*
X90825500Y-88118655D01*
X90825499Y-88118653D01*
X90807004Y-88025672D01*
X90794737Y-87964003D01*
X90794735Y-87963998D01*
X90734397Y-87818327D01*
X90734390Y-87818314D01*
X90646790Y-87687212D01*
X90639758Y-87680180D01*
X90624758Y-87665180D01*
X90591274Y-87603860D01*
X90596257Y-87534169D01*
X90624760Y-87489818D01*
X90656786Y-87457792D01*
X90656789Y-87457789D01*
X90744394Y-87326679D01*
X90804737Y-87180997D01*
X90835500Y-87026342D01*
X90835500Y-86868658D01*
X90835500Y-86868655D01*
X90835499Y-86868653D01*
X90817204Y-86776679D01*
X90804737Y-86714003D01*
X90770352Y-86630989D01*
X90744397Y-86568327D01*
X90744390Y-86568314D01*
X90656789Y-86437211D01*
X90656786Y-86437207D01*
X90629760Y-86410181D01*
X90596275Y-86348858D01*
X90601259Y-86279166D01*
X90629760Y-86234819D01*
X90656786Y-86207792D01*
X90656789Y-86207789D01*
X90744394Y-86076679D01*
X90804737Y-85930997D01*
X90835500Y-85776342D01*
X90835500Y-85618658D01*
X90835500Y-85618655D01*
X90835499Y-85618653D01*
X90830527Y-85593658D01*
X90804737Y-85464003D01*
X90770352Y-85380989D01*
X90744397Y-85318327D01*
X90744390Y-85318314D01*
X90656789Y-85187211D01*
X90656786Y-85187207D01*
X90629760Y-85160181D01*
X90596275Y-85098858D01*
X90601259Y-85029166D01*
X90629760Y-84984819D01*
X90656786Y-84957792D01*
X90656789Y-84957789D01*
X90744394Y-84826679D01*
X90804737Y-84680997D01*
X90835500Y-84526342D01*
X90835500Y-84368658D01*
X90835500Y-84368655D01*
X90835499Y-84368653D01*
X90823137Y-84306507D01*
X90804737Y-84214003D01*
X90804735Y-84213998D01*
X90744397Y-84068327D01*
X90744390Y-84068314D01*
X90656789Y-83937211D01*
X90656786Y-83937207D01*
X90629760Y-83910181D01*
X90596275Y-83848858D01*
X90601259Y-83779166D01*
X90629760Y-83734819D01*
X90656786Y-83707792D01*
X90656789Y-83707789D01*
X90744394Y-83576679D01*
X90804737Y-83430997D01*
X90835500Y-83276342D01*
X90835500Y-83118658D01*
X90835500Y-83118655D01*
X90835499Y-83118653D01*
X90819192Y-83036672D01*
X90804737Y-82964003D01*
X90772469Y-82886100D01*
X90744397Y-82818327D01*
X90744390Y-82818314D01*
X90656789Y-82687211D01*
X90656786Y-82687207D01*
X90629760Y-82660181D01*
X90596275Y-82598858D01*
X90601259Y-82529166D01*
X90629760Y-82484819D01*
X90656786Y-82457792D01*
X90656787Y-82457791D01*
X90656789Y-82457789D01*
X90744394Y-82326679D01*
X90804737Y-82180997D01*
X90835500Y-82026342D01*
X90835500Y-81868658D01*
X90835500Y-81868655D01*
X90835499Y-81868653D01*
X90821352Y-81797534D01*
X90804737Y-81714003D01*
X90801599Y-81706428D01*
X90744397Y-81568327D01*
X90744390Y-81568314D01*
X90656789Y-81437211D01*
X90656786Y-81437207D01*
X90629760Y-81410181D01*
X90596275Y-81348858D01*
X90601259Y-81279166D01*
X90629760Y-81234819D01*
X90656786Y-81207792D01*
X90656789Y-81207789D01*
X90744394Y-81076679D01*
X90804737Y-80930997D01*
X90835500Y-80776342D01*
X90835500Y-80618658D01*
X90835500Y-80618655D01*
X90835499Y-80618653D01*
X90831525Y-80598676D01*
X90804737Y-80464003D01*
X90792832Y-80435261D01*
X90744397Y-80318327D01*
X90744390Y-80318314D01*
X90656789Y-80187211D01*
X90656786Y-80187207D01*
X90629760Y-80160181D01*
X90596275Y-80098858D01*
X90601259Y-80029166D01*
X90629760Y-79984819D01*
X90656786Y-79957792D01*
X90656789Y-79957789D01*
X90744394Y-79826679D01*
X90804737Y-79680997D01*
X90835500Y-79526342D01*
X90835500Y-79368658D01*
X90835500Y-79368655D01*
X90835499Y-79368653D01*
X90830086Y-79341439D01*
X90804737Y-79214003D01*
X90800461Y-79203680D01*
X90744397Y-79068327D01*
X90744390Y-79068314D01*
X90656789Y-78937211D01*
X90656786Y-78937207D01*
X90545292Y-78825713D01*
X90545288Y-78825710D01*
X90469548Y-78775102D01*
X90424743Y-78721490D01*
X90416036Y-78652165D01*
X90446190Y-78589137D01*
X90505634Y-78552418D01*
X90538439Y-78548000D01*
X91631561Y-78548000D01*
X91698600Y-78567685D01*
X91744355Y-78620489D01*
X91754299Y-78689647D01*
X91725274Y-78753203D01*
X91700452Y-78775102D01*
X91624711Y-78825710D01*
X91624707Y-78825713D01*
X91513213Y-78937207D01*
X91513210Y-78937211D01*
X91425609Y-79068314D01*
X91425602Y-79068327D01*
X91365264Y-79213998D01*
X91365261Y-79214010D01*
X91334500Y-79368653D01*
X91334500Y-79526346D01*
X91365261Y-79680989D01*
X91365264Y-79681001D01*
X91425602Y-79826672D01*
X91425609Y-79826685D01*
X91513210Y-79957788D01*
X91513213Y-79957792D01*
X91540240Y-79984819D01*
X91573725Y-80046142D01*
X91568741Y-80115834D01*
X91540240Y-80160181D01*
X91513213Y-80187207D01*
X91513210Y-80187211D01*
X91425609Y-80318314D01*
X91425602Y-80318327D01*
X91365264Y-80463998D01*
X91365261Y-80464010D01*
X91334500Y-80618653D01*
X91334500Y-80776346D01*
X91365261Y-80930989D01*
X91365264Y-80931001D01*
X91425602Y-81076672D01*
X91425609Y-81076685D01*
X91513210Y-81207788D01*
X91513213Y-81207792D01*
X91540240Y-81234819D01*
X91573725Y-81296142D01*
X91568741Y-81365834D01*
X91540240Y-81410181D01*
X91513213Y-81437207D01*
X91513210Y-81437211D01*
X91425609Y-81568314D01*
X91425602Y-81568327D01*
X91365264Y-81713998D01*
X91365261Y-81714010D01*
X91334500Y-81868653D01*
X91334500Y-82026346D01*
X91365261Y-82180989D01*
X91365264Y-82181001D01*
X91425602Y-82326672D01*
X91425609Y-82326685D01*
X91513210Y-82457788D01*
X91513213Y-82457792D01*
X91540240Y-82484819D01*
X91573725Y-82546142D01*
X91568741Y-82615834D01*
X91540240Y-82660181D01*
X91513213Y-82687207D01*
X91513210Y-82687211D01*
X91425609Y-82818314D01*
X91425602Y-82818327D01*
X91365264Y-82963998D01*
X91365261Y-82964010D01*
X91334500Y-83118653D01*
X91334500Y-83276346D01*
X91365261Y-83430989D01*
X91365264Y-83431001D01*
X91425602Y-83576672D01*
X91425609Y-83576685D01*
X91513210Y-83707788D01*
X91513213Y-83707792D01*
X91540240Y-83734819D01*
X91573725Y-83796142D01*
X91568741Y-83865834D01*
X91540240Y-83910181D01*
X91513213Y-83937207D01*
X91513210Y-83937211D01*
X91425609Y-84068314D01*
X91425602Y-84068327D01*
X91365264Y-84213998D01*
X91365261Y-84214010D01*
X91334500Y-84368653D01*
X91334500Y-84526346D01*
X91365261Y-84680989D01*
X91365264Y-84681001D01*
X91425602Y-84826672D01*
X91425609Y-84826685D01*
X91513210Y-84957788D01*
X91513213Y-84957792D01*
X91540240Y-84984819D01*
X91573725Y-85046142D01*
X91568741Y-85115834D01*
X91540240Y-85160181D01*
X91513213Y-85187207D01*
X91513210Y-85187211D01*
X91425609Y-85318314D01*
X91425602Y-85318327D01*
X91365264Y-85463998D01*
X91365261Y-85464010D01*
X91334500Y-85618653D01*
X91334500Y-85776346D01*
X91365261Y-85930989D01*
X91365264Y-85931001D01*
X91425602Y-86076672D01*
X91425609Y-86076685D01*
X91513210Y-86207788D01*
X91513213Y-86207792D01*
X91540240Y-86234819D01*
X91573725Y-86296142D01*
X91568741Y-86365834D01*
X91540240Y-86410181D01*
X91513213Y-86437207D01*
X91513210Y-86437211D01*
X91425609Y-86568314D01*
X91425602Y-86568327D01*
X91365264Y-86713998D01*
X91365261Y-86714010D01*
X91334500Y-86868653D01*
X91334500Y-87026346D01*
X91365261Y-87180989D01*
X91365264Y-87181001D01*
X91425602Y-87326672D01*
X91425609Y-87326685D01*
X91513210Y-87457788D01*
X91513213Y-87457792D01*
X91542740Y-87487319D01*
X91576225Y-87548642D01*
X91571241Y-87618334D01*
X91542740Y-87662681D01*
X91518213Y-87687207D01*
X91518210Y-87687211D01*
X91430609Y-87818314D01*
X91430602Y-87818327D01*
X91370264Y-87963998D01*
X91370261Y-87964010D01*
X91339500Y-88118653D01*
X91339500Y-88276346D01*
X91370261Y-88430989D01*
X91370264Y-88431001D01*
X91430602Y-88576672D01*
X91430609Y-88576685D01*
X91470326Y-88636125D01*
X91491204Y-88702803D01*
X91472719Y-88770183D01*
X91470327Y-88773906D01*
X91420608Y-88848316D01*
X91420602Y-88848327D01*
X91360264Y-88993998D01*
X91360261Y-88994010D01*
X91329500Y-89148653D01*
X91329500Y-89306346D01*
X91360261Y-89460989D01*
X91360264Y-89461001D01*
X91420602Y-89606672D01*
X91420609Y-89606685D01*
X91508210Y-89737788D01*
X91508213Y-89737792D01*
X91619707Y-89849286D01*
X91619711Y-89849289D01*
X91750814Y-89936890D01*
X91750827Y-89936897D01*
X91883611Y-89991897D01*
X91896503Y-89997237D01*
X92047312Y-90027235D01*
X92051153Y-90027999D01*
X92051156Y-90028000D01*
X92051158Y-90028000D01*
X92208844Y-90028000D01*
X92208845Y-90027999D01*
X92363497Y-89997237D01*
X92476166Y-89950567D01*
X92509172Y-89936897D01*
X92509172Y-89936896D01*
X92509179Y-89936894D01*
X92640289Y-89849289D01*
X92751789Y-89737789D01*
X92839394Y-89606679D01*
X92899737Y-89460997D01*
X92930500Y-89306342D01*
X92930500Y-89148658D01*
X92930500Y-89148655D01*
X92930499Y-89148653D01*
X92899737Y-88994003D01*
X92862173Y-88903314D01*
X92839397Y-88848327D01*
X92839390Y-88848314D01*
X92799673Y-88788874D01*
X92778795Y-88722197D01*
X92797279Y-88654817D01*
X92799673Y-88651092D01*
X92849390Y-88576685D01*
X92849391Y-88576683D01*
X92849394Y-88576679D01*
X92909737Y-88430997D01*
X92940500Y-88276342D01*
X92940500Y-88118658D01*
X92940500Y-88118655D01*
X92940499Y-88118653D01*
X92922004Y-88025672D01*
X92909737Y-87964003D01*
X92909735Y-87963998D01*
X92849397Y-87818327D01*
X92849390Y-87818314D01*
X92761790Y-87687212D01*
X92754758Y-87680180D01*
X92732258Y-87657680D01*
X92698774Y-87596360D01*
X92703758Y-87526668D01*
X92732258Y-87482319D01*
X92756789Y-87457789D01*
X92844394Y-87326679D01*
X92904737Y-87180997D01*
X92935500Y-87026342D01*
X92935500Y-86868658D01*
X92935500Y-86868655D01*
X92935499Y-86868653D01*
X92917204Y-86776679D01*
X92904737Y-86714003D01*
X92870352Y-86630989D01*
X92844397Y-86568327D01*
X92844390Y-86568314D01*
X92756789Y-86437211D01*
X92756786Y-86437207D01*
X92729760Y-86410181D01*
X92696275Y-86348858D01*
X92701259Y-86279166D01*
X92729760Y-86234819D01*
X92756786Y-86207792D01*
X92756789Y-86207789D01*
X92844394Y-86076679D01*
X92904737Y-85930997D01*
X92935500Y-85776342D01*
X92935500Y-85618658D01*
X92935500Y-85618655D01*
X92935499Y-85618653D01*
X92930527Y-85593658D01*
X92904737Y-85464003D01*
X92870352Y-85380989D01*
X92844397Y-85318327D01*
X92844390Y-85318314D01*
X92756789Y-85187211D01*
X92756786Y-85187207D01*
X92729760Y-85160181D01*
X92696275Y-85098858D01*
X92701259Y-85029166D01*
X92729760Y-84984819D01*
X92756786Y-84957792D01*
X92756789Y-84957789D01*
X92844394Y-84826679D01*
X92904737Y-84680997D01*
X92935500Y-84526342D01*
X92935500Y-84368658D01*
X92935500Y-84368655D01*
X92935499Y-84368653D01*
X92923137Y-84306507D01*
X92904737Y-84214003D01*
X92904735Y-84213998D01*
X92844397Y-84068327D01*
X92844390Y-84068314D01*
X92756789Y-83937211D01*
X92756786Y-83937207D01*
X92729760Y-83910181D01*
X92696275Y-83848858D01*
X92701259Y-83779166D01*
X92729760Y-83734819D01*
X92756786Y-83707792D01*
X92756789Y-83707789D01*
X92844394Y-83576679D01*
X92904737Y-83430997D01*
X92935500Y-83276342D01*
X92935500Y-83118658D01*
X92935500Y-83118655D01*
X92935499Y-83118653D01*
X92919192Y-83036672D01*
X92904737Y-82964003D01*
X92872469Y-82886100D01*
X92844397Y-82818327D01*
X92844390Y-82818314D01*
X92756789Y-82687211D01*
X92756786Y-82687207D01*
X92729760Y-82660181D01*
X92696275Y-82598858D01*
X92701259Y-82529166D01*
X92729760Y-82484819D01*
X92756786Y-82457792D01*
X92756787Y-82457791D01*
X92756789Y-82457789D01*
X92844394Y-82326679D01*
X92904737Y-82180997D01*
X92935500Y-82026342D01*
X92935500Y-81868658D01*
X92935500Y-81868655D01*
X92935499Y-81868653D01*
X92921352Y-81797534D01*
X92904737Y-81714003D01*
X92901599Y-81706428D01*
X92844397Y-81568327D01*
X92844390Y-81568314D01*
X92756789Y-81437211D01*
X92756786Y-81437207D01*
X92729760Y-81410181D01*
X92696275Y-81348858D01*
X92701259Y-81279166D01*
X92729760Y-81234819D01*
X92756786Y-81207792D01*
X92756789Y-81207789D01*
X92844394Y-81076679D01*
X92904737Y-80930997D01*
X92935500Y-80776342D01*
X92935500Y-80618658D01*
X92935500Y-80618655D01*
X92935499Y-80618653D01*
X92931525Y-80598676D01*
X92904737Y-80464003D01*
X92892832Y-80435261D01*
X92844397Y-80318327D01*
X92844390Y-80318314D01*
X92756789Y-80187211D01*
X92756786Y-80187207D01*
X92729760Y-80160181D01*
X92696275Y-80098858D01*
X92701259Y-80029166D01*
X92729760Y-79984819D01*
X92756786Y-79957792D01*
X92756789Y-79957789D01*
X92844394Y-79826679D01*
X92904737Y-79680997D01*
X92935500Y-79526342D01*
X92935500Y-79368658D01*
X92935500Y-79368655D01*
X92935499Y-79368653D01*
X92930086Y-79341439D01*
X92904737Y-79214003D01*
X92900461Y-79203680D01*
X92844397Y-79068327D01*
X92844390Y-79068314D01*
X92756789Y-78937211D01*
X92756786Y-78937207D01*
X92645292Y-78825713D01*
X92645288Y-78825710D01*
X92569548Y-78775102D01*
X92524743Y-78721490D01*
X92516036Y-78652165D01*
X92546190Y-78589137D01*
X92605634Y-78552418D01*
X92638439Y-78548000D01*
X93731561Y-78548000D01*
X93798600Y-78567685D01*
X93844355Y-78620489D01*
X93854299Y-78689647D01*
X93825274Y-78753203D01*
X93800452Y-78775102D01*
X93724711Y-78825710D01*
X93724707Y-78825713D01*
X93613213Y-78937207D01*
X93613210Y-78937211D01*
X93525609Y-79068314D01*
X93525602Y-79068327D01*
X93465264Y-79213998D01*
X93465261Y-79214010D01*
X93434500Y-79368653D01*
X93434500Y-79526346D01*
X93465261Y-79680989D01*
X93465264Y-79681001D01*
X93525602Y-79826672D01*
X93525609Y-79826685D01*
X93613210Y-79957788D01*
X93613213Y-79957792D01*
X93640240Y-79984819D01*
X93673725Y-80046142D01*
X93668741Y-80115834D01*
X93640240Y-80160181D01*
X93613213Y-80187207D01*
X93613210Y-80187211D01*
X93525609Y-80318314D01*
X93525602Y-80318327D01*
X93465264Y-80463998D01*
X93465261Y-80464010D01*
X93434500Y-80618653D01*
X93434500Y-80776346D01*
X93465261Y-80930989D01*
X93465264Y-80931001D01*
X93525602Y-81076672D01*
X93525609Y-81076685D01*
X93613210Y-81207788D01*
X93613213Y-81207792D01*
X93640240Y-81234819D01*
X93673725Y-81296142D01*
X93668741Y-81365834D01*
X93640240Y-81410181D01*
X93613213Y-81437207D01*
X93613210Y-81437211D01*
X93525609Y-81568314D01*
X93525602Y-81568327D01*
X93465264Y-81713998D01*
X93465261Y-81714010D01*
X93434500Y-81868653D01*
X93434500Y-82026346D01*
X93465261Y-82180989D01*
X93465264Y-82181001D01*
X93525602Y-82326672D01*
X93525609Y-82326685D01*
X93613210Y-82457788D01*
X93613213Y-82457792D01*
X93630240Y-82474819D01*
X93663725Y-82536142D01*
X93658741Y-82605834D01*
X93630240Y-82650181D01*
X93593213Y-82687207D01*
X93593210Y-82687211D01*
X93505609Y-82818314D01*
X93505602Y-82818327D01*
X93445264Y-82963998D01*
X93445261Y-82964010D01*
X93414500Y-83118653D01*
X93414500Y-83276346D01*
X93445261Y-83430989D01*
X93445264Y-83431001D01*
X93505602Y-83576672D01*
X93505609Y-83576685D01*
X93593210Y-83707788D01*
X93593213Y-83707792D01*
X93622740Y-83737319D01*
X93656225Y-83798642D01*
X93651241Y-83868334D01*
X93622740Y-83912681D01*
X93598213Y-83937207D01*
X93598210Y-83937211D01*
X93510609Y-84068314D01*
X93510602Y-84068327D01*
X93450264Y-84213998D01*
X93450261Y-84214010D01*
X93419500Y-84368653D01*
X93419500Y-84526346D01*
X93450261Y-84680989D01*
X93450264Y-84681001D01*
X93510602Y-84826672D01*
X93510609Y-84826685D01*
X93598210Y-84957788D01*
X93598213Y-84957792D01*
X93625240Y-84984819D01*
X93658725Y-85046142D01*
X93653741Y-85115834D01*
X93625240Y-85160181D01*
X93598213Y-85187207D01*
X93598210Y-85187211D01*
X93510609Y-85318314D01*
X93510602Y-85318327D01*
X93450264Y-85463998D01*
X93450261Y-85464010D01*
X93419500Y-85618653D01*
X93419500Y-85776346D01*
X93450261Y-85930989D01*
X93450264Y-85931001D01*
X93510602Y-86076672D01*
X93510609Y-86076685D01*
X93598210Y-86207788D01*
X93598213Y-86207792D01*
X93632740Y-86242319D01*
X93666225Y-86303642D01*
X93661241Y-86373334D01*
X93632742Y-86417679D01*
X93613212Y-86437208D01*
X93613208Y-86437214D01*
X93525609Y-86568314D01*
X93525602Y-86568327D01*
X93465264Y-86713998D01*
X93465261Y-86714010D01*
X93434500Y-86868653D01*
X93434500Y-87026346D01*
X93465261Y-87180989D01*
X93465264Y-87181001D01*
X93525602Y-87326672D01*
X93525609Y-87326685D01*
X93613210Y-87457788D01*
X93617076Y-87462499D01*
X93615251Y-87463996D01*
X93643725Y-87516142D01*
X93638741Y-87585834D01*
X93610240Y-87630181D01*
X93603213Y-87637207D01*
X93603210Y-87637211D01*
X93515609Y-87768314D01*
X93515602Y-87768327D01*
X93455264Y-87913998D01*
X93455261Y-87914010D01*
X93424500Y-88068653D01*
X93424500Y-88226346D01*
X93455261Y-88380989D01*
X93455264Y-88381001D01*
X93515602Y-88526672D01*
X93515609Y-88526685D01*
X93579531Y-88622350D01*
X93600409Y-88689027D01*
X93581925Y-88756408D01*
X93579531Y-88760131D01*
X93520612Y-88848309D01*
X93520602Y-88848327D01*
X93460264Y-88993998D01*
X93460261Y-88994010D01*
X93429500Y-89148653D01*
X93429500Y-89306346D01*
X93460261Y-89460989D01*
X93460264Y-89461001D01*
X93520602Y-89606672D01*
X93520609Y-89606685D01*
X93608210Y-89737788D01*
X93608213Y-89737792D01*
X93719707Y-89849286D01*
X93719711Y-89849289D01*
X93850814Y-89936890D01*
X93850827Y-89936897D01*
X93983611Y-89991897D01*
X93996503Y-89997237D01*
X94147312Y-90027235D01*
X94151153Y-90027999D01*
X94151156Y-90028000D01*
X94151158Y-90028000D01*
X94308844Y-90028000D01*
X94308845Y-90027999D01*
X94463497Y-89997237D01*
X94576166Y-89950567D01*
X94609172Y-89936897D01*
X94609172Y-89936896D01*
X94609179Y-89936894D01*
X94740289Y-89849289D01*
X94851789Y-89737789D01*
X94939394Y-89606679D01*
X94999737Y-89460997D01*
X95030500Y-89306342D01*
X95030500Y-89148658D01*
X95030500Y-89148655D01*
X95030499Y-89148653D01*
X94999737Y-88994003D01*
X94962173Y-88903314D01*
X94939397Y-88848327D01*
X94939390Y-88848314D01*
X94875468Y-88752649D01*
X94854590Y-88685972D01*
X94873074Y-88618592D01*
X94875436Y-88614915D01*
X94934394Y-88526679D01*
X94994737Y-88380997D01*
X95025500Y-88226342D01*
X95025500Y-88068658D01*
X95025500Y-88068655D01*
X95025499Y-88068653D01*
X95004684Y-87964010D01*
X94994737Y-87914003D01*
X94980653Y-87880001D01*
X94934397Y-87768327D01*
X94934390Y-87768314D01*
X94846789Y-87637211D01*
X94842924Y-87632501D01*
X94844748Y-87631003D01*
X94816274Y-87578857D01*
X94821258Y-87509165D01*
X94849762Y-87464815D01*
X94856789Y-87457789D01*
X94944394Y-87326679D01*
X95004737Y-87180997D01*
X95035500Y-87026342D01*
X95035500Y-86868658D01*
X95035500Y-86868655D01*
X95035499Y-86868653D01*
X95017204Y-86776679D01*
X95004737Y-86714003D01*
X94970352Y-86630989D01*
X94944397Y-86568327D01*
X94944390Y-86568314D01*
X94856789Y-86437211D01*
X94856786Y-86437207D01*
X94822259Y-86402680D01*
X94788774Y-86341357D01*
X94793758Y-86271665D01*
X94822259Y-86227318D01*
X94841789Y-86207789D01*
X94929394Y-86076679D01*
X94989737Y-85930997D01*
X95020500Y-85776342D01*
X95020500Y-85618658D01*
X95020500Y-85618655D01*
X95020499Y-85618653D01*
X95015527Y-85593658D01*
X94989737Y-85464003D01*
X94955352Y-85380989D01*
X94929397Y-85318327D01*
X94929390Y-85318314D01*
X94841789Y-85187211D01*
X94841786Y-85187207D01*
X94814760Y-85160181D01*
X94781275Y-85098858D01*
X94786259Y-85029166D01*
X94814760Y-84984819D01*
X94841786Y-84957792D01*
X94841789Y-84957789D01*
X94929394Y-84826679D01*
X94989737Y-84680997D01*
X95020500Y-84526342D01*
X95020500Y-84368658D01*
X95020500Y-84368655D01*
X95020499Y-84368653D01*
X95008137Y-84306507D01*
X94989737Y-84214003D01*
X94989735Y-84213998D01*
X94929397Y-84068327D01*
X94929390Y-84068314D01*
X94841790Y-83937212D01*
X94841785Y-83937207D01*
X94812258Y-83907680D01*
X94778774Y-83846360D01*
X94783758Y-83776668D01*
X94812258Y-83732319D01*
X94836789Y-83707789D01*
X94924394Y-83576679D01*
X94984737Y-83430997D01*
X95015500Y-83276342D01*
X95015500Y-83118658D01*
X95015500Y-83118655D01*
X95015499Y-83118653D01*
X94999192Y-83036672D01*
X94984737Y-82964003D01*
X94952469Y-82886100D01*
X94924397Y-82818327D01*
X94924390Y-82818314D01*
X94836789Y-82687211D01*
X94836786Y-82687207D01*
X94819759Y-82670180D01*
X94786274Y-82608857D01*
X94791258Y-82539165D01*
X94819759Y-82494818D01*
X94856789Y-82457789D01*
X94944394Y-82326679D01*
X95004737Y-82180997D01*
X95035500Y-82026342D01*
X95035500Y-81868658D01*
X95035500Y-81868655D01*
X95035499Y-81868653D01*
X95021352Y-81797534D01*
X95004737Y-81714003D01*
X95001599Y-81706428D01*
X94944397Y-81568327D01*
X94944390Y-81568314D01*
X94856789Y-81437211D01*
X94856786Y-81437207D01*
X94829760Y-81410181D01*
X94796275Y-81348858D01*
X94801259Y-81279166D01*
X94829760Y-81234819D01*
X94856786Y-81207792D01*
X94856789Y-81207789D01*
X94944394Y-81076679D01*
X95004737Y-80930997D01*
X95035500Y-80776342D01*
X95035500Y-80618658D01*
X95035500Y-80618655D01*
X95035499Y-80618653D01*
X95031525Y-80598676D01*
X95004737Y-80464003D01*
X94992832Y-80435261D01*
X94944397Y-80318327D01*
X94944390Y-80318314D01*
X94856789Y-80187211D01*
X94856786Y-80187207D01*
X94829760Y-80160181D01*
X94796275Y-80098858D01*
X94801259Y-80029166D01*
X94829760Y-79984819D01*
X94856786Y-79957792D01*
X94856789Y-79957789D01*
X94944394Y-79826679D01*
X95004737Y-79680997D01*
X95035500Y-79526342D01*
X95035500Y-79368658D01*
X95035500Y-79368655D01*
X95035499Y-79368653D01*
X95030086Y-79341439D01*
X95004737Y-79214003D01*
X95000461Y-79203680D01*
X94944397Y-79068327D01*
X94944390Y-79068314D01*
X94856789Y-78937211D01*
X94856786Y-78937207D01*
X94745292Y-78825713D01*
X94745288Y-78825710D01*
X94669548Y-78775102D01*
X94624743Y-78721490D01*
X94616036Y-78652165D01*
X94646190Y-78589137D01*
X94705634Y-78552418D01*
X94738439Y-78548000D01*
X95821561Y-78548000D01*
X95888600Y-78567685D01*
X95934355Y-78620489D01*
X95944299Y-78689647D01*
X95915274Y-78753203D01*
X95890452Y-78775102D01*
X95814711Y-78825710D01*
X95814707Y-78825713D01*
X95703213Y-78937207D01*
X95703210Y-78937211D01*
X95615609Y-79068314D01*
X95615602Y-79068327D01*
X95555264Y-79213998D01*
X95555261Y-79214010D01*
X95524500Y-79368653D01*
X95524500Y-79526346D01*
X95555261Y-79680989D01*
X95555264Y-79681001D01*
X95615602Y-79826672D01*
X95615609Y-79826685D01*
X95703210Y-79957788D01*
X95703213Y-79957792D01*
X95735240Y-79989819D01*
X95768725Y-80051142D01*
X95763741Y-80120834D01*
X95735242Y-80165180D01*
X95713208Y-80187214D01*
X95625609Y-80318314D01*
X95625602Y-80318327D01*
X95565264Y-80463998D01*
X95565261Y-80464010D01*
X95534500Y-80618653D01*
X95534500Y-80776346D01*
X95565261Y-80930989D01*
X95565264Y-80931001D01*
X95625602Y-81076672D01*
X95625609Y-81076685D01*
X95713210Y-81207788D01*
X95713213Y-81207792D01*
X95740240Y-81234819D01*
X95773725Y-81296142D01*
X95768741Y-81365834D01*
X95740240Y-81410181D01*
X95713213Y-81437207D01*
X95713210Y-81437211D01*
X95625609Y-81568314D01*
X95625602Y-81568327D01*
X95565264Y-81713998D01*
X95565261Y-81714010D01*
X95534500Y-81868653D01*
X95534500Y-82026346D01*
X95565261Y-82180989D01*
X95565264Y-82181001D01*
X95625602Y-82326672D01*
X95625609Y-82326685D01*
X95713210Y-82457788D01*
X95713213Y-82457792D01*
X95740240Y-82484819D01*
X95773725Y-82546142D01*
X95768741Y-82615834D01*
X95740240Y-82660181D01*
X95713213Y-82687207D01*
X95713210Y-82687211D01*
X95625609Y-82818314D01*
X95625602Y-82818327D01*
X95565264Y-82963998D01*
X95565261Y-82964010D01*
X95534500Y-83118653D01*
X95534500Y-83276346D01*
X95565261Y-83430989D01*
X95565264Y-83431001D01*
X95625602Y-83576672D01*
X95625609Y-83576685D01*
X95713210Y-83707788D01*
X95713213Y-83707792D01*
X95740240Y-83734819D01*
X95773725Y-83796142D01*
X95768741Y-83865834D01*
X95740240Y-83910181D01*
X95713213Y-83937207D01*
X95713210Y-83937211D01*
X95625609Y-84068314D01*
X95625602Y-84068327D01*
X95565264Y-84213998D01*
X95565261Y-84214010D01*
X95534500Y-84368653D01*
X95534500Y-84526346D01*
X95565261Y-84680989D01*
X95565264Y-84681001D01*
X95625602Y-84826672D01*
X95625609Y-84826685D01*
X95713210Y-84957788D01*
X95713213Y-84957792D01*
X95740240Y-84984819D01*
X95773725Y-85046142D01*
X95768741Y-85115834D01*
X95740240Y-85160181D01*
X95713213Y-85187207D01*
X95713210Y-85187211D01*
X95625609Y-85318314D01*
X95625602Y-85318327D01*
X95565264Y-85463998D01*
X95565261Y-85464010D01*
X95534500Y-85618653D01*
X95534500Y-85776346D01*
X95565261Y-85930989D01*
X95565264Y-85931001D01*
X95625602Y-86076672D01*
X95625609Y-86076685D01*
X95713210Y-86207788D01*
X95713213Y-86207792D01*
X95740240Y-86234819D01*
X95773725Y-86296142D01*
X95768741Y-86365834D01*
X95740240Y-86410181D01*
X95713213Y-86437207D01*
X95713210Y-86437211D01*
X95625609Y-86568314D01*
X95625602Y-86568327D01*
X95565264Y-86713998D01*
X95565261Y-86714010D01*
X95534500Y-86868653D01*
X95534500Y-87026346D01*
X95565261Y-87180989D01*
X95565264Y-87181001D01*
X95625602Y-87326672D01*
X95625609Y-87326685D01*
X95713210Y-87457788D01*
X95713213Y-87457792D01*
X95735240Y-87479819D01*
X95768725Y-87541142D01*
X95763741Y-87610834D01*
X95735240Y-87655181D01*
X95703213Y-87687207D01*
X95703210Y-87687211D01*
X95615609Y-87818314D01*
X95615602Y-87818327D01*
X95555264Y-87963998D01*
X95555261Y-87964010D01*
X95524500Y-88118653D01*
X95524500Y-88276346D01*
X95555261Y-88430989D01*
X95555264Y-88431001D01*
X95615602Y-88576672D01*
X95615609Y-88576685D01*
X95661167Y-88644867D01*
X95682045Y-88711545D01*
X95663560Y-88778925D01*
X95661168Y-88782648D01*
X95610608Y-88858316D01*
X95610602Y-88858327D01*
X95550264Y-89003998D01*
X95550261Y-89004010D01*
X95519500Y-89158653D01*
X95519500Y-89316346D01*
X95550261Y-89470989D01*
X95550264Y-89471001D01*
X95610602Y-89616672D01*
X95610609Y-89616685D01*
X95698210Y-89747788D01*
X95698213Y-89747792D01*
X95809707Y-89859286D01*
X95809711Y-89859289D01*
X95940814Y-89946890D01*
X95940827Y-89946897D01*
X96062363Y-89997238D01*
X96086503Y-90007237D01*
X96241153Y-90037999D01*
X96241156Y-90038000D01*
X96241158Y-90038000D01*
X96398844Y-90038000D01*
X96398845Y-90037999D01*
X96553497Y-90007237D01*
X96699179Y-89946894D01*
X96830289Y-89859289D01*
X96941789Y-89747789D01*
X97029394Y-89616679D01*
X97089737Y-89470997D01*
X97120500Y-89316342D01*
X97120500Y-89158658D01*
X97120500Y-89158655D01*
X97120499Y-89158653D01*
X97118510Y-89148653D01*
X97089737Y-89004003D01*
X97048036Y-88903327D01*
X97029397Y-88858327D01*
X97029390Y-88858314D01*
X96983832Y-88790132D01*
X96962954Y-88723455D01*
X96981438Y-88656074D01*
X96983810Y-88652382D01*
X97034394Y-88576679D01*
X97094737Y-88430997D01*
X97125500Y-88276342D01*
X97125500Y-88118658D01*
X97125500Y-88118655D01*
X97125499Y-88118653D01*
X97107004Y-88025672D01*
X97094737Y-87964003D01*
X97094735Y-87963998D01*
X97034397Y-87818327D01*
X97034390Y-87818314D01*
X96946790Y-87687212D01*
X96939758Y-87680180D01*
X96924758Y-87665180D01*
X96891274Y-87603860D01*
X96896257Y-87534169D01*
X96924760Y-87489818D01*
X96956786Y-87457792D01*
X96956789Y-87457789D01*
X97044394Y-87326679D01*
X97104737Y-87180997D01*
X97135500Y-87026342D01*
X97135500Y-86868658D01*
X97135500Y-86868655D01*
X97135499Y-86868653D01*
X97117204Y-86776679D01*
X97104737Y-86714003D01*
X97070352Y-86630989D01*
X97044397Y-86568327D01*
X97044390Y-86568314D01*
X96956789Y-86437211D01*
X96956786Y-86437207D01*
X96929760Y-86410181D01*
X96896275Y-86348858D01*
X96901259Y-86279166D01*
X96929760Y-86234819D01*
X96956786Y-86207792D01*
X96956789Y-86207789D01*
X97044394Y-86076679D01*
X97104737Y-85930997D01*
X97135500Y-85776342D01*
X97135500Y-85618658D01*
X97135500Y-85618655D01*
X97135499Y-85618653D01*
X97130527Y-85593658D01*
X97104737Y-85464003D01*
X97070352Y-85380989D01*
X97044397Y-85318327D01*
X97044390Y-85318314D01*
X96956789Y-85187211D01*
X96956786Y-85187207D01*
X96929760Y-85160181D01*
X96896275Y-85098858D01*
X96901259Y-85029166D01*
X96929760Y-84984819D01*
X96956786Y-84957792D01*
X96956789Y-84957789D01*
X97044394Y-84826679D01*
X97104737Y-84680997D01*
X97135500Y-84526342D01*
X97135500Y-84368658D01*
X97135500Y-84368655D01*
X97135499Y-84368653D01*
X97123137Y-84306507D01*
X97104737Y-84214003D01*
X97104735Y-84213998D01*
X97044397Y-84068327D01*
X97044390Y-84068314D01*
X96956789Y-83937211D01*
X96956786Y-83937207D01*
X96929760Y-83910181D01*
X96896275Y-83848858D01*
X96901259Y-83779166D01*
X96929760Y-83734819D01*
X96956786Y-83707792D01*
X96956789Y-83707789D01*
X97044394Y-83576679D01*
X97104737Y-83430997D01*
X97135500Y-83276342D01*
X97135500Y-83118658D01*
X97135500Y-83118655D01*
X97135499Y-83118653D01*
X97119192Y-83036672D01*
X97104737Y-82964003D01*
X97072469Y-82886100D01*
X97044397Y-82818327D01*
X97044390Y-82818314D01*
X96956789Y-82687211D01*
X96956786Y-82687207D01*
X96929760Y-82660181D01*
X96896275Y-82598858D01*
X96901259Y-82529166D01*
X96929760Y-82484819D01*
X96956786Y-82457792D01*
X96956787Y-82457791D01*
X96956789Y-82457789D01*
X97044394Y-82326679D01*
X97104737Y-82180997D01*
X97135500Y-82026342D01*
X97135500Y-81868658D01*
X97135500Y-81868655D01*
X97135499Y-81868653D01*
X97121352Y-81797534D01*
X97104737Y-81714003D01*
X97101599Y-81706428D01*
X97044397Y-81568327D01*
X97044390Y-81568314D01*
X96956789Y-81437211D01*
X96956786Y-81437207D01*
X96929760Y-81410181D01*
X96896275Y-81348858D01*
X96901259Y-81279166D01*
X96929760Y-81234819D01*
X96956786Y-81207792D01*
X96956789Y-81207789D01*
X97044394Y-81076679D01*
X97104737Y-80930997D01*
X97135500Y-80776342D01*
X97135500Y-80618658D01*
X97135500Y-80618655D01*
X97135499Y-80618653D01*
X97131525Y-80598676D01*
X97104737Y-80464003D01*
X97092832Y-80435261D01*
X97044397Y-80318327D01*
X97044390Y-80318314D01*
X96956789Y-80187211D01*
X96956786Y-80187207D01*
X96924759Y-80155180D01*
X96891274Y-80093857D01*
X96896258Y-80024165D01*
X96924756Y-79979821D01*
X96946789Y-79957789D01*
X97034394Y-79826679D01*
X97094737Y-79680997D01*
X97125500Y-79526342D01*
X97125500Y-79368658D01*
X97125500Y-79368655D01*
X97125499Y-79368653D01*
X97120086Y-79341439D01*
X97094737Y-79214003D01*
X97090461Y-79203680D01*
X97034397Y-79068327D01*
X97034390Y-79068314D01*
X96946789Y-78937211D01*
X96946786Y-78937207D01*
X96835292Y-78825713D01*
X96835288Y-78825710D01*
X96759548Y-78775102D01*
X96714743Y-78721490D01*
X96706036Y-78652165D01*
X96736190Y-78589137D01*
X96795634Y-78552418D01*
X96828439Y-78548000D01*
X97906561Y-78548000D01*
X97973600Y-78567685D01*
X98019355Y-78620489D01*
X98029299Y-78689647D01*
X98000274Y-78753203D01*
X97975452Y-78775102D01*
X97899711Y-78825710D01*
X97899707Y-78825713D01*
X97788213Y-78937207D01*
X97788210Y-78937211D01*
X97700609Y-79068314D01*
X97700602Y-79068327D01*
X97640264Y-79213998D01*
X97640261Y-79214010D01*
X97609500Y-79368653D01*
X97609500Y-79526346D01*
X97640261Y-79680989D01*
X97640264Y-79681001D01*
X97700602Y-79826672D01*
X97700609Y-79826685D01*
X97788210Y-79957788D01*
X97788213Y-79957792D01*
X97815240Y-79984819D01*
X97848725Y-80046142D01*
X97843741Y-80115834D01*
X97815240Y-80160181D01*
X97788213Y-80187207D01*
X97788210Y-80187211D01*
X97700609Y-80318314D01*
X97700602Y-80318327D01*
X97640264Y-80463998D01*
X97640261Y-80464010D01*
X97609500Y-80618653D01*
X97609500Y-80776346D01*
X97640261Y-80930989D01*
X97640264Y-80931001D01*
X97700602Y-81076672D01*
X97700609Y-81076685D01*
X97788210Y-81207788D01*
X97788213Y-81207792D01*
X97815240Y-81234819D01*
X97848725Y-81296142D01*
X97843741Y-81365834D01*
X97815240Y-81410181D01*
X97788213Y-81437207D01*
X97788210Y-81437211D01*
X97700609Y-81568314D01*
X97700602Y-81568327D01*
X97640264Y-81713998D01*
X97640261Y-81714010D01*
X97609500Y-81868653D01*
X97609500Y-82026346D01*
X97640261Y-82180989D01*
X97640264Y-82181001D01*
X97700602Y-82326672D01*
X97700609Y-82326685D01*
X97788210Y-82457788D01*
X97788213Y-82457792D01*
X97815240Y-82484819D01*
X97848725Y-82546142D01*
X97843741Y-82615834D01*
X97815240Y-82660181D01*
X97788213Y-82687207D01*
X97788210Y-82687211D01*
X97700609Y-82818314D01*
X97700602Y-82818327D01*
X97640264Y-82963998D01*
X97640261Y-82964010D01*
X97609500Y-83118653D01*
X97609500Y-83276346D01*
X97640261Y-83430989D01*
X97640264Y-83431001D01*
X97700602Y-83576672D01*
X97700609Y-83576685D01*
X97788210Y-83707788D01*
X97788213Y-83707792D01*
X97815240Y-83734819D01*
X97848725Y-83796142D01*
X97843741Y-83865834D01*
X97815240Y-83910181D01*
X97788213Y-83937207D01*
X97788210Y-83937211D01*
X97700609Y-84068314D01*
X97700602Y-84068327D01*
X97640264Y-84213998D01*
X97640261Y-84214010D01*
X97609500Y-84368653D01*
X97609500Y-84526346D01*
X97640261Y-84680989D01*
X97640264Y-84681001D01*
X97700602Y-84826672D01*
X97700609Y-84826685D01*
X97788210Y-84957788D01*
X97788213Y-84957792D01*
X97820240Y-84989819D01*
X97853725Y-85051142D01*
X97848741Y-85120834D01*
X97820242Y-85165180D01*
X97798208Y-85187214D01*
X97710609Y-85318314D01*
X97710602Y-85318327D01*
X97650264Y-85463998D01*
X97650261Y-85464010D01*
X97619500Y-85618653D01*
X97619500Y-85776346D01*
X97650261Y-85930989D01*
X97650264Y-85931001D01*
X97710602Y-86076672D01*
X97710609Y-86076685D01*
X97798210Y-86207788D01*
X97798213Y-86207792D01*
X97827740Y-86237319D01*
X97861225Y-86298642D01*
X97856241Y-86368334D01*
X97827740Y-86412681D01*
X97803213Y-86437207D01*
X97803210Y-86437211D01*
X97715609Y-86568314D01*
X97715602Y-86568327D01*
X97655264Y-86713998D01*
X97655261Y-86714010D01*
X97624500Y-86868653D01*
X97624500Y-87026346D01*
X97655261Y-87180989D01*
X97655264Y-87181001D01*
X97715602Y-87326672D01*
X97715609Y-87326685D01*
X97803210Y-87457788D01*
X97803213Y-87457792D01*
X97830240Y-87484819D01*
X97863725Y-87546142D01*
X97858741Y-87615834D01*
X97830240Y-87660181D01*
X97803213Y-87687207D01*
X97803210Y-87687211D01*
X97715609Y-87818314D01*
X97715602Y-87818327D01*
X97655264Y-87963998D01*
X97655261Y-87964010D01*
X97624500Y-88118653D01*
X97624500Y-88276346D01*
X97655261Y-88430989D01*
X97655264Y-88431001D01*
X97715602Y-88576672D01*
X97715608Y-88576683D01*
X97765327Y-88651093D01*
X97786204Y-88717770D01*
X97767719Y-88785150D01*
X97765327Y-88788872D01*
X97725611Y-88848312D01*
X97725602Y-88848328D01*
X97665264Y-88993998D01*
X97665261Y-88994010D01*
X97634500Y-89148653D01*
X97634500Y-89306346D01*
X97665261Y-89460989D01*
X97665264Y-89461001D01*
X97725602Y-89606672D01*
X97725609Y-89606685D01*
X97813210Y-89737788D01*
X97813213Y-89737792D01*
X97924707Y-89849286D01*
X97924711Y-89849289D01*
X98055814Y-89936890D01*
X98055827Y-89936897D01*
X98188611Y-89991897D01*
X98201503Y-89997237D01*
X98352312Y-90027235D01*
X98356153Y-90027999D01*
X98356156Y-90028000D01*
X98356158Y-90028000D01*
X98513844Y-90028000D01*
X98513845Y-90027999D01*
X98668497Y-89997237D01*
X98781166Y-89950567D01*
X98814172Y-89936897D01*
X98814172Y-89936896D01*
X98814179Y-89936894D01*
X98945289Y-89849289D01*
X99056789Y-89737789D01*
X99144394Y-89606679D01*
X99204737Y-89460997D01*
X99235500Y-89306342D01*
X99235500Y-89148658D01*
X99235500Y-89148655D01*
X99235499Y-89148653D01*
X99204737Y-88994003D01*
X99167173Y-88903314D01*
X99144397Y-88848327D01*
X99144395Y-88848323D01*
X99144394Y-88848321D01*
X99094671Y-88773906D01*
X99073794Y-88707230D01*
X99092278Y-88639850D01*
X99094655Y-88636150D01*
X99134394Y-88576679D01*
X99194737Y-88430997D01*
X99225500Y-88276342D01*
X99225500Y-88118658D01*
X99225500Y-88118655D01*
X99225499Y-88118653D01*
X99207004Y-88025672D01*
X99194737Y-87964003D01*
X99194735Y-87963998D01*
X99134397Y-87818327D01*
X99134390Y-87818314D01*
X99046789Y-87687211D01*
X99046786Y-87687207D01*
X99019760Y-87660181D01*
X98986275Y-87598858D01*
X98991259Y-87529166D01*
X99019760Y-87484819D01*
X99046786Y-87457792D01*
X99046789Y-87457789D01*
X99134394Y-87326679D01*
X99194737Y-87180997D01*
X99225500Y-87026342D01*
X99225500Y-86868658D01*
X99225500Y-86868655D01*
X99225499Y-86868653D01*
X99207204Y-86776679D01*
X99194737Y-86714003D01*
X99160352Y-86630989D01*
X99134397Y-86568327D01*
X99134390Y-86568314D01*
X99046790Y-86437212D01*
X99046785Y-86437207D01*
X99017258Y-86407680D01*
X98983774Y-86346360D01*
X98988758Y-86276668D01*
X99017258Y-86232319D01*
X99041789Y-86207789D01*
X99129394Y-86076679D01*
X99189737Y-85930997D01*
X99220500Y-85776342D01*
X99220500Y-85618658D01*
X99220500Y-85618655D01*
X99220499Y-85618653D01*
X99215527Y-85593658D01*
X99189737Y-85464003D01*
X99155352Y-85380989D01*
X99129397Y-85318327D01*
X99129390Y-85318314D01*
X99041789Y-85187211D01*
X99041786Y-85187207D01*
X99009759Y-85155180D01*
X98976274Y-85093857D01*
X98981258Y-85024165D01*
X99009756Y-84979821D01*
X99031789Y-84957789D01*
X99119394Y-84826679D01*
X99179737Y-84680997D01*
X99210500Y-84526342D01*
X99210500Y-84368658D01*
X99210500Y-84368655D01*
X99210499Y-84368653D01*
X99198137Y-84306507D01*
X99179737Y-84214003D01*
X99179735Y-84213998D01*
X99119397Y-84068327D01*
X99119390Y-84068314D01*
X99031789Y-83937211D01*
X99031786Y-83937207D01*
X99004760Y-83910181D01*
X98971275Y-83848858D01*
X98976259Y-83779166D01*
X99004760Y-83734819D01*
X99031786Y-83707792D01*
X99031789Y-83707789D01*
X99119394Y-83576679D01*
X99179737Y-83430997D01*
X99210500Y-83276342D01*
X99210500Y-83118658D01*
X99210500Y-83118655D01*
X99210499Y-83118653D01*
X99194192Y-83036672D01*
X99179737Y-82964003D01*
X99147469Y-82886100D01*
X99119397Y-82818327D01*
X99119390Y-82818314D01*
X99031789Y-82687211D01*
X99031786Y-82687207D01*
X99004760Y-82660181D01*
X98971275Y-82598858D01*
X98976259Y-82529166D01*
X99004760Y-82484819D01*
X99031786Y-82457792D01*
X99031787Y-82457791D01*
X99031789Y-82457789D01*
X99119394Y-82326679D01*
X99179737Y-82180997D01*
X99210500Y-82026342D01*
X99210500Y-81868658D01*
X99210500Y-81868655D01*
X99210499Y-81868653D01*
X99196352Y-81797534D01*
X99179737Y-81714003D01*
X99176599Y-81706428D01*
X99119397Y-81568327D01*
X99119390Y-81568314D01*
X99031789Y-81437211D01*
X99031786Y-81437207D01*
X99004760Y-81410181D01*
X98971275Y-81348858D01*
X98976259Y-81279166D01*
X99004760Y-81234819D01*
X99031786Y-81207792D01*
X99031789Y-81207789D01*
X99119394Y-81076679D01*
X99179737Y-80930997D01*
X99210500Y-80776342D01*
X99210500Y-80618658D01*
X99210500Y-80618655D01*
X99210499Y-80618653D01*
X99206525Y-80598676D01*
X99179737Y-80464003D01*
X99167832Y-80435261D01*
X99119397Y-80318327D01*
X99119390Y-80318314D01*
X99031789Y-80187211D01*
X99031786Y-80187207D01*
X99004760Y-80160181D01*
X98971275Y-80098858D01*
X98976259Y-80029166D01*
X99004760Y-79984819D01*
X99031786Y-79957792D01*
X99031789Y-79957789D01*
X99119394Y-79826679D01*
X99179737Y-79680997D01*
X99210500Y-79526342D01*
X99210500Y-79368658D01*
X99210500Y-79368655D01*
X99210499Y-79368653D01*
X99205086Y-79341439D01*
X99179737Y-79214003D01*
X99175461Y-79203680D01*
X99119397Y-79068327D01*
X99119390Y-79068314D01*
X99031789Y-78937211D01*
X99031786Y-78937207D01*
X98920292Y-78825713D01*
X98920288Y-78825710D01*
X98844548Y-78775102D01*
X98799743Y-78721490D01*
X98791036Y-78652165D01*
X98821190Y-78589137D01*
X98880634Y-78552418D01*
X98913439Y-78548000D01*
X99375118Y-78548000D01*
X99408908Y-78548000D01*
X99421061Y-78548597D01*
X99431051Y-78549580D01*
X99558824Y-78562165D01*
X99582652Y-78566904D01*
X99709277Y-78605315D01*
X99731725Y-78614614D01*
X99848406Y-78676982D01*
X99868616Y-78690486D01*
X99906395Y-78721490D01*
X99970891Y-78774420D01*
X99988079Y-78791608D01*
X100072012Y-78893881D01*
X100085517Y-78914093D01*
X100147883Y-79030771D01*
X100157186Y-79053228D01*
X100185328Y-79146001D01*
X100195593Y-79179838D01*
X100200335Y-79203680D01*
X100213903Y-79341438D01*
X100214500Y-79353592D01*
X100214500Y-93001611D01*
X100194815Y-93068650D01*
X100142011Y-93114405D01*
X100072853Y-93124349D01*
X100009297Y-93095324D01*
X99987398Y-93070503D01*
X99957470Y-93025713D01*
X99951789Y-93017211D01*
X99951788Y-93017210D01*
X99951786Y-93017207D01*
X99840292Y-92905713D01*
X99840288Y-92905710D01*
X99709185Y-92818109D01*
X99709172Y-92818102D01*
X99563501Y-92757764D01*
X99563489Y-92757761D01*
X99408845Y-92727000D01*
X99408842Y-92727000D01*
X99251158Y-92727000D01*
X99251155Y-92727000D01*
X99096510Y-92757761D01*
X99096498Y-92757764D01*
X98950827Y-92818102D01*
X98950814Y-92818109D01*
X98819711Y-92905710D01*
X98819707Y-92905713D01*
X98708213Y-93017207D01*
X98708210Y-93017211D01*
X98620609Y-93148314D01*
X98620602Y-93148327D01*
X98560264Y-93293998D01*
X98560261Y-93294010D01*
X98529500Y-93448653D01*
X98529500Y-93606346D01*
X98560261Y-93760989D01*
X98560264Y-93761001D01*
X98620602Y-93906672D01*
X98620609Y-93906685D01*
X98708210Y-94037788D01*
X98708213Y-94037792D01*
X98819707Y-94149286D01*
X98819711Y-94149289D01*
X98950814Y-94236890D01*
X98950827Y-94236897D01*
X99096498Y-94297235D01*
X99096503Y-94297237D01*
X99251153Y-94327999D01*
X99251156Y-94328000D01*
X99251158Y-94328000D01*
X99408844Y-94328000D01*
X99408845Y-94327999D01*
X99563497Y-94297237D01*
X99709179Y-94236894D01*
X99840289Y-94149289D01*
X99951789Y-94037789D01*
X99974404Y-94003941D01*
X99987398Y-93984497D01*
X100041010Y-93939692D01*
X100110335Y-93930985D01*
X100173363Y-93961139D01*
X100210082Y-94020582D01*
X100214500Y-94053388D01*
X100214500Y-112366407D01*
X100213903Y-112378561D01*
X100200335Y-112516319D01*
X100195593Y-112540161D01*
X100157186Y-112666771D01*
X100147883Y-112689228D01*
X100085517Y-112805906D01*
X100072012Y-112826118D01*
X99988079Y-112928391D01*
X99970891Y-112945579D01*
X99868618Y-113029512D01*
X99848406Y-113043017D01*
X99731728Y-113105383D01*
X99709271Y-113114686D01*
X99582661Y-113153093D01*
X99558819Y-113157835D01*
X99421062Y-113171403D01*
X99408908Y-113172000D01*
X76073939Y-113172000D01*
X76006900Y-113152315D01*
X75961145Y-113099511D01*
X75951201Y-113030353D01*
X75980226Y-112966797D01*
X76005048Y-112944898D01*
X76037871Y-112922965D01*
X76072782Y-112899639D01*
X76212139Y-112760282D01*
X76321632Y-112596414D01*
X76322514Y-112594286D01*
X76383422Y-112447238D01*
X76395555Y-112417945D01*
X76439395Y-112363542D01*
X76505689Y-112341477D01*
X76573389Y-112358756D01*
X76579007Y-112362296D01*
X76580872Y-112363542D01*
X76615821Y-112386894D01*
X76615823Y-112386895D01*
X76615827Y-112386897D01*
X76761498Y-112447235D01*
X76761503Y-112447237D01*
X76916153Y-112477999D01*
X76916156Y-112478000D01*
X76916158Y-112478000D01*
X77073844Y-112478000D01*
X77073845Y-112477999D01*
X77228497Y-112447237D01*
X77374179Y-112386894D01*
X77505289Y-112299289D01*
X77616789Y-112187789D01*
X77704394Y-112056679D01*
X77764737Y-111910997D01*
X77768187Y-111893653D01*
X93989500Y-111893653D01*
X93989500Y-112051346D01*
X94020261Y-112205989D01*
X94020264Y-112206001D01*
X94080602Y-112351672D01*
X94080609Y-112351685D01*
X94168210Y-112482788D01*
X94168213Y-112482792D01*
X94279707Y-112594286D01*
X94279711Y-112594289D01*
X94410814Y-112681890D01*
X94410827Y-112681897D01*
X94556498Y-112742235D01*
X94556503Y-112742237D01*
X94711153Y-112772999D01*
X94711156Y-112773000D01*
X94711158Y-112773000D01*
X94868844Y-112773000D01*
X94868845Y-112772999D01*
X95023497Y-112742237D01*
X95169179Y-112681894D01*
X95300289Y-112594289D01*
X95411789Y-112482789D01*
X95499394Y-112351679D01*
X95559737Y-112205997D01*
X95590500Y-112051342D01*
X95590500Y-111893658D01*
X95590500Y-111893655D01*
X95590499Y-111893653D01*
X95559738Y-111739010D01*
X95559737Y-111739003D01*
X95501605Y-111598658D01*
X95499397Y-111593327D01*
X95499390Y-111593314D01*
X95411789Y-111462211D01*
X95411786Y-111462207D01*
X95300292Y-111350713D01*
X95300288Y-111350710D01*
X95169185Y-111263109D01*
X95169172Y-111263102D01*
X95023501Y-111202764D01*
X95023489Y-111202761D01*
X94868845Y-111172000D01*
X94868842Y-111172000D01*
X94711158Y-111172000D01*
X94711155Y-111172000D01*
X94556510Y-111202761D01*
X94556498Y-111202764D01*
X94410827Y-111263102D01*
X94410814Y-111263109D01*
X94279711Y-111350710D01*
X94279707Y-111350713D01*
X94168213Y-111462207D01*
X94168210Y-111462211D01*
X94080609Y-111593314D01*
X94080602Y-111593327D01*
X94020264Y-111738998D01*
X94020261Y-111739010D01*
X93989500Y-111893653D01*
X77768187Y-111893653D01*
X77795500Y-111756342D01*
X77795500Y-111598658D01*
X77795500Y-111598655D01*
X77795499Y-111598653D01*
X77794437Y-111593314D01*
X77764737Y-111444003D01*
X77756433Y-111423956D01*
X77704397Y-111298327D01*
X77704390Y-111298314D01*
X77616789Y-111167211D01*
X77616786Y-111167207D01*
X77505292Y-111055713D01*
X77505288Y-111055710D01*
X77374185Y-110968109D01*
X77374172Y-110968102D01*
X77228501Y-110907764D01*
X77228489Y-110907761D01*
X77073845Y-110877000D01*
X77073842Y-110877000D01*
X76916158Y-110877000D01*
X76916155Y-110877000D01*
X76761510Y-110907761D01*
X76761498Y-110907764D01*
X76615827Y-110968102D01*
X76615814Y-110968109D01*
X76479646Y-111059095D01*
X76478291Y-111057067D01*
X76423809Y-111080155D01*
X76354951Y-111068307D01*
X76306452Y-111025867D01*
X76212142Y-110884722D01*
X76212136Y-110884714D01*
X76072785Y-110745363D01*
X76072781Y-110745360D01*
X75908920Y-110635871D01*
X75908907Y-110635864D01*
X75726839Y-110560450D01*
X75726829Y-110560447D01*
X75533543Y-110522000D01*
X75533541Y-110522000D01*
X75336459Y-110522000D01*
X75336457Y-110522000D01*
X75143170Y-110560447D01*
X75143160Y-110560450D01*
X74961092Y-110635864D01*
X74961079Y-110635871D01*
X74797218Y-110745360D01*
X74797214Y-110745363D01*
X74657863Y-110884714D01*
X74657860Y-110884718D01*
X74548371Y-111048579D01*
X74548364Y-111048592D01*
X74472950Y-111230660D01*
X74472947Y-111230670D01*
X74434500Y-111423956D01*
X74434500Y-111423959D01*
X74434500Y-112221041D01*
X74434500Y-112221043D01*
X74434499Y-112221043D01*
X74472947Y-112414329D01*
X74472950Y-112414339D01*
X74548364Y-112596407D01*
X74548371Y-112596420D01*
X74657860Y-112760281D01*
X74657863Y-112760285D01*
X74797214Y-112899636D01*
X74797218Y-112899639D01*
X74864952Y-112944898D01*
X74909757Y-112998510D01*
X74918464Y-113067835D01*
X74888309Y-113130863D01*
X74828866Y-113167582D01*
X74796061Y-113172000D01*
X67433939Y-113172000D01*
X67366900Y-113152315D01*
X67321145Y-113099511D01*
X67311201Y-113030353D01*
X67340226Y-112966797D01*
X67365048Y-112944898D01*
X67397871Y-112922965D01*
X67432782Y-112899639D01*
X67572139Y-112760282D01*
X67681632Y-112596414D01*
X67682514Y-112594286D01*
X67728695Y-112482792D01*
X67757051Y-112414335D01*
X67779936Y-112299286D01*
X67795500Y-112221043D01*
X67795500Y-111423956D01*
X67757052Y-111230670D01*
X67757051Y-111230669D01*
X67757051Y-111230665D01*
X67735939Y-111179695D01*
X67681635Y-111048592D01*
X67681628Y-111048579D01*
X67572139Y-110884718D01*
X67572136Y-110884714D01*
X67432785Y-110745363D01*
X67432781Y-110745360D01*
X67268920Y-110635871D01*
X67268907Y-110635864D01*
X67086839Y-110560450D01*
X67086829Y-110560447D01*
X66893543Y-110522000D01*
X66893541Y-110522000D01*
X66696459Y-110522000D01*
X66696457Y-110522000D01*
X66503170Y-110560447D01*
X66503160Y-110560450D01*
X66321092Y-110635864D01*
X66321079Y-110635871D01*
X66157218Y-110745360D01*
X66157214Y-110745363D01*
X66017863Y-110884714D01*
X66017860Y-110884718D01*
X65908371Y-111048579D01*
X65908366Y-111048588D01*
X65854061Y-111179695D01*
X65810220Y-111234098D01*
X65743926Y-111256163D01*
X65676227Y-111238884D01*
X65628616Y-111187747D01*
X65615500Y-111132242D01*
X65615500Y-110018653D01*
X90464500Y-110018653D01*
X90464500Y-110176346D01*
X90495261Y-110330989D01*
X90495264Y-110331001D01*
X90555602Y-110476672D01*
X90555609Y-110476685D01*
X90643210Y-110607788D01*
X90643213Y-110607792D01*
X90754707Y-110719286D01*
X90754711Y-110719289D01*
X90885814Y-110806890D01*
X90885827Y-110806897D01*
X91031498Y-110867235D01*
X91031503Y-110867237D01*
X91186153Y-110897999D01*
X91186156Y-110898000D01*
X91186158Y-110898000D01*
X91343844Y-110898000D01*
X91343845Y-110897999D01*
X91498497Y-110867237D01*
X91644179Y-110806894D01*
X91775289Y-110719289D01*
X91886789Y-110607789D01*
X91974394Y-110476679D01*
X92034737Y-110330997D01*
X92065500Y-110176342D01*
X92065500Y-110018658D01*
X92065500Y-110018655D01*
X92065499Y-110018653D01*
X92034738Y-109864010D01*
X92034737Y-109864003D01*
X92034735Y-109863998D01*
X91974397Y-109718327D01*
X91974390Y-109718314D01*
X91886789Y-109587211D01*
X91886786Y-109587207D01*
X91775292Y-109475713D01*
X91775288Y-109475710D01*
X91644185Y-109388109D01*
X91644172Y-109388102D01*
X91498501Y-109327764D01*
X91498489Y-109327761D01*
X91343845Y-109297000D01*
X91343842Y-109297000D01*
X91186158Y-109297000D01*
X91186155Y-109297000D01*
X91031510Y-109327761D01*
X91031498Y-109327764D01*
X90885827Y-109388102D01*
X90885814Y-109388109D01*
X90754711Y-109475710D01*
X90754707Y-109475713D01*
X90643213Y-109587207D01*
X90643210Y-109587211D01*
X90555609Y-109718314D01*
X90555602Y-109718327D01*
X90495264Y-109863998D01*
X90495261Y-109864010D01*
X90464500Y-110018653D01*
X65615500Y-110018653D01*
X65615500Y-108582757D01*
X65635185Y-108515718D01*
X65687989Y-108469963D01*
X65757147Y-108460019D01*
X65820703Y-108489044D01*
X65854061Y-108535305D01*
X65908364Y-108666407D01*
X65908371Y-108666420D01*
X66017860Y-108830281D01*
X66017863Y-108830285D01*
X66157214Y-108969636D01*
X66157218Y-108969639D01*
X66321079Y-109079128D01*
X66321092Y-109079135D01*
X66503160Y-109154549D01*
X66503165Y-109154551D01*
X66503169Y-109154551D01*
X66503170Y-109154552D01*
X66696456Y-109193000D01*
X66696459Y-109193000D01*
X66893543Y-109193000D01*
X67023582Y-109167132D01*
X67086835Y-109154551D01*
X67268914Y-109079132D01*
X67432782Y-108969639D01*
X67572139Y-108830282D01*
X67681632Y-108666414D01*
X67681633Y-108666411D01*
X67681635Y-108666408D01*
X67722396Y-108568000D01*
X67746965Y-108508682D01*
X67790805Y-108454280D01*
X67857099Y-108432215D01*
X67924799Y-108449494D01*
X67949207Y-108468455D01*
X67963737Y-108482985D01*
X68060763Y-108539003D01*
X68168982Y-108568000D01*
X68168984Y-108568000D01*
X68281016Y-108568000D01*
X68281018Y-108568000D01*
X68389237Y-108539003D01*
X68486263Y-108482985D01*
X68565485Y-108403763D01*
X68621503Y-108306737D01*
X68650500Y-108198518D01*
X68650500Y-108086482D01*
X73579500Y-108086482D01*
X73579500Y-108198518D01*
X73608497Y-108306737D01*
X73664515Y-108403763D01*
X73743737Y-108482985D01*
X73840763Y-108539003D01*
X73948982Y-108568000D01*
X73948984Y-108568000D01*
X74061016Y-108568000D01*
X74061018Y-108568000D01*
X74169237Y-108539003D01*
X74266263Y-108482985D01*
X74280792Y-108468455D01*
X74342112Y-108434970D01*
X74411804Y-108439953D01*
X74467738Y-108481823D01*
X74483034Y-108508684D01*
X74548364Y-108666407D01*
X74548371Y-108666420D01*
X74657860Y-108830281D01*
X74657863Y-108830285D01*
X74797214Y-108969636D01*
X74797218Y-108969639D01*
X74961079Y-109079128D01*
X74961092Y-109079135D01*
X75143160Y-109154549D01*
X75143165Y-109154551D01*
X75143169Y-109154551D01*
X75143170Y-109154552D01*
X75336456Y-109193000D01*
X75336459Y-109193000D01*
X75533543Y-109193000D01*
X75663582Y-109167132D01*
X75726835Y-109154551D01*
X75908914Y-109079132D01*
X76072782Y-108969639D01*
X76156960Y-108885460D01*
X76218281Y-108851977D01*
X76287973Y-108856961D01*
X76340492Y-108894477D01*
X76343210Y-108897789D01*
X76454707Y-109009286D01*
X76454711Y-109009289D01*
X76585814Y-109096890D01*
X76585827Y-109096897D01*
X76725018Y-109154551D01*
X76731503Y-109157237D01*
X76886153Y-109187999D01*
X76886156Y-109188000D01*
X76886158Y-109188000D01*
X77043844Y-109188000D01*
X77043845Y-109187999D01*
X77198497Y-109157237D01*
X77344179Y-109096894D01*
X77475289Y-109009289D01*
X77586789Y-108897789D01*
X77674394Y-108766679D01*
X77734737Y-108620997D01*
X77765500Y-108466342D01*
X77765500Y-108308658D01*
X77765500Y-108308655D01*
X77765499Y-108308653D01*
X77761996Y-108291041D01*
X77734737Y-108154003D01*
X77706769Y-108086482D01*
X77674397Y-108008327D01*
X77674390Y-108008314D01*
X77586789Y-107877211D01*
X77586786Y-107877207D01*
X77475292Y-107765713D01*
X77475288Y-107765710D01*
X77344185Y-107678109D01*
X77344172Y-107678102D01*
X77198501Y-107617764D01*
X77198489Y-107617761D01*
X77043845Y-107587000D01*
X77043842Y-107587000D01*
X76886158Y-107587000D01*
X76886155Y-107587000D01*
X76731510Y-107617761D01*
X76731507Y-107617762D01*
X76731506Y-107617762D01*
X76731503Y-107617763D01*
X76664431Y-107645545D01*
X76606952Y-107669353D01*
X76537482Y-107676821D01*
X76475003Y-107645545D01*
X76439351Y-107585456D01*
X76435500Y-107554791D01*
X76435500Y-106993956D01*
X76435499Y-106993954D01*
X76430090Y-106966757D01*
X76426489Y-106948653D01*
X79449500Y-106948653D01*
X79449500Y-107106346D01*
X79480261Y-107260989D01*
X79480264Y-107261001D01*
X79540602Y-107406672D01*
X79540609Y-107406685D01*
X79628210Y-107537788D01*
X79628213Y-107537792D01*
X79739707Y-107649286D01*
X79739711Y-107649289D01*
X79870814Y-107736890D01*
X79870827Y-107736897D01*
X80016498Y-107797235D01*
X80016503Y-107797237D01*
X80171153Y-107827999D01*
X80171156Y-107828000D01*
X80171158Y-107828000D01*
X80328844Y-107828000D01*
X80328845Y-107827999D01*
X80483497Y-107797237D01*
X80629179Y-107736894D01*
X80760289Y-107649289D01*
X80871789Y-107537789D01*
X80959394Y-107406679D01*
X81019737Y-107260997D01*
X81050500Y-107106342D01*
X81050500Y-106948658D01*
X81050500Y-106948655D01*
X81050499Y-106948653D01*
X81023117Y-106810997D01*
X81019737Y-106794003D01*
X81019735Y-106793998D01*
X80959397Y-106648327D01*
X80959390Y-106648314D01*
X80871789Y-106517211D01*
X80871786Y-106517207D01*
X80760292Y-106405713D01*
X80760288Y-106405710D01*
X80629185Y-106318109D01*
X80629172Y-106318102D01*
X80483501Y-106257764D01*
X80483489Y-106257761D01*
X80328845Y-106227000D01*
X80328842Y-106227000D01*
X80171158Y-106227000D01*
X80171155Y-106227000D01*
X80016510Y-106257761D01*
X80016498Y-106257764D01*
X79870827Y-106318102D01*
X79870814Y-106318109D01*
X79739711Y-106405710D01*
X79739707Y-106405713D01*
X79628213Y-106517207D01*
X79628210Y-106517211D01*
X79540609Y-106648314D01*
X79540602Y-106648327D01*
X79480264Y-106793998D01*
X79480261Y-106794010D01*
X79449500Y-106948653D01*
X76426489Y-106948653D01*
X76397052Y-106800670D01*
X76397051Y-106800669D01*
X76397051Y-106800665D01*
X76397049Y-106800660D01*
X76321635Y-106618592D01*
X76321628Y-106618579D01*
X76212139Y-106454718D01*
X76212136Y-106454714D01*
X76072785Y-106315363D01*
X76072781Y-106315360D01*
X75908920Y-106205871D01*
X75908907Y-106205864D01*
X75726839Y-106130450D01*
X75726829Y-106130447D01*
X75533543Y-106092000D01*
X75533541Y-106092000D01*
X75336459Y-106092000D01*
X75336457Y-106092000D01*
X75143170Y-106130447D01*
X75143160Y-106130450D01*
X74961092Y-106205864D01*
X74961079Y-106205871D01*
X74797218Y-106315360D01*
X74797214Y-106315363D01*
X74657863Y-106454714D01*
X74657860Y-106454718D01*
X74548371Y-106618579D01*
X74548364Y-106618592D01*
X74472950Y-106800660D01*
X74472947Y-106800670D01*
X74434500Y-106993956D01*
X74434500Y-107684372D01*
X74414815Y-107751411D01*
X74362011Y-107797166D01*
X74292853Y-107807110D01*
X74248500Y-107791759D01*
X74169239Y-107745998D01*
X74169238Y-107745997D01*
X74169237Y-107745997D01*
X74061018Y-107717000D01*
X73948982Y-107717000D01*
X73840763Y-107745997D01*
X73840760Y-107745998D01*
X73743740Y-107802013D01*
X73743734Y-107802017D01*
X73664517Y-107881234D01*
X73664513Y-107881240D01*
X73608498Y-107978260D01*
X73608497Y-107978263D01*
X73579500Y-108086482D01*
X68650500Y-108086482D01*
X68621503Y-107978263D01*
X68565485Y-107881237D01*
X68486263Y-107802015D01*
X68421579Y-107764669D01*
X68389239Y-107745998D01*
X68389238Y-107745997D01*
X68389237Y-107745997D01*
X68281018Y-107717000D01*
X68168982Y-107717000D01*
X68060763Y-107745997D01*
X68060760Y-107745998D01*
X67981500Y-107791759D01*
X67913599Y-107808232D01*
X67847573Y-107785379D01*
X67804382Y-107730458D01*
X67795500Y-107684372D01*
X67795500Y-106993956D01*
X67757052Y-106800670D01*
X67757051Y-106800669D01*
X67757051Y-106800665D01*
X67757049Y-106800660D01*
X67681635Y-106618592D01*
X67681628Y-106618579D01*
X67572139Y-106454718D01*
X67572136Y-106454714D01*
X67432785Y-106315363D01*
X67432781Y-106315360D01*
X67268920Y-106205871D01*
X67268907Y-106205864D01*
X67086839Y-106130450D01*
X67086829Y-106130447D01*
X66893543Y-106092000D01*
X66893541Y-106092000D01*
X66696459Y-106092000D01*
X66696457Y-106092000D01*
X66503170Y-106130447D01*
X66503160Y-106130450D01*
X66321092Y-106205864D01*
X66321079Y-106205871D01*
X66157218Y-106315360D01*
X66157214Y-106315363D01*
X66017863Y-106454714D01*
X66017860Y-106454718D01*
X65908371Y-106618579D01*
X65908366Y-106618588D01*
X65854061Y-106749695D01*
X65810220Y-106804098D01*
X65743926Y-106826163D01*
X65676227Y-106808884D01*
X65628616Y-106757747D01*
X65615500Y-106702242D01*
X65615500Y-104838653D01*
X67114500Y-104838653D01*
X67114500Y-104996346D01*
X67145261Y-105150989D01*
X67145264Y-105151001D01*
X67205602Y-105296672D01*
X67205609Y-105296685D01*
X67293210Y-105427788D01*
X67293213Y-105427792D01*
X67404707Y-105539286D01*
X67404711Y-105539289D01*
X67535814Y-105626890D01*
X67535827Y-105626897D01*
X67635060Y-105668000D01*
X67681503Y-105687237D01*
X67834509Y-105717672D01*
X67836153Y-105717999D01*
X67836156Y-105718000D01*
X67836158Y-105718000D01*
X67993844Y-105718000D01*
X67993845Y-105717999D01*
X68148497Y-105687237D01*
X68294179Y-105626894D01*
X68328915Y-105603683D01*
X68395591Y-105582805D01*
X68445258Y-105592223D01*
X68481503Y-105607237D01*
X68632312Y-105637235D01*
X68636153Y-105637999D01*
X68636156Y-105638000D01*
X68636158Y-105638000D01*
X68793844Y-105638000D01*
X68793845Y-105637999D01*
X68948497Y-105607237D01*
X69094179Y-105546894D01*
X69225289Y-105459289D01*
X69336789Y-105347789D01*
X69424394Y-105216679D01*
X69484737Y-105070997D01*
X69515500Y-104916342D01*
X69515500Y-104778653D01*
X72704500Y-104778653D01*
X72704500Y-104936346D01*
X72735261Y-105090989D01*
X72735264Y-105091001D01*
X72795602Y-105236672D01*
X72795609Y-105236685D01*
X72883210Y-105367788D01*
X72883213Y-105367792D01*
X72994707Y-105479286D01*
X72994711Y-105479289D01*
X73125814Y-105566890D01*
X73125827Y-105566897D01*
X73233138Y-105611346D01*
X73271503Y-105627237D01*
X73426153Y-105657999D01*
X73426156Y-105658000D01*
X73426158Y-105658000D01*
X73583844Y-105658000D01*
X73583845Y-105657999D01*
X73738497Y-105627237D01*
X73850476Y-105580853D01*
X73919945Y-105573385D01*
X73945380Y-105580854D01*
X74057363Y-105627238D01*
X74081503Y-105637237D01*
X74236153Y-105667999D01*
X74236156Y-105668000D01*
X74236158Y-105668000D01*
X74393844Y-105668000D01*
X74393845Y-105667999D01*
X74548497Y-105637237D01*
X74661166Y-105590567D01*
X74694172Y-105576897D01*
X74694172Y-105576896D01*
X74694179Y-105576894D01*
X74825289Y-105489289D01*
X74936789Y-105377789D01*
X75024394Y-105246679D01*
X75084737Y-105100997D01*
X75115500Y-104946342D01*
X75115500Y-104788658D01*
X75115500Y-104788655D01*
X75115499Y-104788653D01*
X75108077Y-104751342D01*
X75084737Y-104634003D01*
X75068026Y-104593658D01*
X75024397Y-104488327D01*
X75024390Y-104488314D01*
X74936789Y-104357211D01*
X74936786Y-104357207D01*
X74825292Y-104245713D01*
X74825288Y-104245710D01*
X74694185Y-104158109D01*
X74694172Y-104158102D01*
X74548501Y-104097764D01*
X74548489Y-104097761D01*
X74393845Y-104067000D01*
X74393842Y-104067000D01*
X74236158Y-104067000D01*
X74236155Y-104067000D01*
X74081510Y-104097761D01*
X74081507Y-104097762D01*
X74081506Y-104097762D01*
X74081503Y-104097763D01*
X74009081Y-104127761D01*
X73969523Y-104144146D01*
X73900053Y-104151614D01*
X73874619Y-104144145D01*
X73738501Y-104087764D01*
X73738489Y-104087761D01*
X73583845Y-104057000D01*
X73583842Y-104057000D01*
X73426158Y-104057000D01*
X73426155Y-104057000D01*
X73271510Y-104087761D01*
X73271498Y-104087764D01*
X73125827Y-104148102D01*
X73125814Y-104148109D01*
X72994711Y-104235710D01*
X72994707Y-104235713D01*
X72883213Y-104347207D01*
X72883210Y-104347211D01*
X72795609Y-104478314D01*
X72795602Y-104478327D01*
X72735264Y-104623998D01*
X72735261Y-104624010D01*
X72704500Y-104778653D01*
X69515500Y-104778653D01*
X69515500Y-104758658D01*
X69515500Y-104758655D01*
X69515499Y-104758653D01*
X69511192Y-104737000D01*
X69484737Y-104604003D01*
X69480450Y-104593653D01*
X69424397Y-104458327D01*
X69424390Y-104458314D01*
X69336789Y-104327211D01*
X69336786Y-104327207D01*
X69225292Y-104215713D01*
X69225288Y-104215710D01*
X69094185Y-104128109D01*
X69094172Y-104128102D01*
X68948501Y-104067764D01*
X68948489Y-104067761D01*
X68793845Y-104037000D01*
X68793842Y-104037000D01*
X68636158Y-104037000D01*
X68636155Y-104037000D01*
X68481510Y-104067761D01*
X68481498Y-104067764D01*
X68335828Y-104128102D01*
X68335819Y-104128107D01*
X68301081Y-104151318D01*
X68234403Y-104172194D01*
X68184740Y-104162775D01*
X68148501Y-104147764D01*
X68148489Y-104147761D01*
X67993845Y-104117000D01*
X67993842Y-104117000D01*
X67836158Y-104117000D01*
X67836155Y-104117000D01*
X67681510Y-104147761D01*
X67681498Y-104147764D01*
X67535827Y-104208102D01*
X67535814Y-104208109D01*
X67404711Y-104295710D01*
X67404707Y-104295713D01*
X67293213Y-104407207D01*
X67293210Y-104407211D01*
X67205609Y-104538314D01*
X67205602Y-104538327D01*
X67145264Y-104683998D01*
X67145261Y-104684010D01*
X67114500Y-104838653D01*
X65615500Y-104838653D01*
X65615500Y-102528653D01*
X77424500Y-102528653D01*
X77424500Y-102686346D01*
X77455261Y-102840989D01*
X77455264Y-102841001D01*
X77515602Y-102986672D01*
X77515609Y-102986685D01*
X77603210Y-103117788D01*
X77603213Y-103117792D01*
X77714707Y-103229286D01*
X77714711Y-103229289D01*
X77845814Y-103316890D01*
X77845827Y-103316897D01*
X77967695Y-103367375D01*
X77991503Y-103377237D01*
X77991511Y-103377238D01*
X77993593Y-103377870D01*
X77994557Y-103378502D01*
X77997131Y-103379568D01*
X77996928Y-103380055D01*
X78052034Y-103416163D01*
X78072167Y-103449081D01*
X78120097Y-103564797D01*
X78120104Y-103564810D01*
X78207705Y-103695913D01*
X78207708Y-103695917D01*
X78283181Y-103771390D01*
X78316666Y-103832713D01*
X78319500Y-103859071D01*
X78319500Y-103901346D01*
X78350261Y-104055989D01*
X78350264Y-104056001D01*
X78410602Y-104201672D01*
X78410609Y-104201685D01*
X78422513Y-104219500D01*
X78443391Y-104286177D01*
X78424907Y-104353558D01*
X78388302Y-104391493D01*
X78284711Y-104460710D01*
X78284707Y-104460713D01*
X78173213Y-104572207D01*
X78173210Y-104572211D01*
X78085609Y-104703314D01*
X78085602Y-104703327D01*
X78025264Y-104848998D01*
X78025261Y-104849010D01*
X77994500Y-105003653D01*
X77994500Y-105161346D01*
X78025261Y-105315989D01*
X78025264Y-105316001D01*
X78085602Y-105461672D01*
X78085609Y-105461685D01*
X78173210Y-105592788D01*
X78173213Y-105592792D01*
X78284707Y-105704286D01*
X78284711Y-105704289D01*
X78415814Y-105791890D01*
X78415827Y-105791897D01*
X78553186Y-105848792D01*
X78561503Y-105852237D01*
X78694284Y-105878649D01*
X78716153Y-105882999D01*
X78716156Y-105883000D01*
X78716158Y-105883000D01*
X78873844Y-105883000D01*
X78873845Y-105882999D01*
X79028497Y-105852237D01*
X79174179Y-105791894D01*
X79305289Y-105704289D01*
X79416789Y-105592789D01*
X79504394Y-105461679D01*
X79504395Y-105461676D01*
X79504397Y-105461673D01*
X79507719Y-105453653D01*
X81694500Y-105453653D01*
X81694500Y-105611346D01*
X81725261Y-105765989D01*
X81725264Y-105766001D01*
X81785602Y-105911672D01*
X81785609Y-105911685D01*
X81873210Y-106042788D01*
X81873213Y-106042792D01*
X81984710Y-106154289D01*
X82115815Y-106241890D01*
X82115821Y-106241894D01*
X82128528Y-106247157D01*
X82182931Y-106290999D01*
X82202691Y-106337526D01*
X82225261Y-106450991D01*
X82225264Y-106451001D01*
X82285602Y-106596672D01*
X82285609Y-106596685D01*
X82373210Y-106727788D01*
X82373213Y-106727792D01*
X82484707Y-106839286D01*
X82484711Y-106839289D01*
X82615814Y-106926890D01*
X82615827Y-106926897D01*
X82668352Y-106948653D01*
X82761503Y-106987237D01*
X82761513Y-106987239D01*
X82761654Y-106987282D01*
X82761726Y-106987329D01*
X82767131Y-106989568D01*
X82766706Y-106990593D01*
X82820093Y-107025580D01*
X82828761Y-107037052D01*
X82916805Y-107168818D01*
X82916808Y-107168822D01*
X83028302Y-107280316D01*
X83028306Y-107280319D01*
X83159409Y-107367920D01*
X83159422Y-107367927D01*
X83305093Y-107428265D01*
X83305098Y-107428267D01*
X83459748Y-107459029D01*
X83459751Y-107459030D01*
X83459753Y-107459030D01*
X83617439Y-107459030D01*
X83617440Y-107459029D01*
X83772092Y-107428267D01*
X83917774Y-107367924D01*
X84048884Y-107280319D01*
X84160384Y-107168819D01*
X84247989Y-107037709D01*
X84308332Y-106892027D01*
X84339095Y-106737372D01*
X84339095Y-106579688D01*
X84339095Y-106579685D01*
X84339094Y-106579683D01*
X84326578Y-106516757D01*
X84322977Y-106498653D01*
X96239500Y-106498653D01*
X96239500Y-106656346D01*
X96270261Y-106810989D01*
X96270264Y-106811001D01*
X96330602Y-106956672D01*
X96330609Y-106956685D01*
X96418210Y-107087788D01*
X96418213Y-107087792D01*
X96529707Y-107199286D01*
X96529711Y-107199289D01*
X96660814Y-107286890D01*
X96660827Y-107286897D01*
X96806498Y-107347235D01*
X96806503Y-107347237D01*
X96961153Y-107377999D01*
X96961156Y-107378000D01*
X96961158Y-107378000D01*
X97118844Y-107378000D01*
X97118845Y-107377999D01*
X97273497Y-107347237D01*
X97419179Y-107286894D01*
X97550289Y-107199289D01*
X97661789Y-107087789D01*
X97749394Y-106956679D01*
X97752719Y-106948653D01*
X97776172Y-106892031D01*
X97809737Y-106810997D01*
X97840500Y-106656342D01*
X97840500Y-106498658D01*
X97840500Y-106498655D01*
X97840499Y-106498653D01*
X97831020Y-106451001D01*
X97809737Y-106344003D01*
X97807054Y-106337526D01*
X97749397Y-106198327D01*
X97749390Y-106198314D01*
X97661789Y-106067211D01*
X97661786Y-106067207D01*
X97550292Y-105955713D01*
X97550288Y-105955710D01*
X97419185Y-105868109D01*
X97419172Y-105868102D01*
X97273501Y-105807764D01*
X97273489Y-105807761D01*
X97118845Y-105777000D01*
X97118842Y-105777000D01*
X96961158Y-105777000D01*
X96961155Y-105777000D01*
X96806510Y-105807761D01*
X96806498Y-105807764D01*
X96660827Y-105868102D01*
X96660814Y-105868109D01*
X96529711Y-105955710D01*
X96529707Y-105955713D01*
X96418213Y-106067207D01*
X96418210Y-106067211D01*
X96330609Y-106198314D01*
X96330602Y-106198327D01*
X96270264Y-106343998D01*
X96270261Y-106344010D01*
X96239500Y-106498653D01*
X84322977Y-106498653D01*
X84308333Y-106425038D01*
X84308332Y-106425037D01*
X84308332Y-106425033D01*
X84308330Y-106425028D01*
X84247992Y-106279357D01*
X84247985Y-106279344D01*
X84160384Y-106148241D01*
X84160381Y-106148237D01*
X84048887Y-106036743D01*
X84048883Y-106036740D01*
X83917780Y-105949139D01*
X83917767Y-105949132D01*
X83772089Y-105888791D01*
X83771919Y-105888740D01*
X83771840Y-105888688D01*
X83766465Y-105886462D01*
X83766887Y-105885441D01*
X83713487Y-105850433D01*
X83704832Y-105838976D01*
X83616789Y-105707211D01*
X83616786Y-105707207D01*
X83539760Y-105630181D01*
X83506275Y-105568858D01*
X83511259Y-105499166D01*
X83539760Y-105454819D01*
X83586786Y-105407792D01*
X83586789Y-105407789D01*
X83674394Y-105276679D01*
X83681446Y-105259653D01*
X88489500Y-105259653D01*
X88489500Y-105417346D01*
X88520261Y-105571989D01*
X88520264Y-105572001D01*
X88580602Y-105717672D01*
X88580609Y-105717685D01*
X88668210Y-105848788D01*
X88668213Y-105848792D01*
X88779707Y-105960286D01*
X88779711Y-105960289D01*
X88910814Y-106047890D01*
X88910827Y-106047897D01*
X89017303Y-106092000D01*
X89056503Y-106108237D01*
X89168170Y-106130449D01*
X89211153Y-106138999D01*
X89211156Y-106139000D01*
X89211158Y-106139000D01*
X89368844Y-106139000D01*
X89368845Y-106138999D01*
X89523497Y-106108237D01*
X89669179Y-106047894D01*
X89800289Y-105960289D01*
X89911789Y-105848789D01*
X89999394Y-105717679D01*
X90059737Y-105571997D01*
X90090500Y-105417342D01*
X90090500Y-105259658D01*
X90090500Y-105259655D01*
X90090499Y-105259653D01*
X90075210Y-105182789D01*
X90059737Y-105105003D01*
X90045653Y-105071001D01*
X89999397Y-104959327D01*
X89999390Y-104959314D01*
X89911789Y-104828211D01*
X89911786Y-104828207D01*
X89800292Y-104716713D01*
X89800288Y-104716710D01*
X89761314Y-104690668D01*
X89669185Y-104629109D01*
X89669172Y-104629102D01*
X89583589Y-104593653D01*
X94714500Y-104593653D01*
X94714500Y-104751346D01*
X94745261Y-104905989D01*
X94745264Y-104906001D01*
X94805602Y-105051672D01*
X94805609Y-105051685D01*
X94893210Y-105182788D01*
X94893213Y-105182792D01*
X95004707Y-105294286D01*
X95004711Y-105294289D01*
X95135814Y-105381890D01*
X95135827Y-105381897D01*
X95246622Y-105427789D01*
X95281503Y-105442237D01*
X95436153Y-105472999D01*
X95436156Y-105473000D01*
X95436158Y-105473000D01*
X95593844Y-105473000D01*
X95593845Y-105472999D01*
X95748497Y-105442237D01*
X95894179Y-105381894D01*
X96025289Y-105294289D01*
X96136789Y-105182789D01*
X96224394Y-105051679D01*
X96284737Y-104905997D01*
X96315500Y-104751342D01*
X96315500Y-104593658D01*
X96315500Y-104593655D01*
X96315499Y-104593653D01*
X96303214Y-104531894D01*
X96284737Y-104439003D01*
X96284735Y-104438998D01*
X96224397Y-104293327D01*
X96224390Y-104293314D01*
X96136789Y-104162211D01*
X96136786Y-104162207D01*
X96025292Y-104050713D01*
X96025288Y-104050710D01*
X95894185Y-103963109D01*
X95894172Y-103963102D01*
X95748501Y-103902764D01*
X95748489Y-103902761D01*
X95593845Y-103872000D01*
X95593842Y-103872000D01*
X95436158Y-103872000D01*
X95436155Y-103872000D01*
X95281510Y-103902761D01*
X95281498Y-103902764D01*
X95135827Y-103963102D01*
X95135814Y-103963109D01*
X95004711Y-104050710D01*
X95004707Y-104050713D01*
X94893213Y-104162207D01*
X94893210Y-104162211D01*
X94805609Y-104293314D01*
X94805602Y-104293327D01*
X94745264Y-104438998D01*
X94745261Y-104439010D01*
X94714500Y-104593653D01*
X89583589Y-104593653D01*
X89523501Y-104568764D01*
X89523489Y-104568761D01*
X89368845Y-104538000D01*
X89368842Y-104538000D01*
X89211158Y-104538000D01*
X89211155Y-104538000D01*
X89056510Y-104568761D01*
X89056498Y-104568764D01*
X88910827Y-104629102D01*
X88910814Y-104629109D01*
X88779711Y-104716710D01*
X88779707Y-104716713D01*
X88668213Y-104828207D01*
X88668210Y-104828211D01*
X88580609Y-104959314D01*
X88580602Y-104959327D01*
X88520264Y-105104998D01*
X88520261Y-105105010D01*
X88489500Y-105259653D01*
X83681446Y-105259653D01*
X83690960Y-105236685D01*
X83703623Y-105206114D01*
X83734735Y-105131001D01*
X83734737Y-105130997D01*
X83765500Y-104976342D01*
X83765500Y-104818658D01*
X83765500Y-104818655D01*
X83765499Y-104818653D01*
X83753565Y-104758658D01*
X83734737Y-104664003D01*
X83720281Y-104629102D01*
X83674397Y-104518327D01*
X83674390Y-104518314D01*
X83586789Y-104387211D01*
X83586786Y-104387207D01*
X83475292Y-104275713D01*
X83475288Y-104275710D01*
X83344185Y-104188109D01*
X83344172Y-104188102D01*
X83198501Y-104127764D01*
X83198489Y-104127761D01*
X83043845Y-104097000D01*
X83043842Y-104097000D01*
X82886158Y-104097000D01*
X82886155Y-104097000D01*
X82731510Y-104127761D01*
X82731498Y-104127764D01*
X82585827Y-104188102D01*
X82585814Y-104188109D01*
X82454711Y-104275710D01*
X82454707Y-104275713D01*
X82343213Y-104387207D01*
X82343210Y-104387211D01*
X82255609Y-104518314D01*
X82255602Y-104518327D01*
X82195264Y-104663998D01*
X82195261Y-104664008D01*
X82180742Y-104737000D01*
X82148357Y-104798911D01*
X82120861Y-104819687D01*
X82120885Y-104819722D01*
X82120284Y-104820123D01*
X82117589Y-104822160D01*
X82115823Y-104823103D01*
X81984715Y-104910707D01*
X81984707Y-104910713D01*
X81873213Y-105022207D01*
X81873210Y-105022211D01*
X81785609Y-105153314D01*
X81785602Y-105153327D01*
X81725264Y-105298998D01*
X81725261Y-105299010D01*
X81694500Y-105453653D01*
X79507719Y-105453653D01*
X79529895Y-105400114D01*
X79529895Y-105400113D01*
X79564737Y-105315997D01*
X79595500Y-105161342D01*
X79595500Y-105003658D01*
X79595500Y-105003655D01*
X79595499Y-105003653D01*
X79578132Y-104916344D01*
X79564737Y-104849003D01*
X79554009Y-104823103D01*
X79504397Y-104703327D01*
X79504389Y-104703312D01*
X79492487Y-104685500D01*
X79471608Y-104618823D01*
X79490092Y-104551442D01*
X79526694Y-104513508D01*
X79630289Y-104444289D01*
X79741789Y-104332789D01*
X79829394Y-104201679D01*
X79889737Y-104055997D01*
X79920500Y-103901342D01*
X79920500Y-103743658D01*
X79920500Y-103743655D01*
X79920499Y-103743653D01*
X79911003Y-103695913D01*
X79889737Y-103589003D01*
X79878879Y-103562789D01*
X79829397Y-103443327D01*
X79829390Y-103443314D01*
X79741789Y-103312211D01*
X79741786Y-103312207D01*
X79666314Y-103236735D01*
X79655536Y-103216997D01*
X79640905Y-103199914D01*
X79637473Y-103183918D01*
X79632829Y-103175412D01*
X79631157Y-103165992D01*
X79629995Y-103157565D01*
X79629995Y-103106783D01*
X79607169Y-102992030D01*
X79606668Y-102988396D01*
X79611317Y-102957333D01*
X79614116Y-102926058D01*
X79616448Y-102923055D01*
X79617011Y-102919296D01*
X79637715Y-102895678D01*
X79656979Y-102870881D01*
X79660552Y-102868399D01*
X79778955Y-102789285D01*
X79890455Y-102677785D01*
X79978060Y-102546675D01*
X80038403Y-102400993D01*
X80047551Y-102355000D01*
X80079935Y-102293092D01*
X80100270Y-102276096D01*
X80185289Y-102219289D01*
X80296789Y-102107789D01*
X80384394Y-101976679D01*
X80444737Y-101830997D01*
X80475500Y-101676342D01*
X80475500Y-101518658D01*
X80475500Y-101518655D01*
X80475499Y-101518653D01*
X80469581Y-101488902D01*
X80444737Y-101364003D01*
X80444735Y-101363998D01*
X80384397Y-101218327D01*
X80384390Y-101218314D01*
X80309649Y-101106457D01*
X80309648Y-101106455D01*
X80296792Y-101087215D01*
X80296786Y-101087207D01*
X80253232Y-101043653D01*
X83639500Y-101043653D01*
X83639500Y-101201346D01*
X83670261Y-101355989D01*
X83670264Y-101356001D01*
X83730602Y-101501672D01*
X83730609Y-101501685D01*
X83818210Y-101632788D01*
X83818213Y-101632792D01*
X83929707Y-101744286D01*
X83929711Y-101744289D01*
X84060814Y-101831890D01*
X84060827Y-101831897D01*
X84143525Y-101866151D01*
X84206503Y-101892237D01*
X84361153Y-101922999D01*
X84361156Y-101923000D01*
X84361158Y-101923000D01*
X84518844Y-101923000D01*
X84518845Y-101922999D01*
X84673497Y-101892237D01*
X84786166Y-101845567D01*
X84819172Y-101831897D01*
X84819172Y-101831896D01*
X84819179Y-101831894D01*
X84950289Y-101744289D01*
X85061789Y-101632789D01*
X85121348Y-101543653D01*
X90299500Y-101543653D01*
X90299500Y-101701346D01*
X90330261Y-101855989D01*
X90330264Y-101856001D01*
X90390602Y-102001672D01*
X90390609Y-102001685D01*
X90478210Y-102132788D01*
X90478213Y-102132792D01*
X90589707Y-102244286D01*
X90589711Y-102244289D01*
X90720814Y-102331890D01*
X90720827Y-102331897D01*
X90842363Y-102382238D01*
X90866503Y-102392237D01*
X91021153Y-102422999D01*
X91021156Y-102423000D01*
X91021158Y-102423000D01*
X91178844Y-102423000D01*
X91178845Y-102422999D01*
X91333497Y-102392237D01*
X91479179Y-102331894D01*
X91486420Y-102327055D01*
X91553091Y-102306174D01*
X91610051Y-102319902D01*
X91610192Y-102319563D01*
X91612348Y-102320456D01*
X91613775Y-102320800D01*
X91615827Y-102321897D01*
X91741612Y-102373998D01*
X91761503Y-102382237D01*
X91916153Y-102412999D01*
X91916156Y-102413000D01*
X91916158Y-102413000D01*
X92073844Y-102413000D01*
X92073845Y-102412999D01*
X92228497Y-102382237D01*
X92341166Y-102335567D01*
X92374172Y-102321897D01*
X92374172Y-102321896D01*
X92374179Y-102321894D01*
X92505289Y-102234289D01*
X92616789Y-102122789D01*
X92704394Y-101991679D01*
X92706867Y-101985710D01*
X92732723Y-101923286D01*
X92764737Y-101845997D01*
X92795500Y-101691342D01*
X92795500Y-101533658D01*
X92795500Y-101533655D01*
X92795499Y-101533653D01*
X92789139Y-101501679D01*
X92764737Y-101379003D01*
X92758522Y-101363998D01*
X92717110Y-101264018D01*
X92704395Y-101233324D01*
X92704394Y-101233321D01*
X92704392Y-101233318D01*
X92704390Y-101233314D01*
X92697266Y-101222653D01*
X95789500Y-101222653D01*
X95789500Y-101380346D01*
X95820261Y-101534989D01*
X95820264Y-101535001D01*
X95880602Y-101680672D01*
X95880609Y-101680685D01*
X95968210Y-101811788D01*
X95968213Y-101811792D01*
X96079707Y-101923286D01*
X96079711Y-101923289D01*
X96210814Y-102010890D01*
X96210827Y-102010897D01*
X96297499Y-102046797D01*
X96356503Y-102071237D01*
X96511153Y-102101999D01*
X96511156Y-102102000D01*
X96674512Y-102102000D01*
X96741551Y-102121685D01*
X96787306Y-102174489D01*
X96797250Y-102243647D01*
X96768225Y-102307203D01*
X96721964Y-102340561D01*
X96715826Y-102343102D01*
X96715814Y-102343109D01*
X96584711Y-102430710D01*
X96584707Y-102430713D01*
X96473213Y-102542207D01*
X96473210Y-102542211D01*
X96385609Y-102673314D01*
X96385602Y-102673327D01*
X96325264Y-102818998D01*
X96325261Y-102819010D01*
X96294500Y-102973653D01*
X96294500Y-103131346D01*
X96325261Y-103285989D01*
X96325264Y-103286001D01*
X96385602Y-103431672D01*
X96385609Y-103431685D01*
X96473210Y-103562788D01*
X96473213Y-103562792D01*
X96584707Y-103674286D01*
X96584711Y-103674289D01*
X96715814Y-103761890D01*
X96715827Y-103761897D01*
X96826190Y-103807610D01*
X96861503Y-103822237D01*
X97016153Y-103852999D01*
X97016156Y-103853000D01*
X97016158Y-103853000D01*
X97173844Y-103853000D01*
X97173845Y-103852999D01*
X97328497Y-103822237D01*
X97441166Y-103775567D01*
X97474172Y-103761897D01*
X97474172Y-103761896D01*
X97474179Y-103761894D01*
X97605289Y-103674289D01*
X97716789Y-103562789D01*
X97804394Y-103431679D01*
X97864737Y-103285997D01*
X97895500Y-103131342D01*
X97895500Y-102973658D01*
X97895500Y-102973655D01*
X97895499Y-102973653D01*
X97879989Y-102895678D01*
X97864737Y-102819003D01*
X97864735Y-102818998D01*
X97804397Y-102673327D01*
X97804390Y-102673314D01*
X97716789Y-102542211D01*
X97716786Y-102542207D01*
X97605292Y-102430713D01*
X97605288Y-102430710D01*
X97474185Y-102343109D01*
X97474172Y-102343102D01*
X97328501Y-102282764D01*
X97328489Y-102282761D01*
X97173845Y-102252000D01*
X97173842Y-102252000D01*
X97016158Y-102252000D01*
X97010488Y-102252000D01*
X96943449Y-102232315D01*
X96897694Y-102179511D01*
X96887750Y-102110353D01*
X96916775Y-102046797D01*
X96963036Y-102013439D01*
X96969173Y-102010897D01*
X96969176Y-102010895D01*
X96969179Y-102010894D01*
X97100289Y-101923289D01*
X97211789Y-101811789D01*
X97299394Y-101680679D01*
X97301191Y-101676342D01*
X97319229Y-101632792D01*
X97359737Y-101534997D01*
X97390500Y-101380342D01*
X97390500Y-101222658D01*
X97390500Y-101222655D01*
X97390499Y-101222653D01*
X97359737Y-101068003D01*
X97327722Y-100990711D01*
X97299397Y-100922327D01*
X97299390Y-100922314D01*
X97211789Y-100791211D01*
X97211786Y-100791207D01*
X97100289Y-100679710D01*
X97082167Y-100667602D01*
X97037362Y-100613990D01*
X97028655Y-100544665D01*
X97058809Y-100481638D01*
X97118252Y-100444918D01*
X97142832Y-100441607D01*
X97142782Y-100441097D01*
X97148836Y-100440500D01*
X97148842Y-100440500D01*
X97303497Y-100409737D01*
X97441043Y-100352764D01*
X97449172Y-100349397D01*
X97449172Y-100349396D01*
X97449179Y-100349394D01*
X97580289Y-100261789D01*
X97691789Y-100150289D01*
X97779394Y-100019179D01*
X97839737Y-99873497D01*
X97870500Y-99718842D01*
X97870500Y-99561158D01*
X97870500Y-99561155D01*
X97870499Y-99561153D01*
X97869859Y-99557938D01*
X97839737Y-99406503D01*
X97809204Y-99332789D01*
X97779397Y-99260827D01*
X97779390Y-99260814D01*
X97691789Y-99129711D01*
X97691786Y-99129707D01*
X97580292Y-99018213D01*
X97580288Y-99018210D01*
X97449185Y-98930609D01*
X97449172Y-98930602D01*
X97303501Y-98870264D01*
X97303489Y-98870261D01*
X97148845Y-98839500D01*
X97148842Y-98839500D01*
X97046155Y-98839500D01*
X96979116Y-98819815D01*
X96933361Y-98767011D01*
X96923417Y-98697853D01*
X96952442Y-98634297D01*
X96998703Y-98600939D01*
X97129172Y-98546897D01*
X97129172Y-98546896D01*
X97129179Y-98546894D01*
X97260289Y-98459289D01*
X97371789Y-98347789D01*
X97459394Y-98216679D01*
X97460503Y-98214003D01*
X97486719Y-98150710D01*
X97519737Y-98070997D01*
X97550500Y-97916342D01*
X97550500Y-97758658D01*
X97550500Y-97758655D01*
X97550499Y-97758653D01*
X97550322Y-97757761D01*
X97519737Y-97604003D01*
X97518774Y-97601679D01*
X97459397Y-97458327D01*
X97459390Y-97458314D01*
X97371789Y-97327211D01*
X97371786Y-97327207D01*
X97260297Y-97215718D01*
X97260291Y-97215713D01*
X97260289Y-97215711D01*
X97260286Y-97215709D01*
X97260041Y-97215508D01*
X97259942Y-97215363D01*
X97255982Y-97211403D01*
X97256732Y-97210652D01*
X97220702Y-97157765D01*
X97218826Y-97087921D01*
X97255008Y-97028149D01*
X97314508Y-96998030D01*
X97318497Y-96997237D01*
X97464179Y-96936894D01*
X97595289Y-96849289D01*
X97706789Y-96737789D01*
X97794394Y-96606679D01*
X97796867Y-96600710D01*
X97830408Y-96519732D01*
X97854737Y-96460997D01*
X97885500Y-96306342D01*
X97885500Y-96148658D01*
X97885500Y-96148655D01*
X97885499Y-96148653D01*
X97873455Y-96088106D01*
X97854737Y-95994003D01*
X97848133Y-95978059D01*
X97794397Y-95848327D01*
X97794390Y-95848314D01*
X97706789Y-95717211D01*
X97706786Y-95717207D01*
X97595292Y-95605713D01*
X97595288Y-95605710D01*
X97464185Y-95518109D01*
X97464172Y-95518102D01*
X97318501Y-95457764D01*
X97318489Y-95457761D01*
X97163845Y-95427000D01*
X97163842Y-95427000D01*
X97006158Y-95427000D01*
X97006155Y-95427000D01*
X96851510Y-95457761D01*
X96851498Y-95457764D01*
X96705827Y-95518102D01*
X96705814Y-95518109D01*
X96574711Y-95605710D01*
X96574707Y-95605713D01*
X96463213Y-95717207D01*
X96463210Y-95717211D01*
X96375609Y-95848314D01*
X96375602Y-95848327D01*
X96315264Y-95993998D01*
X96315261Y-95994010D01*
X96284500Y-96148653D01*
X96284500Y-96306346D01*
X96315261Y-96460989D01*
X96315264Y-96461001D01*
X96375602Y-96606672D01*
X96375609Y-96606685D01*
X96463210Y-96737788D01*
X96463213Y-96737792D01*
X96574705Y-96849284D01*
X96574956Y-96849490D01*
X96575052Y-96849631D01*
X96579018Y-96853597D01*
X96578266Y-96854348D01*
X96614296Y-96907231D01*
X96616174Y-96977076D01*
X96579993Y-97036848D01*
X96520504Y-97066966D01*
X96516512Y-97067760D01*
X96516498Y-97067764D01*
X96370827Y-97128102D01*
X96370814Y-97128109D01*
X96239711Y-97215710D01*
X96239707Y-97215713D01*
X96128213Y-97327207D01*
X96128210Y-97327211D01*
X96040609Y-97458314D01*
X96040602Y-97458327D01*
X95980264Y-97603998D01*
X95980261Y-97604010D01*
X95949500Y-97758653D01*
X95949500Y-97916346D01*
X95980261Y-98070989D01*
X95980264Y-98071001D01*
X96040602Y-98216672D01*
X96040609Y-98216685D01*
X96128210Y-98347788D01*
X96128213Y-98347792D01*
X96239707Y-98459286D01*
X96239711Y-98459289D01*
X96370814Y-98546890D01*
X96370827Y-98546897D01*
X96501298Y-98600939D01*
X96516503Y-98607237D01*
X96652542Y-98634297D01*
X96671153Y-98637999D01*
X96671156Y-98638000D01*
X96773845Y-98638000D01*
X96840884Y-98657685D01*
X96886639Y-98710489D01*
X96896583Y-98779647D01*
X96867558Y-98843203D01*
X96821297Y-98876561D01*
X96690827Y-98930602D01*
X96690814Y-98930609D01*
X96559711Y-99018210D01*
X96559707Y-99018213D01*
X96448213Y-99129707D01*
X96448210Y-99129711D01*
X96360609Y-99260814D01*
X96360602Y-99260827D01*
X96300264Y-99406498D01*
X96300261Y-99406510D01*
X96269500Y-99561153D01*
X96269500Y-99718846D01*
X96300261Y-99873489D01*
X96300264Y-99873501D01*
X96360602Y-100019172D01*
X96360609Y-100019185D01*
X96448210Y-100150288D01*
X96448213Y-100150292D01*
X96559710Y-100261789D01*
X96577833Y-100273898D01*
X96622638Y-100327510D01*
X96631345Y-100396835D01*
X96601191Y-100459862D01*
X96541748Y-100496582D01*
X96517167Y-100499892D01*
X96517218Y-100500403D01*
X96511153Y-100501000D01*
X96356510Y-100531761D01*
X96356498Y-100531764D01*
X96210827Y-100592102D01*
X96210814Y-100592109D01*
X96079711Y-100679710D01*
X96079707Y-100679713D01*
X95968213Y-100791207D01*
X95968210Y-100791211D01*
X95880609Y-100922314D01*
X95880602Y-100922327D01*
X95820264Y-101067998D01*
X95820261Y-101068010D01*
X95789500Y-101222653D01*
X92697266Y-101222653D01*
X92616789Y-101102211D01*
X92616786Y-101102207D01*
X92505292Y-100990713D01*
X92505288Y-100990710D01*
X92374185Y-100903109D01*
X92374172Y-100903102D01*
X92228501Y-100842764D01*
X92228489Y-100842761D01*
X92073845Y-100812000D01*
X92073842Y-100812000D01*
X91916158Y-100812000D01*
X91916155Y-100812000D01*
X91761510Y-100842761D01*
X91761498Y-100842764D01*
X91615828Y-100903102D01*
X91615812Y-100903111D01*
X91608570Y-100907950D01*
X91541892Y-100928824D01*
X91484947Y-100915100D01*
X91484808Y-100915437D01*
X91482671Y-100914551D01*
X91481240Y-100914207D01*
X91479177Y-100913104D01*
X91333501Y-100852764D01*
X91333489Y-100852761D01*
X91178845Y-100822000D01*
X91178842Y-100822000D01*
X91021158Y-100822000D01*
X91021155Y-100822000D01*
X90866510Y-100852761D01*
X90866498Y-100852764D01*
X90720827Y-100913102D01*
X90720814Y-100913109D01*
X90589711Y-101000710D01*
X90589707Y-101000713D01*
X90478213Y-101112207D01*
X90478210Y-101112211D01*
X90390609Y-101243314D01*
X90390602Y-101243327D01*
X90330264Y-101388998D01*
X90330261Y-101389010D01*
X90299500Y-101543653D01*
X85121348Y-101543653D01*
X85149394Y-101501679D01*
X85209737Y-101355997D01*
X85240500Y-101201342D01*
X85240500Y-101043658D01*
X85240500Y-101043655D01*
X85240499Y-101043653D01*
X85231957Y-101000710D01*
X85209737Y-100889003D01*
X85209367Y-100888109D01*
X85149397Y-100743327D01*
X85149390Y-100743314D01*
X85118081Y-100696457D01*
X85076116Y-100633653D01*
X86184500Y-100633653D01*
X86184500Y-100791346D01*
X86215261Y-100945989D01*
X86215264Y-100946001D01*
X86275602Y-101091672D01*
X86275609Y-101091685D01*
X86363210Y-101222788D01*
X86363213Y-101222792D01*
X86474707Y-101334286D01*
X86474711Y-101334289D01*
X86605814Y-101421890D01*
X86605827Y-101421897D01*
X86751498Y-101482235D01*
X86751503Y-101482237D01*
X86906153Y-101512999D01*
X86906156Y-101513000D01*
X86906158Y-101513000D01*
X87063844Y-101513000D01*
X87063845Y-101512999D01*
X87218497Y-101482237D01*
X87276568Y-101458183D01*
X87361498Y-101423005D01*
X87361499Y-101423004D01*
X87364179Y-101421894D01*
X87495289Y-101334289D01*
X87606789Y-101222789D01*
X87694394Y-101091679D01*
X87754737Y-100945997D01*
X87785500Y-100791342D01*
X87785500Y-100633658D01*
X87785500Y-100633655D01*
X87785499Y-100633653D01*
X87765232Y-100531764D01*
X87754737Y-100479003D01*
X87727440Y-100413102D01*
X87694397Y-100333327D01*
X87694390Y-100333314D01*
X87606789Y-100202211D01*
X87606786Y-100202207D01*
X87495292Y-100090713D01*
X87495288Y-100090710D01*
X87364185Y-100003109D01*
X87364172Y-100003102D01*
X87218501Y-99942764D01*
X87218489Y-99942761D01*
X87063845Y-99912000D01*
X87063842Y-99912000D01*
X86906158Y-99912000D01*
X86906155Y-99912000D01*
X86751510Y-99942761D01*
X86751498Y-99942764D01*
X86605827Y-100003102D01*
X86605814Y-100003109D01*
X86474711Y-100090710D01*
X86474707Y-100090713D01*
X86363213Y-100202207D01*
X86363210Y-100202211D01*
X86275609Y-100333314D01*
X86275602Y-100333327D01*
X86215264Y-100478998D01*
X86215261Y-100479010D01*
X86184500Y-100633653D01*
X85076116Y-100633653D01*
X85061789Y-100612211D01*
X85061786Y-100612207D01*
X84950292Y-100500713D01*
X84950288Y-100500710D01*
X84819185Y-100413109D01*
X84819172Y-100413102D01*
X84673501Y-100352764D01*
X84673489Y-100352761D01*
X84518845Y-100322000D01*
X84518842Y-100322000D01*
X84361158Y-100322000D01*
X84361155Y-100322000D01*
X84206510Y-100352761D01*
X84206498Y-100352764D01*
X84060827Y-100413102D01*
X84060814Y-100413109D01*
X83929711Y-100500710D01*
X83929707Y-100500713D01*
X83818213Y-100612207D01*
X83818210Y-100612211D01*
X83730609Y-100743314D01*
X83730602Y-100743327D01*
X83670264Y-100888998D01*
X83670261Y-100889010D01*
X83639500Y-101043653D01*
X80253232Y-101043653D01*
X80185292Y-100975713D01*
X80185288Y-100975710D01*
X80054185Y-100888109D01*
X80054172Y-100888102D01*
X79908501Y-100827764D01*
X79908489Y-100827761D01*
X79753845Y-100797000D01*
X79753842Y-100797000D01*
X79596158Y-100797000D01*
X79596155Y-100797000D01*
X79441510Y-100827761D01*
X79441498Y-100827764D01*
X79295827Y-100888102D01*
X79295814Y-100888109D01*
X79164711Y-100975710D01*
X79164707Y-100975713D01*
X79053213Y-101087207D01*
X79053210Y-101087211D01*
X78965609Y-101218314D01*
X78965602Y-101218327D01*
X78905263Y-101364000D01*
X78905261Y-101364008D01*
X78896114Y-101409993D01*
X78863728Y-101471904D01*
X78843389Y-101488902D01*
X78758377Y-101545707D01*
X78758370Y-101545713D01*
X78646879Y-101657203D01*
X78646876Y-101657207D01*
X78564317Y-101780765D01*
X78510704Y-101825570D01*
X78441379Y-101834277D01*
X78437024Y-101833491D01*
X78303845Y-101807000D01*
X78303842Y-101807000D01*
X78146158Y-101807000D01*
X78146155Y-101807000D01*
X77991510Y-101837761D01*
X77991498Y-101837764D01*
X77845827Y-101898102D01*
X77845814Y-101898109D01*
X77714711Y-101985710D01*
X77714707Y-101985713D01*
X77603213Y-102097207D01*
X77603210Y-102097211D01*
X77515609Y-102228314D01*
X77515602Y-102228327D01*
X77455264Y-102373998D01*
X77455261Y-102374010D01*
X77424500Y-102528653D01*
X65615500Y-102528653D01*
X65615500Y-100946153D01*
X69299500Y-100946153D01*
X69299500Y-101103846D01*
X69330261Y-101258489D01*
X69330264Y-101258501D01*
X69390602Y-101404172D01*
X69390609Y-101404185D01*
X69478210Y-101535288D01*
X69478213Y-101535292D01*
X69589707Y-101646786D01*
X69589711Y-101646789D01*
X69720814Y-101734390D01*
X69720827Y-101734397D01*
X69866498Y-101794735D01*
X69866503Y-101794737D01*
X70021153Y-101825499D01*
X70021156Y-101825500D01*
X70021158Y-101825500D01*
X70178844Y-101825500D01*
X70178845Y-101825499D01*
X70333497Y-101794737D01*
X70479179Y-101734394D01*
X70610289Y-101646789D01*
X70721789Y-101535289D01*
X70809394Y-101404179D01*
X70869737Y-101258497D01*
X70900500Y-101103842D01*
X70900500Y-100946158D01*
X70900500Y-100946155D01*
X70900499Y-100946153D01*
X70894213Y-100914551D01*
X70869737Y-100791503D01*
X70830368Y-100696457D01*
X70809397Y-100645827D01*
X70809390Y-100645814D01*
X70721789Y-100514711D01*
X70721786Y-100514707D01*
X70610292Y-100403213D01*
X70610288Y-100403210D01*
X70479185Y-100315609D01*
X70479172Y-100315602D01*
X70333501Y-100255264D01*
X70333489Y-100255261D01*
X70178845Y-100224500D01*
X70178842Y-100224500D01*
X70021158Y-100224500D01*
X69955051Y-100237649D01*
X69955045Y-100237650D01*
X69866510Y-100255261D01*
X69866498Y-100255264D01*
X69720827Y-100315602D01*
X69720814Y-100315609D01*
X69589711Y-100403210D01*
X69589707Y-100403213D01*
X69478213Y-100514707D01*
X69478210Y-100514711D01*
X69390609Y-100645814D01*
X69390602Y-100645827D01*
X69330264Y-100791498D01*
X69330261Y-100791510D01*
X69299500Y-100946153D01*
X65615500Y-100946153D01*
X65615500Y-99111153D01*
X69177000Y-99111153D01*
X69177000Y-99268846D01*
X69207761Y-99423489D01*
X69207764Y-99423501D01*
X69268102Y-99569172D01*
X69268109Y-99569185D01*
X69355710Y-99700288D01*
X69355713Y-99700292D01*
X69467207Y-99811786D01*
X69467211Y-99811789D01*
X69598314Y-99899390D01*
X69598327Y-99899397D01*
X69703026Y-99942764D01*
X69744003Y-99959737D01*
X69887704Y-99988321D01*
X69898653Y-99990499D01*
X69898656Y-99990500D01*
X69898658Y-99990500D01*
X69934241Y-99990500D01*
X70056342Y-99990500D01*
X70210997Y-99959737D01*
X70356679Y-99899394D01*
X70487789Y-99811789D01*
X70599289Y-99700289D01*
X70686894Y-99569179D01*
X70690219Y-99561153D01*
X70723047Y-99481897D01*
X70747237Y-99423497D01*
X70778000Y-99268842D01*
X70778000Y-99111158D01*
X70778000Y-99111155D01*
X70777999Y-99111153D01*
X71452000Y-99111153D01*
X71452000Y-99268846D01*
X71482761Y-99423489D01*
X71482764Y-99423501D01*
X71543102Y-99569172D01*
X71543109Y-99569185D01*
X71630710Y-99700288D01*
X71630713Y-99700292D01*
X71742207Y-99811786D01*
X71742211Y-99811789D01*
X71873314Y-99899390D01*
X71873327Y-99899397D01*
X71978026Y-99942764D01*
X72019003Y-99959737D01*
X72162704Y-99988321D01*
X72224615Y-100020705D01*
X72259189Y-100081421D01*
X72255450Y-100151191D01*
X72214584Y-100207863D01*
X72162708Y-100231555D01*
X72131504Y-100237762D01*
X72131498Y-100237764D01*
X71985827Y-100298102D01*
X71985814Y-100298109D01*
X71854711Y-100385710D01*
X71854707Y-100385713D01*
X71743213Y-100497207D01*
X71743210Y-100497211D01*
X71655609Y-100628314D01*
X71655602Y-100628327D01*
X71595264Y-100773998D01*
X71595261Y-100774010D01*
X71564500Y-100928653D01*
X71564500Y-101086346D01*
X71595261Y-101240989D01*
X71595264Y-101241001D01*
X71655602Y-101386672D01*
X71655609Y-101386685D01*
X71743210Y-101517788D01*
X71743213Y-101517792D01*
X71854707Y-101629286D01*
X71854711Y-101629289D01*
X71985814Y-101716890D01*
X71985827Y-101716897D01*
X72131498Y-101777235D01*
X72131503Y-101777237D01*
X72281131Y-101807000D01*
X72286153Y-101807999D01*
X72286156Y-101808000D01*
X72286158Y-101808000D01*
X72443844Y-101808000D01*
X72443845Y-101807999D01*
X72598497Y-101777237D01*
X72744179Y-101716894D01*
X72875289Y-101629289D01*
X72986789Y-101517789D01*
X73074394Y-101386679D01*
X73077574Y-101379003D01*
X73125201Y-101264018D01*
X73134737Y-101240997D01*
X73165500Y-101086342D01*
X73165500Y-100928658D01*
X73165500Y-100928655D01*
X73165499Y-100928653D01*
X73160417Y-100903106D01*
X73134737Y-100774003D01*
X73095681Y-100679713D01*
X73074397Y-100628327D01*
X73074390Y-100628314D01*
X72986789Y-100497211D01*
X72986786Y-100497207D01*
X72875292Y-100385713D01*
X72875288Y-100385710D01*
X72744185Y-100298109D01*
X72744172Y-100298102D01*
X72598501Y-100237764D01*
X72598491Y-100237761D01*
X72454794Y-100209178D01*
X72392884Y-100176793D01*
X72358309Y-100116077D01*
X72362049Y-100046308D01*
X72402916Y-99989636D01*
X72454795Y-99965944D01*
X72468999Y-99963118D01*
X72485997Y-99959737D01*
X72631679Y-99899394D01*
X72762789Y-99811789D01*
X72874289Y-99700289D01*
X72961894Y-99569179D01*
X72965219Y-99561153D01*
X72981480Y-99521894D01*
X73005604Y-99463653D01*
X82664500Y-99463653D01*
X82664500Y-99621346D01*
X82695261Y-99775989D01*
X82695264Y-99776001D01*
X82755602Y-99921672D01*
X82755609Y-99921685D01*
X82843210Y-100052788D01*
X82843213Y-100052792D01*
X82954707Y-100164286D01*
X82954711Y-100164289D01*
X83085814Y-100251890D01*
X83085827Y-100251897D01*
X83231498Y-100312235D01*
X83231503Y-100312237D01*
X83386153Y-100342999D01*
X83386156Y-100343000D01*
X83386158Y-100343000D01*
X83543844Y-100343000D01*
X83543845Y-100342999D01*
X83698497Y-100312237D01*
X83836043Y-100255264D01*
X83844172Y-100251897D01*
X83844172Y-100251896D01*
X83844179Y-100251894D01*
X83975289Y-100164289D01*
X84086789Y-100052789D01*
X84174394Y-99921679D01*
X84234737Y-99775997D01*
X84265500Y-99621342D01*
X84265797Y-99619849D01*
X84298182Y-99557938D01*
X84328973Y-99534675D01*
X84334168Y-99531898D01*
X84334179Y-99531894D01*
X84465289Y-99444289D01*
X84576789Y-99332789D01*
X84664394Y-99201679D01*
X84724737Y-99055997D01*
X84755500Y-98901342D01*
X84755500Y-98862337D01*
X84775185Y-98795298D01*
X84827989Y-98749543D01*
X84831986Y-98747802D01*
X84834179Y-98746894D01*
X84913860Y-98693653D01*
X86249500Y-98693653D01*
X86249500Y-98851346D01*
X86280261Y-99005989D01*
X86280264Y-99006001D01*
X86340602Y-99151672D01*
X86340609Y-99151685D01*
X86428210Y-99282788D01*
X86428213Y-99282792D01*
X86539707Y-99394286D01*
X86539711Y-99394289D01*
X86670814Y-99481890D01*
X86670827Y-99481897D01*
X86816498Y-99542235D01*
X86816503Y-99542237D01*
X86951949Y-99569179D01*
X86971153Y-99572999D01*
X86971156Y-99573000D01*
X86971158Y-99573000D01*
X87128844Y-99573000D01*
X87128845Y-99572999D01*
X87283497Y-99542237D01*
X87429179Y-99481894D01*
X87433673Y-99478890D01*
X87500346Y-99458010D01*
X87567727Y-99476490D01*
X87571459Y-99478888D01*
X87635821Y-99521894D01*
X87635823Y-99521895D01*
X87635827Y-99521897D01*
X87781498Y-99582235D01*
X87781503Y-99582237D01*
X87936153Y-99612999D01*
X87936156Y-99613000D01*
X87936158Y-99613000D01*
X88093844Y-99613000D01*
X88093845Y-99612999D01*
X88248497Y-99582237D01*
X88293363Y-99563653D01*
X90574500Y-99563653D01*
X90574500Y-99721346D01*
X90605261Y-99875989D01*
X90605264Y-99876001D01*
X90665602Y-100021672D01*
X90665609Y-100021685D01*
X90753210Y-100152788D01*
X90753213Y-100152792D01*
X90864707Y-100264286D01*
X90864711Y-100264289D01*
X90995814Y-100351890D01*
X90995827Y-100351897D01*
X91135467Y-100409737D01*
X91141503Y-100412237D01*
X91283585Y-100440499D01*
X91296153Y-100442999D01*
X91296156Y-100443000D01*
X91296158Y-100443000D01*
X91453844Y-100443000D01*
X91453845Y-100442999D01*
X91608497Y-100412237D01*
X91754179Y-100351894D01*
X91885289Y-100264289D01*
X91996789Y-100152789D01*
X92084394Y-100021679D01*
X92084798Y-100020705D01*
X92117083Y-99942761D01*
X92144737Y-99875997D01*
X92175500Y-99721342D01*
X92175500Y-99563658D01*
X92175500Y-99563655D01*
X92175499Y-99563653D01*
X92167193Y-99521897D01*
X92144737Y-99409003D01*
X92143704Y-99406510D01*
X92084397Y-99263327D01*
X92084390Y-99263314D01*
X91996789Y-99132211D01*
X91996786Y-99132207D01*
X91885292Y-99020713D01*
X91885288Y-99020710D01*
X91754185Y-98933109D01*
X91754172Y-98933102D01*
X91608501Y-98872764D01*
X91608489Y-98872761D01*
X91453845Y-98842000D01*
X91453842Y-98842000D01*
X91296158Y-98842000D01*
X91296155Y-98842000D01*
X91141510Y-98872761D01*
X91141498Y-98872764D01*
X90995827Y-98933102D01*
X90995814Y-98933109D01*
X90864711Y-99020710D01*
X90864707Y-99020713D01*
X90753213Y-99132207D01*
X90753210Y-99132211D01*
X90665609Y-99263314D01*
X90665602Y-99263327D01*
X90605264Y-99408998D01*
X90605261Y-99409010D01*
X90574500Y-99563653D01*
X88293363Y-99563653D01*
X88394179Y-99521894D01*
X88454039Y-99481897D01*
X88495096Y-99454464D01*
X88510323Y-99444289D01*
X88525289Y-99434289D01*
X88636789Y-99322789D01*
X88724394Y-99191679D01*
X88784737Y-99045997D01*
X88815500Y-98891342D01*
X88815500Y-98733658D01*
X88815500Y-98733655D01*
X88815499Y-98733653D01*
X88796472Y-98637999D01*
X88784737Y-98579003D01*
X88780267Y-98568211D01*
X88724397Y-98433327D01*
X88724390Y-98433314D01*
X88636789Y-98302211D01*
X88636786Y-98302207D01*
X88525292Y-98190713D01*
X88525288Y-98190710D01*
X88394185Y-98103109D01*
X88394172Y-98103102D01*
X88248501Y-98042764D01*
X88248489Y-98042761D01*
X88093845Y-98012000D01*
X88093842Y-98012000D01*
X87936158Y-98012000D01*
X87936155Y-98012000D01*
X87781510Y-98042761D01*
X87781498Y-98042764D01*
X87635828Y-98103102D01*
X87635816Y-98103109D01*
X87631319Y-98106114D01*
X87564641Y-98126989D01*
X87497262Y-98108502D01*
X87493541Y-98106111D01*
X87429185Y-98063109D01*
X87429172Y-98063102D01*
X87283501Y-98002764D01*
X87283489Y-98002761D01*
X87128845Y-97972000D01*
X87128842Y-97972000D01*
X86971158Y-97972000D01*
X86971155Y-97972000D01*
X86816510Y-98002761D01*
X86816498Y-98002764D01*
X86670827Y-98063102D01*
X86670814Y-98063109D01*
X86539711Y-98150710D01*
X86539707Y-98150713D01*
X86428213Y-98262207D01*
X86428210Y-98262211D01*
X86340609Y-98393314D01*
X86340602Y-98393327D01*
X86280264Y-98538998D01*
X86280261Y-98539010D01*
X86249500Y-98693653D01*
X84913860Y-98693653D01*
X84965289Y-98659289D01*
X84990281Y-98634297D01*
X85024694Y-98599885D01*
X85076786Y-98547792D01*
X85076789Y-98547789D01*
X85164394Y-98416679D01*
X85167719Y-98408653D01*
X85215205Y-98294010D01*
X85224737Y-98270997D01*
X85240707Y-98190710D01*
X85249027Y-98148886D01*
X85281412Y-98086975D01*
X85304101Y-98068444D01*
X85313212Y-98062649D01*
X85339179Y-98051894D01*
X85470289Y-97964289D01*
X85474503Y-97960074D01*
X85484912Y-97953455D01*
X85511558Y-97945768D01*
X85537081Y-97934924D01*
X85545223Y-97936056D01*
X85552045Y-97934089D01*
X85570315Y-97939548D01*
X85598904Y-97943526D01*
X85716503Y-97992237D01*
X85802772Y-98009397D01*
X85871153Y-98022999D01*
X85871156Y-98023000D01*
X85871158Y-98023000D01*
X86028844Y-98023000D01*
X86028845Y-98022999D01*
X86183497Y-97992237D01*
X86301094Y-97943527D01*
X86329172Y-97931897D01*
X86329172Y-97931896D01*
X86329179Y-97931894D01*
X86460289Y-97844289D01*
X86571789Y-97732789D01*
X86659394Y-97601679D01*
X86719737Y-97455997D01*
X86750500Y-97301342D01*
X86750500Y-97221153D01*
X90749500Y-97221153D01*
X90749500Y-97378846D01*
X90780261Y-97533489D01*
X90780264Y-97533501D01*
X90840602Y-97679172D01*
X90840609Y-97679185D01*
X90928210Y-97810288D01*
X90928213Y-97810292D01*
X91039707Y-97921786D01*
X91039711Y-97921789D01*
X91170814Y-98009390D01*
X91170827Y-98009397D01*
X91313084Y-98068321D01*
X91316503Y-98069737D01*
X91471153Y-98100499D01*
X91471156Y-98100500D01*
X91471158Y-98100500D01*
X91628844Y-98100500D01*
X91628845Y-98100499D01*
X91783497Y-98069737D01*
X91929179Y-98009394D01*
X92060289Y-97921789D01*
X92171789Y-97810289D01*
X92259394Y-97679179D01*
X92319737Y-97533497D01*
X92350500Y-97378842D01*
X92350500Y-97221158D01*
X92350500Y-97221155D01*
X92350499Y-97221153D01*
X92349417Y-97215713D01*
X92319737Y-97066503D01*
X92305027Y-97030989D01*
X92259397Y-96920827D01*
X92259390Y-96920814D01*
X92171789Y-96789711D01*
X92171786Y-96789707D01*
X92060292Y-96678213D01*
X92060288Y-96678210D01*
X91929185Y-96590609D01*
X91929172Y-96590602D01*
X91783501Y-96530264D01*
X91783489Y-96530261D01*
X91628845Y-96499500D01*
X91628842Y-96499500D01*
X91471158Y-96499500D01*
X91471155Y-96499500D01*
X91316510Y-96530261D01*
X91316498Y-96530264D01*
X91170827Y-96590602D01*
X91170814Y-96590609D01*
X91039711Y-96678210D01*
X91039707Y-96678213D01*
X90928213Y-96789707D01*
X90928210Y-96789711D01*
X90840609Y-96920814D01*
X90840602Y-96920827D01*
X90780264Y-97066498D01*
X90780261Y-97066510D01*
X90749500Y-97221153D01*
X86750500Y-97221153D01*
X86750500Y-97143658D01*
X86750500Y-97143655D01*
X86750499Y-97143653D01*
X86738890Y-97085292D01*
X86719737Y-96989003D01*
X86691498Y-96920827D01*
X86659397Y-96843327D01*
X86659390Y-96843314D01*
X86571789Y-96712211D01*
X86571786Y-96712207D01*
X86460292Y-96600713D01*
X86460288Y-96600710D01*
X86329185Y-96513109D01*
X86323809Y-96510236D01*
X86324770Y-96508437D01*
X86277627Y-96470428D01*
X86255578Y-96404128D01*
X86255500Y-96399732D01*
X86255500Y-96368655D01*
X86255499Y-96368653D01*
X86250098Y-96341503D01*
X86224737Y-96214003D01*
X86211209Y-96181344D01*
X86164397Y-96068327D01*
X86164390Y-96068314D01*
X86076789Y-95937211D01*
X86076786Y-95937207D01*
X85965292Y-95825713D01*
X85965288Y-95825710D01*
X85834185Y-95738109D01*
X85834172Y-95738102D01*
X85688501Y-95677764D01*
X85688489Y-95677761D01*
X85533845Y-95647000D01*
X85533842Y-95647000D01*
X85376158Y-95647000D01*
X85376155Y-95647000D01*
X85221510Y-95677761D01*
X85221498Y-95677764D01*
X85075827Y-95738102D01*
X85075814Y-95738109D01*
X84944711Y-95825710D01*
X84944707Y-95825713D01*
X84833213Y-95937207D01*
X84833210Y-95937211D01*
X84745609Y-96068314D01*
X84745602Y-96068327D01*
X84685264Y-96213998D01*
X84685261Y-96214010D01*
X84654500Y-96368653D01*
X84654500Y-96519732D01*
X84634815Y-96586771D01*
X84585704Y-96629325D01*
X84586191Y-96630236D01*
X84582179Y-96632380D01*
X84582011Y-96632526D01*
X84581445Y-96632772D01*
X84580814Y-96633109D01*
X84449711Y-96720710D01*
X84449707Y-96720713D01*
X84338213Y-96832207D01*
X84338210Y-96832211D01*
X84250609Y-96963314D01*
X84250602Y-96963327D01*
X84190264Y-97108998D01*
X84190261Y-97109008D01*
X84165972Y-97231114D01*
X84133586Y-97293025D01*
X84091811Y-97321482D01*
X84075823Y-97328104D01*
X84075814Y-97328109D01*
X83944711Y-97415710D01*
X83944707Y-97415713D01*
X83833213Y-97527207D01*
X83833210Y-97527211D01*
X83745609Y-97658314D01*
X83745602Y-97658327D01*
X83685264Y-97803998D01*
X83685261Y-97804010D01*
X83654500Y-97958653D01*
X83654500Y-97997661D01*
X83634815Y-98064700D01*
X83582011Y-98110455D01*
X83577962Y-98112218D01*
X83575830Y-98113101D01*
X83575814Y-98113109D01*
X83444711Y-98200710D01*
X83444707Y-98200713D01*
X83333213Y-98312207D01*
X83333210Y-98312211D01*
X83245609Y-98443314D01*
X83245602Y-98443327D01*
X83185264Y-98588998D01*
X83185261Y-98589008D01*
X83154202Y-98745150D01*
X83121817Y-98807061D01*
X83091042Y-98830314D01*
X83085823Y-98833103D01*
X82954711Y-98920710D01*
X82954707Y-98920713D01*
X82843213Y-99032207D01*
X82843210Y-99032211D01*
X82755609Y-99163314D01*
X82755602Y-99163327D01*
X82695264Y-99308998D01*
X82695261Y-99309010D01*
X82664500Y-99463653D01*
X73005604Y-99463653D01*
X73022237Y-99423497D01*
X73053000Y-99268842D01*
X73053000Y-99222237D01*
X73054508Y-99212658D01*
X73065465Y-99189487D01*
X73072685Y-99164902D01*
X73080153Y-99158430D01*
X73084379Y-99149495D01*
X73106125Y-99135925D01*
X73125489Y-99119147D01*
X73135268Y-99117740D01*
X73143655Y-99112508D01*
X73169283Y-99112849D01*
X73194647Y-99109203D01*
X73203636Y-99113308D01*
X73213519Y-99113440D01*
X73234891Y-99127582D01*
X73258203Y-99138228D01*
X73264681Y-99144260D01*
X73269707Y-99149286D01*
X73269711Y-99149289D01*
X73400814Y-99236890D01*
X73400827Y-99236897D01*
X73536271Y-99292999D01*
X73546503Y-99297237D01*
X73674956Y-99322788D01*
X73701153Y-99327999D01*
X73701156Y-99328000D01*
X73701158Y-99328000D01*
X73858844Y-99328000D01*
X73858845Y-99327999D01*
X74013497Y-99297237D01*
X74159179Y-99236894D01*
X74290289Y-99149289D01*
X74401789Y-99037789D01*
X74489394Y-98906679D01*
X74549737Y-98760997D01*
X74580500Y-98606342D01*
X74580500Y-98448658D01*
X74579438Y-98443321D01*
X74576144Y-98426759D01*
X74576144Y-98426757D01*
X74572543Y-98408653D01*
X75199500Y-98408653D01*
X75199500Y-98566346D01*
X75230261Y-98720989D01*
X75230264Y-98721001D01*
X75290602Y-98866672D01*
X75290609Y-98866685D01*
X75378210Y-98997788D01*
X75378213Y-98997792D01*
X75489707Y-99109286D01*
X75489711Y-99109289D01*
X75620814Y-99196890D01*
X75620827Y-99196897D01*
X75766498Y-99257235D01*
X75766503Y-99257237D01*
X75894956Y-99282788D01*
X75921153Y-99287999D01*
X75921156Y-99288000D01*
X75921158Y-99288000D01*
X76078844Y-99288000D01*
X76078845Y-99287999D01*
X76233497Y-99257237D01*
X76379179Y-99196894D01*
X76417332Y-99171400D01*
X76484006Y-99150521D01*
X76551387Y-99169004D01*
X76555106Y-99171394D01*
X76570821Y-99181894D01*
X76570823Y-99181894D01*
X76570827Y-99181897D01*
X76703611Y-99236897D01*
X76716503Y-99242237D01*
X76850265Y-99268844D01*
X76871153Y-99272999D01*
X76871156Y-99273000D01*
X76871158Y-99273000D01*
X77028844Y-99273000D01*
X77028845Y-99272999D01*
X77183497Y-99242237D01*
X77280887Y-99201897D01*
X77324559Y-99183808D01*
X77394028Y-99176339D01*
X77440902Y-99195267D01*
X77450814Y-99201890D01*
X77450827Y-99201897D01*
X77593084Y-99260821D01*
X77596503Y-99262237D01*
X77751153Y-99292999D01*
X77751156Y-99293000D01*
X77751158Y-99293000D01*
X77908844Y-99293000D01*
X77908845Y-99292999D01*
X78063497Y-99262237D01*
X78209179Y-99201894D01*
X78340289Y-99114289D01*
X78340297Y-99114280D01*
X78341789Y-99113057D01*
X78342734Y-99112655D01*
X78345354Y-99110905D01*
X78345685Y-99111401D01*
X78406096Y-99085738D01*
X78474965Y-99097523D01*
X78489354Y-99105801D01*
X78565814Y-99156890D01*
X78565827Y-99156897D01*
X78700448Y-99212658D01*
X78711503Y-99217237D01*
X78837176Y-99242235D01*
X78866153Y-99247999D01*
X78866156Y-99248000D01*
X78866158Y-99248000D01*
X79023844Y-99248000D01*
X79023845Y-99247999D01*
X79178497Y-99217237D01*
X79324179Y-99156894D01*
X79455289Y-99069289D01*
X79566789Y-98957789D01*
X79654394Y-98826679D01*
X79660966Y-98810814D01*
X79679109Y-98767011D01*
X79714737Y-98680997D01*
X79745500Y-98526342D01*
X79745500Y-98368658D01*
X79745500Y-98368655D01*
X79745499Y-98368653D01*
X79730649Y-98293998D01*
X79714737Y-98214003D01*
X79688521Y-98150711D01*
X79654397Y-98068327D01*
X79654390Y-98068314D01*
X79566789Y-97937211D01*
X79566786Y-97937207D01*
X79455292Y-97825713D01*
X79455288Y-97825710D01*
X79324185Y-97738109D01*
X79324172Y-97738102D01*
X79178501Y-97677764D01*
X79178489Y-97677761D01*
X79023845Y-97647000D01*
X79023842Y-97647000D01*
X78866158Y-97647000D01*
X78866155Y-97647000D01*
X78711510Y-97677761D01*
X78711498Y-97677764D01*
X78565827Y-97738102D01*
X78565814Y-97738109D01*
X78434702Y-97825716D01*
X78433193Y-97826955D01*
X78432248Y-97827356D01*
X78429646Y-97829095D01*
X78429316Y-97828601D01*
X78368881Y-97854263D01*
X78300015Y-97842467D01*
X78285646Y-97834198D01*
X78209190Y-97783112D01*
X78209172Y-97783102D01*
X78063501Y-97722764D01*
X78063489Y-97722761D01*
X77908845Y-97692000D01*
X77908842Y-97692000D01*
X77751158Y-97692000D01*
X77751155Y-97692000D01*
X77596510Y-97722761D01*
X77596498Y-97722764D01*
X77455440Y-97781192D01*
X77385971Y-97788661D01*
X77339097Y-97769733D01*
X77329184Y-97763109D01*
X77329181Y-97763107D01*
X77329179Y-97763106D01*
X77329176Y-97763104D01*
X77329171Y-97763102D01*
X77183501Y-97702764D01*
X77183489Y-97702761D01*
X77028845Y-97672000D01*
X77028842Y-97672000D01*
X76871158Y-97672000D01*
X76871155Y-97672000D01*
X76716510Y-97702761D01*
X76716498Y-97702764D01*
X76570828Y-97763102D01*
X76570814Y-97763110D01*
X76532663Y-97788601D01*
X76465986Y-97809477D01*
X76398606Y-97790991D01*
X76394887Y-97788601D01*
X76379185Y-97778110D01*
X76379184Y-97778109D01*
X76379179Y-97778106D01*
X76379175Y-97778104D01*
X76379171Y-97778102D01*
X76233501Y-97717764D01*
X76233489Y-97717761D01*
X76078845Y-97687000D01*
X76078842Y-97687000D01*
X75921158Y-97687000D01*
X75921155Y-97687000D01*
X75766510Y-97717761D01*
X75766498Y-97717764D01*
X75620827Y-97778102D01*
X75620814Y-97778109D01*
X75489711Y-97865710D01*
X75489707Y-97865713D01*
X75378213Y-97977207D01*
X75378210Y-97977211D01*
X75290609Y-98108314D01*
X75290602Y-98108327D01*
X75230264Y-98253998D01*
X75230261Y-98254010D01*
X75199500Y-98408653D01*
X74572543Y-98408653D01*
X74553358Y-98312207D01*
X74549737Y-98294003D01*
X74540208Y-98270997D01*
X74489397Y-98148327D01*
X74489390Y-98148314D01*
X74401789Y-98017211D01*
X74401786Y-98017207D01*
X74290292Y-97905713D01*
X74290288Y-97905710D01*
X74159185Y-97818109D01*
X74159172Y-97818102D01*
X74013501Y-97757764D01*
X74013489Y-97757761D01*
X73858845Y-97727000D01*
X73858842Y-97727000D01*
X73701158Y-97727000D01*
X73701155Y-97727000D01*
X73546510Y-97757761D01*
X73546498Y-97757764D01*
X73400827Y-97818102D01*
X73400814Y-97818109D01*
X73269711Y-97905710D01*
X73269707Y-97905713D01*
X73158213Y-98017207D01*
X73158210Y-98017211D01*
X73070609Y-98148314D01*
X73070602Y-98148327D01*
X73010264Y-98293998D01*
X73010261Y-98294010D01*
X72979500Y-98448653D01*
X72979500Y-98485559D01*
X72959815Y-98552598D01*
X72907011Y-98598353D01*
X72837853Y-98608297D01*
X72774297Y-98579272D01*
X72767819Y-98573240D01*
X72762792Y-98568213D01*
X72762788Y-98568210D01*
X72631685Y-98480609D01*
X72631672Y-98480602D01*
X72486001Y-98420264D01*
X72485989Y-98420261D01*
X72331345Y-98389500D01*
X72331342Y-98389500D01*
X72173658Y-98389500D01*
X72173655Y-98389500D01*
X72019010Y-98420261D01*
X72018998Y-98420264D01*
X71873327Y-98480602D01*
X71873314Y-98480609D01*
X71742211Y-98568210D01*
X71742207Y-98568213D01*
X71630713Y-98679707D01*
X71630710Y-98679711D01*
X71543109Y-98810814D01*
X71543102Y-98810827D01*
X71482764Y-98956498D01*
X71482761Y-98956510D01*
X71452000Y-99111153D01*
X70777999Y-99111153D01*
X70769671Y-99069286D01*
X70747237Y-98956503D01*
X70737544Y-98933102D01*
X70686897Y-98810827D01*
X70686890Y-98810814D01*
X70599289Y-98679711D01*
X70599286Y-98679707D01*
X70487792Y-98568213D01*
X70487788Y-98568210D01*
X70356685Y-98480609D01*
X70356672Y-98480602D01*
X70211001Y-98420264D01*
X70210989Y-98420261D01*
X70056345Y-98389500D01*
X70056342Y-98389500D01*
X69898658Y-98389500D01*
X69898655Y-98389500D01*
X69744010Y-98420261D01*
X69743998Y-98420264D01*
X69598327Y-98480602D01*
X69598314Y-98480609D01*
X69467211Y-98568210D01*
X69467207Y-98568213D01*
X69355713Y-98679707D01*
X69355710Y-98679711D01*
X69268109Y-98810814D01*
X69268102Y-98810827D01*
X69207764Y-98956498D01*
X69207761Y-98956510D01*
X69177000Y-99111153D01*
X65615500Y-99111153D01*
X65615500Y-97171941D01*
X65635185Y-97104902D01*
X65687989Y-97059147D01*
X65757147Y-97049203D01*
X65820703Y-97078228D01*
X65827181Y-97084260D01*
X65939707Y-97196786D01*
X65939711Y-97196789D01*
X66070814Y-97284390D01*
X66070827Y-97284397D01*
X66176359Y-97328109D01*
X66216503Y-97344737D01*
X66371153Y-97375499D01*
X66371156Y-97375500D01*
X66371158Y-97375500D01*
X66528844Y-97375500D01*
X66528845Y-97375499D01*
X66683497Y-97344737D01*
X66829179Y-97284394D01*
X66960289Y-97196789D01*
X67071789Y-97085289D01*
X67159394Y-96954179D01*
X67219737Y-96808497D01*
X67236488Y-96724286D01*
X67237609Y-96718653D01*
X70309500Y-96718653D01*
X70309500Y-96876346D01*
X70340261Y-97030989D01*
X70340264Y-97031001D01*
X70400602Y-97176672D01*
X70400609Y-97176685D01*
X70488210Y-97307788D01*
X70488213Y-97307792D01*
X70599707Y-97419286D01*
X70599711Y-97419289D01*
X70730814Y-97506890D01*
X70730827Y-97506897D01*
X70795056Y-97533501D01*
X70876503Y-97567237D01*
X71031153Y-97597999D01*
X71031156Y-97598000D01*
X71031158Y-97598000D01*
X71188844Y-97598000D01*
X71188845Y-97597999D01*
X71343497Y-97567237D01*
X71489179Y-97506894D01*
X71620289Y-97419289D01*
X71731789Y-97307789D01*
X71819394Y-97176679D01*
X71879737Y-97030997D01*
X71910500Y-96876342D01*
X71910500Y-96718658D01*
X71910500Y-96718655D01*
X71910499Y-96718653D01*
X71902455Y-96678213D01*
X71879737Y-96564003D01*
X71879735Y-96563998D01*
X71819397Y-96418327D01*
X71819390Y-96418314D01*
X71731789Y-96287211D01*
X71731786Y-96287207D01*
X71620292Y-96175713D01*
X71620288Y-96175710D01*
X71537912Y-96120668D01*
X71489185Y-96088109D01*
X71489172Y-96088102D01*
X71343501Y-96027764D01*
X71343489Y-96027761D01*
X71322837Y-96023653D01*
X80661185Y-96023653D01*
X80661185Y-96181346D01*
X80691946Y-96335989D01*
X80691949Y-96336001D01*
X80752287Y-96481672D01*
X80752294Y-96481685D01*
X80839895Y-96612788D01*
X80839898Y-96612792D01*
X80951392Y-96724286D01*
X80951396Y-96724289D01*
X81082499Y-96811890D01*
X81082512Y-96811897D01*
X81228183Y-96872235D01*
X81228188Y-96872237D01*
X81382838Y-96902999D01*
X81382841Y-96903000D01*
X81382843Y-96903000D01*
X81540529Y-96903000D01*
X81540530Y-96902999D01*
X81695182Y-96872237D01*
X81840864Y-96811894D01*
X81971974Y-96724289D01*
X82083474Y-96612789D01*
X82171079Y-96481679D01*
X82231422Y-96335997D01*
X82262185Y-96181342D01*
X82262185Y-96023658D01*
X82262185Y-96023655D01*
X82262184Y-96023653D01*
X82253115Y-95978059D01*
X82231422Y-95869003D01*
X82222855Y-95848321D01*
X82171082Y-95723327D01*
X82171075Y-95723314D01*
X82083474Y-95592211D01*
X82083471Y-95592207D01*
X81971977Y-95480713D01*
X81971973Y-95480710D01*
X81840870Y-95393109D01*
X81840857Y-95393102D01*
X81695186Y-95332764D01*
X81695174Y-95332761D01*
X81540530Y-95302000D01*
X81540527Y-95302000D01*
X81382843Y-95302000D01*
X81382840Y-95302000D01*
X81228195Y-95332761D01*
X81228183Y-95332764D01*
X81082512Y-95393102D01*
X81082499Y-95393109D01*
X80951396Y-95480710D01*
X80951392Y-95480713D01*
X80839898Y-95592207D01*
X80839895Y-95592211D01*
X80752294Y-95723314D01*
X80752287Y-95723327D01*
X80691949Y-95868998D01*
X80691946Y-95869010D01*
X80661185Y-96023653D01*
X71322837Y-96023653D01*
X71188845Y-95997000D01*
X71188842Y-95997000D01*
X71031158Y-95997000D01*
X71031155Y-95997000D01*
X70876510Y-96027761D01*
X70876498Y-96027764D01*
X70730827Y-96088102D01*
X70730814Y-96088109D01*
X70599711Y-96175710D01*
X70599707Y-96175713D01*
X70488213Y-96287207D01*
X70488210Y-96287211D01*
X70400609Y-96418314D01*
X70400602Y-96418327D01*
X70340264Y-96563998D01*
X70340261Y-96564010D01*
X70309500Y-96718653D01*
X67237609Y-96718653D01*
X67243627Y-96688397D01*
X67243631Y-96688376D01*
X67250500Y-96653841D01*
X67250500Y-96496155D01*
X67250499Y-96496153D01*
X67247620Y-96481679D01*
X67219737Y-96341503D01*
X67197247Y-96287207D01*
X67159397Y-96195827D01*
X67159390Y-96195814D01*
X67071789Y-96064711D01*
X67071786Y-96064707D01*
X66960292Y-95953213D01*
X66960288Y-95953210D01*
X66829185Y-95865609D01*
X66829172Y-95865602D01*
X66683501Y-95805264D01*
X66683489Y-95805261D01*
X66528845Y-95774500D01*
X66528842Y-95774500D01*
X66371158Y-95774500D01*
X66371155Y-95774500D01*
X66216510Y-95805261D01*
X66216498Y-95805264D01*
X66070827Y-95865602D01*
X66070814Y-95865609D01*
X65939711Y-95953210D01*
X65939707Y-95953213D01*
X65827181Y-96065740D01*
X65765858Y-96099225D01*
X65696166Y-96094241D01*
X65640233Y-96052369D01*
X65615816Y-95986905D01*
X65615500Y-95978059D01*
X65615500Y-93843653D01*
X67489500Y-93843653D01*
X67489500Y-94001346D01*
X67520261Y-94155989D01*
X67520264Y-94156001D01*
X67580602Y-94301672D01*
X67580609Y-94301685D01*
X67668210Y-94432788D01*
X67668213Y-94432792D01*
X67779707Y-94544286D01*
X67779711Y-94544289D01*
X67910814Y-94631890D01*
X67910827Y-94631897D01*
X68056498Y-94692235D01*
X68056503Y-94692237D01*
X68211153Y-94722999D01*
X68211156Y-94723000D01*
X68211158Y-94723000D01*
X68368844Y-94723000D01*
X68368845Y-94722999D01*
X68523497Y-94692237D01*
X68669179Y-94631894D01*
X68800289Y-94544289D01*
X68911789Y-94432789D01*
X68951739Y-94373000D01*
X68957767Y-94363979D01*
X69011379Y-94319173D01*
X69080704Y-94310466D01*
X69143731Y-94340620D01*
X69163971Y-94363978D01*
X69178210Y-94385288D01*
X69178213Y-94385292D01*
X69289707Y-94496786D01*
X69289711Y-94496789D01*
X69420814Y-94584390D01*
X69420827Y-94584397D01*
X69535487Y-94631890D01*
X69566503Y-94644737D01*
X69721153Y-94675499D01*
X69721156Y-94675500D01*
X69721158Y-94675500D01*
X69878844Y-94675500D01*
X69878845Y-94675499D01*
X70033497Y-94644737D01*
X70179179Y-94584394D01*
X70310289Y-94496789D01*
X70421789Y-94385289D01*
X70509394Y-94254179D01*
X70569737Y-94108497D01*
X70600500Y-93953842D01*
X70600500Y-93878653D01*
X76029500Y-93878653D01*
X76029500Y-94036346D01*
X76060261Y-94190989D01*
X76060264Y-94191001D01*
X76120602Y-94336672D01*
X76120609Y-94336685D01*
X76208210Y-94467788D01*
X76208213Y-94467792D01*
X76319707Y-94579286D01*
X76319711Y-94579289D01*
X76450814Y-94666890D01*
X76450827Y-94666897D01*
X76512007Y-94692238D01*
X76596503Y-94727237D01*
X76751153Y-94757999D01*
X76751156Y-94758000D01*
X76751158Y-94758000D01*
X76908844Y-94758000D01*
X76908845Y-94757999D01*
X77063497Y-94727237D01*
X77209179Y-94666894D01*
X77209184Y-94666890D01*
X77209187Y-94666889D01*
X77261608Y-94631862D01*
X77328285Y-94610983D01*
X77395665Y-94629467D01*
X77442356Y-94681445D01*
X77454500Y-94734963D01*
X77454500Y-94801346D01*
X77485261Y-94955989D01*
X77485264Y-94956001D01*
X77545602Y-95101672D01*
X77545609Y-95101685D01*
X77633210Y-95232788D01*
X77633213Y-95232792D01*
X77744707Y-95344286D01*
X77744711Y-95344289D01*
X77875814Y-95431890D01*
X77875827Y-95431897D01*
X77993681Y-95480713D01*
X78021503Y-95492237D01*
X78176153Y-95522999D01*
X78176156Y-95523000D01*
X78176158Y-95523000D01*
X78333844Y-95523000D01*
X78333845Y-95522999D01*
X78488497Y-95492237D01*
X78634179Y-95431894D01*
X78765289Y-95344289D01*
X78876789Y-95232789D01*
X78964394Y-95101679D01*
X78977038Y-95071153D01*
X92099500Y-95071153D01*
X92099500Y-95228846D01*
X92130261Y-95383489D01*
X92130264Y-95383501D01*
X92190602Y-95529172D01*
X92190609Y-95529185D01*
X92278210Y-95660288D01*
X92278213Y-95660292D01*
X92389707Y-95771786D01*
X92389711Y-95771789D01*
X92520814Y-95859390D01*
X92520827Y-95859397D01*
X92666498Y-95919735D01*
X92666503Y-95919737D01*
X92821153Y-95950499D01*
X92821156Y-95950500D01*
X92821158Y-95950500D01*
X92978844Y-95950500D01*
X92978845Y-95950499D01*
X93133497Y-95919737D01*
X93264182Y-95865606D01*
X93279172Y-95859397D01*
X93279172Y-95859396D01*
X93279179Y-95859394D01*
X93410289Y-95771789D01*
X93521789Y-95660289D01*
X93609394Y-95529179D01*
X93669737Y-95383497D01*
X93700500Y-95228842D01*
X93700500Y-95071158D01*
X93700500Y-95071155D01*
X93700499Y-95071153D01*
X93685796Y-94997235D01*
X93669737Y-94916503D01*
X93669735Y-94916498D01*
X93609397Y-94770827D01*
X93609390Y-94770814D01*
X93521789Y-94639711D01*
X93521786Y-94639707D01*
X93410292Y-94528213D01*
X93410288Y-94528210D01*
X93279185Y-94440609D01*
X93279172Y-94440602D01*
X93133501Y-94380264D01*
X93133489Y-94380261D01*
X92978845Y-94349500D01*
X92978842Y-94349500D01*
X92821158Y-94349500D01*
X92821155Y-94349500D01*
X92666510Y-94380261D01*
X92666498Y-94380264D01*
X92520827Y-94440602D01*
X92520814Y-94440609D01*
X92389711Y-94528210D01*
X92389707Y-94528213D01*
X92278213Y-94639707D01*
X92278210Y-94639711D01*
X92190609Y-94770814D01*
X92190602Y-94770827D01*
X92130264Y-94916498D01*
X92130261Y-94916510D01*
X92099500Y-95071153D01*
X78977038Y-95071153D01*
X79024737Y-94955997D01*
X79055500Y-94801342D01*
X79055500Y-94643658D01*
X79055500Y-94643655D01*
X79055499Y-94643653D01*
X79049000Y-94610983D01*
X79024737Y-94489003D01*
X79004692Y-94440609D01*
X78964397Y-94343327D01*
X78964390Y-94343314D01*
X78876791Y-94212214D01*
X78876786Y-94212207D01*
X78813232Y-94148653D01*
X80134500Y-94148653D01*
X80134500Y-94306346D01*
X80165261Y-94460989D01*
X80165264Y-94461001D01*
X80225602Y-94606672D01*
X80225609Y-94606685D01*
X80313210Y-94737788D01*
X80313213Y-94737792D01*
X80424707Y-94849286D01*
X80424711Y-94849289D01*
X80555814Y-94936890D01*
X80555827Y-94936897D01*
X80701498Y-94997235D01*
X80701503Y-94997237D01*
X80856153Y-95027999D01*
X80856156Y-95028000D01*
X80856158Y-95028000D01*
X81013844Y-95028000D01*
X81013845Y-95027999D01*
X81168497Y-94997237D01*
X81216683Y-94977277D01*
X81281320Y-94950505D01*
X81314172Y-94936897D01*
X81314172Y-94936896D01*
X81314179Y-94936894D01*
X81445289Y-94849289D01*
X81556789Y-94737789D01*
X81644394Y-94606679D01*
X81704737Y-94460997D01*
X81735500Y-94306342D01*
X81735500Y-94148658D01*
X81735500Y-94148655D01*
X81735499Y-94148653D01*
X81722398Y-94082789D01*
X81704737Y-93994003D01*
X81700800Y-93984497D01*
X81644397Y-93848327D01*
X81644390Y-93848314D01*
X81556789Y-93717211D01*
X81556786Y-93717207D01*
X81445289Y-93605710D01*
X81422776Y-93590668D01*
X81314185Y-93518109D01*
X81314172Y-93518102D01*
X81255146Y-93493653D01*
X86989500Y-93493653D01*
X86989500Y-93651346D01*
X87020261Y-93805989D01*
X87020264Y-93806001D01*
X87080602Y-93951672D01*
X87080609Y-93951685D01*
X87168210Y-94082788D01*
X87168213Y-94082792D01*
X87279707Y-94194286D01*
X87279711Y-94194289D01*
X87410814Y-94281890D01*
X87410827Y-94281897D01*
X87543099Y-94336685D01*
X87556503Y-94342237D01*
X87665802Y-94363978D01*
X87711153Y-94372999D01*
X87711156Y-94373000D01*
X87711158Y-94373000D01*
X87868844Y-94373000D01*
X87868845Y-94372999D01*
X88023497Y-94342237D01*
X88169179Y-94281894D01*
X88300289Y-94194289D01*
X88411789Y-94082789D01*
X88499394Y-93951679D01*
X88499395Y-93951676D01*
X88499397Y-93951673D01*
X88547973Y-93834397D01*
X88552343Y-93823846D01*
X88596183Y-93769443D01*
X88662477Y-93747378D01*
X88730177Y-93764657D01*
X88777787Y-93815794D01*
X88788521Y-93847106D01*
X88795261Y-93880992D01*
X88795264Y-93881001D01*
X88855602Y-94026672D01*
X88855609Y-94026685D01*
X88943210Y-94157788D01*
X88943213Y-94157792D01*
X89054707Y-94269286D01*
X89054711Y-94269289D01*
X89185814Y-94356890D01*
X89185827Y-94356897D01*
X89254380Y-94385292D01*
X89331503Y-94417237D01*
X89486153Y-94447999D01*
X89486156Y-94448000D01*
X89486158Y-94448000D01*
X89643844Y-94448000D01*
X89643845Y-94447999D01*
X89798497Y-94417237D01*
X89944179Y-94356894D01*
X90075289Y-94269289D01*
X90186789Y-94157789D01*
X90274394Y-94026679D01*
X90289813Y-93989451D01*
X90333653Y-93935050D01*
X90380183Y-93915288D01*
X90423609Y-93906649D01*
X90483497Y-93894737D01*
X90629179Y-93834394D01*
X90760289Y-93746789D01*
X90871789Y-93635289D01*
X90959394Y-93504179D01*
X90962854Y-93495827D01*
X90997490Y-93412207D01*
X91019737Y-93358497D01*
X91050500Y-93203842D01*
X91050500Y-93046158D01*
X91050500Y-93046155D01*
X91050499Y-93046153D01*
X91034692Y-92966685D01*
X91019737Y-92891503D01*
X91005533Y-92857211D01*
X90959397Y-92745827D01*
X90959390Y-92745814D01*
X90871789Y-92614711D01*
X90871786Y-92614707D01*
X90760292Y-92503213D01*
X90760288Y-92503210D01*
X90629185Y-92415609D01*
X90629172Y-92415602D01*
X90483501Y-92355264D01*
X90483489Y-92355261D01*
X90328845Y-92324500D01*
X90328842Y-92324500D01*
X90171158Y-92324500D01*
X90171155Y-92324500D01*
X90016510Y-92355261D01*
X90016498Y-92355264D01*
X89870827Y-92415602D01*
X89870814Y-92415609D01*
X89739711Y-92503210D01*
X89739707Y-92503213D01*
X89628213Y-92614707D01*
X89628210Y-92614711D01*
X89540607Y-92745817D01*
X89540604Y-92745822D01*
X89525185Y-92783048D01*
X89481344Y-92837451D01*
X89434818Y-92857211D01*
X89331507Y-92877762D01*
X89331498Y-92877764D01*
X89185827Y-92938102D01*
X89185814Y-92938109D01*
X89054711Y-93025710D01*
X89054707Y-93025713D01*
X88943213Y-93137207D01*
X88943210Y-93137211D01*
X88855609Y-93268314D01*
X88855604Y-93268323D01*
X88802656Y-93396153D01*
X88758815Y-93450556D01*
X88692521Y-93472621D01*
X88624821Y-93455342D01*
X88577211Y-93404204D01*
X88566478Y-93372894D01*
X88559737Y-93339003D01*
X88558374Y-93335713D01*
X88499397Y-93193327D01*
X88499390Y-93193314D01*
X88411789Y-93062211D01*
X88411786Y-93062207D01*
X88300292Y-92950713D01*
X88300288Y-92950710D01*
X88169185Y-92863109D01*
X88169172Y-92863102D01*
X88023501Y-92802764D01*
X88023489Y-92802761D01*
X87868845Y-92772000D01*
X87868842Y-92772000D01*
X87711158Y-92772000D01*
X87711155Y-92772000D01*
X87556510Y-92802761D01*
X87556498Y-92802764D01*
X87410827Y-92863102D01*
X87410814Y-92863109D01*
X87279711Y-92950710D01*
X87279707Y-92950713D01*
X87168213Y-93062207D01*
X87168210Y-93062211D01*
X87080609Y-93193314D01*
X87080602Y-93193327D01*
X87020264Y-93338998D01*
X87020261Y-93339010D01*
X86989500Y-93493653D01*
X81255146Y-93493653D01*
X81168501Y-93457764D01*
X81168489Y-93457761D01*
X81013845Y-93427000D01*
X81013842Y-93427000D01*
X80856158Y-93427000D01*
X80856155Y-93427000D01*
X80701510Y-93457761D01*
X80701498Y-93457764D01*
X80555827Y-93518102D01*
X80555814Y-93518109D01*
X80424711Y-93605710D01*
X80424707Y-93605713D01*
X80313213Y-93717207D01*
X80313210Y-93717211D01*
X80225609Y-93848314D01*
X80225602Y-93848327D01*
X80165264Y-93993998D01*
X80165261Y-93994010D01*
X80134500Y-94148653D01*
X78813232Y-94148653D01*
X78765292Y-94100713D01*
X78765288Y-94100710D01*
X78634185Y-94013109D01*
X78634172Y-94013102D01*
X78488501Y-93952764D01*
X78488489Y-93952761D01*
X78333845Y-93922000D01*
X78333842Y-93922000D01*
X78176158Y-93922000D01*
X78176155Y-93922000D01*
X78021510Y-93952761D01*
X78021498Y-93952764D01*
X77875827Y-94013102D01*
X77875814Y-94013109D01*
X77823391Y-94048138D01*
X77756713Y-94069016D01*
X77689333Y-94050531D01*
X77642643Y-93998553D01*
X77630500Y-93945036D01*
X77630500Y-93878655D01*
X77630499Y-93878653D01*
X77624467Y-93848327D01*
X77599737Y-93724003D01*
X77562991Y-93635289D01*
X77539397Y-93578327D01*
X77539390Y-93578314D01*
X77451789Y-93447211D01*
X77451786Y-93447207D01*
X77340292Y-93335713D01*
X77340288Y-93335710D01*
X77209185Y-93248109D01*
X77209172Y-93248102D01*
X77063501Y-93187764D01*
X77063489Y-93187761D01*
X76908845Y-93157000D01*
X76908842Y-93157000D01*
X76751158Y-93157000D01*
X76751155Y-93157000D01*
X76596510Y-93187761D01*
X76596498Y-93187764D01*
X76450827Y-93248102D01*
X76450814Y-93248109D01*
X76319711Y-93335710D01*
X76319707Y-93335713D01*
X76208213Y-93447207D01*
X76208210Y-93447211D01*
X76120609Y-93578314D01*
X76120602Y-93578327D01*
X76060264Y-93723998D01*
X76060261Y-93724010D01*
X76029500Y-93878653D01*
X70600500Y-93878653D01*
X70600500Y-93796158D01*
X70600500Y-93796155D01*
X70600499Y-93796153D01*
X70590679Y-93746786D01*
X70569737Y-93641503D01*
X70555173Y-93606342D01*
X70509397Y-93495827D01*
X70509390Y-93495814D01*
X70421789Y-93364711D01*
X70421786Y-93364707D01*
X70310292Y-93253213D01*
X70310288Y-93253210D01*
X70179185Y-93165609D01*
X70179172Y-93165602D01*
X70033501Y-93105264D01*
X70033489Y-93105261D01*
X69878845Y-93074500D01*
X69878842Y-93074500D01*
X69721158Y-93074500D01*
X69721155Y-93074500D01*
X69566510Y-93105261D01*
X69566498Y-93105264D01*
X69420827Y-93165602D01*
X69420814Y-93165609D01*
X69289711Y-93253210D01*
X69289707Y-93253213D01*
X69178213Y-93364707D01*
X69178208Y-93364713D01*
X69132231Y-93433522D01*
X69078619Y-93478326D01*
X69009294Y-93487033D01*
X68946266Y-93456878D01*
X68926027Y-93433520D01*
X68911787Y-93412208D01*
X68800292Y-93300713D01*
X68800288Y-93300710D01*
X68669185Y-93213109D01*
X68669172Y-93213102D01*
X68523501Y-93152764D01*
X68523489Y-93152761D01*
X68368845Y-93122000D01*
X68368842Y-93122000D01*
X68211158Y-93122000D01*
X68211155Y-93122000D01*
X68056510Y-93152761D01*
X68056498Y-93152764D01*
X67910827Y-93213102D01*
X67910814Y-93213109D01*
X67779711Y-93300710D01*
X67779707Y-93300713D01*
X67668213Y-93412207D01*
X67668210Y-93412211D01*
X67580609Y-93543314D01*
X67580602Y-93543327D01*
X67520264Y-93688998D01*
X67520261Y-93689010D01*
X67489500Y-93843653D01*
X65615500Y-93843653D01*
X65615500Y-92508653D01*
X77939500Y-92508653D01*
X77939500Y-92666346D01*
X77970261Y-92820989D01*
X77970264Y-92821001D01*
X78030602Y-92966672D01*
X78030609Y-92966685D01*
X78118210Y-93097788D01*
X78118213Y-93097792D01*
X78229707Y-93209286D01*
X78229711Y-93209289D01*
X78360814Y-93296890D01*
X78360827Y-93296897D01*
X78506498Y-93357235D01*
X78506503Y-93357237D01*
X78661153Y-93387999D01*
X78661156Y-93388000D01*
X78661158Y-93388000D01*
X78818844Y-93388000D01*
X78818845Y-93387999D01*
X78973497Y-93357237D01*
X79119179Y-93296894D01*
X79250289Y-93209289D01*
X79361789Y-93097789D01*
X79449394Y-92966679D01*
X79509737Y-92820997D01*
X79540500Y-92666342D01*
X79540500Y-92508658D01*
X79540500Y-92508655D01*
X79540499Y-92508653D01*
X79539417Y-92503213D01*
X79509737Y-92354003D01*
X79497517Y-92324500D01*
X79449397Y-92208327D01*
X79449390Y-92208314D01*
X79361789Y-92077211D01*
X79361786Y-92077207D01*
X79250292Y-91965713D01*
X79250288Y-91965710D01*
X79119185Y-91878109D01*
X79119172Y-91878102D01*
X78973501Y-91817764D01*
X78973489Y-91817761D01*
X78818845Y-91787000D01*
X78818842Y-91787000D01*
X78661158Y-91787000D01*
X78661155Y-91787000D01*
X78506510Y-91817761D01*
X78506498Y-91817764D01*
X78360827Y-91878102D01*
X78360814Y-91878109D01*
X78229711Y-91965710D01*
X78229707Y-91965713D01*
X78118213Y-92077207D01*
X78118210Y-92077211D01*
X78030609Y-92208314D01*
X78030602Y-92208327D01*
X77970264Y-92353998D01*
X77970261Y-92354010D01*
X77939500Y-92508653D01*
X65615500Y-92508653D01*
X65615500Y-84983653D01*
X66784500Y-84983653D01*
X66784500Y-85141346D01*
X66815261Y-85295989D01*
X66815264Y-85296001D01*
X66875602Y-85441672D01*
X66875609Y-85441685D01*
X66963210Y-85572788D01*
X66963213Y-85572792D01*
X67074707Y-85684286D01*
X67074711Y-85684289D01*
X67205814Y-85771890D01*
X67205827Y-85771897D01*
X67351498Y-85832235D01*
X67351503Y-85832237D01*
X67506153Y-85862999D01*
X67506156Y-85863000D01*
X67506158Y-85863000D01*
X67663844Y-85863000D01*
X67663845Y-85862999D01*
X67818497Y-85832237D01*
X67953436Y-85776344D01*
X67964172Y-85771897D01*
X67964172Y-85771896D01*
X67964179Y-85771894D01*
X68095289Y-85684289D01*
X68206789Y-85572789D01*
X68294394Y-85441679D01*
X68295503Y-85439003D01*
X68319532Y-85380989D01*
X68354737Y-85295997D01*
X68385500Y-85141342D01*
X68385500Y-85135729D01*
X68405185Y-85068690D01*
X68405228Y-85068653D01*
X70264500Y-85068653D01*
X70264500Y-85226346D01*
X70295261Y-85380989D01*
X70295264Y-85381001D01*
X70355602Y-85526672D01*
X70355609Y-85526685D01*
X70443210Y-85657788D01*
X70443213Y-85657792D01*
X70554707Y-85769286D01*
X70554711Y-85769289D01*
X70685814Y-85856890D01*
X70685827Y-85856897D01*
X70831498Y-85917235D01*
X70831503Y-85917237D01*
X70986153Y-85947999D01*
X70986156Y-85948000D01*
X70986158Y-85948000D01*
X71143844Y-85948000D01*
X71143845Y-85947999D01*
X71298497Y-85917237D01*
X71444179Y-85856894D01*
X71575289Y-85769289D01*
X71686789Y-85657789D01*
X71774394Y-85526679D01*
X71834737Y-85380997D01*
X71865500Y-85226342D01*
X71865500Y-85108492D01*
X71885185Y-85041453D01*
X71937989Y-84995698D01*
X72007147Y-84985754D01*
X72036950Y-84993930D01*
X72141503Y-85037237D01*
X72255940Y-85060000D01*
X72296153Y-85067999D01*
X72296156Y-85068000D01*
X72296158Y-85068000D01*
X72453844Y-85068000D01*
X72453845Y-85067999D01*
X72608497Y-85037237D01*
X72754179Y-84976894D01*
X72885289Y-84889289D01*
X72996789Y-84777789D01*
X73084394Y-84646679D01*
X73144737Y-84500997D01*
X73175500Y-84346342D01*
X73175500Y-84188658D01*
X73175500Y-84188655D01*
X73175499Y-84188653D01*
X75124716Y-84188653D01*
X75124716Y-84346346D01*
X75155477Y-84500989D01*
X75155480Y-84501001D01*
X75215818Y-84646672D01*
X75215825Y-84646685D01*
X75303426Y-84777788D01*
X75303429Y-84777792D01*
X75414923Y-84889286D01*
X75414927Y-84889289D01*
X75546030Y-84976890D01*
X75546043Y-84976897D01*
X75683040Y-85033642D01*
X75691719Y-85037237D01*
X75806156Y-85060000D01*
X75846369Y-85067999D01*
X75846372Y-85068000D01*
X75846374Y-85068000D01*
X76004060Y-85068000D01*
X76004061Y-85067999D01*
X76158713Y-85037237D01*
X76304395Y-84976894D01*
X76435505Y-84889289D01*
X76547005Y-84777789D01*
X76634610Y-84646679D01*
X76694953Y-84500997D01*
X76725716Y-84346342D01*
X76725716Y-84188658D01*
X76725716Y-84188655D01*
X76725715Y-84188654D01*
X76722732Y-84173658D01*
X76722731Y-84173653D01*
X78678676Y-84173653D01*
X78678676Y-84331346D01*
X78709437Y-84485989D01*
X78709440Y-84486001D01*
X78769778Y-84631672D01*
X78769785Y-84631685D01*
X78857386Y-84762788D01*
X78857389Y-84762792D01*
X78968883Y-84874286D01*
X78968887Y-84874289D01*
X79099990Y-84961890D01*
X79100003Y-84961897D01*
X79223357Y-85012991D01*
X79245679Y-85022237D01*
X79342284Y-85041453D01*
X79400329Y-85052999D01*
X79400332Y-85053000D01*
X79400334Y-85053000D01*
X79558020Y-85053000D01*
X79558021Y-85052999D01*
X79712673Y-85022237D01*
X79858355Y-84961894D01*
X79989465Y-84874289D01*
X80100965Y-84762789D01*
X80188570Y-84631679D01*
X80248913Y-84485997D01*
X80279676Y-84331342D01*
X80279676Y-84173658D01*
X80279676Y-84173655D01*
X80279675Y-84173653D01*
X80248913Y-84019003D01*
X80233315Y-83981346D01*
X80188573Y-83873327D01*
X80188566Y-83873314D01*
X80100965Y-83742211D01*
X80100962Y-83742207D01*
X79989468Y-83630713D01*
X79989464Y-83630710D01*
X79858361Y-83543109D01*
X79858348Y-83543102D01*
X79712677Y-83482764D01*
X79712665Y-83482761D01*
X79558021Y-83452000D01*
X79558018Y-83452000D01*
X79400334Y-83452000D01*
X79400331Y-83452000D01*
X79245686Y-83482761D01*
X79245674Y-83482764D01*
X79100003Y-83543102D01*
X79099990Y-83543109D01*
X78968887Y-83630710D01*
X78968883Y-83630713D01*
X78857389Y-83742207D01*
X78857386Y-83742211D01*
X78769785Y-83873314D01*
X78769778Y-83873327D01*
X78709440Y-84018998D01*
X78709437Y-84019010D01*
X78678676Y-84173653D01*
X76722731Y-84173653D01*
X76694953Y-84034003D01*
X76673140Y-83981342D01*
X76634613Y-83888327D01*
X76634606Y-83888314D01*
X76547005Y-83757211D01*
X76547002Y-83757207D01*
X76435508Y-83645713D01*
X76435504Y-83645710D01*
X76304401Y-83558109D01*
X76304388Y-83558102D01*
X76158717Y-83497764D01*
X76158705Y-83497761D01*
X76004061Y-83467000D01*
X76004058Y-83467000D01*
X75846374Y-83467000D01*
X75846371Y-83467000D01*
X75691726Y-83497761D01*
X75691714Y-83497764D01*
X75546043Y-83558102D01*
X75546030Y-83558109D01*
X75414927Y-83645710D01*
X75414923Y-83645713D01*
X75303429Y-83757207D01*
X75303426Y-83757211D01*
X75215825Y-83888314D01*
X75215818Y-83888327D01*
X75155480Y-84033998D01*
X75155477Y-84034010D01*
X75124716Y-84188653D01*
X73175499Y-84188653D01*
X73165023Y-84135989D01*
X73144737Y-84034003D01*
X73122924Y-83981342D01*
X73084397Y-83888327D01*
X73084390Y-83888314D01*
X72996789Y-83757211D01*
X72996786Y-83757207D01*
X72885292Y-83645713D01*
X72885288Y-83645710D01*
X72754185Y-83558109D01*
X72754172Y-83558102D01*
X72608501Y-83497764D01*
X72608489Y-83497761D01*
X72453845Y-83467000D01*
X72453842Y-83467000D01*
X72296158Y-83467000D01*
X72296155Y-83467000D01*
X72141510Y-83497761D01*
X72141498Y-83497764D01*
X71995827Y-83558102D01*
X71995814Y-83558109D01*
X71864711Y-83645710D01*
X71864707Y-83645713D01*
X71753213Y-83757207D01*
X71753210Y-83757211D01*
X71665609Y-83888314D01*
X71665602Y-83888327D01*
X71605264Y-84033998D01*
X71605261Y-84034010D01*
X71574500Y-84188653D01*
X71574500Y-84306507D01*
X71554815Y-84373546D01*
X71502011Y-84419301D01*
X71432853Y-84429245D01*
X71403048Y-84421069D01*
X71383053Y-84412787D01*
X71298497Y-84377763D01*
X71298492Y-84377762D01*
X71298489Y-84377761D01*
X71143845Y-84347000D01*
X71143842Y-84347000D01*
X70986158Y-84347000D01*
X70986155Y-84347000D01*
X70831510Y-84377761D01*
X70831498Y-84377764D01*
X70685827Y-84438102D01*
X70685814Y-84438109D01*
X70554711Y-84525710D01*
X70554707Y-84525713D01*
X70443213Y-84637207D01*
X70443210Y-84637211D01*
X70355609Y-84768314D01*
X70355602Y-84768327D01*
X70295264Y-84913998D01*
X70295261Y-84914010D01*
X70264500Y-85068653D01*
X68405228Y-85068653D01*
X68457989Y-85022935D01*
X68527147Y-85012991D01*
X68556949Y-85021166D01*
X68595746Y-85037237D01*
X68710183Y-85060000D01*
X68750396Y-85067999D01*
X68750399Y-85068000D01*
X68750401Y-85068000D01*
X68908087Y-85068000D01*
X68908088Y-85067999D01*
X69062740Y-85037237D01*
X69208422Y-84976894D01*
X69208429Y-84976888D01*
X69208433Y-84976887D01*
X69234505Y-84959466D01*
X69234509Y-84959464D01*
X69302552Y-84913998D01*
X69339532Y-84889289D01*
X69451032Y-84777789D01*
X69538637Y-84646679D01*
X69598980Y-84500997D01*
X69629743Y-84346342D01*
X69629743Y-84188658D01*
X69629743Y-84188655D01*
X69629742Y-84188653D01*
X69619266Y-84135989D01*
X69598980Y-84034003D01*
X69577167Y-83981342D01*
X69538640Y-83888327D01*
X69538633Y-83888314D01*
X69451032Y-83757211D01*
X69451029Y-83757207D01*
X69339535Y-83645713D01*
X69339531Y-83645710D01*
X69208428Y-83558109D01*
X69208415Y-83558102D01*
X69062744Y-83497764D01*
X69062732Y-83497761D01*
X68908088Y-83467000D01*
X68908085Y-83467000D01*
X68750401Y-83467000D01*
X68750398Y-83467000D01*
X68595753Y-83497761D01*
X68595741Y-83497764D01*
X68450070Y-83558102D01*
X68450057Y-83558109D01*
X68318954Y-83645710D01*
X68318950Y-83645713D01*
X68207456Y-83757207D01*
X68207453Y-83757211D01*
X68119852Y-83888314D01*
X68119845Y-83888327D01*
X68059507Y-84033998D01*
X68059504Y-84034010D01*
X68028743Y-84188653D01*
X68028743Y-84194270D01*
X68009058Y-84261309D01*
X67956254Y-84307064D01*
X67887096Y-84317008D01*
X67857292Y-84308832D01*
X67841231Y-84302179D01*
X67818497Y-84292763D01*
X67818493Y-84292762D01*
X67818489Y-84292761D01*
X67663845Y-84262000D01*
X67663842Y-84262000D01*
X67506158Y-84262000D01*
X67506155Y-84262000D01*
X67351510Y-84292761D01*
X67351498Y-84292764D01*
X67205827Y-84353102D01*
X67205814Y-84353109D01*
X67074711Y-84440710D01*
X67074707Y-84440713D01*
X66963213Y-84552207D01*
X66963210Y-84552211D01*
X66875609Y-84683314D01*
X66875602Y-84683327D01*
X66815264Y-84828998D01*
X66815261Y-84829010D01*
X66784500Y-84983653D01*
X65615500Y-84983653D01*
X65615500Y-82539454D01*
X73874500Y-82539454D01*
X73874500Y-82697147D01*
X73905261Y-82851790D01*
X73905264Y-82851802D01*
X73965602Y-82997473D01*
X73965609Y-82997486D01*
X74053210Y-83128589D01*
X74053213Y-83128593D01*
X74164707Y-83240087D01*
X74164711Y-83240090D01*
X74295814Y-83327691D01*
X74295827Y-83327698D01*
X74419169Y-83378787D01*
X74441503Y-83388038D01*
X74596153Y-83418800D01*
X74596156Y-83418801D01*
X74596158Y-83418801D01*
X74753844Y-83418801D01*
X74753845Y-83418800D01*
X74908497Y-83388038D01*
X75054179Y-83327695D01*
X75185289Y-83240090D01*
X75296789Y-83128590D01*
X75384394Y-82997480D01*
X75444737Y-82851798D01*
X75475500Y-82697143D01*
X75475500Y-82539459D01*
X75475500Y-82539456D01*
X75456947Y-82446186D01*
X75456947Y-82446185D01*
X75453346Y-82428081D01*
X77429451Y-82428081D01*
X77429451Y-82585774D01*
X77460212Y-82740417D01*
X77460215Y-82740429D01*
X77520553Y-82886100D01*
X77520560Y-82886113D01*
X77608161Y-83017216D01*
X77608164Y-83017220D01*
X77719658Y-83128714D01*
X77719662Y-83128717D01*
X77850765Y-83216318D01*
X77850778Y-83216325D01*
X77995674Y-83276342D01*
X77996454Y-83276665D01*
X78150214Y-83307250D01*
X78151104Y-83307427D01*
X78151107Y-83307428D01*
X78151109Y-83307428D01*
X78308795Y-83307428D01*
X78308796Y-83307427D01*
X78463448Y-83276665D01*
X78609130Y-83216322D01*
X78740240Y-83128717D01*
X78851740Y-83017217D01*
X78939345Y-82886107D01*
X78999688Y-82740425D01*
X79030451Y-82585770D01*
X79030451Y-82428086D01*
X79030451Y-82428083D01*
X79030450Y-82428081D01*
X79010281Y-82326685D01*
X78999688Y-82273431D01*
X78999686Y-82273426D01*
X78939348Y-82127755D01*
X78939342Y-82127744D01*
X78938156Y-82125969D01*
X78937820Y-82124896D01*
X78936472Y-82122374D01*
X78936950Y-82122118D01*
X78917276Y-82059292D01*
X78935759Y-81991911D01*
X78987736Y-81945220D01*
X79056706Y-81934041D01*
X79088708Y-81942514D01*
X79166498Y-81974735D01*
X79166503Y-81974737D01*
X79321153Y-82005499D01*
X79321156Y-82005500D01*
X79321158Y-82005500D01*
X79478844Y-82005500D01*
X79478845Y-82005499D01*
X79633497Y-81974737D01*
X79746166Y-81928067D01*
X79779172Y-81914397D01*
X79779172Y-81914396D01*
X79779179Y-81914394D01*
X79910289Y-81826789D01*
X80021789Y-81715289D01*
X80109394Y-81584179D01*
X80115966Y-81568314D01*
X80151990Y-81481342D01*
X80169737Y-81438497D01*
X80200500Y-81283842D01*
X80200500Y-81126158D01*
X80200500Y-81126155D01*
X80200499Y-81126153D01*
X80190658Y-81076679D01*
X80169737Y-80971503D01*
X80152956Y-80930989D01*
X80109397Y-80825827D01*
X80109390Y-80825814D01*
X80021789Y-80694711D01*
X80021786Y-80694707D01*
X79910292Y-80583213D01*
X79910288Y-80583210D01*
X79779185Y-80495609D01*
X79779172Y-80495602D01*
X79633501Y-80435264D01*
X79633489Y-80435261D01*
X79478845Y-80404500D01*
X79478842Y-80404500D01*
X79321158Y-80404500D01*
X79321155Y-80404500D01*
X79166510Y-80435261D01*
X79166498Y-80435264D01*
X79020827Y-80495602D01*
X79020814Y-80495609D01*
X78889711Y-80583210D01*
X78889707Y-80583213D01*
X78778213Y-80694707D01*
X78778210Y-80694711D01*
X78690609Y-80825814D01*
X78690602Y-80825827D01*
X78630264Y-80971498D01*
X78630261Y-80971510D01*
X78599500Y-81126153D01*
X78599500Y-81283846D01*
X78630261Y-81438489D01*
X78630264Y-81438501D01*
X78690602Y-81584172D01*
X78690609Y-81584185D01*
X78691796Y-81585961D01*
X78692131Y-81587033D01*
X78693479Y-81589554D01*
X78693001Y-81589809D01*
X78712674Y-81652639D01*
X78694189Y-81720019D01*
X78642210Y-81766709D01*
X78573240Y-81777885D01*
X78541243Y-81769414D01*
X78498758Y-81751817D01*
X78463448Y-81737191D01*
X78463444Y-81737190D01*
X78463440Y-81737189D01*
X78308796Y-81706428D01*
X78308793Y-81706428D01*
X78151109Y-81706428D01*
X78151106Y-81706428D01*
X77996461Y-81737189D01*
X77996449Y-81737192D01*
X77850778Y-81797530D01*
X77850765Y-81797537D01*
X77719662Y-81885138D01*
X77719658Y-81885141D01*
X77608164Y-81996635D01*
X77608161Y-81996639D01*
X77520560Y-82127742D01*
X77520553Y-82127755D01*
X77460215Y-82273426D01*
X77460212Y-82273438D01*
X77429451Y-82428081D01*
X75453346Y-82428081D01*
X75444738Y-82384811D01*
X75444737Y-82384804D01*
X75420658Y-82326672D01*
X75384397Y-82239128D01*
X75384390Y-82239115D01*
X75296789Y-82108012D01*
X75296786Y-82108008D01*
X75185292Y-81996514D01*
X75185288Y-81996511D01*
X75054185Y-81908910D01*
X75054172Y-81908903D01*
X74908501Y-81848565D01*
X74908489Y-81848562D01*
X74753845Y-81817801D01*
X74753842Y-81817801D01*
X74596158Y-81817801D01*
X74596155Y-81817801D01*
X74441510Y-81848562D01*
X74441498Y-81848565D01*
X74295827Y-81908903D01*
X74295814Y-81908910D01*
X74164711Y-81996511D01*
X74164707Y-81996514D01*
X74053213Y-82108008D01*
X74053210Y-82108012D01*
X73965609Y-82239115D01*
X73965602Y-82239128D01*
X73905264Y-82384799D01*
X73905261Y-82384811D01*
X73874500Y-82539454D01*
X65615500Y-82539454D01*
X65615500Y-80573653D01*
X66134500Y-80573653D01*
X66134500Y-80731346D01*
X66165261Y-80885989D01*
X66165264Y-80886001D01*
X66225602Y-81031672D01*
X66225609Y-81031685D01*
X66313210Y-81162788D01*
X66313213Y-81162792D01*
X66424707Y-81274286D01*
X66424711Y-81274289D01*
X66555814Y-81361890D01*
X66555827Y-81361897D01*
X66689427Y-81417235D01*
X66701503Y-81422237D01*
X66847732Y-81451324D01*
X66856153Y-81452999D01*
X66856156Y-81453000D01*
X66856158Y-81453000D01*
X67013844Y-81453000D01*
X67013845Y-81452999D01*
X67168497Y-81422237D01*
X67314179Y-81361894D01*
X67445289Y-81274289D01*
X67556789Y-81162789D01*
X67644394Y-81031679D01*
X67645783Y-81028327D01*
X67669317Y-80971510D01*
X67704737Y-80885997D01*
X67735500Y-80731342D01*
X67735500Y-80573658D01*
X67734505Y-80568658D01*
X67731144Y-80551759D01*
X67731144Y-80551757D01*
X67727543Y-80533653D01*
X69669500Y-80533653D01*
X69669500Y-80691346D01*
X69700261Y-80845989D01*
X69700264Y-80846001D01*
X69760602Y-80991672D01*
X69760609Y-80991685D01*
X69848210Y-81122788D01*
X69848213Y-81122792D01*
X69959707Y-81234286D01*
X69959711Y-81234289D01*
X70090814Y-81321890D01*
X70090827Y-81321897D01*
X70196902Y-81365834D01*
X70236503Y-81382237D01*
X70376986Y-81410181D01*
X70391153Y-81412999D01*
X70391156Y-81413000D01*
X70391158Y-81413000D01*
X70548844Y-81413000D01*
X70548845Y-81412999D01*
X70703497Y-81382237D01*
X70839964Y-81325711D01*
X70849172Y-81321897D01*
X70849172Y-81321896D01*
X70849179Y-81321894D01*
X70980289Y-81234289D01*
X71091789Y-81122789D01*
X71179394Y-80991679D01*
X71239737Y-80845997D01*
X71270500Y-80691342D01*
X71270500Y-80548653D01*
X73224500Y-80548653D01*
X73224500Y-80706346D01*
X73255261Y-80860989D01*
X73255264Y-80861001D01*
X73315602Y-81006672D01*
X73315609Y-81006685D01*
X73403210Y-81137788D01*
X73403213Y-81137792D01*
X73514707Y-81249286D01*
X73514711Y-81249289D01*
X73645814Y-81336890D01*
X73645827Y-81336897D01*
X73791498Y-81397235D01*
X73791503Y-81397237D01*
X73917176Y-81422235D01*
X73946153Y-81427999D01*
X73946156Y-81428000D01*
X73946158Y-81428000D01*
X74103844Y-81428000D01*
X74103845Y-81427999D01*
X74258497Y-81397237D01*
X74404179Y-81336894D01*
X74423996Y-81323653D01*
X75784500Y-81323653D01*
X75784500Y-81481346D01*
X75815261Y-81635989D01*
X75815264Y-81636001D01*
X75875602Y-81781672D01*
X75875609Y-81781685D01*
X75963210Y-81912788D01*
X75963213Y-81912792D01*
X76074707Y-82024286D01*
X76074711Y-82024289D01*
X76205814Y-82111890D01*
X76205827Y-82111897D01*
X76351498Y-82172235D01*
X76351503Y-82172237D01*
X76506153Y-82202999D01*
X76506156Y-82203000D01*
X76506158Y-82203000D01*
X76663844Y-82203000D01*
X76663845Y-82202999D01*
X76818497Y-82172237D01*
X76964179Y-82111894D01*
X77095289Y-82024289D01*
X77206789Y-81912789D01*
X77294394Y-81781679D01*
X77354737Y-81635997D01*
X77367884Y-81569898D01*
X77372279Y-81547809D01*
X77404664Y-81485898D01*
X77465379Y-81451324D01*
X77493896Y-81448000D01*
X77653844Y-81448000D01*
X77653845Y-81447999D01*
X77808497Y-81417237D01*
X77942108Y-81361894D01*
X77954172Y-81356897D01*
X77954172Y-81356896D01*
X77954179Y-81356894D01*
X78085289Y-81269289D01*
X78196789Y-81157789D01*
X78284394Y-81026679D01*
X78285783Y-81023327D01*
X78307248Y-80971503D01*
X78344737Y-80880997D01*
X78375500Y-80726342D01*
X78375500Y-80568658D01*
X78375500Y-80568655D01*
X78375499Y-80568653D01*
X78369139Y-80536679D01*
X78344737Y-80414003D01*
X78335208Y-80390997D01*
X78284397Y-80268327D01*
X78284390Y-80268314D01*
X78196789Y-80137211D01*
X78196786Y-80137207D01*
X78085292Y-80025713D01*
X78085288Y-80025710D01*
X77954185Y-79938109D01*
X77954172Y-79938102D01*
X77808501Y-79877764D01*
X77808489Y-79877761D01*
X77653845Y-79847000D01*
X77653842Y-79847000D01*
X77496158Y-79847000D01*
X77496155Y-79847000D01*
X77341510Y-79877761D01*
X77341498Y-79877764D01*
X77195827Y-79938102D01*
X77195814Y-79938109D01*
X77064711Y-80025710D01*
X77064707Y-80025713D01*
X76953213Y-80137207D01*
X76953210Y-80137211D01*
X76865609Y-80268314D01*
X76865602Y-80268327D01*
X76805264Y-80413998D01*
X76805261Y-80414010D01*
X76787721Y-80502191D01*
X76755336Y-80564102D01*
X76694621Y-80598676D01*
X76666104Y-80602000D01*
X76506155Y-80602000D01*
X76351510Y-80632761D01*
X76351498Y-80632764D01*
X76205827Y-80693102D01*
X76205814Y-80693109D01*
X76074711Y-80780710D01*
X76074707Y-80780713D01*
X75963213Y-80892207D01*
X75963210Y-80892211D01*
X75875609Y-81023314D01*
X75875602Y-81023327D01*
X75815264Y-81168998D01*
X75815261Y-81169010D01*
X75784500Y-81323653D01*
X74423996Y-81323653D01*
X74535289Y-81249289D01*
X74535292Y-81249286D01*
X74554694Y-81229885D01*
X74646786Y-81137792D01*
X74646789Y-81137789D01*
X74734394Y-81006679D01*
X74794737Y-80860997D01*
X74825500Y-80706342D01*
X74825500Y-80548658D01*
X74825500Y-80548655D01*
X74825499Y-80548653D01*
X74802944Y-80435263D01*
X74794737Y-80394003D01*
X74788522Y-80378998D01*
X74734397Y-80248327D01*
X74734390Y-80248314D01*
X74646789Y-80117211D01*
X74646786Y-80117207D01*
X74535292Y-80005713D01*
X74535288Y-80005710D01*
X74404185Y-79918109D01*
X74404172Y-79918102D01*
X74258501Y-79857764D01*
X74258489Y-79857761D01*
X74103845Y-79827000D01*
X74103842Y-79827000D01*
X73946158Y-79827000D01*
X73946155Y-79827000D01*
X73791510Y-79857761D01*
X73791498Y-79857764D01*
X73645827Y-79918102D01*
X73645814Y-79918109D01*
X73514711Y-80005710D01*
X73514707Y-80005713D01*
X73403213Y-80117207D01*
X73403210Y-80117211D01*
X73315609Y-80248314D01*
X73315602Y-80248327D01*
X73255264Y-80393998D01*
X73255261Y-80394010D01*
X73224500Y-80548653D01*
X71270500Y-80548653D01*
X71270500Y-80533658D01*
X71270500Y-80533655D01*
X71270499Y-80533653D01*
X71264241Y-80502191D01*
X71239737Y-80379003D01*
X71239735Y-80378998D01*
X71179397Y-80233327D01*
X71179390Y-80233314D01*
X71091789Y-80102211D01*
X71091786Y-80102207D01*
X70980292Y-79990713D01*
X70980288Y-79990710D01*
X70849185Y-79903109D01*
X70849172Y-79903102D01*
X70703501Y-79842764D01*
X70703489Y-79842761D01*
X70548845Y-79812000D01*
X70548842Y-79812000D01*
X70391158Y-79812000D01*
X70391155Y-79812000D01*
X70236510Y-79842761D01*
X70236498Y-79842764D01*
X70090827Y-79903102D01*
X70090814Y-79903109D01*
X69959711Y-79990710D01*
X69959707Y-79990713D01*
X69848213Y-80102207D01*
X69848210Y-80102211D01*
X69760609Y-80233314D01*
X69760602Y-80233327D01*
X69700264Y-80378998D01*
X69700261Y-80379010D01*
X69669500Y-80533653D01*
X67727543Y-80533653D01*
X67717664Y-80483993D01*
X67704737Y-80419003D01*
X67693133Y-80390989D01*
X67644397Y-80273327D01*
X67644390Y-80273314D01*
X67556789Y-80142211D01*
X67556786Y-80142207D01*
X67445292Y-80030713D01*
X67445288Y-80030710D01*
X67314185Y-79943109D01*
X67314172Y-79943102D01*
X67168501Y-79882764D01*
X67168489Y-79882761D01*
X67013845Y-79852000D01*
X67013842Y-79852000D01*
X66856158Y-79852000D01*
X66856155Y-79852000D01*
X66701510Y-79882761D01*
X66701498Y-79882764D01*
X66555827Y-79943102D01*
X66555814Y-79943109D01*
X66424711Y-80030710D01*
X66424707Y-80030713D01*
X66313213Y-80142207D01*
X66313210Y-80142211D01*
X66225609Y-80273314D01*
X66225602Y-80273327D01*
X66165264Y-80418998D01*
X66165261Y-80419010D01*
X66134500Y-80573653D01*
X65615500Y-80573653D01*
X65615500Y-79353592D01*
X65616097Y-79341439D01*
X65620998Y-79291679D01*
X65629665Y-79203671D01*
X65634403Y-79179849D01*
X65672816Y-79053219D01*
X65682113Y-79030778D01*
X65744485Y-78914087D01*
X65757982Y-78893887D01*
X65841924Y-78791603D01*
X65859103Y-78774424D01*
X65961387Y-78690482D01*
X65981587Y-78676985D01*
X66098278Y-78614613D01*
X66120719Y-78605316D01*
X66247349Y-78566903D01*
X66271173Y-78562165D01*
X66400170Y-78549460D01*
X66408939Y-78548597D01*
X66421092Y-78548000D01*
X66454882Y-78548000D01*
X81915227Y-78548000D01*
X81982266Y-78567685D01*
G37*
%TD.AperFunction*%
%TD*%
M02*
