%TF.GenerationSoftware,KiCad,Pcbnew,9.0.3*%
%TF.CreationDate,2026-06-21T23:04:52+05:30*%
%TF.ProjectId,Elo_112,456c6f5f-3131-4322-9e6b-696361645f70,rev?*%
%TF.SameCoordinates,Original*%
%TF.FileFunction,Paste,Top*%
%TF.FilePolarity,Positive*%
%FSLAX46Y46*%
G04 Gerber Fmt 4.6, Leading zero omitted, Abs format (unit mm)*
G04 Created by KiCad (PCBNEW 9.0.3) date 2026-06-21 23:04:52*
%MOMM*%
%LPD*%
G01*
G04 APERTURE LIST*
G04 Aperture macros list*
%AMRoundRect*
0 Rectangle with rounded corners*
0 $1 Rounding radius*
0 $2 $3 $4 $5 $6 $7 $8 $9 X,Y pos of 4 corners*
0 Add a 4 corners polygon primitive as box body*
4,1,4,$2,$3,$4,$5,$6,$7,$8,$9,$2,$3,0*
0 Add four circle primitives for the rounded corners*
1,1,$1+$1,$2,$3*
1,1,$1+$1,$4,$5*
1,1,$1+$1,$6,$7*
1,1,$1+$1,$8,$9*
0 Add four rect primitives between the rounded corners*
20,1,$1+$1,$2,$3,$4,$5,0*
20,1,$1+$1,$4,$5,$6,$7,0*
20,1,$1+$1,$6,$7,$8,$9,0*
20,1,$1+$1,$8,$9,$2,$3,0*%
G04 Aperture macros list end*
%ADD10RoundRect,0.147500X0.147500X0.172500X-0.147500X0.172500X-0.147500X-0.172500X0.147500X-0.172500X0*%
%ADD11RoundRect,0.075000X-0.175000X-0.075000X0.175000X-0.075000X0.175000X0.075000X-0.175000X0.075000X0*%
%ADD12RoundRect,0.135000X0.185000X-0.135000X0.185000X0.135000X-0.185000X0.135000X-0.185000X-0.135000X0*%
%ADD13RoundRect,0.140000X-0.140000X-0.170000X0.140000X-0.170000X0.140000X0.170000X-0.140000X0.170000X0*%
%ADD14RoundRect,0.140000X0.140000X0.170000X-0.140000X0.170000X-0.140000X-0.170000X0.140000X-0.170000X0*%
%ADD15RoundRect,0.140000X-0.170000X0.140000X-0.170000X-0.140000X0.170000X-0.140000X0.170000X0.140000X0*%
%ADD16RoundRect,0.150000X0.512500X0.150000X-0.512500X0.150000X-0.512500X-0.150000X0.512500X-0.150000X0*%
%ADD17RoundRect,0.150000X0.150000X-0.587500X0.150000X0.587500X-0.150000X0.587500X-0.150000X-0.587500X0*%
%ADD18RoundRect,0.150000X-0.587500X-0.150000X0.587500X-0.150000X0.587500X0.150000X-0.587500X0.150000X0*%
%ADD19R,1.397000X0.863600*%
%ADD20R,1.020000X0.950000*%
%ADD21RoundRect,0.225000X0.225000X0.375000X-0.225000X0.375000X-0.225000X-0.375000X0.225000X-0.375000X0*%
%ADD22RoundRect,0.140000X0.170000X-0.140000X0.170000X0.140000X-0.170000X0.140000X-0.170000X-0.140000X0*%
G04 APERTURE END LIST*
D10*
%TO.C,D6*%
X88515000Y-84700000D03*
X87545000Y-84700000D03*
%TD*%
%TO.C,D1*%
X87560000Y-90950000D03*
X88530000Y-90950000D03*
%TD*%
%TO.C,D2*%
X87560000Y-89700000D03*
X88530000Y-89700000D03*
%TD*%
%TO.C,D3*%
X88525000Y-88450000D03*
X87555000Y-88450000D03*
%TD*%
%TO.C,D4*%
X88515000Y-87200000D03*
X87545000Y-87200000D03*
%TD*%
%TO.C,D5*%
X88515000Y-85950000D03*
X87545000Y-85950000D03*
%TD*%
%TO.C,D12*%
X86440000Y-87200000D03*
X85470000Y-87200000D03*
%TD*%
%TO.C,D42*%
X77070000Y-89700000D03*
X78040000Y-89700000D03*
%TD*%
%TO.C,D15*%
X86440000Y-83450000D03*
X85470000Y-83450000D03*
%TD*%
%TO.C,D9*%
X85460000Y-90950000D03*
X86430000Y-90950000D03*
%TD*%
%TO.C,D7*%
X88515000Y-83450000D03*
X87545000Y-83450000D03*
%TD*%
%TO.C,D41*%
X77075000Y-90950000D03*
X78045000Y-90950000D03*
%TD*%
%TO.C,D10*%
X85470000Y-89700000D03*
X86440000Y-89700000D03*
%TD*%
%TO.C,D13*%
X86440000Y-85950000D03*
X85470000Y-85950000D03*
%TD*%
%TO.C,D11*%
X86440000Y-88450000D03*
X85470000Y-88450000D03*
%TD*%
%TO.C,D14*%
X86440000Y-84700000D03*
X85470000Y-84700000D03*
%TD*%
%TO.C,D20*%
X84325000Y-87200000D03*
X83355000Y-87200000D03*
%TD*%
%TO.C,D18*%
X83370000Y-89700000D03*
X84340000Y-89700000D03*
%TD*%
%TO.C,D25*%
X81275000Y-90950000D03*
X82245000Y-90950000D03*
%TD*%
%TO.C,D26*%
X81270000Y-89700000D03*
X82240000Y-89700000D03*
%TD*%
%TO.C,D21*%
X84320000Y-85950000D03*
X83350000Y-85950000D03*
%TD*%
%TO.C,D23*%
X84340000Y-83450000D03*
X83370000Y-83450000D03*
%TD*%
%TO.C,D19*%
X84325000Y-88450000D03*
X83355000Y-88450000D03*
%TD*%
%TO.C,D22*%
X84340000Y-84700000D03*
X83370000Y-84700000D03*
%TD*%
%TO.C,D17*%
X83360000Y-90920000D03*
X84330000Y-90920000D03*
%TD*%
%TO.C,D43*%
X78040000Y-88425000D03*
X77070000Y-88425000D03*
%TD*%
%TO.C,D33*%
X79160000Y-90950000D03*
X80130000Y-90950000D03*
%TD*%
%TO.C,D27*%
X82240000Y-88450000D03*
X81270000Y-88450000D03*
%TD*%
%TO.C,D29*%
X82240000Y-85950000D03*
X81270000Y-85950000D03*
%TD*%
%TO.C,D28*%
X82240000Y-87200000D03*
X81270000Y-87200000D03*
%TD*%
%TO.C,D30*%
X82240000Y-84700000D03*
X81270000Y-84700000D03*
%TD*%
%TO.C,D44*%
X78040000Y-87200000D03*
X77070000Y-87200000D03*
%TD*%
%TO.C,D31*%
X82240000Y-83450000D03*
X81270000Y-83450000D03*
%TD*%
%TO.C,D35*%
X80140000Y-88450000D03*
X79170000Y-88450000D03*
%TD*%
%TO.C,D36*%
X80140000Y-87200000D03*
X79170000Y-87200000D03*
%TD*%
%TO.C,D37*%
X80140000Y-85950000D03*
X79170000Y-85950000D03*
%TD*%
%TO.C,D39*%
X80140000Y-83450000D03*
X79170000Y-83450000D03*
%TD*%
%TO.C,D34*%
X79170000Y-89700000D03*
X80140000Y-89700000D03*
%TD*%
%TO.C,D38*%
X80140000Y-84700000D03*
X79170000Y-84700000D03*
%TD*%
%TO.C,D45*%
X78040000Y-85950000D03*
X77070000Y-85950000D03*
%TD*%
%TO.C,D52*%
X75940000Y-87200000D03*
X74970000Y-87200000D03*
%TD*%
%TO.C,D55*%
X75940000Y-83450000D03*
X74970000Y-83450000D03*
%TD*%
%TO.C,D58*%
X73840000Y-89700000D03*
X72870000Y-89700000D03*
%TD*%
%TO.C,D50*%
X74970000Y-89700000D03*
X75940000Y-89700000D03*
%TD*%
%TO.C,D47*%
X78040000Y-83450000D03*
X77070000Y-83450000D03*
%TD*%
%TO.C,D49*%
X74975000Y-90950000D03*
X75945000Y-90950000D03*
%TD*%
%TO.C,D53*%
X75940000Y-85950000D03*
X74970000Y-85950000D03*
%TD*%
%TO.C,D46*%
X78040000Y-84700000D03*
X77070000Y-84700000D03*
%TD*%
%TO.C,D51*%
X75940000Y-88450000D03*
X74970000Y-88450000D03*
%TD*%
%TO.C,D54*%
X75940000Y-84700000D03*
X74970000Y-84700000D03*
%TD*%
%TO.C,D57*%
X72890000Y-90950000D03*
X73860000Y-90950000D03*
%TD*%
%TO.C,D8*%
X88515000Y-82200000D03*
X87545000Y-82200000D03*
%TD*%
%TO.C,D16*%
X86430000Y-82200000D03*
X85460000Y-82200000D03*
%TD*%
%TO.C,D59*%
X73840000Y-88450000D03*
X72870000Y-88450000D03*
%TD*%
%TO.C,D62*%
X73840000Y-84700000D03*
X72870000Y-84700000D03*
%TD*%
%TO.C,D63*%
X73840000Y-83450000D03*
X72870000Y-83450000D03*
%TD*%
%TO.C,D61*%
X73840000Y-85950000D03*
X72870000Y-85950000D03*
%TD*%
%TO.C,D60*%
X73840000Y-87200000D03*
X72870000Y-87200000D03*
%TD*%
%TO.C,D24*%
X84340000Y-82200000D03*
X83370000Y-82200000D03*
%TD*%
%TO.C,D64*%
X73840000Y-82200000D03*
X72870000Y-82200000D03*
%TD*%
%TO.C,D32*%
X82240000Y-82200000D03*
X81270000Y-82200000D03*
%TD*%
%TO.C,D48*%
X78040000Y-82200000D03*
X77070000Y-82200000D03*
%TD*%
%TO.C,D40*%
X80140000Y-82200000D03*
X79170000Y-82200000D03*
%TD*%
%TO.C,D56*%
X75940000Y-82200000D03*
X74970000Y-82200000D03*
%TD*%
D11*
%TO.C,D68*%
X80140000Y-103145000D03*
X81140000Y-103145000D03*
%TD*%
D12*
%TO.C,R3*%
X75105000Y-102825000D03*
X75105000Y-101805000D03*
%TD*%
%TO.C,R4*%
X74040000Y-102805000D03*
X74040000Y-101785000D03*
%TD*%
D11*
%TO.C,D66*%
X76080000Y-99395000D03*
X77080000Y-99395000D03*
%TD*%
D13*
%TO.C,C9*%
X77730000Y-97945000D03*
X78690000Y-97945000D03*
%TD*%
%TO.C,C18*%
X76190000Y-100460000D03*
X77150000Y-100460000D03*
%TD*%
%TO.C,C11*%
X80160000Y-101410000D03*
X81120000Y-101410000D03*
%TD*%
D14*
%TO.C,C7*%
X77080000Y-104385000D03*
X76120000Y-104385000D03*
%TD*%
D15*
%TO.C,C3*%
X65525000Y-99360000D03*
X65525000Y-100320000D03*
%TD*%
%TO.C,C4*%
X64505000Y-99360000D03*
X64505000Y-100320000D03*
%TD*%
D14*
%TO.C,C6*%
X77150000Y-102420000D03*
X76190000Y-102420000D03*
%TD*%
D15*
%TO.C,C2*%
X66545000Y-99355000D03*
X66545000Y-100315000D03*
%TD*%
D16*
%TO.C,U6*%
X61387500Y-101942500D03*
X61387500Y-100992500D03*
X61387500Y-100042500D03*
X59112500Y-100042500D03*
X59112500Y-100992500D03*
X59112500Y-101942500D03*
%TD*%
D17*
%TO.C,Q16*%
X56067500Y-85882500D03*
X57967500Y-85882500D03*
X57017500Y-84007500D03*
%TD*%
%TO.C,Q14*%
X59605000Y-85882500D03*
X61505000Y-85882500D03*
X60555000Y-84007500D03*
%TD*%
%TO.C,Q12*%
X63155000Y-85882500D03*
X65055000Y-85882500D03*
X64105000Y-84007500D03*
%TD*%
%TO.C,Q10*%
X66715000Y-85867500D03*
X68615000Y-85867500D03*
X67665000Y-83992500D03*
%TD*%
D18*
%TO.C,Q7*%
X86680000Y-104830000D03*
X86680000Y-106730000D03*
X88555000Y-105780000D03*
%TD*%
%TO.C,Q5*%
X86680000Y-101280000D03*
X86680000Y-103180000D03*
X88555000Y-102230000D03*
%TD*%
%TO.C,Q3*%
X86680000Y-97692500D03*
X86680000Y-99592500D03*
X88555000Y-98642500D03*
%TD*%
%TO.C,Q1*%
X86692500Y-94117500D03*
X86692500Y-96017500D03*
X88567500Y-95067500D03*
%TD*%
D19*
%TO.C,FB1*%
X61110000Y-106635500D03*
X61110000Y-104984500D03*
%TD*%
D20*
%TO.C,F1*%
X59130000Y-105005000D03*
X59130000Y-106575000D03*
%TD*%
D21*
%TO.C,D65*%
X66180000Y-105860000D03*
X62880000Y-105860000D03*
%TD*%
D22*
%TO.C,C41*%
X57425000Y-100990000D03*
X57425000Y-100030000D03*
%TD*%
%TO.C,C23*%
X67980000Y-112100000D03*
X67980000Y-111140000D03*
%TD*%
%TO.C,C22*%
X67930000Y-109780000D03*
X67930000Y-108820000D03*
%TD*%
%TO.C,C10*%
X62915000Y-101280000D03*
X62915000Y-100320000D03*
%TD*%
M02*
