%TF.GenerationSoftware,KiCad,Pcbnew,9.0.3*%
%TF.CreationDate,2026-06-30T21:05:37+05:30*%
%TF.ProjectId,Elo_112,456c6f5f-3131-4322-9e6b-696361645f70,rev?*%
%TF.SameCoordinates,Original*%
%TF.FileFunction,Legend,Bot*%
%TF.FilePolarity,Positive*%
%FSLAX46Y46*%
G04 Gerber Fmt 4.6, Leading zero omitted, Abs format (unit mm)*
G04 Created by KiCad (PCBNEW 9.0.3) date 2026-06-30 21:05:37*
%MOMM*%
%LPD*%
G01*
G04 APERTURE LIST*
%ADD10C,0.150000*%
%ADD11C,0.120000*%
%ADD12C,0.152400*%
%ADD13C,0.200000*%
%ADD14C,0.250000*%
G04 APERTURE END LIST*
D10*
X70317857Y-99219580D02*
X70365476Y-99267200D01*
X70365476Y-99267200D02*
X70508333Y-99314819D01*
X70508333Y-99314819D02*
X70603571Y-99314819D01*
X70603571Y-99314819D02*
X70746428Y-99267200D01*
X70746428Y-99267200D02*
X70841666Y-99171961D01*
X70841666Y-99171961D02*
X70889285Y-99076723D01*
X70889285Y-99076723D02*
X70936904Y-98886247D01*
X70936904Y-98886247D02*
X70936904Y-98743390D01*
X70936904Y-98743390D02*
X70889285Y-98552914D01*
X70889285Y-98552914D02*
X70841666Y-98457676D01*
X70841666Y-98457676D02*
X70746428Y-98362438D01*
X70746428Y-98362438D02*
X70603571Y-98314819D01*
X70603571Y-98314819D02*
X70508333Y-98314819D01*
X70508333Y-98314819D02*
X70365476Y-98362438D01*
X70365476Y-98362438D02*
X70317857Y-98410057D01*
X69365476Y-99314819D02*
X69936904Y-99314819D01*
X69651190Y-99314819D02*
X69651190Y-98314819D01*
X69651190Y-98314819D02*
X69746428Y-98457676D01*
X69746428Y-98457676D02*
X69841666Y-98552914D01*
X69841666Y-98552914D02*
X69936904Y-98600533D01*
X68984523Y-98410057D02*
X68936904Y-98362438D01*
X68936904Y-98362438D02*
X68841666Y-98314819D01*
X68841666Y-98314819D02*
X68603571Y-98314819D01*
X68603571Y-98314819D02*
X68508333Y-98362438D01*
X68508333Y-98362438D02*
X68460714Y-98410057D01*
X68460714Y-98410057D02*
X68413095Y-98505295D01*
X68413095Y-98505295D02*
X68413095Y-98600533D01*
X68413095Y-98600533D02*
X68460714Y-98743390D01*
X68460714Y-98743390D02*
X69032142Y-99314819D01*
X69032142Y-99314819D02*
X68413095Y-99314819D01*
X91942857Y-98209819D02*
X92276190Y-97733628D01*
X92514285Y-98209819D02*
X92514285Y-97209819D01*
X92514285Y-97209819D02*
X92133333Y-97209819D01*
X92133333Y-97209819D02*
X92038095Y-97257438D01*
X92038095Y-97257438D02*
X91990476Y-97305057D01*
X91990476Y-97305057D02*
X91942857Y-97400295D01*
X91942857Y-97400295D02*
X91942857Y-97543152D01*
X91942857Y-97543152D02*
X91990476Y-97638390D01*
X91990476Y-97638390D02*
X92038095Y-97686009D01*
X92038095Y-97686009D02*
X92133333Y-97733628D01*
X92133333Y-97733628D02*
X92514285Y-97733628D01*
X91561904Y-97305057D02*
X91514285Y-97257438D01*
X91514285Y-97257438D02*
X91419047Y-97209819D01*
X91419047Y-97209819D02*
X91180952Y-97209819D01*
X91180952Y-97209819D02*
X91085714Y-97257438D01*
X91085714Y-97257438D02*
X91038095Y-97305057D01*
X91038095Y-97305057D02*
X90990476Y-97400295D01*
X90990476Y-97400295D02*
X90990476Y-97495533D01*
X90990476Y-97495533D02*
X91038095Y-97638390D01*
X91038095Y-97638390D02*
X91609523Y-98209819D01*
X91609523Y-98209819D02*
X90990476Y-98209819D01*
X90038095Y-98209819D02*
X90609523Y-98209819D01*
X90323809Y-98209819D02*
X90323809Y-97209819D01*
X90323809Y-97209819D02*
X90419047Y-97352676D01*
X90419047Y-97352676D02*
X90514285Y-97447914D01*
X90514285Y-97447914D02*
X90609523Y-97495533D01*
X94628628Y-94673809D02*
X95104819Y-94673809D01*
X94104819Y-94340476D02*
X94628628Y-94673809D01*
X94628628Y-94673809D02*
X94104819Y-95007142D01*
X94200057Y-95292857D02*
X94152438Y-95340476D01*
X94152438Y-95340476D02*
X94104819Y-95435714D01*
X94104819Y-95435714D02*
X94104819Y-95673809D01*
X94104819Y-95673809D02*
X94152438Y-95769047D01*
X94152438Y-95769047D02*
X94200057Y-95816666D01*
X94200057Y-95816666D02*
X94295295Y-95864285D01*
X94295295Y-95864285D02*
X94390533Y-95864285D01*
X94390533Y-95864285D02*
X94533390Y-95816666D01*
X94533390Y-95816666D02*
X95104819Y-95245238D01*
X95104819Y-95245238D02*
X95104819Y-95864285D01*
X94694580Y-97807142D02*
X94742200Y-97759523D01*
X94742200Y-97759523D02*
X94789819Y-97616666D01*
X94789819Y-97616666D02*
X94789819Y-97521428D01*
X94789819Y-97521428D02*
X94742200Y-97378571D01*
X94742200Y-97378571D02*
X94646961Y-97283333D01*
X94646961Y-97283333D02*
X94551723Y-97235714D01*
X94551723Y-97235714D02*
X94361247Y-97188095D01*
X94361247Y-97188095D02*
X94218390Y-97188095D01*
X94218390Y-97188095D02*
X94027914Y-97235714D01*
X94027914Y-97235714D02*
X93932676Y-97283333D01*
X93932676Y-97283333D02*
X93837438Y-97378571D01*
X93837438Y-97378571D02*
X93789819Y-97521428D01*
X93789819Y-97521428D02*
X93789819Y-97616666D01*
X93789819Y-97616666D02*
X93837438Y-97759523D01*
X93837438Y-97759523D02*
X93885057Y-97807142D01*
X94789819Y-98759523D02*
X94789819Y-98188095D01*
X94789819Y-98473809D02*
X93789819Y-98473809D01*
X93789819Y-98473809D02*
X93932676Y-98378571D01*
X93932676Y-98378571D02*
X94027914Y-98283333D01*
X94027914Y-98283333D02*
X94075533Y-98188095D01*
X93789819Y-99664285D02*
X93789819Y-99188095D01*
X93789819Y-99188095D02*
X94266009Y-99140476D01*
X94266009Y-99140476D02*
X94218390Y-99188095D01*
X94218390Y-99188095D02*
X94170771Y-99283333D01*
X94170771Y-99283333D02*
X94170771Y-99521428D01*
X94170771Y-99521428D02*
X94218390Y-99616666D01*
X94218390Y-99616666D02*
X94266009Y-99664285D01*
X94266009Y-99664285D02*
X94361247Y-99711904D01*
X94361247Y-99711904D02*
X94599342Y-99711904D01*
X94599342Y-99711904D02*
X94694580Y-99664285D01*
X94694580Y-99664285D02*
X94742200Y-99616666D01*
X94742200Y-99616666D02*
X94789819Y-99521428D01*
X94789819Y-99521428D02*
X94789819Y-99283333D01*
X94789819Y-99283333D02*
X94742200Y-99188095D01*
X94742200Y-99188095D02*
X94694580Y-99140476D01*
X91942857Y-99419580D02*
X91990476Y-99467200D01*
X91990476Y-99467200D02*
X92133333Y-99514819D01*
X92133333Y-99514819D02*
X92228571Y-99514819D01*
X92228571Y-99514819D02*
X92371428Y-99467200D01*
X92371428Y-99467200D02*
X92466666Y-99371961D01*
X92466666Y-99371961D02*
X92514285Y-99276723D01*
X92514285Y-99276723D02*
X92561904Y-99086247D01*
X92561904Y-99086247D02*
X92561904Y-98943390D01*
X92561904Y-98943390D02*
X92514285Y-98752914D01*
X92514285Y-98752914D02*
X92466666Y-98657676D01*
X92466666Y-98657676D02*
X92371428Y-98562438D01*
X92371428Y-98562438D02*
X92228571Y-98514819D01*
X92228571Y-98514819D02*
X92133333Y-98514819D01*
X92133333Y-98514819D02*
X91990476Y-98562438D01*
X91990476Y-98562438D02*
X91942857Y-98610057D01*
X90990476Y-99514819D02*
X91561904Y-99514819D01*
X91276190Y-99514819D02*
X91276190Y-98514819D01*
X91276190Y-98514819D02*
X91371428Y-98657676D01*
X91371428Y-98657676D02*
X91466666Y-98752914D01*
X91466666Y-98752914D02*
X91561904Y-98800533D01*
X90133333Y-98848152D02*
X90133333Y-99514819D01*
X90371428Y-98467200D02*
X90609523Y-99181485D01*
X90609523Y-99181485D02*
X89990476Y-99181485D01*
X91644819Y-88104642D02*
X91168628Y-87771309D01*
X91644819Y-87533214D02*
X90644819Y-87533214D01*
X90644819Y-87533214D02*
X90644819Y-87914166D01*
X90644819Y-87914166D02*
X90692438Y-88009404D01*
X90692438Y-88009404D02*
X90740057Y-88057023D01*
X90740057Y-88057023D02*
X90835295Y-88104642D01*
X90835295Y-88104642D02*
X90978152Y-88104642D01*
X90978152Y-88104642D02*
X91073390Y-88057023D01*
X91073390Y-88057023D02*
X91121009Y-88009404D01*
X91121009Y-88009404D02*
X91168628Y-87914166D01*
X91168628Y-87914166D02*
X91168628Y-87533214D01*
X91644819Y-89057023D02*
X91644819Y-88485595D01*
X91644819Y-88771309D02*
X90644819Y-88771309D01*
X90644819Y-88771309D02*
X90787676Y-88676071D01*
X90787676Y-88676071D02*
X90882914Y-88580833D01*
X90882914Y-88580833D02*
X90930533Y-88485595D01*
X90644819Y-89914166D02*
X90644819Y-89723690D01*
X90644819Y-89723690D02*
X90692438Y-89628452D01*
X90692438Y-89628452D02*
X90740057Y-89580833D01*
X90740057Y-89580833D02*
X90882914Y-89485595D01*
X90882914Y-89485595D02*
X91073390Y-89437976D01*
X91073390Y-89437976D02*
X91454342Y-89437976D01*
X91454342Y-89437976D02*
X91549580Y-89485595D01*
X91549580Y-89485595D02*
X91597200Y-89533214D01*
X91597200Y-89533214D02*
X91644819Y-89628452D01*
X91644819Y-89628452D02*
X91644819Y-89818928D01*
X91644819Y-89818928D02*
X91597200Y-89914166D01*
X91597200Y-89914166D02*
X91549580Y-89961785D01*
X91549580Y-89961785D02*
X91454342Y-90009404D01*
X91454342Y-90009404D02*
X91216247Y-90009404D01*
X91216247Y-90009404D02*
X91121009Y-89961785D01*
X91121009Y-89961785D02*
X91073390Y-89914166D01*
X91073390Y-89914166D02*
X91025771Y-89818928D01*
X91025771Y-89818928D02*
X91025771Y-89628452D01*
X91025771Y-89628452D02*
X91073390Y-89533214D01*
X91073390Y-89533214D02*
X91121009Y-89485595D01*
X91121009Y-89485595D02*
X91216247Y-89437976D01*
X98505238Y-97580057D02*
X98600476Y-97532438D01*
X98600476Y-97532438D02*
X98695714Y-97437200D01*
X98695714Y-97437200D02*
X98838571Y-97294342D01*
X98838571Y-97294342D02*
X98933809Y-97246723D01*
X98933809Y-97246723D02*
X99029047Y-97246723D01*
X98981428Y-97484819D02*
X99076666Y-97437200D01*
X99076666Y-97437200D02*
X99171904Y-97341961D01*
X99171904Y-97341961D02*
X99219523Y-97151485D01*
X99219523Y-97151485D02*
X99219523Y-96818152D01*
X99219523Y-96818152D02*
X99171904Y-96627676D01*
X99171904Y-96627676D02*
X99076666Y-96532438D01*
X99076666Y-96532438D02*
X98981428Y-96484819D01*
X98981428Y-96484819D02*
X98790952Y-96484819D01*
X98790952Y-96484819D02*
X98695714Y-96532438D01*
X98695714Y-96532438D02*
X98600476Y-96627676D01*
X98600476Y-96627676D02*
X98552857Y-96818152D01*
X98552857Y-96818152D02*
X98552857Y-97151485D01*
X98552857Y-97151485D02*
X98600476Y-97341961D01*
X98600476Y-97341961D02*
X98695714Y-97437200D01*
X98695714Y-97437200D02*
X98790952Y-97484819D01*
X98790952Y-97484819D02*
X98981428Y-97484819D01*
X98171904Y-96580057D02*
X98124285Y-96532438D01*
X98124285Y-96532438D02*
X98029047Y-96484819D01*
X98029047Y-96484819D02*
X97790952Y-96484819D01*
X97790952Y-96484819D02*
X97695714Y-96532438D01*
X97695714Y-96532438D02*
X97648095Y-96580057D01*
X97648095Y-96580057D02*
X97600476Y-96675295D01*
X97600476Y-96675295D02*
X97600476Y-96770533D01*
X97600476Y-96770533D02*
X97648095Y-96913390D01*
X97648095Y-96913390D02*
X98219523Y-97484819D01*
X98219523Y-97484819D02*
X97600476Y-97484819D01*
X74370057Y-81621071D02*
X74322438Y-81525833D01*
X74322438Y-81525833D02*
X74227200Y-81430595D01*
X74227200Y-81430595D02*
X74084342Y-81287738D01*
X74084342Y-81287738D02*
X74036723Y-81192500D01*
X74036723Y-81192500D02*
X74036723Y-81097262D01*
X74274819Y-81144881D02*
X74227200Y-81049643D01*
X74227200Y-81049643D02*
X74131961Y-80954405D01*
X74131961Y-80954405D02*
X73941485Y-80906786D01*
X73941485Y-80906786D02*
X73608152Y-80906786D01*
X73608152Y-80906786D02*
X73417676Y-80954405D01*
X73417676Y-80954405D02*
X73322438Y-81049643D01*
X73322438Y-81049643D02*
X73274819Y-81144881D01*
X73274819Y-81144881D02*
X73274819Y-81335357D01*
X73274819Y-81335357D02*
X73322438Y-81430595D01*
X73322438Y-81430595D02*
X73417676Y-81525833D01*
X73417676Y-81525833D02*
X73608152Y-81573452D01*
X73608152Y-81573452D02*
X73941485Y-81573452D01*
X73941485Y-81573452D02*
X74131961Y-81525833D01*
X74131961Y-81525833D02*
X74227200Y-81430595D01*
X74227200Y-81430595D02*
X74274819Y-81335357D01*
X74274819Y-81335357D02*
X74274819Y-81144881D01*
X74274819Y-82525833D02*
X74274819Y-81954405D01*
X74274819Y-82240119D02*
X73274819Y-82240119D01*
X73274819Y-82240119D02*
X73417676Y-82144881D01*
X73417676Y-82144881D02*
X73512914Y-82049643D01*
X73512914Y-82049643D02*
X73560533Y-81954405D01*
X73274819Y-82859167D02*
X73274819Y-83478214D01*
X73274819Y-83478214D02*
X73655771Y-83144881D01*
X73655771Y-83144881D02*
X73655771Y-83287738D01*
X73655771Y-83287738D02*
X73703390Y-83382976D01*
X73703390Y-83382976D02*
X73751009Y-83430595D01*
X73751009Y-83430595D02*
X73846247Y-83478214D01*
X73846247Y-83478214D02*
X74084342Y-83478214D01*
X74084342Y-83478214D02*
X74179580Y-83430595D01*
X74179580Y-83430595D02*
X74227200Y-83382976D01*
X74227200Y-83382976D02*
X74274819Y-83287738D01*
X74274819Y-83287738D02*
X74274819Y-83002024D01*
X74274819Y-83002024D02*
X74227200Y-82906786D01*
X74227200Y-82906786D02*
X74179580Y-82859167D01*
X100059819Y-88074642D02*
X99583628Y-87741309D01*
X100059819Y-87503214D02*
X99059819Y-87503214D01*
X99059819Y-87503214D02*
X99059819Y-87884166D01*
X99059819Y-87884166D02*
X99107438Y-87979404D01*
X99107438Y-87979404D02*
X99155057Y-88027023D01*
X99155057Y-88027023D02*
X99250295Y-88074642D01*
X99250295Y-88074642D02*
X99393152Y-88074642D01*
X99393152Y-88074642D02*
X99488390Y-88027023D01*
X99488390Y-88027023D02*
X99536009Y-87979404D01*
X99536009Y-87979404D02*
X99583628Y-87884166D01*
X99583628Y-87884166D02*
X99583628Y-87503214D01*
X99155057Y-88455595D02*
X99107438Y-88503214D01*
X99107438Y-88503214D02*
X99059819Y-88598452D01*
X99059819Y-88598452D02*
X99059819Y-88836547D01*
X99059819Y-88836547D02*
X99107438Y-88931785D01*
X99107438Y-88931785D02*
X99155057Y-88979404D01*
X99155057Y-88979404D02*
X99250295Y-89027023D01*
X99250295Y-89027023D02*
X99345533Y-89027023D01*
X99345533Y-89027023D02*
X99488390Y-88979404D01*
X99488390Y-88979404D02*
X100059819Y-88407976D01*
X100059819Y-88407976D02*
X100059819Y-89027023D01*
X99059819Y-89646071D02*
X99059819Y-89741309D01*
X99059819Y-89741309D02*
X99107438Y-89836547D01*
X99107438Y-89836547D02*
X99155057Y-89884166D01*
X99155057Y-89884166D02*
X99250295Y-89931785D01*
X99250295Y-89931785D02*
X99440771Y-89979404D01*
X99440771Y-89979404D02*
X99678866Y-89979404D01*
X99678866Y-89979404D02*
X99869342Y-89931785D01*
X99869342Y-89931785D02*
X99964580Y-89884166D01*
X99964580Y-89884166D02*
X100012200Y-89836547D01*
X100012200Y-89836547D02*
X100059819Y-89741309D01*
X100059819Y-89741309D02*
X100059819Y-89646071D01*
X100059819Y-89646071D02*
X100012200Y-89550833D01*
X100012200Y-89550833D02*
X99964580Y-89503214D01*
X99964580Y-89503214D02*
X99869342Y-89455595D01*
X99869342Y-89455595D02*
X99678866Y-89407976D01*
X99678866Y-89407976D02*
X99440771Y-89407976D01*
X99440771Y-89407976D02*
X99250295Y-89455595D01*
X99250295Y-89455595D02*
X99155057Y-89503214D01*
X99155057Y-89503214D02*
X99107438Y-89550833D01*
X99107438Y-89550833D02*
X99059819Y-89646071D01*
X97944819Y-88084642D02*
X97468628Y-87751309D01*
X97944819Y-87513214D02*
X96944819Y-87513214D01*
X96944819Y-87513214D02*
X96944819Y-87894166D01*
X96944819Y-87894166D02*
X96992438Y-87989404D01*
X96992438Y-87989404D02*
X97040057Y-88037023D01*
X97040057Y-88037023D02*
X97135295Y-88084642D01*
X97135295Y-88084642D02*
X97278152Y-88084642D01*
X97278152Y-88084642D02*
X97373390Y-88037023D01*
X97373390Y-88037023D02*
X97421009Y-87989404D01*
X97421009Y-87989404D02*
X97468628Y-87894166D01*
X97468628Y-87894166D02*
X97468628Y-87513214D01*
X97944819Y-89037023D02*
X97944819Y-88465595D01*
X97944819Y-88751309D02*
X96944819Y-88751309D01*
X96944819Y-88751309D02*
X97087676Y-88656071D01*
X97087676Y-88656071D02*
X97182914Y-88560833D01*
X97182914Y-88560833D02*
X97230533Y-88465595D01*
X97944819Y-89513214D02*
X97944819Y-89703690D01*
X97944819Y-89703690D02*
X97897200Y-89798928D01*
X97897200Y-89798928D02*
X97849580Y-89846547D01*
X97849580Y-89846547D02*
X97706723Y-89941785D01*
X97706723Y-89941785D02*
X97516247Y-89989404D01*
X97516247Y-89989404D02*
X97135295Y-89989404D01*
X97135295Y-89989404D02*
X97040057Y-89941785D01*
X97040057Y-89941785D02*
X96992438Y-89894166D01*
X96992438Y-89894166D02*
X96944819Y-89798928D01*
X96944819Y-89798928D02*
X96944819Y-89608452D01*
X96944819Y-89608452D02*
X96992438Y-89513214D01*
X96992438Y-89513214D02*
X97040057Y-89465595D01*
X97040057Y-89465595D02*
X97135295Y-89417976D01*
X97135295Y-89417976D02*
X97373390Y-89417976D01*
X97373390Y-89417976D02*
X97468628Y-89465595D01*
X97468628Y-89465595D02*
X97516247Y-89513214D01*
X97516247Y-89513214D02*
X97563866Y-89608452D01*
X97563866Y-89608452D02*
X97563866Y-89798928D01*
X97563866Y-89798928D02*
X97516247Y-89894166D01*
X97516247Y-89894166D02*
X97468628Y-89941785D01*
X97468628Y-89941785D02*
X97373390Y-89989404D01*
X98500238Y-104402557D02*
X98595476Y-104354938D01*
X98595476Y-104354938D02*
X98690714Y-104259700D01*
X98690714Y-104259700D02*
X98833571Y-104116842D01*
X98833571Y-104116842D02*
X98928809Y-104069223D01*
X98928809Y-104069223D02*
X99024047Y-104069223D01*
X98976428Y-104307319D02*
X99071666Y-104259700D01*
X99071666Y-104259700D02*
X99166904Y-104164461D01*
X99166904Y-104164461D02*
X99214523Y-103973985D01*
X99214523Y-103973985D02*
X99214523Y-103640652D01*
X99214523Y-103640652D02*
X99166904Y-103450176D01*
X99166904Y-103450176D02*
X99071666Y-103354938D01*
X99071666Y-103354938D02*
X98976428Y-103307319D01*
X98976428Y-103307319D02*
X98785952Y-103307319D01*
X98785952Y-103307319D02*
X98690714Y-103354938D01*
X98690714Y-103354938D02*
X98595476Y-103450176D01*
X98595476Y-103450176D02*
X98547857Y-103640652D01*
X98547857Y-103640652D02*
X98547857Y-103973985D01*
X98547857Y-103973985D02*
X98595476Y-104164461D01*
X98595476Y-104164461D02*
X98690714Y-104259700D01*
X98690714Y-104259700D02*
X98785952Y-104307319D01*
X98785952Y-104307319D02*
X98976428Y-104307319D01*
X97690714Y-103307319D02*
X97881190Y-103307319D01*
X97881190Y-103307319D02*
X97976428Y-103354938D01*
X97976428Y-103354938D02*
X98024047Y-103402557D01*
X98024047Y-103402557D02*
X98119285Y-103545414D01*
X98119285Y-103545414D02*
X98166904Y-103735890D01*
X98166904Y-103735890D02*
X98166904Y-104116842D01*
X98166904Y-104116842D02*
X98119285Y-104212080D01*
X98119285Y-104212080D02*
X98071666Y-104259700D01*
X98071666Y-104259700D02*
X97976428Y-104307319D01*
X97976428Y-104307319D02*
X97785952Y-104307319D01*
X97785952Y-104307319D02*
X97690714Y-104259700D01*
X97690714Y-104259700D02*
X97643095Y-104212080D01*
X97643095Y-104212080D02*
X97595476Y-104116842D01*
X97595476Y-104116842D02*
X97595476Y-103878747D01*
X97595476Y-103878747D02*
X97643095Y-103783509D01*
X97643095Y-103783509D02*
X97690714Y-103735890D01*
X97690714Y-103735890D02*
X97785952Y-103688271D01*
X97785952Y-103688271D02*
X97976428Y-103688271D01*
X97976428Y-103688271D02*
X98071666Y-103735890D01*
X98071666Y-103735890D02*
X98119285Y-103783509D01*
X98119285Y-103783509D02*
X98166904Y-103878747D01*
X85966904Y-92957319D02*
X85966904Y-93766842D01*
X85966904Y-93766842D02*
X85919285Y-93862080D01*
X85919285Y-93862080D02*
X85871666Y-93909700D01*
X85871666Y-93909700D02*
X85776428Y-93957319D01*
X85776428Y-93957319D02*
X85585952Y-93957319D01*
X85585952Y-93957319D02*
X85490714Y-93909700D01*
X85490714Y-93909700D02*
X85443095Y-93862080D01*
X85443095Y-93862080D02*
X85395476Y-93766842D01*
X85395476Y-93766842D02*
X85395476Y-92957319D01*
X84395476Y-93957319D02*
X84966904Y-93957319D01*
X84681190Y-93957319D02*
X84681190Y-92957319D01*
X84681190Y-92957319D02*
X84776428Y-93100176D01*
X84776428Y-93100176D02*
X84871666Y-93195414D01*
X84871666Y-93195414D02*
X84966904Y-93243033D01*
X68201190Y-98828628D02*
X68201190Y-99304819D01*
X68534523Y-98304819D02*
X68201190Y-98828628D01*
X68201190Y-98828628D02*
X67867857Y-98304819D01*
X67010714Y-99304819D02*
X67582142Y-99304819D01*
X67296428Y-99304819D02*
X67296428Y-98304819D01*
X67296428Y-98304819D02*
X67391666Y-98447676D01*
X67391666Y-98447676D02*
X67486904Y-98542914D01*
X67486904Y-98542914D02*
X67582142Y-98590533D01*
X88882800Y-108830832D02*
X88835180Y-108687975D01*
X88835180Y-108687975D02*
X88835180Y-108449880D01*
X88835180Y-108449880D02*
X88882800Y-108354642D01*
X88882800Y-108354642D02*
X88930419Y-108307023D01*
X88930419Y-108307023D02*
X89025657Y-108259404D01*
X89025657Y-108259404D02*
X89120895Y-108259404D01*
X89120895Y-108259404D02*
X89216133Y-108307023D01*
X89216133Y-108307023D02*
X89263752Y-108354642D01*
X89263752Y-108354642D02*
X89311371Y-108449880D01*
X89311371Y-108449880D02*
X89358990Y-108640356D01*
X89358990Y-108640356D02*
X89406609Y-108735594D01*
X89406609Y-108735594D02*
X89454228Y-108783213D01*
X89454228Y-108783213D02*
X89549466Y-108830832D01*
X89549466Y-108830832D02*
X89644704Y-108830832D01*
X89644704Y-108830832D02*
X89739942Y-108783213D01*
X89739942Y-108783213D02*
X89787561Y-108735594D01*
X89787561Y-108735594D02*
X89835180Y-108640356D01*
X89835180Y-108640356D02*
X89835180Y-108402261D01*
X89835180Y-108402261D02*
X89787561Y-108259404D01*
X89835180Y-107926070D02*
X88835180Y-107687975D01*
X88835180Y-107687975D02*
X89549466Y-107497499D01*
X89549466Y-107497499D02*
X88835180Y-107307023D01*
X88835180Y-107307023D02*
X89835180Y-107068928D01*
X88835180Y-106164166D02*
X88835180Y-106735594D01*
X88835180Y-106449880D02*
X89835180Y-106449880D01*
X89835180Y-106449880D02*
X89692323Y-106545118D01*
X89692323Y-106545118D02*
X89597085Y-106640356D01*
X89597085Y-106640356D02*
X89549466Y-106735594D01*
X95854819Y-88074642D02*
X95378628Y-87741309D01*
X95854819Y-87503214D02*
X94854819Y-87503214D01*
X94854819Y-87503214D02*
X94854819Y-87884166D01*
X94854819Y-87884166D02*
X94902438Y-87979404D01*
X94902438Y-87979404D02*
X94950057Y-88027023D01*
X94950057Y-88027023D02*
X95045295Y-88074642D01*
X95045295Y-88074642D02*
X95188152Y-88074642D01*
X95188152Y-88074642D02*
X95283390Y-88027023D01*
X95283390Y-88027023D02*
X95331009Y-87979404D01*
X95331009Y-87979404D02*
X95378628Y-87884166D01*
X95378628Y-87884166D02*
X95378628Y-87503214D01*
X95854819Y-89027023D02*
X95854819Y-88455595D01*
X95854819Y-88741309D02*
X94854819Y-88741309D01*
X94854819Y-88741309D02*
X94997676Y-88646071D01*
X94997676Y-88646071D02*
X95092914Y-88550833D01*
X95092914Y-88550833D02*
X95140533Y-88455595D01*
X95283390Y-89598452D02*
X95235771Y-89503214D01*
X95235771Y-89503214D02*
X95188152Y-89455595D01*
X95188152Y-89455595D02*
X95092914Y-89407976D01*
X95092914Y-89407976D02*
X95045295Y-89407976D01*
X95045295Y-89407976D02*
X94950057Y-89455595D01*
X94950057Y-89455595D02*
X94902438Y-89503214D01*
X94902438Y-89503214D02*
X94854819Y-89598452D01*
X94854819Y-89598452D02*
X94854819Y-89788928D01*
X94854819Y-89788928D02*
X94902438Y-89884166D01*
X94902438Y-89884166D02*
X94950057Y-89931785D01*
X94950057Y-89931785D02*
X95045295Y-89979404D01*
X95045295Y-89979404D02*
X95092914Y-89979404D01*
X95092914Y-89979404D02*
X95188152Y-89931785D01*
X95188152Y-89931785D02*
X95235771Y-89884166D01*
X95235771Y-89884166D02*
X95283390Y-89788928D01*
X95283390Y-89788928D02*
X95283390Y-89598452D01*
X95283390Y-89598452D02*
X95331009Y-89503214D01*
X95331009Y-89503214D02*
X95378628Y-89455595D01*
X95378628Y-89455595D02*
X95473866Y-89407976D01*
X95473866Y-89407976D02*
X95664342Y-89407976D01*
X95664342Y-89407976D02*
X95759580Y-89455595D01*
X95759580Y-89455595D02*
X95807200Y-89503214D01*
X95807200Y-89503214D02*
X95854819Y-89598452D01*
X95854819Y-89598452D02*
X95854819Y-89788928D01*
X95854819Y-89788928D02*
X95807200Y-89884166D01*
X95807200Y-89884166D02*
X95759580Y-89931785D01*
X95759580Y-89931785D02*
X95664342Y-89979404D01*
X95664342Y-89979404D02*
X95473866Y-89979404D01*
X95473866Y-89979404D02*
X95378628Y-89931785D01*
X95378628Y-89931785D02*
X95331009Y-89884166D01*
X95331009Y-89884166D02*
X95283390Y-89788928D01*
X93754819Y-88074642D02*
X93278628Y-87741309D01*
X93754819Y-87503214D02*
X92754819Y-87503214D01*
X92754819Y-87503214D02*
X92754819Y-87884166D01*
X92754819Y-87884166D02*
X92802438Y-87979404D01*
X92802438Y-87979404D02*
X92850057Y-88027023D01*
X92850057Y-88027023D02*
X92945295Y-88074642D01*
X92945295Y-88074642D02*
X93088152Y-88074642D01*
X93088152Y-88074642D02*
X93183390Y-88027023D01*
X93183390Y-88027023D02*
X93231009Y-87979404D01*
X93231009Y-87979404D02*
X93278628Y-87884166D01*
X93278628Y-87884166D02*
X93278628Y-87503214D01*
X93754819Y-89027023D02*
X93754819Y-88455595D01*
X93754819Y-88741309D02*
X92754819Y-88741309D01*
X92754819Y-88741309D02*
X92897676Y-88646071D01*
X92897676Y-88646071D02*
X92992914Y-88550833D01*
X92992914Y-88550833D02*
X93040533Y-88455595D01*
X92754819Y-89360357D02*
X92754819Y-90027023D01*
X92754819Y-90027023D02*
X93754819Y-89598452D01*
X90437857Y-113587319D02*
X90771190Y-113111128D01*
X91009285Y-113587319D02*
X91009285Y-112587319D01*
X91009285Y-112587319D02*
X90628333Y-112587319D01*
X90628333Y-112587319D02*
X90533095Y-112634938D01*
X90533095Y-112634938D02*
X90485476Y-112682557D01*
X90485476Y-112682557D02*
X90437857Y-112777795D01*
X90437857Y-112777795D02*
X90437857Y-112920652D01*
X90437857Y-112920652D02*
X90485476Y-113015890D01*
X90485476Y-113015890D02*
X90533095Y-113063509D01*
X90533095Y-113063509D02*
X90628333Y-113111128D01*
X90628333Y-113111128D02*
X91009285Y-113111128D01*
X90056904Y-112682557D02*
X90009285Y-112634938D01*
X90009285Y-112634938D02*
X89914047Y-112587319D01*
X89914047Y-112587319D02*
X89675952Y-112587319D01*
X89675952Y-112587319D02*
X89580714Y-112634938D01*
X89580714Y-112634938D02*
X89533095Y-112682557D01*
X89533095Y-112682557D02*
X89485476Y-112777795D01*
X89485476Y-112777795D02*
X89485476Y-112873033D01*
X89485476Y-112873033D02*
X89533095Y-113015890D01*
X89533095Y-113015890D02*
X90104523Y-113587319D01*
X90104523Y-113587319D02*
X89485476Y-113587319D01*
X89152142Y-112587319D02*
X88533095Y-112587319D01*
X88533095Y-112587319D02*
X88866428Y-112968271D01*
X88866428Y-112968271D02*
X88723571Y-112968271D01*
X88723571Y-112968271D02*
X88628333Y-113015890D01*
X88628333Y-113015890D02*
X88580714Y-113063509D01*
X88580714Y-113063509D02*
X88533095Y-113158747D01*
X88533095Y-113158747D02*
X88533095Y-113396842D01*
X88533095Y-113396842D02*
X88580714Y-113492080D01*
X88580714Y-113492080D02*
X88628333Y-113539700D01*
X88628333Y-113539700D02*
X88723571Y-113587319D01*
X88723571Y-113587319D02*
X89009285Y-113587319D01*
X89009285Y-113587319D02*
X89104523Y-113539700D01*
X89104523Y-113539700D02*
X89152142Y-113492080D01*
X81101666Y-103022080D02*
X81149285Y-103069700D01*
X81149285Y-103069700D02*
X81292142Y-103117319D01*
X81292142Y-103117319D02*
X81387380Y-103117319D01*
X81387380Y-103117319D02*
X81530237Y-103069700D01*
X81530237Y-103069700D02*
X81625475Y-102974461D01*
X81625475Y-102974461D02*
X81673094Y-102879223D01*
X81673094Y-102879223D02*
X81720713Y-102688747D01*
X81720713Y-102688747D02*
X81720713Y-102545890D01*
X81720713Y-102545890D02*
X81673094Y-102355414D01*
X81673094Y-102355414D02*
X81625475Y-102260176D01*
X81625475Y-102260176D02*
X81530237Y-102164938D01*
X81530237Y-102164938D02*
X81387380Y-102117319D01*
X81387380Y-102117319D02*
X81292142Y-102117319D01*
X81292142Y-102117319D02*
X81149285Y-102164938D01*
X81149285Y-102164938D02*
X81101666Y-102212557D01*
X80530237Y-102545890D02*
X80625475Y-102498271D01*
X80625475Y-102498271D02*
X80673094Y-102450652D01*
X80673094Y-102450652D02*
X80720713Y-102355414D01*
X80720713Y-102355414D02*
X80720713Y-102307795D01*
X80720713Y-102307795D02*
X80673094Y-102212557D01*
X80673094Y-102212557D02*
X80625475Y-102164938D01*
X80625475Y-102164938D02*
X80530237Y-102117319D01*
X80530237Y-102117319D02*
X80339761Y-102117319D01*
X80339761Y-102117319D02*
X80244523Y-102164938D01*
X80244523Y-102164938D02*
X80196904Y-102212557D01*
X80196904Y-102212557D02*
X80149285Y-102307795D01*
X80149285Y-102307795D02*
X80149285Y-102355414D01*
X80149285Y-102355414D02*
X80196904Y-102450652D01*
X80196904Y-102450652D02*
X80244523Y-102498271D01*
X80244523Y-102498271D02*
X80339761Y-102545890D01*
X80339761Y-102545890D02*
X80530237Y-102545890D01*
X80530237Y-102545890D02*
X80625475Y-102593509D01*
X80625475Y-102593509D02*
X80673094Y-102641128D01*
X80673094Y-102641128D02*
X80720713Y-102736366D01*
X80720713Y-102736366D02*
X80720713Y-102926842D01*
X80720713Y-102926842D02*
X80673094Y-103022080D01*
X80673094Y-103022080D02*
X80625475Y-103069700D01*
X80625475Y-103069700D02*
X80530237Y-103117319D01*
X80530237Y-103117319D02*
X80339761Y-103117319D01*
X80339761Y-103117319D02*
X80244523Y-103069700D01*
X80244523Y-103069700D02*
X80196904Y-103022080D01*
X80196904Y-103022080D02*
X80149285Y-102926842D01*
X80149285Y-102926842D02*
X80149285Y-102736366D01*
X80149285Y-102736366D02*
X80196904Y-102641128D01*
X80196904Y-102641128D02*
X80244523Y-102593509D01*
X80244523Y-102593509D02*
X80339761Y-102545890D01*
X93804285Y-110767319D02*
X93804285Y-109767319D01*
X93804285Y-109767319D02*
X93566190Y-109767319D01*
X93566190Y-109767319D02*
X93423333Y-109814938D01*
X93423333Y-109814938D02*
X93328095Y-109910176D01*
X93328095Y-109910176D02*
X93280476Y-110005414D01*
X93280476Y-110005414D02*
X93232857Y-110195890D01*
X93232857Y-110195890D02*
X93232857Y-110338747D01*
X93232857Y-110338747D02*
X93280476Y-110529223D01*
X93280476Y-110529223D02*
X93328095Y-110624461D01*
X93328095Y-110624461D02*
X93423333Y-110719700D01*
X93423333Y-110719700D02*
X93566190Y-110767319D01*
X93566190Y-110767319D02*
X93804285Y-110767319D01*
X92375714Y-109767319D02*
X92566190Y-109767319D01*
X92566190Y-109767319D02*
X92661428Y-109814938D01*
X92661428Y-109814938D02*
X92709047Y-109862557D01*
X92709047Y-109862557D02*
X92804285Y-110005414D01*
X92804285Y-110005414D02*
X92851904Y-110195890D01*
X92851904Y-110195890D02*
X92851904Y-110576842D01*
X92851904Y-110576842D02*
X92804285Y-110672080D01*
X92804285Y-110672080D02*
X92756666Y-110719700D01*
X92756666Y-110719700D02*
X92661428Y-110767319D01*
X92661428Y-110767319D02*
X92470952Y-110767319D01*
X92470952Y-110767319D02*
X92375714Y-110719700D01*
X92375714Y-110719700D02*
X92328095Y-110672080D01*
X92328095Y-110672080D02*
X92280476Y-110576842D01*
X92280476Y-110576842D02*
X92280476Y-110338747D01*
X92280476Y-110338747D02*
X92328095Y-110243509D01*
X92328095Y-110243509D02*
X92375714Y-110195890D01*
X92375714Y-110195890D02*
X92470952Y-110148271D01*
X92470952Y-110148271D02*
X92661428Y-110148271D01*
X92661428Y-110148271D02*
X92756666Y-110195890D01*
X92756666Y-110195890D02*
X92804285Y-110243509D01*
X92804285Y-110243509D02*
X92851904Y-110338747D01*
X91947142Y-109767319D02*
X91280476Y-109767319D01*
X91280476Y-109767319D02*
X91709047Y-110767319D01*
X92542800Y-108839832D02*
X92495180Y-108696975D01*
X92495180Y-108696975D02*
X92495180Y-108458880D01*
X92495180Y-108458880D02*
X92542800Y-108363642D01*
X92542800Y-108363642D02*
X92590419Y-108316023D01*
X92590419Y-108316023D02*
X92685657Y-108268404D01*
X92685657Y-108268404D02*
X92780895Y-108268404D01*
X92780895Y-108268404D02*
X92876133Y-108316023D01*
X92876133Y-108316023D02*
X92923752Y-108363642D01*
X92923752Y-108363642D02*
X92971371Y-108458880D01*
X92971371Y-108458880D02*
X93018990Y-108649356D01*
X93018990Y-108649356D02*
X93066609Y-108744594D01*
X93066609Y-108744594D02*
X93114228Y-108792213D01*
X93114228Y-108792213D02*
X93209466Y-108839832D01*
X93209466Y-108839832D02*
X93304704Y-108839832D01*
X93304704Y-108839832D02*
X93399942Y-108792213D01*
X93399942Y-108792213D02*
X93447561Y-108744594D01*
X93447561Y-108744594D02*
X93495180Y-108649356D01*
X93495180Y-108649356D02*
X93495180Y-108411261D01*
X93495180Y-108411261D02*
X93447561Y-108268404D01*
X93495180Y-107935070D02*
X92495180Y-107696975D01*
X92495180Y-107696975D02*
X93209466Y-107506499D01*
X93209466Y-107506499D02*
X92495180Y-107316023D01*
X92495180Y-107316023D02*
X93495180Y-107077928D01*
X93399942Y-106744594D02*
X93447561Y-106696975D01*
X93447561Y-106696975D02*
X93495180Y-106601737D01*
X93495180Y-106601737D02*
X93495180Y-106363642D01*
X93495180Y-106363642D02*
X93447561Y-106268404D01*
X93447561Y-106268404D02*
X93399942Y-106220785D01*
X93399942Y-106220785D02*
X93304704Y-106173166D01*
X93304704Y-106173166D02*
X93209466Y-106173166D01*
X93209466Y-106173166D02*
X93066609Y-106220785D01*
X93066609Y-106220785D02*
X92495180Y-106792213D01*
X92495180Y-106792213D02*
X92495180Y-106173166D01*
X67092857Y-97349580D02*
X67140476Y-97397200D01*
X67140476Y-97397200D02*
X67283333Y-97444819D01*
X67283333Y-97444819D02*
X67378571Y-97444819D01*
X67378571Y-97444819D02*
X67521428Y-97397200D01*
X67521428Y-97397200D02*
X67616666Y-97301961D01*
X67616666Y-97301961D02*
X67664285Y-97206723D01*
X67664285Y-97206723D02*
X67711904Y-97016247D01*
X67711904Y-97016247D02*
X67711904Y-96873390D01*
X67711904Y-96873390D02*
X67664285Y-96682914D01*
X67664285Y-96682914D02*
X67616666Y-96587676D01*
X67616666Y-96587676D02*
X67521428Y-96492438D01*
X67521428Y-96492438D02*
X67378571Y-96444819D01*
X67378571Y-96444819D02*
X67283333Y-96444819D01*
X67283333Y-96444819D02*
X67140476Y-96492438D01*
X67140476Y-96492438D02*
X67092857Y-96540057D01*
X66140476Y-97444819D02*
X66711904Y-97444819D01*
X66426190Y-97444819D02*
X66426190Y-96444819D01*
X66426190Y-96444819D02*
X66521428Y-96587676D01*
X66521428Y-96587676D02*
X66616666Y-96682914D01*
X66616666Y-96682914D02*
X66711904Y-96730533D01*
X65283333Y-96444819D02*
X65473809Y-96444819D01*
X65473809Y-96444819D02*
X65569047Y-96492438D01*
X65569047Y-96492438D02*
X65616666Y-96540057D01*
X65616666Y-96540057D02*
X65711904Y-96682914D01*
X65711904Y-96682914D02*
X65759523Y-96873390D01*
X65759523Y-96873390D02*
X65759523Y-97254342D01*
X65759523Y-97254342D02*
X65711904Y-97349580D01*
X65711904Y-97349580D02*
X65664285Y-97397200D01*
X65664285Y-97397200D02*
X65569047Y-97444819D01*
X65569047Y-97444819D02*
X65378571Y-97444819D01*
X65378571Y-97444819D02*
X65283333Y-97397200D01*
X65283333Y-97397200D02*
X65235714Y-97349580D01*
X65235714Y-97349580D02*
X65188095Y-97254342D01*
X65188095Y-97254342D02*
X65188095Y-97016247D01*
X65188095Y-97016247D02*
X65235714Y-96921009D01*
X65235714Y-96921009D02*
X65283333Y-96873390D01*
X65283333Y-96873390D02*
X65378571Y-96825771D01*
X65378571Y-96825771D02*
X65569047Y-96825771D01*
X65569047Y-96825771D02*
X65664285Y-96873390D01*
X65664285Y-96873390D02*
X65711904Y-96921009D01*
X65711904Y-96921009D02*
X65759523Y-97016247D01*
X77634580Y-96920833D02*
X77682200Y-96873214D01*
X77682200Y-96873214D02*
X77729819Y-96730357D01*
X77729819Y-96730357D02*
X77729819Y-96635119D01*
X77729819Y-96635119D02*
X77682200Y-96492262D01*
X77682200Y-96492262D02*
X77586961Y-96397024D01*
X77586961Y-96397024D02*
X77491723Y-96349405D01*
X77491723Y-96349405D02*
X77301247Y-96301786D01*
X77301247Y-96301786D02*
X77158390Y-96301786D01*
X77158390Y-96301786D02*
X76967914Y-96349405D01*
X76967914Y-96349405D02*
X76872676Y-96397024D01*
X76872676Y-96397024D02*
X76777438Y-96492262D01*
X76777438Y-96492262D02*
X76729819Y-96635119D01*
X76729819Y-96635119D02*
X76729819Y-96730357D01*
X76729819Y-96730357D02*
X76777438Y-96873214D01*
X76777438Y-96873214D02*
X76825057Y-96920833D01*
X77729819Y-97873214D02*
X77729819Y-97301786D01*
X77729819Y-97587500D02*
X76729819Y-97587500D01*
X76729819Y-97587500D02*
X76872676Y-97492262D01*
X76872676Y-97492262D02*
X76967914Y-97397024D01*
X76967914Y-97397024D02*
X77015533Y-97301786D01*
X81472557Y-82087261D02*
X81424938Y-81992023D01*
X81424938Y-81992023D02*
X81329700Y-81896785D01*
X81329700Y-81896785D02*
X81186842Y-81753928D01*
X81186842Y-81753928D02*
X81139223Y-81658690D01*
X81139223Y-81658690D02*
X81139223Y-81563452D01*
X81377319Y-81611071D02*
X81329700Y-81515833D01*
X81329700Y-81515833D02*
X81234461Y-81420595D01*
X81234461Y-81420595D02*
X81043985Y-81372976D01*
X81043985Y-81372976D02*
X80710652Y-81372976D01*
X80710652Y-81372976D02*
X80520176Y-81420595D01*
X80520176Y-81420595D02*
X80424938Y-81515833D01*
X80424938Y-81515833D02*
X80377319Y-81611071D01*
X80377319Y-81611071D02*
X80377319Y-81801547D01*
X80377319Y-81801547D02*
X80424938Y-81896785D01*
X80424938Y-81896785D02*
X80520176Y-81992023D01*
X80520176Y-81992023D02*
X80710652Y-82039642D01*
X80710652Y-82039642D02*
X81043985Y-82039642D01*
X81043985Y-82039642D02*
X81234461Y-81992023D01*
X81234461Y-81992023D02*
X81329700Y-81896785D01*
X81329700Y-81896785D02*
X81377319Y-81801547D01*
X81377319Y-81801547D02*
X81377319Y-81611071D01*
X81377319Y-82515833D02*
X81377319Y-82706309D01*
X81377319Y-82706309D02*
X81329700Y-82801547D01*
X81329700Y-82801547D02*
X81282080Y-82849166D01*
X81282080Y-82849166D02*
X81139223Y-82944404D01*
X81139223Y-82944404D02*
X80948747Y-82992023D01*
X80948747Y-82992023D02*
X80567795Y-82992023D01*
X80567795Y-82992023D02*
X80472557Y-82944404D01*
X80472557Y-82944404D02*
X80424938Y-82896785D01*
X80424938Y-82896785D02*
X80377319Y-82801547D01*
X80377319Y-82801547D02*
X80377319Y-82611071D01*
X80377319Y-82611071D02*
X80424938Y-82515833D01*
X80424938Y-82515833D02*
X80472557Y-82468214D01*
X80472557Y-82468214D02*
X80567795Y-82420595D01*
X80567795Y-82420595D02*
X80805890Y-82420595D01*
X80805890Y-82420595D02*
X80901128Y-82468214D01*
X80901128Y-82468214D02*
X80948747Y-82515833D01*
X80948747Y-82515833D02*
X80996366Y-82611071D01*
X80996366Y-82611071D02*
X80996366Y-82801547D01*
X80996366Y-82801547D02*
X80948747Y-82896785D01*
X80948747Y-82896785D02*
X80901128Y-82944404D01*
X80901128Y-82944404D02*
X80805890Y-82992023D01*
X70832557Y-81621071D02*
X70784938Y-81525833D01*
X70784938Y-81525833D02*
X70689700Y-81430595D01*
X70689700Y-81430595D02*
X70546842Y-81287738D01*
X70546842Y-81287738D02*
X70499223Y-81192500D01*
X70499223Y-81192500D02*
X70499223Y-81097262D01*
X70737319Y-81144881D02*
X70689700Y-81049643D01*
X70689700Y-81049643D02*
X70594461Y-80954405D01*
X70594461Y-80954405D02*
X70403985Y-80906786D01*
X70403985Y-80906786D02*
X70070652Y-80906786D01*
X70070652Y-80906786D02*
X69880176Y-80954405D01*
X69880176Y-80954405D02*
X69784938Y-81049643D01*
X69784938Y-81049643D02*
X69737319Y-81144881D01*
X69737319Y-81144881D02*
X69737319Y-81335357D01*
X69737319Y-81335357D02*
X69784938Y-81430595D01*
X69784938Y-81430595D02*
X69880176Y-81525833D01*
X69880176Y-81525833D02*
X70070652Y-81573452D01*
X70070652Y-81573452D02*
X70403985Y-81573452D01*
X70403985Y-81573452D02*
X70594461Y-81525833D01*
X70594461Y-81525833D02*
X70689700Y-81430595D01*
X70689700Y-81430595D02*
X70737319Y-81335357D01*
X70737319Y-81335357D02*
X70737319Y-81144881D01*
X70737319Y-82525833D02*
X70737319Y-81954405D01*
X70737319Y-82240119D02*
X69737319Y-82240119D01*
X69737319Y-82240119D02*
X69880176Y-82144881D01*
X69880176Y-82144881D02*
X69975414Y-82049643D01*
X69975414Y-82049643D02*
X70023033Y-81954405D01*
X69737319Y-83430595D02*
X69737319Y-82954405D01*
X69737319Y-82954405D02*
X70213509Y-82906786D01*
X70213509Y-82906786D02*
X70165890Y-82954405D01*
X70165890Y-82954405D02*
X70118271Y-83049643D01*
X70118271Y-83049643D02*
X70118271Y-83287738D01*
X70118271Y-83287738D02*
X70165890Y-83382976D01*
X70165890Y-83382976D02*
X70213509Y-83430595D01*
X70213509Y-83430595D02*
X70308747Y-83478214D01*
X70308747Y-83478214D02*
X70546842Y-83478214D01*
X70546842Y-83478214D02*
X70642080Y-83430595D01*
X70642080Y-83430595D02*
X70689700Y-83382976D01*
X70689700Y-83382976D02*
X70737319Y-83287738D01*
X70737319Y-83287738D02*
X70737319Y-83049643D01*
X70737319Y-83049643D02*
X70689700Y-82954405D01*
X70689700Y-82954405D02*
X70642080Y-82906786D01*
X98505238Y-100992557D02*
X98600476Y-100944938D01*
X98600476Y-100944938D02*
X98695714Y-100849700D01*
X98695714Y-100849700D02*
X98838571Y-100706842D01*
X98838571Y-100706842D02*
X98933809Y-100659223D01*
X98933809Y-100659223D02*
X99029047Y-100659223D01*
X98981428Y-100897319D02*
X99076666Y-100849700D01*
X99076666Y-100849700D02*
X99171904Y-100754461D01*
X99171904Y-100754461D02*
X99219523Y-100563985D01*
X99219523Y-100563985D02*
X99219523Y-100230652D01*
X99219523Y-100230652D02*
X99171904Y-100040176D01*
X99171904Y-100040176D02*
X99076666Y-99944938D01*
X99076666Y-99944938D02*
X98981428Y-99897319D01*
X98981428Y-99897319D02*
X98790952Y-99897319D01*
X98790952Y-99897319D02*
X98695714Y-99944938D01*
X98695714Y-99944938D02*
X98600476Y-100040176D01*
X98600476Y-100040176D02*
X98552857Y-100230652D01*
X98552857Y-100230652D02*
X98552857Y-100563985D01*
X98552857Y-100563985D02*
X98600476Y-100754461D01*
X98600476Y-100754461D02*
X98695714Y-100849700D01*
X98695714Y-100849700D02*
X98790952Y-100897319D01*
X98790952Y-100897319D02*
X98981428Y-100897319D01*
X97695714Y-100230652D02*
X97695714Y-100897319D01*
X97933809Y-99849700D02*
X98171904Y-100563985D01*
X98171904Y-100563985D02*
X97552857Y-100563985D01*
X77925057Y-81618571D02*
X77877438Y-81523333D01*
X77877438Y-81523333D02*
X77782200Y-81428095D01*
X77782200Y-81428095D02*
X77639342Y-81285238D01*
X77639342Y-81285238D02*
X77591723Y-81190000D01*
X77591723Y-81190000D02*
X77591723Y-81094762D01*
X77829819Y-81142381D02*
X77782200Y-81047143D01*
X77782200Y-81047143D02*
X77686961Y-80951905D01*
X77686961Y-80951905D02*
X77496485Y-80904286D01*
X77496485Y-80904286D02*
X77163152Y-80904286D01*
X77163152Y-80904286D02*
X76972676Y-80951905D01*
X76972676Y-80951905D02*
X76877438Y-81047143D01*
X76877438Y-81047143D02*
X76829819Y-81142381D01*
X76829819Y-81142381D02*
X76829819Y-81332857D01*
X76829819Y-81332857D02*
X76877438Y-81428095D01*
X76877438Y-81428095D02*
X76972676Y-81523333D01*
X76972676Y-81523333D02*
X77163152Y-81570952D01*
X77163152Y-81570952D02*
X77496485Y-81570952D01*
X77496485Y-81570952D02*
X77686961Y-81523333D01*
X77686961Y-81523333D02*
X77782200Y-81428095D01*
X77782200Y-81428095D02*
X77829819Y-81332857D01*
X77829819Y-81332857D02*
X77829819Y-81142381D01*
X77829819Y-82523333D02*
X77829819Y-81951905D01*
X77829819Y-82237619D02*
X76829819Y-82237619D01*
X76829819Y-82237619D02*
X76972676Y-82142381D01*
X76972676Y-82142381D02*
X77067914Y-82047143D01*
X77067914Y-82047143D02*
X77115533Y-81951905D01*
X77829819Y-83475714D02*
X77829819Y-82904286D01*
X77829819Y-83190000D02*
X76829819Y-83190000D01*
X76829819Y-83190000D02*
X76972676Y-83094762D01*
X76972676Y-83094762D02*
X77067914Y-82999524D01*
X77067914Y-82999524D02*
X77115533Y-82904286D01*
X85394819Y-88129642D02*
X84918628Y-87796309D01*
X85394819Y-87558214D02*
X84394819Y-87558214D01*
X84394819Y-87558214D02*
X84394819Y-87939166D01*
X84394819Y-87939166D02*
X84442438Y-88034404D01*
X84442438Y-88034404D02*
X84490057Y-88082023D01*
X84490057Y-88082023D02*
X84585295Y-88129642D01*
X84585295Y-88129642D02*
X84728152Y-88129642D01*
X84728152Y-88129642D02*
X84823390Y-88082023D01*
X84823390Y-88082023D02*
X84871009Y-88034404D01*
X84871009Y-88034404D02*
X84918628Y-87939166D01*
X84918628Y-87939166D02*
X84918628Y-87558214D01*
X85394819Y-89082023D02*
X85394819Y-88510595D01*
X85394819Y-88796309D02*
X84394819Y-88796309D01*
X84394819Y-88796309D02*
X84537676Y-88701071D01*
X84537676Y-88701071D02*
X84632914Y-88605833D01*
X84632914Y-88605833D02*
X84680533Y-88510595D01*
X84394819Y-89415357D02*
X84394819Y-90034404D01*
X84394819Y-90034404D02*
X84775771Y-89701071D01*
X84775771Y-89701071D02*
X84775771Y-89843928D01*
X84775771Y-89843928D02*
X84823390Y-89939166D01*
X84823390Y-89939166D02*
X84871009Y-89986785D01*
X84871009Y-89986785D02*
X84966247Y-90034404D01*
X84966247Y-90034404D02*
X85204342Y-90034404D01*
X85204342Y-90034404D02*
X85299580Y-89986785D01*
X85299580Y-89986785D02*
X85347200Y-89939166D01*
X85347200Y-89939166D02*
X85394819Y-89843928D01*
X85394819Y-89843928D02*
X85394819Y-89558214D01*
X85394819Y-89558214D02*
X85347200Y-89462976D01*
X85347200Y-89462976D02*
X85299580Y-89415357D01*
X69549819Y-96982142D02*
X69073628Y-96648809D01*
X69549819Y-96410714D02*
X68549819Y-96410714D01*
X68549819Y-96410714D02*
X68549819Y-96791666D01*
X68549819Y-96791666D02*
X68597438Y-96886904D01*
X68597438Y-96886904D02*
X68645057Y-96934523D01*
X68645057Y-96934523D02*
X68740295Y-96982142D01*
X68740295Y-96982142D02*
X68883152Y-96982142D01*
X68883152Y-96982142D02*
X68978390Y-96934523D01*
X68978390Y-96934523D02*
X69026009Y-96886904D01*
X69026009Y-96886904D02*
X69073628Y-96791666D01*
X69073628Y-96791666D02*
X69073628Y-96410714D01*
X68645057Y-97363095D02*
X68597438Y-97410714D01*
X68597438Y-97410714D02*
X68549819Y-97505952D01*
X68549819Y-97505952D02*
X68549819Y-97744047D01*
X68549819Y-97744047D02*
X68597438Y-97839285D01*
X68597438Y-97839285D02*
X68645057Y-97886904D01*
X68645057Y-97886904D02*
X68740295Y-97934523D01*
X68740295Y-97934523D02*
X68835533Y-97934523D01*
X68835533Y-97934523D02*
X68978390Y-97886904D01*
X68978390Y-97886904D02*
X69549819Y-97315476D01*
X69549819Y-97315476D02*
X69549819Y-97934523D01*
X68645057Y-98315476D02*
X68597438Y-98363095D01*
X68597438Y-98363095D02*
X68549819Y-98458333D01*
X68549819Y-98458333D02*
X68549819Y-98696428D01*
X68549819Y-98696428D02*
X68597438Y-98791666D01*
X68597438Y-98791666D02*
X68645057Y-98839285D01*
X68645057Y-98839285D02*
X68740295Y-98886904D01*
X68740295Y-98886904D02*
X68835533Y-98886904D01*
X68835533Y-98886904D02*
X68978390Y-98839285D01*
X68978390Y-98839285D02*
X69549819Y-98267857D01*
X69549819Y-98267857D02*
X69549819Y-98886904D01*
X98492738Y-107802557D02*
X98587976Y-107754938D01*
X98587976Y-107754938D02*
X98683214Y-107659700D01*
X98683214Y-107659700D02*
X98826071Y-107516842D01*
X98826071Y-107516842D02*
X98921309Y-107469223D01*
X98921309Y-107469223D02*
X99016547Y-107469223D01*
X98968928Y-107707319D02*
X99064166Y-107659700D01*
X99064166Y-107659700D02*
X99159404Y-107564461D01*
X99159404Y-107564461D02*
X99207023Y-107373985D01*
X99207023Y-107373985D02*
X99207023Y-107040652D01*
X99207023Y-107040652D02*
X99159404Y-106850176D01*
X99159404Y-106850176D02*
X99064166Y-106754938D01*
X99064166Y-106754938D02*
X98968928Y-106707319D01*
X98968928Y-106707319D02*
X98778452Y-106707319D01*
X98778452Y-106707319D02*
X98683214Y-106754938D01*
X98683214Y-106754938D02*
X98587976Y-106850176D01*
X98587976Y-106850176D02*
X98540357Y-107040652D01*
X98540357Y-107040652D02*
X98540357Y-107373985D01*
X98540357Y-107373985D02*
X98587976Y-107564461D01*
X98587976Y-107564461D02*
X98683214Y-107659700D01*
X98683214Y-107659700D02*
X98778452Y-107707319D01*
X98778452Y-107707319D02*
X98968928Y-107707319D01*
X97968928Y-107135890D02*
X98064166Y-107088271D01*
X98064166Y-107088271D02*
X98111785Y-107040652D01*
X98111785Y-107040652D02*
X98159404Y-106945414D01*
X98159404Y-106945414D02*
X98159404Y-106897795D01*
X98159404Y-106897795D02*
X98111785Y-106802557D01*
X98111785Y-106802557D02*
X98064166Y-106754938D01*
X98064166Y-106754938D02*
X97968928Y-106707319D01*
X97968928Y-106707319D02*
X97778452Y-106707319D01*
X97778452Y-106707319D02*
X97683214Y-106754938D01*
X97683214Y-106754938D02*
X97635595Y-106802557D01*
X97635595Y-106802557D02*
X97587976Y-106897795D01*
X97587976Y-106897795D02*
X97587976Y-106945414D01*
X97587976Y-106945414D02*
X97635595Y-107040652D01*
X97635595Y-107040652D02*
X97683214Y-107088271D01*
X97683214Y-107088271D02*
X97778452Y-107135890D01*
X97778452Y-107135890D02*
X97968928Y-107135890D01*
X97968928Y-107135890D02*
X98064166Y-107183509D01*
X98064166Y-107183509D02*
X98111785Y-107231128D01*
X98111785Y-107231128D02*
X98159404Y-107326366D01*
X98159404Y-107326366D02*
X98159404Y-107516842D01*
X98159404Y-107516842D02*
X98111785Y-107612080D01*
X98111785Y-107612080D02*
X98064166Y-107659700D01*
X98064166Y-107659700D02*
X97968928Y-107707319D01*
X97968928Y-107707319D02*
X97778452Y-107707319D01*
X97778452Y-107707319D02*
X97683214Y-107659700D01*
X97683214Y-107659700D02*
X97635595Y-107612080D01*
X97635595Y-107612080D02*
X97587976Y-107516842D01*
X97587976Y-107516842D02*
X97587976Y-107326366D01*
X97587976Y-107326366D02*
X97635595Y-107231128D01*
X97635595Y-107231128D02*
X97683214Y-107183509D01*
X97683214Y-107183509D02*
X97778452Y-107135890D01*
X77739819Y-92230595D02*
X78549342Y-92230595D01*
X78549342Y-92230595D02*
X78644580Y-92278214D01*
X78644580Y-92278214D02*
X78692200Y-92325833D01*
X78692200Y-92325833D02*
X78739819Y-92421071D01*
X78739819Y-92421071D02*
X78739819Y-92611547D01*
X78739819Y-92611547D02*
X78692200Y-92706785D01*
X78692200Y-92706785D02*
X78644580Y-92754404D01*
X78644580Y-92754404D02*
X78549342Y-92802023D01*
X78549342Y-92802023D02*
X77739819Y-92802023D01*
X77835057Y-93230595D02*
X77787438Y-93278214D01*
X77787438Y-93278214D02*
X77739819Y-93373452D01*
X77739819Y-93373452D02*
X77739819Y-93611547D01*
X77739819Y-93611547D02*
X77787438Y-93706785D01*
X77787438Y-93706785D02*
X77835057Y-93754404D01*
X77835057Y-93754404D02*
X77930295Y-93802023D01*
X77930295Y-93802023D02*
X78025533Y-93802023D01*
X78025533Y-93802023D02*
X78168390Y-93754404D01*
X78168390Y-93754404D02*
X78739819Y-93182976D01*
X78739819Y-93182976D02*
X78739819Y-93802023D01*
X78654580Y-96915833D02*
X78702200Y-96868214D01*
X78702200Y-96868214D02*
X78749819Y-96725357D01*
X78749819Y-96725357D02*
X78749819Y-96630119D01*
X78749819Y-96630119D02*
X78702200Y-96487262D01*
X78702200Y-96487262D02*
X78606961Y-96392024D01*
X78606961Y-96392024D02*
X78511723Y-96344405D01*
X78511723Y-96344405D02*
X78321247Y-96296786D01*
X78321247Y-96296786D02*
X78178390Y-96296786D01*
X78178390Y-96296786D02*
X77987914Y-96344405D01*
X77987914Y-96344405D02*
X77892676Y-96392024D01*
X77892676Y-96392024D02*
X77797438Y-96487262D01*
X77797438Y-96487262D02*
X77749819Y-96630119D01*
X77749819Y-96630119D02*
X77749819Y-96725357D01*
X77749819Y-96725357D02*
X77797438Y-96868214D01*
X77797438Y-96868214D02*
X77845057Y-96915833D01*
X77749819Y-97820595D02*
X77749819Y-97344405D01*
X77749819Y-97344405D02*
X78226009Y-97296786D01*
X78226009Y-97296786D02*
X78178390Y-97344405D01*
X78178390Y-97344405D02*
X78130771Y-97439643D01*
X78130771Y-97439643D02*
X78130771Y-97677738D01*
X78130771Y-97677738D02*
X78178390Y-97772976D01*
X78178390Y-97772976D02*
X78226009Y-97820595D01*
X78226009Y-97820595D02*
X78321247Y-97868214D01*
X78321247Y-97868214D02*
X78559342Y-97868214D01*
X78559342Y-97868214D02*
X78654580Y-97820595D01*
X78654580Y-97820595D02*
X78702200Y-97772976D01*
X78702200Y-97772976D02*
X78749819Y-97677738D01*
X78749819Y-97677738D02*
X78749819Y-97439643D01*
X78749819Y-97439643D02*
X78702200Y-97344405D01*
X78702200Y-97344405D02*
X78654580Y-97296786D01*
X89559819Y-88104642D02*
X89083628Y-87771309D01*
X89559819Y-87533214D02*
X88559819Y-87533214D01*
X88559819Y-87533214D02*
X88559819Y-87914166D01*
X88559819Y-87914166D02*
X88607438Y-88009404D01*
X88607438Y-88009404D02*
X88655057Y-88057023D01*
X88655057Y-88057023D02*
X88750295Y-88104642D01*
X88750295Y-88104642D02*
X88893152Y-88104642D01*
X88893152Y-88104642D02*
X88988390Y-88057023D01*
X88988390Y-88057023D02*
X89036009Y-88009404D01*
X89036009Y-88009404D02*
X89083628Y-87914166D01*
X89083628Y-87914166D02*
X89083628Y-87533214D01*
X89559819Y-89057023D02*
X89559819Y-88485595D01*
X89559819Y-88771309D02*
X88559819Y-88771309D01*
X88559819Y-88771309D02*
X88702676Y-88676071D01*
X88702676Y-88676071D02*
X88797914Y-88580833D01*
X88797914Y-88580833D02*
X88845533Y-88485595D01*
X88559819Y-89961785D02*
X88559819Y-89485595D01*
X88559819Y-89485595D02*
X89036009Y-89437976D01*
X89036009Y-89437976D02*
X88988390Y-89485595D01*
X88988390Y-89485595D02*
X88940771Y-89580833D01*
X88940771Y-89580833D02*
X88940771Y-89818928D01*
X88940771Y-89818928D02*
X88988390Y-89914166D01*
X88988390Y-89914166D02*
X89036009Y-89961785D01*
X89036009Y-89961785D02*
X89131247Y-90009404D01*
X89131247Y-90009404D02*
X89369342Y-90009404D01*
X89369342Y-90009404D02*
X89464580Y-89961785D01*
X89464580Y-89961785D02*
X89512200Y-89914166D01*
X89512200Y-89914166D02*
X89559819Y-89818928D01*
X89559819Y-89818928D02*
X89559819Y-89580833D01*
X89559819Y-89580833D02*
X89512200Y-89485595D01*
X89512200Y-89485595D02*
X89464580Y-89437976D01*
X87474819Y-88119642D02*
X86998628Y-87786309D01*
X87474819Y-87548214D02*
X86474819Y-87548214D01*
X86474819Y-87548214D02*
X86474819Y-87929166D01*
X86474819Y-87929166D02*
X86522438Y-88024404D01*
X86522438Y-88024404D02*
X86570057Y-88072023D01*
X86570057Y-88072023D02*
X86665295Y-88119642D01*
X86665295Y-88119642D02*
X86808152Y-88119642D01*
X86808152Y-88119642D02*
X86903390Y-88072023D01*
X86903390Y-88072023D02*
X86951009Y-88024404D01*
X86951009Y-88024404D02*
X86998628Y-87929166D01*
X86998628Y-87929166D02*
X86998628Y-87548214D01*
X87474819Y-89072023D02*
X87474819Y-88500595D01*
X87474819Y-88786309D02*
X86474819Y-88786309D01*
X86474819Y-88786309D02*
X86617676Y-88691071D01*
X86617676Y-88691071D02*
X86712914Y-88595833D01*
X86712914Y-88595833D02*
X86760533Y-88500595D01*
X86808152Y-89929166D02*
X87474819Y-89929166D01*
X86427200Y-89691071D02*
X87141485Y-89452976D01*
X87141485Y-89452976D02*
X87141485Y-90072023D01*
X82583095Y-109895180D02*
X82583095Y-109085657D01*
X82583095Y-109085657D02*
X82630714Y-108990419D01*
X82630714Y-108990419D02*
X82678333Y-108942800D01*
X82678333Y-108942800D02*
X82773571Y-108895180D01*
X82773571Y-108895180D02*
X82964047Y-108895180D01*
X82964047Y-108895180D02*
X83059285Y-108942800D01*
X83059285Y-108942800D02*
X83106904Y-108990419D01*
X83106904Y-108990419D02*
X83154523Y-109085657D01*
X83154523Y-109085657D02*
X83154523Y-109895180D01*
X84059285Y-109561847D02*
X84059285Y-108895180D01*
X83821190Y-109942800D02*
X83583095Y-109228514D01*
X83583095Y-109228514D02*
X84202142Y-109228514D01*
X75371514Y-113467180D02*
X75371514Y-114467180D01*
X75371514Y-114467180D02*
X75609609Y-114467180D01*
X75609609Y-114467180D02*
X75752466Y-114419561D01*
X75752466Y-114419561D02*
X75847704Y-114324323D01*
X75847704Y-114324323D02*
X75895323Y-114229085D01*
X75895323Y-114229085D02*
X75942942Y-114038609D01*
X75942942Y-114038609D02*
X75942942Y-113895752D01*
X75942942Y-113895752D02*
X75895323Y-113705276D01*
X75895323Y-113705276D02*
X75847704Y-113610038D01*
X75847704Y-113610038D02*
X75752466Y-113514800D01*
X75752466Y-113514800D02*
X75609609Y-113467180D01*
X75609609Y-113467180D02*
X75371514Y-113467180D01*
X76752466Y-113514800D02*
X76657228Y-113467180D01*
X76657228Y-113467180D02*
X76466752Y-113467180D01*
X76466752Y-113467180D02*
X76371514Y-113514800D01*
X76371514Y-113514800D02*
X76323895Y-113610038D01*
X76323895Y-113610038D02*
X76323895Y-113990990D01*
X76323895Y-113990990D02*
X76371514Y-114086228D01*
X76371514Y-114086228D02*
X76466752Y-114133847D01*
X76466752Y-114133847D02*
X76657228Y-114133847D01*
X76657228Y-114133847D02*
X76752466Y-114086228D01*
X76752466Y-114086228D02*
X76800085Y-113990990D01*
X76800085Y-113990990D02*
X76800085Y-113895752D01*
X76800085Y-113895752D02*
X76323895Y-113800514D01*
X77181038Y-113514800D02*
X77276276Y-113467180D01*
X77276276Y-113467180D02*
X77466752Y-113467180D01*
X77466752Y-113467180D02*
X77561990Y-113514800D01*
X77561990Y-113514800D02*
X77609609Y-113610038D01*
X77609609Y-113610038D02*
X77609609Y-113657657D01*
X77609609Y-113657657D02*
X77561990Y-113752895D01*
X77561990Y-113752895D02*
X77466752Y-113800514D01*
X77466752Y-113800514D02*
X77323895Y-113800514D01*
X77323895Y-113800514D02*
X77228657Y-113848133D01*
X77228657Y-113848133D02*
X77181038Y-113943371D01*
X77181038Y-113943371D02*
X77181038Y-113990990D01*
X77181038Y-113990990D02*
X77228657Y-114086228D01*
X77228657Y-114086228D02*
X77323895Y-114133847D01*
X77323895Y-114133847D02*
X77466752Y-114133847D01*
X77466752Y-114133847D02*
X77561990Y-114086228D01*
X78038181Y-113467180D02*
X78038181Y-114133847D01*
X78038181Y-114467180D02*
X77990562Y-114419561D01*
X77990562Y-114419561D02*
X78038181Y-114371942D01*
X78038181Y-114371942D02*
X78085800Y-114419561D01*
X78085800Y-114419561D02*
X78038181Y-114467180D01*
X78038181Y-114467180D02*
X78038181Y-114371942D01*
X78942942Y-114133847D02*
X78942942Y-113324323D01*
X78942942Y-113324323D02*
X78895323Y-113229085D01*
X78895323Y-113229085D02*
X78847704Y-113181466D01*
X78847704Y-113181466D02*
X78752466Y-113133847D01*
X78752466Y-113133847D02*
X78609609Y-113133847D01*
X78609609Y-113133847D02*
X78514371Y-113181466D01*
X78942942Y-113514800D02*
X78847704Y-113467180D01*
X78847704Y-113467180D02*
X78657228Y-113467180D01*
X78657228Y-113467180D02*
X78561990Y-113514800D01*
X78561990Y-113514800D02*
X78514371Y-113562419D01*
X78514371Y-113562419D02*
X78466752Y-113657657D01*
X78466752Y-113657657D02*
X78466752Y-113943371D01*
X78466752Y-113943371D02*
X78514371Y-114038609D01*
X78514371Y-114038609D02*
X78561990Y-114086228D01*
X78561990Y-114086228D02*
X78657228Y-114133847D01*
X78657228Y-114133847D02*
X78847704Y-114133847D01*
X78847704Y-114133847D02*
X78942942Y-114086228D01*
X79419133Y-114133847D02*
X79419133Y-113467180D01*
X79419133Y-114038609D02*
X79466752Y-114086228D01*
X79466752Y-114086228D02*
X79561990Y-114133847D01*
X79561990Y-114133847D02*
X79704847Y-114133847D01*
X79704847Y-114133847D02*
X79800085Y-114086228D01*
X79800085Y-114086228D02*
X79847704Y-113990990D01*
X79847704Y-113990990D02*
X79847704Y-113467180D01*
X80752466Y-113467180D02*
X80752466Y-113990990D01*
X80752466Y-113990990D02*
X80704847Y-114086228D01*
X80704847Y-114086228D02*
X80609609Y-114133847D01*
X80609609Y-114133847D02*
X80419133Y-114133847D01*
X80419133Y-114133847D02*
X80323895Y-114086228D01*
X80752466Y-113514800D02*
X80657228Y-113467180D01*
X80657228Y-113467180D02*
X80419133Y-113467180D01*
X80419133Y-113467180D02*
X80323895Y-113514800D01*
X80323895Y-113514800D02*
X80276276Y-113610038D01*
X80276276Y-113610038D02*
X80276276Y-113705276D01*
X80276276Y-113705276D02*
X80323895Y-113800514D01*
X80323895Y-113800514D02*
X80419133Y-113848133D01*
X80419133Y-113848133D02*
X80657228Y-113848133D01*
X80657228Y-113848133D02*
X80752466Y-113895752D01*
X81085800Y-114133847D02*
X81466752Y-114133847D01*
X81228657Y-114467180D02*
X81228657Y-113610038D01*
X81228657Y-113610038D02*
X81276276Y-113514800D01*
X81276276Y-113514800D02*
X81371514Y-113467180D01*
X81371514Y-113467180D02*
X81466752Y-113467180D01*
X81942943Y-113467180D02*
X81847705Y-113514800D01*
X81847705Y-113514800D02*
X81800086Y-113562419D01*
X81800086Y-113562419D02*
X81752467Y-113657657D01*
X81752467Y-113657657D02*
X81752467Y-113943371D01*
X81752467Y-113943371D02*
X81800086Y-114038609D01*
X81800086Y-114038609D02*
X81847705Y-114086228D01*
X81847705Y-114086228D02*
X81942943Y-114133847D01*
X81942943Y-114133847D02*
X82085800Y-114133847D01*
X82085800Y-114133847D02*
X82181038Y-114086228D01*
X82181038Y-114086228D02*
X82228657Y-114038609D01*
X82228657Y-114038609D02*
X82276276Y-113943371D01*
X82276276Y-113943371D02*
X82276276Y-113657657D01*
X82276276Y-113657657D02*
X82228657Y-113562419D01*
X82228657Y-113562419D02*
X82181038Y-113514800D01*
X82181038Y-113514800D02*
X82085800Y-113467180D01*
X82085800Y-113467180D02*
X81942943Y-113467180D01*
X82704848Y-113467180D02*
X82704848Y-114133847D01*
X82704848Y-113943371D02*
X82752467Y-114038609D01*
X82752467Y-114038609D02*
X82800086Y-114086228D01*
X82800086Y-114086228D02*
X82895324Y-114133847D01*
X82895324Y-114133847D02*
X82990562Y-114133847D01*
X83371515Y-113467180D02*
X83561991Y-113467180D01*
X83561991Y-113467180D02*
X83657229Y-113514800D01*
X83657229Y-113514800D02*
X83704848Y-113562419D01*
X83704848Y-113562419D02*
X83800086Y-113705276D01*
X83800086Y-113705276D02*
X83847705Y-113895752D01*
X83847705Y-113895752D02*
X83847705Y-114276704D01*
X83847705Y-114276704D02*
X83800086Y-114371942D01*
X83800086Y-114371942D02*
X83752467Y-114419561D01*
X83752467Y-114419561D02*
X83657229Y-114467180D01*
X83657229Y-114467180D02*
X83466753Y-114467180D01*
X83466753Y-114467180D02*
X83371515Y-114419561D01*
X83371515Y-114419561D02*
X83323896Y-114371942D01*
X83323896Y-114371942D02*
X83276277Y-114276704D01*
X83276277Y-114276704D02*
X83276277Y-114038609D01*
X83276277Y-114038609D02*
X83323896Y-113943371D01*
X83323896Y-113943371D02*
X83371515Y-113895752D01*
X83371515Y-113895752D02*
X83466753Y-113848133D01*
X83466753Y-113848133D02*
X83657229Y-113848133D01*
X83657229Y-113848133D02*
X83752467Y-113895752D01*
X83752467Y-113895752D02*
X83800086Y-113943371D01*
X83800086Y-113943371D02*
X83847705Y-114038609D01*
D11*
%TO.C,C12*%
X69567164Y-98060000D02*
X69782836Y-98060000D01*
X69567164Y-97340000D02*
X69782836Y-97340000D01*
%TO.C,R21*%
X91453641Y-98545000D02*
X91146359Y-98545000D01*
X91453641Y-99305000D02*
X91146359Y-99305000D01*
%TO.C,Y2*%
X93910000Y-97210000D02*
X90490000Y-97210000D01*
X90490000Y-97210000D02*
X90490000Y-93090000D01*
%TO.C,C15*%
X93535000Y-98557836D02*
X93535000Y-98342164D01*
X92815000Y-98557836D02*
X92815000Y-98342164D01*
%TO.C,C14*%
X91192164Y-98260000D02*
X91407836Y-98260000D01*
X91192164Y-97540000D02*
X91407836Y-97540000D01*
%TO.C,J1*%
X66415000Y-108967500D02*
X66415000Y-110747500D01*
X73915000Y-106047500D02*
X74715000Y-106047500D01*
X75815000Y-108967500D02*
X75815000Y-110747500D01*
%TO.C,R16*%
X89640000Y-88901141D02*
X89640000Y-88593859D01*
X90400000Y-88901141D02*
X90400000Y-88593859D01*
%TO.C,Q2*%
X98410000Y-93070000D02*
X97760000Y-93070000D01*
X98410000Y-93070000D02*
X99060000Y-93070000D01*
X98410000Y-96190000D02*
X97760000Y-96190000D01*
X98410000Y-96190000D02*
X99060000Y-96190000D01*
X97487500Y-96470000D02*
X97007500Y-96470000D01*
X97247500Y-96140000D01*
X97487500Y-96470000D01*
G36*
X97487500Y-96470000D02*
G01*
X97007500Y-96470000D01*
X97247500Y-96140000D01*
X97487500Y-96470000D01*
G37*
%TO.C,R2*%
X69720000Y-104428641D02*
X69720000Y-104121359D01*
X70480000Y-104428641D02*
X70480000Y-104121359D01*
%TO.C,Q13*%
X69860000Y-82192500D02*
X69860000Y-81542500D01*
X69860000Y-82192500D02*
X69860000Y-82842500D01*
X72980000Y-82192500D02*
X72980000Y-81542500D01*
X72980000Y-82192500D02*
X72980000Y-82842500D01*
X73260000Y-83595000D02*
X72930000Y-83355000D01*
X73260000Y-83115000D01*
X73260000Y-83595000D01*
G36*
X73260000Y-83595000D02*
G01*
X72930000Y-83355000D01*
X73260000Y-83115000D01*
X73260000Y-83595000D01*
G37*
%TO.C,R20*%
X98055000Y-88871141D02*
X98055000Y-88563859D01*
X98815000Y-88871141D02*
X98815000Y-88563859D01*
%TO.C,R19*%
X95940000Y-88881141D02*
X95940000Y-88573859D01*
X96700000Y-88881141D02*
X96700000Y-88573859D01*
%TO.C,Q6*%
X98405000Y-99892500D02*
X97755000Y-99892500D01*
X98405000Y-99892500D02*
X99055000Y-99892500D01*
X98405000Y-103012500D02*
X97755000Y-103012500D01*
X98405000Y-103012500D02*
X99055000Y-103012500D01*
X97482500Y-103292500D02*
X97002500Y-103292500D01*
X97242500Y-102962500D01*
X97482500Y-103292500D01*
G36*
X97482500Y-103292500D02*
G01*
X97002500Y-103292500D01*
X97242500Y-102962500D01*
X97482500Y-103292500D01*
G37*
%TO.C,U1*%
X81595000Y-95742500D02*
X81595000Y-96192500D01*
X81595000Y-102962500D02*
X81595000Y-102512500D01*
X82045000Y-95742500D02*
X81595000Y-95742500D01*
X82045000Y-102962500D02*
X81595000Y-102962500D01*
X88365000Y-95742500D02*
X88815000Y-95742500D01*
X88365000Y-102962500D02*
X88815000Y-102962500D01*
X88815000Y-95742500D02*
X88815000Y-96192500D01*
X88815000Y-102962500D02*
X88815000Y-102512500D01*
X89405000Y-96192500D02*
X89065000Y-95722500D01*
X89745000Y-95722500D01*
X89405000Y-96192500D01*
G36*
X89405000Y-96192500D02*
G01*
X89065000Y-95722500D01*
X89745000Y-95722500D01*
X89405000Y-96192500D01*
G37*
%TO.C,Y1*%
X69785000Y-103010000D02*
X65665000Y-103010000D01*
X69785000Y-99590000D02*
X69785000Y-103010000D01*
D12*
%TO.C,SW1*%
X87766000Y-105465500D02*
X88195260Y-105465500D01*
X87766000Y-109529500D02*
X87766000Y-105465500D01*
X88195260Y-109529500D02*
X87766000Y-109529500D01*
X90384740Y-105465500D02*
X90814000Y-105465500D01*
X90814000Y-105465500D02*
X90814000Y-109529500D01*
X90814000Y-109529500D02*
X90384740Y-109529500D01*
X89366200Y-111066200D02*
G75*
G02*
X89213800Y-111066200I-76200J0D01*
G01*
X89213800Y-111066200D02*
G75*
G02*
X89366200Y-111066200I76200J0D01*
G01*
D11*
%TO.C,R18*%
X93850000Y-88871141D02*
X93850000Y-88563859D01*
X94610000Y-88871141D02*
X94610000Y-88563859D01*
%TO.C,R17*%
X91750000Y-88871141D02*
X91750000Y-88563859D01*
X92510000Y-88871141D02*
X92510000Y-88563859D01*
%TO.C,R23*%
X89641359Y-111582500D02*
X89948641Y-111582500D01*
X89641359Y-112342500D02*
X89948641Y-112342500D01*
%TO.C,C8*%
X81042836Y-103462500D02*
X80827164Y-103462500D01*
X81042836Y-104182500D02*
X80827164Y-104182500D01*
%TO.C,D67*%
X91590000Y-111002500D02*
X94275000Y-111002500D01*
X94275000Y-111002500D02*
X94275000Y-112922500D01*
X94275000Y-112922500D02*
X91590000Y-112922500D01*
D12*
%TO.C,SW2*%
X91426000Y-105474500D02*
X91855260Y-105474500D01*
X91426000Y-109538500D02*
X91426000Y-105474500D01*
X91855260Y-109538500D02*
X91426000Y-109538500D01*
X94044740Y-105474500D02*
X94474000Y-105474500D01*
X94474000Y-105474500D02*
X94474000Y-109538500D01*
X94474000Y-109538500D02*
X94044740Y-109538500D01*
X93026200Y-111075200D02*
G75*
G02*
X92873800Y-111075200I-76200J0D01*
G01*
X92873800Y-111075200D02*
G75*
G02*
X93026200Y-111075200I76200J0D01*
G01*
D11*
%TO.C,R1*%
X71985000Y-102661141D02*
X71985000Y-102353859D01*
X72745000Y-102661141D02*
X72745000Y-102353859D01*
%TO.C,C16*%
X66557836Y-97790000D02*
X66342164Y-97790000D01*
X66557836Y-98510000D02*
X66342164Y-98510000D01*
%TO.C,C1*%
X78075000Y-96979664D02*
X78075000Y-97195336D01*
X78795000Y-96979664D02*
X78795000Y-97195336D01*
%TO.C,Q9*%
X76962500Y-82182500D02*
X76962500Y-81532500D01*
X76962500Y-82182500D02*
X76962500Y-82832500D01*
X80082500Y-82182500D02*
X80082500Y-81532500D01*
X80082500Y-82182500D02*
X80082500Y-82832500D01*
X80362500Y-83585000D02*
X80032500Y-83345000D01*
X80362500Y-83105000D01*
X80362500Y-83585000D01*
G36*
X80362500Y-83585000D02*
G01*
X80032500Y-83345000D01*
X80362500Y-83105000D01*
X80362500Y-83585000D01*
G37*
%TO.C,Q15*%
X66322500Y-82192500D02*
X66322500Y-81542500D01*
X66322500Y-82192500D02*
X66322500Y-82842500D01*
X69442500Y-82192500D02*
X69442500Y-81542500D01*
X69442500Y-82192500D02*
X69442500Y-82842500D01*
X69722500Y-83595000D02*
X69392500Y-83355000D01*
X69722500Y-83115000D01*
X69722500Y-83595000D01*
G36*
X69722500Y-83595000D02*
G01*
X69392500Y-83355000D01*
X69722500Y-83115000D01*
X69722500Y-83595000D01*
G37*
%TO.C,Q4*%
X98410000Y-96482500D02*
X97760000Y-96482500D01*
X98410000Y-96482500D02*
X99060000Y-96482500D01*
X98410000Y-99602500D02*
X97760000Y-99602500D01*
X98410000Y-99602500D02*
X99060000Y-99602500D01*
X97487500Y-99882500D02*
X97007500Y-99882500D01*
X97247500Y-99552500D01*
X97487500Y-99882500D01*
G36*
X97487500Y-99882500D02*
G01*
X97007500Y-99882500D01*
X97247500Y-99552500D01*
X97487500Y-99882500D01*
G37*
%TO.C,Q11*%
X73415000Y-82190000D02*
X73415000Y-81540000D01*
X73415000Y-82190000D02*
X73415000Y-82840000D01*
X76535000Y-82190000D02*
X76535000Y-81540000D01*
X76535000Y-82190000D02*
X76535000Y-82840000D01*
X76815000Y-83592500D02*
X76485000Y-83352500D01*
X76815000Y-83112500D01*
X76815000Y-83592500D01*
G36*
X76815000Y-83592500D02*
G01*
X76485000Y-83352500D01*
X76815000Y-83112500D01*
X76815000Y-83592500D01*
G37*
%TO.C,R13*%
X83390000Y-88926141D02*
X83390000Y-88618859D01*
X84150000Y-88926141D02*
X84150000Y-88618859D01*
%TO.C,R22*%
X67545000Y-97778641D02*
X67545000Y-97471359D01*
X68305000Y-97778641D02*
X68305000Y-97471359D01*
%TO.C,Q8*%
X98397500Y-103292500D02*
X97747500Y-103292500D01*
X98397500Y-103292500D02*
X99047500Y-103292500D01*
X98397500Y-106412500D02*
X97747500Y-106412500D01*
X98397500Y-106412500D02*
X99047500Y-106412500D01*
X97475000Y-106692500D02*
X96995000Y-106692500D01*
X97235000Y-106362500D01*
X97475000Y-106692500D01*
G36*
X97475000Y-106692500D02*
G01*
X96995000Y-106692500D01*
X97235000Y-106362500D01*
X97475000Y-106692500D01*
G37*
%TO.C,U2*%
X67325000Y-92992500D02*
X67325000Y-91042500D01*
X67325000Y-92992500D02*
X67325000Y-94942500D01*
X77445000Y-92992500D02*
X77445000Y-91042500D01*
X77445000Y-92992500D02*
X77445000Y-94942500D01*
X77720000Y-95932500D02*
X77390000Y-95692500D01*
X77720000Y-95452500D01*
X77720000Y-95932500D01*
G36*
X77720000Y-95932500D02*
G01*
X77390000Y-95692500D01*
X77720000Y-95452500D01*
X77720000Y-95932500D01*
G37*
%TO.C,C5*%
X79095000Y-96974664D02*
X79095000Y-97190336D01*
X79815000Y-96974664D02*
X79815000Y-97190336D01*
%TO.C,R15*%
X87555000Y-88901141D02*
X87555000Y-88593859D01*
X88315000Y-88901141D02*
X88315000Y-88593859D01*
%TO.C,R14*%
X85470000Y-88916141D02*
X85470000Y-88608859D01*
X86230000Y-88916141D02*
X86230000Y-88608859D01*
D13*
%TO.C,U4*%
X81845000Y-106000002D02*
X81845000Y-112700001D01*
X81845000Y-106000002D02*
X84845000Y-106000002D01*
X81845000Y-112700001D02*
X84845000Y-112700001D01*
X84845000Y-106000002D02*
X84845000Y-112700001D01*
D14*
X80620002Y-112650001D02*
G75*
G02*
X80370000Y-112650001I-125001J0D01*
G01*
X80370000Y-112650001D02*
G75*
G02*
X80620002Y-112650001I125001J0D01*
G01*
%TD*%
M02*
