%TF.GenerationSoftware,KiCad,Pcbnew,9.0.3*%
%TF.CreationDate,2026-06-24T13:13:46+05:30*%
%TF.ProjectId,Elo_112,456c6f5f-3131-4322-9e6b-696361645f70,rev?*%
%TF.SameCoordinates,Original*%
%TF.FileFunction,Copper,L2,Inr*%
%TF.FilePolarity,Positive*%
%FSLAX46Y46*%
G04 Gerber Fmt 4.6, Leading zero omitted, Abs format (unit mm)*
G04 Created by KiCad (PCBNEW 9.0.3) date 2026-06-24 13:13:46*
%MOMM*%
%LPD*%
G01*
G04 APERTURE LIST*
%TA.AperFunction,HeatsinkPad*%
%ADD10O,1.000000X2.100000*%
%TD*%
%TA.AperFunction,HeatsinkPad*%
%ADD11O,1.000000X1.600000*%
%TD*%
%TA.AperFunction,ViaPad*%
%ADD12C,0.600000*%
%TD*%
G04 APERTURE END LIST*
D10*
%TO.N,GND*%
%TO.C,J1*%
X66795000Y-107642500D03*
D11*
X66795000Y-111822500D03*
D10*
X75435000Y-107642500D03*
D11*
X75435000Y-111822500D03*
%TD*%
D12*
%TO.N,Net-(D15-K)*%
X82825000Y-80157500D03*
X78229951Y-82506928D03*
%TO.N,GND*%
X78945000Y-98447500D03*
X72365000Y-101007500D03*
X89565000Y-93647500D03*
X94790000Y-111972500D03*
X67915000Y-104917500D03*
X68290000Y-93922500D03*
X76995000Y-111677500D03*
X87790000Y-93572500D03*
X78795000Y-105082500D03*
X91265000Y-110097500D03*
X91799997Y-97557500D03*
X86985000Y-100712500D03*
X76830000Y-93957500D03*
X76950000Y-98472500D03*
X76000000Y-98487500D03*
X91100000Y-101622500D03*
X79400000Y-81205000D03*
%TO.N,NSRT*%
X91375000Y-99642500D03*
%TO.N,GND*%
X91995000Y-101612500D03*
%TO.N,+3V3*%
X88595000Y-95192500D03*
%TO.N,GND*%
X70470000Y-80612500D03*
X69365000Y-101007500D03*
%TO.N,+3V3*%
X80055000Y-105032500D03*
X67030000Y-102962500D03*
%TO.N,GND*%
X74025000Y-80627500D03*
X82965000Y-104897500D03*
X87050000Y-98772500D03*
X79120000Y-103822500D03*
X77830000Y-98492500D03*
X66935000Y-80652500D03*
X77575000Y-80647500D03*
%TO.N,+3V3*%
X91400000Y-94852500D03*
%TO.N,GND*%
X91799997Y-97557500D03*
%TO.N,+3V3*%
X76975000Y-109367500D03*
%TO.N,GND*%
X73780000Y-98527500D03*
X74315000Y-104867500D03*
X76965000Y-108387500D03*
X71110000Y-96797500D03*
X84440000Y-101122500D03*
X66070000Y-101642500D03*
X88015000Y-98812500D03*
X66345000Y-96037500D03*
%TO.N,BOOT0*%
X85950000Y-97222500D03*
%TO.N,+5V*%
X80250000Y-107027500D03*
%TO.N,+3V3*%
X88165000Y-100602500D03*
X78435000Y-96607500D03*
X78845000Y-109347500D03*
X75370000Y-93937500D03*
X89285000Y-110752500D03*
X73780000Y-97567500D03*
%TO.N,Net-(D1-A)*%
X98410000Y-80697500D03*
X98410000Y-81947500D03*
X98410000Y-84447500D03*
%TO.N,Net-(D41-A)*%
X87935000Y-86947500D03*
X87935000Y-83197500D03*
%TO.N,Net-(D25-A)*%
X92135000Y-83197500D03*
%TO.N,Net-(D33-A)*%
X90035000Y-85697500D03*
%TO.N,Net-(F1-Pad2)*%
X73505000Y-104857500D03*
%TO.N,Net-(D41-A)*%
X87935000Y-79447500D03*
%TO.N,Net-(D33-A)*%
X90035000Y-80697500D03*
X90035000Y-81947500D03*
%TO.N,Net-(D16-K)*%
X82810000Y-78912500D03*
%TO.N,Net-(D41-A)*%
X87935000Y-86947500D03*
X87935000Y-80697500D03*
X87935000Y-85672500D03*
%TO.N,Net-(D33-A)*%
X90035000Y-86947500D03*
%TO.N,Net-(F1-Pad2)*%
X68715000Y-104837500D03*
%TO.N,/D_1_C+*%
X72252500Y-99190000D03*
%TO.N,/D_1_C-*%
X69977500Y-99190000D03*
%TO.N,Net-(D33-A)*%
X90035000Y-83197500D03*
X90035000Y-84447500D03*
X90035000Y-79447500D03*
%TO.N,Net-(D41-A)*%
X87935000Y-84447500D03*
%TO.N,Net-(SW1-B)*%
X89290000Y-105338500D03*
%TO.N,Net-(D41-A)*%
X87935000Y-81947500D03*
%TO.N,Net-(D49-A)*%
X85835000Y-85697500D03*
X85835000Y-79447500D03*
X85835000Y-80697500D03*
%TO.N,Net-(D57-A)*%
X83735000Y-83197500D03*
X83735000Y-80697500D03*
%TO.N,/G_6*%
X79675000Y-101597500D03*
%TO.N,Net-(D57-A)*%
X83735000Y-79447500D03*
%TO.N,Net-(D49-A)*%
X85835000Y-86947500D03*
%TO.N,/P_4*%
X83465000Y-99542500D03*
%TO.N,Net-(D49-A)*%
X85835000Y-81947500D03*
X85835000Y-84447500D03*
%TO.N,/P_1*%
X83538595Y-106658530D03*
%TO.N,/P_2*%
X82995000Y-106217500D03*
%TO.N,Net-(D57-A)*%
X83735000Y-84447500D03*
X83735000Y-85697500D03*
%TO.N,/P_5*%
X83955000Y-98822500D03*
%TO.N,/G_8*%
X81461685Y-96102500D03*
%TO.N,Net-(D49-A)*%
X85835000Y-83197500D03*
%TO.N,/P_3*%
X82495000Y-105532500D03*
%TO.N,/P_6*%
X84455000Y-98037500D03*
%TO.N,/P_8*%
X85455000Y-96452500D03*
%TO.N,/P_7*%
X84960000Y-97342500D03*
%TO.N,Net-(Q9-B)*%
X79479176Y-84252500D03*
%TO.N,/P_8*%
X85455000Y-96447500D03*
%TO.N,Net-(D57-A)*%
X83735000Y-81947500D03*
X83735000Y-86947500D03*
%TO.N,/G_7*%
X80935000Y-94227500D03*
%TO.N,Net-(Q11-B)*%
X75925216Y-84267500D03*
%TO.N,/G_5*%
X79268666Y-102167496D03*
%TO.N,Net-(Q13-B)*%
X72375000Y-84267500D03*
%TO.N,Net-(D10-A)*%
X96335000Y-86947500D03*
%TO.N,Net-(D14-K)*%
X76585000Y-81402500D03*
%TO.N,Net-(D10-A)*%
X96335000Y-83197500D03*
%TO.N,Net-(D12-K)*%
X82855000Y-83902500D03*
%TO.N,Net-(D11-K)*%
X82835000Y-85147500D03*
%TO.N,Net-(D1-A)*%
X98410000Y-83197500D03*
%TO.N,Net-(D10-K)*%
X82815000Y-86397500D03*
X82815000Y-86397500D03*
%TO.N,Net-(D13-K)*%
X82860000Y-82657500D03*
%TO.N,Net-(D11-K)*%
X71065000Y-85147500D03*
%TO.N,Net-(D13-K)*%
X74675000Y-82618301D03*
%TO.N,Net-(D10-A)*%
X96325000Y-79447500D03*
%TO.N,Net-(D17-A)*%
X94215000Y-83197500D03*
%TO.N,Net-(D25-A)*%
X92135000Y-85697500D03*
%TO.N,Net-(D1-K)*%
X67585000Y-85062500D03*
%TO.N,Net-(D10-A)*%
X96335000Y-85697500D03*
%TO.N,Net-(D1-A)*%
X98410000Y-79447500D03*
%TO.N,Net-(D10-A)*%
X96335000Y-81947500D03*
%TO.N,Net-(D25-A)*%
X92135000Y-86947500D03*
X92135000Y-81947500D03*
%TO.N,Net-(D1-A)*%
X98420000Y-85697500D03*
%TO.N,Net-(D1-K)*%
X82810000Y-87646500D03*
%TO.N,Net-(D10-A)*%
X96335000Y-84447500D03*
%TO.N,Net-(D1-A)*%
X98425000Y-86947500D03*
%TO.N,Net-(D14-K)*%
X82820000Y-81407500D03*
%TO.N,Net-(D10-A)*%
X96335000Y-80697500D03*
%TO.N,Net-(D17-A)*%
X94235000Y-80697500D03*
X94220000Y-84447500D03*
X94220000Y-85697500D03*
X94235000Y-79447500D03*
X94235000Y-81947500D03*
%TO.N,Net-(D25-A)*%
X92135000Y-79447500D03*
%TO.N,Net-(D17-A)*%
X94235000Y-86947500D03*
%TO.N,Net-(D25-A)*%
X92135000Y-84447500D03*
X92135000Y-80697500D03*
%TO.N,/G_1*%
X78255000Y-94722500D03*
%TO.N,/G_2*%
X78740000Y-92587500D03*
%TO.N,/G_3*%
X78225000Y-102607500D03*
%TO.N,Net-(Q15-B)*%
X68829243Y-84267500D03*
%TO.N,/G_4*%
X78829495Y-103185625D03*
%TO.N,Net-(D1-A)*%
X98425000Y-88197500D03*
%TO.N,Net-(D17-A)*%
X94225000Y-88147500D03*
%TO.N,Net-(D10-A)*%
X96325000Y-88197500D03*
%TO.N,Net-(D25-A)*%
X92140000Y-88197500D03*
%TO.N,+3V3*%
X96780000Y-92612500D03*
X98425000Y-96327500D03*
X98430000Y-99737500D03*
X98770000Y-106687500D03*
X98540000Y-103167500D03*
%TO.N,Net-(Q8-E)*%
X83770000Y-89282500D03*
%TO.N,Net-(Q7-E)*%
X95515000Y-104672500D03*
%TO.N,Net-(Q6-E)*%
X87935000Y-89257500D03*
%TO.N,Net-(Q7-E)*%
X85850000Y-89272500D03*
%TO.N,Net-(Q1-E)*%
X99330000Y-93527500D03*
%TO.N,Net-(Q3-E)*%
X96200000Y-97540000D03*
%TO.N,Net-(Q4-E)*%
X92130000Y-89227500D03*
%TO.N,Net-(Q5-E)*%
X90020000Y-89257500D03*
%TO.N,Net-(Q2-E)*%
X96320000Y-89237500D03*
%TO.N,Net-(Q5-E)*%
X96590000Y-101301500D03*
%TO.N,Net-(Q3-E)*%
X94230000Y-89227500D03*
%TO.N,Net-(D33-A)*%
X90025000Y-88197500D03*
%TO.N,Net-(D49-A)*%
X85840000Y-88242500D03*
%TO.N,Net-(D41-A)*%
X87960000Y-88217500D03*
%TO.N,Net-(Q1-E)*%
X98435000Y-89227500D03*
%TO.N,Net-(D57-A)*%
X83755000Y-88197500D03*
%TO.N,/P_8*%
X97040000Y-106577500D03*
%TO.N,/P_6*%
X97095000Y-103052500D03*
%TO.N,/P_4*%
X97070000Y-99640000D03*
%TO.N,/P_2*%
X97085000Y-96227500D03*
%TD*%
%TA.AperFunction,Conductor*%
%TO.N,GND*%
G36*
X81982266Y-78567685D02*
G01*
X82028021Y-78620489D01*
X82037965Y-78689647D01*
X82036844Y-78696192D01*
X82009500Y-78833655D01*
X82009500Y-78991346D01*
X82040261Y-79145989D01*
X82040264Y-79146001D01*
X82100602Y-79291672D01*
X82100609Y-79291685D01*
X82188210Y-79422788D01*
X82188213Y-79422792D01*
X82220240Y-79454819D01*
X82253725Y-79516142D01*
X82248741Y-79585834D01*
X82220242Y-79630179D01*
X82203213Y-79647208D01*
X82203208Y-79647214D01*
X82115609Y-79778314D01*
X82115602Y-79778327D01*
X82055264Y-79923998D01*
X82055261Y-79924010D01*
X82024500Y-80078653D01*
X82024500Y-80236346D01*
X82055261Y-80390989D01*
X82055264Y-80391001D01*
X82115602Y-80536672D01*
X82115609Y-80536685D01*
X82203210Y-80667788D01*
X82203213Y-80667792D01*
X82227740Y-80692319D01*
X82261225Y-80753642D01*
X82256241Y-80823334D01*
X82227740Y-80867681D01*
X82198213Y-80897207D01*
X82198210Y-80897211D01*
X82110609Y-81028314D01*
X82110602Y-81028327D01*
X82050264Y-81173998D01*
X82050261Y-81174010D01*
X82019500Y-81328653D01*
X82019500Y-81486346D01*
X82050261Y-81640989D01*
X82050264Y-81641001D01*
X82110602Y-81786672D01*
X82110609Y-81786685D01*
X82198210Y-81917788D01*
X82198213Y-81917792D01*
X82245240Y-81964819D01*
X82278725Y-82026142D01*
X82273741Y-82095834D01*
X82245244Y-82140177D01*
X82238213Y-82147207D01*
X82238208Y-82147214D01*
X82150609Y-82278314D01*
X82150602Y-82278327D01*
X82090264Y-82423998D01*
X82090261Y-82424010D01*
X82059500Y-82578653D01*
X82059500Y-82736346D01*
X82090261Y-82890989D01*
X82090264Y-82891001D01*
X82150602Y-83036672D01*
X82150609Y-83036685D01*
X82238210Y-83167788D01*
X82238213Y-83167792D01*
X82260240Y-83189819D01*
X82293725Y-83251142D01*
X82288741Y-83320834D01*
X82260240Y-83365181D01*
X82233213Y-83392207D01*
X82233210Y-83392211D01*
X82145609Y-83523314D01*
X82145602Y-83523327D01*
X82085264Y-83668998D01*
X82085261Y-83669010D01*
X82054500Y-83823653D01*
X82054500Y-83981346D01*
X82085261Y-84135989D01*
X82085264Y-84136001D01*
X82145602Y-84281672D01*
X82145609Y-84281685D01*
X82233209Y-84412787D01*
X82233210Y-84412788D01*
X82233211Y-84412789D01*
X82247739Y-84427317D01*
X82281225Y-84488638D01*
X82276242Y-84558329D01*
X82247741Y-84602679D01*
X82213214Y-84637206D01*
X82213210Y-84637211D01*
X82125609Y-84768314D01*
X82125602Y-84768327D01*
X82065264Y-84913998D01*
X82065261Y-84914010D01*
X82034500Y-85068653D01*
X82034500Y-85226346D01*
X82065261Y-85380989D01*
X82065264Y-85381001D01*
X82125602Y-85526672D01*
X82125609Y-85526685D01*
X82213210Y-85657788D01*
X82213213Y-85657792D01*
X82230240Y-85674819D01*
X82263725Y-85736142D01*
X82258741Y-85805834D01*
X82230240Y-85850181D01*
X82193213Y-85887207D01*
X82193210Y-85887211D01*
X82105609Y-86018314D01*
X82105602Y-86018327D01*
X82045264Y-86163998D01*
X82045261Y-86164010D01*
X82014500Y-86318653D01*
X82014500Y-86476346D01*
X82045261Y-86630989D01*
X82045264Y-86631001D01*
X82105602Y-86776672D01*
X82105609Y-86776685D01*
X82193210Y-86907788D01*
X82193213Y-86907792D01*
X82217240Y-86931819D01*
X82250725Y-86993142D01*
X82245741Y-87062834D01*
X82217240Y-87107181D01*
X82188213Y-87136207D01*
X82188210Y-87136211D01*
X82100609Y-87267314D01*
X82100602Y-87267327D01*
X82040264Y-87412998D01*
X82040261Y-87413010D01*
X82009500Y-87567653D01*
X82009500Y-87725346D01*
X82040261Y-87879989D01*
X82040264Y-87880001D01*
X82100602Y-88025672D01*
X82100609Y-88025685D01*
X82188210Y-88156788D01*
X82188213Y-88156792D01*
X82299707Y-88268286D01*
X82299711Y-88268289D01*
X82430814Y-88355890D01*
X82430827Y-88355897D01*
X82576498Y-88416235D01*
X82576503Y-88416237D01*
X82728157Y-88446403D01*
X82731153Y-88446999D01*
X82731156Y-88447000D01*
X82731158Y-88447000D01*
X82888844Y-88447000D01*
X82894907Y-88446403D01*
X82895152Y-88448900D01*
X82908108Y-88450055D01*
X82932011Y-88447796D01*
X82942279Y-88453101D01*
X82953790Y-88454128D01*
X82972753Y-88468848D01*
X82994084Y-88479871D01*
X83002178Y-88491690D01*
X83008982Y-88496972D01*
X83015875Y-88507635D01*
X83019904Y-88514629D01*
X83045606Y-88576679D01*
X83118484Y-88685749D01*
X83120545Y-88689326D01*
X83127822Y-88719448D01*
X83137079Y-88749011D01*
X83135954Y-88753109D01*
X83136953Y-88757241D01*
X83126790Y-88786513D01*
X83118594Y-88816391D01*
X83116202Y-88820114D01*
X83060608Y-88903316D01*
X83060602Y-88903327D01*
X83000264Y-89048998D01*
X83000261Y-89049010D01*
X82969500Y-89203653D01*
X82969500Y-89361346D01*
X83000261Y-89515989D01*
X83000264Y-89516001D01*
X83060602Y-89661672D01*
X83060609Y-89661685D01*
X83148210Y-89792788D01*
X83148213Y-89792792D01*
X83259707Y-89904286D01*
X83259711Y-89904289D01*
X83390814Y-89991890D01*
X83390827Y-89991897D01*
X83512363Y-90042238D01*
X83536503Y-90052237D01*
X83691153Y-90082999D01*
X83691156Y-90083000D01*
X83691158Y-90083000D01*
X83848844Y-90083000D01*
X83848845Y-90082999D01*
X84003497Y-90052237D01*
X84149179Y-89991894D01*
X84280289Y-89904289D01*
X84391789Y-89792789D01*
X84479394Y-89661679D01*
X84539737Y-89515997D01*
X84570500Y-89361342D01*
X84570500Y-89203658D01*
X84570500Y-89203655D01*
X84570499Y-89203653D01*
X84565527Y-89178658D01*
X84539737Y-89049003D01*
X84529380Y-89023998D01*
X84479397Y-88903327D01*
X84479390Y-88903314D01*
X84408798Y-88797666D01*
X84387920Y-88730988D01*
X84406404Y-88663608D01*
X84408798Y-88659884D01*
X84414673Y-88651092D01*
X84464394Y-88576679D01*
X84524737Y-88430997D01*
X84555500Y-88276342D01*
X84555500Y-88118658D01*
X84555500Y-88118655D01*
X84555499Y-88118653D01*
X84537004Y-88025672D01*
X84524737Y-87964003D01*
X84524735Y-87963998D01*
X84464397Y-87818327D01*
X84464390Y-87818314D01*
X84376789Y-87687211D01*
X84376786Y-87687207D01*
X84339759Y-87650180D01*
X84306274Y-87588857D01*
X84311258Y-87519165D01*
X84339759Y-87474818D01*
X84356789Y-87457789D01*
X84444394Y-87326679D01*
X84504737Y-87180997D01*
X84535500Y-87026342D01*
X84535500Y-86868658D01*
X84535500Y-86868655D01*
X84535499Y-86868653D01*
X84517204Y-86776679D01*
X84504737Y-86714003D01*
X84470352Y-86630989D01*
X84444397Y-86568327D01*
X84444390Y-86568314D01*
X84356789Y-86437211D01*
X84356786Y-86437207D01*
X84329760Y-86410181D01*
X84296275Y-86348858D01*
X84301259Y-86279166D01*
X84329760Y-86234819D01*
X84356786Y-86207792D01*
X84356789Y-86207789D01*
X84444394Y-86076679D01*
X84504737Y-85930997D01*
X84535500Y-85776342D01*
X84535500Y-85618658D01*
X84535500Y-85618655D01*
X84535499Y-85618653D01*
X84530527Y-85593658D01*
X84504737Y-85464003D01*
X84470352Y-85380989D01*
X84444397Y-85318327D01*
X84444390Y-85318314D01*
X84356789Y-85187211D01*
X84356786Y-85187207D01*
X84329760Y-85160181D01*
X84296275Y-85098858D01*
X84301259Y-85029166D01*
X84329760Y-84984819D01*
X84356786Y-84957792D01*
X84356789Y-84957789D01*
X84444394Y-84826679D01*
X84504737Y-84680997D01*
X84535500Y-84526342D01*
X84535500Y-84368658D01*
X84535500Y-84368655D01*
X84535499Y-84368653D01*
X84523137Y-84306507D01*
X84504737Y-84214003D01*
X84504735Y-84213998D01*
X84444397Y-84068327D01*
X84444390Y-84068314D01*
X84356789Y-83937211D01*
X84356786Y-83937207D01*
X84329760Y-83910181D01*
X84296275Y-83848858D01*
X84301259Y-83779166D01*
X84329760Y-83734819D01*
X84356786Y-83707792D01*
X84356789Y-83707789D01*
X84444394Y-83576679D01*
X84504737Y-83430997D01*
X84535500Y-83276342D01*
X84535500Y-83118658D01*
X84535500Y-83118655D01*
X84535499Y-83118653D01*
X84519192Y-83036672D01*
X84504737Y-82964003D01*
X84472469Y-82886100D01*
X84444397Y-82818327D01*
X84444390Y-82818314D01*
X84356789Y-82687211D01*
X84356786Y-82687207D01*
X84329760Y-82660181D01*
X84296275Y-82598858D01*
X84301259Y-82529166D01*
X84329760Y-82484819D01*
X84356786Y-82457792D01*
X84356787Y-82457791D01*
X84356789Y-82457789D01*
X84444394Y-82326679D01*
X84504737Y-82180997D01*
X84535500Y-82026342D01*
X84535500Y-81868658D01*
X84535500Y-81868655D01*
X84535499Y-81868653D01*
X84521352Y-81797534D01*
X84504737Y-81714003D01*
X84472423Y-81635989D01*
X84444397Y-81568327D01*
X84444390Y-81568314D01*
X84356789Y-81437211D01*
X84356786Y-81437207D01*
X84329760Y-81410181D01*
X84296275Y-81348858D01*
X84301259Y-81279166D01*
X84329760Y-81234819D01*
X84356786Y-81207792D01*
X84356789Y-81207789D01*
X84444394Y-81076679D01*
X84504737Y-80930997D01*
X84535500Y-80776342D01*
X84535500Y-80618658D01*
X84535500Y-80618655D01*
X84535499Y-80618653D01*
X84504738Y-80464010D01*
X84504737Y-80464003D01*
X84474494Y-80390989D01*
X84444397Y-80318327D01*
X84444390Y-80318314D01*
X84356789Y-80187211D01*
X84356786Y-80187207D01*
X84329760Y-80160181D01*
X84296275Y-80098858D01*
X84301259Y-80029166D01*
X84329760Y-79984819D01*
X84356786Y-79957792D01*
X84356789Y-79957789D01*
X84444394Y-79826679D01*
X84504737Y-79680997D01*
X84535500Y-79526342D01*
X84535500Y-79368658D01*
X84535500Y-79368655D01*
X84535499Y-79368653D01*
X84530086Y-79341439D01*
X84504737Y-79214003D01*
X84500461Y-79203680D01*
X84444397Y-79068327D01*
X84444390Y-79068314D01*
X84356789Y-78937211D01*
X84356786Y-78937207D01*
X84245292Y-78825713D01*
X84245288Y-78825710D01*
X84169548Y-78775102D01*
X84124743Y-78721490D01*
X84116036Y-78652165D01*
X84146190Y-78589137D01*
X84205634Y-78552418D01*
X84238439Y-78548000D01*
X85331561Y-78548000D01*
X85398600Y-78567685D01*
X85444355Y-78620489D01*
X85454299Y-78689647D01*
X85425274Y-78753203D01*
X85400452Y-78775102D01*
X85324711Y-78825710D01*
X85324707Y-78825713D01*
X85213213Y-78937207D01*
X85213210Y-78937211D01*
X85125609Y-79068314D01*
X85125602Y-79068327D01*
X85065264Y-79213998D01*
X85065261Y-79214010D01*
X85034500Y-79368653D01*
X85034500Y-79526346D01*
X85065261Y-79680989D01*
X85065264Y-79681001D01*
X85125602Y-79826672D01*
X85125609Y-79826685D01*
X85213210Y-79957788D01*
X85213213Y-79957792D01*
X85240240Y-79984819D01*
X85273725Y-80046142D01*
X85268741Y-80115834D01*
X85240240Y-80160181D01*
X85213213Y-80187207D01*
X85213210Y-80187211D01*
X85125609Y-80318314D01*
X85125602Y-80318327D01*
X85065264Y-80463998D01*
X85065261Y-80464010D01*
X85034500Y-80618653D01*
X85034500Y-80776346D01*
X85065261Y-80930989D01*
X85065264Y-80931001D01*
X85125602Y-81076672D01*
X85125609Y-81076685D01*
X85213210Y-81207788D01*
X85213213Y-81207792D01*
X85240240Y-81234819D01*
X85273725Y-81296142D01*
X85268741Y-81365834D01*
X85240240Y-81410181D01*
X85213213Y-81437207D01*
X85213210Y-81437211D01*
X85125609Y-81568314D01*
X85125602Y-81568327D01*
X85065264Y-81713998D01*
X85065261Y-81714010D01*
X85034500Y-81868653D01*
X85034500Y-82026346D01*
X85065261Y-82180989D01*
X85065264Y-82181001D01*
X85125602Y-82326672D01*
X85125609Y-82326685D01*
X85213210Y-82457788D01*
X85213213Y-82457792D01*
X85240240Y-82484819D01*
X85273725Y-82546142D01*
X85268741Y-82615834D01*
X85240240Y-82660181D01*
X85213213Y-82687207D01*
X85213210Y-82687211D01*
X85125609Y-82818314D01*
X85125602Y-82818327D01*
X85065264Y-82963998D01*
X85065261Y-82964010D01*
X85034500Y-83118653D01*
X85034500Y-83276346D01*
X85065261Y-83430989D01*
X85065264Y-83431001D01*
X85125602Y-83576672D01*
X85125609Y-83576685D01*
X85213210Y-83707788D01*
X85213213Y-83707792D01*
X85240240Y-83734819D01*
X85273725Y-83796142D01*
X85268741Y-83865834D01*
X85240240Y-83910181D01*
X85213213Y-83937207D01*
X85213210Y-83937211D01*
X85125609Y-84068314D01*
X85125602Y-84068327D01*
X85065264Y-84213998D01*
X85065261Y-84214010D01*
X85034500Y-84368653D01*
X85034500Y-84526346D01*
X85065261Y-84680989D01*
X85065264Y-84681001D01*
X85125602Y-84826672D01*
X85125609Y-84826685D01*
X85213210Y-84957788D01*
X85213213Y-84957792D01*
X85240240Y-84984819D01*
X85273725Y-85046142D01*
X85268741Y-85115834D01*
X85240240Y-85160181D01*
X85213213Y-85187207D01*
X85213210Y-85187211D01*
X85125609Y-85318314D01*
X85125602Y-85318327D01*
X85065264Y-85463998D01*
X85065261Y-85464010D01*
X85034500Y-85618653D01*
X85034500Y-85776346D01*
X85065261Y-85930989D01*
X85065264Y-85931001D01*
X85125602Y-86076672D01*
X85125609Y-86076685D01*
X85213210Y-86207788D01*
X85213213Y-86207792D01*
X85240240Y-86234819D01*
X85273725Y-86296142D01*
X85268741Y-86365834D01*
X85240240Y-86410181D01*
X85213213Y-86437207D01*
X85213210Y-86437211D01*
X85125609Y-86568314D01*
X85125602Y-86568327D01*
X85065264Y-86713998D01*
X85065261Y-86714010D01*
X85034500Y-86868653D01*
X85034500Y-87026346D01*
X85065261Y-87180989D01*
X85065264Y-87181001D01*
X85125602Y-87326672D01*
X85125609Y-87326685D01*
X85213210Y-87457788D01*
X85213213Y-87457792D01*
X85265240Y-87509819D01*
X85298725Y-87571142D01*
X85293741Y-87640834D01*
X85265240Y-87685181D01*
X85218213Y-87732207D01*
X85218210Y-87732211D01*
X85130609Y-87863314D01*
X85130602Y-87863327D01*
X85070264Y-88008998D01*
X85070261Y-88009010D01*
X85039500Y-88163653D01*
X85039500Y-88321346D01*
X85070261Y-88475989D01*
X85070264Y-88476001D01*
X85130602Y-88621672D01*
X85130608Y-88621683D01*
X85180327Y-88696093D01*
X85201204Y-88762770D01*
X85182719Y-88830150D01*
X85180327Y-88833872D01*
X85140611Y-88893312D01*
X85140602Y-88893328D01*
X85080264Y-89038998D01*
X85080261Y-89039010D01*
X85049500Y-89193653D01*
X85049500Y-89351346D01*
X85080261Y-89505989D01*
X85080264Y-89506001D01*
X85140602Y-89651672D01*
X85140609Y-89651685D01*
X85228210Y-89782788D01*
X85228213Y-89782792D01*
X85339707Y-89894286D01*
X85339711Y-89894289D01*
X85470814Y-89981890D01*
X85470827Y-89981897D01*
X85606271Y-90037999D01*
X85616503Y-90042237D01*
X85771153Y-90072999D01*
X85771156Y-90073000D01*
X85771158Y-90073000D01*
X85928844Y-90073000D01*
X85928845Y-90072999D01*
X86083497Y-90042237D01*
X86196166Y-89995567D01*
X86229172Y-89981897D01*
X86229172Y-89981896D01*
X86229179Y-89981894D01*
X86360289Y-89894289D01*
X86471789Y-89782789D01*
X86559394Y-89651679D01*
X86619737Y-89505997D01*
X86650500Y-89351342D01*
X86650500Y-89193658D01*
X86650500Y-89193655D01*
X86650499Y-89193653D01*
X86641548Y-89148653D01*
X86619737Y-89039003D01*
X86605238Y-89003998D01*
X86559397Y-88893327D01*
X86559395Y-88893323D01*
X86559394Y-88893321D01*
X86509671Y-88818906D01*
X86488794Y-88752230D01*
X86507278Y-88684850D01*
X86509655Y-88681150D01*
X86549394Y-88621679D01*
X86609737Y-88475997D01*
X86640500Y-88321342D01*
X86640500Y-88163658D01*
X86640500Y-88163655D01*
X86640499Y-88163653D01*
X86635527Y-88138658D01*
X86609737Y-88009003D01*
X86599380Y-87983998D01*
X86549397Y-87863327D01*
X86549390Y-87863314D01*
X86461789Y-87732211D01*
X86461786Y-87732207D01*
X86409759Y-87680180D01*
X86376274Y-87618857D01*
X86381258Y-87549165D01*
X86409756Y-87504821D01*
X86456789Y-87457789D01*
X86544394Y-87326679D01*
X86604737Y-87180997D01*
X86635500Y-87026342D01*
X86635500Y-86868658D01*
X86635500Y-86868655D01*
X86635499Y-86868653D01*
X86617204Y-86776679D01*
X86604737Y-86714003D01*
X86570352Y-86630989D01*
X86544397Y-86568327D01*
X86544390Y-86568314D01*
X86456789Y-86437211D01*
X86456786Y-86437207D01*
X86429760Y-86410181D01*
X86396275Y-86348858D01*
X86401259Y-86279166D01*
X86429760Y-86234819D01*
X86456786Y-86207792D01*
X86456789Y-86207789D01*
X86544394Y-86076679D01*
X86604737Y-85930997D01*
X86635500Y-85776342D01*
X86635500Y-85618658D01*
X86635500Y-85618655D01*
X86635499Y-85618653D01*
X86630527Y-85593658D01*
X86604737Y-85464003D01*
X86570352Y-85380989D01*
X86544397Y-85318327D01*
X86544390Y-85318314D01*
X86456789Y-85187211D01*
X86456786Y-85187207D01*
X86429760Y-85160181D01*
X86396275Y-85098858D01*
X86401259Y-85029166D01*
X86429760Y-84984819D01*
X86456786Y-84957792D01*
X86456789Y-84957789D01*
X86544394Y-84826679D01*
X86604737Y-84680997D01*
X86635500Y-84526342D01*
X86635500Y-84368658D01*
X86635500Y-84368655D01*
X86635499Y-84368653D01*
X86623137Y-84306507D01*
X86604737Y-84214003D01*
X86604735Y-84213998D01*
X86544397Y-84068327D01*
X86544390Y-84068314D01*
X86456789Y-83937211D01*
X86456786Y-83937207D01*
X86429760Y-83910181D01*
X86396275Y-83848858D01*
X86401259Y-83779166D01*
X86429760Y-83734819D01*
X86456786Y-83707792D01*
X86456789Y-83707789D01*
X86544394Y-83576679D01*
X86604737Y-83430997D01*
X86635500Y-83276342D01*
X86635500Y-83118658D01*
X86635500Y-83118655D01*
X86635499Y-83118653D01*
X86619192Y-83036672D01*
X86604737Y-82964003D01*
X86572469Y-82886100D01*
X86544397Y-82818327D01*
X86544390Y-82818314D01*
X86456789Y-82687211D01*
X86456786Y-82687207D01*
X86429760Y-82660181D01*
X86396275Y-82598858D01*
X86401259Y-82529166D01*
X86429760Y-82484819D01*
X86456786Y-82457792D01*
X86456787Y-82457791D01*
X86456789Y-82457789D01*
X86544394Y-82326679D01*
X86604737Y-82180997D01*
X86635500Y-82026342D01*
X86635500Y-81868658D01*
X86635500Y-81868655D01*
X86635499Y-81868653D01*
X86621352Y-81797534D01*
X86604737Y-81714003D01*
X86572423Y-81635989D01*
X86544397Y-81568327D01*
X86544390Y-81568314D01*
X86456789Y-81437211D01*
X86456786Y-81437207D01*
X86429760Y-81410181D01*
X86396275Y-81348858D01*
X86401259Y-81279166D01*
X86429760Y-81234819D01*
X86456786Y-81207792D01*
X86456789Y-81207789D01*
X86544394Y-81076679D01*
X86604737Y-80930997D01*
X86635500Y-80776342D01*
X86635500Y-80618658D01*
X86635500Y-80618655D01*
X86635499Y-80618653D01*
X86604738Y-80464010D01*
X86604737Y-80464003D01*
X86574494Y-80390989D01*
X86544397Y-80318327D01*
X86544390Y-80318314D01*
X86456789Y-80187211D01*
X86456786Y-80187207D01*
X86429760Y-80160181D01*
X86396275Y-80098858D01*
X86401259Y-80029166D01*
X86429760Y-79984819D01*
X86456786Y-79957792D01*
X86456789Y-79957789D01*
X86544394Y-79826679D01*
X86604737Y-79680997D01*
X86635500Y-79526342D01*
X86635500Y-79368658D01*
X86635500Y-79368655D01*
X86635499Y-79368653D01*
X86630086Y-79341439D01*
X86604737Y-79214003D01*
X86600461Y-79203680D01*
X86544397Y-79068327D01*
X86544390Y-79068314D01*
X86456789Y-78937211D01*
X86456786Y-78937207D01*
X86345292Y-78825713D01*
X86345288Y-78825710D01*
X86269548Y-78775102D01*
X86224743Y-78721490D01*
X86216036Y-78652165D01*
X86246190Y-78589137D01*
X86305634Y-78552418D01*
X86338439Y-78548000D01*
X87431561Y-78548000D01*
X87498600Y-78567685D01*
X87544355Y-78620489D01*
X87554299Y-78689647D01*
X87525274Y-78753203D01*
X87500452Y-78775102D01*
X87424711Y-78825710D01*
X87424707Y-78825713D01*
X87313213Y-78937207D01*
X87313210Y-78937211D01*
X87225609Y-79068314D01*
X87225602Y-79068327D01*
X87165264Y-79213998D01*
X87165261Y-79214010D01*
X87134500Y-79368653D01*
X87134500Y-79526346D01*
X87165261Y-79680989D01*
X87165264Y-79681001D01*
X87225602Y-79826672D01*
X87225609Y-79826685D01*
X87313210Y-79957788D01*
X87313213Y-79957792D01*
X87340240Y-79984819D01*
X87373725Y-80046142D01*
X87368741Y-80115834D01*
X87340240Y-80160181D01*
X87313213Y-80187207D01*
X87313210Y-80187211D01*
X87225609Y-80318314D01*
X87225602Y-80318327D01*
X87165264Y-80463998D01*
X87165261Y-80464010D01*
X87134500Y-80618653D01*
X87134500Y-80776346D01*
X87165261Y-80930989D01*
X87165264Y-80931001D01*
X87225602Y-81076672D01*
X87225609Y-81076685D01*
X87313210Y-81207788D01*
X87313213Y-81207792D01*
X87340240Y-81234819D01*
X87373725Y-81296142D01*
X87368741Y-81365834D01*
X87340240Y-81410181D01*
X87313213Y-81437207D01*
X87313210Y-81437211D01*
X87225609Y-81568314D01*
X87225602Y-81568327D01*
X87165264Y-81713998D01*
X87165261Y-81714010D01*
X87134500Y-81868653D01*
X87134500Y-82026346D01*
X87165261Y-82180989D01*
X87165264Y-82181001D01*
X87225602Y-82326672D01*
X87225609Y-82326685D01*
X87313210Y-82457788D01*
X87313213Y-82457792D01*
X87340240Y-82484819D01*
X87373725Y-82546142D01*
X87368741Y-82615834D01*
X87340240Y-82660181D01*
X87313213Y-82687207D01*
X87313210Y-82687211D01*
X87225609Y-82818314D01*
X87225602Y-82818327D01*
X87165264Y-82963998D01*
X87165261Y-82964010D01*
X87134500Y-83118653D01*
X87134500Y-83276346D01*
X87165261Y-83430989D01*
X87165264Y-83431001D01*
X87225602Y-83576672D01*
X87225609Y-83576685D01*
X87313210Y-83707788D01*
X87313213Y-83707792D01*
X87340240Y-83734819D01*
X87373725Y-83796142D01*
X87368741Y-83865834D01*
X87340240Y-83910181D01*
X87313213Y-83937207D01*
X87313210Y-83937211D01*
X87225609Y-84068314D01*
X87225602Y-84068327D01*
X87165264Y-84213998D01*
X87165261Y-84214010D01*
X87134500Y-84368653D01*
X87134500Y-84526346D01*
X87165261Y-84680989D01*
X87165264Y-84681001D01*
X87225602Y-84826672D01*
X87225609Y-84826685D01*
X87313210Y-84957788D01*
X87313213Y-84957792D01*
X87327740Y-84972319D01*
X87361225Y-85033642D01*
X87356241Y-85103334D01*
X87327740Y-85147681D01*
X87313213Y-85162207D01*
X87313210Y-85162211D01*
X87225609Y-85293314D01*
X87225602Y-85293327D01*
X87165264Y-85438998D01*
X87165261Y-85439010D01*
X87134500Y-85593653D01*
X87134500Y-85751346D01*
X87165261Y-85905989D01*
X87165264Y-85906001D01*
X87225602Y-86051672D01*
X87225609Y-86051685D01*
X87313210Y-86182788D01*
X87313213Y-86182792D01*
X87352740Y-86222319D01*
X87386225Y-86283642D01*
X87381241Y-86353334D01*
X87352740Y-86397681D01*
X87313213Y-86437207D01*
X87313210Y-86437211D01*
X87225609Y-86568314D01*
X87225602Y-86568327D01*
X87165264Y-86713998D01*
X87165261Y-86714010D01*
X87134500Y-86868653D01*
X87134500Y-87026346D01*
X87165261Y-87180989D01*
X87165264Y-87181001D01*
X87225602Y-87326672D01*
X87225609Y-87326685D01*
X87313210Y-87457788D01*
X87313213Y-87457792D01*
X87362740Y-87507319D01*
X87396225Y-87568642D01*
X87391241Y-87638334D01*
X87362740Y-87682681D01*
X87338213Y-87707207D01*
X87338210Y-87707211D01*
X87250609Y-87838314D01*
X87250602Y-87838327D01*
X87190264Y-87983998D01*
X87190261Y-87984010D01*
X87159500Y-88138653D01*
X87159500Y-88296346D01*
X87190261Y-88450989D01*
X87190264Y-88451001D01*
X87250602Y-88596671D01*
X87250609Y-88596684D01*
X87286168Y-88649901D01*
X87307046Y-88716578D01*
X87288562Y-88783959D01*
X87286168Y-88787683D01*
X87225609Y-88878314D01*
X87225602Y-88878327D01*
X87165264Y-89023998D01*
X87165261Y-89024010D01*
X87134500Y-89178653D01*
X87134500Y-89336346D01*
X87165261Y-89490989D01*
X87165264Y-89491001D01*
X87225602Y-89636672D01*
X87225609Y-89636685D01*
X87313210Y-89767788D01*
X87313213Y-89767792D01*
X87424707Y-89879286D01*
X87424711Y-89879289D01*
X87555814Y-89966890D01*
X87555827Y-89966897D01*
X87701498Y-90027235D01*
X87701503Y-90027237D01*
X87827176Y-90052235D01*
X87856153Y-90057999D01*
X87856156Y-90058000D01*
X87856158Y-90058000D01*
X88013844Y-90058000D01*
X88013845Y-90057999D01*
X88168497Y-90027237D01*
X88314179Y-89966894D01*
X88445289Y-89879289D01*
X88556789Y-89767789D01*
X88644394Y-89636679D01*
X88704737Y-89490997D01*
X88735500Y-89336342D01*
X88735500Y-89178658D01*
X88735500Y-89178655D01*
X88735499Y-89178653D01*
X88707722Y-89039010D01*
X88704737Y-89024003D01*
X88654747Y-88903316D01*
X88644395Y-88878323D01*
X88644394Y-88878321D01*
X88608830Y-88825096D01*
X88587953Y-88758421D01*
X88606437Y-88691041D01*
X88608809Y-88687350D01*
X88669394Y-88596679D01*
X88729737Y-88450997D01*
X88760500Y-88296342D01*
X88760500Y-88138658D01*
X88760500Y-88138655D01*
X88760499Y-88138653D01*
X88738027Y-88025679D01*
X88729737Y-87984003D01*
X88700745Y-87914010D01*
X88669397Y-87838327D01*
X88669390Y-87838314D01*
X88581789Y-87707211D01*
X88581786Y-87707207D01*
X88532260Y-87657682D01*
X88498774Y-87596359D01*
X88503758Y-87526668D01*
X88532258Y-87482319D01*
X88556789Y-87457789D01*
X88644394Y-87326679D01*
X88704737Y-87180997D01*
X88735500Y-87026342D01*
X88735500Y-86868658D01*
X88735500Y-86868655D01*
X88735499Y-86868653D01*
X88717204Y-86776679D01*
X88704737Y-86714003D01*
X88670352Y-86630989D01*
X88644397Y-86568327D01*
X88644390Y-86568314D01*
X88556789Y-86437211D01*
X88556786Y-86437207D01*
X88517260Y-86397682D01*
X88483774Y-86336359D01*
X88488758Y-86266668D01*
X88517260Y-86222318D01*
X88556786Y-86182792D01*
X88556789Y-86182789D01*
X88644394Y-86051679D01*
X88704737Y-85905997D01*
X88735500Y-85751342D01*
X88735500Y-85593658D01*
X88735500Y-85593655D01*
X88735499Y-85593653D01*
X88722177Y-85526679D01*
X88704737Y-85439003D01*
X88680712Y-85381001D01*
X88644397Y-85293327D01*
X88644390Y-85293314D01*
X88556790Y-85162212D01*
X88549758Y-85155180D01*
X88542259Y-85147681D01*
X88508774Y-85086361D01*
X88513757Y-85016670D01*
X88542259Y-84972318D01*
X88556789Y-84957789D01*
X88644394Y-84826679D01*
X88704737Y-84680997D01*
X88735500Y-84526342D01*
X88735500Y-84368658D01*
X88735500Y-84368655D01*
X88735499Y-84368653D01*
X88723137Y-84306507D01*
X88704737Y-84214003D01*
X88704735Y-84213998D01*
X88644397Y-84068327D01*
X88644390Y-84068314D01*
X88556789Y-83937211D01*
X88556786Y-83937207D01*
X88529760Y-83910181D01*
X88496275Y-83848858D01*
X88501259Y-83779166D01*
X88529760Y-83734819D01*
X88556786Y-83707792D01*
X88556789Y-83707789D01*
X88644394Y-83576679D01*
X88704737Y-83430997D01*
X88735500Y-83276342D01*
X88735500Y-83118658D01*
X88735500Y-83118655D01*
X88735499Y-83118653D01*
X88719192Y-83036672D01*
X88704737Y-82964003D01*
X88672469Y-82886100D01*
X88644397Y-82818327D01*
X88644390Y-82818314D01*
X88556789Y-82687211D01*
X88556786Y-82687207D01*
X88529760Y-82660181D01*
X88496275Y-82598858D01*
X88501259Y-82529166D01*
X88529760Y-82484819D01*
X88556786Y-82457792D01*
X88556787Y-82457791D01*
X88556789Y-82457789D01*
X88644394Y-82326679D01*
X88704737Y-82180997D01*
X88735500Y-82026342D01*
X88735500Y-81868658D01*
X88735500Y-81868655D01*
X88735499Y-81868653D01*
X88721352Y-81797534D01*
X88704737Y-81714003D01*
X88672423Y-81635989D01*
X88644397Y-81568327D01*
X88644390Y-81568314D01*
X88556789Y-81437211D01*
X88556786Y-81437207D01*
X88529760Y-81410181D01*
X88496275Y-81348858D01*
X88501259Y-81279166D01*
X88529760Y-81234819D01*
X88556786Y-81207792D01*
X88556789Y-81207789D01*
X88644394Y-81076679D01*
X88704737Y-80930997D01*
X88735500Y-80776342D01*
X88735500Y-80618658D01*
X88735500Y-80618655D01*
X88735499Y-80618653D01*
X88704738Y-80464010D01*
X88704737Y-80464003D01*
X88674494Y-80390989D01*
X88644397Y-80318327D01*
X88644390Y-80318314D01*
X88556789Y-80187211D01*
X88556786Y-80187207D01*
X88529760Y-80160181D01*
X88496275Y-80098858D01*
X88501259Y-80029166D01*
X88529760Y-79984819D01*
X88556786Y-79957792D01*
X88556789Y-79957789D01*
X88644394Y-79826679D01*
X88704737Y-79680997D01*
X88735500Y-79526342D01*
X88735500Y-79368658D01*
X88735500Y-79368655D01*
X88735499Y-79368653D01*
X88730086Y-79341439D01*
X88704737Y-79214003D01*
X88700461Y-79203680D01*
X88644397Y-79068327D01*
X88644390Y-79068314D01*
X88556789Y-78937211D01*
X88556786Y-78937207D01*
X88445292Y-78825713D01*
X88445288Y-78825710D01*
X88369548Y-78775102D01*
X88324743Y-78721490D01*
X88316036Y-78652165D01*
X88346190Y-78589137D01*
X88405634Y-78552418D01*
X88438439Y-78548000D01*
X89531561Y-78548000D01*
X89598600Y-78567685D01*
X89644355Y-78620489D01*
X89654299Y-78689647D01*
X89625274Y-78753203D01*
X89600452Y-78775102D01*
X89524711Y-78825710D01*
X89524707Y-78825713D01*
X89413213Y-78937207D01*
X89413210Y-78937211D01*
X89325609Y-79068314D01*
X89325602Y-79068327D01*
X89265264Y-79213998D01*
X89265261Y-79214010D01*
X89234500Y-79368653D01*
X89234500Y-79526346D01*
X89265261Y-79680989D01*
X89265264Y-79681001D01*
X89325602Y-79826672D01*
X89325609Y-79826685D01*
X89413210Y-79957788D01*
X89413213Y-79957792D01*
X89440240Y-79984819D01*
X89473725Y-80046142D01*
X89468741Y-80115834D01*
X89440240Y-80160181D01*
X89413213Y-80187207D01*
X89413210Y-80187211D01*
X89325609Y-80318314D01*
X89325602Y-80318327D01*
X89265264Y-80463998D01*
X89265261Y-80464010D01*
X89234500Y-80618653D01*
X89234500Y-80776346D01*
X89265261Y-80930989D01*
X89265264Y-80931001D01*
X89325602Y-81076672D01*
X89325609Y-81076685D01*
X89413210Y-81207788D01*
X89413213Y-81207792D01*
X89440240Y-81234819D01*
X89473725Y-81296142D01*
X89468741Y-81365834D01*
X89440240Y-81410181D01*
X89413213Y-81437207D01*
X89413210Y-81437211D01*
X89325609Y-81568314D01*
X89325602Y-81568327D01*
X89265264Y-81713998D01*
X89265261Y-81714010D01*
X89234500Y-81868653D01*
X89234500Y-82026346D01*
X89265261Y-82180989D01*
X89265264Y-82181001D01*
X89325602Y-82326672D01*
X89325609Y-82326685D01*
X89413210Y-82457788D01*
X89413213Y-82457792D01*
X89440240Y-82484819D01*
X89473725Y-82546142D01*
X89468741Y-82615834D01*
X89440240Y-82660181D01*
X89413213Y-82687207D01*
X89413210Y-82687211D01*
X89325609Y-82818314D01*
X89325602Y-82818327D01*
X89265264Y-82963998D01*
X89265261Y-82964010D01*
X89234500Y-83118653D01*
X89234500Y-83276346D01*
X89265261Y-83430989D01*
X89265264Y-83431001D01*
X89325602Y-83576672D01*
X89325609Y-83576685D01*
X89413210Y-83707788D01*
X89413213Y-83707792D01*
X89440240Y-83734819D01*
X89473725Y-83796142D01*
X89468741Y-83865834D01*
X89440240Y-83910181D01*
X89413213Y-83937207D01*
X89413210Y-83937211D01*
X89325609Y-84068314D01*
X89325602Y-84068327D01*
X89265264Y-84213998D01*
X89265261Y-84214010D01*
X89234500Y-84368653D01*
X89234500Y-84526346D01*
X89265261Y-84680989D01*
X89265264Y-84681001D01*
X89325602Y-84826672D01*
X89325609Y-84826685D01*
X89413210Y-84957788D01*
X89413213Y-84957792D01*
X89440240Y-84984819D01*
X89473725Y-85046142D01*
X89468741Y-85115834D01*
X89440240Y-85160181D01*
X89413213Y-85187207D01*
X89413210Y-85187211D01*
X89325609Y-85318314D01*
X89325602Y-85318327D01*
X89265264Y-85463998D01*
X89265261Y-85464010D01*
X89234500Y-85618653D01*
X89234500Y-85776346D01*
X89265261Y-85930989D01*
X89265264Y-85931001D01*
X89325602Y-86076672D01*
X89325609Y-86076685D01*
X89413210Y-86207788D01*
X89413213Y-86207792D01*
X89440240Y-86234819D01*
X89473725Y-86296142D01*
X89468741Y-86365834D01*
X89440240Y-86410181D01*
X89413213Y-86437207D01*
X89413210Y-86437211D01*
X89325609Y-86568314D01*
X89325602Y-86568327D01*
X89265264Y-86713998D01*
X89265261Y-86714010D01*
X89234500Y-86868653D01*
X89234500Y-87026346D01*
X89265261Y-87180989D01*
X89265264Y-87181001D01*
X89325602Y-87326672D01*
X89325609Y-87326685D01*
X89413210Y-87457788D01*
X89413213Y-87457792D01*
X89435240Y-87479819D01*
X89468725Y-87541142D01*
X89463741Y-87610834D01*
X89435240Y-87655181D01*
X89403213Y-87687207D01*
X89403210Y-87687211D01*
X89315609Y-87818314D01*
X89315602Y-87818327D01*
X89255264Y-87963998D01*
X89255261Y-87964010D01*
X89224500Y-88118653D01*
X89224500Y-88276346D01*
X89255261Y-88430989D01*
X89255264Y-88431001D01*
X89315602Y-88576672D01*
X89315609Y-88576685D01*
X89367849Y-88654867D01*
X89388727Y-88721545D01*
X89370242Y-88788925D01*
X89367850Y-88792648D01*
X89310608Y-88878316D01*
X89310602Y-88878327D01*
X89250264Y-89023998D01*
X89250261Y-89024010D01*
X89219500Y-89178653D01*
X89219500Y-89336346D01*
X89250261Y-89490989D01*
X89250264Y-89491001D01*
X89310602Y-89636672D01*
X89310609Y-89636685D01*
X89398210Y-89767788D01*
X89398213Y-89767792D01*
X89509707Y-89879286D01*
X89509711Y-89879289D01*
X89640814Y-89966890D01*
X89640827Y-89966897D01*
X89786498Y-90027235D01*
X89786503Y-90027237D01*
X89912176Y-90052235D01*
X89941153Y-90057999D01*
X89941156Y-90058000D01*
X89941158Y-90058000D01*
X90098844Y-90058000D01*
X90098845Y-90057999D01*
X90253497Y-90027237D01*
X90399179Y-89966894D01*
X90530289Y-89879289D01*
X90641789Y-89767789D01*
X90729394Y-89636679D01*
X90789737Y-89490997D01*
X90820500Y-89336342D01*
X90820500Y-89178658D01*
X90820500Y-89178655D01*
X90820499Y-89178653D01*
X90792722Y-89039010D01*
X90789737Y-89024003D01*
X90739752Y-88903327D01*
X90729397Y-88878327D01*
X90729390Y-88878314D01*
X90677150Y-88800132D01*
X90656272Y-88733455D01*
X90674756Y-88666075D01*
X90677123Y-88662390D01*
X90734394Y-88576679D01*
X90794737Y-88430997D01*
X90825500Y-88276342D01*
X90825500Y-88118658D01*
X90825500Y-88118655D01*
X90825499Y-88118653D01*
X90807004Y-88025672D01*
X90794737Y-87964003D01*
X90794735Y-87963998D01*
X90734397Y-87818327D01*
X90734390Y-87818314D01*
X90646790Y-87687212D01*
X90639758Y-87680180D01*
X90624758Y-87665180D01*
X90591274Y-87603860D01*
X90596257Y-87534169D01*
X90624760Y-87489818D01*
X90656786Y-87457792D01*
X90656789Y-87457789D01*
X90744394Y-87326679D01*
X90804737Y-87180997D01*
X90835500Y-87026342D01*
X90835500Y-86868658D01*
X90835500Y-86868655D01*
X90835499Y-86868653D01*
X90817204Y-86776679D01*
X90804737Y-86714003D01*
X90770352Y-86630989D01*
X90744397Y-86568327D01*
X90744390Y-86568314D01*
X90656789Y-86437211D01*
X90656786Y-86437207D01*
X90629760Y-86410181D01*
X90596275Y-86348858D01*
X90601259Y-86279166D01*
X90629760Y-86234819D01*
X90656786Y-86207792D01*
X90656789Y-86207789D01*
X90744394Y-86076679D01*
X90804737Y-85930997D01*
X90835500Y-85776342D01*
X90835500Y-85618658D01*
X90835500Y-85618655D01*
X90835499Y-85618653D01*
X90830527Y-85593658D01*
X90804737Y-85464003D01*
X90770352Y-85380989D01*
X90744397Y-85318327D01*
X90744390Y-85318314D01*
X90656789Y-85187211D01*
X90656786Y-85187207D01*
X90629760Y-85160181D01*
X90596275Y-85098858D01*
X90601259Y-85029166D01*
X90629760Y-84984819D01*
X90656786Y-84957792D01*
X90656789Y-84957789D01*
X90744394Y-84826679D01*
X90804737Y-84680997D01*
X90835500Y-84526342D01*
X90835500Y-84368658D01*
X90835500Y-84368655D01*
X90835499Y-84368653D01*
X90823137Y-84306507D01*
X90804737Y-84214003D01*
X90804735Y-84213998D01*
X90744397Y-84068327D01*
X90744390Y-84068314D01*
X90656789Y-83937211D01*
X90656786Y-83937207D01*
X90629760Y-83910181D01*
X90596275Y-83848858D01*
X90601259Y-83779166D01*
X90629760Y-83734819D01*
X90656786Y-83707792D01*
X90656789Y-83707789D01*
X90744394Y-83576679D01*
X90804737Y-83430997D01*
X90835500Y-83276342D01*
X90835500Y-83118658D01*
X90835500Y-83118655D01*
X90835499Y-83118653D01*
X90819192Y-83036672D01*
X90804737Y-82964003D01*
X90772469Y-82886100D01*
X90744397Y-82818327D01*
X90744390Y-82818314D01*
X90656789Y-82687211D01*
X90656786Y-82687207D01*
X90629760Y-82660181D01*
X90596275Y-82598858D01*
X90601259Y-82529166D01*
X90629760Y-82484819D01*
X90656786Y-82457792D01*
X90656787Y-82457791D01*
X90656789Y-82457789D01*
X90744394Y-82326679D01*
X90804737Y-82180997D01*
X90835500Y-82026342D01*
X90835500Y-81868658D01*
X90835500Y-81868655D01*
X90835499Y-81868653D01*
X90821352Y-81797534D01*
X90804737Y-81714003D01*
X90772423Y-81635989D01*
X90744397Y-81568327D01*
X90744390Y-81568314D01*
X90656789Y-81437211D01*
X90656786Y-81437207D01*
X90629760Y-81410181D01*
X90596275Y-81348858D01*
X90601259Y-81279166D01*
X90629760Y-81234819D01*
X90656786Y-81207792D01*
X90656789Y-81207789D01*
X90744394Y-81076679D01*
X90804737Y-80930997D01*
X90835500Y-80776342D01*
X90835500Y-80618658D01*
X90835500Y-80618655D01*
X90835499Y-80618653D01*
X90804738Y-80464010D01*
X90804737Y-80464003D01*
X90774494Y-80390989D01*
X90744397Y-80318327D01*
X90744390Y-80318314D01*
X90656789Y-80187211D01*
X90656786Y-80187207D01*
X90629760Y-80160181D01*
X90596275Y-80098858D01*
X90601259Y-80029166D01*
X90629760Y-79984819D01*
X90656786Y-79957792D01*
X90656789Y-79957789D01*
X90744394Y-79826679D01*
X90804737Y-79680997D01*
X90835500Y-79526342D01*
X90835500Y-79368658D01*
X90835500Y-79368655D01*
X90835499Y-79368653D01*
X90830086Y-79341439D01*
X90804737Y-79214003D01*
X90800461Y-79203680D01*
X90744397Y-79068327D01*
X90744390Y-79068314D01*
X90656789Y-78937211D01*
X90656786Y-78937207D01*
X90545292Y-78825713D01*
X90545288Y-78825710D01*
X90469548Y-78775102D01*
X90424743Y-78721490D01*
X90416036Y-78652165D01*
X90446190Y-78589137D01*
X90505634Y-78552418D01*
X90538439Y-78548000D01*
X91631561Y-78548000D01*
X91698600Y-78567685D01*
X91744355Y-78620489D01*
X91754299Y-78689647D01*
X91725274Y-78753203D01*
X91700452Y-78775102D01*
X91624711Y-78825710D01*
X91624707Y-78825713D01*
X91513213Y-78937207D01*
X91513210Y-78937211D01*
X91425609Y-79068314D01*
X91425602Y-79068327D01*
X91365264Y-79213998D01*
X91365261Y-79214010D01*
X91334500Y-79368653D01*
X91334500Y-79526346D01*
X91365261Y-79680989D01*
X91365264Y-79681001D01*
X91425602Y-79826672D01*
X91425609Y-79826685D01*
X91513210Y-79957788D01*
X91513213Y-79957792D01*
X91540240Y-79984819D01*
X91573725Y-80046142D01*
X91568741Y-80115834D01*
X91540240Y-80160181D01*
X91513213Y-80187207D01*
X91513210Y-80187211D01*
X91425609Y-80318314D01*
X91425602Y-80318327D01*
X91365264Y-80463998D01*
X91365261Y-80464010D01*
X91334500Y-80618653D01*
X91334500Y-80776346D01*
X91365261Y-80930989D01*
X91365264Y-80931001D01*
X91425602Y-81076672D01*
X91425609Y-81076685D01*
X91513210Y-81207788D01*
X91513213Y-81207792D01*
X91540240Y-81234819D01*
X91573725Y-81296142D01*
X91568741Y-81365834D01*
X91540240Y-81410181D01*
X91513213Y-81437207D01*
X91513210Y-81437211D01*
X91425609Y-81568314D01*
X91425602Y-81568327D01*
X91365264Y-81713998D01*
X91365261Y-81714010D01*
X91334500Y-81868653D01*
X91334500Y-82026346D01*
X91365261Y-82180989D01*
X91365264Y-82181001D01*
X91425602Y-82326672D01*
X91425609Y-82326685D01*
X91513210Y-82457788D01*
X91513213Y-82457792D01*
X91540240Y-82484819D01*
X91573725Y-82546142D01*
X91568741Y-82615834D01*
X91540240Y-82660181D01*
X91513213Y-82687207D01*
X91513210Y-82687211D01*
X91425609Y-82818314D01*
X91425602Y-82818327D01*
X91365264Y-82963998D01*
X91365261Y-82964010D01*
X91334500Y-83118653D01*
X91334500Y-83276346D01*
X91365261Y-83430989D01*
X91365264Y-83431001D01*
X91425602Y-83576672D01*
X91425609Y-83576685D01*
X91513210Y-83707788D01*
X91513213Y-83707792D01*
X91540240Y-83734819D01*
X91573725Y-83796142D01*
X91568741Y-83865834D01*
X91540240Y-83910181D01*
X91513213Y-83937207D01*
X91513210Y-83937211D01*
X91425609Y-84068314D01*
X91425602Y-84068327D01*
X91365264Y-84213998D01*
X91365261Y-84214010D01*
X91334500Y-84368653D01*
X91334500Y-84526346D01*
X91365261Y-84680989D01*
X91365264Y-84681001D01*
X91425602Y-84826672D01*
X91425609Y-84826685D01*
X91513210Y-84957788D01*
X91513213Y-84957792D01*
X91540240Y-84984819D01*
X91573725Y-85046142D01*
X91568741Y-85115834D01*
X91540240Y-85160181D01*
X91513213Y-85187207D01*
X91513210Y-85187211D01*
X91425609Y-85318314D01*
X91425602Y-85318327D01*
X91365264Y-85463998D01*
X91365261Y-85464010D01*
X91334500Y-85618653D01*
X91334500Y-85776346D01*
X91365261Y-85930989D01*
X91365264Y-85931001D01*
X91425602Y-86076672D01*
X91425609Y-86076685D01*
X91513210Y-86207788D01*
X91513213Y-86207792D01*
X91540240Y-86234819D01*
X91573725Y-86296142D01*
X91568741Y-86365834D01*
X91540240Y-86410181D01*
X91513213Y-86437207D01*
X91513210Y-86437211D01*
X91425609Y-86568314D01*
X91425602Y-86568327D01*
X91365264Y-86713998D01*
X91365261Y-86714010D01*
X91334500Y-86868653D01*
X91334500Y-87026346D01*
X91365261Y-87180989D01*
X91365264Y-87181001D01*
X91425602Y-87326672D01*
X91425609Y-87326685D01*
X91513210Y-87457788D01*
X91513213Y-87457792D01*
X91542740Y-87487319D01*
X91576225Y-87548642D01*
X91571241Y-87618334D01*
X91542740Y-87662681D01*
X91518213Y-87687207D01*
X91518210Y-87687211D01*
X91430609Y-87818314D01*
X91430602Y-87818327D01*
X91370264Y-87963998D01*
X91370261Y-87964010D01*
X91339500Y-88118653D01*
X91339500Y-88276346D01*
X91370261Y-88430989D01*
X91370264Y-88431001D01*
X91430602Y-88576672D01*
X91430609Y-88576685D01*
X91470326Y-88636125D01*
X91491204Y-88702803D01*
X91472719Y-88770183D01*
X91470327Y-88773906D01*
X91420608Y-88848316D01*
X91420602Y-88848327D01*
X91360264Y-88993998D01*
X91360261Y-88994010D01*
X91329500Y-89148653D01*
X91329500Y-89306346D01*
X91360261Y-89460989D01*
X91360264Y-89461001D01*
X91420602Y-89606672D01*
X91420609Y-89606685D01*
X91508210Y-89737788D01*
X91508213Y-89737792D01*
X91619707Y-89849286D01*
X91619711Y-89849289D01*
X91750814Y-89936890D01*
X91750827Y-89936897D01*
X91883611Y-89991897D01*
X91896503Y-89997237D01*
X92047312Y-90027235D01*
X92051153Y-90027999D01*
X92051156Y-90028000D01*
X92051158Y-90028000D01*
X92208844Y-90028000D01*
X92208845Y-90027999D01*
X92363497Y-89997237D01*
X92476166Y-89950567D01*
X92509172Y-89936897D01*
X92509172Y-89936896D01*
X92509179Y-89936894D01*
X92640289Y-89849289D01*
X92751789Y-89737789D01*
X92839394Y-89606679D01*
X92899737Y-89460997D01*
X92930500Y-89306342D01*
X92930500Y-89148658D01*
X92930500Y-89148655D01*
X92930499Y-89148653D01*
X92899737Y-88994003D01*
X92862173Y-88903314D01*
X92839397Y-88848327D01*
X92839390Y-88848314D01*
X92799673Y-88788874D01*
X92778795Y-88722197D01*
X92797279Y-88654817D01*
X92799673Y-88651092D01*
X92849390Y-88576685D01*
X92849391Y-88576683D01*
X92849394Y-88576679D01*
X92909737Y-88430997D01*
X92940500Y-88276342D01*
X92940500Y-88118658D01*
X92940500Y-88118655D01*
X92940499Y-88118653D01*
X92922004Y-88025672D01*
X92909737Y-87964003D01*
X92909735Y-87963998D01*
X92849397Y-87818327D01*
X92849390Y-87818314D01*
X92761790Y-87687212D01*
X92754758Y-87680180D01*
X92732258Y-87657680D01*
X92698774Y-87596360D01*
X92703758Y-87526668D01*
X92732258Y-87482319D01*
X92756789Y-87457789D01*
X92844394Y-87326679D01*
X92904737Y-87180997D01*
X92935500Y-87026342D01*
X92935500Y-86868658D01*
X92935500Y-86868655D01*
X92935499Y-86868653D01*
X92917204Y-86776679D01*
X92904737Y-86714003D01*
X92870352Y-86630989D01*
X92844397Y-86568327D01*
X92844390Y-86568314D01*
X92756789Y-86437211D01*
X92756786Y-86437207D01*
X92729760Y-86410181D01*
X92696275Y-86348858D01*
X92701259Y-86279166D01*
X92729760Y-86234819D01*
X92756786Y-86207792D01*
X92756789Y-86207789D01*
X92844394Y-86076679D01*
X92904737Y-85930997D01*
X92935500Y-85776342D01*
X92935500Y-85618658D01*
X92935500Y-85618655D01*
X92935499Y-85618653D01*
X92930527Y-85593658D01*
X92904737Y-85464003D01*
X92870352Y-85380989D01*
X92844397Y-85318327D01*
X92844390Y-85318314D01*
X92756789Y-85187211D01*
X92756786Y-85187207D01*
X92729760Y-85160181D01*
X92696275Y-85098858D01*
X92701259Y-85029166D01*
X92729760Y-84984819D01*
X92756786Y-84957792D01*
X92756789Y-84957789D01*
X92844394Y-84826679D01*
X92904737Y-84680997D01*
X92935500Y-84526342D01*
X92935500Y-84368658D01*
X92935500Y-84368655D01*
X92935499Y-84368653D01*
X92923137Y-84306507D01*
X92904737Y-84214003D01*
X92904735Y-84213998D01*
X92844397Y-84068327D01*
X92844390Y-84068314D01*
X92756789Y-83937211D01*
X92756786Y-83937207D01*
X92729760Y-83910181D01*
X92696275Y-83848858D01*
X92701259Y-83779166D01*
X92729760Y-83734819D01*
X92756786Y-83707792D01*
X92756789Y-83707789D01*
X92844394Y-83576679D01*
X92904737Y-83430997D01*
X92935500Y-83276342D01*
X92935500Y-83118658D01*
X92935500Y-83118655D01*
X92935499Y-83118653D01*
X92919192Y-83036672D01*
X92904737Y-82964003D01*
X92872469Y-82886100D01*
X92844397Y-82818327D01*
X92844390Y-82818314D01*
X92756789Y-82687211D01*
X92756786Y-82687207D01*
X92729760Y-82660181D01*
X92696275Y-82598858D01*
X92701259Y-82529166D01*
X92729760Y-82484819D01*
X92756786Y-82457792D01*
X92756787Y-82457791D01*
X92756789Y-82457789D01*
X92844394Y-82326679D01*
X92904737Y-82180997D01*
X92935500Y-82026342D01*
X92935500Y-81868658D01*
X92935500Y-81868655D01*
X92935499Y-81868653D01*
X92921352Y-81797534D01*
X92904737Y-81714003D01*
X92872423Y-81635989D01*
X92844397Y-81568327D01*
X92844390Y-81568314D01*
X92756789Y-81437211D01*
X92756786Y-81437207D01*
X92729760Y-81410181D01*
X92696275Y-81348858D01*
X92701259Y-81279166D01*
X92729760Y-81234819D01*
X92756786Y-81207792D01*
X92756789Y-81207789D01*
X92844394Y-81076679D01*
X92904737Y-80930997D01*
X92935500Y-80776342D01*
X92935500Y-80618658D01*
X92935500Y-80618655D01*
X92935499Y-80618653D01*
X92904738Y-80464010D01*
X92904737Y-80464003D01*
X92874494Y-80390989D01*
X92844397Y-80318327D01*
X92844390Y-80318314D01*
X92756789Y-80187211D01*
X92756786Y-80187207D01*
X92729760Y-80160181D01*
X92696275Y-80098858D01*
X92701259Y-80029166D01*
X92729760Y-79984819D01*
X92756786Y-79957792D01*
X92756789Y-79957789D01*
X92844394Y-79826679D01*
X92904737Y-79680997D01*
X92935500Y-79526342D01*
X92935500Y-79368658D01*
X92935500Y-79368655D01*
X92935499Y-79368653D01*
X92930086Y-79341439D01*
X92904737Y-79214003D01*
X92900461Y-79203680D01*
X92844397Y-79068327D01*
X92844390Y-79068314D01*
X92756789Y-78937211D01*
X92756786Y-78937207D01*
X92645292Y-78825713D01*
X92645288Y-78825710D01*
X92569548Y-78775102D01*
X92524743Y-78721490D01*
X92516036Y-78652165D01*
X92546190Y-78589137D01*
X92605634Y-78552418D01*
X92638439Y-78548000D01*
X93731561Y-78548000D01*
X93798600Y-78567685D01*
X93844355Y-78620489D01*
X93854299Y-78689647D01*
X93825274Y-78753203D01*
X93800452Y-78775102D01*
X93724711Y-78825710D01*
X93724707Y-78825713D01*
X93613213Y-78937207D01*
X93613210Y-78937211D01*
X93525609Y-79068314D01*
X93525602Y-79068327D01*
X93465264Y-79213998D01*
X93465261Y-79214010D01*
X93434500Y-79368653D01*
X93434500Y-79526346D01*
X93465261Y-79680989D01*
X93465264Y-79681001D01*
X93525602Y-79826672D01*
X93525609Y-79826685D01*
X93613210Y-79957788D01*
X93613213Y-79957792D01*
X93640240Y-79984819D01*
X93673725Y-80046142D01*
X93668741Y-80115834D01*
X93640240Y-80160181D01*
X93613213Y-80187207D01*
X93613210Y-80187211D01*
X93525609Y-80318314D01*
X93525602Y-80318327D01*
X93465264Y-80463998D01*
X93465261Y-80464010D01*
X93434500Y-80618653D01*
X93434500Y-80776346D01*
X93465261Y-80930989D01*
X93465264Y-80931001D01*
X93525602Y-81076672D01*
X93525609Y-81076685D01*
X93613210Y-81207788D01*
X93613213Y-81207792D01*
X93640240Y-81234819D01*
X93673725Y-81296142D01*
X93668741Y-81365834D01*
X93640240Y-81410181D01*
X93613213Y-81437207D01*
X93613210Y-81437211D01*
X93525609Y-81568314D01*
X93525602Y-81568327D01*
X93465264Y-81713998D01*
X93465261Y-81714010D01*
X93434500Y-81868653D01*
X93434500Y-82026346D01*
X93465261Y-82180989D01*
X93465264Y-82181001D01*
X93525602Y-82326672D01*
X93525609Y-82326685D01*
X93613210Y-82457788D01*
X93613213Y-82457792D01*
X93630240Y-82474819D01*
X93663725Y-82536142D01*
X93658741Y-82605834D01*
X93630240Y-82650181D01*
X93593213Y-82687207D01*
X93593210Y-82687211D01*
X93505609Y-82818314D01*
X93505602Y-82818327D01*
X93445264Y-82963998D01*
X93445261Y-82964010D01*
X93414500Y-83118653D01*
X93414500Y-83276346D01*
X93445261Y-83430989D01*
X93445264Y-83431001D01*
X93505602Y-83576672D01*
X93505609Y-83576685D01*
X93593210Y-83707788D01*
X93593213Y-83707792D01*
X93622740Y-83737319D01*
X93656225Y-83798642D01*
X93651241Y-83868334D01*
X93622740Y-83912681D01*
X93598213Y-83937207D01*
X93598210Y-83937211D01*
X93510609Y-84068314D01*
X93510602Y-84068327D01*
X93450264Y-84213998D01*
X93450261Y-84214010D01*
X93419500Y-84368653D01*
X93419500Y-84526346D01*
X93450261Y-84680989D01*
X93450264Y-84681001D01*
X93510602Y-84826672D01*
X93510609Y-84826685D01*
X93598210Y-84957788D01*
X93598213Y-84957792D01*
X93625240Y-84984819D01*
X93658725Y-85046142D01*
X93653741Y-85115834D01*
X93625240Y-85160181D01*
X93598213Y-85187207D01*
X93598210Y-85187211D01*
X93510609Y-85318314D01*
X93510602Y-85318327D01*
X93450264Y-85463998D01*
X93450261Y-85464010D01*
X93419500Y-85618653D01*
X93419500Y-85776346D01*
X93450261Y-85930989D01*
X93450264Y-85931001D01*
X93510602Y-86076672D01*
X93510609Y-86076685D01*
X93598210Y-86207788D01*
X93598213Y-86207792D01*
X93632740Y-86242319D01*
X93666225Y-86303642D01*
X93661241Y-86373334D01*
X93632742Y-86417679D01*
X93613212Y-86437208D01*
X93613208Y-86437214D01*
X93525609Y-86568314D01*
X93525602Y-86568327D01*
X93465264Y-86713998D01*
X93465261Y-86714010D01*
X93434500Y-86868653D01*
X93434500Y-87026346D01*
X93465261Y-87180989D01*
X93465264Y-87181001D01*
X93525602Y-87326672D01*
X93525609Y-87326685D01*
X93613210Y-87457788D01*
X93617076Y-87462499D01*
X93615251Y-87463996D01*
X93643725Y-87516142D01*
X93638741Y-87585834D01*
X93610240Y-87630181D01*
X93603213Y-87637207D01*
X93603210Y-87637211D01*
X93515609Y-87768314D01*
X93515602Y-87768327D01*
X93455264Y-87913998D01*
X93455261Y-87914010D01*
X93424500Y-88068653D01*
X93424500Y-88226346D01*
X93455261Y-88380989D01*
X93455264Y-88381001D01*
X93515602Y-88526672D01*
X93515609Y-88526685D01*
X93579531Y-88622350D01*
X93600409Y-88689027D01*
X93581925Y-88756408D01*
X93579531Y-88760131D01*
X93520612Y-88848309D01*
X93520602Y-88848327D01*
X93460264Y-88993998D01*
X93460261Y-88994010D01*
X93429500Y-89148653D01*
X93429500Y-89306346D01*
X93460261Y-89460989D01*
X93460264Y-89461001D01*
X93520602Y-89606672D01*
X93520609Y-89606685D01*
X93608210Y-89737788D01*
X93608213Y-89737792D01*
X93719707Y-89849286D01*
X93719711Y-89849289D01*
X93850814Y-89936890D01*
X93850827Y-89936897D01*
X93983611Y-89991897D01*
X93996503Y-89997237D01*
X94147312Y-90027235D01*
X94151153Y-90027999D01*
X94151156Y-90028000D01*
X94151158Y-90028000D01*
X94308844Y-90028000D01*
X94308845Y-90027999D01*
X94463497Y-89997237D01*
X94576166Y-89950567D01*
X94609172Y-89936897D01*
X94609172Y-89936896D01*
X94609179Y-89936894D01*
X94740289Y-89849289D01*
X94851789Y-89737789D01*
X94939394Y-89606679D01*
X94999737Y-89460997D01*
X95030500Y-89306342D01*
X95030500Y-89148658D01*
X95030500Y-89148655D01*
X95030499Y-89148653D01*
X94999737Y-88994003D01*
X94962173Y-88903314D01*
X94939397Y-88848327D01*
X94939390Y-88848314D01*
X94875468Y-88752649D01*
X94854590Y-88685972D01*
X94873074Y-88618592D01*
X94875436Y-88614915D01*
X94934394Y-88526679D01*
X94994737Y-88380997D01*
X95025500Y-88226342D01*
X95025500Y-88068658D01*
X95025500Y-88068655D01*
X95025499Y-88068653D01*
X95004684Y-87964010D01*
X94994737Y-87914003D01*
X94980653Y-87880001D01*
X94934397Y-87768327D01*
X94934390Y-87768314D01*
X94846789Y-87637211D01*
X94842924Y-87632501D01*
X94844748Y-87631003D01*
X94816274Y-87578857D01*
X94821258Y-87509165D01*
X94849762Y-87464815D01*
X94856789Y-87457789D01*
X94944394Y-87326679D01*
X95004737Y-87180997D01*
X95035500Y-87026342D01*
X95035500Y-86868658D01*
X95035500Y-86868655D01*
X95035499Y-86868653D01*
X95017204Y-86776679D01*
X95004737Y-86714003D01*
X94970352Y-86630989D01*
X94944397Y-86568327D01*
X94944390Y-86568314D01*
X94856789Y-86437211D01*
X94856786Y-86437207D01*
X94822259Y-86402680D01*
X94788774Y-86341357D01*
X94793758Y-86271665D01*
X94822259Y-86227318D01*
X94841789Y-86207789D01*
X94929394Y-86076679D01*
X94989737Y-85930997D01*
X95020500Y-85776342D01*
X95020500Y-85618658D01*
X95020500Y-85618655D01*
X95020499Y-85618653D01*
X95015527Y-85593658D01*
X94989737Y-85464003D01*
X94955352Y-85380989D01*
X94929397Y-85318327D01*
X94929390Y-85318314D01*
X94841789Y-85187211D01*
X94841786Y-85187207D01*
X94814760Y-85160181D01*
X94781275Y-85098858D01*
X94786259Y-85029166D01*
X94814760Y-84984819D01*
X94841786Y-84957792D01*
X94841789Y-84957789D01*
X94929394Y-84826679D01*
X94989737Y-84680997D01*
X95020500Y-84526342D01*
X95020500Y-84368658D01*
X95020500Y-84368655D01*
X95020499Y-84368653D01*
X95008137Y-84306507D01*
X94989737Y-84214003D01*
X94989735Y-84213998D01*
X94929397Y-84068327D01*
X94929390Y-84068314D01*
X94841790Y-83937212D01*
X94841785Y-83937207D01*
X94812258Y-83907680D01*
X94778774Y-83846360D01*
X94783758Y-83776668D01*
X94812258Y-83732319D01*
X94836789Y-83707789D01*
X94924394Y-83576679D01*
X94984737Y-83430997D01*
X95015500Y-83276342D01*
X95015500Y-83118658D01*
X95015500Y-83118655D01*
X95015499Y-83118653D01*
X94999192Y-83036672D01*
X94984737Y-82964003D01*
X94952469Y-82886100D01*
X94924397Y-82818327D01*
X94924390Y-82818314D01*
X94836789Y-82687211D01*
X94836786Y-82687207D01*
X94819759Y-82670180D01*
X94786274Y-82608857D01*
X94791258Y-82539165D01*
X94819759Y-82494818D01*
X94856789Y-82457789D01*
X94944394Y-82326679D01*
X95004737Y-82180997D01*
X95035500Y-82026342D01*
X95035500Y-81868658D01*
X95035500Y-81868655D01*
X95035499Y-81868653D01*
X95021352Y-81797534D01*
X95004737Y-81714003D01*
X94972423Y-81635989D01*
X94944397Y-81568327D01*
X94944390Y-81568314D01*
X94856789Y-81437211D01*
X94856786Y-81437207D01*
X94829760Y-81410181D01*
X94796275Y-81348858D01*
X94801259Y-81279166D01*
X94829760Y-81234819D01*
X94856786Y-81207792D01*
X94856789Y-81207789D01*
X94944394Y-81076679D01*
X95004737Y-80930997D01*
X95035500Y-80776342D01*
X95035500Y-80618658D01*
X95035500Y-80618655D01*
X95035499Y-80618653D01*
X95004738Y-80464010D01*
X95004737Y-80464003D01*
X94974494Y-80390989D01*
X94944397Y-80318327D01*
X94944390Y-80318314D01*
X94856789Y-80187211D01*
X94856786Y-80187207D01*
X94829760Y-80160181D01*
X94796275Y-80098858D01*
X94801259Y-80029166D01*
X94829760Y-79984819D01*
X94856786Y-79957792D01*
X94856789Y-79957789D01*
X94944394Y-79826679D01*
X95004737Y-79680997D01*
X95035500Y-79526342D01*
X95035500Y-79368658D01*
X95035500Y-79368655D01*
X95035499Y-79368653D01*
X95030086Y-79341439D01*
X95004737Y-79214003D01*
X95000461Y-79203680D01*
X94944397Y-79068327D01*
X94944390Y-79068314D01*
X94856789Y-78937211D01*
X94856786Y-78937207D01*
X94745292Y-78825713D01*
X94745288Y-78825710D01*
X94669548Y-78775102D01*
X94624743Y-78721490D01*
X94616036Y-78652165D01*
X94646190Y-78589137D01*
X94705634Y-78552418D01*
X94738439Y-78548000D01*
X95821561Y-78548000D01*
X95888600Y-78567685D01*
X95934355Y-78620489D01*
X95944299Y-78689647D01*
X95915274Y-78753203D01*
X95890452Y-78775102D01*
X95814711Y-78825710D01*
X95814707Y-78825713D01*
X95703213Y-78937207D01*
X95703210Y-78937211D01*
X95615609Y-79068314D01*
X95615602Y-79068327D01*
X95555264Y-79213998D01*
X95555261Y-79214010D01*
X95524500Y-79368653D01*
X95524500Y-79526346D01*
X95555261Y-79680989D01*
X95555264Y-79681001D01*
X95615602Y-79826672D01*
X95615609Y-79826685D01*
X95703210Y-79957788D01*
X95703213Y-79957792D01*
X95735240Y-79989819D01*
X95768725Y-80051142D01*
X95763741Y-80120834D01*
X95735242Y-80165180D01*
X95713208Y-80187214D01*
X95625609Y-80318314D01*
X95625602Y-80318327D01*
X95565264Y-80463998D01*
X95565261Y-80464010D01*
X95534500Y-80618653D01*
X95534500Y-80776346D01*
X95565261Y-80930989D01*
X95565264Y-80931001D01*
X95625602Y-81076672D01*
X95625609Y-81076685D01*
X95713210Y-81207788D01*
X95713213Y-81207792D01*
X95740240Y-81234819D01*
X95773725Y-81296142D01*
X95768741Y-81365834D01*
X95740240Y-81410181D01*
X95713213Y-81437207D01*
X95713210Y-81437211D01*
X95625609Y-81568314D01*
X95625602Y-81568327D01*
X95565264Y-81713998D01*
X95565261Y-81714010D01*
X95534500Y-81868653D01*
X95534500Y-82026346D01*
X95565261Y-82180989D01*
X95565264Y-82181001D01*
X95625602Y-82326672D01*
X95625609Y-82326685D01*
X95713210Y-82457788D01*
X95713213Y-82457792D01*
X95740240Y-82484819D01*
X95773725Y-82546142D01*
X95768741Y-82615834D01*
X95740240Y-82660181D01*
X95713213Y-82687207D01*
X95713210Y-82687211D01*
X95625609Y-82818314D01*
X95625602Y-82818327D01*
X95565264Y-82963998D01*
X95565261Y-82964010D01*
X95534500Y-83118653D01*
X95534500Y-83276346D01*
X95565261Y-83430989D01*
X95565264Y-83431001D01*
X95625602Y-83576672D01*
X95625609Y-83576685D01*
X95713210Y-83707788D01*
X95713213Y-83707792D01*
X95740240Y-83734819D01*
X95773725Y-83796142D01*
X95768741Y-83865834D01*
X95740240Y-83910181D01*
X95713213Y-83937207D01*
X95713210Y-83937211D01*
X95625609Y-84068314D01*
X95625602Y-84068327D01*
X95565264Y-84213998D01*
X95565261Y-84214010D01*
X95534500Y-84368653D01*
X95534500Y-84526346D01*
X95565261Y-84680989D01*
X95565264Y-84681001D01*
X95625602Y-84826672D01*
X95625609Y-84826685D01*
X95713210Y-84957788D01*
X95713213Y-84957792D01*
X95740240Y-84984819D01*
X95773725Y-85046142D01*
X95768741Y-85115834D01*
X95740240Y-85160181D01*
X95713213Y-85187207D01*
X95713210Y-85187211D01*
X95625609Y-85318314D01*
X95625602Y-85318327D01*
X95565264Y-85463998D01*
X95565261Y-85464010D01*
X95534500Y-85618653D01*
X95534500Y-85776346D01*
X95565261Y-85930989D01*
X95565264Y-85931001D01*
X95625602Y-86076672D01*
X95625609Y-86076685D01*
X95713210Y-86207788D01*
X95713213Y-86207792D01*
X95740240Y-86234819D01*
X95773725Y-86296142D01*
X95768741Y-86365834D01*
X95740240Y-86410181D01*
X95713213Y-86437207D01*
X95713210Y-86437211D01*
X95625609Y-86568314D01*
X95625602Y-86568327D01*
X95565264Y-86713998D01*
X95565261Y-86714010D01*
X95534500Y-86868653D01*
X95534500Y-87026346D01*
X95565261Y-87180989D01*
X95565264Y-87181001D01*
X95625602Y-87326672D01*
X95625609Y-87326685D01*
X95713210Y-87457788D01*
X95713213Y-87457792D01*
X95735240Y-87479819D01*
X95768725Y-87541142D01*
X95763741Y-87610834D01*
X95735240Y-87655181D01*
X95703213Y-87687207D01*
X95703210Y-87687211D01*
X95615609Y-87818314D01*
X95615602Y-87818327D01*
X95555264Y-87963998D01*
X95555261Y-87964010D01*
X95524500Y-88118653D01*
X95524500Y-88276346D01*
X95555261Y-88430989D01*
X95555264Y-88431001D01*
X95615602Y-88576672D01*
X95615609Y-88576685D01*
X95661167Y-88644867D01*
X95682045Y-88711545D01*
X95663560Y-88778925D01*
X95661168Y-88782648D01*
X95610608Y-88858316D01*
X95610602Y-88858327D01*
X95550264Y-89003998D01*
X95550261Y-89004010D01*
X95519500Y-89158653D01*
X95519500Y-89316346D01*
X95550261Y-89470989D01*
X95550264Y-89471001D01*
X95610602Y-89616672D01*
X95610609Y-89616685D01*
X95698210Y-89747788D01*
X95698213Y-89747792D01*
X95809707Y-89859286D01*
X95809711Y-89859289D01*
X95940814Y-89946890D01*
X95940827Y-89946897D01*
X96062363Y-89997238D01*
X96086503Y-90007237D01*
X96241153Y-90037999D01*
X96241156Y-90038000D01*
X96241158Y-90038000D01*
X96398844Y-90038000D01*
X96398845Y-90037999D01*
X96553497Y-90007237D01*
X96699179Y-89946894D01*
X96830289Y-89859289D01*
X96941789Y-89747789D01*
X97029394Y-89616679D01*
X97089737Y-89470997D01*
X97120500Y-89316342D01*
X97120500Y-89158658D01*
X97120500Y-89158655D01*
X97120499Y-89158653D01*
X97118510Y-89148653D01*
X97089737Y-89004003D01*
X97048036Y-88903327D01*
X97029397Y-88858327D01*
X97029390Y-88858314D01*
X96983832Y-88790132D01*
X96962954Y-88723455D01*
X96981438Y-88656074D01*
X96983810Y-88652382D01*
X97034394Y-88576679D01*
X97094737Y-88430997D01*
X97125500Y-88276342D01*
X97125500Y-88118658D01*
X97125500Y-88118655D01*
X97125499Y-88118653D01*
X97107004Y-88025672D01*
X97094737Y-87964003D01*
X97094735Y-87963998D01*
X97034397Y-87818327D01*
X97034390Y-87818314D01*
X96946790Y-87687212D01*
X96939758Y-87680180D01*
X96924758Y-87665180D01*
X96891274Y-87603860D01*
X96896257Y-87534169D01*
X96924760Y-87489818D01*
X96956786Y-87457792D01*
X96956789Y-87457789D01*
X97044394Y-87326679D01*
X97104737Y-87180997D01*
X97135500Y-87026342D01*
X97135500Y-86868658D01*
X97135500Y-86868655D01*
X97135499Y-86868653D01*
X97117204Y-86776679D01*
X97104737Y-86714003D01*
X97070352Y-86630989D01*
X97044397Y-86568327D01*
X97044390Y-86568314D01*
X96956789Y-86437211D01*
X96956786Y-86437207D01*
X96929760Y-86410181D01*
X96896275Y-86348858D01*
X96901259Y-86279166D01*
X96929760Y-86234819D01*
X96956786Y-86207792D01*
X96956789Y-86207789D01*
X97044394Y-86076679D01*
X97104737Y-85930997D01*
X97135500Y-85776342D01*
X97135500Y-85618658D01*
X97135500Y-85618655D01*
X97135499Y-85618653D01*
X97130527Y-85593658D01*
X97104737Y-85464003D01*
X97070352Y-85380989D01*
X97044397Y-85318327D01*
X97044390Y-85318314D01*
X96956789Y-85187211D01*
X96956786Y-85187207D01*
X96929760Y-85160181D01*
X96896275Y-85098858D01*
X96901259Y-85029166D01*
X96929760Y-84984819D01*
X96956786Y-84957792D01*
X96956789Y-84957789D01*
X97044394Y-84826679D01*
X97104737Y-84680997D01*
X97135500Y-84526342D01*
X97135500Y-84368658D01*
X97135500Y-84368655D01*
X97135499Y-84368653D01*
X97123137Y-84306507D01*
X97104737Y-84214003D01*
X97104735Y-84213998D01*
X97044397Y-84068327D01*
X97044390Y-84068314D01*
X96956789Y-83937211D01*
X96956786Y-83937207D01*
X96929760Y-83910181D01*
X96896275Y-83848858D01*
X96901259Y-83779166D01*
X96929760Y-83734819D01*
X96956786Y-83707792D01*
X96956789Y-83707789D01*
X97044394Y-83576679D01*
X97104737Y-83430997D01*
X97135500Y-83276342D01*
X97135500Y-83118658D01*
X97135500Y-83118655D01*
X97135499Y-83118653D01*
X97119192Y-83036672D01*
X97104737Y-82964003D01*
X97072469Y-82886100D01*
X97044397Y-82818327D01*
X97044390Y-82818314D01*
X96956789Y-82687211D01*
X96956786Y-82687207D01*
X96929760Y-82660181D01*
X96896275Y-82598858D01*
X96901259Y-82529166D01*
X96929760Y-82484819D01*
X96956786Y-82457792D01*
X96956787Y-82457791D01*
X96956789Y-82457789D01*
X97044394Y-82326679D01*
X97104737Y-82180997D01*
X97135500Y-82026342D01*
X97135500Y-81868658D01*
X97135500Y-81868655D01*
X97135499Y-81868653D01*
X97121352Y-81797534D01*
X97104737Y-81714003D01*
X97072423Y-81635989D01*
X97044397Y-81568327D01*
X97044390Y-81568314D01*
X96956789Y-81437211D01*
X96956786Y-81437207D01*
X96929760Y-81410181D01*
X96896275Y-81348858D01*
X96901259Y-81279166D01*
X96929760Y-81234819D01*
X96956786Y-81207792D01*
X96956789Y-81207789D01*
X97044394Y-81076679D01*
X97104737Y-80930997D01*
X97135500Y-80776342D01*
X97135500Y-80618658D01*
X97135500Y-80618655D01*
X97135499Y-80618653D01*
X97104738Y-80464010D01*
X97104737Y-80464003D01*
X97074494Y-80390989D01*
X97044397Y-80318327D01*
X97044390Y-80318314D01*
X96956789Y-80187211D01*
X96956786Y-80187207D01*
X96924759Y-80155180D01*
X96891274Y-80093857D01*
X96896258Y-80024165D01*
X96924756Y-79979821D01*
X96946789Y-79957789D01*
X97034394Y-79826679D01*
X97094737Y-79680997D01*
X97125500Y-79526342D01*
X97125500Y-79368658D01*
X97125500Y-79368655D01*
X97125499Y-79368653D01*
X97120086Y-79341439D01*
X97094737Y-79214003D01*
X97090461Y-79203680D01*
X97034397Y-79068327D01*
X97034390Y-79068314D01*
X96946789Y-78937211D01*
X96946786Y-78937207D01*
X96835292Y-78825713D01*
X96835288Y-78825710D01*
X96759548Y-78775102D01*
X96714743Y-78721490D01*
X96706036Y-78652165D01*
X96736190Y-78589137D01*
X96795634Y-78552418D01*
X96828439Y-78548000D01*
X97906561Y-78548000D01*
X97973600Y-78567685D01*
X98019355Y-78620489D01*
X98029299Y-78689647D01*
X98000274Y-78753203D01*
X97975452Y-78775102D01*
X97899711Y-78825710D01*
X97899707Y-78825713D01*
X97788213Y-78937207D01*
X97788210Y-78937211D01*
X97700609Y-79068314D01*
X97700602Y-79068327D01*
X97640264Y-79213998D01*
X97640261Y-79214010D01*
X97609500Y-79368653D01*
X97609500Y-79526346D01*
X97640261Y-79680989D01*
X97640264Y-79681001D01*
X97700602Y-79826672D01*
X97700609Y-79826685D01*
X97788210Y-79957788D01*
X97788213Y-79957792D01*
X97815240Y-79984819D01*
X97848725Y-80046142D01*
X97843741Y-80115834D01*
X97815240Y-80160181D01*
X97788213Y-80187207D01*
X97788210Y-80187211D01*
X97700609Y-80318314D01*
X97700602Y-80318327D01*
X97640264Y-80463998D01*
X97640261Y-80464010D01*
X97609500Y-80618653D01*
X97609500Y-80776346D01*
X97640261Y-80930989D01*
X97640264Y-80931001D01*
X97700602Y-81076672D01*
X97700609Y-81076685D01*
X97788210Y-81207788D01*
X97788213Y-81207792D01*
X97815240Y-81234819D01*
X97848725Y-81296142D01*
X97843741Y-81365834D01*
X97815240Y-81410181D01*
X97788213Y-81437207D01*
X97788210Y-81437211D01*
X97700609Y-81568314D01*
X97700602Y-81568327D01*
X97640264Y-81713998D01*
X97640261Y-81714010D01*
X97609500Y-81868653D01*
X97609500Y-82026346D01*
X97640261Y-82180989D01*
X97640264Y-82181001D01*
X97700602Y-82326672D01*
X97700609Y-82326685D01*
X97788210Y-82457788D01*
X97788213Y-82457792D01*
X97815240Y-82484819D01*
X97848725Y-82546142D01*
X97843741Y-82615834D01*
X97815240Y-82660181D01*
X97788213Y-82687207D01*
X97788210Y-82687211D01*
X97700609Y-82818314D01*
X97700602Y-82818327D01*
X97640264Y-82963998D01*
X97640261Y-82964010D01*
X97609500Y-83118653D01*
X97609500Y-83276346D01*
X97640261Y-83430989D01*
X97640264Y-83431001D01*
X97700602Y-83576672D01*
X97700609Y-83576685D01*
X97788210Y-83707788D01*
X97788213Y-83707792D01*
X97815240Y-83734819D01*
X97848725Y-83796142D01*
X97843741Y-83865834D01*
X97815240Y-83910181D01*
X97788213Y-83937207D01*
X97788210Y-83937211D01*
X97700609Y-84068314D01*
X97700602Y-84068327D01*
X97640264Y-84213998D01*
X97640261Y-84214010D01*
X97609500Y-84368653D01*
X97609500Y-84526346D01*
X97640261Y-84680989D01*
X97640264Y-84681001D01*
X97700602Y-84826672D01*
X97700609Y-84826685D01*
X97788210Y-84957788D01*
X97788213Y-84957792D01*
X97820240Y-84989819D01*
X97853725Y-85051142D01*
X97848741Y-85120834D01*
X97820242Y-85165180D01*
X97798208Y-85187214D01*
X97710609Y-85318314D01*
X97710602Y-85318327D01*
X97650264Y-85463998D01*
X97650261Y-85464010D01*
X97619500Y-85618653D01*
X97619500Y-85776346D01*
X97650261Y-85930989D01*
X97650264Y-85931001D01*
X97710602Y-86076672D01*
X97710609Y-86076685D01*
X97798210Y-86207788D01*
X97798213Y-86207792D01*
X97827740Y-86237319D01*
X97861225Y-86298642D01*
X97856241Y-86368334D01*
X97827740Y-86412681D01*
X97803213Y-86437207D01*
X97803210Y-86437211D01*
X97715609Y-86568314D01*
X97715602Y-86568327D01*
X97655264Y-86713998D01*
X97655261Y-86714010D01*
X97624500Y-86868653D01*
X97624500Y-87026346D01*
X97655261Y-87180989D01*
X97655264Y-87181001D01*
X97715602Y-87326672D01*
X97715609Y-87326685D01*
X97803210Y-87457788D01*
X97803213Y-87457792D01*
X97830240Y-87484819D01*
X97863725Y-87546142D01*
X97858741Y-87615834D01*
X97830240Y-87660181D01*
X97803213Y-87687207D01*
X97803210Y-87687211D01*
X97715609Y-87818314D01*
X97715602Y-87818327D01*
X97655264Y-87963998D01*
X97655261Y-87964010D01*
X97624500Y-88118653D01*
X97624500Y-88276346D01*
X97655261Y-88430989D01*
X97655264Y-88431001D01*
X97715602Y-88576672D01*
X97715608Y-88576683D01*
X97765327Y-88651093D01*
X97786204Y-88717770D01*
X97767719Y-88785150D01*
X97765327Y-88788872D01*
X97725611Y-88848312D01*
X97725602Y-88848328D01*
X97665264Y-88993998D01*
X97665261Y-88994010D01*
X97634500Y-89148653D01*
X97634500Y-89306346D01*
X97665261Y-89460989D01*
X97665264Y-89461001D01*
X97725602Y-89606672D01*
X97725609Y-89606685D01*
X97813210Y-89737788D01*
X97813213Y-89737792D01*
X97924707Y-89849286D01*
X97924711Y-89849289D01*
X98055814Y-89936890D01*
X98055827Y-89936897D01*
X98188611Y-89991897D01*
X98201503Y-89997237D01*
X98352312Y-90027235D01*
X98356153Y-90027999D01*
X98356156Y-90028000D01*
X98356158Y-90028000D01*
X98513844Y-90028000D01*
X98513845Y-90027999D01*
X98668497Y-89997237D01*
X98781166Y-89950567D01*
X98814172Y-89936897D01*
X98814172Y-89936896D01*
X98814179Y-89936894D01*
X98945289Y-89849289D01*
X99056789Y-89737789D01*
X99144394Y-89606679D01*
X99204737Y-89460997D01*
X99235500Y-89306342D01*
X99235500Y-89148658D01*
X99235500Y-89148655D01*
X99235499Y-89148653D01*
X99204737Y-88994003D01*
X99167173Y-88903314D01*
X99144397Y-88848327D01*
X99144395Y-88848323D01*
X99144394Y-88848321D01*
X99094671Y-88773906D01*
X99073794Y-88707230D01*
X99092278Y-88639850D01*
X99094655Y-88636150D01*
X99134394Y-88576679D01*
X99194737Y-88430997D01*
X99225500Y-88276342D01*
X99225500Y-88118658D01*
X99225500Y-88118655D01*
X99225499Y-88118653D01*
X99207004Y-88025672D01*
X99194737Y-87964003D01*
X99194735Y-87963998D01*
X99134397Y-87818327D01*
X99134390Y-87818314D01*
X99046789Y-87687211D01*
X99046786Y-87687207D01*
X99019760Y-87660181D01*
X98986275Y-87598858D01*
X98991259Y-87529166D01*
X99019760Y-87484819D01*
X99046786Y-87457792D01*
X99046789Y-87457789D01*
X99134394Y-87326679D01*
X99194737Y-87180997D01*
X99225500Y-87026342D01*
X99225500Y-86868658D01*
X99225500Y-86868655D01*
X99225499Y-86868653D01*
X99207204Y-86776679D01*
X99194737Y-86714003D01*
X99160352Y-86630989D01*
X99134397Y-86568327D01*
X99134390Y-86568314D01*
X99046790Y-86437212D01*
X99046785Y-86437207D01*
X99017258Y-86407680D01*
X98983774Y-86346360D01*
X98988758Y-86276668D01*
X99017258Y-86232319D01*
X99041789Y-86207789D01*
X99129394Y-86076679D01*
X99189737Y-85930997D01*
X99220500Y-85776342D01*
X99220500Y-85618658D01*
X99220500Y-85618655D01*
X99220499Y-85618653D01*
X99215527Y-85593658D01*
X99189737Y-85464003D01*
X99155352Y-85380989D01*
X99129397Y-85318327D01*
X99129390Y-85318314D01*
X99041789Y-85187211D01*
X99041786Y-85187207D01*
X99009759Y-85155180D01*
X98976274Y-85093857D01*
X98981258Y-85024165D01*
X99009756Y-84979821D01*
X99031789Y-84957789D01*
X99119394Y-84826679D01*
X99179737Y-84680997D01*
X99210500Y-84526342D01*
X99210500Y-84368658D01*
X99210500Y-84368655D01*
X99210499Y-84368653D01*
X99198137Y-84306507D01*
X99179737Y-84214003D01*
X99179735Y-84213998D01*
X99119397Y-84068327D01*
X99119390Y-84068314D01*
X99031789Y-83937211D01*
X99031786Y-83937207D01*
X99004760Y-83910181D01*
X98971275Y-83848858D01*
X98976259Y-83779166D01*
X99004760Y-83734819D01*
X99031786Y-83707792D01*
X99031789Y-83707789D01*
X99119394Y-83576679D01*
X99179737Y-83430997D01*
X99210500Y-83276342D01*
X99210500Y-83118658D01*
X99210500Y-83118655D01*
X99210499Y-83118653D01*
X99194192Y-83036672D01*
X99179737Y-82964003D01*
X99147469Y-82886100D01*
X99119397Y-82818327D01*
X99119390Y-82818314D01*
X99031789Y-82687211D01*
X99031786Y-82687207D01*
X99004760Y-82660181D01*
X98971275Y-82598858D01*
X98976259Y-82529166D01*
X99004760Y-82484819D01*
X99031786Y-82457792D01*
X99031787Y-82457791D01*
X99031789Y-82457789D01*
X99119394Y-82326679D01*
X99179737Y-82180997D01*
X99210500Y-82026342D01*
X99210500Y-81868658D01*
X99210500Y-81868655D01*
X99210499Y-81868653D01*
X99196352Y-81797534D01*
X99179737Y-81714003D01*
X99147423Y-81635989D01*
X99119397Y-81568327D01*
X99119390Y-81568314D01*
X99031789Y-81437211D01*
X99031786Y-81437207D01*
X99004760Y-81410181D01*
X98971275Y-81348858D01*
X98976259Y-81279166D01*
X99004760Y-81234819D01*
X99031786Y-81207792D01*
X99031789Y-81207789D01*
X99119394Y-81076679D01*
X99179737Y-80930997D01*
X99210500Y-80776342D01*
X99210500Y-80618658D01*
X99210500Y-80618655D01*
X99210499Y-80618653D01*
X99179738Y-80464010D01*
X99179737Y-80464003D01*
X99149494Y-80390989D01*
X99119397Y-80318327D01*
X99119390Y-80318314D01*
X99031789Y-80187211D01*
X99031786Y-80187207D01*
X99004760Y-80160181D01*
X98971275Y-80098858D01*
X98976259Y-80029166D01*
X99004760Y-79984819D01*
X99031786Y-79957792D01*
X99031789Y-79957789D01*
X99119394Y-79826679D01*
X99179737Y-79680997D01*
X99210500Y-79526342D01*
X99210500Y-79368658D01*
X99210500Y-79368655D01*
X99210499Y-79368653D01*
X99205086Y-79341439D01*
X99179737Y-79214003D01*
X99175461Y-79203680D01*
X99119397Y-79068327D01*
X99119390Y-79068314D01*
X99031789Y-78937211D01*
X99031786Y-78937207D01*
X98920292Y-78825713D01*
X98920288Y-78825710D01*
X98844548Y-78775102D01*
X98799743Y-78721490D01*
X98791036Y-78652165D01*
X98821190Y-78589137D01*
X98880634Y-78552418D01*
X98913439Y-78548000D01*
X99375118Y-78548000D01*
X99408908Y-78548000D01*
X99421061Y-78548597D01*
X99431051Y-78549580D01*
X99558824Y-78562165D01*
X99582652Y-78566904D01*
X99709277Y-78605315D01*
X99731725Y-78614614D01*
X99848406Y-78676982D01*
X99868616Y-78690486D01*
X99906395Y-78721490D01*
X99970891Y-78774420D01*
X99988079Y-78791608D01*
X100072012Y-78893881D01*
X100085517Y-78914093D01*
X100147883Y-79030771D01*
X100157186Y-79053228D01*
X100185328Y-79146001D01*
X100195593Y-79179838D01*
X100200335Y-79203680D01*
X100213903Y-79341438D01*
X100214500Y-79353592D01*
X100214500Y-93001611D01*
X100194815Y-93068650D01*
X100142011Y-93114405D01*
X100072853Y-93124349D01*
X100009297Y-93095324D01*
X99987398Y-93070503D01*
X99951786Y-93017207D01*
X99840292Y-92905713D01*
X99840288Y-92905710D01*
X99709185Y-92818109D01*
X99709172Y-92818102D01*
X99563501Y-92757764D01*
X99563489Y-92757761D01*
X99408845Y-92727000D01*
X99408842Y-92727000D01*
X99251158Y-92727000D01*
X99251155Y-92727000D01*
X99096510Y-92757761D01*
X99096498Y-92757764D01*
X98950827Y-92818102D01*
X98950814Y-92818109D01*
X98819711Y-92905710D01*
X98819707Y-92905713D01*
X98708213Y-93017207D01*
X98708210Y-93017211D01*
X98620609Y-93148314D01*
X98620602Y-93148327D01*
X98560264Y-93293998D01*
X98560261Y-93294010D01*
X98529500Y-93448653D01*
X98529500Y-93606346D01*
X98560261Y-93760989D01*
X98560264Y-93761001D01*
X98620602Y-93906672D01*
X98620609Y-93906685D01*
X98708210Y-94037788D01*
X98708213Y-94037792D01*
X98819707Y-94149286D01*
X98819711Y-94149289D01*
X98950814Y-94236890D01*
X98950827Y-94236897D01*
X99096498Y-94297235D01*
X99096503Y-94297237D01*
X99251153Y-94327999D01*
X99251156Y-94328000D01*
X99251158Y-94328000D01*
X99408844Y-94328000D01*
X99408845Y-94327999D01*
X99563497Y-94297237D01*
X99709179Y-94236894D01*
X99840289Y-94149289D01*
X99951789Y-94037789D01*
X99987398Y-93984497D01*
X100041010Y-93939692D01*
X100110335Y-93930985D01*
X100173363Y-93961139D01*
X100210082Y-94020582D01*
X100214500Y-94053388D01*
X100214500Y-112366407D01*
X100213903Y-112378561D01*
X100200335Y-112516319D01*
X100195593Y-112540161D01*
X100157186Y-112666771D01*
X100147883Y-112689228D01*
X100085517Y-112805906D01*
X100072012Y-112826118D01*
X99988079Y-112928391D01*
X99970891Y-112945579D01*
X99868618Y-113029512D01*
X99848406Y-113043017D01*
X99731728Y-113105383D01*
X99709271Y-113114686D01*
X99582661Y-113153093D01*
X99558819Y-113157835D01*
X99421062Y-113171403D01*
X99408908Y-113172000D01*
X76073039Y-113172000D01*
X76006000Y-113152315D01*
X75960245Y-113099511D01*
X75950301Y-113030353D01*
X75979326Y-112966797D01*
X76004148Y-112944898D01*
X76072462Y-112899251D01*
X76072466Y-112899248D01*
X76211748Y-112759966D01*
X76211751Y-112759962D01*
X76321185Y-112596184D01*
X76321192Y-112596171D01*
X76396569Y-112414193D01*
X76396572Y-112414181D01*
X76434999Y-112220995D01*
X76435000Y-112220992D01*
X76435000Y-112072500D01*
X75735000Y-112072500D01*
X75735000Y-111572500D01*
X76435000Y-111572500D01*
X76435000Y-111424008D01*
X76434999Y-111424004D01*
X76396572Y-111230818D01*
X76396569Y-111230806D01*
X76321192Y-111048828D01*
X76321185Y-111048815D01*
X76211751Y-110885037D01*
X76211748Y-110885033D01*
X76072466Y-110745751D01*
X76072462Y-110745748D01*
X75964565Y-110673653D01*
X88484500Y-110673653D01*
X88484500Y-110831346D01*
X88515261Y-110985989D01*
X88515264Y-110986001D01*
X88575602Y-111131672D01*
X88575609Y-111131685D01*
X88663210Y-111262788D01*
X88663213Y-111262792D01*
X88774707Y-111374286D01*
X88774711Y-111374289D01*
X88905814Y-111461890D01*
X88905827Y-111461897D01*
X88956785Y-111483004D01*
X89051503Y-111522237D01*
X89206153Y-111552999D01*
X89206156Y-111553000D01*
X89206158Y-111553000D01*
X89363844Y-111553000D01*
X89363845Y-111552999D01*
X89518497Y-111522237D01*
X89664179Y-111461894D01*
X89795289Y-111374289D01*
X89906789Y-111262789D01*
X89994394Y-111131679D01*
X90054737Y-110985997D01*
X90085500Y-110831342D01*
X90085500Y-110673658D01*
X90085500Y-110673655D01*
X90085499Y-110673653D01*
X90078070Y-110636307D01*
X90054737Y-110519003D01*
X90054735Y-110518998D01*
X89994397Y-110373327D01*
X89994390Y-110373314D01*
X89906789Y-110242211D01*
X89906786Y-110242207D01*
X89795292Y-110130713D01*
X89795288Y-110130710D01*
X89664185Y-110043109D01*
X89664172Y-110043102D01*
X89518501Y-109982764D01*
X89518489Y-109982761D01*
X89363845Y-109952000D01*
X89363842Y-109952000D01*
X89206158Y-109952000D01*
X89206155Y-109952000D01*
X89051510Y-109982761D01*
X89051498Y-109982764D01*
X88905827Y-110043102D01*
X88905814Y-110043109D01*
X88774711Y-110130710D01*
X88774707Y-110130713D01*
X88663213Y-110242207D01*
X88663210Y-110242211D01*
X88575609Y-110373314D01*
X88575602Y-110373327D01*
X88515264Y-110518998D01*
X88515261Y-110519010D01*
X88484500Y-110673653D01*
X75964565Y-110673653D01*
X75908684Y-110636314D01*
X75908671Y-110636307D01*
X75726691Y-110560929D01*
X75726683Y-110560927D01*
X75685000Y-110552635D01*
X75685000Y-111355511D01*
X75675060Y-111338295D01*
X75619205Y-111282440D01*
X75550796Y-111242944D01*
X75474496Y-111222500D01*
X75395504Y-111222500D01*
X75319204Y-111242944D01*
X75250795Y-111282440D01*
X75194940Y-111338295D01*
X75185000Y-111355511D01*
X75185000Y-110552636D01*
X75184999Y-110552635D01*
X75143316Y-110560927D01*
X75143308Y-110560929D01*
X74961328Y-110636307D01*
X74961315Y-110636314D01*
X74797537Y-110745748D01*
X74797533Y-110745751D01*
X74658251Y-110885033D01*
X74658248Y-110885037D01*
X74548814Y-111048815D01*
X74548807Y-111048828D01*
X74473430Y-111230806D01*
X74473427Y-111230818D01*
X74435000Y-111424004D01*
X74435000Y-111572500D01*
X75135000Y-111572500D01*
X75135000Y-112072500D01*
X74435000Y-112072500D01*
X74435000Y-112220995D01*
X74473427Y-112414181D01*
X74473430Y-112414193D01*
X74548807Y-112596171D01*
X74548814Y-112596184D01*
X74658248Y-112759962D01*
X74658251Y-112759966D01*
X74797533Y-112899248D01*
X74797537Y-112899251D01*
X74865852Y-112944898D01*
X74910657Y-112998510D01*
X74919364Y-113067835D01*
X74889210Y-113130863D01*
X74829767Y-113167582D01*
X74796961Y-113172000D01*
X67433039Y-113172000D01*
X67366000Y-113152315D01*
X67320245Y-113099511D01*
X67310301Y-113030353D01*
X67339326Y-112966797D01*
X67364148Y-112944898D01*
X67432462Y-112899251D01*
X67432466Y-112899248D01*
X67571748Y-112759966D01*
X67571751Y-112759962D01*
X67681185Y-112596184D01*
X67681192Y-112596171D01*
X67756569Y-112414193D01*
X67756572Y-112414181D01*
X67794999Y-112220995D01*
X67795000Y-112220992D01*
X67795000Y-112072500D01*
X67095000Y-112072500D01*
X67095000Y-111572500D01*
X67795000Y-111572500D01*
X67795000Y-111424008D01*
X67794999Y-111424004D01*
X67756572Y-111230818D01*
X67756569Y-111230806D01*
X67681192Y-111048828D01*
X67681185Y-111048815D01*
X67571751Y-110885037D01*
X67571748Y-110885033D01*
X67432466Y-110745751D01*
X67432462Y-110745748D01*
X67268684Y-110636314D01*
X67268671Y-110636307D01*
X67086691Y-110560929D01*
X67086683Y-110560927D01*
X67045000Y-110552635D01*
X67045000Y-111355511D01*
X67035060Y-111338295D01*
X66979205Y-111282440D01*
X66910796Y-111242944D01*
X66834496Y-111222500D01*
X66755504Y-111222500D01*
X66679204Y-111242944D01*
X66610795Y-111282440D01*
X66554940Y-111338295D01*
X66545000Y-111355511D01*
X66545000Y-110552636D01*
X66544999Y-110552635D01*
X66503316Y-110560927D01*
X66503308Y-110560929D01*
X66321328Y-110636307D01*
X66321315Y-110636314D01*
X66157537Y-110745748D01*
X66157533Y-110745751D01*
X66018251Y-110885033D01*
X66018248Y-110885037D01*
X65908814Y-111048815D01*
X65908809Y-111048824D01*
X65854061Y-111181000D01*
X65810220Y-111235403D01*
X65743926Y-111257468D01*
X65676227Y-111240189D01*
X65628616Y-111189052D01*
X65615500Y-111133547D01*
X65615500Y-108581452D01*
X65635185Y-108514413D01*
X65687989Y-108468658D01*
X65757147Y-108458714D01*
X65820703Y-108487739D01*
X65854061Y-108534000D01*
X65908807Y-108666171D01*
X65908814Y-108666184D01*
X66018248Y-108829962D01*
X66018251Y-108829966D01*
X66157533Y-108969248D01*
X66157537Y-108969251D01*
X66321315Y-109078685D01*
X66321328Y-109078692D01*
X66503308Y-109154069D01*
X66545000Y-109162362D01*
X66545000Y-108359488D01*
X66554940Y-108376705D01*
X66610795Y-108432560D01*
X66679204Y-108472056D01*
X66755504Y-108492500D01*
X66834496Y-108492500D01*
X66910796Y-108472056D01*
X66979205Y-108432560D01*
X67035060Y-108376705D01*
X67045000Y-108359488D01*
X67045000Y-109162362D01*
X67086690Y-109154069D01*
X67086692Y-109154069D01*
X67268671Y-109078692D01*
X67268684Y-109078685D01*
X67432462Y-108969251D01*
X67432466Y-108969248D01*
X67571748Y-108829966D01*
X67571751Y-108829962D01*
X67681185Y-108666184D01*
X67681192Y-108666171D01*
X67746583Y-108508302D01*
X67790423Y-108453898D01*
X67856718Y-108431833D01*
X67924417Y-108449112D01*
X67948825Y-108468073D01*
X67963737Y-108482985D01*
X68060763Y-108539003D01*
X68168982Y-108568000D01*
X68168984Y-108568000D01*
X68281016Y-108568000D01*
X68281018Y-108568000D01*
X68389237Y-108539003D01*
X68486263Y-108482985D01*
X68565485Y-108403763D01*
X68621503Y-108306737D01*
X68650500Y-108198518D01*
X68650500Y-108086482D01*
X73579500Y-108086482D01*
X73579500Y-108198518D01*
X73608497Y-108306737D01*
X73664515Y-108403763D01*
X73743737Y-108482985D01*
X73840763Y-108539003D01*
X73948982Y-108568000D01*
X73948984Y-108568000D01*
X74061016Y-108568000D01*
X74061018Y-108568000D01*
X74169237Y-108539003D01*
X74266263Y-108482985D01*
X74281174Y-108468073D01*
X74342494Y-108434588D01*
X74412186Y-108439571D01*
X74468120Y-108481441D01*
X74483416Y-108508301D01*
X74548809Y-108666175D01*
X74548814Y-108666184D01*
X74658248Y-108829962D01*
X74658251Y-108829966D01*
X74797533Y-108969248D01*
X74797537Y-108969251D01*
X74961315Y-109078685D01*
X74961328Y-109078692D01*
X75143308Y-109154069D01*
X75185000Y-109162362D01*
X75185000Y-108359488D01*
X75194940Y-108376705D01*
X75250795Y-108432560D01*
X75319204Y-108472056D01*
X75395504Y-108492500D01*
X75474496Y-108492500D01*
X75550796Y-108472056D01*
X75619205Y-108432560D01*
X75675060Y-108376705D01*
X75685000Y-108359488D01*
X75685000Y-109162362D01*
X75726690Y-109154069D01*
X75726692Y-109154069D01*
X75908671Y-109078692D01*
X75908686Y-109078684D01*
X76014500Y-109007980D01*
X76081177Y-108987101D01*
X76148558Y-109005585D01*
X76195248Y-109057563D01*
X76206425Y-109126533D01*
X76205009Y-109135272D01*
X76174500Y-109288653D01*
X76174500Y-109446346D01*
X76205261Y-109600989D01*
X76205264Y-109601001D01*
X76265602Y-109746672D01*
X76265609Y-109746685D01*
X76353210Y-109877788D01*
X76353213Y-109877792D01*
X76464707Y-109989286D01*
X76464711Y-109989289D01*
X76595814Y-110076890D01*
X76595827Y-110076897D01*
X76741498Y-110137235D01*
X76741503Y-110137237D01*
X76896153Y-110167999D01*
X76896156Y-110168000D01*
X76896158Y-110168000D01*
X77053844Y-110168000D01*
X77053845Y-110167999D01*
X77208497Y-110137237D01*
X77354179Y-110076894D01*
X77485289Y-109989289D01*
X77596789Y-109877789D01*
X77684394Y-109746679D01*
X77744737Y-109600997D01*
X77775500Y-109446342D01*
X77775500Y-109288658D01*
X77775121Y-109286751D01*
X77775121Y-109286748D01*
X77771522Y-109268653D01*
X78044500Y-109268653D01*
X78044500Y-109426346D01*
X78075261Y-109580989D01*
X78075264Y-109581001D01*
X78135602Y-109726672D01*
X78135609Y-109726685D01*
X78223210Y-109857788D01*
X78223213Y-109857792D01*
X78334707Y-109969286D01*
X78334711Y-109969289D01*
X78465814Y-110056890D01*
X78465827Y-110056897D01*
X78611498Y-110117235D01*
X78611503Y-110117237D01*
X78766153Y-110147999D01*
X78766156Y-110148000D01*
X78766158Y-110148000D01*
X78923844Y-110148000D01*
X78923845Y-110147999D01*
X79078497Y-110117237D01*
X79224179Y-110056894D01*
X79355289Y-109969289D01*
X79466789Y-109857789D01*
X79554394Y-109726679D01*
X79614737Y-109580997D01*
X79645500Y-109426342D01*
X79645500Y-109268658D01*
X79645500Y-109268655D01*
X79645499Y-109268653D01*
X79624356Y-109162362D01*
X79614737Y-109114003D01*
X79591359Y-109057563D01*
X79554397Y-108968327D01*
X79554390Y-108968314D01*
X79466789Y-108837211D01*
X79466786Y-108837207D01*
X79355292Y-108725713D01*
X79355288Y-108725710D01*
X79224185Y-108638109D01*
X79224172Y-108638102D01*
X79078501Y-108577764D01*
X79078489Y-108577761D01*
X78923845Y-108547000D01*
X78923842Y-108547000D01*
X78766158Y-108547000D01*
X78766155Y-108547000D01*
X78611510Y-108577761D01*
X78611498Y-108577764D01*
X78465827Y-108638102D01*
X78465814Y-108638109D01*
X78334711Y-108725710D01*
X78334707Y-108725713D01*
X78223213Y-108837207D01*
X78223210Y-108837211D01*
X78135609Y-108968314D01*
X78135602Y-108968327D01*
X78075264Y-109113998D01*
X78075261Y-109114010D01*
X78044500Y-109268653D01*
X77771522Y-109268653D01*
X77744738Y-109134008D01*
X77744737Y-109134007D01*
X77744737Y-109134003D01*
X77721824Y-109078685D01*
X77684397Y-108988327D01*
X77684390Y-108988314D01*
X77596789Y-108857211D01*
X77596786Y-108857207D01*
X77485292Y-108745713D01*
X77485288Y-108745710D01*
X77354185Y-108658109D01*
X77354172Y-108658102D01*
X77208501Y-108597764D01*
X77208489Y-108597761D01*
X77053845Y-108567000D01*
X77053842Y-108567000D01*
X76896158Y-108567000D01*
X76896155Y-108567000D01*
X76741510Y-108597761D01*
X76741498Y-108597764D01*
X76595827Y-108658102D01*
X76595813Y-108658110D01*
X76560594Y-108681642D01*
X76493917Y-108702518D01*
X76426537Y-108684032D01*
X76379848Y-108632052D01*
X76368673Y-108563082D01*
X76377146Y-108531084D01*
X76396569Y-108484194D01*
X76396572Y-108484181D01*
X76434999Y-108290995D01*
X76435000Y-108290992D01*
X76435000Y-107892500D01*
X75735000Y-107892500D01*
X75735000Y-107392500D01*
X76435000Y-107392500D01*
X76435000Y-106994010D01*
X76429579Y-106966756D01*
X76429579Y-106966753D01*
X76425979Y-106948653D01*
X79449500Y-106948653D01*
X79449500Y-107106346D01*
X79480261Y-107260989D01*
X79480264Y-107261001D01*
X79540602Y-107406672D01*
X79540609Y-107406685D01*
X79628210Y-107537788D01*
X79628213Y-107537792D01*
X79739707Y-107649286D01*
X79739711Y-107649289D01*
X79870814Y-107736890D01*
X79870827Y-107736897D01*
X80016498Y-107797235D01*
X80016503Y-107797237D01*
X80171153Y-107827999D01*
X80171156Y-107828000D01*
X80171158Y-107828000D01*
X80328844Y-107828000D01*
X80328845Y-107827999D01*
X80483497Y-107797237D01*
X80629179Y-107736894D01*
X80760289Y-107649289D01*
X80871789Y-107537789D01*
X80959394Y-107406679D01*
X81019737Y-107260997D01*
X81050500Y-107106342D01*
X81050500Y-106948658D01*
X81050500Y-106948655D01*
X81050499Y-106948653D01*
X81043890Y-106915427D01*
X81019737Y-106794003D01*
X81019735Y-106793998D01*
X80959397Y-106648327D01*
X80959390Y-106648314D01*
X80871789Y-106517211D01*
X80871786Y-106517207D01*
X80760292Y-106405713D01*
X80760288Y-106405710D01*
X80629185Y-106318109D01*
X80629172Y-106318102D01*
X80483501Y-106257764D01*
X80483489Y-106257761D01*
X80328845Y-106227000D01*
X80328842Y-106227000D01*
X80171158Y-106227000D01*
X80171155Y-106227000D01*
X80016510Y-106257761D01*
X80016498Y-106257764D01*
X79870827Y-106318102D01*
X79870814Y-106318109D01*
X79739711Y-106405710D01*
X79739707Y-106405713D01*
X79628213Y-106517207D01*
X79628210Y-106517211D01*
X79540609Y-106648314D01*
X79540602Y-106648327D01*
X79480264Y-106793998D01*
X79480261Y-106794010D01*
X79449500Y-106948653D01*
X76425979Y-106948653D01*
X76396572Y-106800818D01*
X76396569Y-106800806D01*
X76321192Y-106618828D01*
X76321185Y-106618815D01*
X76211751Y-106455037D01*
X76211748Y-106455033D01*
X76072466Y-106315751D01*
X76072462Y-106315748D01*
X75908684Y-106206314D01*
X75908671Y-106206307D01*
X75726691Y-106130929D01*
X75726683Y-106130927D01*
X75685000Y-106122635D01*
X75685000Y-106925511D01*
X75675060Y-106908295D01*
X75619205Y-106852440D01*
X75550796Y-106812944D01*
X75474496Y-106792500D01*
X75395504Y-106792500D01*
X75319204Y-106812944D01*
X75250795Y-106852440D01*
X75194940Y-106908295D01*
X75185000Y-106925511D01*
X75185000Y-106122636D01*
X75184999Y-106122635D01*
X75143316Y-106130927D01*
X75143308Y-106130929D01*
X74961328Y-106206307D01*
X74961315Y-106206314D01*
X74797537Y-106315748D01*
X74797533Y-106315751D01*
X74658251Y-106455033D01*
X74658248Y-106455037D01*
X74548814Y-106618815D01*
X74548807Y-106618828D01*
X74473430Y-106800806D01*
X74473427Y-106800818D01*
X74435000Y-106994004D01*
X74435000Y-107392500D01*
X75135000Y-107392500D01*
X75135000Y-107892500D01*
X74408110Y-107892500D01*
X74341071Y-107872815D01*
X74320429Y-107856181D01*
X74266265Y-107802017D01*
X74266263Y-107802015D01*
X74169237Y-107745997D01*
X74061018Y-107717000D01*
X73948982Y-107717000D01*
X73840763Y-107745997D01*
X73840760Y-107745998D01*
X73743740Y-107802013D01*
X73743734Y-107802017D01*
X73664517Y-107881234D01*
X73664513Y-107881240D01*
X73608498Y-107978260D01*
X73608497Y-107978263D01*
X73579500Y-108086482D01*
X68650500Y-108086482D01*
X68621503Y-107978263D01*
X68565485Y-107881237D01*
X68486263Y-107802015D01*
X68389237Y-107745997D01*
X68281018Y-107717000D01*
X68168982Y-107717000D01*
X68060763Y-107745997D01*
X68060760Y-107745998D01*
X67963740Y-107802013D01*
X67963734Y-107802017D01*
X67909571Y-107856181D01*
X67848248Y-107889666D01*
X67821890Y-107892500D01*
X67095000Y-107892500D01*
X67095000Y-107392500D01*
X67795000Y-107392500D01*
X67795000Y-106994008D01*
X67794999Y-106994004D01*
X67756572Y-106800818D01*
X67756569Y-106800806D01*
X67681192Y-106618828D01*
X67681185Y-106618815D01*
X67571751Y-106455037D01*
X67571748Y-106455033D01*
X67432466Y-106315751D01*
X67432462Y-106315748D01*
X67268684Y-106206314D01*
X67268671Y-106206307D01*
X67086691Y-106130929D01*
X67086683Y-106130927D01*
X67045000Y-106122635D01*
X67045000Y-106925511D01*
X67035060Y-106908295D01*
X66979205Y-106852440D01*
X66910796Y-106812944D01*
X66834496Y-106792500D01*
X66755504Y-106792500D01*
X66679204Y-106812944D01*
X66610795Y-106852440D01*
X66554940Y-106908295D01*
X66545000Y-106925511D01*
X66545000Y-106122636D01*
X66544999Y-106122635D01*
X66503316Y-106130927D01*
X66503308Y-106130929D01*
X66321328Y-106206307D01*
X66321315Y-106206314D01*
X66157537Y-106315748D01*
X66157533Y-106315751D01*
X66018251Y-106455033D01*
X66018248Y-106455037D01*
X65908814Y-106618815D01*
X65908809Y-106618824D01*
X65854061Y-106751000D01*
X65810220Y-106805403D01*
X65743926Y-106827468D01*
X65676227Y-106810189D01*
X65628616Y-106759052D01*
X65615500Y-106703547D01*
X65615500Y-104758653D01*
X67914500Y-104758653D01*
X67914500Y-104916346D01*
X67945261Y-105070989D01*
X67945264Y-105071001D01*
X68005602Y-105216672D01*
X68005609Y-105216685D01*
X68093210Y-105347788D01*
X68093213Y-105347792D01*
X68204707Y-105459286D01*
X68204711Y-105459289D01*
X68335814Y-105546890D01*
X68335827Y-105546897D01*
X68453681Y-105595713D01*
X68481503Y-105607237D01*
X68636153Y-105637999D01*
X68636156Y-105638000D01*
X68636158Y-105638000D01*
X68793844Y-105638000D01*
X68793845Y-105637999D01*
X68948497Y-105607237D01*
X69094179Y-105546894D01*
X69225289Y-105459289D01*
X69336789Y-105347789D01*
X69424394Y-105216679D01*
X69484737Y-105070997D01*
X69515500Y-104916342D01*
X69515500Y-104778653D01*
X72704500Y-104778653D01*
X72704500Y-104936346D01*
X72735261Y-105090989D01*
X72735264Y-105091001D01*
X72795602Y-105236672D01*
X72795609Y-105236685D01*
X72883210Y-105367788D01*
X72883213Y-105367792D01*
X72994707Y-105479286D01*
X72994711Y-105479289D01*
X73125814Y-105566890D01*
X73125827Y-105566897D01*
X73233138Y-105611346D01*
X73271503Y-105627237D01*
X73407487Y-105654286D01*
X73426153Y-105657999D01*
X73426156Y-105658000D01*
X73426158Y-105658000D01*
X73583844Y-105658000D01*
X73583845Y-105657999D01*
X73738497Y-105627237D01*
X73871859Y-105571997D01*
X73884172Y-105566897D01*
X73884172Y-105566896D01*
X73884179Y-105566894D01*
X74015289Y-105479289D01*
X74126789Y-105367789D01*
X74214394Y-105236679D01*
X74274737Y-105090997D01*
X74300928Y-104959327D01*
X74302057Y-104953653D01*
X79254500Y-104953653D01*
X79254500Y-105111346D01*
X79285261Y-105265989D01*
X79285264Y-105266001D01*
X79345602Y-105411672D01*
X79345609Y-105411685D01*
X79433210Y-105542788D01*
X79433213Y-105542792D01*
X79544707Y-105654286D01*
X79544711Y-105654289D01*
X79675814Y-105741890D01*
X79675827Y-105741897D01*
X79821498Y-105802235D01*
X79821503Y-105802237D01*
X79976153Y-105832999D01*
X79976156Y-105833000D01*
X79976158Y-105833000D01*
X80133844Y-105833000D01*
X80133845Y-105832999D01*
X80288497Y-105802237D01*
X80434179Y-105741894D01*
X80565289Y-105654289D01*
X80676789Y-105542789D01*
X80736348Y-105453653D01*
X81694500Y-105453653D01*
X81694500Y-105611346D01*
X81725261Y-105765989D01*
X81725264Y-105766001D01*
X81785602Y-105911672D01*
X81785609Y-105911685D01*
X81873210Y-106042788D01*
X81873213Y-106042792D01*
X81984710Y-106154289D01*
X82115815Y-106241890D01*
X82115821Y-106241894D01*
X82128528Y-106247157D01*
X82182931Y-106290999D01*
X82202691Y-106337526D01*
X82225261Y-106450991D01*
X82225264Y-106451001D01*
X82285602Y-106596672D01*
X82285609Y-106596685D01*
X82373210Y-106727788D01*
X82373213Y-106727792D01*
X82484707Y-106839286D01*
X82484711Y-106839289D01*
X82615814Y-106926890D01*
X82615827Y-106926897D01*
X82668352Y-106948653D01*
X82761503Y-106987237D01*
X82761513Y-106987239D01*
X82761654Y-106987282D01*
X82761726Y-106987329D01*
X82767131Y-106989568D01*
X82766706Y-106990593D01*
X82820093Y-107025580D01*
X82828761Y-107037052D01*
X82916805Y-107168818D01*
X82916808Y-107168822D01*
X83028302Y-107280316D01*
X83028306Y-107280319D01*
X83159409Y-107367920D01*
X83159422Y-107367927D01*
X83305093Y-107428265D01*
X83305098Y-107428267D01*
X83450729Y-107457235D01*
X83459748Y-107459029D01*
X83459751Y-107459030D01*
X83459753Y-107459030D01*
X83617439Y-107459030D01*
X83617440Y-107459029D01*
X83772092Y-107428267D01*
X83917774Y-107367924D01*
X84048884Y-107280319D01*
X84160384Y-107168819D01*
X84247989Y-107037709D01*
X84308332Y-106892027D01*
X84339095Y-106737372D01*
X84339095Y-106579688D01*
X84339095Y-106579685D01*
X84339094Y-106579683D01*
X84326578Y-106516757D01*
X84322977Y-106498653D01*
X96239500Y-106498653D01*
X96239500Y-106656346D01*
X96270261Y-106810989D01*
X96270264Y-106811001D01*
X96330602Y-106956672D01*
X96330609Y-106956685D01*
X96418210Y-107087788D01*
X96418213Y-107087792D01*
X96529707Y-107199286D01*
X96529711Y-107199289D01*
X96660814Y-107286890D01*
X96660827Y-107286897D01*
X96806498Y-107347235D01*
X96806503Y-107347237D01*
X96961153Y-107377999D01*
X96961156Y-107378000D01*
X96961158Y-107378000D01*
X97118844Y-107378000D01*
X97118845Y-107377999D01*
X97273497Y-107347237D01*
X97419179Y-107286894D01*
X97550289Y-107199289D01*
X97661789Y-107087789D01*
X97749394Y-106956679D01*
X97767835Y-106912157D01*
X97811674Y-106857754D01*
X97877968Y-106835688D01*
X97945667Y-106852966D01*
X97993279Y-106904102D01*
X97997793Y-106915427D01*
X97997932Y-106915370D01*
X98060602Y-107066672D01*
X98060609Y-107066685D01*
X98148210Y-107197788D01*
X98148213Y-107197792D01*
X98259707Y-107309286D01*
X98259711Y-107309289D01*
X98390814Y-107396890D01*
X98390827Y-107396897D01*
X98536498Y-107457235D01*
X98536503Y-107457237D01*
X98691153Y-107487999D01*
X98691156Y-107488000D01*
X98691158Y-107488000D01*
X98848844Y-107488000D01*
X98848845Y-107487999D01*
X99003497Y-107457237D01*
X99149179Y-107396894D01*
X99280289Y-107309289D01*
X99391789Y-107197789D01*
X99479394Y-107066679D01*
X99539737Y-106920997D01*
X99570500Y-106766342D01*
X99570500Y-106608658D01*
X99570500Y-106608655D01*
X99570499Y-106608653D01*
X99552309Y-106517207D01*
X99539737Y-106454003D01*
X99529509Y-106429311D01*
X99479397Y-106308327D01*
X99479390Y-106308314D01*
X99391789Y-106177211D01*
X99391786Y-106177207D01*
X99280292Y-106065713D01*
X99280288Y-106065710D01*
X99149185Y-105978109D01*
X99149172Y-105978102D01*
X99003501Y-105917764D01*
X99003489Y-105917761D01*
X98848845Y-105887000D01*
X98848842Y-105887000D01*
X98691158Y-105887000D01*
X98691155Y-105887000D01*
X98536510Y-105917761D01*
X98536498Y-105917764D01*
X98390827Y-105978102D01*
X98390814Y-105978109D01*
X98259711Y-106065710D01*
X98259707Y-106065713D01*
X98148213Y-106177207D01*
X98148210Y-106177211D01*
X98060609Y-106308314D01*
X98060604Y-106308324D01*
X98042164Y-106352843D01*
X97998323Y-106407246D01*
X97932028Y-106429311D01*
X97864329Y-106412032D01*
X97816719Y-106360894D01*
X97812206Y-106349572D01*
X97812068Y-106349630D01*
X97749397Y-106198327D01*
X97749390Y-106198314D01*
X97661789Y-106067211D01*
X97661786Y-106067207D01*
X97550292Y-105955713D01*
X97550288Y-105955710D01*
X97419185Y-105868109D01*
X97419172Y-105868102D01*
X97273501Y-105807764D01*
X97273489Y-105807761D01*
X97118845Y-105777000D01*
X97118842Y-105777000D01*
X96961158Y-105777000D01*
X96961155Y-105777000D01*
X96806510Y-105807761D01*
X96806498Y-105807764D01*
X96660827Y-105868102D01*
X96660814Y-105868109D01*
X96529711Y-105955710D01*
X96529707Y-105955713D01*
X96418213Y-106067207D01*
X96418210Y-106067211D01*
X96330609Y-106198314D01*
X96330602Y-106198327D01*
X96270264Y-106343998D01*
X96270261Y-106344010D01*
X96239500Y-106498653D01*
X84322977Y-106498653D01*
X84308333Y-106425038D01*
X84308332Y-106425037D01*
X84308332Y-106425033D01*
X84302947Y-106412032D01*
X84247992Y-106279357D01*
X84247985Y-106279344D01*
X84160384Y-106148241D01*
X84160381Y-106148237D01*
X84048887Y-106036743D01*
X84048883Y-106036740D01*
X83917780Y-105949139D01*
X83917767Y-105949132D01*
X83772089Y-105888791D01*
X83771919Y-105888740D01*
X83771840Y-105888688D01*
X83766465Y-105886462D01*
X83766887Y-105885441D01*
X83713487Y-105850433D01*
X83704832Y-105838976D01*
X83616789Y-105707211D01*
X83616786Y-105707207D01*
X83505292Y-105595713D01*
X83505288Y-105595710D01*
X83374185Y-105508109D01*
X83374173Y-105508103D01*
X83361470Y-105502841D01*
X83355982Y-105498419D01*
X83349102Y-105496896D01*
X83329132Y-105476780D01*
X83307068Y-105458999D01*
X83303653Y-105451114D01*
X83299877Y-105447311D01*
X83289260Y-105417884D01*
X83287664Y-105414198D01*
X83287474Y-105413311D01*
X83264737Y-105299003D01*
X83248438Y-105259653D01*
X88489500Y-105259653D01*
X88489500Y-105417346D01*
X88520261Y-105571989D01*
X88520264Y-105572001D01*
X88580602Y-105717672D01*
X88580609Y-105717685D01*
X88668210Y-105848788D01*
X88668213Y-105848792D01*
X88779707Y-105960286D01*
X88779711Y-105960289D01*
X88910814Y-106047890D01*
X88910827Y-106047897D01*
X89056498Y-106108235D01*
X89056503Y-106108237D01*
X89170573Y-106130927D01*
X89211153Y-106138999D01*
X89211156Y-106139000D01*
X89211158Y-106139000D01*
X89368844Y-106139000D01*
X89368845Y-106138999D01*
X89523497Y-106108237D01*
X89669179Y-106047894D01*
X89800289Y-105960289D01*
X89911789Y-105848789D01*
X89999394Y-105717679D01*
X90059737Y-105571997D01*
X90090500Y-105417342D01*
X90090500Y-105259658D01*
X90090500Y-105259655D01*
X90090499Y-105259653D01*
X90075210Y-105182789D01*
X90059737Y-105105003D01*
X90045653Y-105071001D01*
X89999397Y-104959327D01*
X89999390Y-104959314D01*
X89911789Y-104828211D01*
X89911786Y-104828207D01*
X89800292Y-104716713D01*
X89800288Y-104716710D01*
X89761314Y-104690668D01*
X89669185Y-104629109D01*
X89669172Y-104629102D01*
X89583589Y-104593653D01*
X94714500Y-104593653D01*
X94714500Y-104751346D01*
X94745261Y-104905989D01*
X94745264Y-104906001D01*
X94805602Y-105051672D01*
X94805609Y-105051685D01*
X94893210Y-105182788D01*
X94893213Y-105182792D01*
X95004707Y-105294286D01*
X95004711Y-105294289D01*
X95135814Y-105381890D01*
X95135827Y-105381897D01*
X95221410Y-105417346D01*
X95281503Y-105442237D01*
X95436153Y-105472999D01*
X95436156Y-105473000D01*
X95436158Y-105473000D01*
X95593844Y-105473000D01*
X95593845Y-105472999D01*
X95748497Y-105442237D01*
X95894179Y-105381894D01*
X96025289Y-105294289D01*
X96136789Y-105182789D01*
X96224394Y-105051679D01*
X96284737Y-104905997D01*
X96315500Y-104751342D01*
X96315500Y-104593658D01*
X96315500Y-104593655D01*
X96315499Y-104593653D01*
X96292556Y-104478314D01*
X96284737Y-104439003D01*
X96238430Y-104327207D01*
X96224397Y-104293327D01*
X96224390Y-104293314D01*
X96136789Y-104162211D01*
X96136786Y-104162207D01*
X96025292Y-104050713D01*
X96025288Y-104050710D01*
X95894185Y-103963109D01*
X95894172Y-103963102D01*
X95748501Y-103902764D01*
X95748489Y-103902761D01*
X95593845Y-103872000D01*
X95593842Y-103872000D01*
X95436158Y-103872000D01*
X95436155Y-103872000D01*
X95281510Y-103902761D01*
X95281498Y-103902764D01*
X95135827Y-103963102D01*
X95135814Y-103963109D01*
X95004711Y-104050710D01*
X95004707Y-104050713D01*
X94893213Y-104162207D01*
X94893210Y-104162211D01*
X94805609Y-104293314D01*
X94805602Y-104293327D01*
X94745264Y-104438998D01*
X94745261Y-104439010D01*
X94714500Y-104593653D01*
X89583589Y-104593653D01*
X89523501Y-104568764D01*
X89523489Y-104568761D01*
X89368845Y-104538000D01*
X89368842Y-104538000D01*
X89211158Y-104538000D01*
X89211155Y-104538000D01*
X89056510Y-104568761D01*
X89056498Y-104568764D01*
X88910827Y-104629102D01*
X88910814Y-104629109D01*
X88779711Y-104716710D01*
X88779707Y-104716713D01*
X88668213Y-104828207D01*
X88668210Y-104828211D01*
X88580609Y-104959314D01*
X88580602Y-104959327D01*
X88520264Y-105104998D01*
X88520261Y-105105010D01*
X88489500Y-105259653D01*
X83248438Y-105259653D01*
X83230635Y-105216672D01*
X83204397Y-105153327D01*
X83204390Y-105153314D01*
X83116789Y-105022211D01*
X83116786Y-105022207D01*
X83005292Y-104910713D01*
X83005288Y-104910710D01*
X82874185Y-104823109D01*
X82874172Y-104823102D01*
X82728501Y-104762764D01*
X82728489Y-104762761D01*
X82573845Y-104732000D01*
X82573842Y-104732000D01*
X82416158Y-104732000D01*
X82416155Y-104732000D01*
X82261510Y-104762761D01*
X82261498Y-104762764D01*
X82115827Y-104823102D01*
X82115814Y-104823109D01*
X81984711Y-104910710D01*
X81984707Y-104910713D01*
X81873213Y-105022207D01*
X81873210Y-105022211D01*
X81785609Y-105153314D01*
X81785602Y-105153327D01*
X81725264Y-105298998D01*
X81725261Y-105299010D01*
X81694500Y-105453653D01*
X80736348Y-105453653D01*
X80764394Y-105411679D01*
X80824737Y-105265997D01*
X80855500Y-105111342D01*
X80855500Y-104953658D01*
X80855500Y-104953655D01*
X80855499Y-104953653D01*
X80846020Y-104906001D01*
X80824737Y-104799003D01*
X80816308Y-104778653D01*
X80764397Y-104653327D01*
X80764390Y-104653314D01*
X80676789Y-104522211D01*
X80676786Y-104522207D01*
X80565292Y-104410713D01*
X80565288Y-104410710D01*
X80434185Y-104323109D01*
X80434172Y-104323102D01*
X80288501Y-104262764D01*
X80288489Y-104262761D01*
X80133845Y-104232000D01*
X80133842Y-104232000D01*
X79976158Y-104232000D01*
X79976155Y-104232000D01*
X79821510Y-104262761D01*
X79821498Y-104262764D01*
X79675827Y-104323102D01*
X79675814Y-104323109D01*
X79544711Y-104410710D01*
X79544707Y-104410713D01*
X79433213Y-104522207D01*
X79433210Y-104522211D01*
X79345609Y-104653314D01*
X79345602Y-104653327D01*
X79285264Y-104798998D01*
X79285261Y-104799010D01*
X79254500Y-104953653D01*
X74302057Y-104953653D01*
X74305500Y-104936345D01*
X74305500Y-104778655D01*
X74305499Y-104778653D01*
X74293178Y-104716710D01*
X74274737Y-104624003D01*
X74262166Y-104593653D01*
X74214397Y-104478327D01*
X74214390Y-104478314D01*
X74126789Y-104347211D01*
X74126786Y-104347207D01*
X74015292Y-104235713D01*
X74015288Y-104235710D01*
X73884185Y-104148109D01*
X73884172Y-104148102D01*
X73738501Y-104087764D01*
X73738489Y-104087761D01*
X73583845Y-104057000D01*
X73583842Y-104057000D01*
X73426158Y-104057000D01*
X73426155Y-104057000D01*
X73271510Y-104087761D01*
X73271498Y-104087764D01*
X73125827Y-104148102D01*
X73125814Y-104148109D01*
X72994711Y-104235710D01*
X72994707Y-104235713D01*
X72883213Y-104347207D01*
X72883210Y-104347211D01*
X72795609Y-104478314D01*
X72795602Y-104478327D01*
X72735264Y-104623998D01*
X72735261Y-104624010D01*
X72704500Y-104778653D01*
X69515500Y-104778653D01*
X69515500Y-104758658D01*
X69515500Y-104758655D01*
X69515499Y-104758653D01*
X69510197Y-104732000D01*
X69484737Y-104604003D01*
X69470140Y-104568763D01*
X69424397Y-104458327D01*
X69424390Y-104458314D01*
X69336789Y-104327211D01*
X69336786Y-104327207D01*
X69225292Y-104215713D01*
X69225288Y-104215710D01*
X69094185Y-104128109D01*
X69094172Y-104128102D01*
X68948501Y-104067764D01*
X68948489Y-104067761D01*
X68793845Y-104037000D01*
X68793842Y-104037000D01*
X68636158Y-104037000D01*
X68636155Y-104037000D01*
X68481510Y-104067761D01*
X68481498Y-104067764D01*
X68335827Y-104128102D01*
X68335814Y-104128109D01*
X68204711Y-104215710D01*
X68204707Y-104215713D01*
X68093213Y-104327207D01*
X68093210Y-104327211D01*
X68005609Y-104458314D01*
X68005602Y-104458327D01*
X67945264Y-104603998D01*
X67945261Y-104604010D01*
X67914500Y-104758653D01*
X65615500Y-104758653D01*
X65615500Y-102883653D01*
X66229500Y-102883653D01*
X66229500Y-103041346D01*
X66260261Y-103195989D01*
X66260264Y-103196001D01*
X66320602Y-103341672D01*
X66320609Y-103341685D01*
X66408210Y-103472788D01*
X66408213Y-103472792D01*
X66519707Y-103584286D01*
X66519711Y-103584289D01*
X66650814Y-103671890D01*
X66650827Y-103671897D01*
X66796498Y-103732235D01*
X66796503Y-103732237D01*
X66945578Y-103761890D01*
X66951153Y-103762999D01*
X66951156Y-103763000D01*
X66951158Y-103763000D01*
X67108844Y-103763000D01*
X67108845Y-103762999D01*
X67263497Y-103732237D01*
X67409179Y-103671894D01*
X67540289Y-103584289D01*
X67651789Y-103472789D01*
X67739394Y-103341679D01*
X67799737Y-103195997D01*
X67830500Y-103041342D01*
X67830500Y-102883658D01*
X67830500Y-102883655D01*
X67830499Y-102883653D01*
X67822014Y-102840997D01*
X67799737Y-102729003D01*
X67782068Y-102686346D01*
X67739395Y-102583322D01*
X67739393Y-102583319D01*
X67702866Y-102528653D01*
X77424500Y-102528653D01*
X77424500Y-102686346D01*
X77455261Y-102840989D01*
X77455264Y-102841001D01*
X77515602Y-102986672D01*
X77515609Y-102986685D01*
X77603210Y-103117788D01*
X77603213Y-103117792D01*
X77714707Y-103229286D01*
X77714711Y-103229289D01*
X77845814Y-103316890D01*
X77845827Y-103316897D01*
X77905672Y-103341685D01*
X77991503Y-103377237D01*
X77991511Y-103377238D01*
X77993593Y-103377870D01*
X77994557Y-103378502D01*
X77997131Y-103379568D01*
X77996928Y-103380055D01*
X78052034Y-103416163D01*
X78072167Y-103449081D01*
X78120097Y-103564797D01*
X78120104Y-103564810D01*
X78207705Y-103695913D01*
X78207708Y-103695917D01*
X78319202Y-103807411D01*
X78319206Y-103807414D01*
X78450309Y-103895015D01*
X78450322Y-103895022D01*
X78552235Y-103937235D01*
X78595998Y-103955362D01*
X78750648Y-103986124D01*
X78750651Y-103986125D01*
X78750653Y-103986125D01*
X78908339Y-103986125D01*
X78908340Y-103986124D01*
X79062992Y-103955362D01*
X79208674Y-103895019D01*
X79339784Y-103807414D01*
X79451284Y-103695914D01*
X79538889Y-103564804D01*
X79546400Y-103546672D01*
X79577001Y-103472792D01*
X79599232Y-103419122D01*
X79629995Y-103264467D01*
X79629995Y-103106783D01*
X79629995Y-103106780D01*
X79607889Y-102995650D01*
X79614116Y-102926058D01*
X79656979Y-102870881D01*
X79660552Y-102868399D01*
X79778955Y-102789285D01*
X79890455Y-102677785D01*
X79978060Y-102546675D01*
X79978459Y-102545713D01*
X80014746Y-102458106D01*
X80038403Y-102400993D01*
X80047551Y-102355000D01*
X80079935Y-102293092D01*
X80100270Y-102276096D01*
X80185289Y-102219289D01*
X80296789Y-102107789D01*
X80384394Y-101976679D01*
X80444737Y-101830997D01*
X80475500Y-101676342D01*
X80475500Y-101518658D01*
X80475500Y-101518655D01*
X80475499Y-101518653D01*
X80452494Y-101402999D01*
X80444737Y-101364003D01*
X80423151Y-101311890D01*
X80384397Y-101218327D01*
X80384390Y-101218314D01*
X80296789Y-101087211D01*
X80296786Y-101087207D01*
X80185292Y-100975713D01*
X80185288Y-100975710D01*
X80054185Y-100888109D01*
X80054172Y-100888102D01*
X79908501Y-100827764D01*
X79908489Y-100827761D01*
X79753845Y-100797000D01*
X79753842Y-100797000D01*
X79596158Y-100797000D01*
X79596155Y-100797000D01*
X79441510Y-100827761D01*
X79441498Y-100827764D01*
X79295827Y-100888102D01*
X79295814Y-100888109D01*
X79164711Y-100975710D01*
X79164707Y-100975713D01*
X79053213Y-101087207D01*
X79053210Y-101087211D01*
X78965609Y-101218314D01*
X78965602Y-101218327D01*
X78905263Y-101364000D01*
X78905261Y-101364008D01*
X78896114Y-101409993D01*
X78863728Y-101471904D01*
X78843389Y-101488902D01*
X78758377Y-101545707D01*
X78758370Y-101545713D01*
X78646879Y-101657203D01*
X78646876Y-101657207D01*
X78564317Y-101780765D01*
X78510704Y-101825570D01*
X78441379Y-101834277D01*
X78437024Y-101833491D01*
X78303845Y-101807000D01*
X78303842Y-101807000D01*
X78146158Y-101807000D01*
X78146155Y-101807000D01*
X77991510Y-101837761D01*
X77991498Y-101837764D01*
X77845827Y-101898102D01*
X77845814Y-101898109D01*
X77714711Y-101985710D01*
X77714707Y-101985713D01*
X77603213Y-102097207D01*
X77603210Y-102097211D01*
X77515609Y-102228314D01*
X77515602Y-102228327D01*
X77455264Y-102373998D01*
X77455261Y-102374010D01*
X77424500Y-102528653D01*
X67702866Y-102528653D01*
X67651789Y-102452211D01*
X67651786Y-102452207D01*
X67540292Y-102340713D01*
X67540288Y-102340710D01*
X67409185Y-102253109D01*
X67409172Y-102253102D01*
X67263501Y-102192764D01*
X67263489Y-102192761D01*
X67108845Y-102162000D01*
X67108842Y-102162000D01*
X66951158Y-102162000D01*
X66951155Y-102162000D01*
X66796510Y-102192761D01*
X66796498Y-102192764D01*
X66650827Y-102253102D01*
X66650814Y-102253109D01*
X66519711Y-102340710D01*
X66519707Y-102340713D01*
X66408213Y-102452207D01*
X66408210Y-102452211D01*
X66320609Y-102583314D01*
X66320602Y-102583327D01*
X66260264Y-102728998D01*
X66260261Y-102729010D01*
X66229500Y-102883653D01*
X65615500Y-102883653D01*
X65615500Y-100523653D01*
X87364500Y-100523653D01*
X87364500Y-100681346D01*
X87395261Y-100835989D01*
X87395264Y-100836001D01*
X87455602Y-100981672D01*
X87455609Y-100981685D01*
X87543210Y-101112788D01*
X87543213Y-101112792D01*
X87654707Y-101224286D01*
X87654711Y-101224289D01*
X87785814Y-101311890D01*
X87785827Y-101311897D01*
X87911612Y-101363998D01*
X87931503Y-101372237D01*
X88086153Y-101402999D01*
X88086156Y-101403000D01*
X88086158Y-101403000D01*
X88243844Y-101403000D01*
X88243845Y-101402999D01*
X88398497Y-101372237D01*
X88544179Y-101311894D01*
X88675289Y-101224289D01*
X88676925Y-101222653D01*
X95789500Y-101222653D01*
X95789500Y-101380346D01*
X95820261Y-101534989D01*
X95820264Y-101535001D01*
X95880602Y-101680672D01*
X95880609Y-101680685D01*
X95968210Y-101811788D01*
X95968213Y-101811792D01*
X96079707Y-101923286D01*
X96079711Y-101923289D01*
X96210814Y-102010890D01*
X96210827Y-102010897D01*
X96297499Y-102046797D01*
X96356503Y-102071237D01*
X96511153Y-102101999D01*
X96511156Y-102102000D01*
X96674512Y-102102000D01*
X96741551Y-102121685D01*
X96787306Y-102174489D01*
X96797250Y-102243647D01*
X96768225Y-102307203D01*
X96721964Y-102340561D01*
X96715826Y-102343102D01*
X96715814Y-102343109D01*
X96584711Y-102430710D01*
X96584707Y-102430713D01*
X96473213Y-102542207D01*
X96473210Y-102542211D01*
X96385609Y-102673314D01*
X96385602Y-102673327D01*
X96325264Y-102818998D01*
X96325261Y-102819010D01*
X96294500Y-102973653D01*
X96294500Y-103131346D01*
X96325261Y-103285989D01*
X96325264Y-103286001D01*
X96385602Y-103431672D01*
X96385609Y-103431685D01*
X96473210Y-103562788D01*
X96473213Y-103562792D01*
X96584707Y-103674286D01*
X96584711Y-103674289D01*
X96715814Y-103761890D01*
X96715827Y-103761897D01*
X96861498Y-103822235D01*
X96861503Y-103822237D01*
X97016153Y-103852999D01*
X97016156Y-103853000D01*
X97016158Y-103853000D01*
X97173844Y-103853000D01*
X97173845Y-103852999D01*
X97328497Y-103822237D01*
X97474179Y-103761894D01*
X97605289Y-103674289D01*
X97684631Y-103594946D01*
X97745952Y-103561463D01*
X97815644Y-103566447D01*
X97871578Y-103608318D01*
X97875413Y-103613738D01*
X97918210Y-103677788D01*
X97918213Y-103677792D01*
X98029707Y-103789286D01*
X98029711Y-103789289D01*
X98160814Y-103876890D01*
X98160827Y-103876897D01*
X98306498Y-103937235D01*
X98306503Y-103937237D01*
X98461153Y-103967999D01*
X98461156Y-103968000D01*
X98461158Y-103968000D01*
X98618844Y-103968000D01*
X98618845Y-103967999D01*
X98773497Y-103937237D01*
X98919179Y-103876894D01*
X99050289Y-103789289D01*
X99161789Y-103677789D01*
X99249394Y-103546679D01*
X99309737Y-103400997D01*
X99340500Y-103246342D01*
X99340500Y-103088658D01*
X99340500Y-103088655D01*
X99340499Y-103088653D01*
X99331089Y-103041346D01*
X99309737Y-102934003D01*
X99288884Y-102883658D01*
X99249397Y-102788327D01*
X99249390Y-102788314D01*
X99161789Y-102657211D01*
X99161786Y-102657207D01*
X99050292Y-102545713D01*
X99050288Y-102545710D01*
X98919185Y-102458109D01*
X98919172Y-102458102D01*
X98773501Y-102397764D01*
X98773489Y-102397761D01*
X98618845Y-102367000D01*
X98618842Y-102367000D01*
X98461158Y-102367000D01*
X98461155Y-102367000D01*
X98306510Y-102397761D01*
X98306498Y-102397764D01*
X98160827Y-102458102D01*
X98160814Y-102458109D01*
X98029711Y-102545710D01*
X97950369Y-102625052D01*
X97889045Y-102658536D01*
X97819354Y-102653552D01*
X97763420Y-102611680D01*
X97759586Y-102606261D01*
X97716789Y-102542210D01*
X97605292Y-102430713D01*
X97605288Y-102430710D01*
X97474185Y-102343109D01*
X97474172Y-102343102D01*
X97328501Y-102282764D01*
X97328489Y-102282761D01*
X97173845Y-102252000D01*
X97173842Y-102252000D01*
X97016158Y-102252000D01*
X97010488Y-102252000D01*
X96943449Y-102232315D01*
X96897694Y-102179511D01*
X96887750Y-102110353D01*
X96916775Y-102046797D01*
X96963036Y-102013439D01*
X96969173Y-102010897D01*
X96969176Y-102010895D01*
X96969179Y-102010894D01*
X97100289Y-101923289D01*
X97211789Y-101811789D01*
X97299394Y-101680679D01*
X97301191Y-101676342D01*
X97355298Y-101545713D01*
X97359737Y-101534997D01*
X97390500Y-101380342D01*
X97390500Y-101222658D01*
X97390500Y-101222655D01*
X97390499Y-101222653D01*
X97359737Y-101068003D01*
X97359735Y-101067998D01*
X97299397Y-100922327D01*
X97299390Y-100922314D01*
X97211789Y-100791211D01*
X97211786Y-100791207D01*
X97100289Y-100679710D01*
X97082167Y-100667602D01*
X97037362Y-100613990D01*
X97028655Y-100544665D01*
X97058809Y-100481638D01*
X97118252Y-100444918D01*
X97142832Y-100441607D01*
X97142782Y-100441097D01*
X97148836Y-100440500D01*
X97148842Y-100440500D01*
X97303497Y-100409737D01*
X97443136Y-100351897D01*
X97449172Y-100349397D01*
X97449172Y-100349396D01*
X97449179Y-100349394D01*
X97580289Y-100261789D01*
X97615685Y-100226393D01*
X97677007Y-100192907D01*
X97746699Y-100197891D01*
X97802633Y-100239761D01*
X97806471Y-100245185D01*
X97808211Y-100247790D01*
X97919707Y-100359286D01*
X97919711Y-100359289D01*
X98050814Y-100446890D01*
X98050827Y-100446897D01*
X98170779Y-100496582D01*
X98196503Y-100507237D01*
X98319793Y-100531761D01*
X98351153Y-100537999D01*
X98351156Y-100538000D01*
X98351158Y-100538000D01*
X98508844Y-100538000D01*
X98508845Y-100537999D01*
X98663497Y-100507237D01*
X98809179Y-100446894D01*
X98940289Y-100359289D01*
X99051789Y-100247789D01*
X99139394Y-100116679D01*
X99199737Y-99970997D01*
X99230500Y-99816342D01*
X99230500Y-99658658D01*
X99230500Y-99658655D01*
X99230499Y-99658653D01*
X99217295Y-99592271D01*
X99199737Y-99504003D01*
X99183024Y-99463653D01*
X99139397Y-99358327D01*
X99139390Y-99358314D01*
X99051789Y-99227211D01*
X99051786Y-99227207D01*
X98940292Y-99115713D01*
X98940288Y-99115710D01*
X98809185Y-99028109D01*
X98809172Y-99028102D01*
X98663501Y-98967764D01*
X98663489Y-98967761D01*
X98508845Y-98937000D01*
X98508842Y-98937000D01*
X98351158Y-98937000D01*
X98351155Y-98937000D01*
X98196510Y-98967761D01*
X98196498Y-98967764D01*
X98050827Y-99028102D01*
X98050814Y-99028109D01*
X97919711Y-99115710D01*
X97919706Y-99115714D01*
X97884312Y-99151108D01*
X97822989Y-99184593D01*
X97753297Y-99179607D01*
X97697364Y-99137735D01*
X97693526Y-99132311D01*
X97691787Y-99129708D01*
X97580292Y-99018213D01*
X97580288Y-99018210D01*
X97449185Y-98930609D01*
X97449172Y-98930602D01*
X97303501Y-98870264D01*
X97303489Y-98870261D01*
X97148845Y-98839500D01*
X97148842Y-98839500D01*
X96991158Y-98839500D01*
X96991155Y-98839500D01*
X96836510Y-98870261D01*
X96836498Y-98870264D01*
X96690827Y-98930602D01*
X96690814Y-98930609D01*
X96559711Y-99018210D01*
X96559707Y-99018213D01*
X96448213Y-99129707D01*
X96448210Y-99129711D01*
X96360609Y-99260814D01*
X96360602Y-99260827D01*
X96300264Y-99406498D01*
X96300261Y-99406510D01*
X96269500Y-99561153D01*
X96269500Y-99718846D01*
X96300261Y-99873489D01*
X96300264Y-99873501D01*
X96360602Y-100019172D01*
X96360609Y-100019185D01*
X96448210Y-100150288D01*
X96448213Y-100150292D01*
X96559710Y-100261789D01*
X96577833Y-100273898D01*
X96622638Y-100327510D01*
X96631345Y-100396835D01*
X96601191Y-100459862D01*
X96541748Y-100496582D01*
X96517167Y-100499892D01*
X96517218Y-100500403D01*
X96511153Y-100501000D01*
X96356510Y-100531761D01*
X96356498Y-100531764D01*
X96210827Y-100592102D01*
X96210814Y-100592109D01*
X96079711Y-100679710D01*
X96079707Y-100679713D01*
X95968213Y-100791207D01*
X95968210Y-100791211D01*
X95880609Y-100922314D01*
X95880602Y-100922327D01*
X95820264Y-101067998D01*
X95820261Y-101068010D01*
X95789500Y-101222653D01*
X88676925Y-101222653D01*
X88681264Y-101218314D01*
X88770694Y-101128885D01*
X88786786Y-101112792D01*
X88786789Y-101112789D01*
X88874394Y-100981679D01*
X88876867Y-100975710D01*
X88898984Y-100922314D01*
X88934737Y-100835997D01*
X88965500Y-100681342D01*
X88965500Y-100523658D01*
X88965500Y-100523655D01*
X88965499Y-100523653D01*
X88950231Y-100446897D01*
X88934737Y-100369003D01*
X88917550Y-100327510D01*
X88874397Y-100223327D01*
X88874390Y-100223314D01*
X88786789Y-100092211D01*
X88786786Y-100092207D01*
X88675292Y-99980713D01*
X88675288Y-99980710D01*
X88544185Y-99893109D01*
X88544172Y-99893102D01*
X88398501Y-99832764D01*
X88398489Y-99832761D01*
X88243845Y-99802000D01*
X88243842Y-99802000D01*
X88086158Y-99802000D01*
X88086155Y-99802000D01*
X87931510Y-99832761D01*
X87931498Y-99832764D01*
X87785827Y-99893102D01*
X87785814Y-99893109D01*
X87654711Y-99980710D01*
X87654707Y-99980713D01*
X87543213Y-100092207D01*
X87543210Y-100092211D01*
X87455609Y-100223314D01*
X87455602Y-100223327D01*
X87395264Y-100368998D01*
X87395261Y-100369010D01*
X87364500Y-100523653D01*
X65615500Y-100523653D01*
X65615500Y-99111153D01*
X69177000Y-99111153D01*
X69177000Y-99268846D01*
X69207761Y-99423489D01*
X69207764Y-99423501D01*
X69268102Y-99569172D01*
X69268109Y-99569185D01*
X69355710Y-99700288D01*
X69355713Y-99700292D01*
X69467207Y-99811786D01*
X69467211Y-99811789D01*
X69598314Y-99899390D01*
X69598327Y-99899397D01*
X69743998Y-99959735D01*
X69744003Y-99959737D01*
X69849441Y-99980710D01*
X69898653Y-99990499D01*
X69898656Y-99990500D01*
X69898658Y-99990500D01*
X70056344Y-99990500D01*
X70056345Y-99990499D01*
X70210997Y-99959737D01*
X70356679Y-99899394D01*
X70487789Y-99811789D01*
X70599289Y-99700289D01*
X70686894Y-99569179D01*
X70690219Y-99561153D01*
X70713888Y-99504010D01*
X70747237Y-99423497D01*
X70778000Y-99268842D01*
X70778000Y-99111158D01*
X70778000Y-99111155D01*
X70777999Y-99111153D01*
X71452000Y-99111153D01*
X71452000Y-99268846D01*
X71482761Y-99423489D01*
X71482764Y-99423501D01*
X71543102Y-99569172D01*
X71543109Y-99569185D01*
X71630710Y-99700288D01*
X71630713Y-99700292D01*
X71742207Y-99811786D01*
X71742211Y-99811789D01*
X71873314Y-99899390D01*
X71873327Y-99899397D01*
X72018998Y-99959735D01*
X72019003Y-99959737D01*
X72124441Y-99980710D01*
X72173653Y-99990499D01*
X72173656Y-99990500D01*
X72173658Y-99990500D01*
X72331344Y-99990500D01*
X72331345Y-99990499D01*
X72485997Y-99959737D01*
X72631679Y-99899394D01*
X72762789Y-99811789D01*
X72874289Y-99700289D01*
X72961894Y-99569179D01*
X72965219Y-99561153D01*
X72988888Y-99504010D01*
X73005604Y-99463653D01*
X82664500Y-99463653D01*
X82664500Y-99621346D01*
X82695261Y-99775989D01*
X82695264Y-99776001D01*
X82755602Y-99921672D01*
X82755609Y-99921685D01*
X82843210Y-100052788D01*
X82843213Y-100052792D01*
X82954707Y-100164286D01*
X82954711Y-100164289D01*
X83085814Y-100251890D01*
X83085827Y-100251897D01*
X83231498Y-100312235D01*
X83231503Y-100312237D01*
X83386153Y-100342999D01*
X83386156Y-100343000D01*
X83386158Y-100343000D01*
X83543844Y-100343000D01*
X83543845Y-100342999D01*
X83698497Y-100312237D01*
X83844179Y-100251894D01*
X83975289Y-100164289D01*
X84086789Y-100052789D01*
X84174394Y-99921679D01*
X84234737Y-99775997D01*
X84265500Y-99621342D01*
X84265797Y-99619849D01*
X84280222Y-99592271D01*
X84292864Y-99563813D01*
X84293062Y-99563653D01*
X90574500Y-99563653D01*
X90574500Y-99721346D01*
X90605261Y-99875989D01*
X90605264Y-99876001D01*
X90665602Y-100021672D01*
X90665609Y-100021685D01*
X90753210Y-100152788D01*
X90753213Y-100152792D01*
X90864707Y-100264286D01*
X90864711Y-100264289D01*
X90995814Y-100351890D01*
X90995827Y-100351897D01*
X91135467Y-100409737D01*
X91141503Y-100412237D01*
X91283585Y-100440499D01*
X91296153Y-100442999D01*
X91296156Y-100443000D01*
X91296158Y-100443000D01*
X91453844Y-100443000D01*
X91453845Y-100442999D01*
X91608497Y-100412237D01*
X91754179Y-100351894D01*
X91885289Y-100264289D01*
X91996789Y-100152789D01*
X92084394Y-100021679D01*
X92085433Y-100019172D01*
X92110052Y-99959735D01*
X92144737Y-99875997D01*
X92175500Y-99721342D01*
X92175500Y-99563658D01*
X92175500Y-99563655D01*
X92175499Y-99563653D01*
X92163633Y-99503998D01*
X92144737Y-99409003D01*
X92143704Y-99406510D01*
X92084397Y-99263327D01*
X92084390Y-99263314D01*
X91996789Y-99132211D01*
X91996786Y-99132207D01*
X91885292Y-99020713D01*
X91885288Y-99020710D01*
X91754185Y-98933109D01*
X91754172Y-98933102D01*
X91608501Y-98872764D01*
X91608489Y-98872761D01*
X91453845Y-98842000D01*
X91453842Y-98842000D01*
X91296158Y-98842000D01*
X91296155Y-98842000D01*
X91141510Y-98872761D01*
X91141498Y-98872764D01*
X90995827Y-98933102D01*
X90995814Y-98933109D01*
X90864711Y-99020710D01*
X90864707Y-99020713D01*
X90753213Y-99132207D01*
X90753210Y-99132211D01*
X90665609Y-99263314D01*
X90665602Y-99263327D01*
X90605264Y-99408998D01*
X90605261Y-99409010D01*
X90574500Y-99563653D01*
X84293062Y-99563653D01*
X84296748Y-99560678D01*
X84298182Y-99557938D01*
X84319297Y-99540425D01*
X84329028Y-99534027D01*
X84334179Y-99531894D01*
X84465289Y-99444289D01*
X84576789Y-99332789D01*
X84664394Y-99201679D01*
X84724737Y-99055997D01*
X84755500Y-98901342D01*
X84755500Y-98862337D01*
X84775185Y-98795298D01*
X84827989Y-98749543D01*
X84831986Y-98747802D01*
X84834179Y-98746894D01*
X84965289Y-98659289D01*
X85076789Y-98547789D01*
X85164394Y-98416679D01*
X85224737Y-98270997D01*
X85240990Y-98189289D01*
X85249027Y-98148886D01*
X85281412Y-98086975D01*
X85304101Y-98068444D01*
X85313212Y-98062649D01*
X85339179Y-98051894D01*
X85470289Y-97964289D01*
X85474503Y-97960074D01*
X85484912Y-97953455D01*
X85511558Y-97945768D01*
X85537081Y-97934924D01*
X85545223Y-97936056D01*
X85552045Y-97934089D01*
X85570315Y-97939548D01*
X85598904Y-97943526D01*
X85716503Y-97992237D01*
X85871153Y-98022999D01*
X85871156Y-98023000D01*
X85871158Y-98023000D01*
X86028844Y-98023000D01*
X86028845Y-98022999D01*
X86183497Y-97992237D01*
X86301094Y-97943527D01*
X86329172Y-97931897D01*
X86329172Y-97931896D01*
X86329179Y-97931894D01*
X86460289Y-97844289D01*
X86571789Y-97732789D01*
X86659394Y-97601679D01*
X86717601Y-97461153D01*
X95399500Y-97461153D01*
X95399500Y-97618846D01*
X95430261Y-97773489D01*
X95430264Y-97773501D01*
X95490602Y-97919172D01*
X95490609Y-97919185D01*
X95578210Y-98050288D01*
X95578213Y-98050292D01*
X95689707Y-98161786D01*
X95689711Y-98161789D01*
X95820814Y-98249390D01*
X95820827Y-98249397D01*
X95966498Y-98309735D01*
X95966503Y-98309737D01*
X96104744Y-98337235D01*
X96121153Y-98340499D01*
X96121156Y-98340500D01*
X96121158Y-98340500D01*
X96278844Y-98340500D01*
X96278845Y-98340499D01*
X96433497Y-98309737D01*
X96579179Y-98249394D01*
X96710289Y-98161789D01*
X96821789Y-98050289D01*
X96909394Y-97919179D01*
X96969737Y-97773497D01*
X97000500Y-97618842D01*
X97000500Y-97461158D01*
X97000500Y-97461155D01*
X97000499Y-97461153D01*
X96994476Y-97430873D01*
X96969737Y-97306503D01*
X96951990Y-97263658D01*
X96925396Y-97199452D01*
X96917927Y-97129983D01*
X96949203Y-97067504D01*
X97009292Y-97031852D01*
X97039957Y-97028000D01*
X97163844Y-97028000D01*
X97163845Y-97027999D01*
X97318497Y-96997237D01*
X97464179Y-96936894D01*
X97595289Y-96849289D01*
X97617931Y-96826646D01*
X97679252Y-96793162D01*
X97748943Y-96798145D01*
X97798699Y-96833685D01*
X97798903Y-96833482D01*
X97800123Y-96834702D01*
X97801461Y-96835658D01*
X97803210Y-96837789D01*
X97914707Y-96949286D01*
X97914711Y-96949289D01*
X98045814Y-97036890D01*
X98045827Y-97036897D01*
X98191498Y-97097235D01*
X98191503Y-97097237D01*
X98346153Y-97127999D01*
X98346156Y-97128000D01*
X98346158Y-97128000D01*
X98503844Y-97128000D01*
X98503845Y-97127999D01*
X98658497Y-97097237D01*
X98804179Y-97036894D01*
X98935289Y-96949289D01*
X99046789Y-96837789D01*
X99134394Y-96706679D01*
X99194737Y-96560997D01*
X99225500Y-96406342D01*
X99225500Y-96248658D01*
X99225500Y-96248655D01*
X99225499Y-96248653D01*
X99212110Y-96181342D01*
X99194737Y-96094003D01*
X99184096Y-96068314D01*
X99134397Y-95948327D01*
X99134390Y-95948314D01*
X99046789Y-95817211D01*
X99046786Y-95817207D01*
X98935292Y-95705713D01*
X98935288Y-95705710D01*
X98804185Y-95618109D01*
X98804172Y-95618102D01*
X98658501Y-95557764D01*
X98658489Y-95557761D01*
X98503845Y-95527000D01*
X98503842Y-95527000D01*
X98346158Y-95527000D01*
X98346155Y-95527000D01*
X98191510Y-95557761D01*
X98191498Y-95557764D01*
X98045827Y-95618102D01*
X98045814Y-95618109D01*
X97914711Y-95705710D01*
X97892067Y-95728354D01*
X97830743Y-95761838D01*
X97761051Y-95756852D01*
X97711300Y-95721314D01*
X97711097Y-95721518D01*
X97709874Y-95720295D01*
X97708537Y-95719340D01*
X97706787Y-95717208D01*
X97595292Y-95605713D01*
X97595288Y-95605710D01*
X97464185Y-95518109D01*
X97464172Y-95518102D01*
X97318501Y-95457764D01*
X97318489Y-95457761D01*
X97163845Y-95427000D01*
X97163842Y-95427000D01*
X97006158Y-95427000D01*
X97006155Y-95427000D01*
X96851510Y-95457761D01*
X96851498Y-95457764D01*
X96705827Y-95518102D01*
X96705814Y-95518109D01*
X96574711Y-95605710D01*
X96574707Y-95605713D01*
X96463213Y-95717207D01*
X96463210Y-95717211D01*
X96375609Y-95848314D01*
X96375602Y-95848327D01*
X96315264Y-95993998D01*
X96315261Y-95994010D01*
X96284500Y-96148653D01*
X96284500Y-96306346D01*
X96315261Y-96460989D01*
X96315264Y-96461001D01*
X96359604Y-96568048D01*
X96367073Y-96637517D01*
X96335797Y-96699996D01*
X96275708Y-96735648D01*
X96245043Y-96739500D01*
X96121155Y-96739500D01*
X95966510Y-96770261D01*
X95966498Y-96770264D01*
X95820827Y-96830602D01*
X95820814Y-96830609D01*
X95689711Y-96918210D01*
X95689707Y-96918213D01*
X95578213Y-97029707D01*
X95578210Y-97029711D01*
X95490609Y-97160814D01*
X95490602Y-97160827D01*
X95430264Y-97306498D01*
X95430261Y-97306510D01*
X95399500Y-97461153D01*
X86717601Y-97461153D01*
X86719737Y-97455997D01*
X86729285Y-97407999D01*
X86750499Y-97301346D01*
X86750500Y-97301344D01*
X86750500Y-97143655D01*
X86750499Y-97143653D01*
X86735352Y-97067504D01*
X86719737Y-96989003D01*
X86718774Y-96986679D01*
X86659397Y-96843327D01*
X86659390Y-96843314D01*
X86571789Y-96712211D01*
X86571786Y-96712207D01*
X86460292Y-96600713D01*
X86460288Y-96600710D01*
X86329185Y-96513109D01*
X86323809Y-96510236D01*
X86324770Y-96508437D01*
X86277627Y-96470428D01*
X86255578Y-96404128D01*
X86255500Y-96399732D01*
X86255500Y-96368655D01*
X86255499Y-96368653D01*
X86231630Y-96248658D01*
X86224737Y-96214003D01*
X86211209Y-96181344D01*
X86164397Y-96068327D01*
X86164390Y-96068314D01*
X86076789Y-95937211D01*
X86076786Y-95937207D01*
X85965292Y-95825713D01*
X85965288Y-95825710D01*
X85834185Y-95738109D01*
X85834172Y-95738102D01*
X85688501Y-95677764D01*
X85688489Y-95677761D01*
X85533845Y-95647000D01*
X85533842Y-95647000D01*
X85376158Y-95647000D01*
X85376155Y-95647000D01*
X85221510Y-95677761D01*
X85221498Y-95677764D01*
X85075827Y-95738102D01*
X85075814Y-95738109D01*
X84944711Y-95825710D01*
X84944707Y-95825713D01*
X84833213Y-95937207D01*
X84833210Y-95937211D01*
X84745609Y-96068314D01*
X84745602Y-96068327D01*
X84685264Y-96213998D01*
X84685261Y-96214010D01*
X84654500Y-96368653D01*
X84654500Y-96519732D01*
X84634815Y-96586771D01*
X84585704Y-96629325D01*
X84586191Y-96630236D01*
X84582179Y-96632380D01*
X84582011Y-96632526D01*
X84581445Y-96632772D01*
X84580814Y-96633109D01*
X84449711Y-96720710D01*
X84449707Y-96720713D01*
X84338213Y-96832207D01*
X84338210Y-96832211D01*
X84250609Y-96963314D01*
X84250602Y-96963327D01*
X84190264Y-97108998D01*
X84190261Y-97109008D01*
X84165972Y-97231114D01*
X84133586Y-97293025D01*
X84091811Y-97321482D01*
X84075823Y-97328104D01*
X84075814Y-97328109D01*
X83944711Y-97415710D01*
X83944707Y-97415713D01*
X83833213Y-97527207D01*
X83833210Y-97527211D01*
X83745609Y-97658314D01*
X83745602Y-97658327D01*
X83685264Y-97803998D01*
X83685261Y-97804010D01*
X83654500Y-97958653D01*
X83654500Y-97997661D01*
X83634815Y-98064700D01*
X83582011Y-98110455D01*
X83577962Y-98112218D01*
X83575830Y-98113101D01*
X83575814Y-98113109D01*
X83444711Y-98200710D01*
X83444707Y-98200713D01*
X83333213Y-98312207D01*
X83333210Y-98312211D01*
X83245609Y-98443314D01*
X83245602Y-98443327D01*
X83185264Y-98588998D01*
X83185261Y-98589008D01*
X83154202Y-98745150D01*
X83121817Y-98807061D01*
X83091042Y-98830314D01*
X83085823Y-98833103D01*
X82954711Y-98920710D01*
X82954707Y-98920713D01*
X82843213Y-99032207D01*
X82843210Y-99032211D01*
X82755609Y-99163314D01*
X82755602Y-99163327D01*
X82695264Y-99308998D01*
X82695261Y-99309010D01*
X82664500Y-99463653D01*
X73005604Y-99463653D01*
X73022237Y-99423497D01*
X73053000Y-99268842D01*
X73053000Y-99111158D01*
X73053000Y-99111155D01*
X73052999Y-99111153D01*
X73022237Y-98956503D01*
X73012544Y-98933102D01*
X72961897Y-98810827D01*
X72961890Y-98810814D01*
X72874289Y-98679711D01*
X72874286Y-98679707D01*
X72762792Y-98568213D01*
X72762788Y-98568210D01*
X72631685Y-98480609D01*
X72631672Y-98480602D01*
X72486001Y-98420264D01*
X72485989Y-98420261D01*
X72331345Y-98389500D01*
X72331342Y-98389500D01*
X72173658Y-98389500D01*
X72173655Y-98389500D01*
X72019010Y-98420261D01*
X72018998Y-98420264D01*
X71873327Y-98480602D01*
X71873314Y-98480609D01*
X71742211Y-98568210D01*
X71742207Y-98568213D01*
X71630713Y-98679707D01*
X71630710Y-98679711D01*
X71543109Y-98810814D01*
X71543102Y-98810827D01*
X71482764Y-98956498D01*
X71482761Y-98956510D01*
X71452000Y-99111153D01*
X70777999Y-99111153D01*
X70747237Y-98956503D01*
X70737544Y-98933102D01*
X70686897Y-98810827D01*
X70686890Y-98810814D01*
X70599289Y-98679711D01*
X70599286Y-98679707D01*
X70487792Y-98568213D01*
X70487788Y-98568210D01*
X70356685Y-98480609D01*
X70356672Y-98480602D01*
X70211001Y-98420264D01*
X70210989Y-98420261D01*
X70056345Y-98389500D01*
X70056342Y-98389500D01*
X69898658Y-98389500D01*
X69898655Y-98389500D01*
X69744010Y-98420261D01*
X69743998Y-98420264D01*
X69598327Y-98480602D01*
X69598314Y-98480609D01*
X69467211Y-98568210D01*
X69467207Y-98568213D01*
X69355713Y-98679707D01*
X69355710Y-98679711D01*
X69268109Y-98810814D01*
X69268102Y-98810827D01*
X69207764Y-98956498D01*
X69207761Y-98956510D01*
X69177000Y-99111153D01*
X65615500Y-99111153D01*
X65615500Y-97488653D01*
X72979500Y-97488653D01*
X72979500Y-97646346D01*
X73010261Y-97800989D01*
X73010264Y-97801001D01*
X73070602Y-97946672D01*
X73070609Y-97946685D01*
X73158210Y-98077788D01*
X73158213Y-98077792D01*
X73269707Y-98189286D01*
X73269711Y-98189289D01*
X73400814Y-98276890D01*
X73400827Y-98276897D01*
X73486084Y-98312211D01*
X73546503Y-98337237D01*
X73701153Y-98367999D01*
X73701156Y-98368000D01*
X73701158Y-98368000D01*
X73858844Y-98368000D01*
X73858845Y-98367999D01*
X74013497Y-98337237D01*
X74159179Y-98276894D01*
X74290289Y-98189289D01*
X74401789Y-98077789D01*
X74489394Y-97946679D01*
X74549737Y-97800997D01*
X74580500Y-97646342D01*
X74580500Y-97488658D01*
X74580500Y-97488655D01*
X74580499Y-97488653D01*
X74565990Y-97415711D01*
X74549737Y-97334003D01*
X74536209Y-97301344D01*
X74489397Y-97188327D01*
X74489390Y-97188314D01*
X74401789Y-97057211D01*
X74401786Y-97057207D01*
X74290292Y-96945713D01*
X74290288Y-96945710D01*
X74159185Y-96858109D01*
X74159172Y-96858102D01*
X74013501Y-96797764D01*
X74013489Y-96797761D01*
X73858845Y-96767000D01*
X73858842Y-96767000D01*
X73701158Y-96767000D01*
X73701155Y-96767000D01*
X73546510Y-96797761D01*
X73546498Y-96797764D01*
X73400827Y-96858102D01*
X73400814Y-96858109D01*
X73269711Y-96945710D01*
X73269707Y-96945713D01*
X73158213Y-97057207D01*
X73158210Y-97057211D01*
X73070609Y-97188314D01*
X73070602Y-97188327D01*
X73010264Y-97333998D01*
X73010261Y-97334010D01*
X72979500Y-97488653D01*
X65615500Y-97488653D01*
X65615500Y-96528653D01*
X77634500Y-96528653D01*
X77634500Y-96686346D01*
X77665261Y-96840989D01*
X77665264Y-96841001D01*
X77725602Y-96986672D01*
X77725609Y-96986685D01*
X77813210Y-97117788D01*
X77813213Y-97117792D01*
X77924707Y-97229286D01*
X77924711Y-97229289D01*
X78055814Y-97316890D01*
X78055827Y-97316897D01*
X78201498Y-97377235D01*
X78201503Y-97377237D01*
X78356153Y-97407999D01*
X78356156Y-97408000D01*
X78356158Y-97408000D01*
X78513844Y-97408000D01*
X78513845Y-97407999D01*
X78668497Y-97377237D01*
X78787111Y-97328106D01*
X78814172Y-97316897D01*
X78814172Y-97316896D01*
X78814179Y-97316894D01*
X78945289Y-97229289D01*
X79056789Y-97117789D01*
X79144394Y-96986679D01*
X79204737Y-96840997D01*
X79235500Y-96686342D01*
X79235500Y-96528658D01*
X79235500Y-96528655D01*
X79235499Y-96528653D01*
X79211170Y-96406344D01*
X79204737Y-96374003D01*
X79152816Y-96248653D01*
X79144397Y-96228327D01*
X79144390Y-96228314D01*
X79056788Y-96097210D01*
X79056787Y-96097208D01*
X78983232Y-96023653D01*
X80661185Y-96023653D01*
X80661185Y-96181346D01*
X80691946Y-96335989D01*
X80691949Y-96336001D01*
X80752287Y-96481672D01*
X80752294Y-96481685D01*
X80839895Y-96612788D01*
X80839898Y-96612792D01*
X80951392Y-96724286D01*
X80951396Y-96724289D01*
X81082499Y-96811890D01*
X81082512Y-96811897D01*
X81228183Y-96872235D01*
X81228188Y-96872237D01*
X81382838Y-96902999D01*
X81382841Y-96903000D01*
X81382843Y-96903000D01*
X81540529Y-96903000D01*
X81540530Y-96902999D01*
X81695182Y-96872237D01*
X81840864Y-96811894D01*
X81971974Y-96724289D01*
X82083474Y-96612789D01*
X82171079Y-96481679D01*
X82231422Y-96335997D01*
X82262185Y-96181342D01*
X82262185Y-96023658D01*
X82262185Y-96023655D01*
X82262184Y-96023653D01*
X82256087Y-95993000D01*
X82231422Y-95869003D01*
X82222855Y-95848321D01*
X82171082Y-95723327D01*
X82171075Y-95723314D01*
X82083474Y-95592211D01*
X82083471Y-95592207D01*
X81971977Y-95480713D01*
X81971973Y-95480710D01*
X81840870Y-95393109D01*
X81840857Y-95393102D01*
X81695186Y-95332764D01*
X81695174Y-95332761D01*
X81540530Y-95302000D01*
X81540527Y-95302000D01*
X81382843Y-95302000D01*
X81382840Y-95302000D01*
X81228195Y-95332761D01*
X81228183Y-95332764D01*
X81082512Y-95393102D01*
X81082499Y-95393109D01*
X80951396Y-95480710D01*
X80951392Y-95480713D01*
X80839898Y-95592207D01*
X80839895Y-95592211D01*
X80752294Y-95723314D01*
X80752287Y-95723327D01*
X80691949Y-95868998D01*
X80691946Y-95869010D01*
X80661185Y-96023653D01*
X78983232Y-96023653D01*
X78945292Y-95985713D01*
X78945288Y-95985710D01*
X78814185Y-95898109D01*
X78814172Y-95898102D01*
X78668501Y-95837764D01*
X78668489Y-95837761D01*
X78513845Y-95807000D01*
X78513842Y-95807000D01*
X78356158Y-95807000D01*
X78356155Y-95807000D01*
X78201510Y-95837761D01*
X78201498Y-95837764D01*
X78055827Y-95898102D01*
X78055814Y-95898109D01*
X77924711Y-95985710D01*
X77924707Y-95985713D01*
X77813213Y-96097207D01*
X77813210Y-96097211D01*
X77725609Y-96228314D01*
X77725602Y-96228327D01*
X77665264Y-96373998D01*
X77665261Y-96374010D01*
X77634500Y-96528653D01*
X65615500Y-96528653D01*
X65615500Y-93858653D01*
X74569500Y-93858653D01*
X74569500Y-94016346D01*
X74600261Y-94170989D01*
X74600264Y-94171001D01*
X74660602Y-94316672D01*
X74660609Y-94316685D01*
X74748210Y-94447788D01*
X74748213Y-94447792D01*
X74859707Y-94559286D01*
X74859711Y-94559289D01*
X74990814Y-94646890D01*
X74990827Y-94646897D01*
X75076084Y-94682211D01*
X75136503Y-94707237D01*
X75290092Y-94737788D01*
X75291153Y-94737999D01*
X75291156Y-94738000D01*
X75291158Y-94738000D01*
X75448844Y-94738000D01*
X75448845Y-94737999D01*
X75603497Y-94707237D01*
X75749179Y-94646894D01*
X75754029Y-94643653D01*
X77454500Y-94643653D01*
X77454500Y-94801346D01*
X77485261Y-94955989D01*
X77485264Y-94956001D01*
X77545602Y-95101672D01*
X77545609Y-95101685D01*
X77633210Y-95232788D01*
X77633213Y-95232792D01*
X77744707Y-95344286D01*
X77744711Y-95344289D01*
X77875814Y-95431890D01*
X77875827Y-95431897D01*
X77993681Y-95480713D01*
X78021503Y-95492237D01*
X78176153Y-95522999D01*
X78176156Y-95523000D01*
X78176158Y-95523000D01*
X78333844Y-95523000D01*
X78333845Y-95522999D01*
X78488497Y-95492237D01*
X78634179Y-95431894D01*
X78765289Y-95344289D01*
X78876789Y-95232789D01*
X78956393Y-95113653D01*
X87794500Y-95113653D01*
X87794500Y-95271346D01*
X87825261Y-95425989D01*
X87825264Y-95426001D01*
X87885602Y-95571672D01*
X87885609Y-95571685D01*
X87973210Y-95702788D01*
X87973213Y-95702792D01*
X88084707Y-95814286D01*
X88084711Y-95814289D01*
X88215814Y-95901890D01*
X88215827Y-95901897D01*
X88327921Y-95948327D01*
X88361503Y-95962237D01*
X88516153Y-95992999D01*
X88516156Y-95993000D01*
X88516158Y-95993000D01*
X88673844Y-95993000D01*
X88673845Y-95992999D01*
X88828497Y-95962237D01*
X88974179Y-95901894D01*
X89105289Y-95814289D01*
X89216789Y-95702789D01*
X89304394Y-95571679D01*
X89364737Y-95425997D01*
X89395500Y-95271342D01*
X89395500Y-95113658D01*
X89395500Y-95113655D01*
X89395499Y-95113653D01*
X89364738Y-94959010D01*
X89364737Y-94959003D01*
X89304394Y-94813321D01*
X89304393Y-94813319D01*
X89304390Y-94813314D01*
X89277889Y-94773653D01*
X90599500Y-94773653D01*
X90599500Y-94931346D01*
X90630261Y-95085989D01*
X90630264Y-95086001D01*
X90690602Y-95231672D01*
X90690609Y-95231685D01*
X90778210Y-95362788D01*
X90778213Y-95362792D01*
X90889707Y-95474286D01*
X90889711Y-95474289D01*
X91020814Y-95561890D01*
X91020827Y-95561897D01*
X91094013Y-95592211D01*
X91166503Y-95622237D01*
X91321153Y-95652999D01*
X91321156Y-95653000D01*
X91321158Y-95653000D01*
X91478844Y-95653000D01*
X91478845Y-95652999D01*
X91633497Y-95622237D01*
X91779179Y-95561894D01*
X91910289Y-95474289D01*
X92021789Y-95362789D01*
X92109394Y-95231679D01*
X92169737Y-95085997D01*
X92200500Y-94931342D01*
X92200500Y-94773658D01*
X92200500Y-94773655D01*
X92200499Y-94773653D01*
X92187288Y-94707237D01*
X92169737Y-94619003D01*
X92115888Y-94488998D01*
X92109397Y-94473327D01*
X92109390Y-94473314D01*
X92021789Y-94342211D01*
X92021786Y-94342207D01*
X91910292Y-94230713D01*
X91910288Y-94230710D01*
X91779185Y-94143109D01*
X91779172Y-94143102D01*
X91633501Y-94082764D01*
X91633489Y-94082761D01*
X91478845Y-94052000D01*
X91478842Y-94052000D01*
X91321158Y-94052000D01*
X91321155Y-94052000D01*
X91166510Y-94082761D01*
X91166498Y-94082764D01*
X91020827Y-94143102D01*
X91020814Y-94143109D01*
X90889711Y-94230710D01*
X90889707Y-94230713D01*
X90778213Y-94342207D01*
X90778210Y-94342211D01*
X90690609Y-94473314D01*
X90690602Y-94473327D01*
X90630264Y-94618998D01*
X90630261Y-94619010D01*
X90599500Y-94773653D01*
X89277889Y-94773653D01*
X89216789Y-94682211D01*
X89216786Y-94682207D01*
X89105292Y-94570713D01*
X89105288Y-94570710D01*
X88974185Y-94483109D01*
X88974172Y-94483102D01*
X88828501Y-94422764D01*
X88828489Y-94422761D01*
X88673845Y-94392000D01*
X88673842Y-94392000D01*
X88516158Y-94392000D01*
X88516155Y-94392000D01*
X88361510Y-94422761D01*
X88361498Y-94422764D01*
X88215827Y-94483102D01*
X88215814Y-94483109D01*
X88084711Y-94570710D01*
X88084707Y-94570713D01*
X87973213Y-94682207D01*
X87973210Y-94682211D01*
X87885609Y-94813314D01*
X87885602Y-94813327D01*
X87825264Y-94958998D01*
X87825261Y-94959010D01*
X87794500Y-95113653D01*
X78956393Y-95113653D01*
X78964394Y-95101679D01*
X79024737Y-94955997D01*
X79055500Y-94801342D01*
X79055500Y-94643658D01*
X79055500Y-94643655D01*
X79055499Y-94643653D01*
X79050595Y-94618998D01*
X79024737Y-94489003D01*
X79018241Y-94473321D01*
X78964397Y-94343327D01*
X78964390Y-94343314D01*
X78876791Y-94212214D01*
X78876786Y-94212207D01*
X78813232Y-94148653D01*
X80134500Y-94148653D01*
X80134500Y-94306346D01*
X80165261Y-94460989D01*
X80165264Y-94461001D01*
X80225602Y-94606672D01*
X80225609Y-94606685D01*
X80313210Y-94737788D01*
X80313213Y-94737792D01*
X80424707Y-94849286D01*
X80424711Y-94849289D01*
X80555814Y-94936890D01*
X80555827Y-94936897D01*
X80701498Y-94997235D01*
X80701503Y-94997237D01*
X80856153Y-95027999D01*
X80856156Y-95028000D01*
X80856158Y-95028000D01*
X81013844Y-95028000D01*
X81013845Y-95027999D01*
X81168497Y-94997237D01*
X81314179Y-94936894D01*
X81445289Y-94849289D01*
X81556789Y-94737789D01*
X81644394Y-94606679D01*
X81704737Y-94460997D01*
X81735500Y-94306342D01*
X81735500Y-94148658D01*
X81735500Y-94148655D01*
X81735499Y-94148653D01*
X81722393Y-94082764D01*
X81704737Y-93994003D01*
X81700800Y-93984497D01*
X81644397Y-93848327D01*
X81644390Y-93848314D01*
X81556789Y-93717211D01*
X81556786Y-93717207D01*
X81445292Y-93605713D01*
X81445288Y-93605710D01*
X81314185Y-93518109D01*
X81314172Y-93518102D01*
X81168501Y-93457764D01*
X81168489Y-93457761D01*
X81013845Y-93427000D01*
X81013842Y-93427000D01*
X80856158Y-93427000D01*
X80856155Y-93427000D01*
X80701510Y-93457761D01*
X80701498Y-93457764D01*
X80555827Y-93518102D01*
X80555814Y-93518109D01*
X80424711Y-93605710D01*
X80424707Y-93605713D01*
X80313213Y-93717207D01*
X80313210Y-93717211D01*
X80225609Y-93848314D01*
X80225602Y-93848327D01*
X80165264Y-93993998D01*
X80165261Y-93994010D01*
X80134500Y-94148653D01*
X78813232Y-94148653D01*
X78765292Y-94100713D01*
X78765288Y-94100710D01*
X78634185Y-94013109D01*
X78634172Y-94013102D01*
X78488501Y-93952764D01*
X78488489Y-93952761D01*
X78333845Y-93922000D01*
X78333842Y-93922000D01*
X78176158Y-93922000D01*
X78176155Y-93922000D01*
X78021510Y-93952761D01*
X78021498Y-93952764D01*
X77875827Y-94013102D01*
X77875814Y-94013109D01*
X77744711Y-94100710D01*
X77744707Y-94100713D01*
X77633213Y-94212207D01*
X77633210Y-94212211D01*
X77545609Y-94343314D01*
X77545602Y-94343327D01*
X77485264Y-94488998D01*
X77485261Y-94489010D01*
X77454500Y-94643653D01*
X75754029Y-94643653D01*
X75880289Y-94559289D01*
X75880292Y-94559286D01*
X75889694Y-94549885D01*
X75991786Y-94447792D01*
X75991789Y-94447789D01*
X76079394Y-94316679D01*
X76139737Y-94170997D01*
X76170500Y-94016342D01*
X76170500Y-93858658D01*
X76170500Y-93858655D01*
X76170499Y-93858653D01*
X76168442Y-93848314D01*
X76139737Y-93704003D01*
X76139735Y-93703998D01*
X76079397Y-93558327D01*
X76079390Y-93558314D01*
X75991789Y-93427211D01*
X75991786Y-93427207D01*
X75880292Y-93315713D01*
X75880288Y-93315710D01*
X75749185Y-93228109D01*
X75749172Y-93228102D01*
X75603501Y-93167764D01*
X75603489Y-93167761D01*
X75448845Y-93137000D01*
X75448842Y-93137000D01*
X75291158Y-93137000D01*
X75291155Y-93137000D01*
X75136510Y-93167761D01*
X75136498Y-93167764D01*
X74990827Y-93228102D01*
X74990814Y-93228109D01*
X74859711Y-93315710D01*
X74859707Y-93315713D01*
X74748213Y-93427207D01*
X74748210Y-93427211D01*
X74660609Y-93558314D01*
X74660602Y-93558327D01*
X74600264Y-93703998D01*
X74600261Y-93704010D01*
X74569500Y-93858653D01*
X65615500Y-93858653D01*
X65615500Y-92508653D01*
X77939500Y-92508653D01*
X77939500Y-92666346D01*
X77970261Y-92820989D01*
X77970264Y-92821001D01*
X78030602Y-92966672D01*
X78030609Y-92966685D01*
X78118210Y-93097788D01*
X78118213Y-93097792D01*
X78229707Y-93209286D01*
X78229711Y-93209289D01*
X78360814Y-93296890D01*
X78360827Y-93296897D01*
X78506498Y-93357235D01*
X78506503Y-93357237D01*
X78632176Y-93382235D01*
X78661153Y-93387999D01*
X78661156Y-93388000D01*
X78661158Y-93388000D01*
X78818844Y-93388000D01*
X78818845Y-93387999D01*
X78973497Y-93357237D01*
X79119179Y-93296894D01*
X79250289Y-93209289D01*
X79361789Y-93097789D01*
X79449394Y-92966679D01*
X79509737Y-92820997D01*
X79540500Y-92666342D01*
X79540500Y-92533653D01*
X95979500Y-92533653D01*
X95979500Y-92691346D01*
X96010261Y-92845989D01*
X96010264Y-92846001D01*
X96070602Y-92991672D01*
X96070609Y-92991685D01*
X96158210Y-93122788D01*
X96158213Y-93122792D01*
X96269707Y-93234286D01*
X96269711Y-93234289D01*
X96400814Y-93321890D01*
X96400827Y-93321897D01*
X96546498Y-93382235D01*
X96546503Y-93382237D01*
X96701153Y-93412999D01*
X96701156Y-93413000D01*
X96701158Y-93413000D01*
X96858844Y-93413000D01*
X96858845Y-93412999D01*
X97013497Y-93382237D01*
X97159179Y-93321894D01*
X97290289Y-93234289D01*
X97401789Y-93122789D01*
X97489394Y-92991679D01*
X97549737Y-92845997D01*
X97580500Y-92691342D01*
X97580500Y-92533658D01*
X97580500Y-92533655D01*
X97580499Y-92533653D01*
X97575527Y-92508658D01*
X97549737Y-92379003D01*
X97539380Y-92353998D01*
X97489397Y-92233327D01*
X97489390Y-92233314D01*
X97401789Y-92102211D01*
X97401786Y-92102207D01*
X97290292Y-91990713D01*
X97290288Y-91990710D01*
X97159185Y-91903109D01*
X97159172Y-91903102D01*
X97013501Y-91842764D01*
X97013489Y-91842761D01*
X96858845Y-91812000D01*
X96858842Y-91812000D01*
X96701158Y-91812000D01*
X96701155Y-91812000D01*
X96546510Y-91842761D01*
X96546498Y-91842764D01*
X96400827Y-91903102D01*
X96400814Y-91903109D01*
X96269711Y-91990710D01*
X96269707Y-91990713D01*
X96158213Y-92102207D01*
X96158210Y-92102211D01*
X96070609Y-92233314D01*
X96070602Y-92233327D01*
X96010264Y-92378998D01*
X96010261Y-92379010D01*
X95979500Y-92533653D01*
X79540500Y-92533653D01*
X79540500Y-92508658D01*
X79540500Y-92508655D01*
X79540499Y-92508653D01*
X79509738Y-92354010D01*
X79509737Y-92354003D01*
X79459752Y-92233327D01*
X79449397Y-92208327D01*
X79449390Y-92208314D01*
X79361789Y-92077211D01*
X79361786Y-92077207D01*
X79250292Y-91965713D01*
X79250288Y-91965710D01*
X79119185Y-91878109D01*
X79119172Y-91878102D01*
X78973501Y-91817764D01*
X78973489Y-91817761D01*
X78818845Y-91787000D01*
X78818842Y-91787000D01*
X78661158Y-91787000D01*
X78661155Y-91787000D01*
X78506510Y-91817761D01*
X78506498Y-91817764D01*
X78360827Y-91878102D01*
X78360814Y-91878109D01*
X78229711Y-91965710D01*
X78229707Y-91965713D01*
X78118213Y-92077207D01*
X78118210Y-92077211D01*
X78030609Y-92208314D01*
X78030602Y-92208327D01*
X77970264Y-92353998D01*
X77970261Y-92354010D01*
X77939500Y-92508653D01*
X65615500Y-92508653D01*
X65615500Y-84983653D01*
X66784500Y-84983653D01*
X66784500Y-85141346D01*
X66815261Y-85295989D01*
X66815264Y-85296001D01*
X66875602Y-85441672D01*
X66875609Y-85441685D01*
X66963210Y-85572788D01*
X66963213Y-85572792D01*
X67074707Y-85684286D01*
X67074711Y-85684289D01*
X67205814Y-85771890D01*
X67205827Y-85771897D01*
X67351498Y-85832235D01*
X67351503Y-85832237D01*
X67506153Y-85862999D01*
X67506156Y-85863000D01*
X67506158Y-85863000D01*
X67663844Y-85863000D01*
X67663845Y-85862999D01*
X67818497Y-85832237D01*
X67953436Y-85776344D01*
X67964172Y-85771897D01*
X67964172Y-85771896D01*
X67964179Y-85771894D01*
X68095289Y-85684289D01*
X68206789Y-85572789D01*
X68294394Y-85441679D01*
X68295503Y-85439003D01*
X68319532Y-85380989D01*
X68354737Y-85295997D01*
X68385500Y-85141342D01*
X68385500Y-85135729D01*
X68405185Y-85068690D01*
X68405228Y-85068653D01*
X70264500Y-85068653D01*
X70264500Y-85226346D01*
X70295261Y-85380989D01*
X70295264Y-85381001D01*
X70355602Y-85526672D01*
X70355609Y-85526685D01*
X70443210Y-85657788D01*
X70443213Y-85657792D01*
X70554707Y-85769286D01*
X70554711Y-85769289D01*
X70685814Y-85856890D01*
X70685827Y-85856897D01*
X70831498Y-85917235D01*
X70831503Y-85917237D01*
X70986153Y-85947999D01*
X70986156Y-85948000D01*
X70986158Y-85948000D01*
X71143844Y-85948000D01*
X71143845Y-85947999D01*
X71298497Y-85917237D01*
X71444179Y-85856894D01*
X71575289Y-85769289D01*
X71686789Y-85657789D01*
X71774394Y-85526679D01*
X71834737Y-85380997D01*
X71865500Y-85226342D01*
X71865500Y-85108492D01*
X71885185Y-85041453D01*
X71937989Y-84995698D01*
X72007147Y-84985754D01*
X72036950Y-84993930D01*
X72141503Y-85037237D01*
X72255940Y-85060000D01*
X72296153Y-85067999D01*
X72296156Y-85068000D01*
X72296158Y-85068000D01*
X72453844Y-85068000D01*
X72453845Y-85067999D01*
X72608497Y-85037237D01*
X72754179Y-84976894D01*
X72885289Y-84889289D01*
X72996789Y-84777789D01*
X73084394Y-84646679D01*
X73144737Y-84500997D01*
X73175500Y-84346342D01*
X73175500Y-84188658D01*
X73175500Y-84188655D01*
X73175499Y-84188653D01*
X75124716Y-84188653D01*
X75124716Y-84346346D01*
X75155477Y-84500989D01*
X75155480Y-84501001D01*
X75215818Y-84646672D01*
X75215825Y-84646685D01*
X75303426Y-84777788D01*
X75303429Y-84777792D01*
X75414923Y-84889286D01*
X75414927Y-84889289D01*
X75546030Y-84976890D01*
X75546043Y-84976897D01*
X75683040Y-85033642D01*
X75691719Y-85037237D01*
X75806156Y-85060000D01*
X75846369Y-85067999D01*
X75846372Y-85068000D01*
X75846374Y-85068000D01*
X76004060Y-85068000D01*
X76004061Y-85067999D01*
X76158713Y-85037237D01*
X76304395Y-84976894D01*
X76435505Y-84889289D01*
X76547005Y-84777789D01*
X76634610Y-84646679D01*
X76694953Y-84500997D01*
X76725716Y-84346342D01*
X76725716Y-84188658D01*
X76725716Y-84188655D01*
X76725715Y-84188654D01*
X76722732Y-84173658D01*
X76722731Y-84173653D01*
X78678676Y-84173653D01*
X78678676Y-84331346D01*
X78709437Y-84485989D01*
X78709440Y-84486001D01*
X78769778Y-84631672D01*
X78769785Y-84631685D01*
X78857386Y-84762788D01*
X78857389Y-84762792D01*
X78968883Y-84874286D01*
X78968887Y-84874289D01*
X79099990Y-84961890D01*
X79100003Y-84961897D01*
X79223357Y-85012991D01*
X79245679Y-85022237D01*
X79342284Y-85041453D01*
X79400329Y-85052999D01*
X79400332Y-85053000D01*
X79400334Y-85053000D01*
X79558020Y-85053000D01*
X79558021Y-85052999D01*
X79712673Y-85022237D01*
X79858355Y-84961894D01*
X79989465Y-84874289D01*
X80100965Y-84762789D01*
X80188570Y-84631679D01*
X80248913Y-84485997D01*
X80279676Y-84331342D01*
X80279676Y-84173658D01*
X80279676Y-84173655D01*
X80279675Y-84173653D01*
X80248913Y-84019003D01*
X80233315Y-83981346D01*
X80188573Y-83873327D01*
X80188566Y-83873314D01*
X80100965Y-83742211D01*
X80100962Y-83742207D01*
X79989468Y-83630713D01*
X79989464Y-83630710D01*
X79858361Y-83543109D01*
X79858348Y-83543102D01*
X79712677Y-83482764D01*
X79712665Y-83482761D01*
X79558021Y-83452000D01*
X79558018Y-83452000D01*
X79400334Y-83452000D01*
X79400331Y-83452000D01*
X79245686Y-83482761D01*
X79245674Y-83482764D01*
X79100003Y-83543102D01*
X79099990Y-83543109D01*
X78968887Y-83630710D01*
X78968883Y-83630713D01*
X78857389Y-83742207D01*
X78857386Y-83742211D01*
X78769785Y-83873314D01*
X78769778Y-83873327D01*
X78709440Y-84018998D01*
X78709437Y-84019010D01*
X78678676Y-84173653D01*
X76722731Y-84173653D01*
X76694953Y-84034003D01*
X76673140Y-83981342D01*
X76634613Y-83888327D01*
X76634606Y-83888314D01*
X76547005Y-83757211D01*
X76547002Y-83757207D01*
X76435508Y-83645713D01*
X76435504Y-83645710D01*
X76304401Y-83558109D01*
X76304388Y-83558102D01*
X76158717Y-83497764D01*
X76158705Y-83497761D01*
X76004061Y-83467000D01*
X76004058Y-83467000D01*
X75846374Y-83467000D01*
X75846371Y-83467000D01*
X75691726Y-83497761D01*
X75691714Y-83497764D01*
X75546043Y-83558102D01*
X75546030Y-83558109D01*
X75414927Y-83645710D01*
X75414923Y-83645713D01*
X75303429Y-83757207D01*
X75303426Y-83757211D01*
X75215825Y-83888314D01*
X75215818Y-83888327D01*
X75155480Y-84033998D01*
X75155477Y-84034010D01*
X75124716Y-84188653D01*
X73175499Y-84188653D01*
X73165023Y-84135989D01*
X73144737Y-84034003D01*
X73122924Y-83981342D01*
X73084397Y-83888327D01*
X73084390Y-83888314D01*
X72996789Y-83757211D01*
X72996786Y-83757207D01*
X72885292Y-83645713D01*
X72885288Y-83645710D01*
X72754185Y-83558109D01*
X72754172Y-83558102D01*
X72608501Y-83497764D01*
X72608489Y-83497761D01*
X72453845Y-83467000D01*
X72453842Y-83467000D01*
X72296158Y-83467000D01*
X72296155Y-83467000D01*
X72141510Y-83497761D01*
X72141498Y-83497764D01*
X71995827Y-83558102D01*
X71995814Y-83558109D01*
X71864711Y-83645710D01*
X71864707Y-83645713D01*
X71753213Y-83757207D01*
X71753210Y-83757211D01*
X71665609Y-83888314D01*
X71665602Y-83888327D01*
X71605264Y-84033998D01*
X71605261Y-84034010D01*
X71574500Y-84188653D01*
X71574500Y-84306507D01*
X71554815Y-84373546D01*
X71502011Y-84419301D01*
X71432853Y-84429245D01*
X71403048Y-84421069D01*
X71383053Y-84412787D01*
X71298497Y-84377763D01*
X71298492Y-84377762D01*
X71298489Y-84377761D01*
X71143845Y-84347000D01*
X71143842Y-84347000D01*
X70986158Y-84347000D01*
X70986155Y-84347000D01*
X70831510Y-84377761D01*
X70831498Y-84377764D01*
X70685827Y-84438102D01*
X70685814Y-84438109D01*
X70554711Y-84525710D01*
X70554707Y-84525713D01*
X70443213Y-84637207D01*
X70443210Y-84637211D01*
X70355609Y-84768314D01*
X70355602Y-84768327D01*
X70295264Y-84913998D01*
X70295261Y-84914010D01*
X70264500Y-85068653D01*
X68405228Y-85068653D01*
X68457989Y-85022935D01*
X68527147Y-85012991D01*
X68556949Y-85021166D01*
X68595746Y-85037237D01*
X68710183Y-85060000D01*
X68750396Y-85067999D01*
X68750399Y-85068000D01*
X68750401Y-85068000D01*
X68908087Y-85068000D01*
X68908088Y-85067999D01*
X69062740Y-85037237D01*
X69208422Y-84976894D01*
X69208429Y-84976888D01*
X69208433Y-84976887D01*
X69234505Y-84959466D01*
X69234509Y-84959464D01*
X69302552Y-84913998D01*
X69339532Y-84889289D01*
X69451032Y-84777789D01*
X69538637Y-84646679D01*
X69598980Y-84500997D01*
X69629743Y-84346342D01*
X69629743Y-84188658D01*
X69629743Y-84188655D01*
X69629742Y-84188653D01*
X69619266Y-84135989D01*
X69598980Y-84034003D01*
X69577167Y-83981342D01*
X69538640Y-83888327D01*
X69538633Y-83888314D01*
X69451032Y-83757211D01*
X69451029Y-83757207D01*
X69339535Y-83645713D01*
X69339531Y-83645710D01*
X69208428Y-83558109D01*
X69208415Y-83558102D01*
X69062744Y-83497764D01*
X69062732Y-83497761D01*
X68908088Y-83467000D01*
X68908085Y-83467000D01*
X68750401Y-83467000D01*
X68750398Y-83467000D01*
X68595753Y-83497761D01*
X68595741Y-83497764D01*
X68450070Y-83558102D01*
X68450057Y-83558109D01*
X68318954Y-83645710D01*
X68318950Y-83645713D01*
X68207456Y-83757207D01*
X68207453Y-83757211D01*
X68119852Y-83888314D01*
X68119845Y-83888327D01*
X68059507Y-84033998D01*
X68059504Y-84034010D01*
X68028743Y-84188653D01*
X68028743Y-84194270D01*
X68009058Y-84261309D01*
X67956254Y-84307064D01*
X67887096Y-84317008D01*
X67857292Y-84308832D01*
X67841231Y-84302179D01*
X67818497Y-84292763D01*
X67818493Y-84292762D01*
X67818489Y-84292761D01*
X67663845Y-84262000D01*
X67663842Y-84262000D01*
X67506158Y-84262000D01*
X67506155Y-84262000D01*
X67351510Y-84292761D01*
X67351498Y-84292764D01*
X67205827Y-84353102D01*
X67205814Y-84353109D01*
X67074711Y-84440710D01*
X67074707Y-84440713D01*
X66963213Y-84552207D01*
X66963210Y-84552211D01*
X66875609Y-84683314D01*
X66875602Y-84683327D01*
X66815264Y-84828998D01*
X66815261Y-84829010D01*
X66784500Y-84983653D01*
X65615500Y-84983653D01*
X65615500Y-82539454D01*
X73874500Y-82539454D01*
X73874500Y-82697147D01*
X73905261Y-82851790D01*
X73905264Y-82851802D01*
X73965602Y-82997473D01*
X73965609Y-82997486D01*
X74053210Y-83128589D01*
X74053213Y-83128593D01*
X74164707Y-83240087D01*
X74164711Y-83240090D01*
X74295814Y-83327691D01*
X74295827Y-83327698D01*
X74441498Y-83388036D01*
X74441503Y-83388038D01*
X74596153Y-83418800D01*
X74596156Y-83418801D01*
X74596158Y-83418801D01*
X74753844Y-83418801D01*
X74753845Y-83418800D01*
X74908497Y-83388038D01*
X75054179Y-83327695D01*
X75185289Y-83240090D01*
X75296789Y-83128590D01*
X75384394Y-82997480D01*
X75444737Y-82851798D01*
X75475500Y-82697143D01*
X75475500Y-82539459D01*
X75475500Y-82539456D01*
X75456947Y-82446186D01*
X75456947Y-82446185D01*
X75453346Y-82428081D01*
X77429451Y-82428081D01*
X77429451Y-82585774D01*
X77460212Y-82740417D01*
X77460215Y-82740429D01*
X77520553Y-82886100D01*
X77520560Y-82886113D01*
X77608161Y-83017216D01*
X77608164Y-83017220D01*
X77719658Y-83128714D01*
X77719662Y-83128717D01*
X77850765Y-83216318D01*
X77850778Y-83216325D01*
X77995674Y-83276342D01*
X77996454Y-83276665D01*
X78151104Y-83307427D01*
X78151107Y-83307428D01*
X78151109Y-83307428D01*
X78308795Y-83307428D01*
X78308796Y-83307427D01*
X78463448Y-83276665D01*
X78609130Y-83216322D01*
X78740240Y-83128717D01*
X78851740Y-83017217D01*
X78939345Y-82886107D01*
X78999688Y-82740425D01*
X79030451Y-82585770D01*
X79030451Y-82428086D01*
X79030451Y-82428083D01*
X79030450Y-82428081D01*
X79010281Y-82326685D01*
X78999688Y-82273431D01*
X78999686Y-82273426D01*
X78939348Y-82127755D01*
X78939341Y-82127742D01*
X78851740Y-81996639D01*
X78851737Y-81996635D01*
X78740243Y-81885141D01*
X78740239Y-81885138D01*
X78609136Y-81797537D01*
X78609123Y-81797530D01*
X78463452Y-81737192D01*
X78463440Y-81737189D01*
X78308796Y-81706428D01*
X78308793Y-81706428D01*
X78151109Y-81706428D01*
X78151106Y-81706428D01*
X77996461Y-81737189D01*
X77996449Y-81737192D01*
X77850778Y-81797530D01*
X77850765Y-81797537D01*
X77719662Y-81885138D01*
X77719658Y-81885141D01*
X77608164Y-81996635D01*
X77608161Y-81996639D01*
X77520560Y-82127742D01*
X77520553Y-82127755D01*
X77460215Y-82273426D01*
X77460212Y-82273438D01*
X77429451Y-82428081D01*
X75453346Y-82428081D01*
X75444738Y-82384811D01*
X75444737Y-82384804D01*
X75420658Y-82326672D01*
X75384397Y-82239128D01*
X75384390Y-82239115D01*
X75296789Y-82108012D01*
X75296786Y-82108008D01*
X75185292Y-81996514D01*
X75185288Y-81996511D01*
X75054185Y-81908910D01*
X75054172Y-81908903D01*
X74908501Y-81848565D01*
X74908489Y-81848562D01*
X74753845Y-81817801D01*
X74753842Y-81817801D01*
X74596158Y-81817801D01*
X74596155Y-81817801D01*
X74441510Y-81848562D01*
X74441498Y-81848565D01*
X74295827Y-81908903D01*
X74295814Y-81908910D01*
X74164711Y-81996511D01*
X74164707Y-81996514D01*
X74053213Y-82108008D01*
X74053210Y-82108012D01*
X73965609Y-82239115D01*
X73965602Y-82239128D01*
X73905264Y-82384799D01*
X73905261Y-82384811D01*
X73874500Y-82539454D01*
X65615500Y-82539454D01*
X65615500Y-81323653D01*
X75784500Y-81323653D01*
X75784500Y-81481346D01*
X75815261Y-81635989D01*
X75815264Y-81636001D01*
X75875602Y-81781672D01*
X75875609Y-81781685D01*
X75963210Y-81912788D01*
X75963213Y-81912792D01*
X76074707Y-82024286D01*
X76074711Y-82024289D01*
X76205814Y-82111890D01*
X76205827Y-82111897D01*
X76351498Y-82172235D01*
X76351503Y-82172237D01*
X76506153Y-82202999D01*
X76506156Y-82203000D01*
X76506158Y-82203000D01*
X76663844Y-82203000D01*
X76663845Y-82202999D01*
X76818497Y-82172237D01*
X76964179Y-82111894D01*
X77095289Y-82024289D01*
X77206789Y-81912789D01*
X77294394Y-81781679D01*
X77354737Y-81635997D01*
X77385500Y-81481342D01*
X77385500Y-81323658D01*
X77385500Y-81323655D01*
X77385499Y-81323653D01*
X77376650Y-81279166D01*
X77354737Y-81169003D01*
X77316498Y-81076685D01*
X77294397Y-81023327D01*
X77294390Y-81023314D01*
X77206789Y-80892211D01*
X77206786Y-80892207D01*
X77095292Y-80780713D01*
X77095288Y-80780710D01*
X76964185Y-80693109D01*
X76964172Y-80693102D01*
X76818501Y-80632764D01*
X76818489Y-80632761D01*
X76663845Y-80602000D01*
X76663842Y-80602000D01*
X76506158Y-80602000D01*
X76506155Y-80602000D01*
X76351510Y-80632761D01*
X76351498Y-80632764D01*
X76205827Y-80693102D01*
X76205814Y-80693109D01*
X76074711Y-80780710D01*
X76074707Y-80780713D01*
X75963213Y-80892207D01*
X75963210Y-80892211D01*
X75875609Y-81023314D01*
X75875602Y-81023327D01*
X75815264Y-81168998D01*
X75815261Y-81169010D01*
X75784500Y-81323653D01*
X65615500Y-81323653D01*
X65615500Y-79353592D01*
X65616097Y-79341439D01*
X65620998Y-79291679D01*
X65629665Y-79203671D01*
X65634403Y-79179849D01*
X65672816Y-79053219D01*
X65682113Y-79030778D01*
X65744485Y-78914087D01*
X65757982Y-78893887D01*
X65841924Y-78791603D01*
X65859103Y-78774424D01*
X65961387Y-78690482D01*
X65981587Y-78676985D01*
X66098278Y-78614613D01*
X66120719Y-78605316D01*
X66247349Y-78566903D01*
X66271173Y-78562165D01*
X66400170Y-78549460D01*
X66408939Y-78548597D01*
X66421092Y-78548000D01*
X66454882Y-78548000D01*
X81915227Y-78548000D01*
X81982266Y-78567685D01*
G37*
%TD.AperFunction*%
%TD*%
M02*
