M48
; DRILL file {KiCad 9.0.3} date 2026-06-21T23:04:54+0530
; FORMAT={-:-/ absolute / metric / decimal}
; #@! TF.CreationDate,2026-06-21T23:04:54+05:30
; #@! TF.GenerationSoftware,Kicad,Pcbnew,9.0.3
; #@! TF.FileFunction,MixedPlating,1,4
FMAT,2
METRIC
; #@! TA.AperFunction,Plated,PTH,ViaDrill
T1C0.300
; #@! TA.AperFunction,Plated,PTH,ComponentDrill
T2C0.600
; #@! TA.AperFunction,NonPlated,NPTH,ComponentDrill
T3C0.650
%
G90
G05
T1
X55.205Y-104.395
X55.48Y-98.79
X56.07Y-83.405
X56.165Y-105.715
X56.72Y-87.815
X57.05Y-107.67
X57.346Y-87.83
X57.425Y-96.675
X57.85Y-107.59
X57.964Y-87.02
X58.5Y-103.76
X59.112Y-101.942
X59.605Y-83.365
X60.205Y-87.315
X60.245Y-99.55
X60.705Y-86.035
X61.387Y-101.942
X61.5Y-103.76
X61.51Y-87.02
X62.64Y-107.61
X62.915Y-100.32
X62.915Y-101.28
X63.16Y-83.38
X63.45Y-107.62
X64.105Y-85.405
X64.505Y-96.69
X65.06Y-87.02
X65.135Y-101.24
X65.72Y-84.155
X65.965Y-96.71
X66.085Y-101.225
X66.1Y-111.14
X66.11Y-112.12
X66.13Y-114.43
X66.71Y-83.4
X66.965Y-101.245
X67.36Y-105.36
X67.39Y-97.475
X67.57Y-99.36
X67.93Y-107.835
X67.964Y-105.938
X67.98Y-112.1
X68.06Y-96.815
X68.08Y-101.2
X68.255Y-106.575
X68.404Y-104.92
X68.614Y-87.005
X68.81Y-104.35
X69.19Y-107.785
X69.385Y-109.78
X70.015Y-84.745
X70.085Y-97.655
X70.471Y-98.8
X71.63Y-108.285
X71.945Y-81.665
X71.945Y-90.399
X71.95Y-89.15
X71.95Y-89.15
X71.955Y-84.16
X71.97Y-87.9
X71.99Y-86.655
X71.995Y-85.41
X72.1Y-107.65
X72.13Y-108.97
X72.6Y-102.295
X72.674Y-109.411
X72.87Y-82.2
X72.87Y-83.45
X72.87Y-84.7
X72.87Y-85.95
X72.87Y-87.2
X72.87Y-88.45
X72.87Y-89.7
X72.89Y-90.95
X73.09Y-101.575
X73.575Y-103.875
X73.59Y-100.79
X74.095Y-100.095
X74.59Y-99.2
X74.59Y-99.205
X74.97Y-82.2
X74.97Y-83.45
X74.97Y-84.7
X74.97Y-85.95
X74.97Y-87.2
X74.97Y-88.45
X74.97Y-89.7
X74.975Y-90.95
X75.085Y-99.975
X76.12Y-103.465
X76.185Y-101.525
X76.925Y-96.325
X77.07Y-82.2
X77.07Y-83.45
X77.07Y-84.7
X77.07Y-85.95
X77.07Y-87.2
X77.07Y-88.425
X77.07Y-89.7
X77.07Y-89.7
X77.075Y-90.95
X77.15Y-101.565
X77.3Y-103.355
X77.73Y-97.945
X78.42Y-113.505
X78.425Y-108.091
X78.7Y-96.4
X79.16Y-90.95
X79.17Y-82.2
X79.17Y-83.45
X79.17Y-84.7
X79.17Y-85.95
X79.17Y-87.2
X79.17Y-88.45
X79.17Y-89.7
X80.235Y-104.375
X80.4Y-112.85
X80.51Y-102.395
X80.535Y-97.605
X81.13Y-104.365
X81.27Y-82.2
X81.27Y-83.45
X81.27Y-84.7
X81.27Y-85.95
X81.27Y-87.2
X81.27Y-88.45
X81.27Y-89.7
X81.275Y-90.95
X81.485Y-100.31
X82.408Y-102.339
X83.35Y-85.95
X83.355Y-87.2
X83.355Y-88.45
X83.36Y-90.92
X83.37Y-82.2
X83.37Y-83.45
X83.37Y-84.7
X83.37Y-89.7
X83.925Y-114.725
X85.46Y-82.2
X85.46Y-90.95
X85.47Y-83.45
X85.47Y-84.7
X85.47Y-85.95
X85.47Y-87.2
X85.47Y-88.45
X85.47Y-89.7
X85.536Y-106.735
X85.542Y-99.588
X85.542Y-103.176
X85.555Y-96.02
X86.04Y-102.23
X86.095Y-95.065
X86.225Y-93.4
X86.33Y-98.64
X86.33Y-105.79
X86.875Y-92.95
X87.545Y-82.2
X87.545Y-83.45
X87.545Y-84.7
X87.545Y-85.95
X87.545Y-87.2
X87.555Y-88.45
X87.56Y-89.7
X87.56Y-90.95
X87.8Y-92.45
X88.435Y-91.885
X88.625Y-106.73
X88.84Y-103.175
X89.025Y-96.625
X89.05Y-99.58
T3
X57.36Y-110.895
X63.14Y-110.895
T2
G00X55.93Y-110.945
M15
G01X55.93Y-109.845
M16
G05
G00X55.93Y-114.875
M15
G01X55.93Y-114.275
M16
G05
G00X64.57Y-110.945
M15
G01X64.57Y-109.845
M16
G05
G00X64.57Y-114.875
M15
G01X64.57Y-114.275
M16
G05
M30
