%TF.GenerationSoftware,KiCad,Pcbnew,9.0.3*%
%TF.CreationDate,2026-06-30T21:05:37+05:30*%
%TF.ProjectId,Elo_112,456c6f5f-3131-4322-9e6b-696361645f70,rev?*%
%TF.SameCoordinates,Original*%
%TF.FileFunction,Paste,Top*%
%TF.FilePolarity,Positive*%
%FSLAX46Y46*%
G04 Gerber Fmt 4.6, Leading zero omitted, Abs format (unit mm)*
G04 Created by KiCad (PCBNEW 9.0.3) date 2026-06-30 21:05:37*
%MOMM*%
%LPD*%
G01*
G04 APERTURE LIST*
G04 Aperture macros list*
%AMRoundRect*
0 Rectangle with rounded corners*
0 $1 Rounding radius*
0 $2 $3 $4 $5 $6 $7 $8 $9 X,Y pos of 4 corners*
0 Add a 4 corners polygon primitive as box body*
4,1,4,$2,$3,$4,$5,$6,$7,$8,$9,$2,$3,0*
0 Add four circle primitives for the rounded corners*
1,1,$1+$1,$2,$3*
1,1,$1+$1,$4,$5*
1,1,$1+$1,$6,$7*
1,1,$1+$1,$8,$9*
0 Add four rect primitives between the rounded corners*
20,1,$1+$1,$2,$3,$4,$5,0*
20,1,$1+$1,$4,$5,$6,$7,0*
20,1,$1+$1,$6,$7,$8,$9,0*
20,1,$1+$1,$8,$9,$2,$3,0*%
G04 Aperture macros list end*
%ADD10RoundRect,0.135000X-0.135000X-0.185000X0.135000X-0.185000X0.135000X0.185000X-0.135000X0.185000X0*%
%ADD11RoundRect,0.140000X-0.140000X-0.170000X0.140000X-0.170000X0.140000X0.170000X-0.140000X0.170000X0*%
%ADD12RoundRect,0.150000X-0.587500X-0.150000X0.587500X-0.150000X0.587500X0.150000X-0.587500X0.150000X0*%
%ADD13R,1.397000X0.863600*%
%ADD14RoundRect,0.147500X0.147500X0.172500X-0.147500X0.172500X-0.147500X-0.172500X0.147500X-0.172500X0*%
%ADD15RoundRect,0.135000X-0.185000X0.135000X-0.185000X-0.135000X0.185000X-0.135000X0.185000X0.135000X0*%
%ADD16RoundRect,0.075000X-0.175000X-0.075000X0.175000X-0.075000X0.175000X0.075000X-0.175000X0.075000X0*%
%ADD17RoundRect,0.140000X0.170000X-0.140000X0.170000X0.140000X-0.170000X0.140000X-0.170000X-0.140000X0*%
%ADD18RoundRect,0.140000X-0.170000X0.140000X-0.170000X-0.140000X0.170000X-0.140000X0.170000X0.140000X0*%
%ADD19RoundRect,0.140000X0.140000X0.170000X-0.140000X0.170000X-0.140000X-0.170000X0.140000X-0.170000X0*%
%ADD20RoundRect,0.225000X0.225000X0.375000X-0.225000X0.375000X-0.225000X-0.375000X0.225000X-0.375000X0*%
%ADD21R,1.020000X0.950000*%
%ADD22RoundRect,0.150000X0.150000X-0.587500X0.150000X0.587500X-0.150000X0.587500X-0.150000X-0.587500X0*%
%ADD23RoundRect,0.135000X0.185000X-0.135000X0.185000X0.135000X-0.185000X0.135000X-0.185000X-0.135000X0*%
%ADD24RoundRect,0.150000X0.512500X0.150000X-0.512500X0.150000X-0.512500X-0.150000X0.512500X-0.150000X0*%
G04 APERTURE END LIST*
D10*
%TO.C,R7*%
X76185000Y-86392500D03*
X77205000Y-86392500D03*
%TD*%
D11*
%TO.C,C9*%
X88595000Y-95192500D03*
X89555000Y-95192500D03*
%TD*%
D12*
%TO.C,Q5*%
X97467500Y-100502500D03*
X97467500Y-102402500D03*
X99342500Y-101452500D03*
%TD*%
D13*
%TO.C,FB1*%
X71975000Y-103883000D03*
X71975000Y-102232000D03*
%TD*%
D14*
%TO.C,D26*%
X93105000Y-86947500D03*
X92135000Y-86947500D03*
%TD*%
D15*
%TO.C,R12*%
X81455000Y-90852500D03*
X81455000Y-91872500D03*
%TD*%
D12*
%TO.C,Q7*%
X97462500Y-103905000D03*
X97462500Y-105805000D03*
X99337500Y-104855000D03*
%TD*%
D14*
%TO.C,D19*%
X95190000Y-85697500D03*
X94220000Y-85697500D03*
%TD*%
D10*
%TO.C,R8*%
X73840000Y-85902500D03*
X74860000Y-85902500D03*
%TD*%
D14*
%TO.C,D50*%
X86805000Y-86947500D03*
X85835000Y-86947500D03*
%TD*%
D16*
%TO.C,D68*%
X91005000Y-100392500D03*
X92005000Y-100392500D03*
%TD*%
D14*
%TO.C,D59*%
X84705000Y-85697500D03*
X83735000Y-85697500D03*
%TD*%
%TO.C,D2*%
X99395000Y-86947500D03*
X98425000Y-86947500D03*
%TD*%
D17*
%TO.C,C41*%
X68290000Y-98237500D03*
X68290000Y-97277500D03*
%TD*%
D14*
%TO.C,D60*%
X84705000Y-84447500D03*
X83735000Y-84447500D03*
%TD*%
%TO.C,D63*%
X84705000Y-80697500D03*
X83735000Y-80697500D03*
%TD*%
%TO.C,D22*%
X95205000Y-81947500D03*
X94235000Y-81947500D03*
%TD*%
D16*
%TO.C,D66*%
X86945000Y-96642500D03*
X87945000Y-96642500D03*
%TD*%
D11*
%TO.C,C18*%
X87055000Y-97707500D03*
X88015000Y-97707500D03*
%TD*%
D18*
%TO.C,C3*%
X76390000Y-96607500D03*
X76390000Y-97567500D03*
%TD*%
D19*
%TO.C,C7*%
X87945000Y-101632500D03*
X86985000Y-101632500D03*
%TD*%
D14*
%TO.C,D38*%
X91005000Y-81947500D03*
X90035000Y-81947500D03*
%TD*%
%TO.C,D13*%
X97305000Y-83197500D03*
X96335000Y-83197500D03*
%TD*%
D17*
%TO.C,C10*%
X73780000Y-98527500D03*
X73780000Y-97567500D03*
%TD*%
D15*
%TO.C,R6*%
X78740000Y-88437500D03*
X78740000Y-89457500D03*
%TD*%
D14*
%TO.C,D5*%
X99380000Y-83197500D03*
X98410000Y-83197500D03*
%TD*%
D17*
%TO.C,C23*%
X78845000Y-109347500D03*
X78845000Y-108387500D03*
%TD*%
D20*
%TO.C,D65*%
X77045000Y-103107500D03*
X73745000Y-103107500D03*
%TD*%
D14*
%TO.C,D40*%
X91005000Y-79447500D03*
X90035000Y-79447500D03*
%TD*%
%TO.C,D56*%
X86805000Y-79447500D03*
X85835000Y-79447500D03*
%TD*%
D21*
%TO.C,F1*%
X69995000Y-102252500D03*
X69995000Y-103822500D03*
%TD*%
D12*
%TO.C,Q3*%
X97472500Y-97090000D03*
X97472500Y-98990000D03*
X99347500Y-98040000D03*
%TD*%
D17*
%TO.C,C22*%
X78795000Y-107027500D03*
X78795000Y-106067500D03*
%TD*%
D14*
%TO.C,D9*%
X97295000Y-88197500D03*
X96325000Y-88197500D03*
%TD*%
%TO.C,D33*%
X90995000Y-88197500D03*
X90025000Y-88197500D03*
%TD*%
%TO.C,D39*%
X91005000Y-80697500D03*
X90035000Y-80697500D03*
%TD*%
%TO.C,D42*%
X88905000Y-86947500D03*
X87935000Y-86947500D03*
%TD*%
D19*
%TO.C,C6*%
X88015000Y-99667500D03*
X87055000Y-99667500D03*
%TD*%
D14*
%TO.C,D30*%
X93105000Y-81947500D03*
X92135000Y-81947500D03*
%TD*%
%TO.C,D37*%
X91005000Y-83197500D03*
X90035000Y-83197500D03*
%TD*%
%TO.C,D47*%
X88905000Y-80697500D03*
X87935000Y-80697500D03*
%TD*%
%TO.C,D41*%
X88910000Y-88197500D03*
X87940000Y-88197500D03*
%TD*%
%TO.C,D6*%
X99380000Y-81947500D03*
X98410000Y-81947500D03*
%TD*%
D22*
%TO.C,Q14*%
X70470000Y-83130000D03*
X72370000Y-83130000D03*
X71420000Y-81255000D03*
%TD*%
D15*
%TO.C,R11*%
X80935000Y-88447500D03*
X80935000Y-89467500D03*
%TD*%
D14*
%TO.C,D34*%
X91005000Y-86947500D03*
X90035000Y-86947500D03*
%TD*%
%TO.C,D12*%
X97305000Y-84447500D03*
X96335000Y-84447500D03*
%TD*%
%TO.C,D52*%
X86805000Y-84447500D03*
X85835000Y-84447500D03*
%TD*%
%TO.C,D17*%
X95195000Y-88167500D03*
X94225000Y-88167500D03*
%TD*%
%TO.C,D45*%
X88905000Y-83197500D03*
X87935000Y-83197500D03*
%TD*%
%TO.C,D44*%
X88905000Y-84447500D03*
X87935000Y-84447500D03*
%TD*%
%TO.C,D14*%
X97305000Y-81947500D03*
X96335000Y-81947500D03*
%TD*%
D10*
%TO.C,R9*%
X74055000Y-84867500D03*
X75075000Y-84867500D03*
%TD*%
D14*
%TO.C,D21*%
X95185000Y-83197500D03*
X94215000Y-83197500D03*
%TD*%
%TO.C,D51*%
X86805000Y-85697500D03*
X85835000Y-85697500D03*
%TD*%
D18*
%TO.C,C4*%
X75370000Y-96607500D03*
X75370000Y-97567500D03*
%TD*%
D14*
%TO.C,D29*%
X93105000Y-83197500D03*
X92135000Y-83197500D03*
%TD*%
D18*
%TO.C,C2*%
X77410000Y-96602500D03*
X77410000Y-97562500D03*
%TD*%
D14*
%TO.C,D58*%
X84705000Y-86947500D03*
X83735000Y-86947500D03*
%TD*%
D11*
%TO.C,C11*%
X91025000Y-98657500D03*
X91985000Y-98657500D03*
%TD*%
D23*
%TO.C,R3*%
X85970000Y-100072500D03*
X85970000Y-99052500D03*
%TD*%
D14*
%TO.C,D23*%
X95205000Y-80697500D03*
X94235000Y-80697500D03*
%TD*%
D15*
%TO.C,R10*%
X80680000Y-95727500D03*
X80680000Y-96747500D03*
%TD*%
D14*
%TO.C,D35*%
X91005000Y-85697500D03*
X90035000Y-85697500D03*
%TD*%
D22*
%TO.C,Q12*%
X74020000Y-83130000D03*
X75920000Y-83130000D03*
X74970000Y-81255000D03*
%TD*%
D14*
%TO.C,D32*%
X93105000Y-79447500D03*
X92135000Y-79447500D03*
%TD*%
%TO.C,D31*%
X93105000Y-80697500D03*
X92135000Y-80697500D03*
%TD*%
%TO.C,D55*%
X86805000Y-80697500D03*
X85835000Y-80697500D03*
%TD*%
%TO.C,D8*%
X99380000Y-79447500D03*
X98410000Y-79447500D03*
%TD*%
%TO.C,D24*%
X95205000Y-79447500D03*
X94235000Y-79447500D03*
%TD*%
D12*
%TO.C,Q1*%
X97472500Y-93677500D03*
X97472500Y-95577500D03*
X99347500Y-94627500D03*
%TD*%
D14*
%TO.C,D15*%
X97305000Y-80697500D03*
X96335000Y-80697500D03*
%TD*%
%TO.C,D61*%
X84705000Y-83197500D03*
X83735000Y-83197500D03*
%TD*%
%TO.C,D28*%
X93105000Y-84447500D03*
X92135000Y-84447500D03*
%TD*%
%TO.C,D10*%
X97305000Y-86947500D03*
X96335000Y-86947500D03*
%TD*%
%TO.C,D11*%
X97305000Y-85697500D03*
X96335000Y-85697500D03*
%TD*%
%TO.C,D25*%
X93110000Y-88197500D03*
X92140000Y-88197500D03*
%TD*%
%TO.C,D4*%
X99380000Y-84447500D03*
X98410000Y-84447500D03*
%TD*%
%TO.C,D18*%
X95205000Y-86947500D03*
X94235000Y-86947500D03*
%TD*%
%TO.C,D36*%
X91005000Y-84447500D03*
X90035000Y-84447500D03*
%TD*%
%TO.C,D57*%
X84725000Y-88197500D03*
X83755000Y-88197500D03*
%TD*%
%TO.C,D16*%
X97295000Y-79447500D03*
X96325000Y-79447500D03*
%TD*%
%TO.C,D49*%
X86810000Y-88197500D03*
X85840000Y-88197500D03*
%TD*%
%TO.C,D64*%
X84705000Y-79447500D03*
X83735000Y-79447500D03*
%TD*%
%TO.C,D3*%
X99390000Y-85697500D03*
X98420000Y-85697500D03*
%TD*%
%TO.C,D53*%
X86805000Y-83197500D03*
X85835000Y-83197500D03*
%TD*%
D23*
%TO.C,R4*%
X84905000Y-100052500D03*
X84905000Y-99032500D03*
%TD*%
D14*
%TO.C,D48*%
X88905000Y-79447500D03*
X87935000Y-79447500D03*
%TD*%
D24*
%TO.C,U6*%
X72252500Y-99190000D03*
X72252500Y-98240000D03*
X72252500Y-97290000D03*
X69977500Y-97290000D03*
X69977500Y-98240000D03*
X69977500Y-99190000D03*
%TD*%
D14*
%TO.C,D27*%
X93105000Y-85697500D03*
X92135000Y-85697500D03*
%TD*%
%TO.C,D46*%
X88905000Y-81947500D03*
X87935000Y-81947500D03*
%TD*%
%TO.C,D7*%
X99380000Y-80697500D03*
X98410000Y-80697500D03*
%TD*%
%TO.C,D54*%
X86805000Y-81947500D03*
X85835000Y-81947500D03*
%TD*%
D15*
%TO.C,R5*%
X78240000Y-90962500D03*
X78240000Y-91982500D03*
%TD*%
D22*
%TO.C,Q16*%
X66932500Y-83130000D03*
X68832500Y-83130000D03*
X67882500Y-81255000D03*
%TD*%
D14*
%TO.C,D43*%
X88905000Y-85672500D03*
X87935000Y-85672500D03*
%TD*%
%TO.C,D20*%
X95190000Y-84447500D03*
X94220000Y-84447500D03*
%TD*%
%TO.C,D1*%
X99395000Y-88197500D03*
X98425000Y-88197500D03*
%TD*%
%TO.C,D62*%
X84705000Y-81947500D03*
X83735000Y-81947500D03*
%TD*%
D22*
%TO.C,Q10*%
X77580000Y-83115000D03*
X79480000Y-83115000D03*
X78530000Y-81240000D03*
%TD*%
M02*
