%TF.GenerationSoftware,KiCad,Pcbnew,9.0.3*%
%TF.CreationDate,2026-06-24T13:13:46+05:30*%
%TF.ProjectId,Elo_112,456c6f5f-3131-4322-9e6b-696361645f70,rev?*%
%TF.SameCoordinates,Original*%
%TF.FileFunction,Copper,L4,Bot*%
%TF.FilePolarity,Positive*%
%FSLAX46Y46*%
G04 Gerber Fmt 4.6, Leading zero omitted, Abs format (unit mm)*
G04 Created by KiCad (PCBNEW 9.0.3) date 2026-06-24 13:13:46*
%MOMM*%
%LPD*%
G01*
G04 APERTURE LIST*
G04 Aperture macros list*
%AMRoundRect*
0 Rectangle with rounded corners*
0 $1 Rounding radius*
0 $2 $3 $4 $5 $6 $7 $8 $9 X,Y pos of 4 corners*
0 Add a 4 corners polygon primitive as box body*
4,1,4,$2,$3,$4,$5,$6,$7,$8,$9,$2,$3,0*
0 Add four circle primitives for the rounded corners*
1,1,$1+$1,$2,$3*
1,1,$1+$1,$4,$5*
1,1,$1+$1,$6,$7*
1,1,$1+$1,$8,$9*
0 Add four rect primitives between the rounded corners*
20,1,$1+$1,$2,$3,$4,$5,0*
20,1,$1+$1,$4,$5,$6,$7,0*
20,1,$1+$1,$6,$7,$8,$9,0*
20,1,$1+$1,$8,$9,$2,$3,0*%
G04 Aperture macros list end*
%TA.AperFunction,HeatsinkPad*%
%ADD10O,1.000000X2.100000*%
%TD*%
%TA.AperFunction,HeatsinkPad*%
%ADD11O,1.000000X1.600000*%
%TD*%
%TA.AperFunction,SMDPad,CuDef*%
%ADD12RoundRect,0.150000X0.150000X0.500000X-0.150000X0.500000X-0.150000X-0.500000X0.150000X-0.500000X0*%
%TD*%
%TA.AperFunction,SMDPad,CuDef*%
%ADD13RoundRect,0.075000X0.075000X0.575000X-0.075000X0.575000X-0.075000X-0.575000X0.075000X-0.575000X0*%
%TD*%
%TA.AperFunction,SMDPad,CuDef*%
%ADD14RoundRect,0.150000X-0.587500X-0.150000X0.587500X-0.150000X0.587500X0.150000X-0.587500X0.150000X0*%
%TD*%
%TA.AperFunction,SMDPad,CuDef*%
%ADD15RoundRect,0.135000X0.185000X-0.135000X0.185000X0.135000X-0.185000X0.135000X-0.185000X-0.135000X0*%
%TD*%
%TA.AperFunction,SMDPad,CuDef*%
%ADD16RoundRect,0.250000X0.300000X-0.400000X0.300000X0.400000X-0.300000X0.400000X-0.300000X-0.400000X0*%
%TD*%
%TA.AperFunction,SMDPad,CuDef*%
%ADD17RoundRect,0.150000X0.150000X-0.587500X0.150000X0.587500X-0.150000X0.587500X-0.150000X-0.587500X0*%
%TD*%
%TA.AperFunction,SMDPad,CuDef*%
%ADD18RoundRect,0.140000X0.140000X0.170000X-0.140000X0.170000X-0.140000X-0.170000X0.140000X-0.170000X0*%
%TD*%
%TA.AperFunction,SMDPad,CuDef*%
%ADD19RoundRect,0.075000X0.662500X0.075000X-0.662500X0.075000X-0.662500X-0.075000X0.662500X-0.075000X0*%
%TD*%
%TA.AperFunction,SMDPad,CuDef*%
%ADD20RoundRect,0.075000X0.075000X0.662500X-0.075000X0.662500X-0.075000X-0.662500X0.075000X-0.662500X0*%
%TD*%
%TA.AperFunction,SMDPad,CuDef*%
%ADD21R,1.524000X0.508000*%
%TD*%
%TA.AperFunction,SMDPad,CuDef*%
%ADD22RoundRect,0.135000X-0.135000X-0.185000X0.135000X-0.185000X0.135000X0.185000X-0.135000X0.185000X0*%
%TD*%
%TA.AperFunction,SMDPad,CuDef*%
%ADD23RoundRect,0.243750X0.243750X0.456250X-0.243750X0.456250X-0.243750X-0.456250X0.243750X-0.456250X0*%
%TD*%
%TA.AperFunction,SMDPad,CuDef*%
%ADD24RoundRect,0.140000X-0.140000X-0.170000X0.140000X-0.170000X0.140000X0.170000X-0.140000X0.170000X0*%
%TD*%
%TA.AperFunction,SMDPad,CuDef*%
%ADD25RoundRect,0.140000X-0.170000X0.140000X-0.170000X-0.140000X0.170000X-0.140000X0.170000X0.140000X0*%
%TD*%
%TA.AperFunction,SMDPad,CuDef*%
%ADD26RoundRect,0.250000X-0.300000X0.400000X-0.300000X-0.400000X0.300000X-0.400000X0.300000X0.400000X0*%
%TD*%
%TA.AperFunction,SMDPad,CuDef*%
%ADD27RoundRect,0.150000X0.150000X-0.825000X0.150000X0.825000X-0.150000X0.825000X-0.150000X-0.825000X0*%
%TD*%
%TA.AperFunction,SMDPad,CuDef*%
%ADD28R,1.450000X0.900001*%
%TD*%
%TA.AperFunction,SMDPad,CuDef*%
%ADD29R,1.450000X3.149999*%
%TD*%
%TA.AperFunction,ViaPad*%
%ADD30C,0.600000*%
%TD*%
%TA.AperFunction,Conductor*%
%ADD31C,0.200000*%
%TD*%
%TA.AperFunction,Conductor*%
%ADD32C,0.400000*%
%TD*%
%TA.AperFunction,Conductor*%
%ADD33C,0.500000*%
%TD*%
%TA.AperFunction,Conductor*%
%ADD34C,0.300000*%
%TD*%
G04 APERTURE END LIST*
D10*
%TO.P,J1,S1,SHIELD*%
%TO.N,GND*%
X66795000Y-107642500D03*
D11*
X66795000Y-111822500D03*
D10*
X75435000Y-107642500D03*
D11*
X75435000Y-111822500D03*
D12*
%TO.P,J1,B12,GND*%
X74315000Y-107002500D03*
%TO.P,J1,B9,VBUS*%
%TO.N,Net-(F1-Pad2)*%
X73515000Y-107002500D03*
D13*
%TO.P,J1,B8,SBU2*%
%TO.N,unconnected-(J1-SBU2-PadB8)*%
X72865000Y-107002500D03*
%TO.P,J1,B7,D-*%
%TO.N,/D_1_C-*%
X71865000Y-107002500D03*
%TO.P,J1,B6,D+*%
%TO.N,/D_1_C+*%
X70365000Y-107002500D03*
%TO.P,J1,B5,CC2*%
%TO.N,/CC2_2*%
X69365000Y-107002500D03*
D12*
%TO.P,J1,B4,VBUS*%
%TO.N,Net-(F1-Pad2)*%
X68715000Y-107002500D03*
%TO.P,J1,B1,GND*%
%TO.N,GND*%
X67915000Y-107002500D03*
%TO.P,J1,A12,GND*%
X67915000Y-107002500D03*
%TO.P,J1,A9,VBUS*%
%TO.N,Net-(F1-Pad2)*%
X68715000Y-107002500D03*
D13*
%TO.P,J1,A8,SBU1*%
%TO.N,unconnected-(J1-SBU1-PadA8)*%
X69865000Y-107002500D03*
%TO.P,J1,A7,D-*%
%TO.N,/D_1_C-*%
X70865000Y-107002500D03*
%TO.P,J1,A6,D+*%
%TO.N,/D_1_C+*%
X71365000Y-107002500D03*
%TO.P,J1,A5,CC1*%
%TO.N,/CC2_1*%
X72365000Y-107002500D03*
D12*
%TO.P,J1,A4,VBUS*%
%TO.N,Net-(F1-Pad2)*%
X73515000Y-107002500D03*
%TO.P,J1,A1,GND*%
%TO.N,GND*%
X74315000Y-107002500D03*
%TD*%
D14*
%TO.P,Q6,1,C*%
%TO.N,/P_6*%
X97467500Y-102402500D03*
%TO.P,Q6,2,B*%
%TO.N,+3V3*%
X97467500Y-100502500D03*
%TO.P,Q6,3,E*%
%TO.N,Net-(Q6-E)*%
X99342500Y-101452500D03*
%TD*%
%TO.P,Q4,1,C*%
%TO.N,/P_4*%
X97472500Y-98992500D03*
%TO.P,Q4,2,B*%
%TO.N,+3V3*%
X97472500Y-97092500D03*
%TO.P,Q4,3,E*%
%TO.N,Net-(Q4-E)*%
X99347500Y-98042500D03*
%TD*%
%TO.P,Q2,1,C*%
%TO.N,/P_2*%
X97472500Y-95580000D03*
%TO.P,Q2,2,B*%
%TO.N,+3V3*%
X97472500Y-93680000D03*
%TO.P,Q2,3,E*%
%TO.N,Net-(Q2-E)*%
X99347500Y-94630000D03*
%TD*%
D15*
%TO.P,R20,1*%
%TO.N,Net-(Q1-E)*%
X98435000Y-89227500D03*
%TO.P,R20,2*%
%TO.N,Net-(D1-A)*%
X98435000Y-88207500D03*
%TD*%
%TO.P,R19,1*%
%TO.N,Net-(Q2-E)*%
X96320000Y-89237500D03*
%TO.P,R19,2*%
%TO.N,Net-(D10-A)*%
X96320000Y-88217500D03*
%TD*%
%TO.P,R18,1*%
%TO.N,Net-(Q3-E)*%
X94230000Y-89227500D03*
%TO.P,R18,2*%
%TO.N,Net-(D17-A)*%
X94230000Y-88207500D03*
%TD*%
%TO.P,R17,1*%
%TO.N,Net-(Q4-E)*%
X92130000Y-89227500D03*
%TO.P,R17,2*%
%TO.N,Net-(D25-A)*%
X92130000Y-88207500D03*
%TD*%
%TO.P,R16,1*%
%TO.N,Net-(Q5-E)*%
X90020000Y-89257500D03*
%TO.P,R16,2*%
%TO.N,Net-(D33-A)*%
X90020000Y-88237500D03*
%TD*%
%TO.P,R15,1*%
%TO.N,Net-(Q6-E)*%
X87935000Y-89257500D03*
%TO.P,R15,2*%
%TO.N,Net-(D41-A)*%
X87935000Y-88237500D03*
%TD*%
%TO.P,R14,1*%
%TO.N,Net-(Q7-E)*%
X85850000Y-89272500D03*
%TO.P,R14,2*%
%TO.N,Net-(D49-A)*%
X85850000Y-88252500D03*
%TD*%
%TO.P,R13,1*%
%TO.N,Net-(Q8-E)*%
X83770000Y-89282500D03*
%TO.P,R13,2*%
%TO.N,Net-(D57-A)*%
X83770000Y-88262500D03*
%TD*%
D16*
%TO.P,Y3,1,EN*%
%TO.N,+3V3*%
X66345000Y-100117500D03*
%TO.P,Y3,2,GND*%
%TO.N,GND*%
X66345000Y-98017500D03*
%TO.P,Y3,3,OUT*%
%TO.N,Net-(U2-XI)*%
X67995000Y-98017500D03*
%TO.P,Y3,4,Vdd*%
%TO.N,+3V3*%
X67995000Y-100117500D03*
%TD*%
D15*
%TO.P,R2,1*%
%TO.N,/CC2_2*%
X69365000Y-103017500D03*
%TO.P,R2,2*%
%TO.N,GND*%
X69365000Y-101997500D03*
%TD*%
D17*
%TO.P,Q13,1,B*%
%TO.N,Net-(Q13-B)*%
X72370000Y-83130000D03*
%TO.P,Q13,2,E*%
%TO.N,GND*%
X70470000Y-83130000D03*
%TO.P,Q13,3,C*%
%TO.N,Net-(D12-K)*%
X71420000Y-81255000D03*
%TD*%
D18*
%TO.P,C12,1*%
%TO.N,+3V3*%
X67990000Y-101642500D03*
%TO.P,C12,2*%
%TO.N,GND*%
X67030000Y-101642500D03*
%TD*%
D19*
%TO.P,U1,1,VBAT*%
%TO.N,VBAT*%
X89367500Y-96602500D03*
%TO.P,U1,2,PC13*%
%TO.N,unconnected-(U1-PC13-Pad2)*%
X89367500Y-97102500D03*
%TO.P,U1,3,PC14*%
%TO.N,unconnected-(U1-PC14-Pad3)*%
X89367500Y-97602500D03*
%TO.P,U1,4,PC15*%
%TO.N,unconnected-(U1-PC15-Pad4)*%
X89367500Y-98102500D03*
%TO.P,U1,5,PD0*%
%TO.N,Net-(U1-PD0)*%
X89367500Y-98602500D03*
%TO.P,U1,6,PD1*%
%TO.N,unconnected-(U1-PD1-Pad6)*%
X89367500Y-99102500D03*
%TO.P,U1,7,NRST*%
%TO.N,NSRT*%
X89367500Y-99602500D03*
%TO.P,U1,8,VSSA*%
%TO.N,GND*%
X89367500Y-100102500D03*
%TO.P,U1,9,VDDA*%
%TO.N,+3V3*%
X89367500Y-100602500D03*
%TO.P,U1,10,PA0*%
%TO.N,unconnected-(U1-PA0-Pad10)*%
X89367500Y-101102500D03*
%TO.P,U1,11,PA1*%
%TO.N,unconnected-(U1-PA1-Pad11)*%
X89367500Y-101602500D03*
%TO.P,U1,12,PA2*%
%TO.N,unconnected-(U1-PA2-Pad12)*%
X89367500Y-102102500D03*
D20*
%TO.P,U1,13,PA3*%
%TO.N,unconnected-(U1-PA3-Pad13)*%
X87955000Y-103515000D03*
%TO.P,U1,14,PA4*%
%TO.N,unconnected-(U1-PA4-Pad14)*%
X87455000Y-103515000D03*
%TO.P,U1,15,PA5*%
%TO.N,unconnected-(U1-PA5-Pad15)*%
X86955000Y-103515000D03*
%TO.P,U1,16,PA6*%
%TO.N,unconnected-(U1-PA6-Pad16)*%
X86455000Y-103515000D03*
%TO.P,U1,17,PA7*%
%TO.N,unconnected-(U1-PA7-Pad17)*%
X85955000Y-103515000D03*
%TO.P,U1,18,PB0*%
%TO.N,/P_1*%
X85455000Y-103515000D03*
%TO.P,U1,19,PB1*%
%TO.N,/P_2*%
X84955000Y-103515000D03*
%TO.P,U1,20,PB2*%
%TO.N,/P_3*%
X84455000Y-103515000D03*
%TO.P,U1,21,PB10*%
%TO.N,/G_3*%
X83955000Y-103515000D03*
%TO.P,U1,22,PB11*%
%TO.N,/G_4*%
X83455000Y-103515000D03*
%TO.P,U1,23,VSS*%
%TO.N,GND*%
X82955000Y-103515000D03*
%TO.P,U1,24,VDD*%
%TO.N,+3V3*%
X82455000Y-103515000D03*
D19*
%TO.P,U1,25,PB12*%
%TO.N,/G_5*%
X81042500Y-102102500D03*
%TO.P,U1,26,PB13*%
%TO.N,/G_6*%
X81042500Y-101602500D03*
%TO.P,U1,27,PB14*%
%TO.N,/G_7*%
X81042500Y-101102500D03*
%TO.P,U1,28,PB15*%
%TO.N,/G_8*%
X81042500Y-100602500D03*
%TO.P,U1,29,PA8*%
%TO.N,unconnected-(U1-PA8-Pad29)*%
X81042500Y-100102500D03*
%TO.P,U1,30,PA9*%
%TO.N,UART_-*%
X81042500Y-99602500D03*
%TO.P,U1,31,PA10*%
%TO.N,UART_+*%
X81042500Y-99102500D03*
%TO.P,U1,32,PA11*%
%TO.N,unconnected-(U1-PA11-Pad32)*%
X81042500Y-98602500D03*
%TO.P,U1,33,PA12*%
%TO.N,unconnected-(U1-PA12-Pad33)*%
X81042500Y-98102500D03*
%TO.P,U1,34,PA13*%
%TO.N,unconnected-(U1-PA13-Pad34)*%
X81042500Y-97602500D03*
%TO.P,U1,35,VSS*%
%TO.N,GND*%
X81042500Y-97102500D03*
%TO.P,U1,36,VDD*%
%TO.N,+3V3*%
X81042500Y-96602500D03*
D20*
%TO.P,U1,37,PA14*%
%TO.N,unconnected-(U1-PA14-Pad37)*%
X82455000Y-95190000D03*
%TO.P,U1,38,PA15*%
%TO.N,unconnected-(U1-PA15-Pad38)*%
X82955000Y-95190000D03*
%TO.P,U1,39,PB3*%
%TO.N,/P_4*%
X83455000Y-95190000D03*
%TO.P,U1,40,PB4*%
%TO.N,/P_5*%
X83955000Y-95190000D03*
%TO.P,U1,41,PB5*%
%TO.N,/P_6*%
X84455000Y-95190000D03*
%TO.P,U1,42,PB6*%
%TO.N,/P_7*%
X84955000Y-95190000D03*
%TO.P,U1,43,PB7*%
%TO.N,/P_8*%
X85455000Y-95190000D03*
%TO.P,U1,44,BOOT0*%
%TO.N,BOOT0*%
X85955000Y-95190000D03*
%TO.P,U1,45,PB8*%
%TO.N,/G_1*%
X86455000Y-95190000D03*
%TO.P,U1,46,PB9*%
%TO.N,/G_2*%
X86955000Y-95190000D03*
%TO.P,U1,47,VSS*%
%TO.N,GND*%
X87455000Y-95190000D03*
%TO.P,U1,48,VDD*%
%TO.N,+3V3*%
X87955000Y-95190000D03*
%TD*%
D21*
%TO.P,SW1,1,A*%
%TO.N,+3V3*%
X89290000Y-109656500D03*
%TO.P,SW1,2,B*%
%TO.N,Net-(SW1-B)*%
X89290000Y-105338500D03*
%TD*%
D22*
%TO.P,R23,1*%
%TO.N,+3V3*%
X89285000Y-111962500D03*
%TO.P,R23,2*%
%TO.N,Net-(D67-A)*%
X90305000Y-111962500D03*
%TD*%
D18*
%TO.P,C8,1*%
%TO.N,+3V3*%
X81415000Y-103822500D03*
%TO.P,C8,2*%
%TO.N,GND*%
X80455000Y-103822500D03*
%TD*%
D23*
%TO.P,D67,1,K*%
%TO.N,GND*%
X93527500Y-111962500D03*
%TO.P,D67,2,A*%
%TO.N,Net-(D67-A)*%
X91652500Y-111962500D03*
%TD*%
D21*
%TO.P,SW2,1,A*%
%TO.N,GND*%
X92950000Y-109665500D03*
%TO.P,SW2,2,B*%
%TO.N,NSRT*%
X92950000Y-105347500D03*
%TD*%
D15*
%TO.P,R1,1*%
%TO.N,/CC2_1*%
X72365000Y-103017500D03*
%TO.P,R1,2*%
%TO.N,GND*%
X72365000Y-101997500D03*
%TD*%
D24*
%TO.P,C13,1*%
%TO.N,+3V3*%
X91400000Y-94852500D03*
%TO.P,C13,2*%
%TO.N,GND*%
X92360000Y-94852500D03*
%TD*%
D25*
%TO.P,C1,1*%
%TO.N,+3V3*%
X78435000Y-96607500D03*
%TO.P,C1,2*%
%TO.N,GND*%
X78435000Y-97567500D03*
%TD*%
D17*
%TO.P,Q9,1,B*%
%TO.N,Net-(Q9-B)*%
X79472500Y-83120000D03*
%TO.P,Q9,2,E*%
%TO.N,GND*%
X77572500Y-83120000D03*
%TO.P,Q9,3,C*%
%TO.N,Net-(D16-K)*%
X78522500Y-81245000D03*
%TD*%
%TO.P,Q15,1,B*%
%TO.N,Net-(Q15-B)*%
X68832500Y-83130000D03*
%TO.P,Q15,2,E*%
%TO.N,GND*%
X66932500Y-83130000D03*
%TO.P,Q15,3,C*%
%TO.N,Net-(D10-K)*%
X67882500Y-81255000D03*
%TD*%
%TO.P,Q11,1,B*%
%TO.N,Net-(Q11-B)*%
X75925000Y-83127500D03*
%TO.P,Q11,2,E*%
%TO.N,GND*%
X74025000Y-83127500D03*
%TO.P,Q11,3,C*%
%TO.N,Net-(D14-K)*%
X74975000Y-81252500D03*
%TD*%
D26*
%TO.P,Y1,1,EN*%
%TO.N,+3V3*%
X93045000Y-96492500D03*
%TO.P,Y1,2,GND*%
%TO.N,GND*%
X93045000Y-98592500D03*
%TO.P,Y1,3,OUT*%
%TO.N,Net-(U1-PD0)*%
X91395000Y-98592500D03*
%TO.P,Y1,4,Vdd*%
%TO.N,+3V3*%
X91395000Y-96492500D03*
%TD*%
D27*
%TO.P,U2,1,GND*%
%TO.N,GND*%
X76830000Y-95467500D03*
%TO.P,U2,2,TXD*%
%TO.N,UART_+*%
X75560000Y-95467500D03*
%TO.P,U2,3,RXD*%
%TO.N,UART_-*%
X74290000Y-95467500D03*
%TO.P,U2,4,V3*%
%TO.N,+3V3*%
X73020000Y-95467500D03*
%TO.P,U2,5,UD+*%
%TO.N,/D_1_C+*%
X71750000Y-95467500D03*
%TO.P,U2,6,UD-*%
%TO.N,/D_1_C-*%
X70480000Y-95467500D03*
%TO.P,U2,7,XI*%
%TO.N,Net-(U2-XI)*%
X69210000Y-95467500D03*
%TO.P,U2,8,XO*%
%TO.N,unconnected-(U2-XO-Pad8)*%
X67940000Y-95467500D03*
%TO.P,U2,9,~{CTS}*%
%TO.N,unconnected-(U2-~{CTS}-Pad9)*%
X67940000Y-90517500D03*
%TO.P,U2,10,~{DSR}*%
%TO.N,unconnected-(U2-~{DSR}-Pad10)*%
X69210000Y-90517500D03*
%TO.P,U2,11,~{RI}*%
%TO.N,unconnected-(U2-~{RI}-Pad11)*%
X70480000Y-90517500D03*
%TO.P,U2,12,~{DCD}*%
%TO.N,unconnected-(U2-~{DCD}-Pad12)*%
X71750000Y-90517500D03*
%TO.P,U2,13,~{DTR}*%
%TO.N,unconnected-(U2-~{DTR}-Pad13)*%
X73020000Y-90517500D03*
%TO.P,U2,14,~{RTS}*%
%TO.N,unconnected-(U2-~{RTS}-Pad14)*%
X74290000Y-90517500D03*
%TO.P,U2,15,R232*%
%TO.N,unconnected-(U2-R232-Pad15)*%
X75560000Y-90517500D03*
%TO.P,U2,16,VCC*%
%TO.N,unconnected-(U2-VCC-Pad16)*%
X76830000Y-90517500D03*
%TD*%
D25*
%TO.P,C5,1*%
%TO.N,+3V3*%
X79455000Y-96602500D03*
%TO.P,C5,2*%
%TO.N,GND*%
X79455000Y-97562500D03*
%TD*%
D28*
%TO.P,U4,1,ADJ*%
%TO.N,GND*%
X80270000Y-111650000D03*
%TO.P,U4,2,VO*%
%TO.N,+3V3*%
X80270000Y-109350000D03*
%TO.P,U4,3,VI*%
%TO.N,+5V*%
X80270000Y-107050000D03*
D29*
%TO.P,U4,4*%
%TO.N,N/C*%
X86420000Y-109350000D03*
%TD*%
D14*
%TO.P,Q8,1,C*%
%TO.N,/P_8*%
X97460000Y-105802500D03*
%TO.P,Q8,2,B*%
%TO.N,+3V3*%
X97460000Y-103902500D03*
%TO.P,Q8,3,E*%
%TO.N,Net-(Q8-E)*%
X99335000Y-104852500D03*
%TD*%
D30*
%TO.N,Net-(D15-K)*%
X82825000Y-80157500D03*
X78229951Y-82506928D03*
%TO.N,GND*%
X78945000Y-98447500D03*
X72365000Y-101007500D03*
X89565000Y-93647500D03*
X94790000Y-111972500D03*
X67915000Y-104917500D03*
X68290000Y-93922500D03*
X76995000Y-111677500D03*
X87790000Y-93572500D03*
X78795000Y-105082500D03*
X91265000Y-110097500D03*
X91799997Y-97557500D03*
X86985000Y-100712500D03*
X76830000Y-93957500D03*
X76950000Y-98472500D03*
X76000000Y-98487500D03*
X91100000Y-101622500D03*
X79400000Y-81205000D03*
%TO.N,NSRT*%
X91375000Y-99642500D03*
%TO.N,GND*%
X91995000Y-101612500D03*
%TO.N,+3V3*%
X88595000Y-95192500D03*
%TO.N,GND*%
X70470000Y-80612500D03*
X69365000Y-101007500D03*
%TO.N,+3V3*%
X80055000Y-105032500D03*
X67030000Y-102962500D03*
%TO.N,GND*%
X74025000Y-80627500D03*
X82965000Y-104897500D03*
X87050000Y-98772500D03*
X79120000Y-103822500D03*
X77830000Y-98492500D03*
X66935000Y-80652500D03*
X77575000Y-80647500D03*
%TO.N,+3V3*%
X91400000Y-94852500D03*
%TO.N,GND*%
X91799997Y-97557500D03*
%TO.N,+3V3*%
X76975000Y-109367500D03*
%TO.N,GND*%
X73780000Y-98527500D03*
X74315000Y-104867500D03*
X76965000Y-108387500D03*
X71110000Y-96797500D03*
X84440000Y-101122500D03*
X66070000Y-101642500D03*
X88015000Y-98812500D03*
X66345000Y-96037500D03*
%TO.N,BOOT0*%
X85950000Y-97222500D03*
%TO.N,+5V*%
X80250000Y-107027500D03*
%TO.N,+3V3*%
X88165000Y-100602500D03*
X78435000Y-96607500D03*
X78845000Y-109347500D03*
X75370000Y-93937500D03*
X89285000Y-110752500D03*
X73780000Y-97567500D03*
%TO.N,Net-(D1-A)*%
X98410000Y-80697500D03*
X98410000Y-81947500D03*
X98410000Y-84447500D03*
%TO.N,Net-(D41-A)*%
X87935000Y-86947500D03*
X87935000Y-83197500D03*
%TO.N,Net-(D25-A)*%
X92135000Y-83197500D03*
%TO.N,Net-(D33-A)*%
X90035000Y-85697500D03*
%TO.N,Net-(F1-Pad2)*%
X73505000Y-104857500D03*
%TO.N,Net-(D41-A)*%
X87935000Y-79447500D03*
%TO.N,Net-(D33-A)*%
X90035000Y-80697500D03*
X90035000Y-81947500D03*
%TO.N,Net-(D16-K)*%
X82810000Y-78912500D03*
%TO.N,Net-(D41-A)*%
X87935000Y-86947500D03*
X87935000Y-80697500D03*
X87935000Y-85672500D03*
%TO.N,Net-(D33-A)*%
X90035000Y-86947500D03*
%TO.N,Net-(F1-Pad2)*%
X68715000Y-104837500D03*
%TO.N,/D_1_C+*%
X72252500Y-99190000D03*
%TO.N,/D_1_C-*%
X69977500Y-99190000D03*
%TO.N,Net-(D33-A)*%
X90035000Y-83197500D03*
X90035000Y-84447500D03*
X90035000Y-79447500D03*
%TO.N,Net-(D41-A)*%
X87935000Y-84447500D03*
%TO.N,Net-(SW1-B)*%
X89290000Y-105338500D03*
%TO.N,Net-(D41-A)*%
X87935000Y-81947500D03*
%TO.N,Net-(D49-A)*%
X85835000Y-85697500D03*
X85835000Y-79447500D03*
X85835000Y-80697500D03*
%TO.N,Net-(D57-A)*%
X83735000Y-83197500D03*
X83735000Y-80697500D03*
%TO.N,/G_6*%
X79675000Y-101597500D03*
%TO.N,Net-(D57-A)*%
X83735000Y-79447500D03*
%TO.N,Net-(D49-A)*%
X85835000Y-86947500D03*
%TO.N,/P_4*%
X83465000Y-99542500D03*
%TO.N,Net-(D49-A)*%
X85835000Y-81947500D03*
X85835000Y-84447500D03*
%TO.N,/P_1*%
X83538595Y-106658530D03*
%TO.N,/P_2*%
X82995000Y-106217500D03*
%TO.N,Net-(D57-A)*%
X83735000Y-84447500D03*
X83735000Y-85697500D03*
%TO.N,/P_5*%
X83955000Y-98822500D03*
%TO.N,/G_8*%
X81461685Y-96102500D03*
%TO.N,Net-(D49-A)*%
X85835000Y-83197500D03*
%TO.N,/P_3*%
X82495000Y-105532500D03*
%TO.N,/P_6*%
X84455000Y-98037500D03*
%TO.N,/P_8*%
X85455000Y-96452500D03*
%TO.N,/P_7*%
X84960000Y-97342500D03*
%TO.N,Net-(Q9-B)*%
X79479176Y-84252500D03*
%TO.N,/P_8*%
X85455000Y-96447500D03*
%TO.N,Net-(D57-A)*%
X83735000Y-81947500D03*
X83735000Y-86947500D03*
%TO.N,/G_7*%
X80935000Y-94227500D03*
%TO.N,Net-(Q11-B)*%
X75925216Y-84267500D03*
%TO.N,/G_5*%
X79268666Y-102167496D03*
%TO.N,Net-(Q13-B)*%
X72375000Y-84267500D03*
%TO.N,Net-(D10-A)*%
X96335000Y-86947500D03*
%TO.N,Net-(D14-K)*%
X76585000Y-81402500D03*
%TO.N,Net-(D10-A)*%
X96335000Y-83197500D03*
%TO.N,Net-(D12-K)*%
X82855000Y-83902500D03*
%TO.N,Net-(D11-K)*%
X82835000Y-85147500D03*
%TO.N,Net-(D1-A)*%
X98410000Y-83197500D03*
%TO.N,Net-(D10-K)*%
X82815000Y-86397500D03*
X82815000Y-86397500D03*
%TO.N,Net-(D13-K)*%
X82860000Y-82657500D03*
%TO.N,Net-(D11-K)*%
X71065000Y-85147500D03*
%TO.N,Net-(D13-K)*%
X74675000Y-82618301D03*
%TO.N,Net-(D10-A)*%
X96325000Y-79447500D03*
%TO.N,Net-(D17-A)*%
X94215000Y-83197500D03*
%TO.N,Net-(D25-A)*%
X92135000Y-85697500D03*
%TO.N,Net-(D1-K)*%
X67585000Y-85062500D03*
%TO.N,Net-(D10-A)*%
X96335000Y-85697500D03*
%TO.N,Net-(D1-A)*%
X98410000Y-79447500D03*
%TO.N,Net-(D10-A)*%
X96335000Y-81947500D03*
%TO.N,Net-(D25-A)*%
X92135000Y-86947500D03*
X92135000Y-81947500D03*
%TO.N,Net-(D1-A)*%
X98420000Y-85697500D03*
%TO.N,Net-(D1-K)*%
X82810000Y-87646500D03*
%TO.N,Net-(D10-A)*%
X96335000Y-84447500D03*
%TO.N,Net-(D1-A)*%
X98425000Y-86947500D03*
%TO.N,Net-(D14-K)*%
X82820000Y-81407500D03*
%TO.N,Net-(D10-A)*%
X96335000Y-80697500D03*
%TO.N,Net-(D17-A)*%
X94235000Y-80697500D03*
X94220000Y-84447500D03*
X94220000Y-85697500D03*
X94235000Y-79447500D03*
X94235000Y-81947500D03*
%TO.N,Net-(D25-A)*%
X92135000Y-79447500D03*
%TO.N,Net-(D17-A)*%
X94235000Y-86947500D03*
%TO.N,Net-(D25-A)*%
X92135000Y-84447500D03*
X92135000Y-80697500D03*
%TO.N,/G_1*%
X78255000Y-94722500D03*
%TO.N,/G_2*%
X78740000Y-92587500D03*
%TO.N,/G_3*%
X78225000Y-102607500D03*
%TO.N,Net-(Q15-B)*%
X68829243Y-84267500D03*
%TO.N,/G_4*%
X78829495Y-103185625D03*
%TO.N,Net-(D1-A)*%
X98425000Y-88197500D03*
%TO.N,Net-(D17-A)*%
X94225000Y-88147500D03*
%TO.N,Net-(D10-A)*%
X96325000Y-88197500D03*
%TO.N,Net-(D25-A)*%
X92140000Y-88197500D03*
%TO.N,+3V3*%
X96780000Y-92612500D03*
X98425000Y-96327500D03*
X98430000Y-99737500D03*
X98770000Y-106687500D03*
X98540000Y-103167500D03*
%TO.N,Net-(Q8-E)*%
X83770000Y-89282500D03*
%TO.N,Net-(Q7-E)*%
X95515000Y-104672500D03*
%TO.N,Net-(Q6-E)*%
X87935000Y-89257500D03*
%TO.N,Net-(Q7-E)*%
X85850000Y-89272500D03*
%TO.N,Net-(Q1-E)*%
X99330000Y-93527500D03*
%TO.N,Net-(Q3-E)*%
X96200000Y-97540000D03*
%TO.N,Net-(Q4-E)*%
X92130000Y-89227500D03*
%TO.N,Net-(Q5-E)*%
X90020000Y-89257500D03*
%TO.N,Net-(Q2-E)*%
X96320000Y-89237500D03*
%TO.N,Net-(Q5-E)*%
X96590000Y-101301500D03*
%TO.N,Net-(Q3-E)*%
X94230000Y-89227500D03*
%TO.N,Net-(D33-A)*%
X90025000Y-88197500D03*
%TO.N,Net-(D49-A)*%
X85840000Y-88242500D03*
%TO.N,Net-(D41-A)*%
X87960000Y-88217500D03*
%TO.N,Net-(Q1-E)*%
X98435000Y-89227500D03*
%TO.N,Net-(D57-A)*%
X83755000Y-88197500D03*
%TO.N,/P_8*%
X97040000Y-106577500D03*
%TO.N,/P_6*%
X97095000Y-103052500D03*
%TO.N,/P_4*%
X97070000Y-99640000D03*
%TO.N,/P_2*%
X97085000Y-96227500D03*
%TD*%
D31*
%TO.N,Net-(D1-K)*%
X81671000Y-87863968D02*
X81671000Y-87863776D01*
X81104968Y-88430000D02*
X81671000Y-87863968D01*
X81888276Y-87646500D02*
X82810000Y-87646500D01*
X67860000Y-88430000D02*
X81104968Y-88430000D01*
X81671000Y-87863776D02*
X81888276Y-87646500D01*
X67585000Y-85062500D02*
X67585000Y-88155000D01*
X67585000Y-88155000D02*
X67860000Y-88430000D01*
%TO.N,Net-(D10-K)*%
X67882500Y-83140000D02*
X67882500Y-81255000D01*
X68211000Y-83468500D02*
X67882500Y-83140000D01*
X81001000Y-88179000D02*
X68454000Y-88179000D01*
X81420000Y-87760000D02*
X81001000Y-88179000D01*
X81420000Y-87759808D02*
X81420000Y-87760000D01*
X68454000Y-88179000D02*
X68211000Y-87936000D01*
X68211000Y-87936000D02*
X68211000Y-83468500D01*
X82782308Y-86397500D02*
X81420000Y-87759808D01*
X82815000Y-86397500D02*
X82782308Y-86397500D01*
%TO.N,Net-(D11-K)*%
X82021500Y-86803340D02*
X82021500Y-86538500D01*
X80896840Y-87928000D02*
X82021500Y-86803340D01*
X82021500Y-86538500D02*
X82835000Y-85725000D01*
X71228000Y-87928000D02*
X80896840Y-87928000D01*
X82835000Y-85725000D02*
X82835000Y-85147500D01*
X71065000Y-85147500D02*
X71065000Y-87765000D01*
X71065000Y-87765000D02*
X71228000Y-87928000D01*
%TO.N,Net-(D12-K)*%
X82855000Y-84440000D02*
X82855000Y-83902500D01*
X81770500Y-85524500D02*
X82855000Y-84440000D01*
X81770500Y-86699372D02*
X81770500Y-85524500D01*
X80792872Y-87677000D02*
X81770500Y-86699372D01*
X71865000Y-85155000D02*
X71865000Y-87515000D01*
X71865000Y-87515000D02*
X72027000Y-87677000D01*
X71860000Y-85150000D02*
X71865000Y-85155000D01*
X71420000Y-82235000D02*
X71860000Y-82675000D01*
X72027000Y-87677000D02*
X80792872Y-87677000D01*
X71420000Y-81255000D02*
X71420000Y-82235000D01*
X71860000Y-82675000D02*
X71860000Y-85150000D01*
%TO.N,Net-(D13-K)*%
X82860000Y-83255000D02*
X82860000Y-82657500D01*
X81519500Y-86595404D02*
X81519500Y-84595500D01*
X81519500Y-84595500D02*
X82860000Y-83255000D01*
X74821000Y-87426000D02*
X80688904Y-87426000D01*
X80688904Y-87426000D02*
X81519500Y-86595404D01*
X74675000Y-82618301D02*
X74675000Y-87280000D01*
X74675000Y-87280000D02*
X74821000Y-87426000D01*
%TO.N,Net-(D14-K)*%
X82820000Y-82040000D02*
X82820000Y-81407500D01*
X81268500Y-83591500D02*
X82820000Y-82040000D01*
X81268500Y-86491436D02*
X81268500Y-83591500D01*
X75360000Y-87175000D02*
X80584936Y-87175000D01*
X80584936Y-87175000D02*
X81268500Y-86491436D01*
X75210000Y-87025000D02*
X75360000Y-87175000D01*
X75210000Y-86515000D02*
X75210000Y-87025000D01*
X75205000Y-82450000D02*
X75205000Y-86510000D01*
X74975000Y-82220000D02*
X75205000Y-82450000D01*
X75205000Y-86510000D02*
X75210000Y-86515000D01*
X74975000Y-81252500D02*
X74975000Y-82220000D01*
%TO.N,Net-(D15-K)*%
X78499000Y-86924000D02*
X78229951Y-86654951D01*
X80480968Y-86924000D02*
X78499000Y-86924000D01*
X78229951Y-86654951D02*
X78229951Y-82506928D01*
X81017500Y-86387468D02*
X80480968Y-86924000D01*
X82825000Y-80685311D02*
X81017500Y-82492811D01*
X82825000Y-80157500D02*
X82825000Y-80685311D01*
X81017500Y-82492811D02*
X81017500Y-86387468D01*
%TO.N,Net-(D16-K)*%
X82810000Y-79515000D02*
X82810000Y-78912500D01*
X80766500Y-86283500D02*
X80766500Y-81558500D01*
X80766500Y-81558500D02*
X82810000Y-79515000D01*
X80377000Y-86673000D02*
X80766500Y-86283500D01*
X79043000Y-86673000D02*
X80377000Y-86673000D01*
X78905000Y-86535000D02*
X79043000Y-86673000D01*
X78522500Y-82022500D02*
X78905000Y-82405000D01*
X78522500Y-81245000D02*
X78522500Y-82022500D01*
X78905000Y-82405000D02*
X78905000Y-86535000D01*
%TO.N,/G_7*%
X81779999Y-101102500D02*
X81042500Y-101102500D01*
X82282000Y-100600499D02*
X81779999Y-101102500D01*
X81338080Y-95342500D02*
X82282000Y-96286420D01*
X81338080Y-94920580D02*
X81338080Y-95342500D01*
X81275000Y-94857500D02*
X81338080Y-94920580D01*
X82282000Y-96286420D02*
X82282000Y-100600499D01*
X81275000Y-94852500D02*
X81275000Y-94857500D01*
X80950000Y-94527500D02*
X81275000Y-94852500D01*
X80935000Y-94227500D02*
X80950000Y-94242500D01*
X80950000Y-94242500D02*
X80950000Y-94527500D01*
%TO.N,/G_8*%
X81981000Y-100401499D02*
X81779999Y-100602500D01*
X81672402Y-96102500D02*
X81981000Y-96411098D01*
X81461685Y-96102500D02*
X81672402Y-96102500D01*
X81779999Y-100602500D02*
X81042500Y-100602500D01*
X81981000Y-96411098D02*
X81981000Y-100401499D01*
%TO.N,/G_2*%
X86955000Y-94452501D02*
X86955000Y-95190000D01*
X85978999Y-93476500D02*
X86955000Y-94452501D01*
X78740000Y-92705500D02*
X79511000Y-93476500D01*
X78740000Y-92587500D02*
X78740000Y-92705500D01*
X79511000Y-93476500D02*
X85978999Y-93476500D01*
D32*
%TO.N,+3V3*%
X98200000Y-103162500D02*
X98540000Y-103162500D01*
X97460000Y-103902500D02*
X98200000Y-103162500D01*
X98232500Y-99737500D02*
X98420000Y-99737500D01*
X97467500Y-100502500D02*
X98232500Y-99737500D01*
X97880000Y-96327500D02*
X98415000Y-96327500D01*
X97472500Y-96735000D02*
X97880000Y-96327500D01*
X97472500Y-97092500D02*
X97472500Y-96735000D01*
X97130000Y-92612500D02*
X96780000Y-92612500D01*
X97290000Y-92772500D02*
X97130000Y-92612500D01*
X97472500Y-93680000D02*
X97472500Y-92955000D01*
X97472500Y-92955000D02*
X97290000Y-92772500D01*
%TO.N,Net-(Q2-E)*%
X98585000Y-93097500D02*
X98585000Y-93867500D01*
X96320000Y-90832500D02*
X98585000Y-93097500D01*
X98585000Y-93867500D02*
X99347500Y-94630000D01*
X96320000Y-89237500D02*
X96320000Y-90832500D01*
%TO.N,Net-(Q1-E)*%
X98435000Y-92147500D02*
X98435000Y-89227500D01*
X99330000Y-93527500D02*
X99330000Y-93042500D01*
X99330000Y-93042500D02*
X98435000Y-92147500D01*
%TO.N,Net-(Q3-E)*%
X96101000Y-96957500D02*
X96101000Y-97441000D01*
X96101000Y-97441000D02*
X96200000Y-97540000D01*
X95292025Y-93000475D02*
X96101000Y-93809450D01*
X94230000Y-91938450D02*
X95292025Y-93000475D01*
X96101000Y-93809450D02*
X96101000Y-96957500D01*
X94230000Y-89227500D02*
X94230000Y-91938450D01*
D31*
%TO.N,/P_8*%
X97460000Y-106157500D02*
X97460000Y-105802500D01*
X97040000Y-106577500D02*
X97460000Y-106157500D01*
%TO.N,/P_6*%
X97467500Y-102775000D02*
X97467500Y-102402500D01*
X97195098Y-103047402D02*
X97467500Y-102775000D01*
X97100098Y-103047402D02*
X97195098Y-103047402D01*
X97095000Y-103052500D02*
X97100098Y-103047402D01*
%TO.N,/P_4*%
X97472500Y-99475000D02*
X97472500Y-98992500D01*
X97070000Y-99640000D02*
X97074121Y-99635879D01*
X97074121Y-99635879D02*
X97311621Y-99635879D01*
X97311621Y-99635879D02*
X97472500Y-99475000D01*
%TO.N,/P_2*%
X97472500Y-96090000D02*
X97472500Y-95580000D01*
X97355066Y-96207434D02*
X97472500Y-96090000D01*
X97105066Y-96207434D02*
X97355066Y-96207434D01*
X97085000Y-96227500D02*
X97105066Y-96207434D01*
D32*
%TO.N,Net-(Q4-E)*%
X98065000Y-98042500D02*
X99347500Y-98042500D01*
X97720000Y-98387500D02*
X98065000Y-98042500D01*
X95650000Y-97797500D02*
X96240000Y-98387500D01*
X95650000Y-93996260D02*
X95650000Y-97797500D01*
X92130000Y-90476260D02*
X95650000Y-93996260D01*
X92130000Y-89227500D02*
X92130000Y-90476260D01*
X96240000Y-98387500D02*
X97720000Y-98387500D01*
%TO.N,Net-(Q5-E)*%
X95636810Y-101301500D02*
X96590000Y-101301500D01*
X95199000Y-100863690D02*
X95636810Y-101301500D01*
X92190430Y-91174500D02*
X95199000Y-94183070D01*
X90477000Y-91174500D02*
X92190430Y-91174500D01*
X90020000Y-90717500D02*
X90477000Y-91174500D01*
X90020000Y-89257500D02*
X90020000Y-90717500D01*
X95199000Y-94183070D02*
X95199000Y-100863690D01*
%TO.N,Net-(Q6-E)*%
X98220000Y-101452500D02*
X99342500Y-101452500D01*
X95549000Y-101851500D02*
X97821000Y-101851500D01*
X92003620Y-91625500D02*
X94748000Y-94369880D01*
X97821000Y-101851500D02*
X98220000Y-101452500D01*
X88403000Y-91625500D02*
X92003620Y-91625500D01*
X94748000Y-94369880D02*
X94748000Y-101050500D01*
X87935000Y-91157500D02*
X88403000Y-91625500D01*
X94748000Y-101050500D02*
X95549000Y-101851500D01*
X87935000Y-89257500D02*
X87935000Y-91157500D01*
%TO.N,Net-(Q8-E)*%
X98208000Y-104852500D02*
X99335000Y-104852500D01*
X93846000Y-104508500D02*
X94589000Y-105251500D01*
X94589000Y-105251500D02*
X97809000Y-105251500D01*
X93846000Y-94743500D02*
X93846000Y-104508500D01*
X85090000Y-92527500D02*
X91630000Y-92527500D01*
X83770000Y-91207500D02*
X85090000Y-92527500D01*
X83770000Y-89282500D02*
X83770000Y-91207500D01*
X91630000Y-92527500D02*
X93846000Y-94743500D01*
X97809000Y-105251500D02*
X98208000Y-104852500D01*
%TO.N,Net-(Q7-E)*%
X86914000Y-92076500D02*
X85850000Y-91012500D01*
X85850000Y-91012500D02*
X85850000Y-89272500D01*
X91816810Y-92076500D02*
X86914000Y-92076500D01*
X94297000Y-94556690D02*
X91816810Y-92076500D01*
X94730000Y-104672500D02*
X94297000Y-104239500D01*
X94297000Y-104239500D02*
X94297000Y-94556690D01*
X95515000Y-104672500D02*
X94730000Y-104672500D01*
D33*
%TO.N,Net-(D17-A)*%
X94225000Y-88147500D02*
X94225000Y-86957500D01*
D31*
%TO.N,GND*%
X92350000Y-97557500D02*
X91799997Y-97557500D01*
X93045000Y-98252500D02*
X93045000Y-98592500D01*
X92350000Y-97557500D02*
X93045000Y-98252500D01*
X91265000Y-110097500D02*
X91660000Y-110097500D01*
X78945000Y-98447500D02*
X79165000Y-98447500D01*
X74025000Y-83127500D02*
X74025000Y-80627500D01*
X66932500Y-83130000D02*
X66932500Y-80655000D01*
X82965000Y-104897500D02*
X82965000Y-104562500D01*
X94010000Y-111962500D02*
X93527500Y-111962500D01*
X90895000Y-100542500D02*
X91100000Y-100747500D01*
D33*
X91464999Y-93647500D02*
X89565000Y-93647500D01*
D31*
X89367500Y-100102500D02*
X90455000Y-100102500D01*
X69365000Y-101997500D02*
X69365000Y-101007500D01*
D33*
X66345000Y-98017500D02*
X66345000Y-96037500D01*
D31*
X92092000Y-109665500D02*
X92950000Y-109665500D01*
X82955000Y-104552500D02*
X82955000Y-103515000D01*
X79120000Y-103822500D02*
X80455000Y-103822500D01*
X91660000Y-110097500D02*
X92092000Y-109665500D01*
D33*
X67915000Y-107002500D02*
X67915000Y-104917500D01*
X76830000Y-95467500D02*
X76830000Y-93957500D01*
X74315000Y-107002500D02*
X74315000Y-104867500D01*
D31*
X94790000Y-111972500D02*
X94020000Y-111972500D01*
X72365000Y-101997500D02*
X72365000Y-101257500D01*
X90455000Y-100102500D02*
X90895000Y-100542500D01*
X91100000Y-100747500D02*
X91100000Y-101622500D01*
X87455000Y-95190000D02*
X87455000Y-93907500D01*
X87455000Y-93907500D02*
X87790000Y-93572500D01*
D33*
X67030000Y-101642500D02*
X66070000Y-101642500D01*
D31*
X78435000Y-98227500D02*
X78435000Y-97567500D01*
X66932500Y-80655000D02*
X66935000Y-80652500D01*
D33*
X77022500Y-111650000D02*
X80270000Y-111650000D01*
D31*
X79455000Y-98157500D02*
X79455000Y-97562500D01*
D33*
X92360000Y-94542501D02*
X91464999Y-93647500D01*
D31*
X79915000Y-97102500D02*
X81042500Y-97102500D01*
X78655000Y-98447500D02*
X78435000Y-98227500D01*
X72365000Y-101257500D02*
X72365000Y-101007500D01*
X77572500Y-83120000D02*
X77572500Y-80650000D01*
X78945000Y-98447500D02*
X78655000Y-98447500D01*
X94020000Y-111972500D02*
X94010000Y-111962500D01*
X82965000Y-104562500D02*
X82955000Y-104552500D01*
X77572500Y-80650000D02*
X77575000Y-80647500D01*
X70470000Y-83130000D02*
X70470000Y-80612500D01*
D33*
X76995000Y-111677500D02*
X77022500Y-111650000D01*
D31*
X79165000Y-98447500D02*
X79455000Y-98157500D01*
D33*
X92360000Y-94852500D02*
X92360000Y-94542501D01*
D31*
X79455000Y-97562500D02*
X79915000Y-97102500D01*
D33*
%TO.N,Net-(U2-XI)*%
X67995000Y-98017500D02*
X69210000Y-96802500D01*
X69210000Y-96802500D02*
X69210000Y-95467500D01*
D32*
%TO.N,NSRT*%
X89367500Y-99602500D02*
X92440000Y-99602500D01*
X92440000Y-99602500D02*
X92950000Y-100112500D01*
X92950000Y-100112500D02*
X92950000Y-105347500D01*
D31*
%TO.N,BOOT0*%
X85950000Y-97222500D02*
X85935000Y-97207500D01*
X85955000Y-97227500D02*
X85950000Y-97222500D01*
X85955000Y-97227500D02*
X85955000Y-95190000D01*
D32*
%TO.N,+3V3*%
X80720000Y-105032500D02*
X80055000Y-105032500D01*
D31*
X89285000Y-109661500D02*
X89290000Y-109656500D01*
D33*
X78845000Y-109347500D02*
X76995000Y-109347500D01*
D31*
X88592500Y-95190000D02*
X88595000Y-95192500D01*
D33*
X67570000Y-102962500D02*
X67030000Y-102962500D01*
D31*
X89285000Y-111962500D02*
X89285000Y-110752500D01*
D32*
X81415000Y-103822500D02*
X82147500Y-103822500D01*
D33*
X80270000Y-109350000D02*
X78847500Y-109350000D01*
X67995000Y-100117500D02*
X67995000Y-101637500D01*
D31*
X89285000Y-110752500D02*
X89285000Y-109661500D01*
D33*
X73780000Y-97012500D02*
X73780000Y-97567500D01*
X66345000Y-100117500D02*
X67995000Y-100117500D01*
X76995000Y-109347500D02*
X76975000Y-109367500D01*
X67695000Y-102837500D02*
X67570000Y-102962500D01*
D31*
X79455000Y-96602500D02*
X78440000Y-96602500D01*
D32*
X82147500Y-103822500D02*
X82455000Y-103515000D01*
D33*
X73020000Y-96252500D02*
X73780000Y-97012500D01*
D34*
X81042500Y-96602500D02*
X79455000Y-96602500D01*
D32*
X91395000Y-96492500D02*
X93045000Y-96492500D01*
D33*
X67995000Y-101637500D02*
X67990000Y-101642500D01*
X67990000Y-102542500D02*
X67695000Y-102837500D01*
X73020000Y-95467500D02*
X73020000Y-96252500D01*
D31*
X88165000Y-100602500D02*
X88145000Y-100602500D01*
D32*
X91400000Y-94852500D02*
X91400000Y-96487500D01*
D33*
X67990000Y-101642500D02*
X67990000Y-102542500D01*
D32*
X81415000Y-104337500D02*
X80835000Y-104917500D01*
D31*
X89367500Y-100602500D02*
X88165000Y-100602500D01*
X78847500Y-109350000D02*
X78845000Y-109347500D01*
D34*
X87955000Y-95190000D02*
X88592500Y-95190000D01*
D31*
X91400000Y-96487500D02*
X91395000Y-96492500D01*
X80835000Y-104917500D02*
X80720000Y-105032500D01*
X78440000Y-96602500D02*
X78435000Y-96607500D01*
D32*
X81415000Y-103822500D02*
X81415000Y-104337500D01*
D33*
%TO.N,Net-(D1-A)*%
X98410000Y-83197500D02*
X98410000Y-81947500D01*
X98425000Y-86947500D02*
X98425000Y-85702500D01*
X98425000Y-88197500D02*
X98425000Y-86947500D01*
X98425000Y-85702500D02*
X98420000Y-85697500D01*
X98420000Y-85697500D02*
X98420000Y-84457500D01*
X98410000Y-81947500D02*
X98410000Y-80697500D01*
X98420000Y-84457500D02*
X98410000Y-84447500D01*
X98410000Y-83197500D02*
X98410000Y-84447500D01*
X98410000Y-80697500D02*
X98410000Y-79447500D01*
D31*
%TO.N,Net-(D14-K)*%
X75125000Y-81402500D02*
X74975000Y-81252500D01*
X76585000Y-81402500D02*
X75125000Y-81402500D01*
D33*
%TO.N,Net-(D10-A)*%
X96335000Y-83197500D02*
X96335000Y-81947500D01*
X96335000Y-80697500D02*
X96335000Y-79457500D01*
X96335000Y-81947500D02*
X96335000Y-80697500D01*
X96325000Y-86957500D02*
X96335000Y-86947500D01*
X96335000Y-86947500D02*
X96335000Y-85697500D01*
X96335000Y-79457500D02*
X96325000Y-79447500D01*
X96335000Y-84447500D02*
X96335000Y-83197500D01*
X96325000Y-88197500D02*
X96325000Y-86957500D01*
X96335000Y-85697500D02*
X96335000Y-84447500D01*
%TO.N,Net-(D17-A)*%
X94220000Y-84447500D02*
X94220000Y-83202500D01*
X94215000Y-81967500D02*
X94235000Y-81947500D01*
X94220000Y-83202500D02*
X94215000Y-83197500D01*
X94235000Y-81947500D02*
X94235000Y-80697500D01*
X94225000Y-86957500D02*
X94235000Y-86947500D01*
X94215000Y-83197500D02*
X94215000Y-81967500D01*
X94225000Y-88167500D02*
X94225000Y-88147500D01*
X94235000Y-85712500D02*
X94220000Y-85697500D01*
X94235000Y-80697500D02*
X94235000Y-79447500D01*
X94220000Y-85697500D02*
X94220000Y-84447500D01*
X94235000Y-86947500D02*
X94235000Y-85712500D01*
%TO.N,Net-(D25-A)*%
X92135000Y-86947500D02*
X92135000Y-85697500D01*
X92135000Y-85697500D02*
X92135000Y-84447500D01*
X92135000Y-80697500D02*
X92135000Y-79447500D01*
X92135000Y-83197500D02*
X92135000Y-81947500D01*
X92135000Y-81947500D02*
X92135000Y-80697500D01*
X92135000Y-84447500D02*
X92135000Y-83197500D01*
X92140000Y-86952500D02*
X92135000Y-86947500D01*
X92140000Y-88197500D02*
X92140000Y-86952500D01*
%TO.N,Net-(D33-A)*%
X90035000Y-84447500D02*
X90035000Y-83197500D01*
X90025000Y-88197500D02*
X90025000Y-86957500D01*
X90035000Y-83197500D02*
X90035000Y-81947500D01*
X90035000Y-81947500D02*
X90035000Y-80697500D01*
X90035000Y-86947500D02*
X90035000Y-85697500D01*
X90025000Y-86957500D02*
X90035000Y-86947500D01*
X90035000Y-80697500D02*
X90035000Y-79447500D01*
X90035000Y-85697500D02*
X90035000Y-84447500D01*
D31*
%TO.N,Net-(D67-A)*%
X90305000Y-111962500D02*
X91652500Y-111962500D01*
D33*
%TO.N,Net-(F1-Pad2)*%
X73515000Y-104867500D02*
X73505000Y-104857500D01*
X68715000Y-107002500D02*
X68715000Y-104837500D01*
X73515000Y-107002500D02*
X73515000Y-104867500D01*
D31*
%TO.N,/D_1_C+*%
X71755000Y-95852500D02*
X71755000Y-95177500D01*
X71340000Y-100987500D02*
X71340001Y-100987499D01*
X71340000Y-106002499D02*
X71340000Y-100987500D01*
X71340001Y-100987499D02*
X71340001Y-100102499D01*
X71750000Y-96930001D02*
X71750000Y-95467500D01*
X71340000Y-98277500D02*
X71340000Y-97340001D01*
X71365000Y-107002500D02*
X71365000Y-106027499D01*
X71340000Y-97340001D02*
X71750000Y-96930001D01*
X71340001Y-100102499D02*
X72252500Y-99190000D01*
X72252500Y-99190000D02*
X71340000Y-98277500D01*
X71365000Y-106027499D02*
X71340000Y-106002499D01*
%TO.N,/CC2_2*%
X69365000Y-107002500D02*
X69365000Y-103017500D01*
%TO.N,/D_1_C-*%
X70890000Y-97340001D02*
X70480000Y-96930001D01*
X70890000Y-106002499D02*
X70890000Y-100987500D01*
X70889999Y-100987499D02*
X70889999Y-100102499D01*
X69977500Y-99190000D02*
X70890000Y-98277500D01*
X70485000Y-95852500D02*
X70485000Y-95177500D01*
X70890000Y-100987500D02*
X70889999Y-100987499D01*
X70865000Y-106027499D02*
X70890000Y-106002499D01*
X70890000Y-98277500D02*
X70890000Y-97340001D01*
X70480000Y-96930001D02*
X70480000Y-95467500D01*
X70889999Y-100102499D02*
X69977500Y-99190000D01*
X70865000Y-107002500D02*
X70865000Y-106027499D01*
%TO.N,/CC2_1*%
X72365000Y-107002500D02*
X72365000Y-103017500D01*
D34*
%TO.N,Net-(U1-PD0)*%
X91395000Y-98592500D02*
X89377500Y-98592500D01*
D31*
X89377500Y-98592500D02*
X89367500Y-98602500D01*
X91380000Y-98602500D02*
X91390000Y-98592500D01*
D33*
%TO.N,Net-(D41-A)*%
X87935000Y-86947500D02*
X87935000Y-85672500D01*
X87935000Y-85672500D02*
X87935000Y-84447500D01*
X87935000Y-80697500D02*
X87935000Y-79447500D01*
X87940000Y-88197500D02*
X87940000Y-86952500D01*
X87935000Y-84447500D02*
X87935000Y-83197500D01*
X87935000Y-83197500D02*
X87935000Y-81947500D01*
X87940000Y-88197500D02*
X87960000Y-88217500D01*
X87935000Y-81947500D02*
X87935000Y-80697500D01*
X87940000Y-86952500D02*
X87935000Y-86947500D01*
%TO.N,Net-(D49-A)*%
X85835000Y-85697500D02*
X85835000Y-84447500D01*
X85835000Y-83197500D02*
X85835000Y-81947500D01*
X85840000Y-86952500D02*
X85835000Y-86947500D01*
X85835000Y-84447500D02*
X85835000Y-83197500D01*
X85835000Y-86947500D02*
X85835000Y-85697500D01*
X85835000Y-80697500D02*
X85835000Y-79447500D01*
X85835000Y-81947500D02*
X85835000Y-80697500D01*
X85840000Y-88197500D02*
X85840000Y-86952500D01*
%TO.N,Net-(D57-A)*%
X83755000Y-88197500D02*
X83755000Y-86967500D01*
X83735000Y-83197500D02*
X83735000Y-81947500D01*
X83735000Y-80697500D02*
X83735000Y-79447500D01*
X83735000Y-86947500D02*
X83735000Y-85697500D01*
X83735000Y-81947500D02*
X83735000Y-80697500D01*
X83735000Y-84447500D02*
X83735000Y-83197500D01*
X83735000Y-85697500D02*
X83735000Y-84447500D01*
D31*
%TO.N,/P_1*%
X83784625Y-106412500D02*
X84402108Y-106412500D01*
X84402108Y-106412500D02*
X85455000Y-105359608D01*
X83538595Y-106658530D02*
X83784625Y-106412500D01*
X85455000Y-105359608D02*
X85455000Y-103515000D01*
%TO.N,/P_2*%
X82995000Y-106217500D02*
X83300000Y-105912500D01*
X84955000Y-105152500D02*
X84955000Y-103515000D01*
X83300000Y-105912500D02*
X84195000Y-105912500D01*
X84195000Y-105912500D02*
X84955000Y-105152500D01*
%TO.N,/P_3*%
X84455000Y-104827500D02*
X84455000Y-103515000D01*
X84455000Y-105057500D02*
X84455000Y-104827500D01*
X83980000Y-105532500D02*
X84455000Y-105057500D01*
X82495000Y-105532500D02*
X83980000Y-105532500D01*
%TO.N,/P_4*%
X83455000Y-99532500D02*
X83455000Y-95190000D01*
X83465000Y-99542500D02*
X83455000Y-99532500D01*
%TO.N,/P_5*%
X83955000Y-98822500D02*
X83955000Y-95190000D01*
%TO.N,/P_6*%
X84455000Y-98037500D02*
X84455000Y-95190000D01*
%TO.N,/P_7*%
X84960000Y-97342500D02*
X84955000Y-97337500D01*
X84955000Y-97337500D02*
X84955000Y-95190000D01*
%TO.N,/P_8*%
X85455000Y-95190000D02*
X85455000Y-96357500D01*
X85455000Y-96447500D02*
X85455000Y-96452500D01*
X85455000Y-96357500D02*
X85455000Y-96447500D01*
X85455000Y-96452500D02*
X85455000Y-96677500D01*
X85455000Y-96677500D02*
X85460000Y-96682500D01*
%TO.N,Net-(Q9-B)*%
X79479176Y-84252500D02*
X79472500Y-84245824D01*
X79472500Y-84245824D02*
X79472500Y-83120000D01*
%TO.N,Net-(Q11-B)*%
X75925216Y-84267500D02*
X75925000Y-84267284D01*
%TO.N,/G_6*%
X79675000Y-101597500D02*
X81037500Y-101597500D01*
X81037500Y-101597500D02*
X81042500Y-101602500D01*
%TO.N,Net-(Q11-B)*%
X75925000Y-84267284D02*
X75925000Y-83127500D01*
%TO.N,/G_5*%
X79333662Y-102102500D02*
X81042500Y-102102500D01*
X79268666Y-102167496D02*
X79333662Y-102102500D01*
%TO.N,/G_4*%
X81805000Y-103027500D02*
X81812598Y-103027500D01*
X79297345Y-103185625D02*
X79389220Y-103277500D01*
%TO.N,Net-(Q13-B)*%
X72375000Y-84267500D02*
X72375000Y-83135000D01*
%TO.N,/G_4*%
X79389220Y-103277500D02*
X81555000Y-103277500D01*
%TO.N,Net-(Q13-B)*%
X72375000Y-83135000D02*
X72370000Y-83130000D01*
%TO.N,/G_4*%
X83455000Y-103515000D02*
X83455000Y-102777501D01*
X82263598Y-102576500D02*
X82035000Y-102805098D01*
X78829495Y-103185625D02*
X79297345Y-103185625D01*
X83455000Y-102777501D02*
X83253999Y-102576500D01*
X82035000Y-102805098D02*
X82035000Y-102807500D01*
X81555000Y-103277500D02*
X81805000Y-103027500D01*
X83253999Y-102576500D02*
X82263598Y-102576500D01*
X81812598Y-103027500D02*
X82035000Y-102805098D01*
%TO.N,/G_3*%
X80052518Y-102589854D02*
X80103912Y-102538460D01*
X79061145Y-102668496D02*
X79476187Y-102668496D01*
X83452999Y-102275500D02*
X83955000Y-102777501D01*
X83955000Y-102777501D02*
X83955000Y-103515000D01*
X79476187Y-102668496D02*
X79554829Y-102589854D01*
X81875960Y-102538460D02*
X82138920Y-102275500D01*
X78242646Y-102589854D02*
X78982503Y-102589854D01*
X80103912Y-102538460D02*
X81875960Y-102538460D01*
X79554829Y-102589854D02*
X80052518Y-102589854D01*
X78982503Y-102589854D02*
X79061145Y-102668496D01*
X78225000Y-102607500D02*
X78242646Y-102589854D01*
X82138920Y-102275500D02*
X83452999Y-102275500D01*
%TO.N,Net-(Q15-B)*%
X68832500Y-84264243D02*
X68829243Y-84267500D01*
X68832500Y-83130000D02*
X68832500Y-84264243D01*
%TO.N,/G_1*%
X79918521Y-93777500D02*
X78973521Y-94722500D01*
X86455000Y-94452501D02*
X85779999Y-93777500D01*
X85779999Y-93777500D02*
X81425000Y-93777500D01*
X86455000Y-95190000D02*
X86455000Y-94452501D01*
X81425000Y-93777500D02*
X79918521Y-93777500D01*
X78973521Y-94722500D02*
X78255000Y-94722500D01*
D34*
%TO.N,UART_+*%
X78431249Y-99152500D02*
X78426249Y-99157500D01*
X75560000Y-96930001D02*
X75560000Y-95467500D01*
X75125000Y-98484656D02*
X75125000Y-97365001D01*
X81042500Y-99102500D02*
X79936249Y-99102500D01*
X78426249Y-99157500D02*
X75797844Y-99157500D01*
X79886249Y-99152500D02*
X78431249Y-99152500D01*
X75797844Y-99157500D02*
X75125000Y-98484656D01*
X79936249Y-99102500D02*
X79886249Y-99152500D01*
X75125000Y-97365001D02*
X75560000Y-96930001D01*
%TO.N,UART_-*%
X78579321Y-99557500D02*
X75632156Y-99557500D01*
X75632156Y-99557500D02*
X74725000Y-98650344D01*
X81042500Y-99602500D02*
X79936249Y-99602500D01*
X74725000Y-98650344D02*
X74725000Y-97365001D01*
X79886249Y-99552500D02*
X78584321Y-99552500D01*
X74725000Y-97365001D02*
X74290000Y-96930001D01*
X74290000Y-96930001D02*
X74290000Y-95467500D01*
X79936249Y-99602500D02*
X79886249Y-99552500D01*
X78584321Y-99552500D02*
X78579321Y-99557500D01*
%TD*%
M02*
