%TF.GenerationSoftware,KiCad,Pcbnew,9.0.3*%
%TF.CreationDate,2026-06-21T23:03:53+05:30*%
%TF.ProjectId,Elo_112,456c6f5f-3131-4322-9e6b-696361645f70,rev?*%
%TF.SameCoordinates,Original*%
%TF.FileFunction,Legend,Bot*%
%TF.FilePolarity,Positive*%
%FSLAX46Y46*%
G04 Gerber Fmt 4.6, Leading zero omitted, Abs format (unit mm)*
G04 Created by KiCad (PCBNEW 9.0.3) date 2026-06-21 23:03:53*
%MOMM*%
%LPD*%
G01*
G04 APERTURE LIST*
%ADD10C,0.150000*%
%ADD11C,0.120000*%
%ADD12C,0.152400*%
%ADD13C,0.200000*%
%ADD14C,0.250000*%
G04 APERTURE END LIST*
D10*
X82939285Y-113519819D02*
X82939285Y-112519819D01*
X82939285Y-112519819D02*
X82701190Y-112519819D01*
X82701190Y-112519819D02*
X82558333Y-112567438D01*
X82558333Y-112567438D02*
X82463095Y-112662676D01*
X82463095Y-112662676D02*
X82415476Y-112757914D01*
X82415476Y-112757914D02*
X82367857Y-112948390D01*
X82367857Y-112948390D02*
X82367857Y-113091247D01*
X82367857Y-113091247D02*
X82415476Y-113281723D01*
X82415476Y-113281723D02*
X82463095Y-113376961D01*
X82463095Y-113376961D02*
X82558333Y-113472200D01*
X82558333Y-113472200D02*
X82701190Y-113519819D01*
X82701190Y-113519819D02*
X82939285Y-113519819D01*
X81510714Y-112519819D02*
X81701190Y-112519819D01*
X81701190Y-112519819D02*
X81796428Y-112567438D01*
X81796428Y-112567438D02*
X81844047Y-112615057D01*
X81844047Y-112615057D02*
X81939285Y-112757914D01*
X81939285Y-112757914D02*
X81986904Y-112948390D01*
X81986904Y-112948390D02*
X81986904Y-113329342D01*
X81986904Y-113329342D02*
X81939285Y-113424580D01*
X81939285Y-113424580D02*
X81891666Y-113472200D01*
X81891666Y-113472200D02*
X81796428Y-113519819D01*
X81796428Y-113519819D02*
X81605952Y-113519819D01*
X81605952Y-113519819D02*
X81510714Y-113472200D01*
X81510714Y-113472200D02*
X81463095Y-113424580D01*
X81463095Y-113424580D02*
X81415476Y-113329342D01*
X81415476Y-113329342D02*
X81415476Y-113091247D01*
X81415476Y-113091247D02*
X81463095Y-112996009D01*
X81463095Y-112996009D02*
X81510714Y-112948390D01*
X81510714Y-112948390D02*
X81605952Y-112900771D01*
X81605952Y-112900771D02*
X81796428Y-112900771D01*
X81796428Y-112900771D02*
X81891666Y-112948390D01*
X81891666Y-112948390D02*
X81939285Y-112996009D01*
X81939285Y-112996009D02*
X81986904Y-113091247D01*
X81082142Y-112519819D02*
X80415476Y-112519819D01*
X80415476Y-112519819D02*
X80844047Y-113519819D01*
X78017800Y-111583332D02*
X77970180Y-111440475D01*
X77970180Y-111440475D02*
X77970180Y-111202380D01*
X77970180Y-111202380D02*
X78017800Y-111107142D01*
X78017800Y-111107142D02*
X78065419Y-111059523D01*
X78065419Y-111059523D02*
X78160657Y-111011904D01*
X78160657Y-111011904D02*
X78255895Y-111011904D01*
X78255895Y-111011904D02*
X78351133Y-111059523D01*
X78351133Y-111059523D02*
X78398752Y-111107142D01*
X78398752Y-111107142D02*
X78446371Y-111202380D01*
X78446371Y-111202380D02*
X78493990Y-111392856D01*
X78493990Y-111392856D02*
X78541609Y-111488094D01*
X78541609Y-111488094D02*
X78589228Y-111535713D01*
X78589228Y-111535713D02*
X78684466Y-111583332D01*
X78684466Y-111583332D02*
X78779704Y-111583332D01*
X78779704Y-111583332D02*
X78874942Y-111535713D01*
X78874942Y-111535713D02*
X78922561Y-111488094D01*
X78922561Y-111488094D02*
X78970180Y-111392856D01*
X78970180Y-111392856D02*
X78970180Y-111154761D01*
X78970180Y-111154761D02*
X78922561Y-111011904D01*
X78970180Y-110678570D02*
X77970180Y-110440475D01*
X77970180Y-110440475D02*
X78684466Y-110249999D01*
X78684466Y-110249999D02*
X77970180Y-110059523D01*
X77970180Y-110059523D02*
X78970180Y-109821428D01*
X77970180Y-108916666D02*
X77970180Y-109488094D01*
X77970180Y-109202380D02*
X78970180Y-109202380D01*
X78970180Y-109202380D02*
X78827323Y-109297618D01*
X78827323Y-109297618D02*
X78732085Y-109392856D01*
X78732085Y-109392856D02*
X78684466Y-109488094D01*
X79572857Y-116339819D02*
X79906190Y-115863628D01*
X80144285Y-116339819D02*
X80144285Y-115339819D01*
X80144285Y-115339819D02*
X79763333Y-115339819D01*
X79763333Y-115339819D02*
X79668095Y-115387438D01*
X79668095Y-115387438D02*
X79620476Y-115435057D01*
X79620476Y-115435057D02*
X79572857Y-115530295D01*
X79572857Y-115530295D02*
X79572857Y-115673152D01*
X79572857Y-115673152D02*
X79620476Y-115768390D01*
X79620476Y-115768390D02*
X79668095Y-115816009D01*
X79668095Y-115816009D02*
X79763333Y-115863628D01*
X79763333Y-115863628D02*
X80144285Y-115863628D01*
X79191904Y-115435057D02*
X79144285Y-115387438D01*
X79144285Y-115387438D02*
X79049047Y-115339819D01*
X79049047Y-115339819D02*
X78810952Y-115339819D01*
X78810952Y-115339819D02*
X78715714Y-115387438D01*
X78715714Y-115387438D02*
X78668095Y-115435057D01*
X78668095Y-115435057D02*
X78620476Y-115530295D01*
X78620476Y-115530295D02*
X78620476Y-115625533D01*
X78620476Y-115625533D02*
X78668095Y-115768390D01*
X78668095Y-115768390D02*
X79239523Y-116339819D01*
X79239523Y-116339819D02*
X78620476Y-116339819D01*
X78287142Y-115339819D02*
X77668095Y-115339819D01*
X77668095Y-115339819D02*
X78001428Y-115720771D01*
X78001428Y-115720771D02*
X77858571Y-115720771D01*
X77858571Y-115720771D02*
X77763333Y-115768390D01*
X77763333Y-115768390D02*
X77715714Y-115816009D01*
X77715714Y-115816009D02*
X77668095Y-115911247D01*
X77668095Y-115911247D02*
X77668095Y-116149342D01*
X77668095Y-116149342D02*
X77715714Y-116244580D01*
X77715714Y-116244580D02*
X77763333Y-116292200D01*
X77763333Y-116292200D02*
X77858571Y-116339819D01*
X77858571Y-116339819D02*
X78144285Y-116339819D01*
X78144285Y-116339819D02*
X78239523Y-116292200D01*
X78239523Y-116292200D02*
X78287142Y-116244580D01*
X81677800Y-111592332D02*
X81630180Y-111449475D01*
X81630180Y-111449475D02*
X81630180Y-111211380D01*
X81630180Y-111211380D02*
X81677800Y-111116142D01*
X81677800Y-111116142D02*
X81725419Y-111068523D01*
X81725419Y-111068523D02*
X81820657Y-111020904D01*
X81820657Y-111020904D02*
X81915895Y-111020904D01*
X81915895Y-111020904D02*
X82011133Y-111068523D01*
X82011133Y-111068523D02*
X82058752Y-111116142D01*
X82058752Y-111116142D02*
X82106371Y-111211380D01*
X82106371Y-111211380D02*
X82153990Y-111401856D01*
X82153990Y-111401856D02*
X82201609Y-111497094D01*
X82201609Y-111497094D02*
X82249228Y-111544713D01*
X82249228Y-111544713D02*
X82344466Y-111592332D01*
X82344466Y-111592332D02*
X82439704Y-111592332D01*
X82439704Y-111592332D02*
X82534942Y-111544713D01*
X82534942Y-111544713D02*
X82582561Y-111497094D01*
X82582561Y-111497094D02*
X82630180Y-111401856D01*
X82630180Y-111401856D02*
X82630180Y-111163761D01*
X82630180Y-111163761D02*
X82582561Y-111020904D01*
X82630180Y-110687570D02*
X81630180Y-110449475D01*
X81630180Y-110449475D02*
X82344466Y-110258999D01*
X82344466Y-110258999D02*
X81630180Y-110068523D01*
X81630180Y-110068523D02*
X82630180Y-109830428D01*
X82534942Y-109497094D02*
X82582561Y-109449475D01*
X82582561Y-109449475D02*
X82630180Y-109354237D01*
X82630180Y-109354237D02*
X82630180Y-109116142D01*
X82630180Y-109116142D02*
X82582561Y-109020904D01*
X82582561Y-109020904D02*
X82534942Y-108973285D01*
X82534942Y-108973285D02*
X82439704Y-108925666D01*
X82439704Y-108925666D02*
X82344466Y-108925666D01*
X82344466Y-108925666D02*
X82201609Y-108973285D01*
X82201609Y-108973285D02*
X81630180Y-109544713D01*
X81630180Y-109544713D02*
X81630180Y-108925666D01*
X75101904Y-95709819D02*
X75101904Y-96519342D01*
X75101904Y-96519342D02*
X75054285Y-96614580D01*
X75054285Y-96614580D02*
X75006666Y-96662200D01*
X75006666Y-96662200D02*
X74911428Y-96709819D01*
X74911428Y-96709819D02*
X74720952Y-96709819D01*
X74720952Y-96709819D02*
X74625714Y-96662200D01*
X74625714Y-96662200D02*
X74578095Y-96614580D01*
X74578095Y-96614580D02*
X74530476Y-96519342D01*
X74530476Y-96519342D02*
X74530476Y-95709819D01*
X73530476Y-96709819D02*
X74101904Y-96709819D01*
X73816190Y-96709819D02*
X73816190Y-95709819D01*
X73816190Y-95709819D02*
X73911428Y-95852676D01*
X73911428Y-95852676D02*
X74006666Y-95947914D01*
X74006666Y-95947914D02*
X74101904Y-95995533D01*
X78883628Y-99818809D02*
X79359819Y-99818809D01*
X78359819Y-99485476D02*
X78883628Y-99818809D01*
X78883628Y-99818809D02*
X78359819Y-100152142D01*
X79359819Y-101009285D02*
X79359819Y-100437857D01*
X79359819Y-100723571D02*
X78359819Y-100723571D01*
X78359819Y-100723571D02*
X78502676Y-100628333D01*
X78502676Y-100628333D02*
X78597914Y-100533095D01*
X78597914Y-100533095D02*
X78645533Y-100437857D01*
X70236666Y-105774580D02*
X70284285Y-105822200D01*
X70284285Y-105822200D02*
X70427142Y-105869819D01*
X70427142Y-105869819D02*
X70522380Y-105869819D01*
X70522380Y-105869819D02*
X70665237Y-105822200D01*
X70665237Y-105822200D02*
X70760475Y-105726961D01*
X70760475Y-105726961D02*
X70808094Y-105631723D01*
X70808094Y-105631723D02*
X70855713Y-105441247D01*
X70855713Y-105441247D02*
X70855713Y-105298390D01*
X70855713Y-105298390D02*
X70808094Y-105107914D01*
X70808094Y-105107914D02*
X70760475Y-105012676D01*
X70760475Y-105012676D02*
X70665237Y-104917438D01*
X70665237Y-104917438D02*
X70522380Y-104869819D01*
X70522380Y-104869819D02*
X70427142Y-104869819D01*
X70427142Y-104869819D02*
X70284285Y-104917438D01*
X70284285Y-104917438D02*
X70236666Y-104965057D01*
X69665237Y-105298390D02*
X69760475Y-105250771D01*
X69760475Y-105250771D02*
X69808094Y-105203152D01*
X69808094Y-105203152D02*
X69855713Y-105107914D01*
X69855713Y-105107914D02*
X69855713Y-105060295D01*
X69855713Y-105060295D02*
X69808094Y-104965057D01*
X69808094Y-104965057D02*
X69760475Y-104917438D01*
X69760475Y-104917438D02*
X69665237Y-104869819D01*
X69665237Y-104869819D02*
X69474761Y-104869819D01*
X69474761Y-104869819D02*
X69379523Y-104917438D01*
X69379523Y-104917438D02*
X69331904Y-104965057D01*
X69331904Y-104965057D02*
X69284285Y-105060295D01*
X69284285Y-105060295D02*
X69284285Y-105107914D01*
X69284285Y-105107914D02*
X69331904Y-105203152D01*
X69331904Y-105203152D02*
X69379523Y-105250771D01*
X69379523Y-105250771D02*
X69474761Y-105298390D01*
X69474761Y-105298390D02*
X69665237Y-105298390D01*
X69665237Y-105298390D02*
X69760475Y-105346009D01*
X69760475Y-105346009D02*
X69808094Y-105393628D01*
X69808094Y-105393628D02*
X69855713Y-105488866D01*
X69855713Y-105488866D02*
X69855713Y-105679342D01*
X69855713Y-105679342D02*
X69808094Y-105774580D01*
X69808094Y-105774580D02*
X69760475Y-105822200D01*
X69760475Y-105822200D02*
X69665237Y-105869819D01*
X69665237Y-105869819D02*
X69474761Y-105869819D01*
X69474761Y-105869819D02*
X69379523Y-105822200D01*
X69379523Y-105822200D02*
X69331904Y-105774580D01*
X69331904Y-105774580D02*
X69284285Y-105679342D01*
X69284285Y-105679342D02*
X69284285Y-105488866D01*
X69284285Y-105488866D02*
X69331904Y-105393628D01*
X69331904Y-105393628D02*
X69379523Y-105346009D01*
X69379523Y-105346009D02*
X69474761Y-105298390D01*
X66769580Y-99673333D02*
X66817200Y-99625714D01*
X66817200Y-99625714D02*
X66864819Y-99482857D01*
X66864819Y-99482857D02*
X66864819Y-99387619D01*
X66864819Y-99387619D02*
X66817200Y-99244762D01*
X66817200Y-99244762D02*
X66721961Y-99149524D01*
X66721961Y-99149524D02*
X66626723Y-99101905D01*
X66626723Y-99101905D02*
X66436247Y-99054286D01*
X66436247Y-99054286D02*
X66293390Y-99054286D01*
X66293390Y-99054286D02*
X66102914Y-99101905D01*
X66102914Y-99101905D02*
X66007676Y-99149524D01*
X66007676Y-99149524D02*
X65912438Y-99244762D01*
X65912438Y-99244762D02*
X65864819Y-99387619D01*
X65864819Y-99387619D02*
X65864819Y-99482857D01*
X65864819Y-99482857D02*
X65912438Y-99625714D01*
X65912438Y-99625714D02*
X65960057Y-99673333D01*
X66864819Y-100625714D02*
X66864819Y-100054286D01*
X66864819Y-100340000D02*
X65864819Y-100340000D01*
X65864819Y-100340000D02*
X66007676Y-100244762D01*
X66007676Y-100244762D02*
X66102914Y-100149524D01*
X66102914Y-100149524D02*
X66150533Y-100054286D01*
X67789580Y-99668333D02*
X67837200Y-99620714D01*
X67837200Y-99620714D02*
X67884819Y-99477857D01*
X67884819Y-99477857D02*
X67884819Y-99382619D01*
X67884819Y-99382619D02*
X67837200Y-99239762D01*
X67837200Y-99239762D02*
X67741961Y-99144524D01*
X67741961Y-99144524D02*
X67646723Y-99096905D01*
X67646723Y-99096905D02*
X67456247Y-99049286D01*
X67456247Y-99049286D02*
X67313390Y-99049286D01*
X67313390Y-99049286D02*
X67122914Y-99096905D01*
X67122914Y-99096905D02*
X67027676Y-99144524D01*
X67027676Y-99144524D02*
X66932438Y-99239762D01*
X66932438Y-99239762D02*
X66884819Y-99382619D01*
X66884819Y-99382619D02*
X66884819Y-99477857D01*
X66884819Y-99477857D02*
X66932438Y-99620714D01*
X66932438Y-99620714D02*
X66980057Y-99668333D01*
X66884819Y-100573095D02*
X66884819Y-100096905D01*
X66884819Y-100096905D02*
X67361009Y-100049286D01*
X67361009Y-100049286D02*
X67313390Y-100096905D01*
X67313390Y-100096905D02*
X67265771Y-100192143D01*
X67265771Y-100192143D02*
X67265771Y-100430238D01*
X67265771Y-100430238D02*
X67313390Y-100525476D01*
X67313390Y-100525476D02*
X67361009Y-100573095D01*
X67361009Y-100573095D02*
X67456247Y-100620714D01*
X67456247Y-100620714D02*
X67694342Y-100620714D01*
X67694342Y-100620714D02*
X67789580Y-100573095D01*
X67789580Y-100573095D02*
X67837200Y-100525476D01*
X67837200Y-100525476D02*
X67884819Y-100430238D01*
X67884819Y-100430238D02*
X67884819Y-100192143D01*
X67884819Y-100192143D02*
X67837200Y-100096905D01*
X67837200Y-100096905D02*
X67789580Y-100049286D01*
X81657857Y-99124580D02*
X81705476Y-99172200D01*
X81705476Y-99172200D02*
X81848333Y-99219819D01*
X81848333Y-99219819D02*
X81943571Y-99219819D01*
X81943571Y-99219819D02*
X82086428Y-99172200D01*
X82086428Y-99172200D02*
X82181666Y-99076961D01*
X82181666Y-99076961D02*
X82229285Y-98981723D01*
X82229285Y-98981723D02*
X82276904Y-98791247D01*
X82276904Y-98791247D02*
X82276904Y-98648390D01*
X82276904Y-98648390D02*
X82229285Y-98457914D01*
X82229285Y-98457914D02*
X82181666Y-98362676D01*
X82181666Y-98362676D02*
X82086428Y-98267438D01*
X82086428Y-98267438D02*
X81943571Y-98219819D01*
X81943571Y-98219819D02*
X81848333Y-98219819D01*
X81848333Y-98219819D02*
X81705476Y-98267438D01*
X81705476Y-98267438D02*
X81657857Y-98315057D01*
X80705476Y-99219819D02*
X81276904Y-99219819D01*
X80991190Y-99219819D02*
X80991190Y-98219819D01*
X80991190Y-98219819D02*
X81086428Y-98362676D01*
X81086428Y-98362676D02*
X81181666Y-98457914D01*
X81181666Y-98457914D02*
X81276904Y-98505533D01*
X80372142Y-98219819D02*
X79753095Y-98219819D01*
X79753095Y-98219819D02*
X80086428Y-98600771D01*
X80086428Y-98600771D02*
X79943571Y-98600771D01*
X79943571Y-98600771D02*
X79848333Y-98648390D01*
X79848333Y-98648390D02*
X79800714Y-98696009D01*
X79800714Y-98696009D02*
X79753095Y-98791247D01*
X79753095Y-98791247D02*
X79753095Y-99029342D01*
X79753095Y-99029342D02*
X79800714Y-99124580D01*
X79800714Y-99124580D02*
X79848333Y-99172200D01*
X79848333Y-99172200D02*
X79943571Y-99219819D01*
X79943571Y-99219819D02*
X80229285Y-99219819D01*
X80229285Y-99219819D02*
X80324523Y-99172200D01*
X80324523Y-99172200D02*
X80372142Y-99124580D01*
X58733628Y-101343809D02*
X59209819Y-101343809D01*
X58209819Y-101010476D02*
X58733628Y-101343809D01*
X58733628Y-101343809D02*
X58209819Y-101677142D01*
X58209819Y-101915238D02*
X58209819Y-102534285D01*
X58209819Y-102534285D02*
X58590771Y-102200952D01*
X58590771Y-102200952D02*
X58590771Y-102343809D01*
X58590771Y-102343809D02*
X58638390Y-102439047D01*
X58638390Y-102439047D02*
X58686009Y-102486666D01*
X58686009Y-102486666D02*
X58781247Y-102534285D01*
X58781247Y-102534285D02*
X59019342Y-102534285D01*
X59019342Y-102534285D02*
X59114580Y-102486666D01*
X59114580Y-102486666D02*
X59162200Y-102439047D01*
X59162200Y-102439047D02*
X59209819Y-102343809D01*
X59209819Y-102343809D02*
X59209819Y-102058095D01*
X59209819Y-102058095D02*
X59162200Y-101962857D01*
X59162200Y-101962857D02*
X59114580Y-101915238D01*
X71718095Y-112647680D02*
X71718095Y-111838157D01*
X71718095Y-111838157D02*
X71765714Y-111742919D01*
X71765714Y-111742919D02*
X71813333Y-111695300D01*
X71813333Y-111695300D02*
X71908571Y-111647680D01*
X71908571Y-111647680D02*
X72099047Y-111647680D01*
X72099047Y-111647680D02*
X72194285Y-111695300D01*
X72194285Y-111695300D02*
X72241904Y-111742919D01*
X72241904Y-111742919D02*
X72289523Y-111838157D01*
X72289523Y-111838157D02*
X72289523Y-112647680D01*
X73194285Y-112314347D02*
X73194285Y-111647680D01*
X72956190Y-112695300D02*
X72718095Y-111981014D01*
X72718095Y-111981014D02*
X73337142Y-111981014D01*
X64506514Y-116219680D02*
X64506514Y-117219680D01*
X64506514Y-117219680D02*
X64744609Y-117219680D01*
X64744609Y-117219680D02*
X64887466Y-117172061D01*
X64887466Y-117172061D02*
X64982704Y-117076823D01*
X64982704Y-117076823D02*
X65030323Y-116981585D01*
X65030323Y-116981585D02*
X65077942Y-116791109D01*
X65077942Y-116791109D02*
X65077942Y-116648252D01*
X65077942Y-116648252D02*
X65030323Y-116457776D01*
X65030323Y-116457776D02*
X64982704Y-116362538D01*
X64982704Y-116362538D02*
X64887466Y-116267300D01*
X64887466Y-116267300D02*
X64744609Y-116219680D01*
X64744609Y-116219680D02*
X64506514Y-116219680D01*
X65887466Y-116267300D02*
X65792228Y-116219680D01*
X65792228Y-116219680D02*
X65601752Y-116219680D01*
X65601752Y-116219680D02*
X65506514Y-116267300D01*
X65506514Y-116267300D02*
X65458895Y-116362538D01*
X65458895Y-116362538D02*
X65458895Y-116743490D01*
X65458895Y-116743490D02*
X65506514Y-116838728D01*
X65506514Y-116838728D02*
X65601752Y-116886347D01*
X65601752Y-116886347D02*
X65792228Y-116886347D01*
X65792228Y-116886347D02*
X65887466Y-116838728D01*
X65887466Y-116838728D02*
X65935085Y-116743490D01*
X65935085Y-116743490D02*
X65935085Y-116648252D01*
X65935085Y-116648252D02*
X65458895Y-116553014D01*
X66316038Y-116267300D02*
X66411276Y-116219680D01*
X66411276Y-116219680D02*
X66601752Y-116219680D01*
X66601752Y-116219680D02*
X66696990Y-116267300D01*
X66696990Y-116267300D02*
X66744609Y-116362538D01*
X66744609Y-116362538D02*
X66744609Y-116410157D01*
X66744609Y-116410157D02*
X66696990Y-116505395D01*
X66696990Y-116505395D02*
X66601752Y-116553014D01*
X66601752Y-116553014D02*
X66458895Y-116553014D01*
X66458895Y-116553014D02*
X66363657Y-116600633D01*
X66363657Y-116600633D02*
X66316038Y-116695871D01*
X66316038Y-116695871D02*
X66316038Y-116743490D01*
X66316038Y-116743490D02*
X66363657Y-116838728D01*
X66363657Y-116838728D02*
X66458895Y-116886347D01*
X66458895Y-116886347D02*
X66601752Y-116886347D01*
X66601752Y-116886347D02*
X66696990Y-116838728D01*
X67173181Y-116219680D02*
X67173181Y-116886347D01*
X67173181Y-117219680D02*
X67125562Y-117172061D01*
X67125562Y-117172061D02*
X67173181Y-117124442D01*
X67173181Y-117124442D02*
X67220800Y-117172061D01*
X67220800Y-117172061D02*
X67173181Y-117219680D01*
X67173181Y-117219680D02*
X67173181Y-117124442D01*
X68077942Y-116886347D02*
X68077942Y-116076823D01*
X68077942Y-116076823D02*
X68030323Y-115981585D01*
X68030323Y-115981585D02*
X67982704Y-115933966D01*
X67982704Y-115933966D02*
X67887466Y-115886347D01*
X67887466Y-115886347D02*
X67744609Y-115886347D01*
X67744609Y-115886347D02*
X67649371Y-115933966D01*
X68077942Y-116267300D02*
X67982704Y-116219680D01*
X67982704Y-116219680D02*
X67792228Y-116219680D01*
X67792228Y-116219680D02*
X67696990Y-116267300D01*
X67696990Y-116267300D02*
X67649371Y-116314919D01*
X67649371Y-116314919D02*
X67601752Y-116410157D01*
X67601752Y-116410157D02*
X67601752Y-116695871D01*
X67601752Y-116695871D02*
X67649371Y-116791109D01*
X67649371Y-116791109D02*
X67696990Y-116838728D01*
X67696990Y-116838728D02*
X67792228Y-116886347D01*
X67792228Y-116886347D02*
X67982704Y-116886347D01*
X67982704Y-116886347D02*
X68077942Y-116838728D01*
X68554133Y-116886347D02*
X68554133Y-116219680D01*
X68554133Y-116791109D02*
X68601752Y-116838728D01*
X68601752Y-116838728D02*
X68696990Y-116886347D01*
X68696990Y-116886347D02*
X68839847Y-116886347D01*
X68839847Y-116886347D02*
X68935085Y-116838728D01*
X68935085Y-116838728D02*
X68982704Y-116743490D01*
X68982704Y-116743490D02*
X68982704Y-116219680D01*
X69887466Y-116219680D02*
X69887466Y-116743490D01*
X69887466Y-116743490D02*
X69839847Y-116838728D01*
X69839847Y-116838728D02*
X69744609Y-116886347D01*
X69744609Y-116886347D02*
X69554133Y-116886347D01*
X69554133Y-116886347D02*
X69458895Y-116838728D01*
X69887466Y-116267300D02*
X69792228Y-116219680D01*
X69792228Y-116219680D02*
X69554133Y-116219680D01*
X69554133Y-116219680D02*
X69458895Y-116267300D01*
X69458895Y-116267300D02*
X69411276Y-116362538D01*
X69411276Y-116362538D02*
X69411276Y-116457776D01*
X69411276Y-116457776D02*
X69458895Y-116553014D01*
X69458895Y-116553014D02*
X69554133Y-116600633D01*
X69554133Y-116600633D02*
X69792228Y-116600633D01*
X69792228Y-116600633D02*
X69887466Y-116648252D01*
X70220800Y-116886347D02*
X70601752Y-116886347D01*
X70363657Y-117219680D02*
X70363657Y-116362538D01*
X70363657Y-116362538D02*
X70411276Y-116267300D01*
X70411276Y-116267300D02*
X70506514Y-116219680D01*
X70506514Y-116219680D02*
X70601752Y-116219680D01*
X71077943Y-116219680D02*
X70982705Y-116267300D01*
X70982705Y-116267300D02*
X70935086Y-116314919D01*
X70935086Y-116314919D02*
X70887467Y-116410157D01*
X70887467Y-116410157D02*
X70887467Y-116695871D01*
X70887467Y-116695871D02*
X70935086Y-116791109D01*
X70935086Y-116791109D02*
X70982705Y-116838728D01*
X70982705Y-116838728D02*
X71077943Y-116886347D01*
X71077943Y-116886347D02*
X71220800Y-116886347D01*
X71220800Y-116886347D02*
X71316038Y-116838728D01*
X71316038Y-116838728D02*
X71363657Y-116791109D01*
X71363657Y-116791109D02*
X71411276Y-116695871D01*
X71411276Y-116695871D02*
X71411276Y-116410157D01*
X71411276Y-116410157D02*
X71363657Y-116314919D01*
X71363657Y-116314919D02*
X71316038Y-116267300D01*
X71316038Y-116267300D02*
X71220800Y-116219680D01*
X71220800Y-116219680D02*
X71077943Y-116219680D01*
X71839848Y-116219680D02*
X71839848Y-116886347D01*
X71839848Y-116695871D02*
X71887467Y-116791109D01*
X71887467Y-116791109D02*
X71935086Y-116838728D01*
X71935086Y-116838728D02*
X72030324Y-116886347D01*
X72030324Y-116886347D02*
X72125562Y-116886347D01*
X72506515Y-116219680D02*
X72696991Y-116219680D01*
X72696991Y-116219680D02*
X72792229Y-116267300D01*
X72792229Y-116267300D02*
X72839848Y-116314919D01*
X72839848Y-116314919D02*
X72935086Y-116457776D01*
X72935086Y-116457776D02*
X72982705Y-116648252D01*
X72982705Y-116648252D02*
X72982705Y-117029204D01*
X72982705Y-117029204D02*
X72935086Y-117124442D01*
X72935086Y-117124442D02*
X72887467Y-117172061D01*
X72887467Y-117172061D02*
X72792229Y-117219680D01*
X72792229Y-117219680D02*
X72601753Y-117219680D01*
X72601753Y-117219680D02*
X72506515Y-117172061D01*
X72506515Y-117172061D02*
X72458896Y-117124442D01*
X72458896Y-117124442D02*
X72411277Y-117029204D01*
X72411277Y-117029204D02*
X72411277Y-116791109D01*
X72411277Y-116791109D02*
X72458896Y-116695871D01*
X72458896Y-116695871D02*
X72506515Y-116648252D01*
X72506515Y-116648252D02*
X72601753Y-116600633D01*
X72601753Y-116600633D02*
X72792229Y-116600633D01*
X72792229Y-116600633D02*
X72887467Y-116648252D01*
X72887467Y-116648252D02*
X72935086Y-116695871D01*
X72935086Y-116695871D02*
X72982705Y-116791109D01*
X66874819Y-94983095D02*
X67684342Y-94983095D01*
X67684342Y-94983095D02*
X67779580Y-95030714D01*
X67779580Y-95030714D02*
X67827200Y-95078333D01*
X67827200Y-95078333D02*
X67874819Y-95173571D01*
X67874819Y-95173571D02*
X67874819Y-95364047D01*
X67874819Y-95364047D02*
X67827200Y-95459285D01*
X67827200Y-95459285D02*
X67779580Y-95506904D01*
X67779580Y-95506904D02*
X67684342Y-95554523D01*
X67684342Y-95554523D02*
X66874819Y-95554523D01*
X66970057Y-95983095D02*
X66922438Y-96030714D01*
X66922438Y-96030714D02*
X66874819Y-96125952D01*
X66874819Y-96125952D02*
X66874819Y-96364047D01*
X66874819Y-96364047D02*
X66922438Y-96459285D01*
X66922438Y-96459285D02*
X66970057Y-96506904D01*
X66970057Y-96506904D02*
X67065295Y-96554523D01*
X67065295Y-96554523D02*
X67160533Y-96554523D01*
X67160533Y-96554523D02*
X67303390Y-96506904D01*
X67303390Y-96506904D02*
X67874819Y-95935476D01*
X67874819Y-95935476D02*
X67874819Y-96554523D01*
X59967557Y-84373571D02*
X59919938Y-84278333D01*
X59919938Y-84278333D02*
X59824700Y-84183095D01*
X59824700Y-84183095D02*
X59681842Y-84040238D01*
X59681842Y-84040238D02*
X59634223Y-83945000D01*
X59634223Y-83945000D02*
X59634223Y-83849762D01*
X59872319Y-83897381D02*
X59824700Y-83802143D01*
X59824700Y-83802143D02*
X59729461Y-83706905D01*
X59729461Y-83706905D02*
X59538985Y-83659286D01*
X59538985Y-83659286D02*
X59205652Y-83659286D01*
X59205652Y-83659286D02*
X59015176Y-83706905D01*
X59015176Y-83706905D02*
X58919938Y-83802143D01*
X58919938Y-83802143D02*
X58872319Y-83897381D01*
X58872319Y-83897381D02*
X58872319Y-84087857D01*
X58872319Y-84087857D02*
X58919938Y-84183095D01*
X58919938Y-84183095D02*
X59015176Y-84278333D01*
X59015176Y-84278333D02*
X59205652Y-84325952D01*
X59205652Y-84325952D02*
X59538985Y-84325952D01*
X59538985Y-84325952D02*
X59729461Y-84278333D01*
X59729461Y-84278333D02*
X59824700Y-84183095D01*
X59824700Y-84183095D02*
X59872319Y-84087857D01*
X59872319Y-84087857D02*
X59872319Y-83897381D01*
X59872319Y-85278333D02*
X59872319Y-84706905D01*
X59872319Y-84992619D02*
X58872319Y-84992619D01*
X58872319Y-84992619D02*
X59015176Y-84897381D01*
X59015176Y-84897381D02*
X59110414Y-84802143D01*
X59110414Y-84802143D02*
X59158033Y-84706905D01*
X58872319Y-86183095D02*
X58872319Y-85706905D01*
X58872319Y-85706905D02*
X59348509Y-85659286D01*
X59348509Y-85659286D02*
X59300890Y-85706905D01*
X59300890Y-85706905D02*
X59253271Y-85802143D01*
X59253271Y-85802143D02*
X59253271Y-86040238D01*
X59253271Y-86040238D02*
X59300890Y-86135476D01*
X59300890Y-86135476D02*
X59348509Y-86183095D01*
X59348509Y-86183095D02*
X59443747Y-86230714D01*
X59443747Y-86230714D02*
X59681842Y-86230714D01*
X59681842Y-86230714D02*
X59777080Y-86183095D01*
X59777080Y-86183095D02*
X59824700Y-86135476D01*
X59824700Y-86135476D02*
X59872319Y-86040238D01*
X59872319Y-86040238D02*
X59872319Y-85802143D01*
X59872319Y-85802143D02*
X59824700Y-85706905D01*
X59824700Y-85706905D02*
X59777080Y-85659286D01*
X63505057Y-84373571D02*
X63457438Y-84278333D01*
X63457438Y-84278333D02*
X63362200Y-84183095D01*
X63362200Y-84183095D02*
X63219342Y-84040238D01*
X63219342Y-84040238D02*
X63171723Y-83945000D01*
X63171723Y-83945000D02*
X63171723Y-83849762D01*
X63409819Y-83897381D02*
X63362200Y-83802143D01*
X63362200Y-83802143D02*
X63266961Y-83706905D01*
X63266961Y-83706905D02*
X63076485Y-83659286D01*
X63076485Y-83659286D02*
X62743152Y-83659286D01*
X62743152Y-83659286D02*
X62552676Y-83706905D01*
X62552676Y-83706905D02*
X62457438Y-83802143D01*
X62457438Y-83802143D02*
X62409819Y-83897381D01*
X62409819Y-83897381D02*
X62409819Y-84087857D01*
X62409819Y-84087857D02*
X62457438Y-84183095D01*
X62457438Y-84183095D02*
X62552676Y-84278333D01*
X62552676Y-84278333D02*
X62743152Y-84325952D01*
X62743152Y-84325952D02*
X63076485Y-84325952D01*
X63076485Y-84325952D02*
X63266961Y-84278333D01*
X63266961Y-84278333D02*
X63362200Y-84183095D01*
X63362200Y-84183095D02*
X63409819Y-84087857D01*
X63409819Y-84087857D02*
X63409819Y-83897381D01*
X63409819Y-85278333D02*
X63409819Y-84706905D01*
X63409819Y-84992619D02*
X62409819Y-84992619D01*
X62409819Y-84992619D02*
X62552676Y-84897381D01*
X62552676Y-84897381D02*
X62647914Y-84802143D01*
X62647914Y-84802143D02*
X62695533Y-84706905D01*
X62409819Y-85611667D02*
X62409819Y-86230714D01*
X62409819Y-86230714D02*
X62790771Y-85897381D01*
X62790771Y-85897381D02*
X62790771Y-86040238D01*
X62790771Y-86040238D02*
X62838390Y-86135476D01*
X62838390Y-86135476D02*
X62886009Y-86183095D01*
X62886009Y-86183095D02*
X62981247Y-86230714D01*
X62981247Y-86230714D02*
X63219342Y-86230714D01*
X63219342Y-86230714D02*
X63314580Y-86183095D01*
X63314580Y-86183095D02*
X63362200Y-86135476D01*
X63362200Y-86135476D02*
X63409819Y-86040238D01*
X63409819Y-86040238D02*
X63409819Y-85754524D01*
X63409819Y-85754524D02*
X63362200Y-85659286D01*
X63362200Y-85659286D02*
X63314580Y-85611667D01*
X67060057Y-84371071D02*
X67012438Y-84275833D01*
X67012438Y-84275833D02*
X66917200Y-84180595D01*
X66917200Y-84180595D02*
X66774342Y-84037738D01*
X66774342Y-84037738D02*
X66726723Y-83942500D01*
X66726723Y-83942500D02*
X66726723Y-83847262D01*
X66964819Y-83894881D02*
X66917200Y-83799643D01*
X66917200Y-83799643D02*
X66821961Y-83704405D01*
X66821961Y-83704405D02*
X66631485Y-83656786D01*
X66631485Y-83656786D02*
X66298152Y-83656786D01*
X66298152Y-83656786D02*
X66107676Y-83704405D01*
X66107676Y-83704405D02*
X66012438Y-83799643D01*
X66012438Y-83799643D02*
X65964819Y-83894881D01*
X65964819Y-83894881D02*
X65964819Y-84085357D01*
X65964819Y-84085357D02*
X66012438Y-84180595D01*
X66012438Y-84180595D02*
X66107676Y-84275833D01*
X66107676Y-84275833D02*
X66298152Y-84323452D01*
X66298152Y-84323452D02*
X66631485Y-84323452D01*
X66631485Y-84323452D02*
X66821961Y-84275833D01*
X66821961Y-84275833D02*
X66917200Y-84180595D01*
X66917200Y-84180595D02*
X66964819Y-84085357D01*
X66964819Y-84085357D02*
X66964819Y-83894881D01*
X66964819Y-85275833D02*
X66964819Y-84704405D01*
X66964819Y-84990119D02*
X65964819Y-84990119D01*
X65964819Y-84990119D02*
X66107676Y-84894881D01*
X66107676Y-84894881D02*
X66202914Y-84799643D01*
X66202914Y-84799643D02*
X66250533Y-84704405D01*
X66964819Y-86228214D02*
X66964819Y-85656786D01*
X66964819Y-85942500D02*
X65964819Y-85942500D01*
X65964819Y-85942500D02*
X66107676Y-85847262D01*
X66107676Y-85847262D02*
X66202914Y-85752024D01*
X66202914Y-85752024D02*
X66250533Y-85656786D01*
X87712738Y-108730057D02*
X87807976Y-108682438D01*
X87807976Y-108682438D02*
X87903214Y-108587200D01*
X87903214Y-108587200D02*
X88046071Y-108444342D01*
X88046071Y-108444342D02*
X88141309Y-108396723D01*
X88141309Y-108396723D02*
X88236547Y-108396723D01*
X88188928Y-108634819D02*
X88284166Y-108587200D01*
X88284166Y-108587200D02*
X88379404Y-108491961D01*
X88379404Y-108491961D02*
X88427023Y-108301485D01*
X88427023Y-108301485D02*
X88427023Y-107968152D01*
X88427023Y-107968152D02*
X88379404Y-107777676D01*
X88379404Y-107777676D02*
X88284166Y-107682438D01*
X88284166Y-107682438D02*
X88188928Y-107634819D01*
X88188928Y-107634819D02*
X87998452Y-107634819D01*
X87998452Y-107634819D02*
X87903214Y-107682438D01*
X87903214Y-107682438D02*
X87807976Y-107777676D01*
X87807976Y-107777676D02*
X87760357Y-107968152D01*
X87760357Y-107968152D02*
X87760357Y-108301485D01*
X87760357Y-108301485D02*
X87807976Y-108491961D01*
X87807976Y-108491961D02*
X87903214Y-108587200D01*
X87903214Y-108587200D02*
X87998452Y-108634819D01*
X87998452Y-108634819D02*
X88188928Y-108634819D01*
X87188928Y-108063390D02*
X87284166Y-108015771D01*
X87284166Y-108015771D02*
X87331785Y-107968152D01*
X87331785Y-107968152D02*
X87379404Y-107872914D01*
X87379404Y-107872914D02*
X87379404Y-107825295D01*
X87379404Y-107825295D02*
X87331785Y-107730057D01*
X87331785Y-107730057D02*
X87284166Y-107682438D01*
X87284166Y-107682438D02*
X87188928Y-107634819D01*
X87188928Y-107634819D02*
X86998452Y-107634819D01*
X86998452Y-107634819D02*
X86903214Y-107682438D01*
X86903214Y-107682438D02*
X86855595Y-107730057D01*
X86855595Y-107730057D02*
X86807976Y-107825295D01*
X86807976Y-107825295D02*
X86807976Y-107872914D01*
X86807976Y-107872914D02*
X86855595Y-107968152D01*
X86855595Y-107968152D02*
X86903214Y-108015771D01*
X86903214Y-108015771D02*
X86998452Y-108063390D01*
X86998452Y-108063390D02*
X87188928Y-108063390D01*
X87188928Y-108063390D02*
X87284166Y-108111009D01*
X87284166Y-108111009D02*
X87331785Y-108158628D01*
X87331785Y-108158628D02*
X87379404Y-108253866D01*
X87379404Y-108253866D02*
X87379404Y-108444342D01*
X87379404Y-108444342D02*
X87331785Y-108539580D01*
X87331785Y-108539580D02*
X87284166Y-108587200D01*
X87284166Y-108587200D02*
X87188928Y-108634819D01*
X87188928Y-108634819D02*
X86998452Y-108634819D01*
X86998452Y-108634819D02*
X86903214Y-108587200D01*
X86903214Y-108587200D02*
X86855595Y-108539580D01*
X86855595Y-108539580D02*
X86807976Y-108444342D01*
X86807976Y-108444342D02*
X86807976Y-108253866D01*
X86807976Y-108253866D02*
X86855595Y-108158628D01*
X86855595Y-108158628D02*
X86903214Y-108111009D01*
X86903214Y-108111009D02*
X86998452Y-108063390D01*
X87712738Y-105180057D02*
X87807976Y-105132438D01*
X87807976Y-105132438D02*
X87903214Y-105037200D01*
X87903214Y-105037200D02*
X88046071Y-104894342D01*
X88046071Y-104894342D02*
X88141309Y-104846723D01*
X88141309Y-104846723D02*
X88236547Y-104846723D01*
X88188928Y-105084819D02*
X88284166Y-105037200D01*
X88284166Y-105037200D02*
X88379404Y-104941961D01*
X88379404Y-104941961D02*
X88427023Y-104751485D01*
X88427023Y-104751485D02*
X88427023Y-104418152D01*
X88427023Y-104418152D02*
X88379404Y-104227676D01*
X88379404Y-104227676D02*
X88284166Y-104132438D01*
X88284166Y-104132438D02*
X88188928Y-104084819D01*
X88188928Y-104084819D02*
X87998452Y-104084819D01*
X87998452Y-104084819D02*
X87903214Y-104132438D01*
X87903214Y-104132438D02*
X87807976Y-104227676D01*
X87807976Y-104227676D02*
X87760357Y-104418152D01*
X87760357Y-104418152D02*
X87760357Y-104751485D01*
X87760357Y-104751485D02*
X87807976Y-104941961D01*
X87807976Y-104941961D02*
X87903214Y-105037200D01*
X87903214Y-105037200D02*
X87998452Y-105084819D01*
X87998452Y-105084819D02*
X88188928Y-105084819D01*
X86903214Y-104084819D02*
X87093690Y-104084819D01*
X87093690Y-104084819D02*
X87188928Y-104132438D01*
X87188928Y-104132438D02*
X87236547Y-104180057D01*
X87236547Y-104180057D02*
X87331785Y-104322914D01*
X87331785Y-104322914D02*
X87379404Y-104513390D01*
X87379404Y-104513390D02*
X87379404Y-104894342D01*
X87379404Y-104894342D02*
X87331785Y-104989580D01*
X87331785Y-104989580D02*
X87284166Y-105037200D01*
X87284166Y-105037200D02*
X87188928Y-105084819D01*
X87188928Y-105084819D02*
X86998452Y-105084819D01*
X86998452Y-105084819D02*
X86903214Y-105037200D01*
X86903214Y-105037200D02*
X86855595Y-104989580D01*
X86855595Y-104989580D02*
X86807976Y-104894342D01*
X86807976Y-104894342D02*
X86807976Y-104656247D01*
X86807976Y-104656247D02*
X86855595Y-104561009D01*
X86855595Y-104561009D02*
X86903214Y-104513390D01*
X86903214Y-104513390D02*
X86998452Y-104465771D01*
X86998452Y-104465771D02*
X87188928Y-104465771D01*
X87188928Y-104465771D02*
X87284166Y-104513390D01*
X87284166Y-104513390D02*
X87331785Y-104561009D01*
X87331785Y-104561009D02*
X87379404Y-104656247D01*
X87712738Y-101592557D02*
X87807976Y-101544938D01*
X87807976Y-101544938D02*
X87903214Y-101449700D01*
X87903214Y-101449700D02*
X88046071Y-101306842D01*
X88046071Y-101306842D02*
X88141309Y-101259223D01*
X88141309Y-101259223D02*
X88236547Y-101259223D01*
X88188928Y-101497319D02*
X88284166Y-101449700D01*
X88284166Y-101449700D02*
X88379404Y-101354461D01*
X88379404Y-101354461D02*
X88427023Y-101163985D01*
X88427023Y-101163985D02*
X88427023Y-100830652D01*
X88427023Y-100830652D02*
X88379404Y-100640176D01*
X88379404Y-100640176D02*
X88284166Y-100544938D01*
X88284166Y-100544938D02*
X88188928Y-100497319D01*
X88188928Y-100497319D02*
X87998452Y-100497319D01*
X87998452Y-100497319D02*
X87903214Y-100544938D01*
X87903214Y-100544938D02*
X87807976Y-100640176D01*
X87807976Y-100640176D02*
X87760357Y-100830652D01*
X87760357Y-100830652D02*
X87760357Y-101163985D01*
X87760357Y-101163985D02*
X87807976Y-101354461D01*
X87807976Y-101354461D02*
X87903214Y-101449700D01*
X87903214Y-101449700D02*
X87998452Y-101497319D01*
X87998452Y-101497319D02*
X88188928Y-101497319D01*
X86903214Y-100830652D02*
X86903214Y-101497319D01*
X87141309Y-100449700D02*
X87379404Y-101163985D01*
X87379404Y-101163985D02*
X86760357Y-101163985D01*
X87725238Y-98017557D02*
X87820476Y-97969938D01*
X87820476Y-97969938D02*
X87915714Y-97874700D01*
X87915714Y-97874700D02*
X88058571Y-97731842D01*
X88058571Y-97731842D02*
X88153809Y-97684223D01*
X88153809Y-97684223D02*
X88249047Y-97684223D01*
X88201428Y-97922319D02*
X88296666Y-97874700D01*
X88296666Y-97874700D02*
X88391904Y-97779461D01*
X88391904Y-97779461D02*
X88439523Y-97588985D01*
X88439523Y-97588985D02*
X88439523Y-97255652D01*
X88439523Y-97255652D02*
X88391904Y-97065176D01*
X88391904Y-97065176D02*
X88296666Y-96969938D01*
X88296666Y-96969938D02*
X88201428Y-96922319D01*
X88201428Y-96922319D02*
X88010952Y-96922319D01*
X88010952Y-96922319D02*
X87915714Y-96969938D01*
X87915714Y-96969938D02*
X87820476Y-97065176D01*
X87820476Y-97065176D02*
X87772857Y-97255652D01*
X87772857Y-97255652D02*
X87772857Y-97588985D01*
X87772857Y-97588985D02*
X87820476Y-97779461D01*
X87820476Y-97779461D02*
X87915714Y-97874700D01*
X87915714Y-97874700D02*
X88010952Y-97922319D01*
X88010952Y-97922319D02*
X88201428Y-97922319D01*
X87391904Y-97017557D02*
X87344285Y-96969938D01*
X87344285Y-96969938D02*
X87249047Y-96922319D01*
X87249047Y-96922319D02*
X87010952Y-96922319D01*
X87010952Y-96922319D02*
X86915714Y-96969938D01*
X86915714Y-96969938D02*
X86868095Y-97017557D01*
X86868095Y-97017557D02*
X86820476Y-97112795D01*
X86820476Y-97112795D02*
X86820476Y-97208033D01*
X86820476Y-97208033D02*
X86868095Y-97350890D01*
X86868095Y-97350890D02*
X87439523Y-97922319D01*
X87439523Y-97922319D02*
X86820476Y-97922319D01*
X57287857Y-103594580D02*
X57335476Y-103642200D01*
X57335476Y-103642200D02*
X57478333Y-103689819D01*
X57478333Y-103689819D02*
X57573571Y-103689819D01*
X57573571Y-103689819D02*
X57716428Y-103642200D01*
X57716428Y-103642200D02*
X57811666Y-103546961D01*
X57811666Y-103546961D02*
X57859285Y-103451723D01*
X57859285Y-103451723D02*
X57906904Y-103261247D01*
X57906904Y-103261247D02*
X57906904Y-103118390D01*
X57906904Y-103118390D02*
X57859285Y-102927914D01*
X57859285Y-102927914D02*
X57811666Y-102832676D01*
X57811666Y-102832676D02*
X57716428Y-102737438D01*
X57716428Y-102737438D02*
X57573571Y-102689819D01*
X57573571Y-102689819D02*
X57478333Y-102689819D01*
X57478333Y-102689819D02*
X57335476Y-102737438D01*
X57335476Y-102737438D02*
X57287857Y-102785057D01*
X56335476Y-103689819D02*
X56906904Y-103689819D01*
X56621190Y-103689819D02*
X56621190Y-102689819D01*
X56621190Y-102689819D02*
X56716428Y-102832676D01*
X56716428Y-102832676D02*
X56811666Y-102927914D01*
X56811666Y-102927914D02*
X56906904Y-102975533D01*
X55954523Y-102785057D02*
X55906904Y-102737438D01*
X55906904Y-102737438D02*
X55811666Y-102689819D01*
X55811666Y-102689819D02*
X55573571Y-102689819D01*
X55573571Y-102689819D02*
X55478333Y-102737438D01*
X55478333Y-102737438D02*
X55430714Y-102785057D01*
X55430714Y-102785057D02*
X55383095Y-102880295D01*
X55383095Y-102880295D02*
X55383095Y-102975533D01*
X55383095Y-102975533D02*
X55430714Y-103118390D01*
X55430714Y-103118390D02*
X56002142Y-103689819D01*
X56002142Y-103689819D02*
X55383095Y-103689819D01*
X70607557Y-84839761D02*
X70559938Y-84744523D01*
X70559938Y-84744523D02*
X70464700Y-84649285D01*
X70464700Y-84649285D02*
X70321842Y-84506428D01*
X70321842Y-84506428D02*
X70274223Y-84411190D01*
X70274223Y-84411190D02*
X70274223Y-84315952D01*
X70512319Y-84363571D02*
X70464700Y-84268333D01*
X70464700Y-84268333D02*
X70369461Y-84173095D01*
X70369461Y-84173095D02*
X70178985Y-84125476D01*
X70178985Y-84125476D02*
X69845652Y-84125476D01*
X69845652Y-84125476D02*
X69655176Y-84173095D01*
X69655176Y-84173095D02*
X69559938Y-84268333D01*
X69559938Y-84268333D02*
X69512319Y-84363571D01*
X69512319Y-84363571D02*
X69512319Y-84554047D01*
X69512319Y-84554047D02*
X69559938Y-84649285D01*
X69559938Y-84649285D02*
X69655176Y-84744523D01*
X69655176Y-84744523D02*
X69845652Y-84792142D01*
X69845652Y-84792142D02*
X70178985Y-84792142D01*
X70178985Y-84792142D02*
X70369461Y-84744523D01*
X70369461Y-84744523D02*
X70464700Y-84649285D01*
X70464700Y-84649285D02*
X70512319Y-84554047D01*
X70512319Y-84554047D02*
X70512319Y-84363571D01*
X70512319Y-85268333D02*
X70512319Y-85458809D01*
X70512319Y-85458809D02*
X70464700Y-85554047D01*
X70464700Y-85554047D02*
X70417080Y-85601666D01*
X70417080Y-85601666D02*
X70274223Y-85696904D01*
X70274223Y-85696904D02*
X70083747Y-85744523D01*
X70083747Y-85744523D02*
X69702795Y-85744523D01*
X69702795Y-85744523D02*
X69607557Y-85696904D01*
X69607557Y-85696904D02*
X69559938Y-85649285D01*
X69559938Y-85649285D02*
X69512319Y-85554047D01*
X69512319Y-85554047D02*
X69512319Y-85363571D01*
X69512319Y-85363571D02*
X69559938Y-85268333D01*
X69559938Y-85268333D02*
X69607557Y-85220714D01*
X69607557Y-85220714D02*
X69702795Y-85173095D01*
X69702795Y-85173095D02*
X69940890Y-85173095D01*
X69940890Y-85173095D02*
X70036128Y-85220714D01*
X70036128Y-85220714D02*
X70083747Y-85268333D01*
X70083747Y-85268333D02*
X70131366Y-85363571D01*
X70131366Y-85363571D02*
X70131366Y-85554047D01*
X70131366Y-85554047D02*
X70083747Y-85649285D01*
X70083747Y-85649285D02*
X70036128Y-85696904D01*
X70036128Y-85696904D02*
X69940890Y-85744523D01*
D11*
%TO.C,D67*%
X80725000Y-113755000D02*
X83410000Y-113755000D01*
X83410000Y-115675000D02*
X80725000Y-115675000D01*
X83410000Y-113755000D02*
X83410000Y-115675000D01*
D12*
%TO.C,SW1*%
X79519740Y-108218000D02*
X79949000Y-108218000D01*
X77330260Y-112282000D02*
X76901000Y-112282000D01*
X79949000Y-112282000D02*
X79519740Y-112282000D01*
X79949000Y-108218000D02*
X79949000Y-112282000D01*
X76901000Y-108218000D02*
X77330260Y-108218000D01*
X76901000Y-112282000D02*
X76901000Y-108218000D01*
X78501200Y-113818700D02*
G75*
G02*
X78348800Y-113818700I-76200J0D01*
G01*
X78348800Y-113818700D02*
G75*
G02*
X78501200Y-113818700I76200J0D01*
G01*
D11*
%TO.C,R23*%
X78776359Y-114335000D02*
X79083641Y-114335000D01*
X78776359Y-115095000D02*
X79083641Y-115095000D01*
D12*
%TO.C,SW2*%
X83179740Y-108227000D02*
X83609000Y-108227000D01*
X80990260Y-112291000D02*
X80561000Y-112291000D01*
X83609000Y-112291000D02*
X83179740Y-112291000D01*
X83609000Y-108227000D02*
X83609000Y-112291000D01*
X80561000Y-108227000D02*
X80990260Y-108227000D01*
X80561000Y-112291000D02*
X80561000Y-108227000D01*
X82161200Y-113827700D02*
G75*
G02*
X82008800Y-113827700I-76200J0D01*
G01*
X82008800Y-113827700D02*
G75*
G02*
X82161200Y-113827700I76200J0D01*
G01*
D11*
%TO.C,U1*%
X77950000Y-98495000D02*
X77950000Y-98945000D01*
X77950000Y-105715000D02*
X77950000Y-105265000D01*
X77500000Y-98495000D02*
X77950000Y-98495000D01*
X77500000Y-105715000D02*
X77950000Y-105715000D01*
X71180000Y-98495000D02*
X70730000Y-98495000D01*
X71180000Y-105715000D02*
X70730000Y-105715000D01*
X70730000Y-98495000D02*
X70730000Y-98945000D01*
X70730000Y-105715000D02*
X70730000Y-105265000D01*
X78540000Y-98945000D02*
X78200000Y-98475000D01*
X78880000Y-98475000D01*
X78540000Y-98945000D01*
G36*
X78540000Y-98945000D02*
G01*
X78200000Y-98475000D01*
X78880000Y-98475000D01*
X78540000Y-98945000D01*
G37*
%TO.C,Y1*%
X79720000Y-98335000D02*
X82990000Y-98335000D01*
X82990000Y-98335000D02*
X82990000Y-102255000D01*
%TO.C,C8*%
X70177836Y-106215000D02*
X69962164Y-106215000D01*
X70177836Y-106935000D02*
X69962164Y-106935000D01*
%TO.C,C1*%
X67210000Y-99732164D02*
X67210000Y-99947836D01*
X67930000Y-99732164D02*
X67930000Y-99947836D01*
%TO.C,C5*%
X68230000Y-99727164D02*
X68230000Y-99942836D01*
X68950000Y-99727164D02*
X68950000Y-99942836D01*
%TO.C,C13*%
X80907164Y-97965000D02*
X81122836Y-97965000D01*
X80907164Y-97245000D02*
X81122836Y-97245000D01*
%TO.C,J1*%
X55550000Y-111720000D02*
X55550000Y-113500000D01*
X63050000Y-108800000D02*
X63850000Y-108800000D01*
X64950000Y-111720000D02*
X64950000Y-113500000D01*
%TO.C,Y3*%
X57940000Y-103780000D02*
X54670000Y-103780000D01*
X54670000Y-103780000D02*
X54670000Y-99860000D01*
D13*
%TO.C,U4*%
X70980000Y-108752502D02*
X73980000Y-108752502D01*
X70980000Y-115452501D02*
X73980000Y-115452501D01*
X73980000Y-108752502D02*
X73980000Y-115452501D01*
X70980000Y-108752502D02*
X70980000Y-115452501D01*
D14*
X69755002Y-115402501D02*
G75*
G02*
X69505000Y-115402501I-125001J0D01*
G01*
X69505000Y-115402501D02*
G75*
G02*
X69755002Y-115402501I125001J0D01*
G01*
D11*
%TO.C,U2*%
X66855000Y-98685000D02*
X66525000Y-98445000D01*
X66855000Y-98205000D01*
X66855000Y-98685000D01*
G36*
X66855000Y-98685000D02*
G01*
X66525000Y-98445000D01*
X66855000Y-98205000D01*
X66855000Y-98685000D01*
G37*
X56460000Y-95745000D02*
X56460000Y-93795000D01*
X56460000Y-95745000D02*
X56460000Y-97695000D01*
X66580000Y-95745000D02*
X66580000Y-93795000D01*
X66580000Y-95745000D02*
X66580000Y-97695000D01*
%TO.C,R2*%
X58880000Y-105413641D02*
X58880000Y-105106359D01*
X58120000Y-105413641D02*
X58120000Y-105106359D01*
%TO.C,R1*%
X61880000Y-105413641D02*
X61880000Y-105106359D01*
X61120000Y-105413641D02*
X61120000Y-105106359D01*
%TO.C,Q15*%
X58577500Y-84945000D02*
X58577500Y-85595000D01*
X58577500Y-84945000D02*
X58577500Y-84295000D01*
X55457500Y-84945000D02*
X55457500Y-85595000D01*
X55457500Y-84945000D02*
X55457500Y-84295000D01*
X58857500Y-86347500D02*
X58527500Y-86107500D01*
X58857500Y-85867500D01*
X58857500Y-86347500D01*
G36*
X58857500Y-86347500D02*
G01*
X58527500Y-86107500D01*
X58857500Y-85867500D01*
X58857500Y-86347500D01*
G37*
%TO.C,Q13*%
X62115000Y-84945000D02*
X62115000Y-85595000D01*
X62115000Y-84945000D02*
X62115000Y-84295000D01*
X58995000Y-84945000D02*
X58995000Y-85595000D01*
X58995000Y-84945000D02*
X58995000Y-84295000D01*
X62395000Y-86347500D02*
X62065000Y-86107500D01*
X62395000Y-85867500D01*
X62395000Y-86347500D01*
G36*
X62395000Y-86347500D02*
G01*
X62065000Y-86107500D01*
X62395000Y-85867500D01*
X62395000Y-86347500D01*
G37*
%TO.C,Q11*%
X65670000Y-84942500D02*
X65670000Y-85592500D01*
X65670000Y-84942500D02*
X65670000Y-84292500D01*
X62550000Y-84942500D02*
X62550000Y-85592500D01*
X62550000Y-84942500D02*
X62550000Y-84292500D01*
X65950000Y-86345000D02*
X65620000Y-86105000D01*
X65950000Y-85865000D01*
X65950000Y-86345000D01*
G36*
X65950000Y-86345000D02*
G01*
X65620000Y-86105000D01*
X65950000Y-85865000D01*
X65950000Y-86345000D01*
G37*
%TO.C,Q8*%
X87617500Y-107340000D02*
X86967500Y-107340000D01*
X87617500Y-107340000D02*
X88267500Y-107340000D01*
X87617500Y-104220000D02*
X86967500Y-104220000D01*
X87617500Y-104220000D02*
X88267500Y-104220000D01*
X86695000Y-107620000D02*
X86215000Y-107620000D01*
X86455000Y-107290000D01*
X86695000Y-107620000D01*
G36*
X86695000Y-107620000D02*
G01*
X86215000Y-107620000D01*
X86455000Y-107290000D01*
X86695000Y-107620000D01*
G37*
%TO.C,Q6*%
X87617500Y-103790000D02*
X86967500Y-103790000D01*
X87617500Y-103790000D02*
X88267500Y-103790000D01*
X87617500Y-100670000D02*
X86967500Y-100670000D01*
X87617500Y-100670000D02*
X88267500Y-100670000D01*
X86695000Y-104070000D02*
X86215000Y-104070000D01*
X86455000Y-103740000D01*
X86695000Y-104070000D01*
G36*
X86695000Y-104070000D02*
G01*
X86215000Y-104070000D01*
X86455000Y-103740000D01*
X86695000Y-104070000D01*
G37*
%TO.C,Q4*%
X87617500Y-100202500D02*
X86967500Y-100202500D01*
X87617500Y-100202500D02*
X88267500Y-100202500D01*
X87617500Y-97082500D02*
X86967500Y-97082500D01*
X87617500Y-97082500D02*
X88267500Y-97082500D01*
X86695000Y-100482500D02*
X86215000Y-100482500D01*
X86455000Y-100152500D01*
X86695000Y-100482500D01*
G36*
X86695000Y-100482500D02*
G01*
X86215000Y-100482500D01*
X86455000Y-100152500D01*
X86695000Y-100482500D01*
G37*
%TO.C,Q2*%
X87630000Y-96627500D02*
X86980000Y-96627500D01*
X87630000Y-96627500D02*
X88280000Y-96627500D01*
X87630000Y-93507500D02*
X86980000Y-93507500D01*
X87630000Y-93507500D02*
X88280000Y-93507500D01*
X86707500Y-96907500D02*
X86227500Y-96907500D01*
X86467500Y-96577500D01*
X86707500Y-96907500D01*
G36*
X86707500Y-96907500D02*
G01*
X86227500Y-96907500D01*
X86467500Y-96577500D01*
X86707500Y-96907500D01*
G37*
%TO.C,C12*%
X56752836Y-104035000D02*
X56537164Y-104035000D01*
X56752836Y-104755000D02*
X56537164Y-104755000D01*
%TO.C,Q9*%
X69497500Y-86337500D02*
X69167500Y-86097500D01*
X69497500Y-85857500D01*
X69497500Y-86337500D01*
G36*
X69497500Y-86337500D02*
G01*
X69167500Y-86097500D01*
X69497500Y-85857500D01*
X69497500Y-86337500D01*
G37*
X66097500Y-84935000D02*
X66097500Y-84285000D01*
X66097500Y-84935000D02*
X66097500Y-85585000D01*
X69217500Y-84935000D02*
X69217500Y-84285000D01*
X69217500Y-84935000D02*
X69217500Y-85585000D01*
%TD*%
M02*
