%TF.GenerationSoftware,KiCad,Pcbnew,9.0.3*%
%TF.CreationDate,2026-06-21T23:03:53+05:30*%
%TF.ProjectId,Elo_112,456c6f5f-3131-4322-9e6b-696361645f70,rev?*%
%TF.SameCoordinates,Original*%
%TF.FileFunction,Legend,Top*%
%TF.FilePolarity,Positive*%
%FSLAX46Y46*%
G04 Gerber Fmt 4.6, Leading zero omitted, Abs format (unit mm)*
G04 Created by KiCad (PCBNEW 9.0.3) date 2026-06-21 23:03:53*
%MOMM*%
%LPD*%
G01*
G04 APERTURE LIST*
%ADD10C,0.150000*%
%ADD11C,0.100000*%
%ADD12C,0.127000*%
%ADD13C,0.120000*%
%ADD14C,0.152400*%
G04 APERTURE END LIST*
D10*
X87291905Y-86324819D02*
X87291905Y-85324819D01*
X87291905Y-85324819D02*
X87530000Y-85324819D01*
X87530000Y-85324819D02*
X87672857Y-85372438D01*
X87672857Y-85372438D02*
X87768095Y-85467676D01*
X87768095Y-85467676D02*
X87815714Y-85562914D01*
X87815714Y-85562914D02*
X87863333Y-85753390D01*
X87863333Y-85753390D02*
X87863333Y-85896247D01*
X87863333Y-85896247D02*
X87815714Y-86086723D01*
X87815714Y-86086723D02*
X87768095Y-86181961D01*
X87768095Y-86181961D02*
X87672857Y-86277200D01*
X87672857Y-86277200D02*
X87530000Y-86324819D01*
X87530000Y-86324819D02*
X87291905Y-86324819D01*
X88720476Y-85324819D02*
X88530000Y-85324819D01*
X88530000Y-85324819D02*
X88434762Y-85372438D01*
X88434762Y-85372438D02*
X88387143Y-85420057D01*
X88387143Y-85420057D02*
X88291905Y-85562914D01*
X88291905Y-85562914D02*
X88244286Y-85753390D01*
X88244286Y-85753390D02*
X88244286Y-86134342D01*
X88244286Y-86134342D02*
X88291905Y-86229580D01*
X88291905Y-86229580D02*
X88339524Y-86277200D01*
X88339524Y-86277200D02*
X88434762Y-86324819D01*
X88434762Y-86324819D02*
X88625238Y-86324819D01*
X88625238Y-86324819D02*
X88720476Y-86277200D01*
X88720476Y-86277200D02*
X88768095Y-86229580D01*
X88768095Y-86229580D02*
X88815714Y-86134342D01*
X88815714Y-86134342D02*
X88815714Y-85896247D01*
X88815714Y-85896247D02*
X88768095Y-85801009D01*
X88768095Y-85801009D02*
X88720476Y-85753390D01*
X88720476Y-85753390D02*
X88625238Y-85705771D01*
X88625238Y-85705771D02*
X88434762Y-85705771D01*
X88434762Y-85705771D02*
X88339524Y-85753390D01*
X88339524Y-85753390D02*
X88291905Y-85801009D01*
X88291905Y-85801009D02*
X88244286Y-85896247D01*
X87306905Y-92574819D02*
X87306905Y-91574819D01*
X87306905Y-91574819D02*
X87545000Y-91574819D01*
X87545000Y-91574819D02*
X87687857Y-91622438D01*
X87687857Y-91622438D02*
X87783095Y-91717676D01*
X87783095Y-91717676D02*
X87830714Y-91812914D01*
X87830714Y-91812914D02*
X87878333Y-92003390D01*
X87878333Y-92003390D02*
X87878333Y-92146247D01*
X87878333Y-92146247D02*
X87830714Y-92336723D01*
X87830714Y-92336723D02*
X87783095Y-92431961D01*
X87783095Y-92431961D02*
X87687857Y-92527200D01*
X87687857Y-92527200D02*
X87545000Y-92574819D01*
X87545000Y-92574819D02*
X87306905Y-92574819D01*
X88830714Y-92574819D02*
X88259286Y-92574819D01*
X88545000Y-92574819D02*
X88545000Y-91574819D01*
X88545000Y-91574819D02*
X88449762Y-91717676D01*
X88449762Y-91717676D02*
X88354524Y-91812914D01*
X88354524Y-91812914D02*
X88259286Y-91860533D01*
X87306905Y-91324819D02*
X87306905Y-90324819D01*
X87306905Y-90324819D02*
X87545000Y-90324819D01*
X87545000Y-90324819D02*
X87687857Y-90372438D01*
X87687857Y-90372438D02*
X87783095Y-90467676D01*
X87783095Y-90467676D02*
X87830714Y-90562914D01*
X87830714Y-90562914D02*
X87878333Y-90753390D01*
X87878333Y-90753390D02*
X87878333Y-90896247D01*
X87878333Y-90896247D02*
X87830714Y-91086723D01*
X87830714Y-91086723D02*
X87783095Y-91181961D01*
X87783095Y-91181961D02*
X87687857Y-91277200D01*
X87687857Y-91277200D02*
X87545000Y-91324819D01*
X87545000Y-91324819D02*
X87306905Y-91324819D01*
X88259286Y-90420057D02*
X88306905Y-90372438D01*
X88306905Y-90372438D02*
X88402143Y-90324819D01*
X88402143Y-90324819D02*
X88640238Y-90324819D01*
X88640238Y-90324819D02*
X88735476Y-90372438D01*
X88735476Y-90372438D02*
X88783095Y-90420057D01*
X88783095Y-90420057D02*
X88830714Y-90515295D01*
X88830714Y-90515295D02*
X88830714Y-90610533D01*
X88830714Y-90610533D02*
X88783095Y-90753390D01*
X88783095Y-90753390D02*
X88211667Y-91324819D01*
X88211667Y-91324819D02*
X88830714Y-91324819D01*
X87301905Y-90074819D02*
X87301905Y-89074819D01*
X87301905Y-89074819D02*
X87540000Y-89074819D01*
X87540000Y-89074819D02*
X87682857Y-89122438D01*
X87682857Y-89122438D02*
X87778095Y-89217676D01*
X87778095Y-89217676D02*
X87825714Y-89312914D01*
X87825714Y-89312914D02*
X87873333Y-89503390D01*
X87873333Y-89503390D02*
X87873333Y-89646247D01*
X87873333Y-89646247D02*
X87825714Y-89836723D01*
X87825714Y-89836723D02*
X87778095Y-89931961D01*
X87778095Y-89931961D02*
X87682857Y-90027200D01*
X87682857Y-90027200D02*
X87540000Y-90074819D01*
X87540000Y-90074819D02*
X87301905Y-90074819D01*
X88206667Y-89074819D02*
X88825714Y-89074819D01*
X88825714Y-89074819D02*
X88492381Y-89455771D01*
X88492381Y-89455771D02*
X88635238Y-89455771D01*
X88635238Y-89455771D02*
X88730476Y-89503390D01*
X88730476Y-89503390D02*
X88778095Y-89551009D01*
X88778095Y-89551009D02*
X88825714Y-89646247D01*
X88825714Y-89646247D02*
X88825714Y-89884342D01*
X88825714Y-89884342D02*
X88778095Y-89979580D01*
X88778095Y-89979580D02*
X88730476Y-90027200D01*
X88730476Y-90027200D02*
X88635238Y-90074819D01*
X88635238Y-90074819D02*
X88349524Y-90074819D01*
X88349524Y-90074819D02*
X88254286Y-90027200D01*
X88254286Y-90027200D02*
X88206667Y-89979580D01*
X87291905Y-88824819D02*
X87291905Y-87824819D01*
X87291905Y-87824819D02*
X87530000Y-87824819D01*
X87530000Y-87824819D02*
X87672857Y-87872438D01*
X87672857Y-87872438D02*
X87768095Y-87967676D01*
X87768095Y-87967676D02*
X87815714Y-88062914D01*
X87815714Y-88062914D02*
X87863333Y-88253390D01*
X87863333Y-88253390D02*
X87863333Y-88396247D01*
X87863333Y-88396247D02*
X87815714Y-88586723D01*
X87815714Y-88586723D02*
X87768095Y-88681961D01*
X87768095Y-88681961D02*
X87672857Y-88777200D01*
X87672857Y-88777200D02*
X87530000Y-88824819D01*
X87530000Y-88824819D02*
X87291905Y-88824819D01*
X88720476Y-88158152D02*
X88720476Y-88824819D01*
X88482381Y-87777200D02*
X88244286Y-88491485D01*
X88244286Y-88491485D02*
X88863333Y-88491485D01*
X87291905Y-87574819D02*
X87291905Y-86574819D01*
X87291905Y-86574819D02*
X87530000Y-86574819D01*
X87530000Y-86574819D02*
X87672857Y-86622438D01*
X87672857Y-86622438D02*
X87768095Y-86717676D01*
X87768095Y-86717676D02*
X87815714Y-86812914D01*
X87815714Y-86812914D02*
X87863333Y-87003390D01*
X87863333Y-87003390D02*
X87863333Y-87146247D01*
X87863333Y-87146247D02*
X87815714Y-87336723D01*
X87815714Y-87336723D02*
X87768095Y-87431961D01*
X87768095Y-87431961D02*
X87672857Y-87527200D01*
X87672857Y-87527200D02*
X87530000Y-87574819D01*
X87530000Y-87574819D02*
X87291905Y-87574819D01*
X88768095Y-86574819D02*
X88291905Y-86574819D01*
X88291905Y-86574819D02*
X88244286Y-87051009D01*
X88244286Y-87051009D02*
X88291905Y-87003390D01*
X88291905Y-87003390D02*
X88387143Y-86955771D01*
X88387143Y-86955771D02*
X88625238Y-86955771D01*
X88625238Y-86955771D02*
X88720476Y-87003390D01*
X88720476Y-87003390D02*
X88768095Y-87051009D01*
X88768095Y-87051009D02*
X88815714Y-87146247D01*
X88815714Y-87146247D02*
X88815714Y-87384342D01*
X88815714Y-87384342D02*
X88768095Y-87479580D01*
X88768095Y-87479580D02*
X88720476Y-87527200D01*
X88720476Y-87527200D02*
X88625238Y-87574819D01*
X88625238Y-87574819D02*
X88387143Y-87574819D01*
X88387143Y-87574819D02*
X88291905Y-87527200D01*
X88291905Y-87527200D02*
X88244286Y-87479580D01*
X84740714Y-88824819D02*
X84740714Y-87824819D01*
X84740714Y-87824819D02*
X84978809Y-87824819D01*
X84978809Y-87824819D02*
X85121666Y-87872438D01*
X85121666Y-87872438D02*
X85216904Y-87967676D01*
X85216904Y-87967676D02*
X85264523Y-88062914D01*
X85264523Y-88062914D02*
X85312142Y-88253390D01*
X85312142Y-88253390D02*
X85312142Y-88396247D01*
X85312142Y-88396247D02*
X85264523Y-88586723D01*
X85264523Y-88586723D02*
X85216904Y-88681961D01*
X85216904Y-88681961D02*
X85121666Y-88777200D01*
X85121666Y-88777200D02*
X84978809Y-88824819D01*
X84978809Y-88824819D02*
X84740714Y-88824819D01*
X86264523Y-88824819D02*
X85693095Y-88824819D01*
X85978809Y-88824819D02*
X85978809Y-87824819D01*
X85978809Y-87824819D02*
X85883571Y-87967676D01*
X85883571Y-87967676D02*
X85788333Y-88062914D01*
X85788333Y-88062914D02*
X85693095Y-88110533D01*
X86645476Y-87920057D02*
X86693095Y-87872438D01*
X86693095Y-87872438D02*
X86788333Y-87824819D01*
X86788333Y-87824819D02*
X87026428Y-87824819D01*
X87026428Y-87824819D02*
X87121666Y-87872438D01*
X87121666Y-87872438D02*
X87169285Y-87920057D01*
X87169285Y-87920057D02*
X87216904Y-88015295D01*
X87216904Y-88015295D02*
X87216904Y-88110533D01*
X87216904Y-88110533D02*
X87169285Y-88253390D01*
X87169285Y-88253390D02*
X86597857Y-88824819D01*
X86597857Y-88824819D02*
X87216904Y-88824819D01*
X76340714Y-91324819D02*
X76340714Y-90324819D01*
X76340714Y-90324819D02*
X76578809Y-90324819D01*
X76578809Y-90324819D02*
X76721666Y-90372438D01*
X76721666Y-90372438D02*
X76816904Y-90467676D01*
X76816904Y-90467676D02*
X76864523Y-90562914D01*
X76864523Y-90562914D02*
X76912142Y-90753390D01*
X76912142Y-90753390D02*
X76912142Y-90896247D01*
X76912142Y-90896247D02*
X76864523Y-91086723D01*
X76864523Y-91086723D02*
X76816904Y-91181961D01*
X76816904Y-91181961D02*
X76721666Y-91277200D01*
X76721666Y-91277200D02*
X76578809Y-91324819D01*
X76578809Y-91324819D02*
X76340714Y-91324819D01*
X77769285Y-90658152D02*
X77769285Y-91324819D01*
X77531190Y-90277200D02*
X77293095Y-90991485D01*
X77293095Y-90991485D02*
X77912142Y-90991485D01*
X78245476Y-90420057D02*
X78293095Y-90372438D01*
X78293095Y-90372438D02*
X78388333Y-90324819D01*
X78388333Y-90324819D02*
X78626428Y-90324819D01*
X78626428Y-90324819D02*
X78721666Y-90372438D01*
X78721666Y-90372438D02*
X78769285Y-90420057D01*
X78769285Y-90420057D02*
X78816904Y-90515295D01*
X78816904Y-90515295D02*
X78816904Y-90610533D01*
X78816904Y-90610533D02*
X78769285Y-90753390D01*
X78769285Y-90753390D02*
X78197857Y-91324819D01*
X78197857Y-91324819D02*
X78816904Y-91324819D01*
X84740714Y-85074819D02*
X84740714Y-84074819D01*
X84740714Y-84074819D02*
X84978809Y-84074819D01*
X84978809Y-84074819D02*
X85121666Y-84122438D01*
X85121666Y-84122438D02*
X85216904Y-84217676D01*
X85216904Y-84217676D02*
X85264523Y-84312914D01*
X85264523Y-84312914D02*
X85312142Y-84503390D01*
X85312142Y-84503390D02*
X85312142Y-84646247D01*
X85312142Y-84646247D02*
X85264523Y-84836723D01*
X85264523Y-84836723D02*
X85216904Y-84931961D01*
X85216904Y-84931961D02*
X85121666Y-85027200D01*
X85121666Y-85027200D02*
X84978809Y-85074819D01*
X84978809Y-85074819D02*
X84740714Y-85074819D01*
X86264523Y-85074819D02*
X85693095Y-85074819D01*
X85978809Y-85074819D02*
X85978809Y-84074819D01*
X85978809Y-84074819D02*
X85883571Y-84217676D01*
X85883571Y-84217676D02*
X85788333Y-84312914D01*
X85788333Y-84312914D02*
X85693095Y-84360533D01*
X87169285Y-84074819D02*
X86693095Y-84074819D01*
X86693095Y-84074819D02*
X86645476Y-84551009D01*
X86645476Y-84551009D02*
X86693095Y-84503390D01*
X86693095Y-84503390D02*
X86788333Y-84455771D01*
X86788333Y-84455771D02*
X87026428Y-84455771D01*
X87026428Y-84455771D02*
X87121666Y-84503390D01*
X87121666Y-84503390D02*
X87169285Y-84551009D01*
X87169285Y-84551009D02*
X87216904Y-84646247D01*
X87216904Y-84646247D02*
X87216904Y-84884342D01*
X87216904Y-84884342D02*
X87169285Y-84979580D01*
X87169285Y-84979580D02*
X87121666Y-85027200D01*
X87121666Y-85027200D02*
X87026428Y-85074819D01*
X87026428Y-85074819D02*
X86788333Y-85074819D01*
X86788333Y-85074819D02*
X86693095Y-85027200D01*
X86693095Y-85027200D02*
X86645476Y-84979580D01*
X85206905Y-92574819D02*
X85206905Y-91574819D01*
X85206905Y-91574819D02*
X85445000Y-91574819D01*
X85445000Y-91574819D02*
X85587857Y-91622438D01*
X85587857Y-91622438D02*
X85683095Y-91717676D01*
X85683095Y-91717676D02*
X85730714Y-91812914D01*
X85730714Y-91812914D02*
X85778333Y-92003390D01*
X85778333Y-92003390D02*
X85778333Y-92146247D01*
X85778333Y-92146247D02*
X85730714Y-92336723D01*
X85730714Y-92336723D02*
X85683095Y-92431961D01*
X85683095Y-92431961D02*
X85587857Y-92527200D01*
X85587857Y-92527200D02*
X85445000Y-92574819D01*
X85445000Y-92574819D02*
X85206905Y-92574819D01*
X86254524Y-92574819D02*
X86445000Y-92574819D01*
X86445000Y-92574819D02*
X86540238Y-92527200D01*
X86540238Y-92527200D02*
X86587857Y-92479580D01*
X86587857Y-92479580D02*
X86683095Y-92336723D01*
X86683095Y-92336723D02*
X86730714Y-92146247D01*
X86730714Y-92146247D02*
X86730714Y-91765295D01*
X86730714Y-91765295D02*
X86683095Y-91670057D01*
X86683095Y-91670057D02*
X86635476Y-91622438D01*
X86635476Y-91622438D02*
X86540238Y-91574819D01*
X86540238Y-91574819D02*
X86349762Y-91574819D01*
X86349762Y-91574819D02*
X86254524Y-91622438D01*
X86254524Y-91622438D02*
X86206905Y-91670057D01*
X86206905Y-91670057D02*
X86159286Y-91765295D01*
X86159286Y-91765295D02*
X86159286Y-92003390D01*
X86159286Y-92003390D02*
X86206905Y-92098628D01*
X86206905Y-92098628D02*
X86254524Y-92146247D01*
X86254524Y-92146247D02*
X86349762Y-92193866D01*
X86349762Y-92193866D02*
X86540238Y-92193866D01*
X86540238Y-92193866D02*
X86635476Y-92146247D01*
X86635476Y-92146247D02*
X86683095Y-92098628D01*
X86683095Y-92098628D02*
X86730714Y-92003390D01*
X87291905Y-85074819D02*
X87291905Y-84074819D01*
X87291905Y-84074819D02*
X87530000Y-84074819D01*
X87530000Y-84074819D02*
X87672857Y-84122438D01*
X87672857Y-84122438D02*
X87768095Y-84217676D01*
X87768095Y-84217676D02*
X87815714Y-84312914D01*
X87815714Y-84312914D02*
X87863333Y-84503390D01*
X87863333Y-84503390D02*
X87863333Y-84646247D01*
X87863333Y-84646247D02*
X87815714Y-84836723D01*
X87815714Y-84836723D02*
X87768095Y-84931961D01*
X87768095Y-84931961D02*
X87672857Y-85027200D01*
X87672857Y-85027200D02*
X87530000Y-85074819D01*
X87530000Y-85074819D02*
X87291905Y-85074819D01*
X88196667Y-84074819D02*
X88863333Y-84074819D01*
X88863333Y-84074819D02*
X88434762Y-85074819D01*
X76345714Y-92574819D02*
X76345714Y-91574819D01*
X76345714Y-91574819D02*
X76583809Y-91574819D01*
X76583809Y-91574819D02*
X76726666Y-91622438D01*
X76726666Y-91622438D02*
X76821904Y-91717676D01*
X76821904Y-91717676D02*
X76869523Y-91812914D01*
X76869523Y-91812914D02*
X76917142Y-92003390D01*
X76917142Y-92003390D02*
X76917142Y-92146247D01*
X76917142Y-92146247D02*
X76869523Y-92336723D01*
X76869523Y-92336723D02*
X76821904Y-92431961D01*
X76821904Y-92431961D02*
X76726666Y-92527200D01*
X76726666Y-92527200D02*
X76583809Y-92574819D01*
X76583809Y-92574819D02*
X76345714Y-92574819D01*
X77774285Y-91908152D02*
X77774285Y-92574819D01*
X77536190Y-91527200D02*
X77298095Y-92241485D01*
X77298095Y-92241485D02*
X77917142Y-92241485D01*
X78821904Y-92574819D02*
X78250476Y-92574819D01*
X78536190Y-92574819D02*
X78536190Y-91574819D01*
X78536190Y-91574819D02*
X78440952Y-91717676D01*
X78440952Y-91717676D02*
X78345714Y-91812914D01*
X78345714Y-91812914D02*
X78250476Y-91860533D01*
X84740714Y-91324819D02*
X84740714Y-90324819D01*
X84740714Y-90324819D02*
X84978809Y-90324819D01*
X84978809Y-90324819D02*
X85121666Y-90372438D01*
X85121666Y-90372438D02*
X85216904Y-90467676D01*
X85216904Y-90467676D02*
X85264523Y-90562914D01*
X85264523Y-90562914D02*
X85312142Y-90753390D01*
X85312142Y-90753390D02*
X85312142Y-90896247D01*
X85312142Y-90896247D02*
X85264523Y-91086723D01*
X85264523Y-91086723D02*
X85216904Y-91181961D01*
X85216904Y-91181961D02*
X85121666Y-91277200D01*
X85121666Y-91277200D02*
X84978809Y-91324819D01*
X84978809Y-91324819D02*
X84740714Y-91324819D01*
X86264523Y-91324819D02*
X85693095Y-91324819D01*
X85978809Y-91324819D02*
X85978809Y-90324819D01*
X85978809Y-90324819D02*
X85883571Y-90467676D01*
X85883571Y-90467676D02*
X85788333Y-90562914D01*
X85788333Y-90562914D02*
X85693095Y-90610533D01*
X86883571Y-90324819D02*
X86978809Y-90324819D01*
X86978809Y-90324819D02*
X87074047Y-90372438D01*
X87074047Y-90372438D02*
X87121666Y-90420057D01*
X87121666Y-90420057D02*
X87169285Y-90515295D01*
X87169285Y-90515295D02*
X87216904Y-90705771D01*
X87216904Y-90705771D02*
X87216904Y-90943866D01*
X87216904Y-90943866D02*
X87169285Y-91134342D01*
X87169285Y-91134342D02*
X87121666Y-91229580D01*
X87121666Y-91229580D02*
X87074047Y-91277200D01*
X87074047Y-91277200D02*
X86978809Y-91324819D01*
X86978809Y-91324819D02*
X86883571Y-91324819D01*
X86883571Y-91324819D02*
X86788333Y-91277200D01*
X86788333Y-91277200D02*
X86740714Y-91229580D01*
X86740714Y-91229580D02*
X86693095Y-91134342D01*
X86693095Y-91134342D02*
X86645476Y-90943866D01*
X86645476Y-90943866D02*
X86645476Y-90705771D01*
X86645476Y-90705771D02*
X86693095Y-90515295D01*
X86693095Y-90515295D02*
X86740714Y-90420057D01*
X86740714Y-90420057D02*
X86788333Y-90372438D01*
X86788333Y-90372438D02*
X86883571Y-90324819D01*
X84740714Y-87574819D02*
X84740714Y-86574819D01*
X84740714Y-86574819D02*
X84978809Y-86574819D01*
X84978809Y-86574819D02*
X85121666Y-86622438D01*
X85121666Y-86622438D02*
X85216904Y-86717676D01*
X85216904Y-86717676D02*
X85264523Y-86812914D01*
X85264523Y-86812914D02*
X85312142Y-87003390D01*
X85312142Y-87003390D02*
X85312142Y-87146247D01*
X85312142Y-87146247D02*
X85264523Y-87336723D01*
X85264523Y-87336723D02*
X85216904Y-87431961D01*
X85216904Y-87431961D02*
X85121666Y-87527200D01*
X85121666Y-87527200D02*
X84978809Y-87574819D01*
X84978809Y-87574819D02*
X84740714Y-87574819D01*
X86264523Y-87574819D02*
X85693095Y-87574819D01*
X85978809Y-87574819D02*
X85978809Y-86574819D01*
X85978809Y-86574819D02*
X85883571Y-86717676D01*
X85883571Y-86717676D02*
X85788333Y-86812914D01*
X85788333Y-86812914D02*
X85693095Y-86860533D01*
X86597857Y-86574819D02*
X87216904Y-86574819D01*
X87216904Y-86574819D02*
X86883571Y-86955771D01*
X86883571Y-86955771D02*
X87026428Y-86955771D01*
X87026428Y-86955771D02*
X87121666Y-87003390D01*
X87121666Y-87003390D02*
X87169285Y-87051009D01*
X87169285Y-87051009D02*
X87216904Y-87146247D01*
X87216904Y-87146247D02*
X87216904Y-87384342D01*
X87216904Y-87384342D02*
X87169285Y-87479580D01*
X87169285Y-87479580D02*
X87121666Y-87527200D01*
X87121666Y-87527200D02*
X87026428Y-87574819D01*
X87026428Y-87574819D02*
X86740714Y-87574819D01*
X86740714Y-87574819D02*
X86645476Y-87527200D01*
X86645476Y-87527200D02*
X86597857Y-87479580D01*
X84740714Y-90074819D02*
X84740714Y-89074819D01*
X84740714Y-89074819D02*
X84978809Y-89074819D01*
X84978809Y-89074819D02*
X85121666Y-89122438D01*
X85121666Y-89122438D02*
X85216904Y-89217676D01*
X85216904Y-89217676D02*
X85264523Y-89312914D01*
X85264523Y-89312914D02*
X85312142Y-89503390D01*
X85312142Y-89503390D02*
X85312142Y-89646247D01*
X85312142Y-89646247D02*
X85264523Y-89836723D01*
X85264523Y-89836723D02*
X85216904Y-89931961D01*
X85216904Y-89931961D02*
X85121666Y-90027200D01*
X85121666Y-90027200D02*
X84978809Y-90074819D01*
X84978809Y-90074819D02*
X84740714Y-90074819D01*
X86264523Y-90074819D02*
X85693095Y-90074819D01*
X85978809Y-90074819D02*
X85978809Y-89074819D01*
X85978809Y-89074819D02*
X85883571Y-89217676D01*
X85883571Y-89217676D02*
X85788333Y-89312914D01*
X85788333Y-89312914D02*
X85693095Y-89360533D01*
X87216904Y-90074819D02*
X86645476Y-90074819D01*
X86931190Y-90074819D02*
X86931190Y-89074819D01*
X86931190Y-89074819D02*
X86835952Y-89217676D01*
X86835952Y-89217676D02*
X86740714Y-89312914D01*
X86740714Y-89312914D02*
X86645476Y-89360533D01*
X84740714Y-86324819D02*
X84740714Y-85324819D01*
X84740714Y-85324819D02*
X84978809Y-85324819D01*
X84978809Y-85324819D02*
X85121666Y-85372438D01*
X85121666Y-85372438D02*
X85216904Y-85467676D01*
X85216904Y-85467676D02*
X85264523Y-85562914D01*
X85264523Y-85562914D02*
X85312142Y-85753390D01*
X85312142Y-85753390D02*
X85312142Y-85896247D01*
X85312142Y-85896247D02*
X85264523Y-86086723D01*
X85264523Y-86086723D02*
X85216904Y-86181961D01*
X85216904Y-86181961D02*
X85121666Y-86277200D01*
X85121666Y-86277200D02*
X84978809Y-86324819D01*
X84978809Y-86324819D02*
X84740714Y-86324819D01*
X86264523Y-86324819D02*
X85693095Y-86324819D01*
X85978809Y-86324819D02*
X85978809Y-85324819D01*
X85978809Y-85324819D02*
X85883571Y-85467676D01*
X85883571Y-85467676D02*
X85788333Y-85562914D01*
X85788333Y-85562914D02*
X85693095Y-85610533D01*
X87121666Y-85658152D02*
X87121666Y-86324819D01*
X86883571Y-85277200D02*
X86645476Y-85991485D01*
X86645476Y-85991485D02*
X87264523Y-85991485D01*
X82625714Y-88824819D02*
X82625714Y-87824819D01*
X82625714Y-87824819D02*
X82863809Y-87824819D01*
X82863809Y-87824819D02*
X83006666Y-87872438D01*
X83006666Y-87872438D02*
X83101904Y-87967676D01*
X83101904Y-87967676D02*
X83149523Y-88062914D01*
X83149523Y-88062914D02*
X83197142Y-88253390D01*
X83197142Y-88253390D02*
X83197142Y-88396247D01*
X83197142Y-88396247D02*
X83149523Y-88586723D01*
X83149523Y-88586723D02*
X83101904Y-88681961D01*
X83101904Y-88681961D02*
X83006666Y-88777200D01*
X83006666Y-88777200D02*
X82863809Y-88824819D01*
X82863809Y-88824819D02*
X82625714Y-88824819D01*
X83578095Y-87920057D02*
X83625714Y-87872438D01*
X83625714Y-87872438D02*
X83720952Y-87824819D01*
X83720952Y-87824819D02*
X83959047Y-87824819D01*
X83959047Y-87824819D02*
X84054285Y-87872438D01*
X84054285Y-87872438D02*
X84101904Y-87920057D01*
X84101904Y-87920057D02*
X84149523Y-88015295D01*
X84149523Y-88015295D02*
X84149523Y-88110533D01*
X84149523Y-88110533D02*
X84101904Y-88253390D01*
X84101904Y-88253390D02*
X83530476Y-88824819D01*
X83530476Y-88824819D02*
X84149523Y-88824819D01*
X84768571Y-87824819D02*
X84863809Y-87824819D01*
X84863809Y-87824819D02*
X84959047Y-87872438D01*
X84959047Y-87872438D02*
X85006666Y-87920057D01*
X85006666Y-87920057D02*
X85054285Y-88015295D01*
X85054285Y-88015295D02*
X85101904Y-88205771D01*
X85101904Y-88205771D02*
X85101904Y-88443866D01*
X85101904Y-88443866D02*
X85054285Y-88634342D01*
X85054285Y-88634342D02*
X85006666Y-88729580D01*
X85006666Y-88729580D02*
X84959047Y-88777200D01*
X84959047Y-88777200D02*
X84863809Y-88824819D01*
X84863809Y-88824819D02*
X84768571Y-88824819D01*
X84768571Y-88824819D02*
X84673333Y-88777200D01*
X84673333Y-88777200D02*
X84625714Y-88729580D01*
X84625714Y-88729580D02*
X84578095Y-88634342D01*
X84578095Y-88634342D02*
X84530476Y-88443866D01*
X84530476Y-88443866D02*
X84530476Y-88205771D01*
X84530476Y-88205771D02*
X84578095Y-88015295D01*
X84578095Y-88015295D02*
X84625714Y-87920057D01*
X84625714Y-87920057D02*
X84673333Y-87872438D01*
X84673333Y-87872438D02*
X84768571Y-87824819D01*
X82640714Y-91324819D02*
X82640714Y-90324819D01*
X82640714Y-90324819D02*
X82878809Y-90324819D01*
X82878809Y-90324819D02*
X83021666Y-90372438D01*
X83021666Y-90372438D02*
X83116904Y-90467676D01*
X83116904Y-90467676D02*
X83164523Y-90562914D01*
X83164523Y-90562914D02*
X83212142Y-90753390D01*
X83212142Y-90753390D02*
X83212142Y-90896247D01*
X83212142Y-90896247D02*
X83164523Y-91086723D01*
X83164523Y-91086723D02*
X83116904Y-91181961D01*
X83116904Y-91181961D02*
X83021666Y-91277200D01*
X83021666Y-91277200D02*
X82878809Y-91324819D01*
X82878809Y-91324819D02*
X82640714Y-91324819D01*
X84164523Y-91324819D02*
X83593095Y-91324819D01*
X83878809Y-91324819D02*
X83878809Y-90324819D01*
X83878809Y-90324819D02*
X83783571Y-90467676D01*
X83783571Y-90467676D02*
X83688333Y-90562914D01*
X83688333Y-90562914D02*
X83593095Y-90610533D01*
X84735952Y-90753390D02*
X84640714Y-90705771D01*
X84640714Y-90705771D02*
X84593095Y-90658152D01*
X84593095Y-90658152D02*
X84545476Y-90562914D01*
X84545476Y-90562914D02*
X84545476Y-90515295D01*
X84545476Y-90515295D02*
X84593095Y-90420057D01*
X84593095Y-90420057D02*
X84640714Y-90372438D01*
X84640714Y-90372438D02*
X84735952Y-90324819D01*
X84735952Y-90324819D02*
X84926428Y-90324819D01*
X84926428Y-90324819D02*
X85021666Y-90372438D01*
X85021666Y-90372438D02*
X85069285Y-90420057D01*
X85069285Y-90420057D02*
X85116904Y-90515295D01*
X85116904Y-90515295D02*
X85116904Y-90562914D01*
X85116904Y-90562914D02*
X85069285Y-90658152D01*
X85069285Y-90658152D02*
X85021666Y-90705771D01*
X85021666Y-90705771D02*
X84926428Y-90753390D01*
X84926428Y-90753390D02*
X84735952Y-90753390D01*
X84735952Y-90753390D02*
X84640714Y-90801009D01*
X84640714Y-90801009D02*
X84593095Y-90848628D01*
X84593095Y-90848628D02*
X84545476Y-90943866D01*
X84545476Y-90943866D02*
X84545476Y-91134342D01*
X84545476Y-91134342D02*
X84593095Y-91229580D01*
X84593095Y-91229580D02*
X84640714Y-91277200D01*
X84640714Y-91277200D02*
X84735952Y-91324819D01*
X84735952Y-91324819D02*
X84926428Y-91324819D01*
X84926428Y-91324819D02*
X85021666Y-91277200D01*
X85021666Y-91277200D02*
X85069285Y-91229580D01*
X85069285Y-91229580D02*
X85116904Y-91134342D01*
X85116904Y-91134342D02*
X85116904Y-90943866D01*
X85116904Y-90943866D02*
X85069285Y-90848628D01*
X85069285Y-90848628D02*
X85021666Y-90801009D01*
X85021666Y-90801009D02*
X84926428Y-90753390D01*
X80545714Y-92574819D02*
X80545714Y-91574819D01*
X80545714Y-91574819D02*
X80783809Y-91574819D01*
X80783809Y-91574819D02*
X80926666Y-91622438D01*
X80926666Y-91622438D02*
X81021904Y-91717676D01*
X81021904Y-91717676D02*
X81069523Y-91812914D01*
X81069523Y-91812914D02*
X81117142Y-92003390D01*
X81117142Y-92003390D02*
X81117142Y-92146247D01*
X81117142Y-92146247D02*
X81069523Y-92336723D01*
X81069523Y-92336723D02*
X81021904Y-92431961D01*
X81021904Y-92431961D02*
X80926666Y-92527200D01*
X80926666Y-92527200D02*
X80783809Y-92574819D01*
X80783809Y-92574819D02*
X80545714Y-92574819D01*
X81498095Y-91670057D02*
X81545714Y-91622438D01*
X81545714Y-91622438D02*
X81640952Y-91574819D01*
X81640952Y-91574819D02*
X81879047Y-91574819D01*
X81879047Y-91574819D02*
X81974285Y-91622438D01*
X81974285Y-91622438D02*
X82021904Y-91670057D01*
X82021904Y-91670057D02*
X82069523Y-91765295D01*
X82069523Y-91765295D02*
X82069523Y-91860533D01*
X82069523Y-91860533D02*
X82021904Y-92003390D01*
X82021904Y-92003390D02*
X81450476Y-92574819D01*
X81450476Y-92574819D02*
X82069523Y-92574819D01*
X82974285Y-91574819D02*
X82498095Y-91574819D01*
X82498095Y-91574819D02*
X82450476Y-92051009D01*
X82450476Y-92051009D02*
X82498095Y-92003390D01*
X82498095Y-92003390D02*
X82593333Y-91955771D01*
X82593333Y-91955771D02*
X82831428Y-91955771D01*
X82831428Y-91955771D02*
X82926666Y-92003390D01*
X82926666Y-92003390D02*
X82974285Y-92051009D01*
X82974285Y-92051009D02*
X83021904Y-92146247D01*
X83021904Y-92146247D02*
X83021904Y-92384342D01*
X83021904Y-92384342D02*
X82974285Y-92479580D01*
X82974285Y-92479580D02*
X82926666Y-92527200D01*
X82926666Y-92527200D02*
X82831428Y-92574819D01*
X82831428Y-92574819D02*
X82593333Y-92574819D01*
X82593333Y-92574819D02*
X82498095Y-92527200D01*
X82498095Y-92527200D02*
X82450476Y-92479580D01*
X80540714Y-91324819D02*
X80540714Y-90324819D01*
X80540714Y-90324819D02*
X80778809Y-90324819D01*
X80778809Y-90324819D02*
X80921666Y-90372438D01*
X80921666Y-90372438D02*
X81016904Y-90467676D01*
X81016904Y-90467676D02*
X81064523Y-90562914D01*
X81064523Y-90562914D02*
X81112142Y-90753390D01*
X81112142Y-90753390D02*
X81112142Y-90896247D01*
X81112142Y-90896247D02*
X81064523Y-91086723D01*
X81064523Y-91086723D02*
X81016904Y-91181961D01*
X81016904Y-91181961D02*
X80921666Y-91277200D01*
X80921666Y-91277200D02*
X80778809Y-91324819D01*
X80778809Y-91324819D02*
X80540714Y-91324819D01*
X81493095Y-90420057D02*
X81540714Y-90372438D01*
X81540714Y-90372438D02*
X81635952Y-90324819D01*
X81635952Y-90324819D02*
X81874047Y-90324819D01*
X81874047Y-90324819D02*
X81969285Y-90372438D01*
X81969285Y-90372438D02*
X82016904Y-90420057D01*
X82016904Y-90420057D02*
X82064523Y-90515295D01*
X82064523Y-90515295D02*
X82064523Y-90610533D01*
X82064523Y-90610533D02*
X82016904Y-90753390D01*
X82016904Y-90753390D02*
X81445476Y-91324819D01*
X81445476Y-91324819D02*
X82064523Y-91324819D01*
X82921666Y-90324819D02*
X82731190Y-90324819D01*
X82731190Y-90324819D02*
X82635952Y-90372438D01*
X82635952Y-90372438D02*
X82588333Y-90420057D01*
X82588333Y-90420057D02*
X82493095Y-90562914D01*
X82493095Y-90562914D02*
X82445476Y-90753390D01*
X82445476Y-90753390D02*
X82445476Y-91134342D01*
X82445476Y-91134342D02*
X82493095Y-91229580D01*
X82493095Y-91229580D02*
X82540714Y-91277200D01*
X82540714Y-91277200D02*
X82635952Y-91324819D01*
X82635952Y-91324819D02*
X82826428Y-91324819D01*
X82826428Y-91324819D02*
X82921666Y-91277200D01*
X82921666Y-91277200D02*
X82969285Y-91229580D01*
X82969285Y-91229580D02*
X83016904Y-91134342D01*
X83016904Y-91134342D02*
X83016904Y-90896247D01*
X83016904Y-90896247D02*
X82969285Y-90801009D01*
X82969285Y-90801009D02*
X82921666Y-90753390D01*
X82921666Y-90753390D02*
X82826428Y-90705771D01*
X82826428Y-90705771D02*
X82635952Y-90705771D01*
X82635952Y-90705771D02*
X82540714Y-90753390D01*
X82540714Y-90753390D02*
X82493095Y-90801009D01*
X82493095Y-90801009D02*
X82445476Y-90896247D01*
X82620714Y-87574819D02*
X82620714Y-86574819D01*
X82620714Y-86574819D02*
X82858809Y-86574819D01*
X82858809Y-86574819D02*
X83001666Y-86622438D01*
X83001666Y-86622438D02*
X83096904Y-86717676D01*
X83096904Y-86717676D02*
X83144523Y-86812914D01*
X83144523Y-86812914D02*
X83192142Y-87003390D01*
X83192142Y-87003390D02*
X83192142Y-87146247D01*
X83192142Y-87146247D02*
X83144523Y-87336723D01*
X83144523Y-87336723D02*
X83096904Y-87431961D01*
X83096904Y-87431961D02*
X83001666Y-87527200D01*
X83001666Y-87527200D02*
X82858809Y-87574819D01*
X82858809Y-87574819D02*
X82620714Y-87574819D01*
X83573095Y-86670057D02*
X83620714Y-86622438D01*
X83620714Y-86622438D02*
X83715952Y-86574819D01*
X83715952Y-86574819D02*
X83954047Y-86574819D01*
X83954047Y-86574819D02*
X84049285Y-86622438D01*
X84049285Y-86622438D02*
X84096904Y-86670057D01*
X84096904Y-86670057D02*
X84144523Y-86765295D01*
X84144523Y-86765295D02*
X84144523Y-86860533D01*
X84144523Y-86860533D02*
X84096904Y-87003390D01*
X84096904Y-87003390D02*
X83525476Y-87574819D01*
X83525476Y-87574819D02*
X84144523Y-87574819D01*
X85096904Y-87574819D02*
X84525476Y-87574819D01*
X84811190Y-87574819D02*
X84811190Y-86574819D01*
X84811190Y-86574819D02*
X84715952Y-86717676D01*
X84715952Y-86717676D02*
X84620714Y-86812914D01*
X84620714Y-86812914D02*
X84525476Y-86860533D01*
X82640714Y-85074819D02*
X82640714Y-84074819D01*
X82640714Y-84074819D02*
X82878809Y-84074819D01*
X82878809Y-84074819D02*
X83021666Y-84122438D01*
X83021666Y-84122438D02*
X83116904Y-84217676D01*
X83116904Y-84217676D02*
X83164523Y-84312914D01*
X83164523Y-84312914D02*
X83212142Y-84503390D01*
X83212142Y-84503390D02*
X83212142Y-84646247D01*
X83212142Y-84646247D02*
X83164523Y-84836723D01*
X83164523Y-84836723D02*
X83116904Y-84931961D01*
X83116904Y-84931961D02*
X83021666Y-85027200D01*
X83021666Y-85027200D02*
X82878809Y-85074819D01*
X82878809Y-85074819D02*
X82640714Y-85074819D01*
X83593095Y-84170057D02*
X83640714Y-84122438D01*
X83640714Y-84122438D02*
X83735952Y-84074819D01*
X83735952Y-84074819D02*
X83974047Y-84074819D01*
X83974047Y-84074819D02*
X84069285Y-84122438D01*
X84069285Y-84122438D02*
X84116904Y-84170057D01*
X84116904Y-84170057D02*
X84164523Y-84265295D01*
X84164523Y-84265295D02*
X84164523Y-84360533D01*
X84164523Y-84360533D02*
X84116904Y-84503390D01*
X84116904Y-84503390D02*
X83545476Y-85074819D01*
X83545476Y-85074819D02*
X84164523Y-85074819D01*
X84497857Y-84074819D02*
X85116904Y-84074819D01*
X85116904Y-84074819D02*
X84783571Y-84455771D01*
X84783571Y-84455771D02*
X84926428Y-84455771D01*
X84926428Y-84455771D02*
X85021666Y-84503390D01*
X85021666Y-84503390D02*
X85069285Y-84551009D01*
X85069285Y-84551009D02*
X85116904Y-84646247D01*
X85116904Y-84646247D02*
X85116904Y-84884342D01*
X85116904Y-84884342D02*
X85069285Y-84979580D01*
X85069285Y-84979580D02*
X85021666Y-85027200D01*
X85021666Y-85027200D02*
X84926428Y-85074819D01*
X84926428Y-85074819D02*
X84640714Y-85074819D01*
X84640714Y-85074819D02*
X84545476Y-85027200D01*
X84545476Y-85027200D02*
X84497857Y-84979580D01*
X82625714Y-90074819D02*
X82625714Y-89074819D01*
X82625714Y-89074819D02*
X82863809Y-89074819D01*
X82863809Y-89074819D02*
X83006666Y-89122438D01*
X83006666Y-89122438D02*
X83101904Y-89217676D01*
X83101904Y-89217676D02*
X83149523Y-89312914D01*
X83149523Y-89312914D02*
X83197142Y-89503390D01*
X83197142Y-89503390D02*
X83197142Y-89646247D01*
X83197142Y-89646247D02*
X83149523Y-89836723D01*
X83149523Y-89836723D02*
X83101904Y-89931961D01*
X83101904Y-89931961D02*
X83006666Y-90027200D01*
X83006666Y-90027200D02*
X82863809Y-90074819D01*
X82863809Y-90074819D02*
X82625714Y-90074819D01*
X84149523Y-90074819D02*
X83578095Y-90074819D01*
X83863809Y-90074819D02*
X83863809Y-89074819D01*
X83863809Y-89074819D02*
X83768571Y-89217676D01*
X83768571Y-89217676D02*
X83673333Y-89312914D01*
X83673333Y-89312914D02*
X83578095Y-89360533D01*
X84625714Y-90074819D02*
X84816190Y-90074819D01*
X84816190Y-90074819D02*
X84911428Y-90027200D01*
X84911428Y-90027200D02*
X84959047Y-89979580D01*
X84959047Y-89979580D02*
X85054285Y-89836723D01*
X85054285Y-89836723D02*
X85101904Y-89646247D01*
X85101904Y-89646247D02*
X85101904Y-89265295D01*
X85101904Y-89265295D02*
X85054285Y-89170057D01*
X85054285Y-89170057D02*
X85006666Y-89122438D01*
X85006666Y-89122438D02*
X84911428Y-89074819D01*
X84911428Y-89074819D02*
X84720952Y-89074819D01*
X84720952Y-89074819D02*
X84625714Y-89122438D01*
X84625714Y-89122438D02*
X84578095Y-89170057D01*
X84578095Y-89170057D02*
X84530476Y-89265295D01*
X84530476Y-89265295D02*
X84530476Y-89503390D01*
X84530476Y-89503390D02*
X84578095Y-89598628D01*
X84578095Y-89598628D02*
X84625714Y-89646247D01*
X84625714Y-89646247D02*
X84720952Y-89693866D01*
X84720952Y-89693866D02*
X84911428Y-89693866D01*
X84911428Y-89693866D02*
X85006666Y-89646247D01*
X85006666Y-89646247D02*
X85054285Y-89598628D01*
X85054285Y-89598628D02*
X85101904Y-89503390D01*
X82640714Y-86324819D02*
X82640714Y-85324819D01*
X82640714Y-85324819D02*
X82878809Y-85324819D01*
X82878809Y-85324819D02*
X83021666Y-85372438D01*
X83021666Y-85372438D02*
X83116904Y-85467676D01*
X83116904Y-85467676D02*
X83164523Y-85562914D01*
X83164523Y-85562914D02*
X83212142Y-85753390D01*
X83212142Y-85753390D02*
X83212142Y-85896247D01*
X83212142Y-85896247D02*
X83164523Y-86086723D01*
X83164523Y-86086723D02*
X83116904Y-86181961D01*
X83116904Y-86181961D02*
X83021666Y-86277200D01*
X83021666Y-86277200D02*
X82878809Y-86324819D01*
X82878809Y-86324819D02*
X82640714Y-86324819D01*
X83593095Y-85420057D02*
X83640714Y-85372438D01*
X83640714Y-85372438D02*
X83735952Y-85324819D01*
X83735952Y-85324819D02*
X83974047Y-85324819D01*
X83974047Y-85324819D02*
X84069285Y-85372438D01*
X84069285Y-85372438D02*
X84116904Y-85420057D01*
X84116904Y-85420057D02*
X84164523Y-85515295D01*
X84164523Y-85515295D02*
X84164523Y-85610533D01*
X84164523Y-85610533D02*
X84116904Y-85753390D01*
X84116904Y-85753390D02*
X83545476Y-86324819D01*
X83545476Y-86324819D02*
X84164523Y-86324819D01*
X84545476Y-85420057D02*
X84593095Y-85372438D01*
X84593095Y-85372438D02*
X84688333Y-85324819D01*
X84688333Y-85324819D02*
X84926428Y-85324819D01*
X84926428Y-85324819D02*
X85021666Y-85372438D01*
X85021666Y-85372438D02*
X85069285Y-85420057D01*
X85069285Y-85420057D02*
X85116904Y-85515295D01*
X85116904Y-85515295D02*
X85116904Y-85610533D01*
X85116904Y-85610533D02*
X85069285Y-85753390D01*
X85069285Y-85753390D02*
X84497857Y-86324819D01*
X84497857Y-86324819D02*
X85116904Y-86324819D01*
X82630714Y-92544819D02*
X82630714Y-91544819D01*
X82630714Y-91544819D02*
X82868809Y-91544819D01*
X82868809Y-91544819D02*
X83011666Y-91592438D01*
X83011666Y-91592438D02*
X83106904Y-91687676D01*
X83106904Y-91687676D02*
X83154523Y-91782914D01*
X83154523Y-91782914D02*
X83202142Y-91973390D01*
X83202142Y-91973390D02*
X83202142Y-92116247D01*
X83202142Y-92116247D02*
X83154523Y-92306723D01*
X83154523Y-92306723D02*
X83106904Y-92401961D01*
X83106904Y-92401961D02*
X83011666Y-92497200D01*
X83011666Y-92497200D02*
X82868809Y-92544819D01*
X82868809Y-92544819D02*
X82630714Y-92544819D01*
X84154523Y-92544819D02*
X83583095Y-92544819D01*
X83868809Y-92544819D02*
X83868809Y-91544819D01*
X83868809Y-91544819D02*
X83773571Y-91687676D01*
X83773571Y-91687676D02*
X83678333Y-91782914D01*
X83678333Y-91782914D02*
X83583095Y-91830533D01*
X84487857Y-91544819D02*
X85154523Y-91544819D01*
X85154523Y-91544819D02*
X84725952Y-92544819D01*
X76340714Y-90049819D02*
X76340714Y-89049819D01*
X76340714Y-89049819D02*
X76578809Y-89049819D01*
X76578809Y-89049819D02*
X76721666Y-89097438D01*
X76721666Y-89097438D02*
X76816904Y-89192676D01*
X76816904Y-89192676D02*
X76864523Y-89287914D01*
X76864523Y-89287914D02*
X76912142Y-89478390D01*
X76912142Y-89478390D02*
X76912142Y-89621247D01*
X76912142Y-89621247D02*
X76864523Y-89811723D01*
X76864523Y-89811723D02*
X76816904Y-89906961D01*
X76816904Y-89906961D02*
X76721666Y-90002200D01*
X76721666Y-90002200D02*
X76578809Y-90049819D01*
X76578809Y-90049819D02*
X76340714Y-90049819D01*
X77769285Y-89383152D02*
X77769285Y-90049819D01*
X77531190Y-89002200D02*
X77293095Y-89716485D01*
X77293095Y-89716485D02*
X77912142Y-89716485D01*
X78197857Y-89049819D02*
X78816904Y-89049819D01*
X78816904Y-89049819D02*
X78483571Y-89430771D01*
X78483571Y-89430771D02*
X78626428Y-89430771D01*
X78626428Y-89430771D02*
X78721666Y-89478390D01*
X78721666Y-89478390D02*
X78769285Y-89526009D01*
X78769285Y-89526009D02*
X78816904Y-89621247D01*
X78816904Y-89621247D02*
X78816904Y-89859342D01*
X78816904Y-89859342D02*
X78769285Y-89954580D01*
X78769285Y-89954580D02*
X78721666Y-90002200D01*
X78721666Y-90002200D02*
X78626428Y-90049819D01*
X78626428Y-90049819D02*
X78340714Y-90049819D01*
X78340714Y-90049819D02*
X78245476Y-90002200D01*
X78245476Y-90002200D02*
X78197857Y-89954580D01*
X78430714Y-92574819D02*
X78430714Y-91574819D01*
X78430714Y-91574819D02*
X78668809Y-91574819D01*
X78668809Y-91574819D02*
X78811666Y-91622438D01*
X78811666Y-91622438D02*
X78906904Y-91717676D01*
X78906904Y-91717676D02*
X78954523Y-91812914D01*
X78954523Y-91812914D02*
X79002142Y-92003390D01*
X79002142Y-92003390D02*
X79002142Y-92146247D01*
X79002142Y-92146247D02*
X78954523Y-92336723D01*
X78954523Y-92336723D02*
X78906904Y-92431961D01*
X78906904Y-92431961D02*
X78811666Y-92527200D01*
X78811666Y-92527200D02*
X78668809Y-92574819D01*
X78668809Y-92574819D02*
X78430714Y-92574819D01*
X79335476Y-91574819D02*
X79954523Y-91574819D01*
X79954523Y-91574819D02*
X79621190Y-91955771D01*
X79621190Y-91955771D02*
X79764047Y-91955771D01*
X79764047Y-91955771D02*
X79859285Y-92003390D01*
X79859285Y-92003390D02*
X79906904Y-92051009D01*
X79906904Y-92051009D02*
X79954523Y-92146247D01*
X79954523Y-92146247D02*
X79954523Y-92384342D01*
X79954523Y-92384342D02*
X79906904Y-92479580D01*
X79906904Y-92479580D02*
X79859285Y-92527200D01*
X79859285Y-92527200D02*
X79764047Y-92574819D01*
X79764047Y-92574819D02*
X79478333Y-92574819D01*
X79478333Y-92574819D02*
X79383095Y-92527200D01*
X79383095Y-92527200D02*
X79335476Y-92479580D01*
X80287857Y-91574819D02*
X80906904Y-91574819D01*
X80906904Y-91574819D02*
X80573571Y-91955771D01*
X80573571Y-91955771D02*
X80716428Y-91955771D01*
X80716428Y-91955771D02*
X80811666Y-92003390D01*
X80811666Y-92003390D02*
X80859285Y-92051009D01*
X80859285Y-92051009D02*
X80906904Y-92146247D01*
X80906904Y-92146247D02*
X80906904Y-92384342D01*
X80906904Y-92384342D02*
X80859285Y-92479580D01*
X80859285Y-92479580D02*
X80811666Y-92527200D01*
X80811666Y-92527200D02*
X80716428Y-92574819D01*
X80716428Y-92574819D02*
X80430714Y-92574819D01*
X80430714Y-92574819D02*
X80335476Y-92527200D01*
X80335476Y-92527200D02*
X80287857Y-92479580D01*
X80540714Y-90074819D02*
X80540714Y-89074819D01*
X80540714Y-89074819D02*
X80778809Y-89074819D01*
X80778809Y-89074819D02*
X80921666Y-89122438D01*
X80921666Y-89122438D02*
X81016904Y-89217676D01*
X81016904Y-89217676D02*
X81064523Y-89312914D01*
X81064523Y-89312914D02*
X81112142Y-89503390D01*
X81112142Y-89503390D02*
X81112142Y-89646247D01*
X81112142Y-89646247D02*
X81064523Y-89836723D01*
X81064523Y-89836723D02*
X81016904Y-89931961D01*
X81016904Y-89931961D02*
X80921666Y-90027200D01*
X80921666Y-90027200D02*
X80778809Y-90074819D01*
X80778809Y-90074819D02*
X80540714Y-90074819D01*
X81493095Y-89170057D02*
X81540714Y-89122438D01*
X81540714Y-89122438D02*
X81635952Y-89074819D01*
X81635952Y-89074819D02*
X81874047Y-89074819D01*
X81874047Y-89074819D02*
X81969285Y-89122438D01*
X81969285Y-89122438D02*
X82016904Y-89170057D01*
X82016904Y-89170057D02*
X82064523Y-89265295D01*
X82064523Y-89265295D02*
X82064523Y-89360533D01*
X82064523Y-89360533D02*
X82016904Y-89503390D01*
X82016904Y-89503390D02*
X81445476Y-90074819D01*
X81445476Y-90074819D02*
X82064523Y-90074819D01*
X82397857Y-89074819D02*
X83064523Y-89074819D01*
X83064523Y-89074819D02*
X82635952Y-90074819D01*
X80540714Y-87574819D02*
X80540714Y-86574819D01*
X80540714Y-86574819D02*
X80778809Y-86574819D01*
X80778809Y-86574819D02*
X80921666Y-86622438D01*
X80921666Y-86622438D02*
X81016904Y-86717676D01*
X81016904Y-86717676D02*
X81064523Y-86812914D01*
X81064523Y-86812914D02*
X81112142Y-87003390D01*
X81112142Y-87003390D02*
X81112142Y-87146247D01*
X81112142Y-87146247D02*
X81064523Y-87336723D01*
X81064523Y-87336723D02*
X81016904Y-87431961D01*
X81016904Y-87431961D02*
X80921666Y-87527200D01*
X80921666Y-87527200D02*
X80778809Y-87574819D01*
X80778809Y-87574819D02*
X80540714Y-87574819D01*
X81493095Y-86670057D02*
X81540714Y-86622438D01*
X81540714Y-86622438D02*
X81635952Y-86574819D01*
X81635952Y-86574819D02*
X81874047Y-86574819D01*
X81874047Y-86574819D02*
X81969285Y-86622438D01*
X81969285Y-86622438D02*
X82016904Y-86670057D01*
X82016904Y-86670057D02*
X82064523Y-86765295D01*
X82064523Y-86765295D02*
X82064523Y-86860533D01*
X82064523Y-86860533D02*
X82016904Y-87003390D01*
X82016904Y-87003390D02*
X81445476Y-87574819D01*
X81445476Y-87574819D02*
X82064523Y-87574819D01*
X82540714Y-87574819D02*
X82731190Y-87574819D01*
X82731190Y-87574819D02*
X82826428Y-87527200D01*
X82826428Y-87527200D02*
X82874047Y-87479580D01*
X82874047Y-87479580D02*
X82969285Y-87336723D01*
X82969285Y-87336723D02*
X83016904Y-87146247D01*
X83016904Y-87146247D02*
X83016904Y-86765295D01*
X83016904Y-86765295D02*
X82969285Y-86670057D01*
X82969285Y-86670057D02*
X82921666Y-86622438D01*
X82921666Y-86622438D02*
X82826428Y-86574819D01*
X82826428Y-86574819D02*
X82635952Y-86574819D01*
X82635952Y-86574819D02*
X82540714Y-86622438D01*
X82540714Y-86622438D02*
X82493095Y-86670057D01*
X82493095Y-86670057D02*
X82445476Y-86765295D01*
X82445476Y-86765295D02*
X82445476Y-87003390D01*
X82445476Y-87003390D02*
X82493095Y-87098628D01*
X82493095Y-87098628D02*
X82540714Y-87146247D01*
X82540714Y-87146247D02*
X82635952Y-87193866D01*
X82635952Y-87193866D02*
X82826428Y-87193866D01*
X82826428Y-87193866D02*
X82921666Y-87146247D01*
X82921666Y-87146247D02*
X82969285Y-87098628D01*
X82969285Y-87098628D02*
X83016904Y-87003390D01*
X80540714Y-88824819D02*
X80540714Y-87824819D01*
X80540714Y-87824819D02*
X80778809Y-87824819D01*
X80778809Y-87824819D02*
X80921666Y-87872438D01*
X80921666Y-87872438D02*
X81016904Y-87967676D01*
X81016904Y-87967676D02*
X81064523Y-88062914D01*
X81064523Y-88062914D02*
X81112142Y-88253390D01*
X81112142Y-88253390D02*
X81112142Y-88396247D01*
X81112142Y-88396247D02*
X81064523Y-88586723D01*
X81064523Y-88586723D02*
X81016904Y-88681961D01*
X81016904Y-88681961D02*
X80921666Y-88777200D01*
X80921666Y-88777200D02*
X80778809Y-88824819D01*
X80778809Y-88824819D02*
X80540714Y-88824819D01*
X81493095Y-87920057D02*
X81540714Y-87872438D01*
X81540714Y-87872438D02*
X81635952Y-87824819D01*
X81635952Y-87824819D02*
X81874047Y-87824819D01*
X81874047Y-87824819D02*
X81969285Y-87872438D01*
X81969285Y-87872438D02*
X82016904Y-87920057D01*
X82016904Y-87920057D02*
X82064523Y-88015295D01*
X82064523Y-88015295D02*
X82064523Y-88110533D01*
X82064523Y-88110533D02*
X82016904Y-88253390D01*
X82016904Y-88253390D02*
X81445476Y-88824819D01*
X81445476Y-88824819D02*
X82064523Y-88824819D01*
X82635952Y-88253390D02*
X82540714Y-88205771D01*
X82540714Y-88205771D02*
X82493095Y-88158152D01*
X82493095Y-88158152D02*
X82445476Y-88062914D01*
X82445476Y-88062914D02*
X82445476Y-88015295D01*
X82445476Y-88015295D02*
X82493095Y-87920057D01*
X82493095Y-87920057D02*
X82540714Y-87872438D01*
X82540714Y-87872438D02*
X82635952Y-87824819D01*
X82635952Y-87824819D02*
X82826428Y-87824819D01*
X82826428Y-87824819D02*
X82921666Y-87872438D01*
X82921666Y-87872438D02*
X82969285Y-87920057D01*
X82969285Y-87920057D02*
X83016904Y-88015295D01*
X83016904Y-88015295D02*
X83016904Y-88062914D01*
X83016904Y-88062914D02*
X82969285Y-88158152D01*
X82969285Y-88158152D02*
X82921666Y-88205771D01*
X82921666Y-88205771D02*
X82826428Y-88253390D01*
X82826428Y-88253390D02*
X82635952Y-88253390D01*
X82635952Y-88253390D02*
X82540714Y-88301009D01*
X82540714Y-88301009D02*
X82493095Y-88348628D01*
X82493095Y-88348628D02*
X82445476Y-88443866D01*
X82445476Y-88443866D02*
X82445476Y-88634342D01*
X82445476Y-88634342D02*
X82493095Y-88729580D01*
X82493095Y-88729580D02*
X82540714Y-88777200D01*
X82540714Y-88777200D02*
X82635952Y-88824819D01*
X82635952Y-88824819D02*
X82826428Y-88824819D01*
X82826428Y-88824819D02*
X82921666Y-88777200D01*
X82921666Y-88777200D02*
X82969285Y-88729580D01*
X82969285Y-88729580D02*
X83016904Y-88634342D01*
X83016904Y-88634342D02*
X83016904Y-88443866D01*
X83016904Y-88443866D02*
X82969285Y-88348628D01*
X82969285Y-88348628D02*
X82921666Y-88301009D01*
X82921666Y-88301009D02*
X82826428Y-88253390D01*
X80540714Y-86324819D02*
X80540714Y-85324819D01*
X80540714Y-85324819D02*
X80778809Y-85324819D01*
X80778809Y-85324819D02*
X80921666Y-85372438D01*
X80921666Y-85372438D02*
X81016904Y-85467676D01*
X81016904Y-85467676D02*
X81064523Y-85562914D01*
X81064523Y-85562914D02*
X81112142Y-85753390D01*
X81112142Y-85753390D02*
X81112142Y-85896247D01*
X81112142Y-85896247D02*
X81064523Y-86086723D01*
X81064523Y-86086723D02*
X81016904Y-86181961D01*
X81016904Y-86181961D02*
X80921666Y-86277200D01*
X80921666Y-86277200D02*
X80778809Y-86324819D01*
X80778809Y-86324819D02*
X80540714Y-86324819D01*
X81445476Y-85324819D02*
X82064523Y-85324819D01*
X82064523Y-85324819D02*
X81731190Y-85705771D01*
X81731190Y-85705771D02*
X81874047Y-85705771D01*
X81874047Y-85705771D02*
X81969285Y-85753390D01*
X81969285Y-85753390D02*
X82016904Y-85801009D01*
X82016904Y-85801009D02*
X82064523Y-85896247D01*
X82064523Y-85896247D02*
X82064523Y-86134342D01*
X82064523Y-86134342D02*
X82016904Y-86229580D01*
X82016904Y-86229580D02*
X81969285Y-86277200D01*
X81969285Y-86277200D02*
X81874047Y-86324819D01*
X81874047Y-86324819D02*
X81588333Y-86324819D01*
X81588333Y-86324819D02*
X81493095Y-86277200D01*
X81493095Y-86277200D02*
X81445476Y-86229580D01*
X82683571Y-85324819D02*
X82778809Y-85324819D01*
X82778809Y-85324819D02*
X82874047Y-85372438D01*
X82874047Y-85372438D02*
X82921666Y-85420057D01*
X82921666Y-85420057D02*
X82969285Y-85515295D01*
X82969285Y-85515295D02*
X83016904Y-85705771D01*
X83016904Y-85705771D02*
X83016904Y-85943866D01*
X83016904Y-85943866D02*
X82969285Y-86134342D01*
X82969285Y-86134342D02*
X82921666Y-86229580D01*
X82921666Y-86229580D02*
X82874047Y-86277200D01*
X82874047Y-86277200D02*
X82778809Y-86324819D01*
X82778809Y-86324819D02*
X82683571Y-86324819D01*
X82683571Y-86324819D02*
X82588333Y-86277200D01*
X82588333Y-86277200D02*
X82540714Y-86229580D01*
X82540714Y-86229580D02*
X82493095Y-86134342D01*
X82493095Y-86134342D02*
X82445476Y-85943866D01*
X82445476Y-85943866D02*
X82445476Y-85705771D01*
X82445476Y-85705771D02*
X82493095Y-85515295D01*
X82493095Y-85515295D02*
X82540714Y-85420057D01*
X82540714Y-85420057D02*
X82588333Y-85372438D01*
X82588333Y-85372438D02*
X82683571Y-85324819D01*
X76340714Y-88824819D02*
X76340714Y-87824819D01*
X76340714Y-87824819D02*
X76578809Y-87824819D01*
X76578809Y-87824819D02*
X76721666Y-87872438D01*
X76721666Y-87872438D02*
X76816904Y-87967676D01*
X76816904Y-87967676D02*
X76864523Y-88062914D01*
X76864523Y-88062914D02*
X76912142Y-88253390D01*
X76912142Y-88253390D02*
X76912142Y-88396247D01*
X76912142Y-88396247D02*
X76864523Y-88586723D01*
X76864523Y-88586723D02*
X76816904Y-88681961D01*
X76816904Y-88681961D02*
X76721666Y-88777200D01*
X76721666Y-88777200D02*
X76578809Y-88824819D01*
X76578809Y-88824819D02*
X76340714Y-88824819D01*
X77769285Y-88158152D02*
X77769285Y-88824819D01*
X77531190Y-87777200D02*
X77293095Y-88491485D01*
X77293095Y-88491485D02*
X77912142Y-88491485D01*
X78721666Y-88158152D02*
X78721666Y-88824819D01*
X78483571Y-87777200D02*
X78245476Y-88491485D01*
X78245476Y-88491485D02*
X78864523Y-88491485D01*
X80540714Y-85074819D02*
X80540714Y-84074819D01*
X80540714Y-84074819D02*
X80778809Y-84074819D01*
X80778809Y-84074819D02*
X80921666Y-84122438D01*
X80921666Y-84122438D02*
X81016904Y-84217676D01*
X81016904Y-84217676D02*
X81064523Y-84312914D01*
X81064523Y-84312914D02*
X81112142Y-84503390D01*
X81112142Y-84503390D02*
X81112142Y-84646247D01*
X81112142Y-84646247D02*
X81064523Y-84836723D01*
X81064523Y-84836723D02*
X81016904Y-84931961D01*
X81016904Y-84931961D02*
X80921666Y-85027200D01*
X80921666Y-85027200D02*
X80778809Y-85074819D01*
X80778809Y-85074819D02*
X80540714Y-85074819D01*
X81445476Y-84074819D02*
X82064523Y-84074819D01*
X82064523Y-84074819D02*
X81731190Y-84455771D01*
X81731190Y-84455771D02*
X81874047Y-84455771D01*
X81874047Y-84455771D02*
X81969285Y-84503390D01*
X81969285Y-84503390D02*
X82016904Y-84551009D01*
X82016904Y-84551009D02*
X82064523Y-84646247D01*
X82064523Y-84646247D02*
X82064523Y-84884342D01*
X82064523Y-84884342D02*
X82016904Y-84979580D01*
X82016904Y-84979580D02*
X81969285Y-85027200D01*
X81969285Y-85027200D02*
X81874047Y-85074819D01*
X81874047Y-85074819D02*
X81588333Y-85074819D01*
X81588333Y-85074819D02*
X81493095Y-85027200D01*
X81493095Y-85027200D02*
X81445476Y-84979580D01*
X83016904Y-85074819D02*
X82445476Y-85074819D01*
X82731190Y-85074819D02*
X82731190Y-84074819D01*
X82731190Y-84074819D02*
X82635952Y-84217676D01*
X82635952Y-84217676D02*
X82540714Y-84312914D01*
X82540714Y-84312914D02*
X82445476Y-84360533D01*
X78440714Y-90074819D02*
X78440714Y-89074819D01*
X78440714Y-89074819D02*
X78678809Y-89074819D01*
X78678809Y-89074819D02*
X78821666Y-89122438D01*
X78821666Y-89122438D02*
X78916904Y-89217676D01*
X78916904Y-89217676D02*
X78964523Y-89312914D01*
X78964523Y-89312914D02*
X79012142Y-89503390D01*
X79012142Y-89503390D02*
X79012142Y-89646247D01*
X79012142Y-89646247D02*
X78964523Y-89836723D01*
X78964523Y-89836723D02*
X78916904Y-89931961D01*
X78916904Y-89931961D02*
X78821666Y-90027200D01*
X78821666Y-90027200D02*
X78678809Y-90074819D01*
X78678809Y-90074819D02*
X78440714Y-90074819D01*
X79345476Y-89074819D02*
X79964523Y-89074819D01*
X79964523Y-89074819D02*
X79631190Y-89455771D01*
X79631190Y-89455771D02*
X79774047Y-89455771D01*
X79774047Y-89455771D02*
X79869285Y-89503390D01*
X79869285Y-89503390D02*
X79916904Y-89551009D01*
X79916904Y-89551009D02*
X79964523Y-89646247D01*
X79964523Y-89646247D02*
X79964523Y-89884342D01*
X79964523Y-89884342D02*
X79916904Y-89979580D01*
X79916904Y-89979580D02*
X79869285Y-90027200D01*
X79869285Y-90027200D02*
X79774047Y-90074819D01*
X79774047Y-90074819D02*
X79488333Y-90074819D01*
X79488333Y-90074819D02*
X79393095Y-90027200D01*
X79393095Y-90027200D02*
X79345476Y-89979580D01*
X80869285Y-89074819D02*
X80393095Y-89074819D01*
X80393095Y-89074819D02*
X80345476Y-89551009D01*
X80345476Y-89551009D02*
X80393095Y-89503390D01*
X80393095Y-89503390D02*
X80488333Y-89455771D01*
X80488333Y-89455771D02*
X80726428Y-89455771D01*
X80726428Y-89455771D02*
X80821666Y-89503390D01*
X80821666Y-89503390D02*
X80869285Y-89551009D01*
X80869285Y-89551009D02*
X80916904Y-89646247D01*
X80916904Y-89646247D02*
X80916904Y-89884342D01*
X80916904Y-89884342D02*
X80869285Y-89979580D01*
X80869285Y-89979580D02*
X80821666Y-90027200D01*
X80821666Y-90027200D02*
X80726428Y-90074819D01*
X80726428Y-90074819D02*
X80488333Y-90074819D01*
X80488333Y-90074819D02*
X80393095Y-90027200D01*
X80393095Y-90027200D02*
X80345476Y-89979580D01*
X78440714Y-88824819D02*
X78440714Y-87824819D01*
X78440714Y-87824819D02*
X78678809Y-87824819D01*
X78678809Y-87824819D02*
X78821666Y-87872438D01*
X78821666Y-87872438D02*
X78916904Y-87967676D01*
X78916904Y-87967676D02*
X78964523Y-88062914D01*
X78964523Y-88062914D02*
X79012142Y-88253390D01*
X79012142Y-88253390D02*
X79012142Y-88396247D01*
X79012142Y-88396247D02*
X78964523Y-88586723D01*
X78964523Y-88586723D02*
X78916904Y-88681961D01*
X78916904Y-88681961D02*
X78821666Y-88777200D01*
X78821666Y-88777200D02*
X78678809Y-88824819D01*
X78678809Y-88824819D02*
X78440714Y-88824819D01*
X79345476Y-87824819D02*
X79964523Y-87824819D01*
X79964523Y-87824819D02*
X79631190Y-88205771D01*
X79631190Y-88205771D02*
X79774047Y-88205771D01*
X79774047Y-88205771D02*
X79869285Y-88253390D01*
X79869285Y-88253390D02*
X79916904Y-88301009D01*
X79916904Y-88301009D02*
X79964523Y-88396247D01*
X79964523Y-88396247D02*
X79964523Y-88634342D01*
X79964523Y-88634342D02*
X79916904Y-88729580D01*
X79916904Y-88729580D02*
X79869285Y-88777200D01*
X79869285Y-88777200D02*
X79774047Y-88824819D01*
X79774047Y-88824819D02*
X79488333Y-88824819D01*
X79488333Y-88824819D02*
X79393095Y-88777200D01*
X79393095Y-88777200D02*
X79345476Y-88729580D01*
X80821666Y-87824819D02*
X80631190Y-87824819D01*
X80631190Y-87824819D02*
X80535952Y-87872438D01*
X80535952Y-87872438D02*
X80488333Y-87920057D01*
X80488333Y-87920057D02*
X80393095Y-88062914D01*
X80393095Y-88062914D02*
X80345476Y-88253390D01*
X80345476Y-88253390D02*
X80345476Y-88634342D01*
X80345476Y-88634342D02*
X80393095Y-88729580D01*
X80393095Y-88729580D02*
X80440714Y-88777200D01*
X80440714Y-88777200D02*
X80535952Y-88824819D01*
X80535952Y-88824819D02*
X80726428Y-88824819D01*
X80726428Y-88824819D02*
X80821666Y-88777200D01*
X80821666Y-88777200D02*
X80869285Y-88729580D01*
X80869285Y-88729580D02*
X80916904Y-88634342D01*
X80916904Y-88634342D02*
X80916904Y-88396247D01*
X80916904Y-88396247D02*
X80869285Y-88301009D01*
X80869285Y-88301009D02*
X80821666Y-88253390D01*
X80821666Y-88253390D02*
X80726428Y-88205771D01*
X80726428Y-88205771D02*
X80535952Y-88205771D01*
X80535952Y-88205771D02*
X80440714Y-88253390D01*
X80440714Y-88253390D02*
X80393095Y-88301009D01*
X80393095Y-88301009D02*
X80345476Y-88396247D01*
X78440714Y-87574819D02*
X78440714Y-86574819D01*
X78440714Y-86574819D02*
X78678809Y-86574819D01*
X78678809Y-86574819D02*
X78821666Y-86622438D01*
X78821666Y-86622438D02*
X78916904Y-86717676D01*
X78916904Y-86717676D02*
X78964523Y-86812914D01*
X78964523Y-86812914D02*
X79012142Y-87003390D01*
X79012142Y-87003390D02*
X79012142Y-87146247D01*
X79012142Y-87146247D02*
X78964523Y-87336723D01*
X78964523Y-87336723D02*
X78916904Y-87431961D01*
X78916904Y-87431961D02*
X78821666Y-87527200D01*
X78821666Y-87527200D02*
X78678809Y-87574819D01*
X78678809Y-87574819D02*
X78440714Y-87574819D01*
X79345476Y-86574819D02*
X79964523Y-86574819D01*
X79964523Y-86574819D02*
X79631190Y-86955771D01*
X79631190Y-86955771D02*
X79774047Y-86955771D01*
X79774047Y-86955771D02*
X79869285Y-87003390D01*
X79869285Y-87003390D02*
X79916904Y-87051009D01*
X79916904Y-87051009D02*
X79964523Y-87146247D01*
X79964523Y-87146247D02*
X79964523Y-87384342D01*
X79964523Y-87384342D02*
X79916904Y-87479580D01*
X79916904Y-87479580D02*
X79869285Y-87527200D01*
X79869285Y-87527200D02*
X79774047Y-87574819D01*
X79774047Y-87574819D02*
X79488333Y-87574819D01*
X79488333Y-87574819D02*
X79393095Y-87527200D01*
X79393095Y-87527200D02*
X79345476Y-87479580D01*
X80297857Y-86574819D02*
X80964523Y-86574819D01*
X80964523Y-86574819D02*
X80535952Y-87574819D01*
X78440714Y-85074819D02*
X78440714Y-84074819D01*
X78440714Y-84074819D02*
X78678809Y-84074819D01*
X78678809Y-84074819D02*
X78821666Y-84122438D01*
X78821666Y-84122438D02*
X78916904Y-84217676D01*
X78916904Y-84217676D02*
X78964523Y-84312914D01*
X78964523Y-84312914D02*
X79012142Y-84503390D01*
X79012142Y-84503390D02*
X79012142Y-84646247D01*
X79012142Y-84646247D02*
X78964523Y-84836723D01*
X78964523Y-84836723D02*
X78916904Y-84931961D01*
X78916904Y-84931961D02*
X78821666Y-85027200D01*
X78821666Y-85027200D02*
X78678809Y-85074819D01*
X78678809Y-85074819D02*
X78440714Y-85074819D01*
X79345476Y-84074819D02*
X79964523Y-84074819D01*
X79964523Y-84074819D02*
X79631190Y-84455771D01*
X79631190Y-84455771D02*
X79774047Y-84455771D01*
X79774047Y-84455771D02*
X79869285Y-84503390D01*
X79869285Y-84503390D02*
X79916904Y-84551009D01*
X79916904Y-84551009D02*
X79964523Y-84646247D01*
X79964523Y-84646247D02*
X79964523Y-84884342D01*
X79964523Y-84884342D02*
X79916904Y-84979580D01*
X79916904Y-84979580D02*
X79869285Y-85027200D01*
X79869285Y-85027200D02*
X79774047Y-85074819D01*
X79774047Y-85074819D02*
X79488333Y-85074819D01*
X79488333Y-85074819D02*
X79393095Y-85027200D01*
X79393095Y-85027200D02*
X79345476Y-84979580D01*
X80440714Y-85074819D02*
X80631190Y-85074819D01*
X80631190Y-85074819D02*
X80726428Y-85027200D01*
X80726428Y-85027200D02*
X80774047Y-84979580D01*
X80774047Y-84979580D02*
X80869285Y-84836723D01*
X80869285Y-84836723D02*
X80916904Y-84646247D01*
X80916904Y-84646247D02*
X80916904Y-84265295D01*
X80916904Y-84265295D02*
X80869285Y-84170057D01*
X80869285Y-84170057D02*
X80821666Y-84122438D01*
X80821666Y-84122438D02*
X80726428Y-84074819D01*
X80726428Y-84074819D02*
X80535952Y-84074819D01*
X80535952Y-84074819D02*
X80440714Y-84122438D01*
X80440714Y-84122438D02*
X80393095Y-84170057D01*
X80393095Y-84170057D02*
X80345476Y-84265295D01*
X80345476Y-84265295D02*
X80345476Y-84503390D01*
X80345476Y-84503390D02*
X80393095Y-84598628D01*
X80393095Y-84598628D02*
X80440714Y-84646247D01*
X80440714Y-84646247D02*
X80535952Y-84693866D01*
X80535952Y-84693866D02*
X80726428Y-84693866D01*
X80726428Y-84693866D02*
X80821666Y-84646247D01*
X80821666Y-84646247D02*
X80869285Y-84598628D01*
X80869285Y-84598628D02*
X80916904Y-84503390D01*
X78440714Y-91324819D02*
X78440714Y-90324819D01*
X78440714Y-90324819D02*
X78678809Y-90324819D01*
X78678809Y-90324819D02*
X78821666Y-90372438D01*
X78821666Y-90372438D02*
X78916904Y-90467676D01*
X78916904Y-90467676D02*
X78964523Y-90562914D01*
X78964523Y-90562914D02*
X79012142Y-90753390D01*
X79012142Y-90753390D02*
X79012142Y-90896247D01*
X79012142Y-90896247D02*
X78964523Y-91086723D01*
X78964523Y-91086723D02*
X78916904Y-91181961D01*
X78916904Y-91181961D02*
X78821666Y-91277200D01*
X78821666Y-91277200D02*
X78678809Y-91324819D01*
X78678809Y-91324819D02*
X78440714Y-91324819D01*
X79345476Y-90324819D02*
X79964523Y-90324819D01*
X79964523Y-90324819D02*
X79631190Y-90705771D01*
X79631190Y-90705771D02*
X79774047Y-90705771D01*
X79774047Y-90705771D02*
X79869285Y-90753390D01*
X79869285Y-90753390D02*
X79916904Y-90801009D01*
X79916904Y-90801009D02*
X79964523Y-90896247D01*
X79964523Y-90896247D02*
X79964523Y-91134342D01*
X79964523Y-91134342D02*
X79916904Y-91229580D01*
X79916904Y-91229580D02*
X79869285Y-91277200D01*
X79869285Y-91277200D02*
X79774047Y-91324819D01*
X79774047Y-91324819D02*
X79488333Y-91324819D01*
X79488333Y-91324819D02*
X79393095Y-91277200D01*
X79393095Y-91277200D02*
X79345476Y-91229580D01*
X80821666Y-90658152D02*
X80821666Y-91324819D01*
X80583571Y-90277200D02*
X80345476Y-90991485D01*
X80345476Y-90991485D02*
X80964523Y-90991485D01*
X78440714Y-86324819D02*
X78440714Y-85324819D01*
X78440714Y-85324819D02*
X78678809Y-85324819D01*
X78678809Y-85324819D02*
X78821666Y-85372438D01*
X78821666Y-85372438D02*
X78916904Y-85467676D01*
X78916904Y-85467676D02*
X78964523Y-85562914D01*
X78964523Y-85562914D02*
X79012142Y-85753390D01*
X79012142Y-85753390D02*
X79012142Y-85896247D01*
X79012142Y-85896247D02*
X78964523Y-86086723D01*
X78964523Y-86086723D02*
X78916904Y-86181961D01*
X78916904Y-86181961D02*
X78821666Y-86277200D01*
X78821666Y-86277200D02*
X78678809Y-86324819D01*
X78678809Y-86324819D02*
X78440714Y-86324819D01*
X79345476Y-85324819D02*
X79964523Y-85324819D01*
X79964523Y-85324819D02*
X79631190Y-85705771D01*
X79631190Y-85705771D02*
X79774047Y-85705771D01*
X79774047Y-85705771D02*
X79869285Y-85753390D01*
X79869285Y-85753390D02*
X79916904Y-85801009D01*
X79916904Y-85801009D02*
X79964523Y-85896247D01*
X79964523Y-85896247D02*
X79964523Y-86134342D01*
X79964523Y-86134342D02*
X79916904Y-86229580D01*
X79916904Y-86229580D02*
X79869285Y-86277200D01*
X79869285Y-86277200D02*
X79774047Y-86324819D01*
X79774047Y-86324819D02*
X79488333Y-86324819D01*
X79488333Y-86324819D02*
X79393095Y-86277200D01*
X79393095Y-86277200D02*
X79345476Y-86229580D01*
X80535952Y-85753390D02*
X80440714Y-85705771D01*
X80440714Y-85705771D02*
X80393095Y-85658152D01*
X80393095Y-85658152D02*
X80345476Y-85562914D01*
X80345476Y-85562914D02*
X80345476Y-85515295D01*
X80345476Y-85515295D02*
X80393095Y-85420057D01*
X80393095Y-85420057D02*
X80440714Y-85372438D01*
X80440714Y-85372438D02*
X80535952Y-85324819D01*
X80535952Y-85324819D02*
X80726428Y-85324819D01*
X80726428Y-85324819D02*
X80821666Y-85372438D01*
X80821666Y-85372438D02*
X80869285Y-85420057D01*
X80869285Y-85420057D02*
X80916904Y-85515295D01*
X80916904Y-85515295D02*
X80916904Y-85562914D01*
X80916904Y-85562914D02*
X80869285Y-85658152D01*
X80869285Y-85658152D02*
X80821666Y-85705771D01*
X80821666Y-85705771D02*
X80726428Y-85753390D01*
X80726428Y-85753390D02*
X80535952Y-85753390D01*
X80535952Y-85753390D02*
X80440714Y-85801009D01*
X80440714Y-85801009D02*
X80393095Y-85848628D01*
X80393095Y-85848628D02*
X80345476Y-85943866D01*
X80345476Y-85943866D02*
X80345476Y-86134342D01*
X80345476Y-86134342D02*
X80393095Y-86229580D01*
X80393095Y-86229580D02*
X80440714Y-86277200D01*
X80440714Y-86277200D02*
X80535952Y-86324819D01*
X80535952Y-86324819D02*
X80726428Y-86324819D01*
X80726428Y-86324819D02*
X80821666Y-86277200D01*
X80821666Y-86277200D02*
X80869285Y-86229580D01*
X80869285Y-86229580D02*
X80916904Y-86134342D01*
X80916904Y-86134342D02*
X80916904Y-85943866D01*
X80916904Y-85943866D02*
X80869285Y-85848628D01*
X80869285Y-85848628D02*
X80821666Y-85801009D01*
X80821666Y-85801009D02*
X80726428Y-85753390D01*
X76340714Y-87574819D02*
X76340714Y-86574819D01*
X76340714Y-86574819D02*
X76578809Y-86574819D01*
X76578809Y-86574819D02*
X76721666Y-86622438D01*
X76721666Y-86622438D02*
X76816904Y-86717676D01*
X76816904Y-86717676D02*
X76864523Y-86812914D01*
X76864523Y-86812914D02*
X76912142Y-87003390D01*
X76912142Y-87003390D02*
X76912142Y-87146247D01*
X76912142Y-87146247D02*
X76864523Y-87336723D01*
X76864523Y-87336723D02*
X76816904Y-87431961D01*
X76816904Y-87431961D02*
X76721666Y-87527200D01*
X76721666Y-87527200D02*
X76578809Y-87574819D01*
X76578809Y-87574819D02*
X76340714Y-87574819D01*
X77769285Y-86908152D02*
X77769285Y-87574819D01*
X77531190Y-86527200D02*
X77293095Y-87241485D01*
X77293095Y-87241485D02*
X77912142Y-87241485D01*
X78769285Y-86574819D02*
X78293095Y-86574819D01*
X78293095Y-86574819D02*
X78245476Y-87051009D01*
X78245476Y-87051009D02*
X78293095Y-87003390D01*
X78293095Y-87003390D02*
X78388333Y-86955771D01*
X78388333Y-86955771D02*
X78626428Y-86955771D01*
X78626428Y-86955771D02*
X78721666Y-87003390D01*
X78721666Y-87003390D02*
X78769285Y-87051009D01*
X78769285Y-87051009D02*
X78816904Y-87146247D01*
X78816904Y-87146247D02*
X78816904Y-87384342D01*
X78816904Y-87384342D02*
X78769285Y-87479580D01*
X78769285Y-87479580D02*
X78721666Y-87527200D01*
X78721666Y-87527200D02*
X78626428Y-87574819D01*
X78626428Y-87574819D02*
X78388333Y-87574819D01*
X78388333Y-87574819D02*
X78293095Y-87527200D01*
X78293095Y-87527200D02*
X78245476Y-87479580D01*
X74240714Y-88824819D02*
X74240714Y-87824819D01*
X74240714Y-87824819D02*
X74478809Y-87824819D01*
X74478809Y-87824819D02*
X74621666Y-87872438D01*
X74621666Y-87872438D02*
X74716904Y-87967676D01*
X74716904Y-87967676D02*
X74764523Y-88062914D01*
X74764523Y-88062914D02*
X74812142Y-88253390D01*
X74812142Y-88253390D02*
X74812142Y-88396247D01*
X74812142Y-88396247D02*
X74764523Y-88586723D01*
X74764523Y-88586723D02*
X74716904Y-88681961D01*
X74716904Y-88681961D02*
X74621666Y-88777200D01*
X74621666Y-88777200D02*
X74478809Y-88824819D01*
X74478809Y-88824819D02*
X74240714Y-88824819D01*
X75716904Y-87824819D02*
X75240714Y-87824819D01*
X75240714Y-87824819D02*
X75193095Y-88301009D01*
X75193095Y-88301009D02*
X75240714Y-88253390D01*
X75240714Y-88253390D02*
X75335952Y-88205771D01*
X75335952Y-88205771D02*
X75574047Y-88205771D01*
X75574047Y-88205771D02*
X75669285Y-88253390D01*
X75669285Y-88253390D02*
X75716904Y-88301009D01*
X75716904Y-88301009D02*
X75764523Y-88396247D01*
X75764523Y-88396247D02*
X75764523Y-88634342D01*
X75764523Y-88634342D02*
X75716904Y-88729580D01*
X75716904Y-88729580D02*
X75669285Y-88777200D01*
X75669285Y-88777200D02*
X75574047Y-88824819D01*
X75574047Y-88824819D02*
X75335952Y-88824819D01*
X75335952Y-88824819D02*
X75240714Y-88777200D01*
X75240714Y-88777200D02*
X75193095Y-88729580D01*
X76145476Y-87920057D02*
X76193095Y-87872438D01*
X76193095Y-87872438D02*
X76288333Y-87824819D01*
X76288333Y-87824819D02*
X76526428Y-87824819D01*
X76526428Y-87824819D02*
X76621666Y-87872438D01*
X76621666Y-87872438D02*
X76669285Y-87920057D01*
X76669285Y-87920057D02*
X76716904Y-88015295D01*
X76716904Y-88015295D02*
X76716904Y-88110533D01*
X76716904Y-88110533D02*
X76669285Y-88253390D01*
X76669285Y-88253390D02*
X76097857Y-88824819D01*
X76097857Y-88824819D02*
X76716904Y-88824819D01*
X74240714Y-85074819D02*
X74240714Y-84074819D01*
X74240714Y-84074819D02*
X74478809Y-84074819D01*
X74478809Y-84074819D02*
X74621666Y-84122438D01*
X74621666Y-84122438D02*
X74716904Y-84217676D01*
X74716904Y-84217676D02*
X74764523Y-84312914D01*
X74764523Y-84312914D02*
X74812142Y-84503390D01*
X74812142Y-84503390D02*
X74812142Y-84646247D01*
X74812142Y-84646247D02*
X74764523Y-84836723D01*
X74764523Y-84836723D02*
X74716904Y-84931961D01*
X74716904Y-84931961D02*
X74621666Y-85027200D01*
X74621666Y-85027200D02*
X74478809Y-85074819D01*
X74478809Y-85074819D02*
X74240714Y-85074819D01*
X75716904Y-84074819D02*
X75240714Y-84074819D01*
X75240714Y-84074819D02*
X75193095Y-84551009D01*
X75193095Y-84551009D02*
X75240714Y-84503390D01*
X75240714Y-84503390D02*
X75335952Y-84455771D01*
X75335952Y-84455771D02*
X75574047Y-84455771D01*
X75574047Y-84455771D02*
X75669285Y-84503390D01*
X75669285Y-84503390D02*
X75716904Y-84551009D01*
X75716904Y-84551009D02*
X75764523Y-84646247D01*
X75764523Y-84646247D02*
X75764523Y-84884342D01*
X75764523Y-84884342D02*
X75716904Y-84979580D01*
X75716904Y-84979580D02*
X75669285Y-85027200D01*
X75669285Y-85027200D02*
X75574047Y-85074819D01*
X75574047Y-85074819D02*
X75335952Y-85074819D01*
X75335952Y-85074819D02*
X75240714Y-85027200D01*
X75240714Y-85027200D02*
X75193095Y-84979580D01*
X76669285Y-84074819D02*
X76193095Y-84074819D01*
X76193095Y-84074819D02*
X76145476Y-84551009D01*
X76145476Y-84551009D02*
X76193095Y-84503390D01*
X76193095Y-84503390D02*
X76288333Y-84455771D01*
X76288333Y-84455771D02*
X76526428Y-84455771D01*
X76526428Y-84455771D02*
X76621666Y-84503390D01*
X76621666Y-84503390D02*
X76669285Y-84551009D01*
X76669285Y-84551009D02*
X76716904Y-84646247D01*
X76716904Y-84646247D02*
X76716904Y-84884342D01*
X76716904Y-84884342D02*
X76669285Y-84979580D01*
X76669285Y-84979580D02*
X76621666Y-85027200D01*
X76621666Y-85027200D02*
X76526428Y-85074819D01*
X76526428Y-85074819D02*
X76288333Y-85074819D01*
X76288333Y-85074819D02*
X76193095Y-85027200D01*
X76193095Y-85027200D02*
X76145476Y-84979580D01*
X72140714Y-91324819D02*
X72140714Y-90324819D01*
X72140714Y-90324819D02*
X72378809Y-90324819D01*
X72378809Y-90324819D02*
X72521666Y-90372438D01*
X72521666Y-90372438D02*
X72616904Y-90467676D01*
X72616904Y-90467676D02*
X72664523Y-90562914D01*
X72664523Y-90562914D02*
X72712142Y-90753390D01*
X72712142Y-90753390D02*
X72712142Y-90896247D01*
X72712142Y-90896247D02*
X72664523Y-91086723D01*
X72664523Y-91086723D02*
X72616904Y-91181961D01*
X72616904Y-91181961D02*
X72521666Y-91277200D01*
X72521666Y-91277200D02*
X72378809Y-91324819D01*
X72378809Y-91324819D02*
X72140714Y-91324819D01*
X73616904Y-90324819D02*
X73140714Y-90324819D01*
X73140714Y-90324819D02*
X73093095Y-90801009D01*
X73093095Y-90801009D02*
X73140714Y-90753390D01*
X73140714Y-90753390D02*
X73235952Y-90705771D01*
X73235952Y-90705771D02*
X73474047Y-90705771D01*
X73474047Y-90705771D02*
X73569285Y-90753390D01*
X73569285Y-90753390D02*
X73616904Y-90801009D01*
X73616904Y-90801009D02*
X73664523Y-90896247D01*
X73664523Y-90896247D02*
X73664523Y-91134342D01*
X73664523Y-91134342D02*
X73616904Y-91229580D01*
X73616904Y-91229580D02*
X73569285Y-91277200D01*
X73569285Y-91277200D02*
X73474047Y-91324819D01*
X73474047Y-91324819D02*
X73235952Y-91324819D01*
X73235952Y-91324819D02*
X73140714Y-91277200D01*
X73140714Y-91277200D02*
X73093095Y-91229580D01*
X74235952Y-90753390D02*
X74140714Y-90705771D01*
X74140714Y-90705771D02*
X74093095Y-90658152D01*
X74093095Y-90658152D02*
X74045476Y-90562914D01*
X74045476Y-90562914D02*
X74045476Y-90515295D01*
X74045476Y-90515295D02*
X74093095Y-90420057D01*
X74093095Y-90420057D02*
X74140714Y-90372438D01*
X74140714Y-90372438D02*
X74235952Y-90324819D01*
X74235952Y-90324819D02*
X74426428Y-90324819D01*
X74426428Y-90324819D02*
X74521666Y-90372438D01*
X74521666Y-90372438D02*
X74569285Y-90420057D01*
X74569285Y-90420057D02*
X74616904Y-90515295D01*
X74616904Y-90515295D02*
X74616904Y-90562914D01*
X74616904Y-90562914D02*
X74569285Y-90658152D01*
X74569285Y-90658152D02*
X74521666Y-90705771D01*
X74521666Y-90705771D02*
X74426428Y-90753390D01*
X74426428Y-90753390D02*
X74235952Y-90753390D01*
X74235952Y-90753390D02*
X74140714Y-90801009D01*
X74140714Y-90801009D02*
X74093095Y-90848628D01*
X74093095Y-90848628D02*
X74045476Y-90943866D01*
X74045476Y-90943866D02*
X74045476Y-91134342D01*
X74045476Y-91134342D02*
X74093095Y-91229580D01*
X74093095Y-91229580D02*
X74140714Y-91277200D01*
X74140714Y-91277200D02*
X74235952Y-91324819D01*
X74235952Y-91324819D02*
X74426428Y-91324819D01*
X74426428Y-91324819D02*
X74521666Y-91277200D01*
X74521666Y-91277200D02*
X74569285Y-91229580D01*
X74569285Y-91229580D02*
X74616904Y-91134342D01*
X74616904Y-91134342D02*
X74616904Y-90943866D01*
X74616904Y-90943866D02*
X74569285Y-90848628D01*
X74569285Y-90848628D02*
X74521666Y-90801009D01*
X74521666Y-90801009D02*
X74426428Y-90753390D01*
X74240714Y-91324819D02*
X74240714Y-90324819D01*
X74240714Y-90324819D02*
X74478809Y-90324819D01*
X74478809Y-90324819D02*
X74621666Y-90372438D01*
X74621666Y-90372438D02*
X74716904Y-90467676D01*
X74716904Y-90467676D02*
X74764523Y-90562914D01*
X74764523Y-90562914D02*
X74812142Y-90753390D01*
X74812142Y-90753390D02*
X74812142Y-90896247D01*
X74812142Y-90896247D02*
X74764523Y-91086723D01*
X74764523Y-91086723D02*
X74716904Y-91181961D01*
X74716904Y-91181961D02*
X74621666Y-91277200D01*
X74621666Y-91277200D02*
X74478809Y-91324819D01*
X74478809Y-91324819D02*
X74240714Y-91324819D01*
X75716904Y-90324819D02*
X75240714Y-90324819D01*
X75240714Y-90324819D02*
X75193095Y-90801009D01*
X75193095Y-90801009D02*
X75240714Y-90753390D01*
X75240714Y-90753390D02*
X75335952Y-90705771D01*
X75335952Y-90705771D02*
X75574047Y-90705771D01*
X75574047Y-90705771D02*
X75669285Y-90753390D01*
X75669285Y-90753390D02*
X75716904Y-90801009D01*
X75716904Y-90801009D02*
X75764523Y-90896247D01*
X75764523Y-90896247D02*
X75764523Y-91134342D01*
X75764523Y-91134342D02*
X75716904Y-91229580D01*
X75716904Y-91229580D02*
X75669285Y-91277200D01*
X75669285Y-91277200D02*
X75574047Y-91324819D01*
X75574047Y-91324819D02*
X75335952Y-91324819D01*
X75335952Y-91324819D02*
X75240714Y-91277200D01*
X75240714Y-91277200D02*
X75193095Y-91229580D01*
X76383571Y-90324819D02*
X76478809Y-90324819D01*
X76478809Y-90324819D02*
X76574047Y-90372438D01*
X76574047Y-90372438D02*
X76621666Y-90420057D01*
X76621666Y-90420057D02*
X76669285Y-90515295D01*
X76669285Y-90515295D02*
X76716904Y-90705771D01*
X76716904Y-90705771D02*
X76716904Y-90943866D01*
X76716904Y-90943866D02*
X76669285Y-91134342D01*
X76669285Y-91134342D02*
X76621666Y-91229580D01*
X76621666Y-91229580D02*
X76574047Y-91277200D01*
X76574047Y-91277200D02*
X76478809Y-91324819D01*
X76478809Y-91324819D02*
X76383571Y-91324819D01*
X76383571Y-91324819D02*
X76288333Y-91277200D01*
X76288333Y-91277200D02*
X76240714Y-91229580D01*
X76240714Y-91229580D02*
X76193095Y-91134342D01*
X76193095Y-91134342D02*
X76145476Y-90943866D01*
X76145476Y-90943866D02*
X76145476Y-90705771D01*
X76145476Y-90705771D02*
X76193095Y-90515295D01*
X76193095Y-90515295D02*
X76240714Y-90420057D01*
X76240714Y-90420057D02*
X76288333Y-90372438D01*
X76288333Y-90372438D02*
X76383571Y-90324819D01*
X76340714Y-85074819D02*
X76340714Y-84074819D01*
X76340714Y-84074819D02*
X76578809Y-84074819D01*
X76578809Y-84074819D02*
X76721666Y-84122438D01*
X76721666Y-84122438D02*
X76816904Y-84217676D01*
X76816904Y-84217676D02*
X76864523Y-84312914D01*
X76864523Y-84312914D02*
X76912142Y-84503390D01*
X76912142Y-84503390D02*
X76912142Y-84646247D01*
X76912142Y-84646247D02*
X76864523Y-84836723D01*
X76864523Y-84836723D02*
X76816904Y-84931961D01*
X76816904Y-84931961D02*
X76721666Y-85027200D01*
X76721666Y-85027200D02*
X76578809Y-85074819D01*
X76578809Y-85074819D02*
X76340714Y-85074819D01*
X77769285Y-84408152D02*
X77769285Y-85074819D01*
X77531190Y-84027200D02*
X77293095Y-84741485D01*
X77293095Y-84741485D02*
X77912142Y-84741485D01*
X78197857Y-84074819D02*
X78864523Y-84074819D01*
X78864523Y-84074819D02*
X78435952Y-85074819D01*
X74245714Y-92574819D02*
X74245714Y-91574819D01*
X74245714Y-91574819D02*
X74483809Y-91574819D01*
X74483809Y-91574819D02*
X74626666Y-91622438D01*
X74626666Y-91622438D02*
X74721904Y-91717676D01*
X74721904Y-91717676D02*
X74769523Y-91812914D01*
X74769523Y-91812914D02*
X74817142Y-92003390D01*
X74817142Y-92003390D02*
X74817142Y-92146247D01*
X74817142Y-92146247D02*
X74769523Y-92336723D01*
X74769523Y-92336723D02*
X74721904Y-92431961D01*
X74721904Y-92431961D02*
X74626666Y-92527200D01*
X74626666Y-92527200D02*
X74483809Y-92574819D01*
X74483809Y-92574819D02*
X74245714Y-92574819D01*
X75674285Y-91908152D02*
X75674285Y-92574819D01*
X75436190Y-91527200D02*
X75198095Y-92241485D01*
X75198095Y-92241485D02*
X75817142Y-92241485D01*
X76245714Y-92574819D02*
X76436190Y-92574819D01*
X76436190Y-92574819D02*
X76531428Y-92527200D01*
X76531428Y-92527200D02*
X76579047Y-92479580D01*
X76579047Y-92479580D02*
X76674285Y-92336723D01*
X76674285Y-92336723D02*
X76721904Y-92146247D01*
X76721904Y-92146247D02*
X76721904Y-91765295D01*
X76721904Y-91765295D02*
X76674285Y-91670057D01*
X76674285Y-91670057D02*
X76626666Y-91622438D01*
X76626666Y-91622438D02*
X76531428Y-91574819D01*
X76531428Y-91574819D02*
X76340952Y-91574819D01*
X76340952Y-91574819D02*
X76245714Y-91622438D01*
X76245714Y-91622438D02*
X76198095Y-91670057D01*
X76198095Y-91670057D02*
X76150476Y-91765295D01*
X76150476Y-91765295D02*
X76150476Y-92003390D01*
X76150476Y-92003390D02*
X76198095Y-92098628D01*
X76198095Y-92098628D02*
X76245714Y-92146247D01*
X76245714Y-92146247D02*
X76340952Y-92193866D01*
X76340952Y-92193866D02*
X76531428Y-92193866D01*
X76531428Y-92193866D02*
X76626666Y-92146247D01*
X76626666Y-92146247D02*
X76674285Y-92098628D01*
X76674285Y-92098628D02*
X76721904Y-92003390D01*
X74240714Y-87574819D02*
X74240714Y-86574819D01*
X74240714Y-86574819D02*
X74478809Y-86574819D01*
X74478809Y-86574819D02*
X74621666Y-86622438D01*
X74621666Y-86622438D02*
X74716904Y-86717676D01*
X74716904Y-86717676D02*
X74764523Y-86812914D01*
X74764523Y-86812914D02*
X74812142Y-87003390D01*
X74812142Y-87003390D02*
X74812142Y-87146247D01*
X74812142Y-87146247D02*
X74764523Y-87336723D01*
X74764523Y-87336723D02*
X74716904Y-87431961D01*
X74716904Y-87431961D02*
X74621666Y-87527200D01*
X74621666Y-87527200D02*
X74478809Y-87574819D01*
X74478809Y-87574819D02*
X74240714Y-87574819D01*
X75716904Y-86574819D02*
X75240714Y-86574819D01*
X75240714Y-86574819D02*
X75193095Y-87051009D01*
X75193095Y-87051009D02*
X75240714Y-87003390D01*
X75240714Y-87003390D02*
X75335952Y-86955771D01*
X75335952Y-86955771D02*
X75574047Y-86955771D01*
X75574047Y-86955771D02*
X75669285Y-87003390D01*
X75669285Y-87003390D02*
X75716904Y-87051009D01*
X75716904Y-87051009D02*
X75764523Y-87146247D01*
X75764523Y-87146247D02*
X75764523Y-87384342D01*
X75764523Y-87384342D02*
X75716904Y-87479580D01*
X75716904Y-87479580D02*
X75669285Y-87527200D01*
X75669285Y-87527200D02*
X75574047Y-87574819D01*
X75574047Y-87574819D02*
X75335952Y-87574819D01*
X75335952Y-87574819D02*
X75240714Y-87527200D01*
X75240714Y-87527200D02*
X75193095Y-87479580D01*
X76097857Y-86574819D02*
X76716904Y-86574819D01*
X76716904Y-86574819D02*
X76383571Y-86955771D01*
X76383571Y-86955771D02*
X76526428Y-86955771D01*
X76526428Y-86955771D02*
X76621666Y-87003390D01*
X76621666Y-87003390D02*
X76669285Y-87051009D01*
X76669285Y-87051009D02*
X76716904Y-87146247D01*
X76716904Y-87146247D02*
X76716904Y-87384342D01*
X76716904Y-87384342D02*
X76669285Y-87479580D01*
X76669285Y-87479580D02*
X76621666Y-87527200D01*
X76621666Y-87527200D02*
X76526428Y-87574819D01*
X76526428Y-87574819D02*
X76240714Y-87574819D01*
X76240714Y-87574819D02*
X76145476Y-87527200D01*
X76145476Y-87527200D02*
X76097857Y-87479580D01*
X76340714Y-86324819D02*
X76340714Y-85324819D01*
X76340714Y-85324819D02*
X76578809Y-85324819D01*
X76578809Y-85324819D02*
X76721666Y-85372438D01*
X76721666Y-85372438D02*
X76816904Y-85467676D01*
X76816904Y-85467676D02*
X76864523Y-85562914D01*
X76864523Y-85562914D02*
X76912142Y-85753390D01*
X76912142Y-85753390D02*
X76912142Y-85896247D01*
X76912142Y-85896247D02*
X76864523Y-86086723D01*
X76864523Y-86086723D02*
X76816904Y-86181961D01*
X76816904Y-86181961D02*
X76721666Y-86277200D01*
X76721666Y-86277200D02*
X76578809Y-86324819D01*
X76578809Y-86324819D02*
X76340714Y-86324819D01*
X77769285Y-85658152D02*
X77769285Y-86324819D01*
X77531190Y-85277200D02*
X77293095Y-85991485D01*
X77293095Y-85991485D02*
X77912142Y-85991485D01*
X78721666Y-85324819D02*
X78531190Y-85324819D01*
X78531190Y-85324819D02*
X78435952Y-85372438D01*
X78435952Y-85372438D02*
X78388333Y-85420057D01*
X78388333Y-85420057D02*
X78293095Y-85562914D01*
X78293095Y-85562914D02*
X78245476Y-85753390D01*
X78245476Y-85753390D02*
X78245476Y-86134342D01*
X78245476Y-86134342D02*
X78293095Y-86229580D01*
X78293095Y-86229580D02*
X78340714Y-86277200D01*
X78340714Y-86277200D02*
X78435952Y-86324819D01*
X78435952Y-86324819D02*
X78626428Y-86324819D01*
X78626428Y-86324819D02*
X78721666Y-86277200D01*
X78721666Y-86277200D02*
X78769285Y-86229580D01*
X78769285Y-86229580D02*
X78816904Y-86134342D01*
X78816904Y-86134342D02*
X78816904Y-85896247D01*
X78816904Y-85896247D02*
X78769285Y-85801009D01*
X78769285Y-85801009D02*
X78721666Y-85753390D01*
X78721666Y-85753390D02*
X78626428Y-85705771D01*
X78626428Y-85705771D02*
X78435952Y-85705771D01*
X78435952Y-85705771D02*
X78340714Y-85753390D01*
X78340714Y-85753390D02*
X78293095Y-85801009D01*
X78293095Y-85801009D02*
X78245476Y-85896247D01*
X74240714Y-90074819D02*
X74240714Y-89074819D01*
X74240714Y-89074819D02*
X74478809Y-89074819D01*
X74478809Y-89074819D02*
X74621666Y-89122438D01*
X74621666Y-89122438D02*
X74716904Y-89217676D01*
X74716904Y-89217676D02*
X74764523Y-89312914D01*
X74764523Y-89312914D02*
X74812142Y-89503390D01*
X74812142Y-89503390D02*
X74812142Y-89646247D01*
X74812142Y-89646247D02*
X74764523Y-89836723D01*
X74764523Y-89836723D02*
X74716904Y-89931961D01*
X74716904Y-89931961D02*
X74621666Y-90027200D01*
X74621666Y-90027200D02*
X74478809Y-90074819D01*
X74478809Y-90074819D02*
X74240714Y-90074819D01*
X75716904Y-89074819D02*
X75240714Y-89074819D01*
X75240714Y-89074819D02*
X75193095Y-89551009D01*
X75193095Y-89551009D02*
X75240714Y-89503390D01*
X75240714Y-89503390D02*
X75335952Y-89455771D01*
X75335952Y-89455771D02*
X75574047Y-89455771D01*
X75574047Y-89455771D02*
X75669285Y-89503390D01*
X75669285Y-89503390D02*
X75716904Y-89551009D01*
X75716904Y-89551009D02*
X75764523Y-89646247D01*
X75764523Y-89646247D02*
X75764523Y-89884342D01*
X75764523Y-89884342D02*
X75716904Y-89979580D01*
X75716904Y-89979580D02*
X75669285Y-90027200D01*
X75669285Y-90027200D02*
X75574047Y-90074819D01*
X75574047Y-90074819D02*
X75335952Y-90074819D01*
X75335952Y-90074819D02*
X75240714Y-90027200D01*
X75240714Y-90027200D02*
X75193095Y-89979580D01*
X76716904Y-90074819D02*
X76145476Y-90074819D01*
X76431190Y-90074819D02*
X76431190Y-89074819D01*
X76431190Y-89074819D02*
X76335952Y-89217676D01*
X76335952Y-89217676D02*
X76240714Y-89312914D01*
X76240714Y-89312914D02*
X76145476Y-89360533D01*
X74240714Y-86324819D02*
X74240714Y-85324819D01*
X74240714Y-85324819D02*
X74478809Y-85324819D01*
X74478809Y-85324819D02*
X74621666Y-85372438D01*
X74621666Y-85372438D02*
X74716904Y-85467676D01*
X74716904Y-85467676D02*
X74764523Y-85562914D01*
X74764523Y-85562914D02*
X74812142Y-85753390D01*
X74812142Y-85753390D02*
X74812142Y-85896247D01*
X74812142Y-85896247D02*
X74764523Y-86086723D01*
X74764523Y-86086723D02*
X74716904Y-86181961D01*
X74716904Y-86181961D02*
X74621666Y-86277200D01*
X74621666Y-86277200D02*
X74478809Y-86324819D01*
X74478809Y-86324819D02*
X74240714Y-86324819D01*
X75716904Y-85324819D02*
X75240714Y-85324819D01*
X75240714Y-85324819D02*
X75193095Y-85801009D01*
X75193095Y-85801009D02*
X75240714Y-85753390D01*
X75240714Y-85753390D02*
X75335952Y-85705771D01*
X75335952Y-85705771D02*
X75574047Y-85705771D01*
X75574047Y-85705771D02*
X75669285Y-85753390D01*
X75669285Y-85753390D02*
X75716904Y-85801009D01*
X75716904Y-85801009D02*
X75764523Y-85896247D01*
X75764523Y-85896247D02*
X75764523Y-86134342D01*
X75764523Y-86134342D02*
X75716904Y-86229580D01*
X75716904Y-86229580D02*
X75669285Y-86277200D01*
X75669285Y-86277200D02*
X75574047Y-86324819D01*
X75574047Y-86324819D02*
X75335952Y-86324819D01*
X75335952Y-86324819D02*
X75240714Y-86277200D01*
X75240714Y-86277200D02*
X75193095Y-86229580D01*
X76621666Y-85658152D02*
X76621666Y-86324819D01*
X76383571Y-85277200D02*
X76145476Y-85991485D01*
X76145476Y-85991485D02*
X76764523Y-85991485D01*
X72160714Y-92574819D02*
X72160714Y-91574819D01*
X72160714Y-91574819D02*
X72398809Y-91574819D01*
X72398809Y-91574819D02*
X72541666Y-91622438D01*
X72541666Y-91622438D02*
X72636904Y-91717676D01*
X72636904Y-91717676D02*
X72684523Y-91812914D01*
X72684523Y-91812914D02*
X72732142Y-92003390D01*
X72732142Y-92003390D02*
X72732142Y-92146247D01*
X72732142Y-92146247D02*
X72684523Y-92336723D01*
X72684523Y-92336723D02*
X72636904Y-92431961D01*
X72636904Y-92431961D02*
X72541666Y-92527200D01*
X72541666Y-92527200D02*
X72398809Y-92574819D01*
X72398809Y-92574819D02*
X72160714Y-92574819D01*
X73636904Y-91574819D02*
X73160714Y-91574819D01*
X73160714Y-91574819D02*
X73113095Y-92051009D01*
X73113095Y-92051009D02*
X73160714Y-92003390D01*
X73160714Y-92003390D02*
X73255952Y-91955771D01*
X73255952Y-91955771D02*
X73494047Y-91955771D01*
X73494047Y-91955771D02*
X73589285Y-92003390D01*
X73589285Y-92003390D02*
X73636904Y-92051009D01*
X73636904Y-92051009D02*
X73684523Y-92146247D01*
X73684523Y-92146247D02*
X73684523Y-92384342D01*
X73684523Y-92384342D02*
X73636904Y-92479580D01*
X73636904Y-92479580D02*
X73589285Y-92527200D01*
X73589285Y-92527200D02*
X73494047Y-92574819D01*
X73494047Y-92574819D02*
X73255952Y-92574819D01*
X73255952Y-92574819D02*
X73160714Y-92527200D01*
X73160714Y-92527200D02*
X73113095Y-92479580D01*
X74017857Y-91574819D02*
X74684523Y-91574819D01*
X74684523Y-91574819D02*
X74255952Y-92574819D01*
X87291905Y-83824819D02*
X87291905Y-82824819D01*
X87291905Y-82824819D02*
X87530000Y-82824819D01*
X87530000Y-82824819D02*
X87672857Y-82872438D01*
X87672857Y-82872438D02*
X87768095Y-82967676D01*
X87768095Y-82967676D02*
X87815714Y-83062914D01*
X87815714Y-83062914D02*
X87863333Y-83253390D01*
X87863333Y-83253390D02*
X87863333Y-83396247D01*
X87863333Y-83396247D02*
X87815714Y-83586723D01*
X87815714Y-83586723D02*
X87768095Y-83681961D01*
X87768095Y-83681961D02*
X87672857Y-83777200D01*
X87672857Y-83777200D02*
X87530000Y-83824819D01*
X87530000Y-83824819D02*
X87291905Y-83824819D01*
X88434762Y-83253390D02*
X88339524Y-83205771D01*
X88339524Y-83205771D02*
X88291905Y-83158152D01*
X88291905Y-83158152D02*
X88244286Y-83062914D01*
X88244286Y-83062914D02*
X88244286Y-83015295D01*
X88244286Y-83015295D02*
X88291905Y-82920057D01*
X88291905Y-82920057D02*
X88339524Y-82872438D01*
X88339524Y-82872438D02*
X88434762Y-82824819D01*
X88434762Y-82824819D02*
X88625238Y-82824819D01*
X88625238Y-82824819D02*
X88720476Y-82872438D01*
X88720476Y-82872438D02*
X88768095Y-82920057D01*
X88768095Y-82920057D02*
X88815714Y-83015295D01*
X88815714Y-83015295D02*
X88815714Y-83062914D01*
X88815714Y-83062914D02*
X88768095Y-83158152D01*
X88768095Y-83158152D02*
X88720476Y-83205771D01*
X88720476Y-83205771D02*
X88625238Y-83253390D01*
X88625238Y-83253390D02*
X88434762Y-83253390D01*
X88434762Y-83253390D02*
X88339524Y-83301009D01*
X88339524Y-83301009D02*
X88291905Y-83348628D01*
X88291905Y-83348628D02*
X88244286Y-83443866D01*
X88244286Y-83443866D02*
X88244286Y-83634342D01*
X88244286Y-83634342D02*
X88291905Y-83729580D01*
X88291905Y-83729580D02*
X88339524Y-83777200D01*
X88339524Y-83777200D02*
X88434762Y-83824819D01*
X88434762Y-83824819D02*
X88625238Y-83824819D01*
X88625238Y-83824819D02*
X88720476Y-83777200D01*
X88720476Y-83777200D02*
X88768095Y-83729580D01*
X88768095Y-83729580D02*
X88815714Y-83634342D01*
X88815714Y-83634342D02*
X88815714Y-83443866D01*
X88815714Y-83443866D02*
X88768095Y-83348628D01*
X88768095Y-83348628D02*
X88720476Y-83301009D01*
X88720476Y-83301009D02*
X88625238Y-83253390D01*
X84730714Y-83824819D02*
X84730714Y-82824819D01*
X84730714Y-82824819D02*
X84968809Y-82824819D01*
X84968809Y-82824819D02*
X85111666Y-82872438D01*
X85111666Y-82872438D02*
X85206904Y-82967676D01*
X85206904Y-82967676D02*
X85254523Y-83062914D01*
X85254523Y-83062914D02*
X85302142Y-83253390D01*
X85302142Y-83253390D02*
X85302142Y-83396247D01*
X85302142Y-83396247D02*
X85254523Y-83586723D01*
X85254523Y-83586723D02*
X85206904Y-83681961D01*
X85206904Y-83681961D02*
X85111666Y-83777200D01*
X85111666Y-83777200D02*
X84968809Y-83824819D01*
X84968809Y-83824819D02*
X84730714Y-83824819D01*
X86254523Y-83824819D02*
X85683095Y-83824819D01*
X85968809Y-83824819D02*
X85968809Y-82824819D01*
X85968809Y-82824819D02*
X85873571Y-82967676D01*
X85873571Y-82967676D02*
X85778333Y-83062914D01*
X85778333Y-83062914D02*
X85683095Y-83110533D01*
X87111666Y-82824819D02*
X86921190Y-82824819D01*
X86921190Y-82824819D02*
X86825952Y-82872438D01*
X86825952Y-82872438D02*
X86778333Y-82920057D01*
X86778333Y-82920057D02*
X86683095Y-83062914D01*
X86683095Y-83062914D02*
X86635476Y-83253390D01*
X86635476Y-83253390D02*
X86635476Y-83634342D01*
X86635476Y-83634342D02*
X86683095Y-83729580D01*
X86683095Y-83729580D02*
X86730714Y-83777200D01*
X86730714Y-83777200D02*
X86825952Y-83824819D01*
X86825952Y-83824819D02*
X87016428Y-83824819D01*
X87016428Y-83824819D02*
X87111666Y-83777200D01*
X87111666Y-83777200D02*
X87159285Y-83729580D01*
X87159285Y-83729580D02*
X87206904Y-83634342D01*
X87206904Y-83634342D02*
X87206904Y-83396247D01*
X87206904Y-83396247D02*
X87159285Y-83301009D01*
X87159285Y-83301009D02*
X87111666Y-83253390D01*
X87111666Y-83253390D02*
X87016428Y-83205771D01*
X87016428Y-83205771D02*
X86825952Y-83205771D01*
X86825952Y-83205771D02*
X86730714Y-83253390D01*
X86730714Y-83253390D02*
X86683095Y-83301009D01*
X86683095Y-83301009D02*
X86635476Y-83396247D01*
X72140714Y-90074819D02*
X72140714Y-89074819D01*
X72140714Y-89074819D02*
X72378809Y-89074819D01*
X72378809Y-89074819D02*
X72521666Y-89122438D01*
X72521666Y-89122438D02*
X72616904Y-89217676D01*
X72616904Y-89217676D02*
X72664523Y-89312914D01*
X72664523Y-89312914D02*
X72712142Y-89503390D01*
X72712142Y-89503390D02*
X72712142Y-89646247D01*
X72712142Y-89646247D02*
X72664523Y-89836723D01*
X72664523Y-89836723D02*
X72616904Y-89931961D01*
X72616904Y-89931961D02*
X72521666Y-90027200D01*
X72521666Y-90027200D02*
X72378809Y-90074819D01*
X72378809Y-90074819D02*
X72140714Y-90074819D01*
X73616904Y-89074819D02*
X73140714Y-89074819D01*
X73140714Y-89074819D02*
X73093095Y-89551009D01*
X73093095Y-89551009D02*
X73140714Y-89503390D01*
X73140714Y-89503390D02*
X73235952Y-89455771D01*
X73235952Y-89455771D02*
X73474047Y-89455771D01*
X73474047Y-89455771D02*
X73569285Y-89503390D01*
X73569285Y-89503390D02*
X73616904Y-89551009D01*
X73616904Y-89551009D02*
X73664523Y-89646247D01*
X73664523Y-89646247D02*
X73664523Y-89884342D01*
X73664523Y-89884342D02*
X73616904Y-89979580D01*
X73616904Y-89979580D02*
X73569285Y-90027200D01*
X73569285Y-90027200D02*
X73474047Y-90074819D01*
X73474047Y-90074819D02*
X73235952Y-90074819D01*
X73235952Y-90074819D02*
X73140714Y-90027200D01*
X73140714Y-90027200D02*
X73093095Y-89979580D01*
X74140714Y-90074819D02*
X74331190Y-90074819D01*
X74331190Y-90074819D02*
X74426428Y-90027200D01*
X74426428Y-90027200D02*
X74474047Y-89979580D01*
X74474047Y-89979580D02*
X74569285Y-89836723D01*
X74569285Y-89836723D02*
X74616904Y-89646247D01*
X74616904Y-89646247D02*
X74616904Y-89265295D01*
X74616904Y-89265295D02*
X74569285Y-89170057D01*
X74569285Y-89170057D02*
X74521666Y-89122438D01*
X74521666Y-89122438D02*
X74426428Y-89074819D01*
X74426428Y-89074819D02*
X74235952Y-89074819D01*
X74235952Y-89074819D02*
X74140714Y-89122438D01*
X74140714Y-89122438D02*
X74093095Y-89170057D01*
X74093095Y-89170057D02*
X74045476Y-89265295D01*
X74045476Y-89265295D02*
X74045476Y-89503390D01*
X74045476Y-89503390D02*
X74093095Y-89598628D01*
X74093095Y-89598628D02*
X74140714Y-89646247D01*
X74140714Y-89646247D02*
X74235952Y-89693866D01*
X74235952Y-89693866D02*
X74426428Y-89693866D01*
X74426428Y-89693866D02*
X74521666Y-89646247D01*
X74521666Y-89646247D02*
X74569285Y-89598628D01*
X74569285Y-89598628D02*
X74616904Y-89503390D01*
X72140714Y-86324819D02*
X72140714Y-85324819D01*
X72140714Y-85324819D02*
X72378809Y-85324819D01*
X72378809Y-85324819D02*
X72521666Y-85372438D01*
X72521666Y-85372438D02*
X72616904Y-85467676D01*
X72616904Y-85467676D02*
X72664523Y-85562914D01*
X72664523Y-85562914D02*
X72712142Y-85753390D01*
X72712142Y-85753390D02*
X72712142Y-85896247D01*
X72712142Y-85896247D02*
X72664523Y-86086723D01*
X72664523Y-86086723D02*
X72616904Y-86181961D01*
X72616904Y-86181961D02*
X72521666Y-86277200D01*
X72521666Y-86277200D02*
X72378809Y-86324819D01*
X72378809Y-86324819D02*
X72140714Y-86324819D01*
X73569285Y-85324819D02*
X73378809Y-85324819D01*
X73378809Y-85324819D02*
X73283571Y-85372438D01*
X73283571Y-85372438D02*
X73235952Y-85420057D01*
X73235952Y-85420057D02*
X73140714Y-85562914D01*
X73140714Y-85562914D02*
X73093095Y-85753390D01*
X73093095Y-85753390D02*
X73093095Y-86134342D01*
X73093095Y-86134342D02*
X73140714Y-86229580D01*
X73140714Y-86229580D02*
X73188333Y-86277200D01*
X73188333Y-86277200D02*
X73283571Y-86324819D01*
X73283571Y-86324819D02*
X73474047Y-86324819D01*
X73474047Y-86324819D02*
X73569285Y-86277200D01*
X73569285Y-86277200D02*
X73616904Y-86229580D01*
X73616904Y-86229580D02*
X73664523Y-86134342D01*
X73664523Y-86134342D02*
X73664523Y-85896247D01*
X73664523Y-85896247D02*
X73616904Y-85801009D01*
X73616904Y-85801009D02*
X73569285Y-85753390D01*
X73569285Y-85753390D02*
X73474047Y-85705771D01*
X73474047Y-85705771D02*
X73283571Y-85705771D01*
X73283571Y-85705771D02*
X73188333Y-85753390D01*
X73188333Y-85753390D02*
X73140714Y-85801009D01*
X73140714Y-85801009D02*
X73093095Y-85896247D01*
X74045476Y-85420057D02*
X74093095Y-85372438D01*
X74093095Y-85372438D02*
X74188333Y-85324819D01*
X74188333Y-85324819D02*
X74426428Y-85324819D01*
X74426428Y-85324819D02*
X74521666Y-85372438D01*
X74521666Y-85372438D02*
X74569285Y-85420057D01*
X74569285Y-85420057D02*
X74616904Y-85515295D01*
X74616904Y-85515295D02*
X74616904Y-85610533D01*
X74616904Y-85610533D02*
X74569285Y-85753390D01*
X74569285Y-85753390D02*
X73997857Y-86324819D01*
X73997857Y-86324819D02*
X74616904Y-86324819D01*
X72140714Y-85074819D02*
X72140714Y-84074819D01*
X72140714Y-84074819D02*
X72378809Y-84074819D01*
X72378809Y-84074819D02*
X72521666Y-84122438D01*
X72521666Y-84122438D02*
X72616904Y-84217676D01*
X72616904Y-84217676D02*
X72664523Y-84312914D01*
X72664523Y-84312914D02*
X72712142Y-84503390D01*
X72712142Y-84503390D02*
X72712142Y-84646247D01*
X72712142Y-84646247D02*
X72664523Y-84836723D01*
X72664523Y-84836723D02*
X72616904Y-84931961D01*
X72616904Y-84931961D02*
X72521666Y-85027200D01*
X72521666Y-85027200D02*
X72378809Y-85074819D01*
X72378809Y-85074819D02*
X72140714Y-85074819D01*
X73569285Y-84074819D02*
X73378809Y-84074819D01*
X73378809Y-84074819D02*
X73283571Y-84122438D01*
X73283571Y-84122438D02*
X73235952Y-84170057D01*
X73235952Y-84170057D02*
X73140714Y-84312914D01*
X73140714Y-84312914D02*
X73093095Y-84503390D01*
X73093095Y-84503390D02*
X73093095Y-84884342D01*
X73093095Y-84884342D02*
X73140714Y-84979580D01*
X73140714Y-84979580D02*
X73188333Y-85027200D01*
X73188333Y-85027200D02*
X73283571Y-85074819D01*
X73283571Y-85074819D02*
X73474047Y-85074819D01*
X73474047Y-85074819D02*
X73569285Y-85027200D01*
X73569285Y-85027200D02*
X73616904Y-84979580D01*
X73616904Y-84979580D02*
X73664523Y-84884342D01*
X73664523Y-84884342D02*
X73664523Y-84646247D01*
X73664523Y-84646247D02*
X73616904Y-84551009D01*
X73616904Y-84551009D02*
X73569285Y-84503390D01*
X73569285Y-84503390D02*
X73474047Y-84455771D01*
X73474047Y-84455771D02*
X73283571Y-84455771D01*
X73283571Y-84455771D02*
X73188333Y-84503390D01*
X73188333Y-84503390D02*
X73140714Y-84551009D01*
X73140714Y-84551009D02*
X73093095Y-84646247D01*
X73997857Y-84074819D02*
X74616904Y-84074819D01*
X74616904Y-84074819D02*
X74283571Y-84455771D01*
X74283571Y-84455771D02*
X74426428Y-84455771D01*
X74426428Y-84455771D02*
X74521666Y-84503390D01*
X74521666Y-84503390D02*
X74569285Y-84551009D01*
X74569285Y-84551009D02*
X74616904Y-84646247D01*
X74616904Y-84646247D02*
X74616904Y-84884342D01*
X74616904Y-84884342D02*
X74569285Y-84979580D01*
X74569285Y-84979580D02*
X74521666Y-85027200D01*
X74521666Y-85027200D02*
X74426428Y-85074819D01*
X74426428Y-85074819D02*
X74140714Y-85074819D01*
X74140714Y-85074819D02*
X74045476Y-85027200D01*
X74045476Y-85027200D02*
X73997857Y-84979580D01*
X72140714Y-87574819D02*
X72140714Y-86574819D01*
X72140714Y-86574819D02*
X72378809Y-86574819D01*
X72378809Y-86574819D02*
X72521666Y-86622438D01*
X72521666Y-86622438D02*
X72616904Y-86717676D01*
X72616904Y-86717676D02*
X72664523Y-86812914D01*
X72664523Y-86812914D02*
X72712142Y-87003390D01*
X72712142Y-87003390D02*
X72712142Y-87146247D01*
X72712142Y-87146247D02*
X72664523Y-87336723D01*
X72664523Y-87336723D02*
X72616904Y-87431961D01*
X72616904Y-87431961D02*
X72521666Y-87527200D01*
X72521666Y-87527200D02*
X72378809Y-87574819D01*
X72378809Y-87574819D02*
X72140714Y-87574819D01*
X73569285Y-86574819D02*
X73378809Y-86574819D01*
X73378809Y-86574819D02*
X73283571Y-86622438D01*
X73283571Y-86622438D02*
X73235952Y-86670057D01*
X73235952Y-86670057D02*
X73140714Y-86812914D01*
X73140714Y-86812914D02*
X73093095Y-87003390D01*
X73093095Y-87003390D02*
X73093095Y-87384342D01*
X73093095Y-87384342D02*
X73140714Y-87479580D01*
X73140714Y-87479580D02*
X73188333Y-87527200D01*
X73188333Y-87527200D02*
X73283571Y-87574819D01*
X73283571Y-87574819D02*
X73474047Y-87574819D01*
X73474047Y-87574819D02*
X73569285Y-87527200D01*
X73569285Y-87527200D02*
X73616904Y-87479580D01*
X73616904Y-87479580D02*
X73664523Y-87384342D01*
X73664523Y-87384342D02*
X73664523Y-87146247D01*
X73664523Y-87146247D02*
X73616904Y-87051009D01*
X73616904Y-87051009D02*
X73569285Y-87003390D01*
X73569285Y-87003390D02*
X73474047Y-86955771D01*
X73474047Y-86955771D02*
X73283571Y-86955771D01*
X73283571Y-86955771D02*
X73188333Y-87003390D01*
X73188333Y-87003390D02*
X73140714Y-87051009D01*
X73140714Y-87051009D02*
X73093095Y-87146247D01*
X74616904Y-87574819D02*
X74045476Y-87574819D01*
X74331190Y-87574819D02*
X74331190Y-86574819D01*
X74331190Y-86574819D02*
X74235952Y-86717676D01*
X74235952Y-86717676D02*
X74140714Y-86812914D01*
X74140714Y-86812914D02*
X74045476Y-86860533D01*
X72140714Y-88824819D02*
X72140714Y-87824819D01*
X72140714Y-87824819D02*
X72378809Y-87824819D01*
X72378809Y-87824819D02*
X72521666Y-87872438D01*
X72521666Y-87872438D02*
X72616904Y-87967676D01*
X72616904Y-87967676D02*
X72664523Y-88062914D01*
X72664523Y-88062914D02*
X72712142Y-88253390D01*
X72712142Y-88253390D02*
X72712142Y-88396247D01*
X72712142Y-88396247D02*
X72664523Y-88586723D01*
X72664523Y-88586723D02*
X72616904Y-88681961D01*
X72616904Y-88681961D02*
X72521666Y-88777200D01*
X72521666Y-88777200D02*
X72378809Y-88824819D01*
X72378809Y-88824819D02*
X72140714Y-88824819D01*
X73569285Y-87824819D02*
X73378809Y-87824819D01*
X73378809Y-87824819D02*
X73283571Y-87872438D01*
X73283571Y-87872438D02*
X73235952Y-87920057D01*
X73235952Y-87920057D02*
X73140714Y-88062914D01*
X73140714Y-88062914D02*
X73093095Y-88253390D01*
X73093095Y-88253390D02*
X73093095Y-88634342D01*
X73093095Y-88634342D02*
X73140714Y-88729580D01*
X73140714Y-88729580D02*
X73188333Y-88777200D01*
X73188333Y-88777200D02*
X73283571Y-88824819D01*
X73283571Y-88824819D02*
X73474047Y-88824819D01*
X73474047Y-88824819D02*
X73569285Y-88777200D01*
X73569285Y-88777200D02*
X73616904Y-88729580D01*
X73616904Y-88729580D02*
X73664523Y-88634342D01*
X73664523Y-88634342D02*
X73664523Y-88396247D01*
X73664523Y-88396247D02*
X73616904Y-88301009D01*
X73616904Y-88301009D02*
X73569285Y-88253390D01*
X73569285Y-88253390D02*
X73474047Y-88205771D01*
X73474047Y-88205771D02*
X73283571Y-88205771D01*
X73283571Y-88205771D02*
X73188333Y-88253390D01*
X73188333Y-88253390D02*
X73140714Y-88301009D01*
X73140714Y-88301009D02*
X73093095Y-88396247D01*
X74283571Y-87824819D02*
X74378809Y-87824819D01*
X74378809Y-87824819D02*
X74474047Y-87872438D01*
X74474047Y-87872438D02*
X74521666Y-87920057D01*
X74521666Y-87920057D02*
X74569285Y-88015295D01*
X74569285Y-88015295D02*
X74616904Y-88205771D01*
X74616904Y-88205771D02*
X74616904Y-88443866D01*
X74616904Y-88443866D02*
X74569285Y-88634342D01*
X74569285Y-88634342D02*
X74521666Y-88729580D01*
X74521666Y-88729580D02*
X74474047Y-88777200D01*
X74474047Y-88777200D02*
X74378809Y-88824819D01*
X74378809Y-88824819D02*
X74283571Y-88824819D01*
X74283571Y-88824819D02*
X74188333Y-88777200D01*
X74188333Y-88777200D02*
X74140714Y-88729580D01*
X74140714Y-88729580D02*
X74093095Y-88634342D01*
X74093095Y-88634342D02*
X74045476Y-88443866D01*
X74045476Y-88443866D02*
X74045476Y-88205771D01*
X74045476Y-88205771D02*
X74093095Y-88015295D01*
X74093095Y-88015295D02*
X74140714Y-87920057D01*
X74140714Y-87920057D02*
X74188333Y-87872438D01*
X74188333Y-87872438D02*
X74283571Y-87824819D01*
X82640714Y-83824819D02*
X82640714Y-82824819D01*
X82640714Y-82824819D02*
X82878809Y-82824819D01*
X82878809Y-82824819D02*
X83021666Y-82872438D01*
X83021666Y-82872438D02*
X83116904Y-82967676D01*
X83116904Y-82967676D02*
X83164523Y-83062914D01*
X83164523Y-83062914D02*
X83212142Y-83253390D01*
X83212142Y-83253390D02*
X83212142Y-83396247D01*
X83212142Y-83396247D02*
X83164523Y-83586723D01*
X83164523Y-83586723D02*
X83116904Y-83681961D01*
X83116904Y-83681961D02*
X83021666Y-83777200D01*
X83021666Y-83777200D02*
X82878809Y-83824819D01*
X82878809Y-83824819D02*
X82640714Y-83824819D01*
X83593095Y-82920057D02*
X83640714Y-82872438D01*
X83640714Y-82872438D02*
X83735952Y-82824819D01*
X83735952Y-82824819D02*
X83974047Y-82824819D01*
X83974047Y-82824819D02*
X84069285Y-82872438D01*
X84069285Y-82872438D02*
X84116904Y-82920057D01*
X84116904Y-82920057D02*
X84164523Y-83015295D01*
X84164523Y-83015295D02*
X84164523Y-83110533D01*
X84164523Y-83110533D02*
X84116904Y-83253390D01*
X84116904Y-83253390D02*
X83545476Y-83824819D01*
X83545476Y-83824819D02*
X84164523Y-83824819D01*
X85021666Y-83158152D02*
X85021666Y-83824819D01*
X84783571Y-82777200D02*
X84545476Y-83491485D01*
X84545476Y-83491485D02*
X85164523Y-83491485D01*
X72140714Y-83824819D02*
X72140714Y-82824819D01*
X72140714Y-82824819D02*
X72378809Y-82824819D01*
X72378809Y-82824819D02*
X72521666Y-82872438D01*
X72521666Y-82872438D02*
X72616904Y-82967676D01*
X72616904Y-82967676D02*
X72664523Y-83062914D01*
X72664523Y-83062914D02*
X72712142Y-83253390D01*
X72712142Y-83253390D02*
X72712142Y-83396247D01*
X72712142Y-83396247D02*
X72664523Y-83586723D01*
X72664523Y-83586723D02*
X72616904Y-83681961D01*
X72616904Y-83681961D02*
X72521666Y-83777200D01*
X72521666Y-83777200D02*
X72378809Y-83824819D01*
X72378809Y-83824819D02*
X72140714Y-83824819D01*
X73569285Y-82824819D02*
X73378809Y-82824819D01*
X73378809Y-82824819D02*
X73283571Y-82872438D01*
X73283571Y-82872438D02*
X73235952Y-82920057D01*
X73235952Y-82920057D02*
X73140714Y-83062914D01*
X73140714Y-83062914D02*
X73093095Y-83253390D01*
X73093095Y-83253390D02*
X73093095Y-83634342D01*
X73093095Y-83634342D02*
X73140714Y-83729580D01*
X73140714Y-83729580D02*
X73188333Y-83777200D01*
X73188333Y-83777200D02*
X73283571Y-83824819D01*
X73283571Y-83824819D02*
X73474047Y-83824819D01*
X73474047Y-83824819D02*
X73569285Y-83777200D01*
X73569285Y-83777200D02*
X73616904Y-83729580D01*
X73616904Y-83729580D02*
X73664523Y-83634342D01*
X73664523Y-83634342D02*
X73664523Y-83396247D01*
X73664523Y-83396247D02*
X73616904Y-83301009D01*
X73616904Y-83301009D02*
X73569285Y-83253390D01*
X73569285Y-83253390D02*
X73474047Y-83205771D01*
X73474047Y-83205771D02*
X73283571Y-83205771D01*
X73283571Y-83205771D02*
X73188333Y-83253390D01*
X73188333Y-83253390D02*
X73140714Y-83301009D01*
X73140714Y-83301009D02*
X73093095Y-83396247D01*
X74521666Y-83158152D02*
X74521666Y-83824819D01*
X74283571Y-82777200D02*
X74045476Y-83491485D01*
X74045476Y-83491485D02*
X74664523Y-83491485D01*
X80540714Y-83824819D02*
X80540714Y-82824819D01*
X80540714Y-82824819D02*
X80778809Y-82824819D01*
X80778809Y-82824819D02*
X80921666Y-82872438D01*
X80921666Y-82872438D02*
X81016904Y-82967676D01*
X81016904Y-82967676D02*
X81064523Y-83062914D01*
X81064523Y-83062914D02*
X81112142Y-83253390D01*
X81112142Y-83253390D02*
X81112142Y-83396247D01*
X81112142Y-83396247D02*
X81064523Y-83586723D01*
X81064523Y-83586723D02*
X81016904Y-83681961D01*
X81016904Y-83681961D02*
X80921666Y-83777200D01*
X80921666Y-83777200D02*
X80778809Y-83824819D01*
X80778809Y-83824819D02*
X80540714Y-83824819D01*
X81445476Y-82824819D02*
X82064523Y-82824819D01*
X82064523Y-82824819D02*
X81731190Y-83205771D01*
X81731190Y-83205771D02*
X81874047Y-83205771D01*
X81874047Y-83205771D02*
X81969285Y-83253390D01*
X81969285Y-83253390D02*
X82016904Y-83301009D01*
X82016904Y-83301009D02*
X82064523Y-83396247D01*
X82064523Y-83396247D02*
X82064523Y-83634342D01*
X82064523Y-83634342D02*
X82016904Y-83729580D01*
X82016904Y-83729580D02*
X81969285Y-83777200D01*
X81969285Y-83777200D02*
X81874047Y-83824819D01*
X81874047Y-83824819D02*
X81588333Y-83824819D01*
X81588333Y-83824819D02*
X81493095Y-83777200D01*
X81493095Y-83777200D02*
X81445476Y-83729580D01*
X82445476Y-82920057D02*
X82493095Y-82872438D01*
X82493095Y-82872438D02*
X82588333Y-82824819D01*
X82588333Y-82824819D02*
X82826428Y-82824819D01*
X82826428Y-82824819D02*
X82921666Y-82872438D01*
X82921666Y-82872438D02*
X82969285Y-82920057D01*
X82969285Y-82920057D02*
X83016904Y-83015295D01*
X83016904Y-83015295D02*
X83016904Y-83110533D01*
X83016904Y-83110533D02*
X82969285Y-83253390D01*
X82969285Y-83253390D02*
X82397857Y-83824819D01*
X82397857Y-83824819D02*
X83016904Y-83824819D01*
X76340714Y-83824819D02*
X76340714Y-82824819D01*
X76340714Y-82824819D02*
X76578809Y-82824819D01*
X76578809Y-82824819D02*
X76721666Y-82872438D01*
X76721666Y-82872438D02*
X76816904Y-82967676D01*
X76816904Y-82967676D02*
X76864523Y-83062914D01*
X76864523Y-83062914D02*
X76912142Y-83253390D01*
X76912142Y-83253390D02*
X76912142Y-83396247D01*
X76912142Y-83396247D02*
X76864523Y-83586723D01*
X76864523Y-83586723D02*
X76816904Y-83681961D01*
X76816904Y-83681961D02*
X76721666Y-83777200D01*
X76721666Y-83777200D02*
X76578809Y-83824819D01*
X76578809Y-83824819D02*
X76340714Y-83824819D01*
X77769285Y-83158152D02*
X77769285Y-83824819D01*
X77531190Y-82777200D02*
X77293095Y-83491485D01*
X77293095Y-83491485D02*
X77912142Y-83491485D01*
X78435952Y-83253390D02*
X78340714Y-83205771D01*
X78340714Y-83205771D02*
X78293095Y-83158152D01*
X78293095Y-83158152D02*
X78245476Y-83062914D01*
X78245476Y-83062914D02*
X78245476Y-83015295D01*
X78245476Y-83015295D02*
X78293095Y-82920057D01*
X78293095Y-82920057D02*
X78340714Y-82872438D01*
X78340714Y-82872438D02*
X78435952Y-82824819D01*
X78435952Y-82824819D02*
X78626428Y-82824819D01*
X78626428Y-82824819D02*
X78721666Y-82872438D01*
X78721666Y-82872438D02*
X78769285Y-82920057D01*
X78769285Y-82920057D02*
X78816904Y-83015295D01*
X78816904Y-83015295D02*
X78816904Y-83062914D01*
X78816904Y-83062914D02*
X78769285Y-83158152D01*
X78769285Y-83158152D02*
X78721666Y-83205771D01*
X78721666Y-83205771D02*
X78626428Y-83253390D01*
X78626428Y-83253390D02*
X78435952Y-83253390D01*
X78435952Y-83253390D02*
X78340714Y-83301009D01*
X78340714Y-83301009D02*
X78293095Y-83348628D01*
X78293095Y-83348628D02*
X78245476Y-83443866D01*
X78245476Y-83443866D02*
X78245476Y-83634342D01*
X78245476Y-83634342D02*
X78293095Y-83729580D01*
X78293095Y-83729580D02*
X78340714Y-83777200D01*
X78340714Y-83777200D02*
X78435952Y-83824819D01*
X78435952Y-83824819D02*
X78626428Y-83824819D01*
X78626428Y-83824819D02*
X78721666Y-83777200D01*
X78721666Y-83777200D02*
X78769285Y-83729580D01*
X78769285Y-83729580D02*
X78816904Y-83634342D01*
X78816904Y-83634342D02*
X78816904Y-83443866D01*
X78816904Y-83443866D02*
X78769285Y-83348628D01*
X78769285Y-83348628D02*
X78721666Y-83301009D01*
X78721666Y-83301009D02*
X78626428Y-83253390D01*
X78440714Y-83824819D02*
X78440714Y-82824819D01*
X78440714Y-82824819D02*
X78678809Y-82824819D01*
X78678809Y-82824819D02*
X78821666Y-82872438D01*
X78821666Y-82872438D02*
X78916904Y-82967676D01*
X78916904Y-82967676D02*
X78964523Y-83062914D01*
X78964523Y-83062914D02*
X79012142Y-83253390D01*
X79012142Y-83253390D02*
X79012142Y-83396247D01*
X79012142Y-83396247D02*
X78964523Y-83586723D01*
X78964523Y-83586723D02*
X78916904Y-83681961D01*
X78916904Y-83681961D02*
X78821666Y-83777200D01*
X78821666Y-83777200D02*
X78678809Y-83824819D01*
X78678809Y-83824819D02*
X78440714Y-83824819D01*
X79869285Y-83158152D02*
X79869285Y-83824819D01*
X79631190Y-82777200D02*
X79393095Y-83491485D01*
X79393095Y-83491485D02*
X80012142Y-83491485D01*
X80583571Y-82824819D02*
X80678809Y-82824819D01*
X80678809Y-82824819D02*
X80774047Y-82872438D01*
X80774047Y-82872438D02*
X80821666Y-82920057D01*
X80821666Y-82920057D02*
X80869285Y-83015295D01*
X80869285Y-83015295D02*
X80916904Y-83205771D01*
X80916904Y-83205771D02*
X80916904Y-83443866D01*
X80916904Y-83443866D02*
X80869285Y-83634342D01*
X80869285Y-83634342D02*
X80821666Y-83729580D01*
X80821666Y-83729580D02*
X80774047Y-83777200D01*
X80774047Y-83777200D02*
X80678809Y-83824819D01*
X80678809Y-83824819D02*
X80583571Y-83824819D01*
X80583571Y-83824819D02*
X80488333Y-83777200D01*
X80488333Y-83777200D02*
X80440714Y-83729580D01*
X80440714Y-83729580D02*
X80393095Y-83634342D01*
X80393095Y-83634342D02*
X80345476Y-83443866D01*
X80345476Y-83443866D02*
X80345476Y-83205771D01*
X80345476Y-83205771D02*
X80393095Y-83015295D01*
X80393095Y-83015295D02*
X80440714Y-82920057D01*
X80440714Y-82920057D02*
X80488333Y-82872438D01*
X80488333Y-82872438D02*
X80583571Y-82824819D01*
X74240714Y-83824819D02*
X74240714Y-82824819D01*
X74240714Y-82824819D02*
X74478809Y-82824819D01*
X74478809Y-82824819D02*
X74621666Y-82872438D01*
X74621666Y-82872438D02*
X74716904Y-82967676D01*
X74716904Y-82967676D02*
X74764523Y-83062914D01*
X74764523Y-83062914D02*
X74812142Y-83253390D01*
X74812142Y-83253390D02*
X74812142Y-83396247D01*
X74812142Y-83396247D02*
X74764523Y-83586723D01*
X74764523Y-83586723D02*
X74716904Y-83681961D01*
X74716904Y-83681961D02*
X74621666Y-83777200D01*
X74621666Y-83777200D02*
X74478809Y-83824819D01*
X74478809Y-83824819D02*
X74240714Y-83824819D01*
X75716904Y-82824819D02*
X75240714Y-82824819D01*
X75240714Y-82824819D02*
X75193095Y-83301009D01*
X75193095Y-83301009D02*
X75240714Y-83253390D01*
X75240714Y-83253390D02*
X75335952Y-83205771D01*
X75335952Y-83205771D02*
X75574047Y-83205771D01*
X75574047Y-83205771D02*
X75669285Y-83253390D01*
X75669285Y-83253390D02*
X75716904Y-83301009D01*
X75716904Y-83301009D02*
X75764523Y-83396247D01*
X75764523Y-83396247D02*
X75764523Y-83634342D01*
X75764523Y-83634342D02*
X75716904Y-83729580D01*
X75716904Y-83729580D02*
X75669285Y-83777200D01*
X75669285Y-83777200D02*
X75574047Y-83824819D01*
X75574047Y-83824819D02*
X75335952Y-83824819D01*
X75335952Y-83824819D02*
X75240714Y-83777200D01*
X75240714Y-83777200D02*
X75193095Y-83729580D01*
X76621666Y-82824819D02*
X76431190Y-82824819D01*
X76431190Y-82824819D02*
X76335952Y-82872438D01*
X76335952Y-82872438D02*
X76288333Y-82920057D01*
X76288333Y-82920057D02*
X76193095Y-83062914D01*
X76193095Y-83062914D02*
X76145476Y-83253390D01*
X76145476Y-83253390D02*
X76145476Y-83634342D01*
X76145476Y-83634342D02*
X76193095Y-83729580D01*
X76193095Y-83729580D02*
X76240714Y-83777200D01*
X76240714Y-83777200D02*
X76335952Y-83824819D01*
X76335952Y-83824819D02*
X76526428Y-83824819D01*
X76526428Y-83824819D02*
X76621666Y-83777200D01*
X76621666Y-83777200D02*
X76669285Y-83729580D01*
X76669285Y-83729580D02*
X76716904Y-83634342D01*
X76716904Y-83634342D02*
X76716904Y-83396247D01*
X76716904Y-83396247D02*
X76669285Y-83301009D01*
X76669285Y-83301009D02*
X76621666Y-83253390D01*
X76621666Y-83253390D02*
X76526428Y-83205771D01*
X76526428Y-83205771D02*
X76335952Y-83205771D01*
X76335952Y-83205771D02*
X76240714Y-83253390D01*
X76240714Y-83253390D02*
X76193095Y-83301009D01*
X76193095Y-83301009D02*
X76145476Y-83396247D01*
X80743746Y-102368245D02*
X80743746Y-101728245D01*
X80743746Y-101728245D02*
X80896127Y-101728245D01*
X80896127Y-101728245D02*
X80987556Y-101758721D01*
X80987556Y-101758721D02*
X81048508Y-101819673D01*
X81048508Y-101819673D02*
X81078985Y-101880626D01*
X81078985Y-101880626D02*
X81109461Y-102002530D01*
X81109461Y-102002530D02*
X81109461Y-102093959D01*
X81109461Y-102093959D02*
X81078985Y-102215864D01*
X81078985Y-102215864D02*
X81048508Y-102276816D01*
X81048508Y-102276816D02*
X80987556Y-102337769D01*
X80987556Y-102337769D02*
X80896127Y-102368245D01*
X80896127Y-102368245D02*
X80743746Y-102368245D01*
X81658032Y-101728245D02*
X81536127Y-101728245D01*
X81536127Y-101728245D02*
X81475175Y-101758721D01*
X81475175Y-101758721D02*
X81444699Y-101789197D01*
X81444699Y-101789197D02*
X81383746Y-101880626D01*
X81383746Y-101880626D02*
X81353270Y-102002530D01*
X81353270Y-102002530D02*
X81353270Y-102246340D01*
X81353270Y-102246340D02*
X81383746Y-102307292D01*
X81383746Y-102307292D02*
X81414223Y-102337769D01*
X81414223Y-102337769D02*
X81475175Y-102368245D01*
X81475175Y-102368245D02*
X81597080Y-102368245D01*
X81597080Y-102368245D02*
X81658032Y-102337769D01*
X81658032Y-102337769D02*
X81688508Y-102307292D01*
X81688508Y-102307292D02*
X81718985Y-102246340D01*
X81718985Y-102246340D02*
X81718985Y-102093959D01*
X81718985Y-102093959D02*
X81688508Y-102033007D01*
X81688508Y-102033007D02*
X81658032Y-102002530D01*
X81658032Y-102002530D02*
X81597080Y-101972054D01*
X81597080Y-101972054D02*
X81475175Y-101972054D01*
X81475175Y-101972054D02*
X81414223Y-102002530D01*
X81414223Y-102002530D02*
X81383746Y-102033007D01*
X81383746Y-102033007D02*
X81353270Y-102093959D01*
X82084699Y-102002530D02*
X82023747Y-101972054D01*
X82023747Y-101972054D02*
X81993270Y-101941578D01*
X81993270Y-101941578D02*
X81962794Y-101880626D01*
X81962794Y-101880626D02*
X81962794Y-101850149D01*
X81962794Y-101850149D02*
X81993270Y-101789197D01*
X81993270Y-101789197D02*
X82023747Y-101758721D01*
X82023747Y-101758721D02*
X82084699Y-101728245D01*
X82084699Y-101728245D02*
X82206604Y-101728245D01*
X82206604Y-101728245D02*
X82267556Y-101758721D01*
X82267556Y-101758721D02*
X82298032Y-101789197D01*
X82298032Y-101789197D02*
X82328509Y-101850149D01*
X82328509Y-101850149D02*
X82328509Y-101880626D01*
X82328509Y-101880626D02*
X82298032Y-101941578D01*
X82298032Y-101941578D02*
X82267556Y-101972054D01*
X82267556Y-101972054D02*
X82206604Y-102002530D01*
X82206604Y-102002530D02*
X82084699Y-102002530D01*
X82084699Y-102002530D02*
X82023747Y-102033007D01*
X82023747Y-102033007D02*
X81993270Y-102063483D01*
X81993270Y-102063483D02*
X81962794Y-102124435D01*
X81962794Y-102124435D02*
X81962794Y-102246340D01*
X81962794Y-102246340D02*
X81993270Y-102307292D01*
X81993270Y-102307292D02*
X82023747Y-102337769D01*
X82023747Y-102337769D02*
X82084699Y-102368245D01*
X82084699Y-102368245D02*
X82206604Y-102368245D01*
X82206604Y-102368245D02*
X82267556Y-102337769D01*
X82267556Y-102337769D02*
X82298032Y-102307292D01*
X82298032Y-102307292D02*
X82328509Y-102246340D01*
X82328509Y-102246340D02*
X82328509Y-102124435D01*
X82328509Y-102124435D02*
X82298032Y-102063483D01*
X82298032Y-102063483D02*
X82267556Y-102033007D01*
X82267556Y-102033007D02*
X82206604Y-102002530D01*
X74389819Y-102481666D02*
X73913628Y-102814999D01*
X74389819Y-103053094D02*
X73389819Y-103053094D01*
X73389819Y-103053094D02*
X73389819Y-102672142D01*
X73389819Y-102672142D02*
X73437438Y-102576904D01*
X73437438Y-102576904D02*
X73485057Y-102529285D01*
X73485057Y-102529285D02*
X73580295Y-102481666D01*
X73580295Y-102481666D02*
X73723152Y-102481666D01*
X73723152Y-102481666D02*
X73818390Y-102529285D01*
X73818390Y-102529285D02*
X73866009Y-102576904D01*
X73866009Y-102576904D02*
X73913628Y-102672142D01*
X73913628Y-102672142D02*
X73913628Y-103053094D01*
X73389819Y-102148332D02*
X73389819Y-101529285D01*
X73389819Y-101529285D02*
X73770771Y-101862618D01*
X73770771Y-101862618D02*
X73770771Y-101719761D01*
X73770771Y-101719761D02*
X73818390Y-101624523D01*
X73818390Y-101624523D02*
X73866009Y-101576904D01*
X73866009Y-101576904D02*
X73961247Y-101529285D01*
X73961247Y-101529285D02*
X74199342Y-101529285D01*
X74199342Y-101529285D02*
X74294580Y-101576904D01*
X74294580Y-101576904D02*
X74342200Y-101624523D01*
X74342200Y-101624523D02*
X74389819Y-101719761D01*
X74389819Y-101719761D02*
X74389819Y-102005475D01*
X74389819Y-102005475D02*
X74342200Y-102100713D01*
X74342200Y-102100713D02*
X74294580Y-102148332D01*
X73324819Y-102461666D02*
X72848628Y-102794999D01*
X73324819Y-103033094D02*
X72324819Y-103033094D01*
X72324819Y-103033094D02*
X72324819Y-102652142D01*
X72324819Y-102652142D02*
X72372438Y-102556904D01*
X72372438Y-102556904D02*
X72420057Y-102509285D01*
X72420057Y-102509285D02*
X72515295Y-102461666D01*
X72515295Y-102461666D02*
X72658152Y-102461666D01*
X72658152Y-102461666D02*
X72753390Y-102509285D01*
X72753390Y-102509285D02*
X72801009Y-102556904D01*
X72801009Y-102556904D02*
X72848628Y-102652142D01*
X72848628Y-102652142D02*
X72848628Y-103033094D01*
X72658152Y-101604523D02*
X73324819Y-101604523D01*
X72277200Y-101842618D02*
X72991485Y-102080713D01*
X72991485Y-102080713D02*
X72991485Y-101461666D01*
X75802856Y-101383276D02*
X75802856Y-100743276D01*
X75802856Y-100743276D02*
X75955237Y-100743276D01*
X75955237Y-100743276D02*
X76046666Y-100773752D01*
X76046666Y-100773752D02*
X76107618Y-100834704D01*
X76107618Y-100834704D02*
X76138095Y-100895657D01*
X76138095Y-100895657D02*
X76168571Y-101017561D01*
X76168571Y-101017561D02*
X76168571Y-101108990D01*
X76168571Y-101108990D02*
X76138095Y-101230895D01*
X76138095Y-101230895D02*
X76107618Y-101291847D01*
X76107618Y-101291847D02*
X76046666Y-101352800D01*
X76046666Y-101352800D02*
X75955237Y-101383276D01*
X75955237Y-101383276D02*
X75802856Y-101383276D01*
X76717142Y-100743276D02*
X76595237Y-100743276D01*
X76595237Y-100743276D02*
X76534285Y-100773752D01*
X76534285Y-100773752D02*
X76503809Y-100804228D01*
X76503809Y-100804228D02*
X76442856Y-100895657D01*
X76442856Y-100895657D02*
X76412380Y-101017561D01*
X76412380Y-101017561D02*
X76412380Y-101261371D01*
X76412380Y-101261371D02*
X76442856Y-101322323D01*
X76442856Y-101322323D02*
X76473333Y-101352800D01*
X76473333Y-101352800D02*
X76534285Y-101383276D01*
X76534285Y-101383276D02*
X76656190Y-101383276D01*
X76656190Y-101383276D02*
X76717142Y-101352800D01*
X76717142Y-101352800D02*
X76747618Y-101322323D01*
X76747618Y-101322323D02*
X76778095Y-101261371D01*
X76778095Y-101261371D02*
X76778095Y-101108990D01*
X76778095Y-101108990D02*
X76747618Y-101048038D01*
X76747618Y-101048038D02*
X76717142Y-101017561D01*
X76717142Y-101017561D02*
X76656190Y-100987085D01*
X76656190Y-100987085D02*
X76534285Y-100987085D01*
X76534285Y-100987085D02*
X76473333Y-101017561D01*
X76473333Y-101017561D02*
X76442856Y-101048038D01*
X76442856Y-101048038D02*
X76412380Y-101108990D01*
X77326666Y-100743276D02*
X77204761Y-100743276D01*
X77204761Y-100743276D02*
X77143809Y-100773752D01*
X77143809Y-100773752D02*
X77113333Y-100804228D01*
X77113333Y-100804228D02*
X77052380Y-100895657D01*
X77052380Y-100895657D02*
X77021904Y-101017561D01*
X77021904Y-101017561D02*
X77021904Y-101261371D01*
X77021904Y-101261371D02*
X77052380Y-101322323D01*
X77052380Y-101322323D02*
X77082857Y-101352800D01*
X77082857Y-101352800D02*
X77143809Y-101383276D01*
X77143809Y-101383276D02*
X77265714Y-101383276D01*
X77265714Y-101383276D02*
X77326666Y-101352800D01*
X77326666Y-101352800D02*
X77357142Y-101322323D01*
X77357142Y-101322323D02*
X77387619Y-101261371D01*
X77387619Y-101261371D02*
X77387619Y-101108990D01*
X77387619Y-101108990D02*
X77357142Y-101048038D01*
X77357142Y-101048038D02*
X77326666Y-101017561D01*
X77326666Y-101017561D02*
X77265714Y-100987085D01*
X77265714Y-100987085D02*
X77143809Y-100987085D01*
X77143809Y-100987085D02*
X77082857Y-101017561D01*
X77082857Y-101017561D02*
X77052380Y-101048038D01*
X77052380Y-101048038D02*
X77021904Y-101108990D01*
X78043333Y-97144580D02*
X77995714Y-97192200D01*
X77995714Y-97192200D02*
X77852857Y-97239819D01*
X77852857Y-97239819D02*
X77757619Y-97239819D01*
X77757619Y-97239819D02*
X77614762Y-97192200D01*
X77614762Y-97192200D02*
X77519524Y-97096961D01*
X77519524Y-97096961D02*
X77471905Y-97001723D01*
X77471905Y-97001723D02*
X77424286Y-96811247D01*
X77424286Y-96811247D02*
X77424286Y-96668390D01*
X77424286Y-96668390D02*
X77471905Y-96477914D01*
X77471905Y-96477914D02*
X77519524Y-96382676D01*
X77519524Y-96382676D02*
X77614762Y-96287438D01*
X77614762Y-96287438D02*
X77757619Y-96239819D01*
X77757619Y-96239819D02*
X77852857Y-96239819D01*
X77852857Y-96239819D02*
X77995714Y-96287438D01*
X77995714Y-96287438D02*
X78043333Y-96335057D01*
X78519524Y-97239819D02*
X78710000Y-97239819D01*
X78710000Y-97239819D02*
X78805238Y-97192200D01*
X78805238Y-97192200D02*
X78852857Y-97144580D01*
X78852857Y-97144580D02*
X78948095Y-97001723D01*
X78948095Y-97001723D02*
X78995714Y-96811247D01*
X78995714Y-96811247D02*
X78995714Y-96430295D01*
X78995714Y-96430295D02*
X78948095Y-96335057D01*
X78948095Y-96335057D02*
X78900476Y-96287438D01*
X78900476Y-96287438D02*
X78805238Y-96239819D01*
X78805238Y-96239819D02*
X78614762Y-96239819D01*
X78614762Y-96239819D02*
X78519524Y-96287438D01*
X78519524Y-96287438D02*
X78471905Y-96335057D01*
X78471905Y-96335057D02*
X78424286Y-96430295D01*
X78424286Y-96430295D02*
X78424286Y-96668390D01*
X78424286Y-96668390D02*
X78471905Y-96763628D01*
X78471905Y-96763628D02*
X78519524Y-96811247D01*
X78519524Y-96811247D02*
X78614762Y-96858866D01*
X78614762Y-96858866D02*
X78805238Y-96858866D01*
X78805238Y-96858866D02*
X78900476Y-96811247D01*
X78900476Y-96811247D02*
X78948095Y-96763628D01*
X78948095Y-96763628D02*
X78995714Y-96668390D01*
X76027142Y-99659580D02*
X75979523Y-99707200D01*
X75979523Y-99707200D02*
X75836666Y-99754819D01*
X75836666Y-99754819D02*
X75741428Y-99754819D01*
X75741428Y-99754819D02*
X75598571Y-99707200D01*
X75598571Y-99707200D02*
X75503333Y-99611961D01*
X75503333Y-99611961D02*
X75455714Y-99516723D01*
X75455714Y-99516723D02*
X75408095Y-99326247D01*
X75408095Y-99326247D02*
X75408095Y-99183390D01*
X75408095Y-99183390D02*
X75455714Y-98992914D01*
X75455714Y-98992914D02*
X75503333Y-98897676D01*
X75503333Y-98897676D02*
X75598571Y-98802438D01*
X75598571Y-98802438D02*
X75741428Y-98754819D01*
X75741428Y-98754819D02*
X75836666Y-98754819D01*
X75836666Y-98754819D02*
X75979523Y-98802438D01*
X75979523Y-98802438D02*
X76027142Y-98850057D01*
X76979523Y-99754819D02*
X76408095Y-99754819D01*
X76693809Y-99754819D02*
X76693809Y-98754819D01*
X76693809Y-98754819D02*
X76598571Y-98897676D01*
X76598571Y-98897676D02*
X76503333Y-98992914D01*
X76503333Y-98992914D02*
X76408095Y-99040533D01*
X77550952Y-99183390D02*
X77455714Y-99135771D01*
X77455714Y-99135771D02*
X77408095Y-99088152D01*
X77408095Y-99088152D02*
X77360476Y-98992914D01*
X77360476Y-98992914D02*
X77360476Y-98945295D01*
X77360476Y-98945295D02*
X77408095Y-98850057D01*
X77408095Y-98850057D02*
X77455714Y-98802438D01*
X77455714Y-98802438D02*
X77550952Y-98754819D01*
X77550952Y-98754819D02*
X77741428Y-98754819D01*
X77741428Y-98754819D02*
X77836666Y-98802438D01*
X77836666Y-98802438D02*
X77884285Y-98850057D01*
X77884285Y-98850057D02*
X77931904Y-98945295D01*
X77931904Y-98945295D02*
X77931904Y-98992914D01*
X77931904Y-98992914D02*
X77884285Y-99088152D01*
X77884285Y-99088152D02*
X77836666Y-99135771D01*
X77836666Y-99135771D02*
X77741428Y-99183390D01*
X77741428Y-99183390D02*
X77550952Y-99183390D01*
X77550952Y-99183390D02*
X77455714Y-99231009D01*
X77455714Y-99231009D02*
X77408095Y-99278628D01*
X77408095Y-99278628D02*
X77360476Y-99373866D01*
X77360476Y-99373866D02*
X77360476Y-99564342D01*
X77360476Y-99564342D02*
X77408095Y-99659580D01*
X77408095Y-99659580D02*
X77455714Y-99707200D01*
X77455714Y-99707200D02*
X77550952Y-99754819D01*
X77550952Y-99754819D02*
X77741428Y-99754819D01*
X77741428Y-99754819D02*
X77836666Y-99707200D01*
X77836666Y-99707200D02*
X77884285Y-99659580D01*
X77884285Y-99659580D02*
X77931904Y-99564342D01*
X77931904Y-99564342D02*
X77931904Y-99373866D01*
X77931904Y-99373866D02*
X77884285Y-99278628D01*
X77884285Y-99278628D02*
X77836666Y-99231009D01*
X77836666Y-99231009D02*
X77741428Y-99183390D01*
X79997142Y-100609580D02*
X79949523Y-100657200D01*
X79949523Y-100657200D02*
X79806666Y-100704819D01*
X79806666Y-100704819D02*
X79711428Y-100704819D01*
X79711428Y-100704819D02*
X79568571Y-100657200D01*
X79568571Y-100657200D02*
X79473333Y-100561961D01*
X79473333Y-100561961D02*
X79425714Y-100466723D01*
X79425714Y-100466723D02*
X79378095Y-100276247D01*
X79378095Y-100276247D02*
X79378095Y-100133390D01*
X79378095Y-100133390D02*
X79425714Y-99942914D01*
X79425714Y-99942914D02*
X79473333Y-99847676D01*
X79473333Y-99847676D02*
X79568571Y-99752438D01*
X79568571Y-99752438D02*
X79711428Y-99704819D01*
X79711428Y-99704819D02*
X79806666Y-99704819D01*
X79806666Y-99704819D02*
X79949523Y-99752438D01*
X79949523Y-99752438D02*
X79997142Y-99800057D01*
X80949523Y-100704819D02*
X80378095Y-100704819D01*
X80663809Y-100704819D02*
X80663809Y-99704819D01*
X80663809Y-99704819D02*
X80568571Y-99847676D01*
X80568571Y-99847676D02*
X80473333Y-99942914D01*
X80473333Y-99942914D02*
X80378095Y-99990533D01*
X81901904Y-100704819D02*
X81330476Y-100704819D01*
X81616190Y-100704819D02*
X81616190Y-99704819D01*
X81616190Y-99704819D02*
X81520952Y-99847676D01*
X81520952Y-99847676D02*
X81425714Y-99942914D01*
X81425714Y-99942914D02*
X81330476Y-99990533D01*
X76433333Y-105904580D02*
X76385714Y-105952200D01*
X76385714Y-105952200D02*
X76242857Y-105999819D01*
X76242857Y-105999819D02*
X76147619Y-105999819D01*
X76147619Y-105999819D02*
X76004762Y-105952200D01*
X76004762Y-105952200D02*
X75909524Y-105856961D01*
X75909524Y-105856961D02*
X75861905Y-105761723D01*
X75861905Y-105761723D02*
X75814286Y-105571247D01*
X75814286Y-105571247D02*
X75814286Y-105428390D01*
X75814286Y-105428390D02*
X75861905Y-105237914D01*
X75861905Y-105237914D02*
X75909524Y-105142676D01*
X75909524Y-105142676D02*
X76004762Y-105047438D01*
X76004762Y-105047438D02*
X76147619Y-104999819D01*
X76147619Y-104999819D02*
X76242857Y-104999819D01*
X76242857Y-104999819D02*
X76385714Y-105047438D01*
X76385714Y-105047438D02*
X76433333Y-105095057D01*
X76766667Y-104999819D02*
X77433333Y-104999819D01*
X77433333Y-104999819D02*
X77004762Y-105999819D01*
X67044580Y-100006666D02*
X67092200Y-100054285D01*
X67092200Y-100054285D02*
X67139819Y-100197142D01*
X67139819Y-100197142D02*
X67139819Y-100292380D01*
X67139819Y-100292380D02*
X67092200Y-100435237D01*
X67092200Y-100435237D02*
X66996961Y-100530475D01*
X66996961Y-100530475D02*
X66901723Y-100578094D01*
X66901723Y-100578094D02*
X66711247Y-100625713D01*
X66711247Y-100625713D02*
X66568390Y-100625713D01*
X66568390Y-100625713D02*
X66377914Y-100578094D01*
X66377914Y-100578094D02*
X66282676Y-100530475D01*
X66282676Y-100530475D02*
X66187438Y-100435237D01*
X66187438Y-100435237D02*
X66139819Y-100292380D01*
X66139819Y-100292380D02*
X66139819Y-100197142D01*
X66139819Y-100197142D02*
X66187438Y-100054285D01*
X66187438Y-100054285D02*
X66235057Y-100006666D01*
X66139819Y-99673332D02*
X66139819Y-99054285D01*
X66139819Y-99054285D02*
X66520771Y-99387618D01*
X66520771Y-99387618D02*
X66520771Y-99244761D01*
X66520771Y-99244761D02*
X66568390Y-99149523D01*
X66568390Y-99149523D02*
X66616009Y-99101904D01*
X66616009Y-99101904D02*
X66711247Y-99054285D01*
X66711247Y-99054285D02*
X66949342Y-99054285D01*
X66949342Y-99054285D02*
X67044580Y-99101904D01*
X67044580Y-99101904D02*
X67092200Y-99149523D01*
X67092200Y-99149523D02*
X67139819Y-99244761D01*
X67139819Y-99244761D02*
X67139819Y-99530475D01*
X67139819Y-99530475D02*
X67092200Y-99625713D01*
X67092200Y-99625713D02*
X67044580Y-99673332D01*
X66024580Y-100006666D02*
X66072200Y-100054285D01*
X66072200Y-100054285D02*
X66119819Y-100197142D01*
X66119819Y-100197142D02*
X66119819Y-100292380D01*
X66119819Y-100292380D02*
X66072200Y-100435237D01*
X66072200Y-100435237D02*
X65976961Y-100530475D01*
X65976961Y-100530475D02*
X65881723Y-100578094D01*
X65881723Y-100578094D02*
X65691247Y-100625713D01*
X65691247Y-100625713D02*
X65548390Y-100625713D01*
X65548390Y-100625713D02*
X65357914Y-100578094D01*
X65357914Y-100578094D02*
X65262676Y-100530475D01*
X65262676Y-100530475D02*
X65167438Y-100435237D01*
X65167438Y-100435237D02*
X65119819Y-100292380D01*
X65119819Y-100292380D02*
X65119819Y-100197142D01*
X65119819Y-100197142D02*
X65167438Y-100054285D01*
X65167438Y-100054285D02*
X65215057Y-100006666D01*
X65453152Y-99149523D02*
X66119819Y-99149523D01*
X65072200Y-99387618D02*
X65786485Y-99625713D01*
X65786485Y-99625713D02*
X65786485Y-99006666D01*
X76503333Y-103939580D02*
X76455714Y-103987200D01*
X76455714Y-103987200D02*
X76312857Y-104034819D01*
X76312857Y-104034819D02*
X76217619Y-104034819D01*
X76217619Y-104034819D02*
X76074762Y-103987200D01*
X76074762Y-103987200D02*
X75979524Y-103891961D01*
X75979524Y-103891961D02*
X75931905Y-103796723D01*
X75931905Y-103796723D02*
X75884286Y-103606247D01*
X75884286Y-103606247D02*
X75884286Y-103463390D01*
X75884286Y-103463390D02*
X75931905Y-103272914D01*
X75931905Y-103272914D02*
X75979524Y-103177676D01*
X75979524Y-103177676D02*
X76074762Y-103082438D01*
X76074762Y-103082438D02*
X76217619Y-103034819D01*
X76217619Y-103034819D02*
X76312857Y-103034819D01*
X76312857Y-103034819D02*
X76455714Y-103082438D01*
X76455714Y-103082438D02*
X76503333Y-103130057D01*
X77360476Y-103034819D02*
X77170000Y-103034819D01*
X77170000Y-103034819D02*
X77074762Y-103082438D01*
X77074762Y-103082438D02*
X77027143Y-103130057D01*
X77027143Y-103130057D02*
X76931905Y-103272914D01*
X76931905Y-103272914D02*
X76884286Y-103463390D01*
X76884286Y-103463390D02*
X76884286Y-103844342D01*
X76884286Y-103844342D02*
X76931905Y-103939580D01*
X76931905Y-103939580D02*
X76979524Y-103987200D01*
X76979524Y-103987200D02*
X77074762Y-104034819D01*
X77074762Y-104034819D02*
X77265238Y-104034819D01*
X77265238Y-104034819D02*
X77360476Y-103987200D01*
X77360476Y-103987200D02*
X77408095Y-103939580D01*
X77408095Y-103939580D02*
X77455714Y-103844342D01*
X77455714Y-103844342D02*
X77455714Y-103606247D01*
X77455714Y-103606247D02*
X77408095Y-103511009D01*
X77408095Y-103511009D02*
X77360476Y-103463390D01*
X77360476Y-103463390D02*
X77265238Y-103415771D01*
X77265238Y-103415771D02*
X77074762Y-103415771D01*
X77074762Y-103415771D02*
X76979524Y-103463390D01*
X76979524Y-103463390D02*
X76931905Y-103511009D01*
X76931905Y-103511009D02*
X76884286Y-103606247D01*
X68064580Y-100001666D02*
X68112200Y-100049285D01*
X68112200Y-100049285D02*
X68159819Y-100192142D01*
X68159819Y-100192142D02*
X68159819Y-100287380D01*
X68159819Y-100287380D02*
X68112200Y-100430237D01*
X68112200Y-100430237D02*
X68016961Y-100525475D01*
X68016961Y-100525475D02*
X67921723Y-100573094D01*
X67921723Y-100573094D02*
X67731247Y-100620713D01*
X67731247Y-100620713D02*
X67588390Y-100620713D01*
X67588390Y-100620713D02*
X67397914Y-100573094D01*
X67397914Y-100573094D02*
X67302676Y-100525475D01*
X67302676Y-100525475D02*
X67207438Y-100430237D01*
X67207438Y-100430237D02*
X67159819Y-100287380D01*
X67159819Y-100287380D02*
X67159819Y-100192142D01*
X67159819Y-100192142D02*
X67207438Y-100049285D01*
X67207438Y-100049285D02*
X67255057Y-100001666D01*
X67255057Y-99620713D02*
X67207438Y-99573094D01*
X67207438Y-99573094D02*
X67159819Y-99477856D01*
X67159819Y-99477856D02*
X67159819Y-99239761D01*
X67159819Y-99239761D02*
X67207438Y-99144523D01*
X67207438Y-99144523D02*
X67255057Y-99096904D01*
X67255057Y-99096904D02*
X67350295Y-99049285D01*
X67350295Y-99049285D02*
X67445533Y-99049285D01*
X67445533Y-99049285D02*
X67588390Y-99096904D01*
X67588390Y-99096904D02*
X68159819Y-99668332D01*
X68159819Y-99668332D02*
X68159819Y-99049285D01*
X55167557Y-85516428D02*
X55119938Y-85611666D01*
X55119938Y-85611666D02*
X55024700Y-85706904D01*
X55024700Y-85706904D02*
X54881842Y-85849761D01*
X54881842Y-85849761D02*
X54834223Y-85944999D01*
X54834223Y-85944999D02*
X54834223Y-86040237D01*
X55072319Y-85992618D02*
X55024700Y-86087856D01*
X55024700Y-86087856D02*
X54929461Y-86183094D01*
X54929461Y-86183094D02*
X54738985Y-86230713D01*
X54738985Y-86230713D02*
X54405652Y-86230713D01*
X54405652Y-86230713D02*
X54215176Y-86183094D01*
X54215176Y-86183094D02*
X54119938Y-86087856D01*
X54119938Y-86087856D02*
X54072319Y-85992618D01*
X54072319Y-85992618D02*
X54072319Y-85802142D01*
X54072319Y-85802142D02*
X54119938Y-85706904D01*
X54119938Y-85706904D02*
X54215176Y-85611666D01*
X54215176Y-85611666D02*
X54405652Y-85564047D01*
X54405652Y-85564047D02*
X54738985Y-85564047D01*
X54738985Y-85564047D02*
X54929461Y-85611666D01*
X54929461Y-85611666D02*
X55024700Y-85706904D01*
X55024700Y-85706904D02*
X55072319Y-85802142D01*
X55072319Y-85802142D02*
X55072319Y-85992618D01*
X55072319Y-84611666D02*
X55072319Y-85183094D01*
X55072319Y-84897380D02*
X54072319Y-84897380D01*
X54072319Y-84897380D02*
X54215176Y-84992618D01*
X54215176Y-84992618D02*
X54310414Y-85087856D01*
X54310414Y-85087856D02*
X54358033Y-85183094D01*
X54072319Y-83754523D02*
X54072319Y-83944999D01*
X54072319Y-83944999D02*
X54119938Y-84040237D01*
X54119938Y-84040237D02*
X54167557Y-84087856D01*
X54167557Y-84087856D02*
X54310414Y-84183094D01*
X54310414Y-84183094D02*
X54500890Y-84230713D01*
X54500890Y-84230713D02*
X54881842Y-84230713D01*
X54881842Y-84230713D02*
X54977080Y-84183094D01*
X54977080Y-84183094D02*
X55024700Y-84135475D01*
X55024700Y-84135475D02*
X55072319Y-84040237D01*
X55072319Y-84040237D02*
X55072319Y-83849761D01*
X55072319Y-83849761D02*
X55024700Y-83754523D01*
X55024700Y-83754523D02*
X54977080Y-83706904D01*
X54977080Y-83706904D02*
X54881842Y-83659285D01*
X54881842Y-83659285D02*
X54643747Y-83659285D01*
X54643747Y-83659285D02*
X54548509Y-83706904D01*
X54548509Y-83706904D02*
X54500890Y-83754523D01*
X54500890Y-83754523D02*
X54453271Y-83849761D01*
X54453271Y-83849761D02*
X54453271Y-84040237D01*
X54453271Y-84040237D02*
X54500890Y-84135475D01*
X54500890Y-84135475D02*
X54548509Y-84183094D01*
X54548509Y-84183094D02*
X54643747Y-84230713D01*
X58705057Y-85516428D02*
X58657438Y-85611666D01*
X58657438Y-85611666D02*
X58562200Y-85706904D01*
X58562200Y-85706904D02*
X58419342Y-85849761D01*
X58419342Y-85849761D02*
X58371723Y-85944999D01*
X58371723Y-85944999D02*
X58371723Y-86040237D01*
X58609819Y-85992618D02*
X58562200Y-86087856D01*
X58562200Y-86087856D02*
X58466961Y-86183094D01*
X58466961Y-86183094D02*
X58276485Y-86230713D01*
X58276485Y-86230713D02*
X57943152Y-86230713D01*
X57943152Y-86230713D02*
X57752676Y-86183094D01*
X57752676Y-86183094D02*
X57657438Y-86087856D01*
X57657438Y-86087856D02*
X57609819Y-85992618D01*
X57609819Y-85992618D02*
X57609819Y-85802142D01*
X57609819Y-85802142D02*
X57657438Y-85706904D01*
X57657438Y-85706904D02*
X57752676Y-85611666D01*
X57752676Y-85611666D02*
X57943152Y-85564047D01*
X57943152Y-85564047D02*
X58276485Y-85564047D01*
X58276485Y-85564047D02*
X58466961Y-85611666D01*
X58466961Y-85611666D02*
X58562200Y-85706904D01*
X58562200Y-85706904D02*
X58609819Y-85802142D01*
X58609819Y-85802142D02*
X58609819Y-85992618D01*
X58609819Y-84611666D02*
X58609819Y-85183094D01*
X58609819Y-84897380D02*
X57609819Y-84897380D01*
X57609819Y-84897380D02*
X57752676Y-84992618D01*
X57752676Y-84992618D02*
X57847914Y-85087856D01*
X57847914Y-85087856D02*
X57895533Y-85183094D01*
X57943152Y-83754523D02*
X58609819Y-83754523D01*
X57562200Y-83992618D02*
X58276485Y-84230713D01*
X58276485Y-84230713D02*
X58276485Y-83611666D01*
X62255057Y-85516428D02*
X62207438Y-85611666D01*
X62207438Y-85611666D02*
X62112200Y-85706904D01*
X62112200Y-85706904D02*
X61969342Y-85849761D01*
X61969342Y-85849761D02*
X61921723Y-85944999D01*
X61921723Y-85944999D02*
X61921723Y-86040237D01*
X62159819Y-85992618D02*
X62112200Y-86087856D01*
X62112200Y-86087856D02*
X62016961Y-86183094D01*
X62016961Y-86183094D02*
X61826485Y-86230713D01*
X61826485Y-86230713D02*
X61493152Y-86230713D01*
X61493152Y-86230713D02*
X61302676Y-86183094D01*
X61302676Y-86183094D02*
X61207438Y-86087856D01*
X61207438Y-86087856D02*
X61159819Y-85992618D01*
X61159819Y-85992618D02*
X61159819Y-85802142D01*
X61159819Y-85802142D02*
X61207438Y-85706904D01*
X61207438Y-85706904D02*
X61302676Y-85611666D01*
X61302676Y-85611666D02*
X61493152Y-85564047D01*
X61493152Y-85564047D02*
X61826485Y-85564047D01*
X61826485Y-85564047D02*
X62016961Y-85611666D01*
X62016961Y-85611666D02*
X62112200Y-85706904D01*
X62112200Y-85706904D02*
X62159819Y-85802142D01*
X62159819Y-85802142D02*
X62159819Y-85992618D01*
X62159819Y-84611666D02*
X62159819Y-85183094D01*
X62159819Y-84897380D02*
X61159819Y-84897380D01*
X61159819Y-84897380D02*
X61302676Y-84992618D01*
X61302676Y-84992618D02*
X61397914Y-85087856D01*
X61397914Y-85087856D02*
X61445533Y-85183094D01*
X61255057Y-84230713D02*
X61207438Y-84183094D01*
X61207438Y-84183094D02*
X61159819Y-84087856D01*
X61159819Y-84087856D02*
X61159819Y-83849761D01*
X61159819Y-83849761D02*
X61207438Y-83754523D01*
X61207438Y-83754523D02*
X61255057Y-83706904D01*
X61255057Y-83706904D02*
X61350295Y-83659285D01*
X61350295Y-83659285D02*
X61445533Y-83659285D01*
X61445533Y-83659285D02*
X61588390Y-83706904D01*
X61588390Y-83706904D02*
X62159819Y-84278332D01*
X62159819Y-84278332D02*
X62159819Y-83659285D01*
X65815057Y-85501428D02*
X65767438Y-85596666D01*
X65767438Y-85596666D02*
X65672200Y-85691904D01*
X65672200Y-85691904D02*
X65529342Y-85834761D01*
X65529342Y-85834761D02*
X65481723Y-85929999D01*
X65481723Y-85929999D02*
X65481723Y-86025237D01*
X65719819Y-85977618D02*
X65672200Y-86072856D01*
X65672200Y-86072856D02*
X65576961Y-86168094D01*
X65576961Y-86168094D02*
X65386485Y-86215713D01*
X65386485Y-86215713D02*
X65053152Y-86215713D01*
X65053152Y-86215713D02*
X64862676Y-86168094D01*
X64862676Y-86168094D02*
X64767438Y-86072856D01*
X64767438Y-86072856D02*
X64719819Y-85977618D01*
X64719819Y-85977618D02*
X64719819Y-85787142D01*
X64719819Y-85787142D02*
X64767438Y-85691904D01*
X64767438Y-85691904D02*
X64862676Y-85596666D01*
X64862676Y-85596666D02*
X65053152Y-85549047D01*
X65053152Y-85549047D02*
X65386485Y-85549047D01*
X65386485Y-85549047D02*
X65576961Y-85596666D01*
X65576961Y-85596666D02*
X65672200Y-85691904D01*
X65672200Y-85691904D02*
X65719819Y-85787142D01*
X65719819Y-85787142D02*
X65719819Y-85977618D01*
X65719819Y-84596666D02*
X65719819Y-85168094D01*
X65719819Y-84882380D02*
X64719819Y-84882380D01*
X64719819Y-84882380D02*
X64862676Y-84977618D01*
X64862676Y-84977618D02*
X64957914Y-85072856D01*
X64957914Y-85072856D02*
X65005533Y-85168094D01*
X64719819Y-83977618D02*
X64719819Y-83882380D01*
X64719819Y-83882380D02*
X64767438Y-83787142D01*
X64767438Y-83787142D02*
X64815057Y-83739523D01*
X64815057Y-83739523D02*
X64910295Y-83691904D01*
X64910295Y-83691904D02*
X65100771Y-83644285D01*
X65100771Y-83644285D02*
X65338866Y-83644285D01*
X65338866Y-83644285D02*
X65529342Y-83691904D01*
X65529342Y-83691904D02*
X65624580Y-83739523D01*
X65624580Y-83739523D02*
X65672200Y-83787142D01*
X65672200Y-83787142D02*
X65719819Y-83882380D01*
X65719819Y-83882380D02*
X65719819Y-83977618D01*
X65719819Y-83977618D02*
X65672200Y-84072856D01*
X65672200Y-84072856D02*
X65624580Y-84120475D01*
X65624580Y-84120475D02*
X65529342Y-84168094D01*
X65529342Y-84168094D02*
X65338866Y-84215713D01*
X65338866Y-84215713D02*
X65100771Y-84215713D01*
X65100771Y-84215713D02*
X64910295Y-84168094D01*
X64910295Y-84168094D02*
X64815057Y-84120475D01*
X64815057Y-84120475D02*
X64767438Y-84072856D01*
X64767438Y-84072856D02*
X64719819Y-83977618D01*
X87522261Y-103930057D02*
X87427023Y-103882438D01*
X87427023Y-103882438D02*
X87331785Y-103787200D01*
X87331785Y-103787200D02*
X87188928Y-103644342D01*
X87188928Y-103644342D02*
X87093690Y-103596723D01*
X87093690Y-103596723D02*
X86998452Y-103596723D01*
X87046071Y-103834819D02*
X86950833Y-103787200D01*
X86950833Y-103787200D02*
X86855595Y-103691961D01*
X86855595Y-103691961D02*
X86807976Y-103501485D01*
X86807976Y-103501485D02*
X86807976Y-103168152D01*
X86807976Y-103168152D02*
X86855595Y-102977676D01*
X86855595Y-102977676D02*
X86950833Y-102882438D01*
X86950833Y-102882438D02*
X87046071Y-102834819D01*
X87046071Y-102834819D02*
X87236547Y-102834819D01*
X87236547Y-102834819D02*
X87331785Y-102882438D01*
X87331785Y-102882438D02*
X87427023Y-102977676D01*
X87427023Y-102977676D02*
X87474642Y-103168152D01*
X87474642Y-103168152D02*
X87474642Y-103501485D01*
X87474642Y-103501485D02*
X87427023Y-103691961D01*
X87427023Y-103691961D02*
X87331785Y-103787200D01*
X87331785Y-103787200D02*
X87236547Y-103834819D01*
X87236547Y-103834819D02*
X87046071Y-103834819D01*
X87807976Y-102834819D02*
X88474642Y-102834819D01*
X88474642Y-102834819D02*
X88046071Y-103834819D01*
X87522261Y-100380057D02*
X87427023Y-100332438D01*
X87427023Y-100332438D02*
X87331785Y-100237200D01*
X87331785Y-100237200D02*
X87188928Y-100094342D01*
X87188928Y-100094342D02*
X87093690Y-100046723D01*
X87093690Y-100046723D02*
X86998452Y-100046723D01*
X87046071Y-100284819D02*
X86950833Y-100237200D01*
X86950833Y-100237200D02*
X86855595Y-100141961D01*
X86855595Y-100141961D02*
X86807976Y-99951485D01*
X86807976Y-99951485D02*
X86807976Y-99618152D01*
X86807976Y-99618152D02*
X86855595Y-99427676D01*
X86855595Y-99427676D02*
X86950833Y-99332438D01*
X86950833Y-99332438D02*
X87046071Y-99284819D01*
X87046071Y-99284819D02*
X87236547Y-99284819D01*
X87236547Y-99284819D02*
X87331785Y-99332438D01*
X87331785Y-99332438D02*
X87427023Y-99427676D01*
X87427023Y-99427676D02*
X87474642Y-99618152D01*
X87474642Y-99618152D02*
X87474642Y-99951485D01*
X87474642Y-99951485D02*
X87427023Y-100141961D01*
X87427023Y-100141961D02*
X87331785Y-100237200D01*
X87331785Y-100237200D02*
X87236547Y-100284819D01*
X87236547Y-100284819D02*
X87046071Y-100284819D01*
X88379404Y-99284819D02*
X87903214Y-99284819D01*
X87903214Y-99284819D02*
X87855595Y-99761009D01*
X87855595Y-99761009D02*
X87903214Y-99713390D01*
X87903214Y-99713390D02*
X87998452Y-99665771D01*
X87998452Y-99665771D02*
X88236547Y-99665771D01*
X88236547Y-99665771D02*
X88331785Y-99713390D01*
X88331785Y-99713390D02*
X88379404Y-99761009D01*
X88379404Y-99761009D02*
X88427023Y-99856247D01*
X88427023Y-99856247D02*
X88427023Y-100094342D01*
X88427023Y-100094342D02*
X88379404Y-100189580D01*
X88379404Y-100189580D02*
X88331785Y-100237200D01*
X88331785Y-100237200D02*
X88236547Y-100284819D01*
X88236547Y-100284819D02*
X87998452Y-100284819D01*
X87998452Y-100284819D02*
X87903214Y-100237200D01*
X87903214Y-100237200D02*
X87855595Y-100189580D01*
X87522261Y-96792557D02*
X87427023Y-96744938D01*
X87427023Y-96744938D02*
X87331785Y-96649700D01*
X87331785Y-96649700D02*
X87188928Y-96506842D01*
X87188928Y-96506842D02*
X87093690Y-96459223D01*
X87093690Y-96459223D02*
X86998452Y-96459223D01*
X87046071Y-96697319D02*
X86950833Y-96649700D01*
X86950833Y-96649700D02*
X86855595Y-96554461D01*
X86855595Y-96554461D02*
X86807976Y-96363985D01*
X86807976Y-96363985D02*
X86807976Y-96030652D01*
X86807976Y-96030652D02*
X86855595Y-95840176D01*
X86855595Y-95840176D02*
X86950833Y-95744938D01*
X86950833Y-95744938D02*
X87046071Y-95697319D01*
X87046071Y-95697319D02*
X87236547Y-95697319D01*
X87236547Y-95697319D02*
X87331785Y-95744938D01*
X87331785Y-95744938D02*
X87427023Y-95840176D01*
X87427023Y-95840176D02*
X87474642Y-96030652D01*
X87474642Y-96030652D02*
X87474642Y-96363985D01*
X87474642Y-96363985D02*
X87427023Y-96554461D01*
X87427023Y-96554461D02*
X87331785Y-96649700D01*
X87331785Y-96649700D02*
X87236547Y-96697319D01*
X87236547Y-96697319D02*
X87046071Y-96697319D01*
X87807976Y-95697319D02*
X88427023Y-95697319D01*
X88427023Y-95697319D02*
X88093690Y-96078271D01*
X88093690Y-96078271D02*
X88236547Y-96078271D01*
X88236547Y-96078271D02*
X88331785Y-96125890D01*
X88331785Y-96125890D02*
X88379404Y-96173509D01*
X88379404Y-96173509D02*
X88427023Y-96268747D01*
X88427023Y-96268747D02*
X88427023Y-96506842D01*
X88427023Y-96506842D02*
X88379404Y-96602080D01*
X88379404Y-96602080D02*
X88331785Y-96649700D01*
X88331785Y-96649700D02*
X88236547Y-96697319D01*
X88236547Y-96697319D02*
X87950833Y-96697319D01*
X87950833Y-96697319D02*
X87855595Y-96649700D01*
X87855595Y-96649700D02*
X87807976Y-96602080D01*
X87534761Y-93217557D02*
X87439523Y-93169938D01*
X87439523Y-93169938D02*
X87344285Y-93074700D01*
X87344285Y-93074700D02*
X87201428Y-92931842D01*
X87201428Y-92931842D02*
X87106190Y-92884223D01*
X87106190Y-92884223D02*
X87010952Y-92884223D01*
X87058571Y-93122319D02*
X86963333Y-93074700D01*
X86963333Y-93074700D02*
X86868095Y-92979461D01*
X86868095Y-92979461D02*
X86820476Y-92788985D01*
X86820476Y-92788985D02*
X86820476Y-92455652D01*
X86820476Y-92455652D02*
X86868095Y-92265176D01*
X86868095Y-92265176D02*
X86963333Y-92169938D01*
X86963333Y-92169938D02*
X87058571Y-92122319D01*
X87058571Y-92122319D02*
X87249047Y-92122319D01*
X87249047Y-92122319D02*
X87344285Y-92169938D01*
X87344285Y-92169938D02*
X87439523Y-92265176D01*
X87439523Y-92265176D02*
X87487142Y-92455652D01*
X87487142Y-92455652D02*
X87487142Y-92788985D01*
X87487142Y-92788985D02*
X87439523Y-92979461D01*
X87439523Y-92979461D02*
X87344285Y-93074700D01*
X87344285Y-93074700D02*
X87249047Y-93122319D01*
X87249047Y-93122319D02*
X87058571Y-93122319D01*
X88439523Y-93122319D02*
X87868095Y-93122319D01*
X88153809Y-93122319D02*
X88153809Y-92122319D01*
X88153809Y-92122319D02*
X88058571Y-92265176D01*
X88058571Y-92265176D02*
X87963333Y-92360414D01*
X87963333Y-92360414D02*
X87868095Y-92408033D01*
X61041009Y-106643333D02*
X61041009Y-106976666D01*
X61564819Y-106976666D02*
X60564819Y-106976666D01*
X60564819Y-106976666D02*
X60564819Y-106500476D01*
X61041009Y-105786190D02*
X61088628Y-105643333D01*
X61088628Y-105643333D02*
X61136247Y-105595714D01*
X61136247Y-105595714D02*
X61231485Y-105548095D01*
X61231485Y-105548095D02*
X61374342Y-105548095D01*
X61374342Y-105548095D02*
X61469580Y-105595714D01*
X61469580Y-105595714D02*
X61517200Y-105643333D01*
X61517200Y-105643333D02*
X61564819Y-105738571D01*
X61564819Y-105738571D02*
X61564819Y-106119523D01*
X61564819Y-106119523D02*
X60564819Y-106119523D01*
X60564819Y-106119523D02*
X60564819Y-105786190D01*
X60564819Y-105786190D02*
X60612438Y-105690952D01*
X60612438Y-105690952D02*
X60660057Y-105643333D01*
X60660057Y-105643333D02*
X60755295Y-105595714D01*
X60755295Y-105595714D02*
X60850533Y-105595714D01*
X60850533Y-105595714D02*
X60945771Y-105643333D01*
X60945771Y-105643333D02*
X60993390Y-105690952D01*
X60993390Y-105690952D02*
X61041009Y-105786190D01*
X61041009Y-105786190D02*
X61041009Y-106119523D01*
X61564819Y-104595714D02*
X61564819Y-105167142D01*
X61564819Y-104881428D02*
X60564819Y-104881428D01*
X60564819Y-104881428D02*
X60707676Y-104976666D01*
X60707676Y-104976666D02*
X60802914Y-105071904D01*
X60802914Y-105071904D02*
X60850533Y-105167142D01*
X60759438Y-106130332D02*
X60759438Y-106343666D01*
X61094676Y-106343666D02*
X60454676Y-106343666D01*
X60454676Y-106343666D02*
X60454676Y-106038904D01*
X61094676Y-105459856D02*
X61094676Y-105825571D01*
X61094676Y-105642714D02*
X60454676Y-105642714D01*
X60454676Y-105642714D02*
X60546104Y-105703666D01*
X60546104Y-105703666D02*
X60607057Y-105764618D01*
X60607057Y-105764618D02*
X60637533Y-105825571D01*
X63315714Y-108314819D02*
X63315714Y-107314819D01*
X63315714Y-107314819D02*
X63553809Y-107314819D01*
X63553809Y-107314819D02*
X63696666Y-107362438D01*
X63696666Y-107362438D02*
X63791904Y-107457676D01*
X63791904Y-107457676D02*
X63839523Y-107552914D01*
X63839523Y-107552914D02*
X63887142Y-107743390D01*
X63887142Y-107743390D02*
X63887142Y-107886247D01*
X63887142Y-107886247D02*
X63839523Y-108076723D01*
X63839523Y-108076723D02*
X63791904Y-108171961D01*
X63791904Y-108171961D02*
X63696666Y-108267200D01*
X63696666Y-108267200D02*
X63553809Y-108314819D01*
X63553809Y-108314819D02*
X63315714Y-108314819D01*
X64744285Y-107314819D02*
X64553809Y-107314819D01*
X64553809Y-107314819D02*
X64458571Y-107362438D01*
X64458571Y-107362438D02*
X64410952Y-107410057D01*
X64410952Y-107410057D02*
X64315714Y-107552914D01*
X64315714Y-107552914D02*
X64268095Y-107743390D01*
X64268095Y-107743390D02*
X64268095Y-108124342D01*
X64268095Y-108124342D02*
X64315714Y-108219580D01*
X64315714Y-108219580D02*
X64363333Y-108267200D01*
X64363333Y-108267200D02*
X64458571Y-108314819D01*
X64458571Y-108314819D02*
X64649047Y-108314819D01*
X64649047Y-108314819D02*
X64744285Y-108267200D01*
X64744285Y-108267200D02*
X64791904Y-108219580D01*
X64791904Y-108219580D02*
X64839523Y-108124342D01*
X64839523Y-108124342D02*
X64839523Y-107886247D01*
X64839523Y-107886247D02*
X64791904Y-107791009D01*
X64791904Y-107791009D02*
X64744285Y-107743390D01*
X64744285Y-107743390D02*
X64649047Y-107695771D01*
X64649047Y-107695771D02*
X64458571Y-107695771D01*
X64458571Y-107695771D02*
X64363333Y-107743390D01*
X64363333Y-107743390D02*
X64315714Y-107791009D01*
X64315714Y-107791009D02*
X64268095Y-107886247D01*
X65744285Y-107314819D02*
X65268095Y-107314819D01*
X65268095Y-107314819D02*
X65220476Y-107791009D01*
X65220476Y-107791009D02*
X65268095Y-107743390D01*
X65268095Y-107743390D02*
X65363333Y-107695771D01*
X65363333Y-107695771D02*
X65601428Y-107695771D01*
X65601428Y-107695771D02*
X65696666Y-107743390D01*
X65696666Y-107743390D02*
X65744285Y-107791009D01*
X65744285Y-107791009D02*
X65791904Y-107886247D01*
X65791904Y-107886247D02*
X65791904Y-108124342D01*
X65791904Y-108124342D02*
X65744285Y-108219580D01*
X65744285Y-108219580D02*
X65696666Y-108267200D01*
X65696666Y-108267200D02*
X65601428Y-108314819D01*
X65601428Y-108314819D02*
X65363333Y-108314819D01*
X65363333Y-108314819D02*
X65268095Y-108267200D01*
X65268095Y-108267200D02*
X65220476Y-108219580D01*
X57784580Y-101152857D02*
X57832200Y-101200476D01*
X57832200Y-101200476D02*
X57879819Y-101343333D01*
X57879819Y-101343333D02*
X57879819Y-101438571D01*
X57879819Y-101438571D02*
X57832200Y-101581428D01*
X57832200Y-101581428D02*
X57736961Y-101676666D01*
X57736961Y-101676666D02*
X57641723Y-101724285D01*
X57641723Y-101724285D02*
X57451247Y-101771904D01*
X57451247Y-101771904D02*
X57308390Y-101771904D01*
X57308390Y-101771904D02*
X57117914Y-101724285D01*
X57117914Y-101724285D02*
X57022676Y-101676666D01*
X57022676Y-101676666D02*
X56927438Y-101581428D01*
X56927438Y-101581428D02*
X56879819Y-101438571D01*
X56879819Y-101438571D02*
X56879819Y-101343333D01*
X56879819Y-101343333D02*
X56927438Y-101200476D01*
X56927438Y-101200476D02*
X56975057Y-101152857D01*
X57213152Y-100295714D02*
X57879819Y-100295714D01*
X56832200Y-100533809D02*
X57546485Y-100771904D01*
X57546485Y-100771904D02*
X57546485Y-100152857D01*
X57879819Y-99248095D02*
X57879819Y-99819523D01*
X57879819Y-99533809D02*
X56879819Y-99533809D01*
X56879819Y-99533809D02*
X57022676Y-99629047D01*
X57022676Y-99629047D02*
X57117914Y-99724285D01*
X57117914Y-99724285D02*
X57165533Y-99819523D01*
X68339580Y-112262857D02*
X68387200Y-112310476D01*
X68387200Y-112310476D02*
X68434819Y-112453333D01*
X68434819Y-112453333D02*
X68434819Y-112548571D01*
X68434819Y-112548571D02*
X68387200Y-112691428D01*
X68387200Y-112691428D02*
X68291961Y-112786666D01*
X68291961Y-112786666D02*
X68196723Y-112834285D01*
X68196723Y-112834285D02*
X68006247Y-112881904D01*
X68006247Y-112881904D02*
X67863390Y-112881904D01*
X67863390Y-112881904D02*
X67672914Y-112834285D01*
X67672914Y-112834285D02*
X67577676Y-112786666D01*
X67577676Y-112786666D02*
X67482438Y-112691428D01*
X67482438Y-112691428D02*
X67434819Y-112548571D01*
X67434819Y-112548571D02*
X67434819Y-112453333D01*
X67434819Y-112453333D02*
X67482438Y-112310476D01*
X67482438Y-112310476D02*
X67530057Y-112262857D01*
X67530057Y-111881904D02*
X67482438Y-111834285D01*
X67482438Y-111834285D02*
X67434819Y-111739047D01*
X67434819Y-111739047D02*
X67434819Y-111500952D01*
X67434819Y-111500952D02*
X67482438Y-111405714D01*
X67482438Y-111405714D02*
X67530057Y-111358095D01*
X67530057Y-111358095D02*
X67625295Y-111310476D01*
X67625295Y-111310476D02*
X67720533Y-111310476D01*
X67720533Y-111310476D02*
X67863390Y-111358095D01*
X67863390Y-111358095D02*
X68434819Y-111929523D01*
X68434819Y-111929523D02*
X68434819Y-111310476D01*
X67434819Y-110977142D02*
X67434819Y-110358095D01*
X67434819Y-110358095D02*
X67815771Y-110691428D01*
X67815771Y-110691428D02*
X67815771Y-110548571D01*
X67815771Y-110548571D02*
X67863390Y-110453333D01*
X67863390Y-110453333D02*
X67911009Y-110405714D01*
X67911009Y-110405714D02*
X68006247Y-110358095D01*
X68006247Y-110358095D02*
X68244342Y-110358095D01*
X68244342Y-110358095D02*
X68339580Y-110405714D01*
X68339580Y-110405714D02*
X68387200Y-110453333D01*
X68387200Y-110453333D02*
X68434819Y-110548571D01*
X68434819Y-110548571D02*
X68434819Y-110834285D01*
X68434819Y-110834285D02*
X68387200Y-110929523D01*
X68387200Y-110929523D02*
X68339580Y-110977142D01*
X68289580Y-109942857D02*
X68337200Y-109990476D01*
X68337200Y-109990476D02*
X68384819Y-110133333D01*
X68384819Y-110133333D02*
X68384819Y-110228571D01*
X68384819Y-110228571D02*
X68337200Y-110371428D01*
X68337200Y-110371428D02*
X68241961Y-110466666D01*
X68241961Y-110466666D02*
X68146723Y-110514285D01*
X68146723Y-110514285D02*
X67956247Y-110561904D01*
X67956247Y-110561904D02*
X67813390Y-110561904D01*
X67813390Y-110561904D02*
X67622914Y-110514285D01*
X67622914Y-110514285D02*
X67527676Y-110466666D01*
X67527676Y-110466666D02*
X67432438Y-110371428D01*
X67432438Y-110371428D02*
X67384819Y-110228571D01*
X67384819Y-110228571D02*
X67384819Y-110133333D01*
X67384819Y-110133333D02*
X67432438Y-109990476D01*
X67432438Y-109990476D02*
X67480057Y-109942857D01*
X67480057Y-109561904D02*
X67432438Y-109514285D01*
X67432438Y-109514285D02*
X67384819Y-109419047D01*
X67384819Y-109419047D02*
X67384819Y-109180952D01*
X67384819Y-109180952D02*
X67432438Y-109085714D01*
X67432438Y-109085714D02*
X67480057Y-109038095D01*
X67480057Y-109038095D02*
X67575295Y-108990476D01*
X67575295Y-108990476D02*
X67670533Y-108990476D01*
X67670533Y-108990476D02*
X67813390Y-109038095D01*
X67813390Y-109038095D02*
X68384819Y-109609523D01*
X68384819Y-109609523D02*
X68384819Y-108990476D01*
X67480057Y-108609523D02*
X67432438Y-108561904D01*
X67432438Y-108561904D02*
X67384819Y-108466666D01*
X67384819Y-108466666D02*
X67384819Y-108228571D01*
X67384819Y-108228571D02*
X67432438Y-108133333D01*
X67432438Y-108133333D02*
X67480057Y-108085714D01*
X67480057Y-108085714D02*
X67575295Y-108038095D01*
X67575295Y-108038095D02*
X67670533Y-108038095D01*
X67670533Y-108038095D02*
X67813390Y-108085714D01*
X67813390Y-108085714D02*
X68384819Y-108657142D01*
X68384819Y-108657142D02*
X68384819Y-108038095D01*
X62114580Y-101442857D02*
X62162200Y-101490476D01*
X62162200Y-101490476D02*
X62209819Y-101633333D01*
X62209819Y-101633333D02*
X62209819Y-101728571D01*
X62209819Y-101728571D02*
X62162200Y-101871428D01*
X62162200Y-101871428D02*
X62066961Y-101966666D01*
X62066961Y-101966666D02*
X61971723Y-102014285D01*
X61971723Y-102014285D02*
X61781247Y-102061904D01*
X61781247Y-102061904D02*
X61638390Y-102061904D01*
X61638390Y-102061904D02*
X61447914Y-102014285D01*
X61447914Y-102014285D02*
X61352676Y-101966666D01*
X61352676Y-101966666D02*
X61257438Y-101871428D01*
X61257438Y-101871428D02*
X61209819Y-101728571D01*
X61209819Y-101728571D02*
X61209819Y-101633333D01*
X61209819Y-101633333D02*
X61257438Y-101490476D01*
X61257438Y-101490476D02*
X61305057Y-101442857D01*
X62209819Y-100490476D02*
X62209819Y-101061904D01*
X62209819Y-100776190D02*
X61209819Y-100776190D01*
X61209819Y-100776190D02*
X61352676Y-100871428D01*
X61352676Y-100871428D02*
X61447914Y-100966666D01*
X61447914Y-100966666D02*
X61495533Y-101061904D01*
X61209819Y-99871428D02*
X61209819Y-99776190D01*
X61209819Y-99776190D02*
X61257438Y-99680952D01*
X61257438Y-99680952D02*
X61305057Y-99633333D01*
X61305057Y-99633333D02*
X61400295Y-99585714D01*
X61400295Y-99585714D02*
X61590771Y-99538095D01*
X61590771Y-99538095D02*
X61828866Y-99538095D01*
X61828866Y-99538095D02*
X62019342Y-99585714D01*
X62019342Y-99585714D02*
X62114580Y-99633333D01*
X62114580Y-99633333D02*
X62162200Y-99680952D01*
X62162200Y-99680952D02*
X62209819Y-99776190D01*
X62209819Y-99776190D02*
X62209819Y-99871428D01*
X62209819Y-99871428D02*
X62162200Y-99966666D01*
X62162200Y-99966666D02*
X62114580Y-100014285D01*
X62114580Y-100014285D02*
X62019342Y-100061904D01*
X62019342Y-100061904D02*
X61828866Y-100109523D01*
X61828866Y-100109523D02*
X61590771Y-100109523D01*
X61590771Y-100109523D02*
X61400295Y-100061904D01*
X61400295Y-100061904D02*
X61305057Y-100014285D01*
X61305057Y-100014285D02*
X61257438Y-99966666D01*
X61257438Y-99966666D02*
X61209819Y-99871428D01*
D11*
%TO.C,D6*%
X89170000Y-84700000D02*
G75*
G02*
X89070000Y-84700000I-50000J0D01*
G01*
X89070000Y-84700000D02*
G75*
G02*
X89170000Y-84700000I50000J0D01*
G01*
%TO.C,D1*%
X89185000Y-90950000D02*
G75*
G02*
X89085000Y-90950000I-50000J0D01*
G01*
X89085000Y-90950000D02*
G75*
G02*
X89185000Y-90950000I50000J0D01*
G01*
%TO.C,D2*%
X89185000Y-89700000D02*
G75*
G02*
X89085000Y-89700000I-50000J0D01*
G01*
X89085000Y-89700000D02*
G75*
G02*
X89185000Y-89700000I50000J0D01*
G01*
%TO.C,D3*%
X89180000Y-88450000D02*
G75*
G02*
X89080000Y-88450000I-50000J0D01*
G01*
X89080000Y-88450000D02*
G75*
G02*
X89180000Y-88450000I50000J0D01*
G01*
%TO.C,D4*%
X89170000Y-87200000D02*
G75*
G02*
X89070000Y-87200000I-50000J0D01*
G01*
X89070000Y-87200000D02*
G75*
G02*
X89170000Y-87200000I50000J0D01*
G01*
%TO.C,D5*%
X89170000Y-85950000D02*
G75*
G02*
X89070000Y-85950000I-50000J0D01*
G01*
X89070000Y-85950000D02*
G75*
G02*
X89170000Y-85950000I50000J0D01*
G01*
%TO.C,D12*%
X87095000Y-87200000D02*
G75*
G02*
X86995000Y-87200000I-50000J0D01*
G01*
X86995000Y-87200000D02*
G75*
G02*
X87095000Y-87200000I50000J0D01*
G01*
%TO.C,D42*%
X78695000Y-89700000D02*
G75*
G02*
X78595000Y-89700000I-50000J0D01*
G01*
X78595000Y-89700000D02*
G75*
G02*
X78695000Y-89700000I50000J0D01*
G01*
%TO.C,D15*%
X87095000Y-83450000D02*
G75*
G02*
X86995000Y-83450000I-50000J0D01*
G01*
X86995000Y-83450000D02*
G75*
G02*
X87095000Y-83450000I50000J0D01*
G01*
%TO.C,D9*%
X87085000Y-90950000D02*
G75*
G02*
X86985000Y-90950000I-50000J0D01*
G01*
X86985000Y-90950000D02*
G75*
G02*
X87085000Y-90950000I50000J0D01*
G01*
%TO.C,D7*%
X89170000Y-83450000D02*
G75*
G02*
X89070000Y-83450000I-50000J0D01*
G01*
X89070000Y-83450000D02*
G75*
G02*
X89170000Y-83450000I50000J0D01*
G01*
%TO.C,D41*%
X78700000Y-90950000D02*
G75*
G02*
X78600000Y-90950000I-50000J0D01*
G01*
X78600000Y-90950000D02*
G75*
G02*
X78700000Y-90950000I50000J0D01*
G01*
%TO.C,D10*%
X87095000Y-89700000D02*
G75*
G02*
X86995000Y-89700000I-50000J0D01*
G01*
X86995000Y-89700000D02*
G75*
G02*
X87095000Y-89700000I50000J0D01*
G01*
%TO.C,D13*%
X87095000Y-85950000D02*
G75*
G02*
X86995000Y-85950000I-50000J0D01*
G01*
X86995000Y-85950000D02*
G75*
G02*
X87095000Y-85950000I50000J0D01*
G01*
%TO.C,D11*%
X87095000Y-88450000D02*
G75*
G02*
X86995000Y-88450000I-50000J0D01*
G01*
X86995000Y-88450000D02*
G75*
G02*
X87095000Y-88450000I50000J0D01*
G01*
%TO.C,D14*%
X87095000Y-84700000D02*
G75*
G02*
X86995000Y-84700000I-50000J0D01*
G01*
X86995000Y-84700000D02*
G75*
G02*
X87095000Y-84700000I50000J0D01*
G01*
%TO.C,D20*%
X84980000Y-87200000D02*
G75*
G02*
X84880000Y-87200000I-50000J0D01*
G01*
X84880000Y-87200000D02*
G75*
G02*
X84980000Y-87200000I50000J0D01*
G01*
%TO.C,D18*%
X84995000Y-89700000D02*
G75*
G02*
X84895000Y-89700000I-50000J0D01*
G01*
X84895000Y-89700000D02*
G75*
G02*
X84995000Y-89700000I50000J0D01*
G01*
%TO.C,D25*%
X82900000Y-90950000D02*
G75*
G02*
X82800000Y-90950000I-50000J0D01*
G01*
X82800000Y-90950000D02*
G75*
G02*
X82900000Y-90950000I50000J0D01*
G01*
%TO.C,D26*%
X82895000Y-89700000D02*
G75*
G02*
X82795000Y-89700000I-50000J0D01*
G01*
X82795000Y-89700000D02*
G75*
G02*
X82895000Y-89700000I50000J0D01*
G01*
%TO.C,D21*%
X84975000Y-85950000D02*
G75*
G02*
X84875000Y-85950000I-50000J0D01*
G01*
X84875000Y-85950000D02*
G75*
G02*
X84975000Y-85950000I50000J0D01*
G01*
%TO.C,D23*%
X84995000Y-83450000D02*
G75*
G02*
X84895000Y-83450000I-50000J0D01*
G01*
X84895000Y-83450000D02*
G75*
G02*
X84995000Y-83450000I50000J0D01*
G01*
%TO.C,D19*%
X84980000Y-88450000D02*
G75*
G02*
X84880000Y-88450000I-50000J0D01*
G01*
X84880000Y-88450000D02*
G75*
G02*
X84980000Y-88450000I50000J0D01*
G01*
%TO.C,D22*%
X84995000Y-84700000D02*
G75*
G02*
X84895000Y-84700000I-50000J0D01*
G01*
X84895000Y-84700000D02*
G75*
G02*
X84995000Y-84700000I50000J0D01*
G01*
%TO.C,D17*%
X84985000Y-90920000D02*
G75*
G02*
X84885000Y-90920000I-50000J0D01*
G01*
X84885000Y-90920000D02*
G75*
G02*
X84985000Y-90920000I50000J0D01*
G01*
%TO.C,D43*%
X78695000Y-88425000D02*
G75*
G02*
X78595000Y-88425000I-50000J0D01*
G01*
X78595000Y-88425000D02*
G75*
G02*
X78695000Y-88425000I50000J0D01*
G01*
%TO.C,D33*%
X80785000Y-90950000D02*
G75*
G02*
X80685000Y-90950000I-50000J0D01*
G01*
X80685000Y-90950000D02*
G75*
G02*
X80785000Y-90950000I50000J0D01*
G01*
%TO.C,D27*%
X82895000Y-88450000D02*
G75*
G02*
X82795000Y-88450000I-50000J0D01*
G01*
X82795000Y-88450000D02*
G75*
G02*
X82895000Y-88450000I50000J0D01*
G01*
%TO.C,D29*%
X82895000Y-85950000D02*
G75*
G02*
X82795000Y-85950000I-50000J0D01*
G01*
X82795000Y-85950000D02*
G75*
G02*
X82895000Y-85950000I50000J0D01*
G01*
%TO.C,D28*%
X82895000Y-87200000D02*
G75*
G02*
X82795000Y-87200000I-50000J0D01*
G01*
X82795000Y-87200000D02*
G75*
G02*
X82895000Y-87200000I50000J0D01*
G01*
%TO.C,D30*%
X82895000Y-84700000D02*
G75*
G02*
X82795000Y-84700000I-50000J0D01*
G01*
X82795000Y-84700000D02*
G75*
G02*
X82895000Y-84700000I50000J0D01*
G01*
%TO.C,D44*%
X78695000Y-87200000D02*
G75*
G02*
X78595000Y-87200000I-50000J0D01*
G01*
X78595000Y-87200000D02*
G75*
G02*
X78695000Y-87200000I50000J0D01*
G01*
%TO.C,D31*%
X82895000Y-83450000D02*
G75*
G02*
X82795000Y-83450000I-50000J0D01*
G01*
X82795000Y-83450000D02*
G75*
G02*
X82895000Y-83450000I50000J0D01*
G01*
%TO.C,D35*%
X80795000Y-88450000D02*
G75*
G02*
X80695000Y-88450000I-50000J0D01*
G01*
X80695000Y-88450000D02*
G75*
G02*
X80795000Y-88450000I50000J0D01*
G01*
%TO.C,D36*%
X80795000Y-87200000D02*
G75*
G02*
X80695000Y-87200000I-50000J0D01*
G01*
X80695000Y-87200000D02*
G75*
G02*
X80795000Y-87200000I50000J0D01*
G01*
%TO.C,D37*%
X80795000Y-85950000D02*
G75*
G02*
X80695000Y-85950000I-50000J0D01*
G01*
X80695000Y-85950000D02*
G75*
G02*
X80795000Y-85950000I50000J0D01*
G01*
%TO.C,D39*%
X80795000Y-83450000D02*
G75*
G02*
X80695000Y-83450000I-50000J0D01*
G01*
X80695000Y-83450000D02*
G75*
G02*
X80795000Y-83450000I50000J0D01*
G01*
%TO.C,D34*%
X80795000Y-89700000D02*
G75*
G02*
X80695000Y-89700000I-50000J0D01*
G01*
X80695000Y-89700000D02*
G75*
G02*
X80795000Y-89700000I50000J0D01*
G01*
%TO.C,D38*%
X80795000Y-84700000D02*
G75*
G02*
X80695000Y-84700000I-50000J0D01*
G01*
X80695000Y-84700000D02*
G75*
G02*
X80795000Y-84700000I50000J0D01*
G01*
%TO.C,D45*%
X78695000Y-85950000D02*
G75*
G02*
X78595000Y-85950000I-50000J0D01*
G01*
X78595000Y-85950000D02*
G75*
G02*
X78695000Y-85950000I50000J0D01*
G01*
%TO.C,D52*%
X76595000Y-87200000D02*
G75*
G02*
X76495000Y-87200000I-50000J0D01*
G01*
X76495000Y-87200000D02*
G75*
G02*
X76595000Y-87200000I50000J0D01*
G01*
%TO.C,D55*%
X76595000Y-83450000D02*
G75*
G02*
X76495000Y-83450000I-50000J0D01*
G01*
X76495000Y-83450000D02*
G75*
G02*
X76595000Y-83450000I50000J0D01*
G01*
%TO.C,D58*%
X74495000Y-89700000D02*
G75*
G02*
X74395000Y-89700000I-50000J0D01*
G01*
X74395000Y-89700000D02*
G75*
G02*
X74495000Y-89700000I50000J0D01*
G01*
%TO.C,D50*%
X76595000Y-89700000D02*
G75*
G02*
X76495000Y-89700000I-50000J0D01*
G01*
X76495000Y-89700000D02*
G75*
G02*
X76595000Y-89700000I50000J0D01*
G01*
%TO.C,D47*%
X78695000Y-83450000D02*
G75*
G02*
X78595000Y-83450000I-50000J0D01*
G01*
X78595000Y-83450000D02*
G75*
G02*
X78695000Y-83450000I50000J0D01*
G01*
%TO.C,D49*%
X76600000Y-90950000D02*
G75*
G02*
X76500000Y-90950000I-50000J0D01*
G01*
X76500000Y-90950000D02*
G75*
G02*
X76600000Y-90950000I50000J0D01*
G01*
%TO.C,D53*%
X76595000Y-85950000D02*
G75*
G02*
X76495000Y-85950000I-50000J0D01*
G01*
X76495000Y-85950000D02*
G75*
G02*
X76595000Y-85950000I50000J0D01*
G01*
%TO.C,D46*%
X78695000Y-84700000D02*
G75*
G02*
X78595000Y-84700000I-50000J0D01*
G01*
X78595000Y-84700000D02*
G75*
G02*
X78695000Y-84700000I50000J0D01*
G01*
%TO.C,D51*%
X76595000Y-88450000D02*
G75*
G02*
X76495000Y-88450000I-50000J0D01*
G01*
X76495000Y-88450000D02*
G75*
G02*
X76595000Y-88450000I50000J0D01*
G01*
%TO.C,D54*%
X76595000Y-84700000D02*
G75*
G02*
X76495000Y-84700000I-50000J0D01*
G01*
X76495000Y-84700000D02*
G75*
G02*
X76595000Y-84700000I50000J0D01*
G01*
%TO.C,D57*%
X74515000Y-90950000D02*
G75*
G02*
X74415000Y-90950000I-50000J0D01*
G01*
X74415000Y-90950000D02*
G75*
G02*
X74515000Y-90950000I50000J0D01*
G01*
%TO.C,D8*%
X89170000Y-82200000D02*
G75*
G02*
X89070000Y-82200000I-50000J0D01*
G01*
X89070000Y-82200000D02*
G75*
G02*
X89170000Y-82200000I50000J0D01*
G01*
%TO.C,D16*%
X87085000Y-82200000D02*
G75*
G02*
X86985000Y-82200000I-50000J0D01*
G01*
X86985000Y-82200000D02*
G75*
G02*
X87085000Y-82200000I50000J0D01*
G01*
%TO.C,D59*%
X74495000Y-88450000D02*
G75*
G02*
X74395000Y-88450000I-50000J0D01*
G01*
X74395000Y-88450000D02*
G75*
G02*
X74495000Y-88450000I50000J0D01*
G01*
%TO.C,D62*%
X74495000Y-84700000D02*
G75*
G02*
X74395000Y-84700000I-50000J0D01*
G01*
X74395000Y-84700000D02*
G75*
G02*
X74495000Y-84700000I50000J0D01*
G01*
%TO.C,D63*%
X74495000Y-83450000D02*
G75*
G02*
X74395000Y-83450000I-50000J0D01*
G01*
X74395000Y-83450000D02*
G75*
G02*
X74495000Y-83450000I50000J0D01*
G01*
%TO.C,D61*%
X74495000Y-85950000D02*
G75*
G02*
X74395000Y-85950000I-50000J0D01*
G01*
X74395000Y-85950000D02*
G75*
G02*
X74495000Y-85950000I50000J0D01*
G01*
%TO.C,D60*%
X74495000Y-87200000D02*
G75*
G02*
X74395000Y-87200000I-50000J0D01*
G01*
X74395000Y-87200000D02*
G75*
G02*
X74495000Y-87200000I50000J0D01*
G01*
%TO.C,D24*%
X84995000Y-82200000D02*
G75*
G02*
X84895000Y-82200000I-50000J0D01*
G01*
X84895000Y-82200000D02*
G75*
G02*
X84995000Y-82200000I50000J0D01*
G01*
%TO.C,D64*%
X74495000Y-82200000D02*
G75*
G02*
X74395000Y-82200000I-50000J0D01*
G01*
X74395000Y-82200000D02*
G75*
G02*
X74495000Y-82200000I50000J0D01*
G01*
%TO.C,D32*%
X82895000Y-82200000D02*
G75*
G02*
X82795000Y-82200000I-50000J0D01*
G01*
X82795000Y-82200000D02*
G75*
G02*
X82895000Y-82200000I50000J0D01*
G01*
%TO.C,D48*%
X78695000Y-82200000D02*
G75*
G02*
X78595000Y-82200000I-50000J0D01*
G01*
X78595000Y-82200000D02*
G75*
G02*
X78695000Y-82200000I50000J0D01*
G01*
%TO.C,D40*%
X80795000Y-82200000D02*
G75*
G02*
X80695000Y-82200000I-50000J0D01*
G01*
X80695000Y-82200000D02*
G75*
G02*
X80795000Y-82200000I50000J0D01*
G01*
%TO.C,D56*%
X76595000Y-82200000D02*
G75*
G02*
X76495000Y-82200000I-50000J0D01*
G01*
X76495000Y-82200000D02*
G75*
G02*
X76595000Y-82200000I50000J0D01*
G01*
D12*
%TO.C,D68*%
X79520000Y-103145000D02*
G75*
G02*
X79360000Y-103145000I-80000J0D01*
G01*
X79360000Y-103145000D02*
G75*
G02*
X79520000Y-103145000I80000J0D01*
G01*
X80210000Y-102765000D02*
X81070000Y-102765000D01*
X81070000Y-103525000D02*
X80210000Y-103525000D01*
D13*
%TO.C,R3*%
X74725000Y-102468641D02*
X74725000Y-102161359D01*
X75485000Y-102468641D02*
X75485000Y-102161359D01*
%TO.C,R4*%
X73660000Y-102448641D02*
X73660000Y-102141359D01*
X74420000Y-102448641D02*
X74420000Y-102141359D01*
D12*
%TO.C,D66*%
X75460000Y-99395000D02*
G75*
G02*
X75300000Y-99395000I-80000J0D01*
G01*
X75300000Y-99395000D02*
G75*
G02*
X75460000Y-99395000I80000J0D01*
G01*
X76150000Y-99015000D02*
X77010000Y-99015000D01*
X77010000Y-99775000D02*
X76150000Y-99775000D01*
D13*
%TO.C,C9*%
X78102164Y-97585000D02*
X78317836Y-97585000D01*
X78102164Y-98305000D02*
X78317836Y-98305000D01*
%TO.C,C18*%
X76562164Y-100100000D02*
X76777836Y-100100000D01*
X76562164Y-100820000D02*
X76777836Y-100820000D01*
%TO.C,C11*%
X80532164Y-101050000D02*
X80747836Y-101050000D01*
X80532164Y-101770000D02*
X80747836Y-101770000D01*
%TO.C,C7*%
X76707836Y-104745000D02*
X76492164Y-104745000D01*
X76707836Y-104025000D02*
X76492164Y-104025000D01*
%TO.C,C3*%
X65885000Y-99732164D02*
X65885000Y-99947836D01*
X65165000Y-99732164D02*
X65165000Y-99947836D01*
%TO.C,C4*%
X64865000Y-99732164D02*
X64865000Y-99947836D01*
X64145000Y-99732164D02*
X64145000Y-99947836D01*
%TO.C,C6*%
X76777836Y-102780000D02*
X76562164Y-102780000D01*
X76777836Y-102060000D02*
X76562164Y-102060000D01*
%TO.C,C2*%
X66905000Y-99727164D02*
X66905000Y-99942836D01*
X66185000Y-99727164D02*
X66185000Y-99942836D01*
%TO.C,U6*%
X60250000Y-102552500D02*
X61050000Y-102552500D01*
X60250000Y-102552500D02*
X59450000Y-102552500D01*
X60250000Y-99432500D02*
X61050000Y-99432500D01*
X60250000Y-99432500D02*
X59450000Y-99432500D01*
X61790000Y-102832500D02*
X61310000Y-102832500D01*
X61550000Y-102502500D01*
X61790000Y-102832500D01*
G36*
X61790000Y-102832500D02*
G01*
X61310000Y-102832500D01*
X61550000Y-102502500D01*
X61790000Y-102832500D01*
G37*
%TO.C,Q16*%
X55457500Y-84945000D02*
X55457500Y-85595000D01*
X55457500Y-84945000D02*
X55457500Y-84295000D01*
X58577500Y-84945000D02*
X58577500Y-85595000D01*
X58577500Y-84945000D02*
X58577500Y-84295000D01*
X55507500Y-86107500D02*
X55177500Y-86347500D01*
X55177500Y-85867500D01*
X55507500Y-86107500D01*
G36*
X55507500Y-86107500D02*
G01*
X55177500Y-86347500D01*
X55177500Y-85867500D01*
X55507500Y-86107500D01*
G37*
%TO.C,Q14*%
X58995000Y-84945000D02*
X58995000Y-85595000D01*
X58995000Y-84945000D02*
X58995000Y-84295000D01*
X62115000Y-84945000D02*
X62115000Y-85595000D01*
X62115000Y-84945000D02*
X62115000Y-84295000D01*
X59045000Y-86107500D02*
X58715000Y-86347500D01*
X58715000Y-85867500D01*
X59045000Y-86107500D01*
G36*
X59045000Y-86107500D02*
G01*
X58715000Y-86347500D01*
X58715000Y-85867500D01*
X59045000Y-86107500D01*
G37*
%TO.C,Q12*%
X62545000Y-84945000D02*
X62545000Y-85595000D01*
X62545000Y-84945000D02*
X62545000Y-84295000D01*
X65665000Y-84945000D02*
X65665000Y-85595000D01*
X65665000Y-84945000D02*
X65665000Y-84295000D01*
X62595000Y-86107500D02*
X62265000Y-86347500D01*
X62265000Y-85867500D01*
X62595000Y-86107500D01*
G36*
X62595000Y-86107500D02*
G01*
X62265000Y-86347500D01*
X62265000Y-85867500D01*
X62595000Y-86107500D01*
G37*
%TO.C,Q10*%
X66105000Y-84930000D02*
X66105000Y-85580000D01*
X66105000Y-84930000D02*
X66105000Y-84280000D01*
X69225000Y-84930000D02*
X69225000Y-85580000D01*
X69225000Y-84930000D02*
X69225000Y-84280000D01*
X66155000Y-86092500D02*
X65825000Y-86332500D01*
X65825000Y-85852500D01*
X66155000Y-86092500D01*
G36*
X66155000Y-86092500D02*
G01*
X65825000Y-86332500D01*
X65825000Y-85852500D01*
X66155000Y-86092500D01*
G37*
%TO.C,Q7*%
X87617500Y-104220000D02*
X86967500Y-104220000D01*
X87617500Y-104220000D02*
X88267500Y-104220000D01*
X87617500Y-107340000D02*
X86967500Y-107340000D01*
X87617500Y-107340000D02*
X88267500Y-107340000D01*
X86455000Y-104270000D02*
X86215000Y-103940000D01*
X86695000Y-103940000D01*
X86455000Y-104270000D01*
G36*
X86455000Y-104270000D02*
G01*
X86215000Y-103940000D01*
X86695000Y-103940000D01*
X86455000Y-104270000D01*
G37*
%TO.C,Q5*%
X87617500Y-100670000D02*
X86967500Y-100670000D01*
X87617500Y-100670000D02*
X88267500Y-100670000D01*
X87617500Y-103790000D02*
X86967500Y-103790000D01*
X87617500Y-103790000D02*
X88267500Y-103790000D01*
X86455000Y-100720000D02*
X86215000Y-100390000D01*
X86695000Y-100390000D01*
X86455000Y-100720000D01*
G36*
X86455000Y-100720000D02*
G01*
X86215000Y-100390000D01*
X86695000Y-100390000D01*
X86455000Y-100720000D01*
G37*
%TO.C,Q3*%
X87617500Y-97082500D02*
X86967500Y-97082500D01*
X87617500Y-97082500D02*
X88267500Y-97082500D01*
X87617500Y-100202500D02*
X86967500Y-100202500D01*
X87617500Y-100202500D02*
X88267500Y-100202500D01*
X86455000Y-97132500D02*
X86215000Y-96802500D01*
X86695000Y-96802500D01*
X86455000Y-97132500D01*
G36*
X86455000Y-97132500D02*
G01*
X86215000Y-96802500D01*
X86695000Y-96802500D01*
X86455000Y-97132500D01*
G37*
%TO.C,Q1*%
X87630000Y-93507500D02*
X86980000Y-93507500D01*
X87630000Y-93507500D02*
X88280000Y-93507500D01*
X87630000Y-96627500D02*
X86980000Y-96627500D01*
X87630000Y-96627500D02*
X88280000Y-96627500D01*
X86467500Y-93557500D02*
X86227500Y-93227500D01*
X86707500Y-93227500D01*
X86467500Y-93557500D01*
G36*
X86467500Y-93557500D02*
G01*
X86227500Y-93227500D01*
X86707500Y-93227500D01*
X86467500Y-93557500D01*
G37*
D14*
%TO.C,FB1*%
X61186200Y-107905500D02*
G75*
G02*
X61033800Y-107905500I-76200J0D01*
G01*
X61033800Y-107905500D02*
G75*
G02*
X61186200Y-107905500I76200J0D01*
G01*
D13*
%TO.C,D65*%
X66890000Y-106860000D02*
X66890000Y-104860000D01*
X66890000Y-106860000D02*
X62880000Y-106860000D01*
X66890000Y-104860000D02*
X62880000Y-104860000D01*
%TO.C,C41*%
X57065000Y-100617836D02*
X57065000Y-100402164D01*
X57785000Y-100617836D02*
X57785000Y-100402164D01*
%TO.C,C23*%
X67620000Y-111727836D02*
X67620000Y-111512164D01*
X68340000Y-111727836D02*
X68340000Y-111512164D01*
%TO.C,C22*%
X67570000Y-109407836D02*
X67570000Y-109192164D01*
X68290000Y-109407836D02*
X68290000Y-109192164D01*
%TO.C,C10*%
X62555000Y-100907836D02*
X62555000Y-100692164D01*
X63275000Y-100907836D02*
X63275000Y-100692164D01*
%TD*%
M02*
