%TF.GenerationSoftware,KiCad,Pcbnew,9.0.3*%
%TF.CreationDate,2026-06-21T23:03:53+05:30*%
%TF.ProjectId,Elo_112,456c6f5f-3131-4322-9e6b-696361645f70,rev?*%
%TF.SameCoordinates,Original*%
%TF.FileFunction,Copper,L1,Top*%
%TF.FilePolarity,Positive*%
%FSLAX46Y46*%
G04 Gerber Fmt 4.6, Leading zero omitted, Abs format (unit mm)*
G04 Created by KiCad (PCBNEW 9.0.3) date 2026-06-21 23:03:53*
%MOMM*%
%LPD*%
G01*
G04 APERTURE LIST*
G04 Aperture macros list*
%AMRoundRect*
0 Rectangle with rounded corners*
0 $1 Rounding radius*
0 $2 $3 $4 $5 $6 $7 $8 $9 X,Y pos of 4 corners*
0 Add a 4 corners polygon primitive as box body*
4,1,4,$2,$3,$4,$5,$6,$7,$8,$9,$2,$3,0*
0 Add four circle primitives for the rounded corners*
1,1,$1+$1,$2,$3*
1,1,$1+$1,$4,$5*
1,1,$1+$1,$6,$7*
1,1,$1+$1,$8,$9*
0 Add four rect primitives between the rounded corners*
20,1,$1+$1,$2,$3,$4,$5,0*
20,1,$1+$1,$4,$5,$6,$7,0*
20,1,$1+$1,$6,$7,$8,$9,0*
20,1,$1+$1,$8,$9,$2,$3,0*%
G04 Aperture macros list end*
%TA.AperFunction,SMDPad,CuDef*%
%ADD10RoundRect,0.147500X0.147500X0.172500X-0.147500X0.172500X-0.147500X-0.172500X0.147500X-0.172500X0*%
%TD*%
%TA.AperFunction,SMDPad,CuDef*%
%ADD11RoundRect,0.075000X-0.175000X-0.075000X0.175000X-0.075000X0.175000X0.075000X-0.175000X0.075000X0*%
%TD*%
%TA.AperFunction,SMDPad,CuDef*%
%ADD12RoundRect,0.135000X0.185000X-0.135000X0.185000X0.135000X-0.185000X0.135000X-0.185000X-0.135000X0*%
%TD*%
%TA.AperFunction,SMDPad,CuDef*%
%ADD13RoundRect,0.140000X-0.140000X-0.170000X0.140000X-0.170000X0.140000X0.170000X-0.140000X0.170000X0*%
%TD*%
%TA.AperFunction,SMDPad,CuDef*%
%ADD14RoundRect,0.140000X0.140000X0.170000X-0.140000X0.170000X-0.140000X-0.170000X0.140000X-0.170000X0*%
%TD*%
%TA.AperFunction,SMDPad,CuDef*%
%ADD15RoundRect,0.140000X-0.170000X0.140000X-0.170000X-0.140000X0.170000X-0.140000X0.170000X0.140000X0*%
%TD*%
%TA.AperFunction,HeatsinkPad*%
%ADD16O,1.000000X1.600000*%
%TD*%
%TA.AperFunction,HeatsinkPad*%
%ADD17O,1.000000X2.100000*%
%TD*%
%TA.AperFunction,SMDPad,CuDef*%
%ADD18RoundRect,0.150000X0.512500X0.150000X-0.512500X0.150000X-0.512500X-0.150000X0.512500X-0.150000X0*%
%TD*%
%TA.AperFunction,SMDPad,CuDef*%
%ADD19RoundRect,0.150000X0.150000X-0.587500X0.150000X0.587500X-0.150000X0.587500X-0.150000X-0.587500X0*%
%TD*%
%TA.AperFunction,SMDPad,CuDef*%
%ADD20RoundRect,0.150000X-0.587500X-0.150000X0.587500X-0.150000X0.587500X0.150000X-0.587500X0.150000X0*%
%TD*%
%TA.AperFunction,SMDPad,CuDef*%
%ADD21R,1.397000X0.863600*%
%TD*%
%TA.AperFunction,SMDPad,CuDef*%
%ADD22R,1.020000X0.950000*%
%TD*%
%TA.AperFunction,SMDPad,CuDef*%
%ADD23RoundRect,0.225000X0.225000X0.375000X-0.225000X0.375000X-0.225000X-0.375000X0.225000X-0.375000X0*%
%TD*%
%TA.AperFunction,SMDPad,CuDef*%
%ADD24RoundRect,0.140000X0.170000X-0.140000X0.170000X0.140000X-0.170000X0.140000X-0.170000X-0.140000X0*%
%TD*%
%TA.AperFunction,ViaPad*%
%ADD25C,0.600000*%
%TD*%
%TA.AperFunction,ViaPad*%
%ADD26C,0.500000*%
%TD*%
%TA.AperFunction,Conductor*%
%ADD27C,0.500000*%
%TD*%
%TA.AperFunction,Conductor*%
%ADD28C,0.200000*%
%TD*%
%TA.AperFunction,Conductor*%
%ADD29C,0.300000*%
%TD*%
%TA.AperFunction,Conductor*%
%ADD30C,0.600000*%
%TD*%
G04 APERTURE END LIST*
D10*
%TO.P,D6,1,K*%
%TO.N,Net-(D14-K)*%
X88515000Y-84700000D03*
%TO.P,D6,2,A*%
%TO.N,Net-(D1-A)*%
X87545000Y-84700000D03*
%TD*%
%TO.P,D1,2,A*%
%TO.N,Net-(D1-A)*%
X87560000Y-90950000D03*
%TO.P,D1,1,K*%
%TO.N,Net-(D1-K)*%
X88530000Y-90950000D03*
%TD*%
%TO.P,D2,2,A*%
%TO.N,Net-(D1-A)*%
X87560000Y-89700000D03*
%TO.P,D2,1,K*%
%TO.N,Net-(D10-K)*%
X88530000Y-89700000D03*
%TD*%
%TO.P,D3,1,K*%
%TO.N,Net-(D11-K)*%
X88525000Y-88450000D03*
%TO.P,D3,2,A*%
%TO.N,Net-(D1-A)*%
X87555000Y-88450000D03*
%TD*%
%TO.P,D4,1,K*%
%TO.N,Net-(D12-K)*%
X88515000Y-87200000D03*
%TO.P,D4,2,A*%
%TO.N,Net-(D1-A)*%
X87545000Y-87200000D03*
%TD*%
%TO.P,D5,1,K*%
%TO.N,Net-(D13-K)*%
X88515000Y-85950000D03*
%TO.P,D5,2,A*%
%TO.N,Net-(D1-A)*%
X87545000Y-85950000D03*
%TD*%
%TO.P,D12,1,K*%
%TO.N,Net-(D12-K)*%
X86440000Y-87200000D03*
%TO.P,D12,2,A*%
%TO.N,Net-(D10-A)*%
X85470000Y-87200000D03*
%TD*%
%TO.P,D42,2,A*%
%TO.N,Net-(D41-A)*%
X77070000Y-89700000D03*
%TO.P,D42,1,K*%
%TO.N,Net-(D10-K)*%
X78040000Y-89700000D03*
%TD*%
%TO.P,D15,1,K*%
%TO.N,Net-(D15-K)*%
X86440000Y-83450000D03*
%TO.P,D15,2,A*%
%TO.N,Net-(D10-A)*%
X85470000Y-83450000D03*
%TD*%
%TO.P,D9,2,A*%
%TO.N,Net-(D10-A)*%
X85460000Y-90950000D03*
%TO.P,D9,1,K*%
%TO.N,Net-(D1-K)*%
X86430000Y-90950000D03*
%TD*%
%TO.P,D7,1,K*%
%TO.N,Net-(D15-K)*%
X88515000Y-83450000D03*
%TO.P,D7,2,A*%
%TO.N,Net-(D1-A)*%
X87545000Y-83450000D03*
%TD*%
%TO.P,D41,2,A*%
%TO.N,Net-(D41-A)*%
X77075000Y-90950000D03*
%TO.P,D41,1,K*%
%TO.N,Net-(D1-K)*%
X78045000Y-90950000D03*
%TD*%
%TO.P,D10,2,A*%
%TO.N,Net-(D10-A)*%
X85470000Y-89700000D03*
%TO.P,D10,1,K*%
%TO.N,Net-(D10-K)*%
X86440000Y-89700000D03*
%TD*%
%TO.P,D13,1,K*%
%TO.N,Net-(D13-K)*%
X86440000Y-85950000D03*
%TO.P,D13,2,A*%
%TO.N,Net-(D10-A)*%
X85470000Y-85950000D03*
%TD*%
%TO.P,D11,1,K*%
%TO.N,Net-(D11-K)*%
X86440000Y-88450000D03*
%TO.P,D11,2,A*%
%TO.N,Net-(D10-A)*%
X85470000Y-88450000D03*
%TD*%
%TO.P,D14,1,K*%
%TO.N,Net-(D14-K)*%
X86440000Y-84700000D03*
%TO.P,D14,2,A*%
%TO.N,Net-(D10-A)*%
X85470000Y-84700000D03*
%TD*%
%TO.P,D20,1,K*%
%TO.N,Net-(D12-K)*%
X84325000Y-87200000D03*
%TO.P,D20,2,A*%
%TO.N,Net-(D17-A)*%
X83355000Y-87200000D03*
%TD*%
%TO.P,D18,2,A*%
%TO.N,Net-(D17-A)*%
X83370000Y-89700000D03*
%TO.P,D18,1,K*%
%TO.N,Net-(D10-K)*%
X84340000Y-89700000D03*
%TD*%
%TO.P,D25,2,A*%
%TO.N,Net-(D25-A)*%
X81275000Y-90950000D03*
%TO.P,D25,1,K*%
%TO.N,Net-(D1-K)*%
X82245000Y-90950000D03*
%TD*%
%TO.P,D26,2,A*%
%TO.N,Net-(D25-A)*%
X81270000Y-89700000D03*
%TO.P,D26,1,K*%
%TO.N,Net-(D10-K)*%
X82240000Y-89700000D03*
%TD*%
%TO.P,D21,1,K*%
%TO.N,Net-(D13-K)*%
X84320000Y-85950000D03*
%TO.P,D21,2,A*%
%TO.N,Net-(D17-A)*%
X83350000Y-85950000D03*
%TD*%
%TO.P,D23,1,K*%
%TO.N,Net-(D15-K)*%
X84340000Y-83450000D03*
%TO.P,D23,2,A*%
%TO.N,Net-(D17-A)*%
X83370000Y-83450000D03*
%TD*%
%TO.P,D19,1,K*%
%TO.N,Net-(D11-K)*%
X84325000Y-88450000D03*
%TO.P,D19,2,A*%
%TO.N,Net-(D17-A)*%
X83355000Y-88450000D03*
%TD*%
%TO.P,D22,1,K*%
%TO.N,Net-(D14-K)*%
X84340000Y-84700000D03*
%TO.P,D22,2,A*%
%TO.N,Net-(D17-A)*%
X83370000Y-84700000D03*
%TD*%
%TO.P,D17,2,A*%
%TO.N,Net-(D17-A)*%
X83360000Y-90920000D03*
%TO.P,D17,1,K*%
%TO.N,Net-(D1-K)*%
X84330000Y-90920000D03*
%TD*%
%TO.P,D43,1,K*%
%TO.N,Net-(D11-K)*%
X78040000Y-88425000D03*
%TO.P,D43,2,A*%
%TO.N,Net-(D41-A)*%
X77070000Y-88425000D03*
%TD*%
%TO.P,D33,2,A*%
%TO.N,Net-(D33-A)*%
X79160000Y-90950000D03*
%TO.P,D33,1,K*%
%TO.N,Net-(D1-K)*%
X80130000Y-90950000D03*
%TD*%
%TO.P,D27,1,K*%
%TO.N,Net-(D11-K)*%
X82240000Y-88450000D03*
%TO.P,D27,2,A*%
%TO.N,Net-(D25-A)*%
X81270000Y-88450000D03*
%TD*%
%TO.P,D29,1,K*%
%TO.N,Net-(D13-K)*%
X82240000Y-85950000D03*
%TO.P,D29,2,A*%
%TO.N,Net-(D25-A)*%
X81270000Y-85950000D03*
%TD*%
%TO.P,D28,1,K*%
%TO.N,Net-(D12-K)*%
X82240000Y-87200000D03*
%TO.P,D28,2,A*%
%TO.N,Net-(D25-A)*%
X81270000Y-87200000D03*
%TD*%
%TO.P,D30,1,K*%
%TO.N,Net-(D14-K)*%
X82240000Y-84700000D03*
%TO.P,D30,2,A*%
%TO.N,Net-(D25-A)*%
X81270000Y-84700000D03*
%TD*%
%TO.P,D44,1,K*%
%TO.N,Net-(D12-K)*%
X78040000Y-87200000D03*
%TO.P,D44,2,A*%
%TO.N,Net-(D41-A)*%
X77070000Y-87200000D03*
%TD*%
%TO.P,D31,1,K*%
%TO.N,Net-(D15-K)*%
X82240000Y-83450000D03*
%TO.P,D31,2,A*%
%TO.N,Net-(D25-A)*%
X81270000Y-83450000D03*
%TD*%
%TO.P,D35,1,K*%
%TO.N,Net-(D11-K)*%
X80140000Y-88450000D03*
%TO.P,D35,2,A*%
%TO.N,Net-(D33-A)*%
X79170000Y-88450000D03*
%TD*%
%TO.P,D36,1,K*%
%TO.N,Net-(D12-K)*%
X80140000Y-87200000D03*
%TO.P,D36,2,A*%
%TO.N,Net-(D33-A)*%
X79170000Y-87200000D03*
%TD*%
%TO.P,D37,1,K*%
%TO.N,Net-(D13-K)*%
X80140000Y-85950000D03*
%TO.P,D37,2,A*%
%TO.N,Net-(D33-A)*%
X79170000Y-85950000D03*
%TD*%
%TO.P,D39,1,K*%
%TO.N,Net-(D15-K)*%
X80140000Y-83450000D03*
%TO.P,D39,2,A*%
%TO.N,Net-(D33-A)*%
X79170000Y-83450000D03*
%TD*%
%TO.P,D34,2,A*%
%TO.N,Net-(D33-A)*%
X79170000Y-89700000D03*
%TO.P,D34,1,K*%
%TO.N,Net-(D10-K)*%
X80140000Y-89700000D03*
%TD*%
%TO.P,D38,1,K*%
%TO.N,Net-(D14-K)*%
X80140000Y-84700000D03*
%TO.P,D38,2,A*%
%TO.N,Net-(D33-A)*%
X79170000Y-84700000D03*
%TD*%
%TO.P,D45,1,K*%
%TO.N,Net-(D13-K)*%
X78040000Y-85950000D03*
%TO.P,D45,2,A*%
%TO.N,Net-(D41-A)*%
X77070000Y-85950000D03*
%TD*%
%TO.P,D52,1,K*%
%TO.N,Net-(D12-K)*%
X75940000Y-87200000D03*
%TO.P,D52,2,A*%
%TO.N,Net-(D49-A)*%
X74970000Y-87200000D03*
%TD*%
%TO.P,D55,1,K*%
%TO.N,Net-(D15-K)*%
X75940000Y-83450000D03*
%TO.P,D55,2,A*%
%TO.N,Net-(D49-A)*%
X74970000Y-83450000D03*
%TD*%
%TO.P,D58,1,K*%
%TO.N,Net-(D10-K)*%
X73840000Y-89700000D03*
%TO.P,D58,2,A*%
%TO.N,Net-(D57-A)*%
X72870000Y-89700000D03*
%TD*%
%TO.P,D50,2,A*%
%TO.N,Net-(D49-A)*%
X74970000Y-89700000D03*
%TO.P,D50,1,K*%
%TO.N,Net-(D10-K)*%
X75940000Y-89700000D03*
%TD*%
%TO.P,D47,1,K*%
%TO.N,Net-(D15-K)*%
X78040000Y-83450000D03*
%TO.P,D47,2,A*%
%TO.N,Net-(D41-A)*%
X77070000Y-83450000D03*
%TD*%
%TO.P,D49,2,A*%
%TO.N,Net-(D49-A)*%
X74975000Y-90950000D03*
%TO.P,D49,1,K*%
%TO.N,Net-(D1-K)*%
X75945000Y-90950000D03*
%TD*%
%TO.P,D53,1,K*%
%TO.N,Net-(D13-K)*%
X75940000Y-85950000D03*
%TO.P,D53,2,A*%
%TO.N,Net-(D49-A)*%
X74970000Y-85950000D03*
%TD*%
%TO.P,D46,1,K*%
%TO.N,Net-(D14-K)*%
X78040000Y-84700000D03*
%TO.P,D46,2,A*%
%TO.N,Net-(D41-A)*%
X77070000Y-84700000D03*
%TD*%
%TO.P,D51,1,K*%
%TO.N,Net-(D11-K)*%
X75940000Y-88450000D03*
%TO.P,D51,2,A*%
%TO.N,Net-(D49-A)*%
X74970000Y-88450000D03*
%TD*%
%TO.P,D54,1,K*%
%TO.N,Net-(D14-K)*%
X75940000Y-84700000D03*
%TO.P,D54,2,A*%
%TO.N,Net-(D49-A)*%
X74970000Y-84700000D03*
%TD*%
%TO.P,D57,2,A*%
%TO.N,Net-(D57-A)*%
X72890000Y-90950000D03*
%TO.P,D57,1,K*%
%TO.N,Net-(D1-K)*%
X73860000Y-90950000D03*
%TD*%
%TO.P,D8,1,K*%
%TO.N,Net-(D16-K)*%
X88515000Y-82200000D03*
%TO.P,D8,2,A*%
%TO.N,Net-(D1-A)*%
X87545000Y-82200000D03*
%TD*%
%TO.P,D16,1,K*%
%TO.N,Net-(D16-K)*%
X86430000Y-82200000D03*
%TO.P,D16,2,A*%
%TO.N,Net-(D10-A)*%
X85460000Y-82200000D03*
%TD*%
%TO.P,D59,1,K*%
%TO.N,Net-(D11-K)*%
X73840000Y-88450000D03*
%TO.P,D59,2,A*%
%TO.N,Net-(D57-A)*%
X72870000Y-88450000D03*
%TD*%
%TO.P,D62,1,K*%
%TO.N,Net-(D14-K)*%
X73840000Y-84700000D03*
%TO.P,D62,2,A*%
%TO.N,Net-(D57-A)*%
X72870000Y-84700000D03*
%TD*%
%TO.P,D63,1,K*%
%TO.N,Net-(D15-K)*%
X73840000Y-83450000D03*
%TO.P,D63,2,A*%
%TO.N,Net-(D57-A)*%
X72870000Y-83450000D03*
%TD*%
%TO.P,D61,1,K*%
%TO.N,Net-(D13-K)*%
X73840000Y-85950000D03*
%TO.P,D61,2,A*%
%TO.N,Net-(D57-A)*%
X72870000Y-85950000D03*
%TD*%
%TO.P,D60,1,K*%
%TO.N,Net-(D12-K)*%
X73840000Y-87200000D03*
%TO.P,D60,2,A*%
%TO.N,Net-(D57-A)*%
X72870000Y-87200000D03*
%TD*%
%TO.P,D24,1,K*%
%TO.N,Net-(D16-K)*%
X84340000Y-82200000D03*
%TO.P,D24,2,A*%
%TO.N,Net-(D17-A)*%
X83370000Y-82200000D03*
%TD*%
%TO.P,D64,1,K*%
%TO.N,Net-(D16-K)*%
X73840000Y-82200000D03*
%TO.P,D64,2,A*%
%TO.N,Net-(D57-A)*%
X72870000Y-82200000D03*
%TD*%
%TO.P,D32,1,K*%
%TO.N,Net-(D16-K)*%
X82240000Y-82200000D03*
%TO.P,D32,2,A*%
%TO.N,Net-(D25-A)*%
X81270000Y-82200000D03*
%TD*%
%TO.P,D48,1,K*%
%TO.N,Net-(D16-K)*%
X78040000Y-82200000D03*
%TO.P,D48,2,A*%
%TO.N,Net-(D41-A)*%
X77070000Y-82200000D03*
%TD*%
%TO.P,D40,1,K*%
%TO.N,Net-(D16-K)*%
X80140000Y-82200000D03*
%TO.P,D40,2,A*%
%TO.N,Net-(D33-A)*%
X79170000Y-82200000D03*
%TD*%
%TO.P,D56,1,K*%
%TO.N,Net-(D16-K)*%
X75940000Y-82200000D03*
%TO.P,D56,2,A*%
%TO.N,Net-(D49-A)*%
X74970000Y-82200000D03*
%TD*%
D11*
%TO.P,D68,1,A1*%
%TO.N,NSRT*%
X80140000Y-103145000D03*
%TO.P,D68,2,A2*%
%TO.N,GND*%
X81140000Y-103145000D03*
%TD*%
D12*
%TO.P,R3,1*%
%TO.N,Net-(SW1-B)*%
X75105000Y-102825000D03*
%TO.P,R3,2*%
%TO.N,BOOT0*%
X75105000Y-101805000D03*
%TD*%
%TO.P,R4,1*%
%TO.N,GND*%
X74040000Y-102805000D03*
%TO.P,R4,2*%
%TO.N,BOOT0*%
X74040000Y-101785000D03*
%TD*%
D11*
%TO.P,D66,1,A1*%
%TO.N,BOOT0*%
X76080000Y-99395000D03*
%TO.P,D66,2,A2*%
%TO.N,GND*%
X77080000Y-99395000D03*
%TD*%
D13*
%TO.P,C9,1*%
%TO.N,+3V3*%
X77730000Y-97945000D03*
%TO.P,C9,2*%
%TO.N,GND*%
X78690000Y-97945000D03*
%TD*%
%TO.P,C18,1*%
%TO.N,BOOT0*%
X76190000Y-100460000D03*
%TO.P,C18,2*%
%TO.N,GND*%
X77150000Y-100460000D03*
%TD*%
%TO.P,C11,1*%
%TO.N,NSRT*%
X80160000Y-101410000D03*
%TO.P,C11,2*%
%TO.N,GND*%
X81120000Y-101410000D03*
%TD*%
D14*
%TO.P,C7,1*%
%TO.N,+3V3*%
X77080000Y-104385000D03*
%TO.P,C7,2*%
%TO.N,GND*%
X76120000Y-104385000D03*
%TD*%
D15*
%TO.P,C3,1*%
%TO.N,+3V3*%
X65525000Y-99360000D03*
%TO.P,C3,2*%
%TO.N,GND*%
X65525000Y-100320000D03*
%TD*%
%TO.P,C4,1*%
%TO.N,+3V3*%
X64505000Y-99360000D03*
%TO.P,C4,2*%
%TO.N,GND*%
X64505000Y-100320000D03*
%TD*%
D14*
%TO.P,C6,1*%
%TO.N,+3V3*%
X77150000Y-102420000D03*
%TO.P,C6,2*%
%TO.N,GND*%
X76190000Y-102420000D03*
%TD*%
D15*
%TO.P,C2,1*%
%TO.N,+3V3*%
X66545000Y-99355000D03*
%TO.P,C2,2*%
%TO.N,GND*%
X66545000Y-100315000D03*
%TD*%
D16*
%TO.P,J1,S1,SHIELD*%
%TO.N,GND*%
X55930000Y-114575000D03*
D17*
X55930000Y-110395000D03*
D16*
X64570000Y-114575000D03*
D17*
X64570000Y-110395000D03*
%TD*%
D18*
%TO.P,U6,1,I/O1*%
%TO.N,/D_1_C+*%
X61387500Y-101942500D03*
%TO.P,U6,2,GND*%
%TO.N,GND*%
X61387500Y-100992500D03*
%TO.P,U6,3,I/O2*%
%TO.N,unconnected-(U6-I{slash}O2-Pad3)*%
X61387500Y-100042500D03*
%TO.P,U6,4,I/O3*%
%TO.N,unconnected-(U6-I{slash}O3-Pad4)*%
X59112500Y-100042500D03*
%TO.P,U6,5,VBUS*%
%TO.N,+5V*%
X59112500Y-100992500D03*
%TO.P,U6,6,I/O4*%
%TO.N,/D_1_C-*%
X59112500Y-101942500D03*
%TD*%
D19*
%TO.P,Q16,1,B*%
%TO.N,/G_1*%
X56067500Y-85882500D03*
%TO.P,Q16,2,E*%
%TO.N,GND*%
X57967500Y-85882500D03*
%TO.P,Q16,3,C*%
%TO.N,Net-(D1-K)*%
X57017500Y-84007500D03*
%TD*%
%TO.P,Q14,1,B*%
%TO.N,/G_3*%
X59605000Y-85882500D03*
%TO.P,Q14,2,E*%
%TO.N,GND*%
X61505000Y-85882500D03*
%TO.P,Q14,3,C*%
%TO.N,Net-(D11-K)*%
X60555000Y-84007500D03*
%TD*%
%TO.P,Q12,1,B*%
%TO.N,/G_5*%
X63155000Y-85882500D03*
%TO.P,Q12,2,E*%
%TO.N,GND*%
X65055000Y-85882500D03*
%TO.P,Q12,3,C*%
%TO.N,Net-(D13-K)*%
X64105000Y-84007500D03*
%TD*%
%TO.P,Q10,1,B*%
%TO.N,/G_7*%
X66715000Y-85867500D03*
%TO.P,Q10,2,E*%
%TO.N,GND*%
X68615000Y-85867500D03*
%TO.P,Q10,3,C*%
%TO.N,Net-(D15-K)*%
X67665000Y-83992500D03*
%TD*%
D20*
%TO.P,Q7,1,B*%
%TO.N,/P_7*%
X86680000Y-104830000D03*
%TO.P,Q7,2,E*%
%TO.N,Net-(D49-A)*%
X86680000Y-106730000D03*
%TO.P,Q7,3,C*%
%TO.N,+3V3*%
X88555000Y-105780000D03*
%TD*%
%TO.P,Q5,1,B*%
%TO.N,/P_5*%
X86680000Y-101280000D03*
%TO.P,Q5,2,E*%
%TO.N,Net-(D33-A)*%
X86680000Y-103180000D03*
%TO.P,Q5,3,C*%
%TO.N,+3V3*%
X88555000Y-102230000D03*
%TD*%
%TO.P,Q3,1,B*%
%TO.N,/P_3*%
X86680000Y-97692500D03*
%TO.P,Q3,2,E*%
%TO.N,Net-(D17-A)*%
X86680000Y-99592500D03*
%TO.P,Q3,3,C*%
%TO.N,+3V3*%
X88555000Y-98642500D03*
%TD*%
%TO.P,Q1,1,B*%
%TO.N,/P_1*%
X86692500Y-94117500D03*
%TO.P,Q1,2,E*%
%TO.N,Net-(D1-A)*%
X86692500Y-96017500D03*
%TO.P,Q1,3,C*%
%TO.N,+3V3*%
X88567500Y-95067500D03*
%TD*%
D21*
%TO.P,FB1,1*%
%TO.N,Net-(D65-A)*%
X61110000Y-106635500D03*
%TO.P,FB1,2*%
%TO.N,Net-(F1-Pad1)*%
X61110000Y-104984500D03*
%TD*%
D22*
%TO.P,F1,1*%
%TO.N,Net-(F1-Pad1)*%
X59130000Y-105005000D03*
%TO.P,F1,2*%
%TO.N,Net-(F1-Pad2)*%
X59130000Y-106575000D03*
%TD*%
D23*
%TO.P,D65,1,K*%
%TO.N,+5V*%
X66180000Y-105860000D03*
%TO.P,D65,2,A*%
%TO.N,Net-(D65-A)*%
X62880000Y-105860000D03*
%TD*%
D24*
%TO.P,C41,1*%
%TO.N,+5V*%
X57425000Y-100990000D03*
%TO.P,C41,2*%
%TO.N,GND*%
X57425000Y-100030000D03*
%TD*%
%TO.P,C23,1*%
%TO.N,+3V3*%
X67980000Y-112100000D03*
%TO.P,C23,2*%
%TO.N,GND*%
X67980000Y-111140000D03*
%TD*%
%TO.P,C22,1*%
%TO.N,+5V*%
X67930000Y-109780000D03*
%TO.P,C22,2*%
%TO.N,GND*%
X67930000Y-108820000D03*
%TD*%
%TO.P,C10,1*%
%TO.N,GND*%
X62915000Y-101280000D03*
%TO.P,C10,2*%
%TO.N,+3V3*%
X62915000Y-100320000D03*
%TD*%
D25*
%TO.N,GND*%
X73575000Y-103875000D03*
X57425000Y-96675000D03*
X66085000Y-101225000D03*
X68080000Y-101200000D03*
X66965000Y-101245000D03*
X65135000Y-101240000D03*
X56070000Y-83405000D03*
X59605000Y-83365000D03*
X63160000Y-83380000D03*
X70015000Y-84745000D03*
X66710000Y-83400000D03*
%TO.N,Net-(D14-K)*%
X65720000Y-84155000D03*
%TO.N,Net-(D13-K)*%
X64105000Y-85405000D03*
%TO.N,Net-(D11-K)*%
X60205000Y-87315000D03*
%TO.N,Net-(D12-K)*%
X60705000Y-86035000D03*
D26*
%TO.N,Net-(D10-K)*%
X57346000Y-87830000D03*
%TO.N,Net-(D1-K)*%
X56720000Y-87815000D03*
D25*
%TO.N,Net-(D13-K)*%
X71995000Y-85410000D03*
%TO.N,Net-(D11-K)*%
X71970000Y-87900000D03*
%TO.N,Net-(D1-K)*%
X71945000Y-90399000D03*
%TO.N,Net-(D16-K)*%
X71945000Y-81665000D03*
%TO.N,Net-(D14-K)*%
X71955000Y-84160000D03*
%TO.N,Net-(D12-K)*%
X71990000Y-86655000D03*
%TO.N,Net-(D10-K)*%
X71950000Y-89150000D03*
X71950000Y-89150000D03*
%TO.N,GND*%
X80235000Y-104375000D03*
X76925000Y-96325000D03*
X78700000Y-96400000D03*
%TO.N,Net-(D17-A)*%
X87800000Y-92450000D03*
%TO.N,Net-(D33-A)*%
X86875000Y-92950000D03*
%TO.N,Net-(D49-A)*%
X86225000Y-93400000D03*
X88625000Y-106730000D03*
%TO.N,Net-(D33-A)*%
X88840000Y-103175000D03*
%TO.N,Net-(D17-A)*%
X89050000Y-99580000D03*
%TO.N,Net-(D1-A)*%
X89025000Y-96625000D03*
X87560000Y-90950000D03*
X88435463Y-91884537D03*
%TO.N,+3V3*%
X86095000Y-95065000D03*
X86330000Y-105790000D03*
X86040000Y-102230000D03*
X86330000Y-98640000D03*
X69190000Y-107785000D03*
%TO.N,/P_8*%
X85536000Y-106735000D03*
%TO.N,/P_6*%
X85542500Y-103176061D03*
%TO.N,/P_4*%
X85542500Y-99587904D03*
%TO.N,/P_2*%
X85555000Y-96020000D03*
%TO.N,/G_2*%
X57964243Y-87020000D03*
%TO.N,/G_4*%
X61510000Y-87020000D03*
%TO.N,/G_6*%
X65060216Y-87020000D03*
%TO.N,/G_8*%
X68614176Y-87005000D03*
%TO.N,/G_1*%
X67390000Y-97475000D03*
%TO.N,/G_2*%
X68060000Y-96815000D03*
%TO.N,/G_4*%
X67964495Y-105938125D03*
%TO.N,/G_3*%
X67360000Y-105360000D03*
%TO.N,/G_5*%
X68403666Y-104919996D03*
%TO.N,/G_6*%
X68810000Y-104350000D03*
%TO.N,+3V3*%
X67570000Y-99360000D03*
%TO.N,/G_7*%
X70085000Y-97655000D03*
%TO.N,/G_8*%
X70471314Y-98800341D03*
%TO.N,Net-(D57-A)*%
X72870000Y-82200000D03*
X72870000Y-85950000D03*
X72890000Y-90950000D03*
X72870000Y-88450000D03*
X72870000Y-87200000D03*
X72870000Y-83450000D03*
X72870000Y-84700000D03*
X72870000Y-89700000D03*
%TO.N,Net-(D49-A)*%
X74970000Y-88450000D03*
X74975000Y-90950000D03*
X74970000Y-89700000D03*
X74970000Y-85950000D03*
X74970000Y-87200000D03*
X74970000Y-83450000D03*
%TO.N,Net-(D41-A)*%
X77075000Y-90950000D03*
%TO.N,Net-(D49-A)*%
X74970000Y-84700000D03*
%TO.N,Net-(D41-A)*%
X77070000Y-89700000D03*
%TO.N,Net-(D49-A)*%
X74970000Y-82200000D03*
%TO.N,Net-(D41-A)*%
X77070000Y-83450000D03*
X77070000Y-82200000D03*
%TO.N,Net-(D25-A)*%
X81270000Y-84700000D03*
%TO.N,Net-(D41-A)*%
X77070000Y-85950000D03*
%TO.N,Net-(D17-A)*%
X83355000Y-87200000D03*
X83370000Y-84700000D03*
%TO.N,Net-(D33-A)*%
X79170000Y-82200000D03*
%TO.N,Net-(D10-A)*%
X85470000Y-85950000D03*
%TO.N,Net-(D33-A)*%
X79170000Y-84700000D03*
%TO.N,Net-(D17-A)*%
X83370000Y-83450000D03*
%TO.N,Net-(D33-A)*%
X79170000Y-88450000D03*
%TO.N,Net-(D10-A)*%
X85470000Y-84700000D03*
%TO.N,Net-(D25-A)*%
X81270000Y-82200000D03*
%TO.N,Net-(D41-A)*%
X77070000Y-87200000D03*
X77070000Y-88425000D03*
%TO.N,Net-(D25-A)*%
X81270000Y-85950000D03*
%TO.N,Net-(D41-A)*%
X77070000Y-89700000D03*
X77070000Y-84700000D03*
%TO.N,Net-(D25-A)*%
X81270000Y-89700000D03*
X81275000Y-90950000D03*
%TO.N,Net-(D33-A)*%
X79170000Y-87200000D03*
%TO.N,Net-(D25-A)*%
X81270000Y-88450000D03*
%TO.N,Net-(D17-A)*%
X83370000Y-89700000D03*
%TO.N,Net-(D25-A)*%
X81270000Y-83450000D03*
%TO.N,Net-(D17-A)*%
X83355000Y-88450000D03*
%TO.N,Net-(D33-A)*%
X79160000Y-90950000D03*
X79170000Y-89700000D03*
X79170000Y-85950000D03*
X79170000Y-83450000D03*
%TO.N,Net-(D25-A)*%
X81270000Y-87200000D03*
%TO.N,Net-(D17-A)*%
X83360000Y-90920000D03*
X83350000Y-85950000D03*
X83370000Y-82200000D03*
%TO.N,Net-(D10-A)*%
X85460000Y-82200000D03*
X85470000Y-87200000D03*
X85470000Y-88450000D03*
X85470000Y-89700000D03*
X85460000Y-90950000D03*
%TO.N,Net-(D1-A)*%
X87555000Y-88450000D03*
X87545000Y-87200000D03*
X87545000Y-82200000D03*
X87545000Y-83450000D03*
%TO.N,Net-(D10-A)*%
X85470000Y-83450000D03*
%TO.N,Net-(D1-A)*%
X87545000Y-85950000D03*
X87560000Y-89700000D03*
X87545000Y-84700000D03*
%TO.N,/P_8*%
X74590000Y-99205000D03*
X74590000Y-99200000D03*
%TO.N,BOOT0*%
X75085000Y-99975000D03*
%TO.N,/P_7*%
X74095000Y-100095000D03*
%TO.N,/P_6*%
X73590000Y-100790000D03*
%TO.N,/P_5*%
X73090000Y-101575000D03*
%TO.N,/P_4*%
X72600000Y-102295000D03*
%TO.N,/P_3*%
X71630000Y-108285000D03*
%TO.N,/P_2*%
X72130000Y-108970000D03*
%TO.N,/P_1*%
X72673595Y-109411030D03*
%TO.N,+3V3*%
X64505000Y-96690000D03*
%TO.N,GND*%
X72100000Y-107650000D03*
X76120000Y-103465000D03*
X76185000Y-101525000D03*
X77150000Y-101565000D03*
X68255000Y-106575000D03*
%TO.N,+3V3*%
X78420000Y-113505000D03*
%TO.N,GND*%
X80400000Y-112850000D03*
X83925000Y-114725000D03*
X81130000Y-104365000D03*
X81485000Y-100310000D03*
%TO.N,NSRT*%
X80510000Y-102395000D03*
%TO.N,+3V3*%
X80535000Y-97605000D03*
%TO.N,GND*%
X82407858Y-102339328D03*
%TO.N,+3V3*%
X77730000Y-97945000D03*
%TO.N,Net-(SW1-B)*%
X78425000Y-108091000D03*
%TO.N,+3V3*%
X77300000Y-103355000D03*
%TO.N,GND*%
X62915000Y-101280000D03*
%TO.N,+3V3*%
X62915000Y-100320000D03*
%TO.N,GND*%
X66100000Y-111140000D03*
X66130000Y-114430000D03*
%TO.N,+3V3*%
X66110000Y-112120000D03*
X67980000Y-112100000D03*
%TO.N,+5V*%
X69385000Y-109780000D03*
%TO.N,GND*%
X55205000Y-104395000D03*
%TO.N,+3V3*%
X56165000Y-105715000D03*
%TO.N,GND*%
X65965000Y-96710000D03*
X67930000Y-107835000D03*
X60245000Y-99550000D03*
X55480000Y-98790000D03*
%TO.N,/D_1_C-*%
X59112500Y-101942500D03*
%TO.N,/D_1_C+*%
X61387500Y-101942500D03*
%TO.N,GND*%
X57050000Y-107670000D03*
X63450000Y-107620000D03*
%TO.N,Net-(F1-Pad2)*%
X57850000Y-107590000D03*
X62640000Y-107610000D03*
%TO.N,GND*%
X58500000Y-103760000D03*
X61500000Y-103760000D03*
%TD*%
D27*
%TO.N,Net-(D1-A)*%
X89025000Y-96625000D02*
X88417500Y-96017500D01*
X88417500Y-96017500D02*
X86692500Y-96017500D01*
D28*
%TO.N,GND*%
X74040000Y-103410000D02*
X73575000Y-103875000D01*
X74040000Y-102805000D02*
X74040000Y-103410000D01*
X57425000Y-100030000D02*
X57425000Y-96675000D01*
D27*
%TO.N,Net-(D49-A)*%
X86680000Y-106730000D02*
X88625000Y-106730000D01*
X74975000Y-91010000D02*
X74975000Y-90950000D01*
X76962000Y-92997000D02*
X74975000Y-91010000D01*
X86225000Y-93400000D02*
X85822000Y-92997000D01*
X85822000Y-92997000D02*
X76962000Y-92997000D01*
%TO.N,Net-(D33-A)*%
X79160000Y-91269999D02*
X79160000Y-90950000D01*
X86321000Y-92396000D02*
X80286001Y-92396000D01*
X80286001Y-92396000D02*
X79160000Y-91269999D01*
X86875000Y-92950000D02*
X86321000Y-92396000D01*
%TO.N,Net-(D17-A)*%
X84175926Y-91795000D02*
X83360000Y-90979074D01*
X87120000Y-91795000D02*
X84175926Y-91795000D01*
X87775000Y-92450000D02*
X87120000Y-91795000D01*
X83360000Y-90979074D02*
X83360000Y-90920000D01*
X87800000Y-92450000D02*
X87775000Y-92450000D01*
D28*
%TO.N,Net-(D15-K)*%
X67665000Y-83140000D02*
X67665000Y-83992500D01*
X67895000Y-82910000D02*
X67665000Y-83140000D01*
X73580000Y-82910000D02*
X67895000Y-82910000D01*
%TO.N,GND*%
X65355000Y-83400000D02*
X66710000Y-83400000D01*
X65055000Y-83700000D02*
X65355000Y-83400000D01*
X65055000Y-85882500D02*
X65055000Y-83700000D01*
X65525000Y-100665000D02*
X66085000Y-101225000D01*
X65525000Y-100320000D02*
X65525000Y-100665000D01*
X66545000Y-100825000D02*
X66965000Y-101245000D01*
X66545000Y-100315000D02*
X66545000Y-100825000D01*
X64505000Y-100610000D02*
X65135000Y-101240000D01*
X64505000Y-100320000D02*
X64505000Y-100610000D01*
X58185000Y-83365000D02*
X59605000Y-83365000D01*
X57967500Y-83582500D02*
X58185000Y-83365000D01*
X57967500Y-85882500D02*
X57967500Y-83582500D01*
X61750000Y-83380000D02*
X63160000Y-83380000D01*
X61505000Y-83625000D02*
X61750000Y-83380000D01*
X61505000Y-85882500D02*
X61505000Y-83625000D01*
X68795000Y-84850000D02*
X68900000Y-84745000D01*
X68615000Y-85030000D02*
X68795000Y-84850000D01*
X68900000Y-84745000D02*
X70015000Y-84745000D01*
X68615000Y-85867500D02*
X68615000Y-85030000D01*
%TO.N,Net-(D13-K)*%
X64105000Y-85405000D02*
X64105000Y-84007500D01*
%TO.N,Net-(D11-K)*%
X60205000Y-85315000D02*
X60555000Y-84965000D01*
X60555000Y-84965000D02*
X60555000Y-84007500D01*
X60205000Y-87315000D02*
X60205000Y-85315000D01*
%TO.N,Net-(D1-K)*%
X56720000Y-86220000D02*
X57017500Y-85922500D01*
X57017500Y-85922500D02*
X57017500Y-84007500D01*
X56720000Y-87815000D02*
X56720000Y-86220000D01*
%TO.N,Net-(D16-K)*%
X71945000Y-81665000D02*
X73505000Y-81665000D01*
%TO.N,Net-(D13-K)*%
X73550000Y-85410000D02*
X71995000Y-85410000D01*
X71995000Y-85410000D02*
X71776356Y-85410000D01*
%TO.N,Net-(D1-K)*%
X73620000Y-90399000D02*
X71945000Y-90399000D01*
%TO.N,Net-(D14-K)*%
X71955000Y-84160000D02*
X71803390Y-84160000D01*
%TO.N,Net-(D11-K)*%
X73470000Y-87900000D02*
X71970000Y-87900000D01*
%TO.N,Net-(D14-K)*%
X73540000Y-84160000D02*
X71955000Y-84160000D01*
%TO.N,Net-(D12-K)*%
X73470000Y-86655000D02*
X71990000Y-86655000D01*
%TO.N,Net-(D10-K)*%
X73470000Y-89150000D02*
X71950000Y-89150000D01*
D27*
%TO.N,GND*%
X78690000Y-96410000D02*
X78700000Y-96400000D01*
X78690000Y-97945000D02*
X78690000Y-96410000D01*
%TO.N,+3V3*%
X86340000Y-105780000D02*
X86330000Y-105790000D01*
X88555000Y-105780000D02*
X86340000Y-105780000D01*
X88555000Y-102230000D02*
X86040000Y-102230000D01*
%TO.N,Net-(D33-A)*%
X88835000Y-103180000D02*
X88840000Y-103175000D01*
X86680000Y-103180000D02*
X88835000Y-103180000D01*
%TO.N,Net-(D17-A)*%
X88452500Y-99592500D02*
X86680000Y-99592500D01*
X88465000Y-99580000D02*
X88452500Y-99592500D01*
X89050000Y-99580000D02*
X88465000Y-99580000D01*
%TO.N,+3V3*%
X86330000Y-98640000D02*
X86332500Y-98642500D01*
X86332500Y-98642500D02*
X88555000Y-98642500D01*
X86855000Y-95065000D02*
X86857500Y-95067500D01*
X86095000Y-95065000D02*
X86855000Y-95065000D01*
X86857500Y-95067500D02*
X88567500Y-95067500D01*
D28*
%TO.N,/P_8*%
X70765000Y-99205000D02*
X74590000Y-99205000D01*
X69886000Y-100084000D02*
X70765000Y-99205000D01*
X71825322Y-112226000D02*
X69886000Y-110286678D01*
X82293746Y-112226000D02*
X71825322Y-112226000D01*
X85015858Y-109503888D02*
X82293746Y-112226000D01*
X85015858Y-107255142D02*
X85015858Y-109503888D01*
X85536000Y-106735000D02*
X85015858Y-107255142D01*
X69886000Y-110286678D02*
X69886000Y-100084000D01*
%TO.N,/P_7*%
X85405000Y-104830000D02*
X86680000Y-104830000D01*
X84714858Y-105520142D02*
X85405000Y-104830000D01*
X84714858Y-109379210D02*
X84714858Y-105520142D01*
X71962000Y-111913000D02*
X82181068Y-111913000D01*
X70187000Y-110162000D02*
X71950000Y-111925000D01*
X70187000Y-101072322D02*
X70187000Y-110162000D01*
X71164322Y-100095000D02*
X70187000Y-101072322D01*
X71950000Y-111925000D02*
X71962000Y-111913000D01*
X82181068Y-111913000D02*
X84714858Y-109379210D01*
X74095000Y-100095000D02*
X71164322Y-100095000D01*
%TO.N,/P_6*%
X71315000Y-100790000D02*
X73590000Y-100790000D01*
X70488000Y-101617000D02*
X71315000Y-100790000D01*
X70488000Y-110028000D02*
X70488000Y-101617000D01*
X72093644Y-111600000D02*
X72060000Y-111600000D01*
X82056390Y-111612000D02*
X72105644Y-111612000D01*
X84413858Y-109254532D02*
X82056390Y-111612000D01*
X72105644Y-111612000D02*
X72093644Y-111600000D01*
X84413858Y-103881142D02*
X84413858Y-109254532D01*
X85542500Y-103176061D02*
X85118939Y-103176061D01*
X85118939Y-103176061D02*
X84413858Y-103881142D01*
X72060000Y-111600000D02*
X70488000Y-110028000D01*
%TO.N,/P_5*%
X84830000Y-101280000D02*
X86680000Y-101280000D01*
X84112858Y-109129854D02*
X84112858Y-101997142D01*
X81931712Y-111311000D02*
X84112858Y-109129854D01*
X84112858Y-101997142D02*
X84830000Y-101280000D01*
X70789000Y-109869678D02*
X72230322Y-111311000D01*
X70789000Y-102316000D02*
X70789000Y-109869678D01*
X71530000Y-101575000D02*
X70789000Y-102316000D01*
X72230322Y-111311000D02*
X81931712Y-111311000D01*
X73090000Y-101575000D02*
X71530000Y-101575000D01*
%TO.N,/P_4*%
X83811858Y-100218142D02*
X84442096Y-99587904D01*
X83811858Y-109005176D02*
X83811858Y-100218142D01*
X81807034Y-111010000D02*
X83811858Y-109005176D01*
X84442096Y-99587904D02*
X85542500Y-99587904D01*
X72355000Y-111010000D02*
X81807034Y-111010000D01*
X71130000Y-109785000D02*
X72355000Y-111010000D01*
X71129000Y-108492521D02*
X71130000Y-108493521D01*
X71130000Y-102920000D02*
X71130000Y-108076479D01*
X71755000Y-102295000D02*
X71130000Y-102920000D01*
X71130000Y-108493521D02*
X71130000Y-109785000D01*
X72600000Y-102295000D02*
X71755000Y-102295000D01*
X71130000Y-108076479D02*
X71129000Y-108077479D01*
X71129000Y-108077479D02*
X71129000Y-108492521D01*
%TO.N,/P_3*%
X84192500Y-97692500D02*
X86680000Y-97692500D01*
X83510858Y-98374142D02*
X84192500Y-97692500D01*
X83510858Y-108880498D02*
X83510858Y-98374142D01*
X72479678Y-110709000D02*
X81682356Y-110709000D01*
X71630000Y-109859322D02*
X72479678Y-110709000D01*
X71630000Y-109178521D02*
X71630000Y-109859322D01*
X71629000Y-109177521D02*
X71630000Y-109178521D01*
X71630000Y-108761479D02*
X71629000Y-108762479D01*
X71629000Y-108762479D02*
X71629000Y-109177521D01*
X71630000Y-108285000D02*
X71630000Y-108761479D01*
X81682356Y-110709000D02*
X83510858Y-108880498D01*
%TO.N,/P_2*%
X72080000Y-109020000D02*
X72130000Y-108970000D01*
X72604356Y-110408000D02*
X72080000Y-109883644D01*
X81557678Y-110408000D02*
X72604356Y-110408000D01*
X83209858Y-96780142D02*
X83209858Y-108755820D01*
X72080000Y-109883644D02*
X72080000Y-109020000D01*
X83970000Y-96020000D02*
X83209858Y-96780142D01*
X85555000Y-96020000D02*
X83970000Y-96020000D01*
X83209858Y-108755820D02*
X81557678Y-110408000D01*
%TO.N,/P_1*%
X82908858Y-94866142D02*
X83657500Y-94117500D01*
X82908858Y-108631142D02*
X82908858Y-94866142D01*
X83657500Y-94117500D02*
X86692500Y-94117500D01*
X81433000Y-110107000D02*
X82908858Y-108631142D01*
X72673595Y-110051561D02*
X72729034Y-110107000D01*
X72729034Y-110107000D02*
X81433000Y-110107000D01*
X72673595Y-109411030D02*
X72673595Y-110051561D01*
%TO.N,/G_3*%
X59605000Y-88565000D02*
X59605000Y-85882500D01*
X60019000Y-88979000D02*
X59605000Y-88565000D01*
X67540356Y-88979000D02*
X60019000Y-88979000D01*
X68682000Y-90120644D02*
X67540356Y-88979000D01*
X68682000Y-97072445D02*
X68682000Y-90120644D01*
X68681000Y-97073445D02*
X68682000Y-97072445D01*
X68682000Y-98237555D02*
X68681000Y-98236555D01*
X68681000Y-98236555D02*
X68681000Y-97073445D01*
X68682000Y-102918123D02*
X68682000Y-98237555D01*
X67360000Y-105360000D02*
X67360000Y-104240123D01*
X67360000Y-104240123D02*
X68682000Y-102918123D01*
%TO.N,/G_8*%
X70586000Y-97094644D02*
X70586000Y-98685655D01*
X70187000Y-96695644D02*
X70586000Y-97094644D01*
X68614176Y-87924430D02*
X70187000Y-89497254D01*
X70187000Y-89497254D02*
X70187000Y-96695644D01*
X70586000Y-98685655D02*
X70471314Y-98800341D01*
X68614176Y-87005000D02*
X68614176Y-87924430D01*
%TO.N,/G_7*%
X66715000Y-87520000D02*
X66715000Y-85867500D01*
X66970000Y-87775000D02*
X66715000Y-87520000D01*
X70070000Y-97004322D02*
X69886000Y-96820322D01*
X68039068Y-87775000D02*
X66970000Y-87775000D01*
X70085000Y-97655000D02*
X70070000Y-97640000D01*
X70070000Y-97640000D02*
X70070000Y-97004322D01*
X69886000Y-96820322D02*
X69886000Y-89621932D01*
X69886000Y-89621932D02*
X68039068Y-87775000D01*
%TO.N,/G_6*%
X69585000Y-103575000D02*
X68810000Y-104350000D01*
X69585000Y-97863521D02*
X69585000Y-103575000D01*
X69584000Y-97862521D02*
X69585000Y-97863521D01*
X69584000Y-97447479D02*
X69584000Y-97862521D01*
X67914390Y-88076000D02*
X69585000Y-89746610D01*
X65341000Y-88076000D02*
X67914390Y-88076000D01*
X65060000Y-87795000D02*
X65341000Y-88076000D01*
X69585000Y-89746610D02*
X69585000Y-97446479D01*
X69585000Y-97446479D02*
X69584000Y-97447479D01*
X65060000Y-87020216D02*
X65060000Y-87795000D01*
X65060216Y-87020000D02*
X65060000Y-87020216D01*
%TO.N,/G_5*%
X63155000Y-88085000D02*
X63155000Y-85882500D01*
X63447000Y-88377000D02*
X63155000Y-88085000D01*
X67789712Y-88377000D02*
X63447000Y-88377000D01*
X69284000Y-89871288D02*
X67789712Y-88377000D01*
X69283000Y-97322801D02*
X69284000Y-97321801D01*
X69283000Y-97987199D02*
X69283000Y-97322801D01*
X69284000Y-97988199D02*
X69283000Y-97987199D01*
X68309000Y-104825330D02*
X68309000Y-104142479D01*
X68309000Y-104142479D02*
X69284000Y-103167479D01*
X68403666Y-104919996D02*
X68309000Y-104825330D01*
X69284000Y-103167479D02*
X69284000Y-97988199D01*
X69284000Y-97321801D02*
X69284000Y-89871288D01*
%TO.N,/G_4*%
X67902666Y-105876296D02*
X67964495Y-105938125D01*
X67902666Y-104123135D02*
X67902666Y-105876296D01*
X68983000Y-103042801D02*
X67902666Y-104123135D01*
X68983000Y-98112877D02*
X68983000Y-103042801D01*
X68983000Y-97197123D02*
X68982000Y-97198123D01*
X68983000Y-89995966D02*
X68983000Y-97197123D01*
X62003000Y-88678000D02*
X67665034Y-88678000D01*
X67665034Y-88678000D02*
X68983000Y-89995966D01*
X61510000Y-88185000D02*
X62003000Y-88678000D01*
X68982000Y-98111877D02*
X68983000Y-98112877D01*
X61510000Y-87020000D02*
X61510000Y-88185000D01*
X68982000Y-97198123D02*
X68982000Y-98111877D01*
%TO.N,/G_2*%
X68381000Y-96211157D02*
X67918579Y-96673579D01*
X68381000Y-90245322D02*
X68381000Y-96211157D01*
X67415678Y-89280000D02*
X68381000Y-90245322D01*
X58270000Y-89280000D02*
X67415678Y-89280000D01*
X57985000Y-88995000D02*
X58270000Y-89280000D01*
X67918579Y-96673579D02*
X68060000Y-96815000D01*
%TO.N,/G_1*%
X56067500Y-89207500D02*
X56067500Y-85882500D01*
X56441000Y-89581000D02*
X56067500Y-89207500D01*
X67291000Y-89581000D02*
X56441000Y-89581000D01*
X68080000Y-90370000D02*
X67291000Y-89581000D01*
X68080000Y-96086479D02*
X68080000Y-90370000D01*
X67390000Y-96776479D02*
X68080000Y-96086479D01*
X67390000Y-97475000D02*
X67390000Y-96776479D01*
%TO.N,/G_2*%
X57964243Y-87020000D02*
X57964243Y-88974243D01*
%TO.N,/G_3*%
X67360000Y-105360000D02*
X67498872Y-105221128D01*
%TO.N,+3V3*%
X67565000Y-99355000D02*
X67570000Y-99360000D01*
X66545000Y-99355000D02*
X67565000Y-99355000D01*
%TO.N,Net-(D11-K)*%
X80140000Y-88450000D02*
X80140000Y-88220000D01*
X84325000Y-88450000D02*
X84325000Y-88255000D01*
%TO.N,Net-(D10-K)*%
X73840000Y-89520000D02*
X73470000Y-89150000D01*
%TO.N,Net-(D11-K)*%
X78040000Y-88195000D02*
X77745000Y-87900000D01*
X73840000Y-88450000D02*
X73840000Y-88270000D01*
X75940000Y-88145000D02*
X75695000Y-87900000D01*
X83970000Y-87900000D02*
X86120000Y-87900000D01*
X86120000Y-87900000D02*
X87975000Y-87900000D01*
X86440000Y-88220000D02*
X86120000Y-87900000D01*
X86440000Y-88450000D02*
X86440000Y-88220000D01*
X75695000Y-87900000D02*
X77745000Y-87900000D01*
X80140000Y-88220000D02*
X79820000Y-87900000D01*
%TO.N,Net-(D10-K)*%
X73840000Y-89700000D02*
X73840000Y-89520000D01*
%TO.N,Net-(D11-K)*%
X73470000Y-87900000D02*
X75695000Y-87900000D01*
X84325000Y-88255000D02*
X83970000Y-87900000D01*
X73840000Y-88270000D02*
X73470000Y-87900000D01*
X82240000Y-88170000D02*
X81970000Y-87900000D01*
X75940000Y-88450000D02*
X75940000Y-88145000D01*
X81970000Y-87900000D02*
X83970000Y-87900000D01*
X82240000Y-88450000D02*
X82240000Y-88170000D01*
%TO.N,Net-(D10-K)*%
X73470000Y-89150000D02*
X75620000Y-89150000D01*
%TO.N,Net-(D11-K)*%
X78040000Y-88425000D02*
X78040000Y-88195000D01*
X77745000Y-87900000D02*
X79820000Y-87900000D01*
X79820000Y-87900000D02*
X81970000Y-87900000D01*
%TO.N,Net-(D12-K)*%
X73470000Y-86655000D02*
X75720000Y-86655000D01*
X75940000Y-87200000D02*
X75940000Y-86875000D01*
X75720000Y-86655000D02*
X77720000Y-86655000D01*
X87970000Y-86655000D02*
X88515000Y-87200000D01*
X73840000Y-87025000D02*
X73470000Y-86655000D01*
X77720000Y-86655000D02*
X79970000Y-86655000D01*
X78040000Y-86975000D02*
X77720000Y-86655000D01*
X73840000Y-87200000D02*
X73840000Y-87025000D01*
X75940000Y-86875000D02*
X75720000Y-86655000D01*
X78040000Y-87200000D02*
X78040000Y-86975000D01*
%TO.N,Net-(D13-K)*%
X82240000Y-85950000D02*
X82240000Y-85700000D01*
X78040000Y-85670000D02*
X77780000Y-85410000D01*
X86440000Y-85750000D02*
X86100000Y-85410000D01*
X73840000Y-85950000D02*
X73840000Y-85700000D01*
X75940000Y-85710000D02*
X75640000Y-85410000D01*
X78040000Y-85950000D02*
X78040000Y-85670000D01*
X80140000Y-85730000D02*
X79820000Y-85410000D01*
X80140000Y-85950000D02*
X80140000Y-85730000D01*
X82240000Y-85700000D02*
X81950000Y-85410000D01*
X73840000Y-85700000D02*
X73550000Y-85410000D01*
X77780000Y-85410000D02*
X79820000Y-85410000D01*
X75940000Y-85950000D02*
X75940000Y-85710000D01*
X75640000Y-85410000D02*
X77780000Y-85410000D01*
X79820000Y-85410000D02*
X81950000Y-85410000D01*
X81950000Y-85410000D02*
X83980000Y-85410000D01*
X86440000Y-85950000D02*
X86440000Y-85750000D01*
X73550000Y-85410000D02*
X75640000Y-85410000D01*
X84320000Y-85750000D02*
X83980000Y-85410000D01*
X83980000Y-85410000D02*
X86100000Y-85410000D01*
X87975000Y-85410000D02*
X88515000Y-85950000D01*
X84320000Y-85950000D02*
X84320000Y-85750000D01*
X86100000Y-85410000D02*
X87975000Y-85410000D01*
%TO.N,Net-(D15-K)*%
X87975000Y-82910000D02*
X86100000Y-82910000D01*
%TO.N,Net-(D14-K)*%
X87975000Y-84160000D02*
X86160000Y-84160000D01*
X88515000Y-84700000D02*
X87975000Y-84160000D01*
%TO.N,Net-(D15-K)*%
X88515000Y-83450000D02*
X87975000Y-82910000D01*
X86440000Y-83450000D02*
X86440000Y-83250000D01*
X86100000Y-82910000D02*
X84040000Y-82910000D01*
X86440000Y-83250000D02*
X86100000Y-82910000D01*
%TO.N,Net-(D14-K)*%
X73840000Y-84460000D02*
X73540000Y-84160000D01*
X73840000Y-84700000D02*
X73840000Y-84460000D01*
%TO.N,Net-(D10-K)*%
X87980000Y-89150000D02*
X88530000Y-89700000D01*
%TO.N,Net-(D11-K)*%
X87975000Y-87900000D02*
X88525000Y-88450000D01*
%TO.N,Net-(D15-K)*%
X84340000Y-83210000D02*
X84040000Y-82910000D01*
%TO.N,Net-(D14-K)*%
X84340000Y-84420000D02*
X84080000Y-84160000D01*
%TO.N,Net-(D15-K)*%
X77730000Y-82910000D02*
X75680000Y-82910000D01*
X79750000Y-82910000D02*
X77730000Y-82910000D01*
X82240000Y-83180000D02*
X81970000Y-82910000D01*
%TO.N,Net-(D14-K)*%
X81930000Y-84160000D02*
X79850000Y-84160000D01*
X82240000Y-84470000D02*
X81930000Y-84160000D01*
X86160000Y-84160000D02*
X84080000Y-84160000D01*
X86440000Y-84440000D02*
X86160000Y-84160000D01*
X82240000Y-84700000D02*
X82240000Y-84470000D01*
%TO.N,Net-(D15-K)*%
X80140000Y-83300000D02*
X79750000Y-82910000D01*
X80140000Y-83450000D02*
X80140000Y-83300000D01*
%TO.N,Net-(D14-K)*%
X84080000Y-84160000D02*
X81930000Y-84160000D01*
X86440000Y-84700000D02*
X86440000Y-84440000D01*
X84340000Y-84700000D02*
X84340000Y-84420000D01*
%TO.N,Net-(D15-K)*%
X82240000Y-83450000D02*
X82240000Y-83180000D01*
X84040000Y-82910000D02*
X81970000Y-82910000D01*
X78040000Y-83220000D02*
X77730000Y-82910000D01*
X84340000Y-83450000D02*
X84340000Y-83210000D01*
X78040000Y-83450000D02*
X78040000Y-83220000D01*
X81970000Y-82910000D02*
X79750000Y-82910000D01*
%TO.N,Net-(D1-K)*%
X75945000Y-90950000D02*
X75945000Y-90624000D01*
X75945000Y-90624000D02*
X75720000Y-90399000D01*
X78045000Y-90950000D02*
X78045000Y-90624000D01*
X78045000Y-90624000D02*
X77820000Y-90399000D01*
X82245000Y-90950000D02*
X82245000Y-90674000D01*
X86430000Y-90609000D02*
X86220000Y-90399000D01*
X81970000Y-90399000D02*
X79745000Y-90399000D01*
X73860000Y-90639000D02*
X73620000Y-90399000D01*
X88530000Y-90950000D02*
X87979000Y-90399000D01*
X84020000Y-90399000D02*
X81970000Y-90399000D01*
X86430000Y-90950000D02*
X86430000Y-90609000D01*
X77820000Y-90399000D02*
X75720000Y-90399000D01*
X84330000Y-90920000D02*
X84330000Y-90709000D01*
X73860000Y-90950000D02*
X73860000Y-90639000D01*
X86220000Y-90399000D02*
X84020000Y-90399000D01*
X84330000Y-90709000D02*
X84020000Y-90399000D01*
X87979000Y-90399000D02*
X86220000Y-90399000D01*
X75720000Y-90399000D02*
X73620000Y-90399000D01*
X82245000Y-90674000D02*
X81970000Y-90399000D01*
%TO.N,Net-(D16-K)*%
X86430000Y-82200000D02*
X86430000Y-81930000D01*
X87980000Y-81665000D02*
X86165000Y-81665000D01*
X86430000Y-81930000D02*
X86165000Y-81665000D01*
%TO.N,Net-(D15-K)*%
X75680000Y-82910000D02*
X73580000Y-82910000D01*
%TO.N,Net-(D14-K)*%
X79850000Y-84160000D02*
X77760000Y-84160000D01*
X80140000Y-84700000D02*
X80140000Y-84450000D01*
%TO.N,Net-(D15-K)*%
X75940000Y-83170000D02*
X75680000Y-82910000D01*
X73840000Y-83170000D02*
X73580000Y-82910000D01*
X75940000Y-83450000D02*
X75940000Y-83170000D01*
%TO.N,Net-(D14-K)*%
X80140000Y-84450000D02*
X79850000Y-84160000D01*
%TO.N,Net-(D15-K)*%
X73840000Y-83450000D02*
X73840000Y-83170000D01*
%TO.N,Net-(D10-K)*%
X80140000Y-89700000D02*
X80140000Y-89470000D01*
X82240000Y-89700000D02*
X82240000Y-89445000D01*
X75940000Y-89700000D02*
X75940000Y-89470000D01*
X77695000Y-89150000D02*
X79820000Y-89150000D01*
X81945000Y-89150000D02*
X84045000Y-89150000D01*
X80140000Y-89470000D02*
X79820000Y-89150000D01*
X79820000Y-89150000D02*
X81945000Y-89150000D01*
X78040000Y-89700000D02*
X78040000Y-89495000D01*
X78040000Y-89495000D02*
X77695000Y-89150000D01*
X75620000Y-89150000D02*
X77695000Y-89150000D01*
X82240000Y-89445000D02*
X81945000Y-89150000D01*
X75940000Y-89470000D02*
X75620000Y-89150000D01*
%TO.N,Net-(D12-K)*%
X83970000Y-86655000D02*
X86220000Y-86655000D01*
X84325000Y-87010000D02*
X83970000Y-86655000D01*
X80140000Y-87200000D02*
X80140000Y-86825000D01*
%TO.N,Net-(D10-K)*%
X86440000Y-89700000D02*
X86440000Y-89345000D01*
%TO.N,Net-(D12-K)*%
X80140000Y-86825000D02*
X79970000Y-86655000D01*
X82240000Y-86925000D02*
X81970000Y-86655000D01*
%TO.N,Net-(D10-K)*%
X86245000Y-89150000D02*
X87980000Y-89150000D01*
X84340000Y-89445000D02*
X84045000Y-89150000D01*
%TO.N,Net-(D1-K)*%
X80130000Y-90950000D02*
X80130000Y-90784000D01*
%TO.N,Net-(D12-K)*%
X82240000Y-87200000D02*
X82240000Y-86925000D01*
%TO.N,Net-(D1-K)*%
X79745000Y-90399000D02*
X77820000Y-90399000D01*
%TO.N,Net-(D10-K)*%
X86440000Y-89345000D02*
X86245000Y-89150000D01*
%TO.N,Net-(D12-K)*%
X79970000Y-86655000D02*
X81970000Y-86655000D01*
%TO.N,Net-(D1-K)*%
X80130000Y-90784000D02*
X79745000Y-90399000D01*
%TO.N,Net-(D10-K)*%
X84340000Y-89700000D02*
X84340000Y-89445000D01*
%TO.N,Net-(D12-K)*%
X81970000Y-86655000D02*
X83970000Y-86655000D01*
X84325000Y-87200000D02*
X84325000Y-87010000D01*
%TO.N,Net-(D10-K)*%
X84045000Y-89150000D02*
X86245000Y-89150000D01*
%TO.N,Net-(D14-K)*%
X78040000Y-84440000D02*
X77760000Y-84160000D01*
%TO.N,Net-(D12-K)*%
X86440000Y-86875000D02*
X86220000Y-86655000D01*
%TO.N,Net-(D14-K)*%
X75940000Y-84700000D02*
X75940000Y-84410000D01*
X75940000Y-84410000D02*
X75690000Y-84160000D01*
X78040000Y-84700000D02*
X78040000Y-84440000D01*
%TO.N,Net-(D12-K)*%
X86440000Y-87200000D02*
X86440000Y-86875000D01*
%TO.N,Net-(D14-K)*%
X77760000Y-84160000D02*
X75690000Y-84160000D01*
%TO.N,Net-(D12-K)*%
X86220000Y-86655000D02*
X87970000Y-86655000D01*
%TO.N,Net-(D14-K)*%
X75690000Y-84160000D02*
X73540000Y-84160000D01*
%TO.N,Net-(D16-K)*%
X75610000Y-81665000D02*
X73505000Y-81665000D01*
X84340000Y-82200000D02*
X84340000Y-82010000D01*
X73840000Y-82200000D02*
X73840000Y-82000000D01*
X78040000Y-82200000D02*
X78040000Y-81975000D01*
X82240000Y-82200000D02*
X82240000Y-81890000D01*
X82240000Y-81890000D02*
X82015000Y-81665000D01*
X73840000Y-82000000D02*
X73505000Y-81665000D01*
X80140000Y-82200000D02*
X80140000Y-81835000D01*
X84340000Y-82010000D02*
X83995000Y-81665000D01*
X77730000Y-81665000D02*
X75610000Y-81665000D01*
X75940000Y-81995000D02*
X75610000Y-81665000D01*
X88515000Y-82200000D02*
X87980000Y-81665000D01*
X86165000Y-81665000D02*
X83995000Y-81665000D01*
X82015000Y-81665000D02*
X79970000Y-81665000D01*
X80140000Y-81835000D02*
X79970000Y-81665000D01*
X75940000Y-82200000D02*
X75940000Y-81995000D01*
X78040000Y-81975000D02*
X77730000Y-81665000D01*
X83995000Y-81665000D02*
X82015000Y-81665000D01*
X79970000Y-81665000D02*
X77730000Y-81665000D01*
D29*
%TO.N,BOOT0*%
X75340000Y-99395000D02*
X76080000Y-99395000D01*
X75100000Y-99635000D02*
X75340000Y-99395000D01*
X75100000Y-100220000D02*
X75100000Y-99635000D01*
D28*
X75090000Y-99980000D02*
X75070000Y-99960000D01*
D27*
X74040000Y-101280000D02*
X74040000Y-101785000D01*
X75100000Y-100220000D02*
X74040000Y-101280000D01*
%TO.N,Net-(SW1-B)*%
X75105000Y-105560000D02*
X77636000Y-108091000D01*
X75105000Y-102825000D02*
X75105000Y-105560000D01*
X77636000Y-108091000D02*
X78425000Y-108091000D01*
D29*
%TO.N,+3V3*%
X64505000Y-96690000D02*
X64505000Y-99360000D01*
D28*
X66540000Y-99360000D02*
X66545000Y-99355000D01*
D29*
X65525000Y-99360000D02*
X66540000Y-99360000D01*
X64505000Y-99360000D02*
X65525000Y-99360000D01*
D28*
%TO.N,GND*%
X76120000Y-104385000D02*
X76120000Y-103465000D01*
X76190000Y-101530000D02*
X76185000Y-101525000D01*
X76190000Y-102420000D02*
X76190000Y-101530000D01*
X77150000Y-101565000D02*
X77150000Y-100460000D01*
X77150000Y-99465000D02*
X77080000Y-99395000D01*
X77150000Y-100460000D02*
X77150000Y-99465000D01*
D29*
X81140000Y-103145000D02*
X81140000Y-104355000D01*
X81140000Y-104355000D02*
X81130000Y-104365000D01*
X81120000Y-100675000D02*
X81485000Y-100310000D01*
X81120000Y-101410000D02*
X81120000Y-100675000D01*
D28*
%TO.N,NSRT*%
X80140000Y-102765000D02*
X80510000Y-102395000D01*
X80140000Y-103145000D02*
X80140000Y-102765000D01*
X80160000Y-102045000D02*
X80510000Y-102395000D01*
X80160000Y-101410000D02*
X80160000Y-102045000D01*
D27*
%TO.N,BOOT0*%
X76190000Y-100460000D02*
X75340000Y-100460000D01*
X75100000Y-100220000D02*
X75100000Y-100615000D01*
X75340000Y-100460000D02*
X75100000Y-100220000D01*
X75105000Y-101270000D02*
X75105000Y-101805000D01*
D28*
X75100000Y-101265000D02*
X75105000Y-101270000D01*
%TO.N,+3V3*%
X77080000Y-103575000D02*
X77300000Y-103355000D01*
X77080000Y-104385000D02*
X77080000Y-103575000D01*
X77150000Y-103205000D02*
X77300000Y-103355000D01*
X77150000Y-102420000D02*
X77150000Y-103205000D01*
D27*
%TO.N,BOOT0*%
X75100000Y-100615000D02*
X75100000Y-101265000D01*
%TO.N,+5V*%
X65075000Y-102775000D02*
X66180000Y-103880000D01*
X66180000Y-103880000D02*
X66180000Y-105860000D01*
X56525000Y-102775000D02*
X65075000Y-102775000D01*
X56300000Y-102550000D02*
X56525000Y-102775000D01*
X56300000Y-101225000D02*
X56300000Y-102550000D01*
X56535000Y-100990000D02*
X56300000Y-101225000D01*
X57425000Y-100990000D02*
X56535000Y-100990000D01*
X57427500Y-100992500D02*
X57425000Y-100990000D01*
X59112500Y-100992500D02*
X57427500Y-100992500D01*
%TO.N,GND*%
X67980000Y-111140000D02*
X66100000Y-111140000D01*
%TO.N,+5V*%
X67930000Y-109780000D02*
X69385000Y-109780000D01*
%TO.N,GND*%
X67930000Y-108820000D02*
X67930000Y-107835000D01*
D30*
X60245000Y-100512499D02*
X60245000Y-99550000D01*
X60725001Y-100992500D02*
X60245000Y-100512499D01*
X61387500Y-100992500D02*
X60725001Y-100992500D01*
%TO.N,+5V*%
X59112500Y-100992500D02*
X59115000Y-100990000D01*
D27*
%TO.N,Net-(F1-Pad2)*%
X59130000Y-106575000D02*
X59130000Y-107610000D01*
%TO.N,+5V*%
X66180000Y-109260000D02*
X66180000Y-105860000D01*
X66700000Y-109780000D02*
X66180000Y-109260000D01*
X67930000Y-109780000D02*
X66700000Y-109780000D01*
%TO.N,Net-(D65-A)*%
X62104500Y-106635500D02*
X62880000Y-105860000D01*
X61110000Y-106635500D02*
X62104500Y-106635500D01*
%TO.N,Net-(F1-Pad2)*%
X60150000Y-107610000D02*
X59130000Y-107610000D01*
%TO.N,Net-(F1-Pad1)*%
X61089500Y-105005000D02*
X61110000Y-104984500D01*
X59130000Y-105005000D02*
X61089500Y-105005000D01*
%TO.N,Net-(F1-Pad2)*%
X59130000Y-107610000D02*
X57870000Y-107610000D01*
X57870000Y-107610000D02*
X57850000Y-107590000D01*
X62640000Y-107610000D02*
X60150000Y-107610000D01*
%TO.N,Net-(D1-A)*%
X88435463Y-91884537D02*
X87500926Y-90950000D01*
X87500926Y-90950000D02*
X87560000Y-90950000D01*
%TD*%
M02*
