%TF.GenerationSoftware,KiCad,Pcbnew,9.0.3*%
%TF.CreationDate,2026-06-21T23:03:53+05:30*%
%TF.ProjectId,Elo_112,456c6f5f-3131-4322-9e6b-696361645f70,rev?*%
%TF.SameCoordinates,Original*%
%TF.FileFunction,Copper,L4,Bot*%
%TF.FilePolarity,Positive*%
%FSLAX46Y46*%
G04 Gerber Fmt 4.6, Leading zero omitted, Abs format (unit mm)*
G04 Created by KiCad (PCBNEW 9.0.3) date 2026-06-21 23:03:53*
%MOMM*%
%LPD*%
G01*
G04 APERTURE LIST*
G04 Aperture macros list*
%AMRoundRect*
0 Rectangle with rounded corners*
0 $1 Rounding radius*
0 $2 $3 $4 $5 $6 $7 $8 $9 X,Y pos of 4 corners*
0 Add a 4 corners polygon primitive as box body*
4,1,4,$2,$3,$4,$5,$6,$7,$8,$9,$2,$3,0*
0 Add four circle primitives for the rounded corners*
1,1,$1+$1,$2,$3*
1,1,$1+$1,$4,$5*
1,1,$1+$1,$6,$7*
1,1,$1+$1,$8,$9*
0 Add four rect primitives between the rounded corners*
20,1,$1+$1,$2,$3,$4,$5,0*
20,1,$1+$1,$4,$5,$6,$7,0*
20,1,$1+$1,$6,$7,$8,$9,0*
20,1,$1+$1,$8,$9,$2,$3,0*%
G04 Aperture macros list end*
%TA.AperFunction,SMDPad,CuDef*%
%ADD10RoundRect,0.243750X0.243750X0.456250X-0.243750X0.456250X-0.243750X-0.456250X0.243750X-0.456250X0*%
%TD*%
%TA.AperFunction,SMDPad,CuDef*%
%ADD11R,1.524000X0.508000*%
%TD*%
%TA.AperFunction,SMDPad,CuDef*%
%ADD12RoundRect,0.135000X-0.135000X-0.185000X0.135000X-0.185000X0.135000X0.185000X-0.135000X0.185000X0*%
%TD*%
%TA.AperFunction,SMDPad,CuDef*%
%ADD13RoundRect,0.075000X0.662500X0.075000X-0.662500X0.075000X-0.662500X-0.075000X0.662500X-0.075000X0*%
%TD*%
%TA.AperFunction,SMDPad,CuDef*%
%ADD14RoundRect,0.075000X0.075000X0.662500X-0.075000X0.662500X-0.075000X-0.662500X0.075000X-0.662500X0*%
%TD*%
%TA.AperFunction,SMDPad,CuDef*%
%ADD15RoundRect,0.250000X-0.300000X0.400000X-0.300000X-0.400000X0.300000X-0.400000X0.300000X0.400000X0*%
%TD*%
%TA.AperFunction,SMDPad,CuDef*%
%ADD16RoundRect,0.140000X0.140000X0.170000X-0.140000X0.170000X-0.140000X-0.170000X0.140000X-0.170000X0*%
%TD*%
%TA.AperFunction,SMDPad,CuDef*%
%ADD17RoundRect,0.140000X-0.170000X0.140000X-0.170000X-0.140000X0.170000X-0.140000X0.170000X0.140000X0*%
%TD*%
%TA.AperFunction,SMDPad,CuDef*%
%ADD18RoundRect,0.140000X-0.140000X-0.170000X0.140000X-0.170000X0.140000X0.170000X-0.140000X0.170000X0*%
%TD*%
%TA.AperFunction,HeatsinkPad*%
%ADD19O,1.000000X1.600000*%
%TD*%
%TA.AperFunction,HeatsinkPad*%
%ADD20O,1.000000X2.100000*%
%TD*%
%TA.AperFunction,SMDPad,CuDef*%
%ADD21RoundRect,0.150000X0.150000X0.500000X-0.150000X0.500000X-0.150000X-0.500000X0.150000X-0.500000X0*%
%TD*%
%TA.AperFunction,SMDPad,CuDef*%
%ADD22RoundRect,0.075000X0.075000X0.575000X-0.075000X0.575000X-0.075000X-0.575000X0.075000X-0.575000X0*%
%TD*%
%TA.AperFunction,SMDPad,CuDef*%
%ADD23RoundRect,0.250000X0.300000X-0.400000X0.300000X0.400000X-0.300000X0.400000X-0.300000X-0.400000X0*%
%TD*%
%TA.AperFunction,SMDPad,CuDef*%
%ADD24R,1.450000X0.900001*%
%TD*%
%TA.AperFunction,SMDPad,CuDef*%
%ADD25R,1.450000X3.149999*%
%TD*%
%TA.AperFunction,SMDPad,CuDef*%
%ADD26RoundRect,0.150000X0.150000X-0.825000X0.150000X0.825000X-0.150000X0.825000X-0.150000X-0.825000X0*%
%TD*%
%TA.AperFunction,SMDPad,CuDef*%
%ADD27RoundRect,0.135000X0.185000X-0.135000X0.185000X0.135000X-0.185000X0.135000X-0.185000X-0.135000X0*%
%TD*%
%TA.AperFunction,SMDPad,CuDef*%
%ADD28RoundRect,0.150000X0.150000X-0.587500X0.150000X0.587500X-0.150000X0.587500X-0.150000X-0.587500X0*%
%TD*%
%TA.AperFunction,SMDPad,CuDef*%
%ADD29RoundRect,0.150000X-0.587500X-0.150000X0.587500X-0.150000X0.587500X0.150000X-0.587500X0.150000X0*%
%TD*%
%TA.AperFunction,ViaPad*%
%ADD30C,0.600000*%
%TD*%
%TA.AperFunction,ViaPad*%
%ADD31C,0.500000*%
%TD*%
%TA.AperFunction,Conductor*%
%ADD32C,0.200000*%
%TD*%
%TA.AperFunction,Conductor*%
%ADD33C,0.500000*%
%TD*%
%TA.AperFunction,Conductor*%
%ADD34C,0.400000*%
%TD*%
%TA.AperFunction,Conductor*%
%ADD35C,0.300000*%
%TD*%
G04 APERTURE END LIST*
D10*
%TO.P,D67,2,A*%
%TO.N,Net-(D67-A)*%
X80787500Y-114715000D03*
%TO.P,D67,1,K*%
%TO.N,GND*%
X82662500Y-114715000D03*
%TD*%
D11*
%TO.P,SW1,2,B*%
%TO.N,Net-(SW1-B)*%
X78425000Y-108091000D03*
%TO.P,SW1,1,A*%
%TO.N,+3V3*%
X78425000Y-112409000D03*
%TD*%
D12*
%TO.P,R23,2*%
%TO.N,Net-(D67-A)*%
X79440000Y-114715000D03*
%TO.P,R23,1*%
%TO.N,+3V3*%
X78420000Y-114715000D03*
%TD*%
D11*
%TO.P,SW2,2,B*%
%TO.N,NSRT*%
X82085000Y-108100000D03*
%TO.P,SW2,1,A*%
%TO.N,GND*%
X82085000Y-112418000D03*
%TD*%
D13*
%TO.P,U1,1,VBAT*%
%TO.N,VBAT*%
X78502500Y-99355000D03*
%TO.P,U1,2,PC13*%
%TO.N,unconnected-(U1-PC13-Pad2)*%
X78502500Y-99855000D03*
%TO.P,U1,3,PC14*%
%TO.N,unconnected-(U1-PC14-Pad3)*%
X78502500Y-100355000D03*
%TO.P,U1,4,PC15*%
%TO.N,unconnected-(U1-PC15-Pad4)*%
X78502500Y-100855000D03*
%TO.P,U1,5,PD0*%
%TO.N,Net-(U1-PD0)*%
X78502500Y-101355000D03*
%TO.P,U1,6,PD1*%
%TO.N,unconnected-(U1-PD1-Pad6)*%
X78502500Y-101855000D03*
%TO.P,U1,7,NRST*%
%TO.N,NSRT*%
X78502500Y-102355000D03*
%TO.P,U1,8,VSSA*%
%TO.N,GND*%
X78502500Y-102855000D03*
%TO.P,U1,9,VDDA*%
%TO.N,+3V3*%
X78502500Y-103355000D03*
%TO.P,U1,10,PA0*%
%TO.N,unconnected-(U1-PA0-Pad10)*%
X78502500Y-103855000D03*
%TO.P,U1,11,PA1*%
%TO.N,unconnected-(U1-PA1-Pad11)*%
X78502500Y-104355000D03*
%TO.P,U1,12,PA2*%
%TO.N,unconnected-(U1-PA2-Pad12)*%
X78502500Y-104855000D03*
D14*
%TO.P,U1,13,PA3*%
%TO.N,unconnected-(U1-PA3-Pad13)*%
X77090000Y-106267500D03*
%TO.P,U1,14,PA4*%
%TO.N,unconnected-(U1-PA4-Pad14)*%
X76590000Y-106267500D03*
%TO.P,U1,15,PA5*%
%TO.N,unconnected-(U1-PA5-Pad15)*%
X76090000Y-106267500D03*
%TO.P,U1,16,PA6*%
%TO.N,unconnected-(U1-PA6-Pad16)*%
X75590000Y-106267500D03*
%TO.P,U1,17,PA7*%
%TO.N,unconnected-(U1-PA7-Pad17)*%
X75090000Y-106267500D03*
%TO.P,U1,18,PB0*%
%TO.N,/P_1*%
X74590000Y-106267500D03*
%TO.P,U1,19,PB1*%
%TO.N,/P_2*%
X74090000Y-106267500D03*
%TO.P,U1,20,PB2*%
%TO.N,/P_3*%
X73590000Y-106267500D03*
%TO.P,U1,21,PB10*%
%TO.N,/G_3*%
X73090000Y-106267500D03*
%TO.P,U1,22,PB11*%
%TO.N,/G_4*%
X72590000Y-106267500D03*
%TO.P,U1,23,VSS*%
%TO.N,GND*%
X72090000Y-106267500D03*
%TO.P,U1,24,VDD*%
%TO.N,+3V3*%
X71590000Y-106267500D03*
D13*
%TO.P,U1,25,PB12*%
%TO.N,/G_5*%
X70177500Y-104855000D03*
%TO.P,U1,26,PB13*%
%TO.N,/G_6*%
X70177500Y-104355000D03*
%TO.P,U1,27,PB14*%
%TO.N,/G_7*%
X70177500Y-103855000D03*
%TO.P,U1,28,PB15*%
%TO.N,/G_8*%
X70177500Y-103355000D03*
%TO.P,U1,29,PA8*%
%TO.N,unconnected-(U1-PA8-Pad29)*%
X70177500Y-102855000D03*
%TO.P,U1,30,PA9*%
%TO.N,UART_-*%
X70177500Y-102355000D03*
%TO.P,U1,31,PA10*%
%TO.N,UART_+*%
X70177500Y-101855000D03*
%TO.P,U1,32,PA11*%
%TO.N,unconnected-(U1-PA11-Pad32)*%
X70177500Y-101355000D03*
%TO.P,U1,33,PA12*%
%TO.N,unconnected-(U1-PA12-Pad33)*%
X70177500Y-100855000D03*
%TO.P,U1,34,PA13*%
%TO.N,unconnected-(U1-PA13-Pad34)*%
X70177500Y-100355000D03*
%TO.P,U1,35,VSS*%
%TO.N,GND*%
X70177500Y-99855000D03*
%TO.P,U1,36,VDD*%
%TO.N,+3V3*%
X70177500Y-99355000D03*
D14*
%TO.P,U1,37,PA14*%
%TO.N,unconnected-(U1-PA14-Pad37)*%
X71590000Y-97942500D03*
%TO.P,U1,38,PA15*%
%TO.N,unconnected-(U1-PA15-Pad38)*%
X72090000Y-97942500D03*
%TO.P,U1,39,PB3*%
%TO.N,/P_4*%
X72590000Y-97942500D03*
%TO.P,U1,40,PB4*%
%TO.N,/P_5*%
X73090000Y-97942500D03*
%TO.P,U1,41,PB5*%
%TO.N,/P_6*%
X73590000Y-97942500D03*
%TO.P,U1,42,PB6*%
%TO.N,/P_7*%
X74090000Y-97942500D03*
%TO.P,U1,43,PB7*%
%TO.N,/P_8*%
X74590000Y-97942500D03*
%TO.P,U1,44,BOOT0*%
%TO.N,BOOT0*%
X75090000Y-97942500D03*
%TO.P,U1,45,PB8*%
%TO.N,/G_1*%
X75590000Y-97942500D03*
%TO.P,U1,46,PB9*%
%TO.N,/G_2*%
X76090000Y-97942500D03*
%TO.P,U1,47,VSS*%
%TO.N,GND*%
X76590000Y-97942500D03*
%TO.P,U1,48,VDD*%
%TO.N,+3V3*%
X77090000Y-97942500D03*
%TD*%
D15*
%TO.P,Y1,1,EN*%
%TO.N,+3V3*%
X82180000Y-99245000D03*
%TO.P,Y1,2,GND*%
%TO.N,GND*%
X82180000Y-101345000D03*
%TO.P,Y1,3,OUT*%
%TO.N,Net-(U1-PD0)*%
X80530000Y-101345000D03*
%TO.P,Y1,4,Vdd*%
%TO.N,+3V3*%
X80530000Y-99245000D03*
%TD*%
D16*
%TO.P,C8,1*%
%TO.N,+3V3*%
X70550000Y-106575000D03*
%TO.P,C8,2*%
%TO.N,GND*%
X69590000Y-106575000D03*
%TD*%
D17*
%TO.P,C1,1*%
%TO.N,+3V3*%
X67570000Y-99360000D03*
%TO.P,C1,2*%
%TO.N,GND*%
X67570000Y-100320000D03*
%TD*%
%TO.P,C5,1*%
%TO.N,+3V3*%
X68590000Y-99355000D03*
%TO.P,C5,2*%
%TO.N,GND*%
X68590000Y-100315000D03*
%TD*%
D18*
%TO.P,C13,1*%
%TO.N,+3V3*%
X80535000Y-97605000D03*
%TO.P,C13,2*%
%TO.N,GND*%
X81495000Y-97605000D03*
%TD*%
D19*
%TO.P,J1,S1,SHIELD*%
%TO.N,GND*%
X55930000Y-114575000D03*
D20*
X55930000Y-110395000D03*
D19*
X64570000Y-114575000D03*
D20*
X64570000Y-110395000D03*
D21*
%TO.P,J1,B12,GND*%
X63450000Y-109755000D03*
%TO.P,J1,B9,VBUS*%
%TO.N,Net-(F1-Pad2)*%
X62650000Y-109755000D03*
D22*
%TO.P,J1,B8,SBU2*%
%TO.N,unconnected-(J1-SBU2-PadB8)*%
X62000000Y-109755000D03*
%TO.P,J1,B7,D-*%
%TO.N,/D_1_C-*%
X61000000Y-109755000D03*
%TO.P,J1,B6,D+*%
%TO.N,/D_1_C+*%
X59500000Y-109755000D03*
%TO.P,J1,B5,CC2*%
%TO.N,/CC2_2*%
X58500000Y-109755000D03*
D21*
%TO.P,J1,B4,VBUS*%
%TO.N,Net-(F1-Pad2)*%
X57850000Y-109755000D03*
%TO.P,J1,B1,GND*%
%TO.N,GND*%
X57050000Y-109755000D03*
%TO.P,J1,A12,GND*%
X57050000Y-109755000D03*
%TO.P,J1,A9,VBUS*%
%TO.N,Net-(F1-Pad2)*%
X57850000Y-109755000D03*
D22*
%TO.P,J1,A8,SBU1*%
%TO.N,unconnected-(J1-SBU1-PadA8)*%
X59000000Y-109755000D03*
%TO.P,J1,A7,D-*%
%TO.N,/D_1_C-*%
X60000000Y-109755000D03*
%TO.P,J1,A6,D+*%
%TO.N,/D_1_C+*%
X60500000Y-109755000D03*
%TO.P,J1,A5,CC1*%
%TO.N,/CC2_1*%
X61500000Y-109755000D03*
D21*
%TO.P,J1,A4,VBUS*%
%TO.N,Net-(F1-Pad2)*%
X62650000Y-109755000D03*
%TO.P,J1,A1,GND*%
%TO.N,GND*%
X63450000Y-109755000D03*
%TD*%
D23*
%TO.P,Y3,1,EN*%
%TO.N,+3V3*%
X55480000Y-102870000D03*
%TO.P,Y3,2,GND*%
%TO.N,GND*%
X55480000Y-100770000D03*
%TO.P,Y3,3,OUT*%
%TO.N,Net-(U2-XI)*%
X57130000Y-100770000D03*
%TO.P,Y3,4,Vdd*%
%TO.N,+3V3*%
X57130000Y-102870000D03*
%TD*%
D24*
%TO.P,U4,1,ADJ*%
%TO.N,GND*%
X69405000Y-114402500D03*
%TO.P,U4,2,VO*%
%TO.N,+3V3*%
X69405000Y-112102500D03*
%TO.P,U4,3,VI*%
%TO.N,+5V*%
X69405000Y-109802500D03*
D25*
%TO.P,U4,4*%
%TO.N,N/C*%
X75555000Y-112102500D03*
%TD*%
D26*
%TO.P,U2,16,VCC*%
%TO.N,unconnected-(U2-VCC-Pad16)*%
X65965000Y-93270000D03*
%TO.P,U2,15,R232*%
%TO.N,unconnected-(U2-R232-Pad15)*%
X64695000Y-93270000D03*
%TO.P,U2,14,~{RTS}*%
%TO.N,unconnected-(U2-~{RTS}-Pad14)*%
X63425000Y-93270000D03*
%TO.P,U2,13,~{DTR}*%
%TO.N,unconnected-(U2-~{DTR}-Pad13)*%
X62155000Y-93270000D03*
%TO.P,U2,12,~{DCD}*%
%TO.N,unconnected-(U2-~{DCD}-Pad12)*%
X60885000Y-93270000D03*
%TO.P,U2,11,~{RI}*%
%TO.N,unconnected-(U2-~{RI}-Pad11)*%
X59615000Y-93270000D03*
%TO.P,U2,10,~{DSR}*%
%TO.N,unconnected-(U2-~{DSR}-Pad10)*%
X58345000Y-93270000D03*
%TO.P,U2,9,~{CTS}*%
%TO.N,unconnected-(U2-~{CTS}-Pad9)*%
X57075000Y-93270000D03*
%TO.P,U2,8,XO*%
%TO.N,unconnected-(U2-XO-Pad8)*%
X57075000Y-98220000D03*
%TO.P,U2,7,XI*%
%TO.N,Net-(U2-XI)*%
X58345000Y-98220000D03*
%TO.P,U2,6,UD-*%
%TO.N,/D_1_C-*%
X59615000Y-98220000D03*
%TO.P,U2,5,UD+*%
%TO.N,/D_1_C+*%
X60885000Y-98220000D03*
%TO.P,U2,4,V3*%
%TO.N,+3V3*%
X62155000Y-98220000D03*
%TO.P,U2,3,RXD*%
%TO.N,UART_-*%
X63425000Y-98220000D03*
%TO.P,U2,2,TXD*%
%TO.N,UART_+*%
X64695000Y-98220000D03*
%TO.P,U2,1,GND*%
%TO.N,GND*%
X65965000Y-98220000D03*
%TD*%
D27*
%TO.P,R2,1*%
%TO.N,/CC2_2*%
X58500000Y-105770000D03*
%TO.P,R2,2*%
%TO.N,GND*%
X58500000Y-104750000D03*
%TD*%
%TO.P,R1,1*%
%TO.N,/CC2_1*%
X61500000Y-105770000D03*
%TO.P,R1,2*%
%TO.N,GND*%
X61500000Y-104750000D03*
%TD*%
D28*
%TO.P,Q15,1,B*%
%TO.N,/G_2*%
X57967500Y-85882500D03*
%TO.P,Q15,2,E*%
%TO.N,GND*%
X56067500Y-85882500D03*
%TO.P,Q15,3,C*%
%TO.N,Net-(D10-K)*%
X57017500Y-84007500D03*
%TD*%
%TO.P,Q13,1,B*%
%TO.N,/G_4*%
X61505000Y-85882500D03*
%TO.P,Q13,2,E*%
%TO.N,GND*%
X59605000Y-85882500D03*
%TO.P,Q13,3,C*%
%TO.N,Net-(D12-K)*%
X60555000Y-84007500D03*
%TD*%
%TO.P,Q11,1,B*%
%TO.N,/G_6*%
X65060000Y-85880000D03*
%TO.P,Q11,2,E*%
%TO.N,GND*%
X63160000Y-85880000D03*
%TO.P,Q11,3,C*%
%TO.N,Net-(D14-K)*%
X64110000Y-84005000D03*
%TD*%
D29*
%TO.P,Q8,1,B*%
%TO.N,/P_8*%
X86680000Y-106730000D03*
%TO.P,Q8,2,E*%
%TO.N,Net-(D57-A)*%
X86680000Y-104830000D03*
%TO.P,Q8,3,C*%
%TO.N,+3V3*%
X88555000Y-105780000D03*
%TD*%
%TO.P,Q6,1,B*%
%TO.N,/P_6*%
X86680000Y-103180000D03*
%TO.P,Q6,2,E*%
%TO.N,Net-(D41-A)*%
X86680000Y-101280000D03*
%TO.P,Q6,3,C*%
%TO.N,+3V3*%
X88555000Y-102230000D03*
%TD*%
%TO.P,Q4,1,B*%
%TO.N,/P_4*%
X86680000Y-99592500D03*
%TO.P,Q4,2,E*%
%TO.N,Net-(D25-A)*%
X86680000Y-97692500D03*
%TO.P,Q4,3,C*%
%TO.N,+3V3*%
X88555000Y-98642500D03*
%TD*%
%TO.P,Q2,1,B*%
%TO.N,/P_2*%
X86692500Y-96017500D03*
%TO.P,Q2,2,E*%
%TO.N,Net-(D10-A)*%
X86692500Y-94117500D03*
%TO.P,Q2,3,C*%
%TO.N,+3V3*%
X88567500Y-95067500D03*
%TD*%
D16*
%TO.P,C12,1*%
%TO.N,+3V3*%
X57125000Y-104395000D03*
%TO.P,C12,2*%
%TO.N,GND*%
X56165000Y-104395000D03*
%TD*%
D28*
%TO.P,Q9,3,C*%
%TO.N,Net-(D16-K)*%
X67657500Y-83997500D03*
%TO.P,Q9,2,E*%
%TO.N,GND*%
X66707500Y-85872500D03*
%TO.P,Q9,1,B*%
%TO.N,/G_8*%
X68607500Y-85872500D03*
%TD*%
D30*
%TO.N,GND*%
X73575000Y-103875000D03*
X57425000Y-96675000D03*
X66085000Y-101225000D03*
X68080000Y-101200000D03*
X66965000Y-101245000D03*
X65135000Y-101240000D03*
X56070000Y-83405000D03*
X59605000Y-83365000D03*
X63160000Y-83380000D03*
X70015000Y-84745000D03*
X66710000Y-83400000D03*
%TO.N,Net-(D14-K)*%
X65720000Y-84155000D03*
%TO.N,Net-(D13-K)*%
X64105000Y-85405000D03*
%TO.N,Net-(D11-K)*%
X60205000Y-87315000D03*
%TO.N,Net-(D12-K)*%
X60705000Y-86035000D03*
D31*
%TO.N,Net-(D10-K)*%
X57346000Y-87830000D03*
%TO.N,Net-(D1-K)*%
X56720000Y-87815000D03*
D30*
%TO.N,Net-(D13-K)*%
X71995000Y-85410000D03*
%TO.N,Net-(D11-K)*%
X71970000Y-87900000D03*
%TO.N,Net-(D1-K)*%
X71945000Y-90399000D03*
%TO.N,Net-(D16-K)*%
X71945000Y-81665000D03*
%TO.N,Net-(D14-K)*%
X71955000Y-84160000D03*
%TO.N,Net-(D12-K)*%
X71990000Y-86655000D03*
%TO.N,Net-(D10-K)*%
X71950000Y-89150000D03*
X71950000Y-89150000D03*
%TO.N,GND*%
X80235000Y-104375000D03*
X76925000Y-96325000D03*
X78700000Y-96400000D03*
%TO.N,Net-(D17-A)*%
X87800000Y-92450000D03*
%TO.N,Net-(D33-A)*%
X86875000Y-92950000D03*
%TO.N,Net-(D49-A)*%
X86225000Y-93400000D03*
X88625000Y-106730000D03*
%TO.N,Net-(D33-A)*%
X88840000Y-103175000D03*
%TO.N,Net-(D17-A)*%
X89050000Y-99580000D03*
%TO.N,Net-(D1-A)*%
X89025000Y-96625000D03*
X87560000Y-90950000D03*
X88435463Y-91884537D03*
%TO.N,+3V3*%
X86095000Y-95065000D03*
X86330000Y-105790000D03*
X86040000Y-102230000D03*
X86330000Y-98640000D03*
X69190000Y-107785000D03*
%TO.N,/P_8*%
X85536000Y-106735000D03*
%TO.N,/P_6*%
X85542500Y-103176061D03*
%TO.N,/P_4*%
X85542500Y-99587904D03*
%TO.N,/P_2*%
X85555000Y-96020000D03*
%TO.N,/G_2*%
X57964243Y-87020000D03*
%TO.N,/G_4*%
X61510000Y-87020000D03*
%TO.N,/G_6*%
X65060216Y-87020000D03*
%TO.N,/G_8*%
X68614176Y-87005000D03*
%TO.N,/G_1*%
X67390000Y-97475000D03*
%TO.N,/G_2*%
X68060000Y-96815000D03*
%TO.N,/G_4*%
X67964495Y-105938125D03*
%TO.N,/G_3*%
X67360000Y-105360000D03*
%TO.N,/G_5*%
X68403666Y-104919996D03*
%TO.N,/G_6*%
X68810000Y-104350000D03*
%TO.N,+3V3*%
X67570000Y-99360000D03*
%TO.N,/G_7*%
X70085000Y-97655000D03*
%TO.N,/G_8*%
X70471314Y-98800341D03*
%TO.N,Net-(D57-A)*%
X72870000Y-82200000D03*
X72870000Y-85950000D03*
X72890000Y-90950000D03*
X72870000Y-88450000D03*
X72870000Y-87200000D03*
X72870000Y-83450000D03*
X72870000Y-84700000D03*
X72870000Y-89700000D03*
%TO.N,Net-(D49-A)*%
X74970000Y-88450000D03*
X74975000Y-90950000D03*
X74970000Y-89700000D03*
X74970000Y-85950000D03*
X74970000Y-87200000D03*
X74970000Y-83450000D03*
%TO.N,Net-(D41-A)*%
X77075000Y-90950000D03*
%TO.N,Net-(D49-A)*%
X74970000Y-84700000D03*
%TO.N,Net-(D41-A)*%
X77070000Y-89700000D03*
%TO.N,Net-(D49-A)*%
X74970000Y-82200000D03*
%TO.N,Net-(D41-A)*%
X77070000Y-83450000D03*
X77070000Y-82200000D03*
%TO.N,Net-(D25-A)*%
X81270000Y-84700000D03*
%TO.N,Net-(D41-A)*%
X77070000Y-85950000D03*
%TO.N,Net-(D17-A)*%
X83355000Y-87200000D03*
X83370000Y-84700000D03*
%TO.N,Net-(D33-A)*%
X79170000Y-82200000D03*
%TO.N,Net-(D10-A)*%
X85470000Y-85950000D03*
%TO.N,Net-(D33-A)*%
X79170000Y-84700000D03*
%TO.N,Net-(D17-A)*%
X83370000Y-83450000D03*
%TO.N,Net-(D33-A)*%
X79170000Y-88450000D03*
%TO.N,Net-(D10-A)*%
X85470000Y-84700000D03*
%TO.N,Net-(D25-A)*%
X81270000Y-82200000D03*
%TO.N,Net-(D41-A)*%
X77070000Y-87200000D03*
X77070000Y-88425000D03*
%TO.N,Net-(D25-A)*%
X81270000Y-85950000D03*
%TO.N,Net-(D41-A)*%
X77070000Y-89700000D03*
X77070000Y-84700000D03*
%TO.N,Net-(D25-A)*%
X81270000Y-89700000D03*
X81275000Y-90950000D03*
%TO.N,Net-(D33-A)*%
X79170000Y-87200000D03*
%TO.N,Net-(D25-A)*%
X81270000Y-88450000D03*
%TO.N,Net-(D17-A)*%
X83370000Y-89700000D03*
%TO.N,Net-(D25-A)*%
X81270000Y-83450000D03*
%TO.N,Net-(D17-A)*%
X83355000Y-88450000D03*
%TO.N,Net-(D33-A)*%
X79160000Y-90950000D03*
X79170000Y-89700000D03*
X79170000Y-85950000D03*
X79170000Y-83450000D03*
%TO.N,Net-(D25-A)*%
X81270000Y-87200000D03*
%TO.N,Net-(D17-A)*%
X83360000Y-90920000D03*
X83350000Y-85950000D03*
X83370000Y-82200000D03*
%TO.N,Net-(D10-A)*%
X85460000Y-82200000D03*
X85470000Y-87200000D03*
X85470000Y-88450000D03*
X85470000Y-89700000D03*
X85460000Y-90950000D03*
%TO.N,Net-(D1-A)*%
X87555000Y-88450000D03*
X87545000Y-87200000D03*
X87545000Y-82200000D03*
X87545000Y-83450000D03*
%TO.N,Net-(D10-A)*%
X85470000Y-83450000D03*
%TO.N,Net-(D1-A)*%
X87545000Y-85950000D03*
X87560000Y-89700000D03*
X87545000Y-84700000D03*
%TO.N,/P_8*%
X74590000Y-99205000D03*
X74590000Y-99200000D03*
%TO.N,BOOT0*%
X75085000Y-99975000D03*
%TO.N,/P_7*%
X74095000Y-100095000D03*
%TO.N,/P_6*%
X73590000Y-100790000D03*
%TO.N,/P_5*%
X73090000Y-101575000D03*
%TO.N,/P_4*%
X72600000Y-102295000D03*
%TO.N,/P_3*%
X71630000Y-108285000D03*
%TO.N,/P_2*%
X72130000Y-108970000D03*
%TO.N,/P_1*%
X72673595Y-109411030D03*
%TO.N,+3V3*%
X64505000Y-96690000D03*
%TO.N,GND*%
X72100000Y-107650000D03*
X76120000Y-103465000D03*
X76185000Y-101525000D03*
X77150000Y-101565000D03*
X68255000Y-106575000D03*
%TO.N,+3V3*%
X78420000Y-113505000D03*
%TO.N,GND*%
X80400000Y-112850000D03*
X83925000Y-114725000D03*
X81130000Y-104365000D03*
X81485000Y-100310000D03*
%TO.N,NSRT*%
X80510000Y-102395000D03*
%TO.N,+3V3*%
X80535000Y-97605000D03*
%TO.N,GND*%
X82407858Y-102339328D03*
%TO.N,+3V3*%
X77730000Y-97945000D03*
%TO.N,Net-(SW1-B)*%
X78425000Y-108091000D03*
%TO.N,+3V3*%
X77300000Y-103355000D03*
%TO.N,GND*%
X62915000Y-101280000D03*
%TO.N,+3V3*%
X62915000Y-100320000D03*
%TO.N,GND*%
X66100000Y-111140000D03*
X66130000Y-114430000D03*
%TO.N,+3V3*%
X66110000Y-112120000D03*
X67980000Y-112100000D03*
%TO.N,+5V*%
X69385000Y-109780000D03*
%TO.N,GND*%
X55205000Y-104395000D03*
%TO.N,+3V3*%
X56165000Y-105715000D03*
%TO.N,GND*%
X65965000Y-96710000D03*
X67930000Y-107835000D03*
X60245000Y-99550000D03*
X55480000Y-98790000D03*
%TO.N,/D_1_C-*%
X59112500Y-101942500D03*
%TO.N,/D_1_C+*%
X61387500Y-101942500D03*
%TO.N,GND*%
X57050000Y-107670000D03*
X63450000Y-107620000D03*
%TO.N,Net-(F1-Pad2)*%
X57850000Y-107590000D03*
X62640000Y-107610000D03*
%TO.N,GND*%
X58500000Y-103760000D03*
X61500000Y-103760000D03*
%TD*%
D32*
%TO.N,/G_4*%
X70947598Y-105780000D02*
X71170000Y-105557598D01*
X70940000Y-105780000D02*
X70947598Y-105780000D01*
%TO.N,GND*%
X83155000Y-114725000D02*
X83145000Y-114715000D01*
X83925000Y-114725000D02*
X83155000Y-114725000D01*
X83145000Y-114715000D02*
X82662500Y-114715000D01*
X80400000Y-112850000D02*
X80795000Y-112850000D01*
X81227000Y-112418000D02*
X82085000Y-112418000D01*
X80795000Y-112850000D02*
X81227000Y-112418000D01*
%TO.N,Net-(D16-K)*%
X68375000Y-81665000D02*
X71945000Y-81665000D01*
%TO.N,GND*%
X66707500Y-83402500D02*
X66710000Y-83400000D01*
X66707500Y-85872500D02*
X66707500Y-83402500D01*
X67570000Y-100980000D02*
X67570000Y-100320000D01*
X67790000Y-101200000D02*
X67570000Y-100980000D01*
X68080000Y-101200000D02*
X67790000Y-101200000D01*
X68300000Y-101200000D02*
X68590000Y-100910000D01*
X68590000Y-100910000D02*
X68590000Y-100315000D01*
X68080000Y-101200000D02*
X68300000Y-101200000D01*
X69050000Y-99855000D02*
X70177500Y-99855000D01*
X68590000Y-100315000D02*
X69050000Y-99855000D01*
X56067500Y-83407500D02*
X56070000Y-83405000D01*
X56067500Y-85882500D02*
X56067500Y-83407500D01*
X59605000Y-85882500D02*
X59605000Y-83365000D01*
X63160000Y-85880000D02*
X63160000Y-83380000D01*
%TO.N,Net-(D16-K)*%
X67657500Y-82382500D02*
X67657500Y-83997500D01*
X68375000Y-81665000D02*
X67657500Y-82382500D01*
%TO.N,Net-(D14-K)*%
X64260000Y-84155000D02*
X64110000Y-84005000D01*
X65720000Y-84155000D02*
X64260000Y-84155000D01*
%TO.N,Net-(D12-K)*%
X60555000Y-85885000D02*
X60555000Y-84007500D01*
X60705000Y-86035000D02*
X60555000Y-85885000D01*
%TO.N,Net-(D10-K)*%
X57017500Y-85892500D02*
X57017500Y-84007500D01*
X57346000Y-86221000D02*
X57017500Y-85892500D01*
X57346000Y-87830000D02*
X57346000Y-86221000D01*
%TO.N,GND*%
X80235000Y-103500000D02*
X80235000Y-104375000D01*
X80030000Y-103295000D02*
X80235000Y-103500000D01*
X79590000Y-102855000D02*
X80030000Y-103295000D01*
X78502500Y-102855000D02*
X79590000Y-102855000D01*
X76590000Y-96660000D02*
X76925000Y-96325000D01*
X76590000Y-97942500D02*
X76590000Y-96660000D01*
D33*
X80599999Y-96400000D02*
X78700000Y-96400000D01*
X81495000Y-97295001D02*
X80599999Y-96400000D01*
X81495000Y-97605000D02*
X81495000Y-97295001D01*
%TO.N,Net-(D25-A)*%
X85157384Y-97692500D02*
X86680000Y-97692500D01*
X81275000Y-93810116D02*
X85157384Y-97692500D01*
X81275000Y-90950000D02*
X81275000Y-93810116D01*
%TO.N,Net-(D41-A)*%
X83991000Y-97376058D02*
X83991000Y-100946000D01*
X77990000Y-95030000D02*
X81644942Y-95030000D01*
X77095000Y-90970000D02*
X77095000Y-94135000D01*
X81644942Y-95030000D02*
X83991000Y-97376058D01*
X77075000Y-90950000D02*
X77095000Y-90970000D01*
X77095000Y-94135000D02*
X77990000Y-95030000D01*
X83991000Y-100946000D02*
X84325000Y-101280000D01*
X84325000Y-101280000D02*
X86680000Y-101280000D01*
%TO.N,Net-(D57-A)*%
X72890000Y-94660000D02*
X72890000Y-90950000D01*
X81396000Y-95631000D02*
X73861000Y-95631000D01*
X83390000Y-97625000D02*
X81396000Y-95631000D01*
X73861000Y-95631000D02*
X72890000Y-94660000D01*
X83710000Y-104830000D02*
X83390000Y-104510000D01*
X86680000Y-104830000D02*
X83710000Y-104830000D01*
X83390000Y-104510000D02*
X83390000Y-97625000D01*
%TO.N,+3V3*%
X88555000Y-105780000D02*
X86340000Y-105780000D01*
X86340000Y-105780000D02*
X86330000Y-105790000D01*
X88555000Y-102230000D02*
X86040000Y-102230000D01*
X86332500Y-98642500D02*
X88555000Y-98642500D01*
X86330000Y-98640000D02*
X86332500Y-98642500D01*
X86097500Y-95067500D02*
X86095000Y-95065000D01*
X88567500Y-95067500D02*
X86097500Y-95067500D01*
%TO.N,Net-(D1-A)*%
X87560000Y-90950000D02*
X87560000Y-89700000D01*
D32*
%TO.N,GND*%
X82180000Y-102310000D02*
X82180000Y-101345000D01*
X82209328Y-102339328D02*
X82180000Y-102310000D01*
X82407858Y-102339328D02*
X82209328Y-102339328D01*
D33*
%TO.N,Net-(D10-A)*%
X85762500Y-94117500D02*
X86692500Y-94117500D01*
X85460000Y-93815000D02*
X85762500Y-94117500D01*
X85460000Y-90950000D02*
X85460000Y-93815000D01*
D34*
%TO.N,+3V3*%
X69855000Y-107785000D02*
X69190000Y-107785000D01*
X70550000Y-107090000D02*
X69970000Y-107670000D01*
D32*
X69970000Y-107670000D02*
X69855000Y-107785000D01*
D34*
X70550000Y-106575000D02*
X70550000Y-107090000D01*
X71282500Y-106575000D02*
X71590000Y-106267500D01*
X70550000Y-106575000D02*
X71282500Y-106575000D01*
D32*
%TO.N,/P_8*%
X86166000Y-106730000D02*
X86680000Y-106730000D01*
X86161000Y-106735000D02*
X86166000Y-106730000D01*
X85536000Y-106735000D02*
X86161000Y-106735000D01*
%TO.N,/P_6*%
X85546439Y-103180000D02*
X85542500Y-103176061D01*
X86680000Y-103180000D02*
X85546439Y-103180000D01*
%TO.N,/P_4*%
X85547096Y-99592500D02*
X85542500Y-99587904D01*
X86680000Y-99592500D02*
X85547096Y-99592500D01*
%TO.N,/P_2*%
X85557500Y-96017500D02*
X85555000Y-96020000D01*
X86692500Y-96017500D02*
X85557500Y-96017500D01*
%TO.N,/G_2*%
X57967500Y-87016743D02*
X57964243Y-87020000D01*
X57967500Y-85882500D02*
X57967500Y-87016743D01*
%TO.N,/G_6*%
X65060000Y-87019784D02*
X65060000Y-85880000D01*
X65060216Y-87020000D02*
X65060000Y-87019784D01*
%TO.N,/G_4*%
X61510000Y-85887500D02*
X61505000Y-85882500D01*
X61510000Y-87020000D02*
X61510000Y-85887500D01*
%TO.N,/G_8*%
X68607500Y-86998324D02*
X68607500Y-85872500D01*
X68614176Y-87005000D02*
X68607500Y-86998324D01*
%TO.N,/G_1*%
X68108521Y-97475000D02*
X67390000Y-97475000D01*
X69053521Y-96530000D02*
X68108521Y-97475000D01*
X70560000Y-96530000D02*
X69053521Y-96530000D01*
%TO.N,/G_2*%
X68340000Y-96535000D02*
X68060000Y-96815000D01*
X68646000Y-96229000D02*
X68340000Y-96535000D01*
X70605000Y-96229000D02*
X68646000Y-96229000D01*
%TO.N,/G_8*%
X70914999Y-103355000D02*
X70177500Y-103355000D01*
X71116000Y-103153999D02*
X70914999Y-103355000D01*
X71116000Y-99163598D02*
X71116000Y-103153999D01*
X70581655Y-98690000D02*
X70642402Y-98690000D01*
X70471314Y-98800341D02*
X70581655Y-98690000D01*
X70642402Y-98690000D02*
X71116000Y-99163598D01*
%TO.N,/G_7*%
X70914999Y-103855000D02*
X70177500Y-103855000D01*
X70249447Y-98095000D02*
X70473080Y-98095000D01*
X70473080Y-98095000D02*
X71417000Y-99038920D01*
X71417000Y-99038920D02*
X71417000Y-103352999D01*
X70085000Y-97930553D02*
X70249447Y-98095000D01*
X70085000Y-97655000D02*
X70085000Y-97930553D01*
X71417000Y-103352999D02*
X70914999Y-103855000D01*
%TO.N,/G_3*%
X73090000Y-105530001D02*
X73090000Y-106267500D01*
X72587999Y-105028000D02*
X73090000Y-105530001D01*
X71273920Y-105028000D02*
X72587999Y-105028000D01*
X71010960Y-105290960D02*
X71273920Y-105028000D01*
X69238912Y-105290960D02*
X71010960Y-105290960D01*
X68689829Y-105342354D02*
X69187518Y-105342354D01*
X68611187Y-105420996D02*
X68689829Y-105342354D01*
X68196145Y-105420996D02*
X68611187Y-105420996D01*
X69187518Y-105342354D02*
X69238912Y-105290960D01*
X68117503Y-105342354D02*
X68196145Y-105420996D01*
X67377646Y-105342354D02*
X68117503Y-105342354D01*
X67360000Y-105360000D02*
X67377646Y-105342354D01*
%TO.N,/G_4*%
X70690000Y-106030000D02*
X70940000Y-105780000D01*
X68524220Y-106030000D02*
X70690000Y-106030000D01*
X67964495Y-105938125D02*
X68432345Y-105938125D01*
X68432345Y-105938125D02*
X68524220Y-106030000D01*
%TO.N,/G_5*%
X68403666Y-104919996D02*
X68468662Y-104855000D01*
X68468662Y-104855000D02*
X70177500Y-104855000D01*
%TO.N,/G_6*%
X70172500Y-104350000D02*
X70177500Y-104355000D01*
X68810000Y-104350000D02*
X70172500Y-104350000D01*
%TO.N,+3V3*%
X67575000Y-99355000D02*
X67570000Y-99360000D01*
X68590000Y-99355000D02*
X67575000Y-99355000D01*
%TO.N,/G_2*%
X75113999Y-96229000D02*
X70605000Y-96229000D01*
X76090000Y-97205001D02*
X75113999Y-96229000D01*
X76090000Y-97942500D02*
X76090000Y-97205001D01*
%TO.N,/G_1*%
X74914999Y-96530000D02*
X70560000Y-96530000D01*
X75590000Y-97205001D02*
X74914999Y-96530000D01*
X75590000Y-97942500D02*
X75590000Y-97205001D01*
%TO.N,/G_4*%
X71398598Y-105329000D02*
X71170000Y-105557598D01*
X72388999Y-105329000D02*
X71398598Y-105329000D01*
X72590000Y-105530001D02*
X72388999Y-105329000D01*
X71170000Y-105557598D02*
X71170000Y-105560000D01*
X72590000Y-106267500D02*
X72590000Y-105530001D01*
%TO.N,GND*%
X68255000Y-106575000D02*
X69590000Y-106575000D01*
%TO.N,/P_1*%
X74590000Y-108112108D02*
X74590000Y-106267500D01*
X73537108Y-109165000D02*
X74590000Y-108112108D01*
X72673595Y-109411030D02*
X72919625Y-109165000D01*
X72919625Y-109165000D02*
X73537108Y-109165000D01*
%TO.N,/P_2*%
X73330000Y-108665000D02*
X74090000Y-107905000D01*
X72435000Y-108665000D02*
X73330000Y-108665000D01*
X74090000Y-107905000D02*
X74090000Y-106267500D01*
X72130000Y-108970000D02*
X72435000Y-108665000D01*
%TO.N,/P_3*%
X73590000Y-107810000D02*
X73590000Y-107580000D01*
X73590000Y-107580000D02*
X73590000Y-106267500D01*
X73115000Y-108285000D02*
X73590000Y-107810000D01*
X71630000Y-108285000D02*
X73115000Y-108285000D01*
%TO.N,GND*%
X72100000Y-107315000D02*
X72090000Y-107305000D01*
X72100000Y-107650000D02*
X72100000Y-107315000D01*
X72090000Y-107305000D02*
X72090000Y-106267500D01*
D33*
%TO.N,Net-(D1-A)*%
X87555000Y-88450000D02*
X87555000Y-87210000D01*
X87560000Y-89700000D02*
X87560000Y-88455000D01*
X87555000Y-87210000D02*
X87545000Y-87200000D01*
X87545000Y-85950000D02*
X87545000Y-87200000D01*
X87560000Y-88455000D02*
X87555000Y-88450000D01*
X87545000Y-85950000D02*
X87545000Y-84700000D01*
X87545000Y-84700000D02*
X87545000Y-83450000D01*
X87545000Y-83450000D02*
X87545000Y-82200000D01*
%TO.N,Net-(D10-A)*%
X85470000Y-83450000D02*
X85470000Y-82210000D01*
X85470000Y-82210000D02*
X85460000Y-82200000D01*
X85470000Y-84700000D02*
X85470000Y-83450000D01*
X85470000Y-85950000D02*
X85470000Y-84700000D01*
X85470000Y-87200000D02*
X85470000Y-85950000D01*
X85470000Y-88450000D02*
X85470000Y-87200000D01*
X85470000Y-89700000D02*
X85470000Y-88450000D01*
X85460000Y-89710000D02*
X85470000Y-89700000D01*
X85460000Y-90950000D02*
X85460000Y-89710000D01*
%TO.N,Net-(D17-A)*%
X83370000Y-88465000D02*
X83355000Y-88450000D01*
X83370000Y-89700000D02*
X83370000Y-88465000D01*
X83355000Y-88450000D02*
X83355000Y-87200000D01*
X83360000Y-90920000D02*
X83360000Y-89710000D01*
X83360000Y-89710000D02*
X83370000Y-89700000D01*
X83355000Y-87200000D02*
X83355000Y-85955000D01*
X83350000Y-85950000D02*
X83350000Y-84720000D01*
X83355000Y-85955000D02*
X83350000Y-85950000D01*
X83370000Y-84700000D02*
X83370000Y-83450000D01*
X83350000Y-84720000D02*
X83370000Y-84700000D01*
X83370000Y-83450000D02*
X83370000Y-82200000D01*
%TO.N,Net-(D25-A)*%
X81270000Y-84700000D02*
X81270000Y-83450000D01*
X81270000Y-83450000D02*
X81270000Y-82200000D01*
X81270000Y-85950000D02*
X81270000Y-84700000D01*
X81270000Y-87200000D02*
X81270000Y-85950000D01*
X81270000Y-88450000D02*
X81270000Y-87200000D01*
X81270000Y-89700000D02*
X81270000Y-88450000D01*
X81275000Y-89705000D02*
X81270000Y-89700000D01*
X81275000Y-90950000D02*
X81275000Y-89705000D01*
%TO.N,Net-(D33-A)*%
X79170000Y-84700000D02*
X79170000Y-83450000D01*
X79170000Y-83450000D02*
X79170000Y-82200000D01*
X79170000Y-85950000D02*
X79170000Y-84700000D01*
X79170000Y-87200000D02*
X79170000Y-85950000D01*
X79170000Y-88450000D02*
X79170000Y-87200000D01*
X79170000Y-89700000D02*
X79170000Y-88450000D01*
X79160000Y-89710000D02*
X79170000Y-89700000D01*
X79160000Y-90950000D02*
X79160000Y-89710000D01*
%TO.N,Net-(D41-A)*%
X77070000Y-83450000D02*
X77070000Y-82200000D01*
X77070000Y-84700000D02*
X77070000Y-83450000D01*
X77070000Y-85950000D02*
X77070000Y-84700000D01*
X77070000Y-87200000D02*
X77070000Y-85950000D01*
X77070000Y-88425000D02*
X77070000Y-87200000D01*
X77070000Y-89700000D02*
X77070000Y-88425000D01*
X77075000Y-90950000D02*
X77075000Y-89705000D01*
X77075000Y-89705000D02*
X77070000Y-89700000D01*
D32*
%TO.N,/P_4*%
X72590000Y-102285000D02*
X72590000Y-97942500D01*
X72600000Y-102295000D02*
X72590000Y-102285000D01*
%TO.N,/P_8*%
X74590000Y-99205000D02*
X74590000Y-99430000D01*
X74590000Y-99200000D02*
X74590000Y-99205000D01*
%TO.N,/P_7*%
X74090000Y-100090000D02*
X74090000Y-97942500D01*
X74095000Y-100095000D02*
X74090000Y-100090000D01*
%TO.N,/P_8*%
X74590000Y-99430000D02*
X74595000Y-99435000D01*
X74590000Y-99110000D02*
X74590000Y-99200000D01*
%TO.N,BOOT0*%
X75085000Y-99975000D02*
X75070000Y-99960000D01*
X75090000Y-99980000D02*
X75085000Y-99975000D01*
X75090000Y-99980000D02*
X75090000Y-97942500D01*
%TO.N,/P_8*%
X74590000Y-97942500D02*
X74590000Y-99110000D01*
%TO.N,/P_6*%
X73590000Y-100790000D02*
X73590000Y-97942500D01*
%TO.N,/P_5*%
X73090000Y-101575000D02*
X73090000Y-97942500D01*
D33*
%TO.N,GND*%
X65965000Y-98220000D02*
X65965000Y-96710000D01*
D35*
%TO.N,+3V3*%
X70177500Y-99355000D02*
X68590000Y-99355000D01*
D32*
X78420000Y-113505000D02*
X78420000Y-112414000D01*
%TO.N,Net-(D67-A)*%
X79440000Y-114715000D02*
X80787500Y-114715000D01*
%TO.N,+3V3*%
X78420000Y-112414000D02*
X78425000Y-112409000D01*
X78420000Y-114715000D02*
X78420000Y-113505000D01*
D34*
%TO.N,NSRT*%
X82085000Y-102865000D02*
X82085000Y-108100000D01*
X78502500Y-102355000D02*
X81575000Y-102355000D01*
X81575000Y-102355000D02*
X82085000Y-102865000D01*
%TO.N,+3V3*%
X80530000Y-99245000D02*
X82180000Y-99245000D01*
D32*
X80535000Y-99240000D02*
X80530000Y-99245000D01*
D34*
X80535000Y-97605000D02*
X80535000Y-99240000D01*
D32*
%TO.N,Net-(U1-PD0)*%
X78512500Y-101345000D02*
X78502500Y-101355000D01*
D35*
X80530000Y-101345000D02*
X78512500Y-101345000D01*
D32*
X80515000Y-101355000D02*
X80525000Y-101345000D01*
%TO.N,+3V3*%
X77727500Y-97942500D02*
X77730000Y-97945000D01*
D35*
X77090000Y-97942500D02*
X77727500Y-97942500D01*
D32*
X77300000Y-103355000D02*
X77280000Y-103355000D01*
X78502500Y-103355000D02*
X77300000Y-103355000D01*
D35*
%TO.N,UART_-*%
X63860000Y-101402844D02*
X63860000Y-100117501D01*
X64767156Y-102310000D02*
X63860000Y-101402844D01*
X67714321Y-102310000D02*
X64767156Y-102310000D01*
X67719321Y-102305000D02*
X67714321Y-102310000D01*
X69021249Y-102305000D02*
X67719321Y-102305000D01*
X69071249Y-102355000D02*
X69021249Y-102305000D01*
X70177500Y-102355000D02*
X69071249Y-102355000D01*
%TO.N,UART_+*%
X64695000Y-99682501D02*
X64695000Y-98220000D01*
X64260000Y-100117501D02*
X64695000Y-99682501D01*
X64260000Y-101237156D02*
X64260000Y-100117501D01*
X67561249Y-101910000D02*
X64932844Y-101910000D01*
X69071249Y-101855000D02*
X69021249Y-101905000D01*
X64932844Y-101910000D02*
X64260000Y-101237156D01*
X70177500Y-101855000D02*
X69071249Y-101855000D01*
X69021249Y-101905000D02*
X67566249Y-101905000D01*
%TO.N,UART_-*%
X63425000Y-99682501D02*
X63425000Y-98220000D01*
%TO.N,UART_+*%
X67566249Y-101905000D02*
X67561249Y-101910000D01*
%TO.N,UART_-*%
X63860000Y-100117501D02*
X63425000Y-99682501D01*
D33*
%TO.N,+3V3*%
X62915000Y-99765000D02*
X62915000Y-100320000D01*
X62155000Y-99005000D02*
X62915000Y-99765000D01*
X62155000Y-98220000D02*
X62155000Y-99005000D01*
%TO.N,Net-(D49-A)*%
X74970000Y-83450000D02*
X74970000Y-82200000D01*
X74970000Y-84700000D02*
X74970000Y-83450000D01*
X74970000Y-85950000D02*
X74970000Y-84700000D01*
X74970000Y-87200000D02*
X74970000Y-85950000D01*
X74970000Y-88450000D02*
X74970000Y-87200000D01*
X74970000Y-89700000D02*
X74970000Y-88450000D01*
X74975000Y-90950000D02*
X74975000Y-89705000D01*
X74975000Y-89705000D02*
X74970000Y-89700000D01*
%TO.N,GND*%
X66157500Y-114402500D02*
X69405000Y-114402500D01*
X66130000Y-114430000D02*
X66157500Y-114402500D01*
%TO.N,+3V3*%
X67980000Y-112100000D02*
X66130000Y-112100000D01*
X66130000Y-112100000D02*
X66110000Y-112120000D01*
D32*
X67982500Y-112102500D02*
X67980000Y-112100000D01*
D33*
X69405000Y-112102500D02*
X67982500Y-112102500D01*
%TO.N,Net-(D57-A)*%
X72870000Y-88450000D02*
X72870000Y-87200000D01*
X72870000Y-85950000D02*
X72870000Y-84700000D01*
X72890000Y-90950000D02*
X72890000Y-89720000D01*
X72870000Y-87200000D02*
X72870000Y-85950000D01*
X72870000Y-89700000D02*
X72870000Y-88450000D01*
X72870000Y-84700000D02*
X72870000Y-83450000D01*
X72870000Y-83450000D02*
X72870000Y-82200000D01*
%TO.N,GND*%
X56165000Y-104395000D02*
X55205000Y-104395000D01*
%TO.N,+3V3*%
X56705000Y-105715000D02*
X56165000Y-105715000D01*
X56830000Y-105590000D02*
X56705000Y-105715000D01*
X57125000Y-105295000D02*
X56830000Y-105590000D01*
X57125000Y-104395000D02*
X57125000Y-105295000D01*
X57130000Y-104390000D02*
X57125000Y-104395000D01*
X57130000Y-102870000D02*
X57130000Y-104390000D01*
X55480000Y-102870000D02*
X57130000Y-102870000D01*
%TO.N,GND*%
X55480000Y-100770000D02*
X55480000Y-98790000D01*
%TO.N,Net-(U2-XI)*%
X58345000Y-99555000D02*
X58345000Y-98220000D01*
X57130000Y-100770000D02*
X58345000Y-99555000D01*
D32*
%TO.N,/D_1_C-*%
X60025000Y-100092501D02*
X59615000Y-99682501D01*
X60025000Y-101030000D02*
X60025000Y-100092501D01*
%TO.N,/D_1_C+*%
X60885000Y-99682501D02*
X60885000Y-98220000D01*
X60475000Y-100092501D02*
X60885000Y-99682501D01*
X60475000Y-101030000D02*
X60475000Y-100092501D01*
%TO.N,/D_1_C-*%
X59615000Y-99682501D02*
X59615000Y-98220000D01*
X59112500Y-101942500D02*
X60025000Y-101030000D01*
%TO.N,/D_1_C+*%
X61387500Y-101942500D02*
X60475000Y-101030000D01*
%TO.N,/D_1_C-*%
X59620000Y-98605000D02*
X59620000Y-97930000D01*
%TO.N,/D_1_C+*%
X60890000Y-98605000D02*
X60890000Y-97930000D01*
%TO.N,/D_1_C-*%
X60024999Y-103739999D02*
X60024999Y-102854999D01*
X60025000Y-103740000D02*
X60024999Y-103739999D01*
%TO.N,/D_1_C+*%
X60475001Y-102854999D02*
X61387500Y-101942500D01*
%TO.N,/D_1_C-*%
X60024999Y-102854999D02*
X59112500Y-101942500D01*
%TO.N,/D_1_C+*%
X60475001Y-103739999D02*
X60475001Y-102854999D01*
X60475000Y-103740000D02*
X60475001Y-103739999D01*
%TO.N,/D_1_C-*%
X60025000Y-108754999D02*
X60025000Y-103740000D01*
X60000000Y-108779999D02*
X60025000Y-108754999D01*
X60000000Y-109755000D02*
X60000000Y-108779999D01*
%TO.N,/D_1_C+*%
X60500000Y-108779999D02*
X60475000Y-108754999D01*
X60500000Y-109755000D02*
X60500000Y-108779999D01*
X60475000Y-108754999D02*
X60475000Y-103740000D01*
D33*
%TO.N,GND*%
X57050000Y-109755000D02*
X57050000Y-107670000D01*
X63450000Y-109755000D02*
X63450000Y-107620000D01*
%TO.N,Net-(F1-Pad2)*%
X62650000Y-107620000D02*
X62640000Y-107610000D01*
X62650000Y-109755000D02*
X62650000Y-107620000D01*
X57850000Y-109755000D02*
X57850000Y-107590000D01*
D32*
%TO.N,/CC2_2*%
X58500000Y-109755000D02*
X58500000Y-105770000D01*
%TO.N,/CC2_1*%
X61500000Y-109755000D02*
X61500000Y-105770000D01*
%TO.N,GND*%
X61500000Y-104010000D02*
X61500000Y-103760000D01*
X58500000Y-104750000D02*
X58500000Y-103760000D01*
X61500000Y-104750000D02*
X61500000Y-104010000D01*
%TD*%
M02*
